<svg xmlns="http://www.w3.org/2000/svg" width="250" height="70.74" fill="none" preserveAspectRatio="xMidYMid" viewBox="-80.4 -20.038 1048.802 296.769"><path fill="#00309A" d="M49.387 147.452c-.159 1.811-1.625 3.276-3.44 3.47C23.931 153.281 7 174.965 7 201.358 7 229.327 26.39 252 50.309 252h165.11C241.697 252 263 228.039 263 198.482c0-28.325-19.565-51.511-44.323-53.394-1.894-.144-3.431-1.47-3.792-3.326C209.354 113.35 183.839 92 153.673 92c-19.604 0-37.068 8.878-48.409 23.002-1.108 1.381-2.968 2.013-4.603 1.327-4.364-1.831-8.973-2.717-14.13-2.717-19.488 0-35.483 14.877-37.144 33.84"/><path fill="#FFCD05" d="M283.68 122.507a.3.3 0 0 0-.361 0l-9.905 7.443a.3.3 0 0 1-.468-.326l3.688-12.255a.3.3 0 0 0-.103-.323l-9.849-7.648a.3.3 0 0 1 .181-.537l12.213-.1a.3.3 0 0 0 .283-.209l3.855-12.151a.3.3 0 0 1 .571 0l3.854 12.151a.3.3 0 0 0 .284.209l12.213.1a.3.3 0 0 1 .181.537l-9.85 7.648a.3.3 0 0 0-.103.323l3.687 12.255a.3.3 0 0 1-.467.326zM146.365 43.268a.3.3 0 0 0-.361 0l-9.905 7.443a.3.3 0 0 1-.467-.326l3.688-12.255a.3.3 0 0 0-.103-.324l-9.85-7.648a.3.3 0 0 1 .182-.537l12.212-.1a.3.3 0 0 0 .283-.208l3.855-12.151a.3.3 0 0 1 .572 0l3.854 12.15a.3.3 0 0 0 .284.21l12.212.1a.3.3 0 0 1 .181.536l-9.85 7.648a.3.3 0 0 0-.103.324l3.689 12.255a.3.3 0 0 1-.468.326zm-33.49 33.49a.3.3 0 0 0-.361 0l-9.905 7.444a.3.3 0 0 1-.467-.327l3.688-12.255a.3.3 0 0 0-.104-.323l-9.85-7.647a.3.3 0 0 1 .182-.537l12.213-.1a.3.3 0 0 0 .284-.21l3.853-12.15a.3.3 0 0 1 .572 0l3.854 12.15a.3.3 0 0 0 .284.21l12.212.1a.3.3 0 0 1 .182.537l-9.85 7.647a.3.3 0 0 0-.103.323l3.688 12.255a.3.3 0 0 1-.468.326zm-12.194 45.748a.3.3 0 0 0-.361 0l-9.905 7.444a.3.3 0 0 1-.467-.327l3.688-12.255a.3.3 0 0 0-.103-.324l-9.85-7.647a.3.3 0 0 1 .181-.537l12.213-.1a.3.3 0 0 0 .284-.209l3.853-12.15a.3.3 0 0 1 .572 0l3.854 12.15a.3.3 0 0 0 .284.209l12.212.1a.3.3 0 0 1 .182.537l-9.85 7.647a.3.3 0 0 0-.103.324l3.688 12.255a.3.3 0 0 1-.468.327zm12.266 45.752a.3.3 0 0 0-.361 0l-9.905 7.443a.3.3 0 0 1-.468-.326l3.689-12.255a.3.3 0 0 0-.103-.324l-9.85-7.647a.3.3 0 0 1 .181-.537l12.212-.1a.3.3 0 0 0 .284-.209l3.854-12.151c.089-.279.484-.279.572 0l3.854 12.151c.04.123.154.208.284.209l12.212.1a.3.3 0 0 1 .182.537l-9.85 7.647a.3.3 0 0 0-.104.324l3.689 12.255a.3.3 0 0 1-.468.326zm33.489 33.49a.3.3 0 0 0-.36 0l-9.905 7.444a.3.3 0 0 1-.468-.326l3.688-12.256a.3.3 0 0 0-.103-.323l-9.849-7.648a.3.3 0 0 1 .181-.537l12.212-.1a.3.3 0 0 0 .284-.209l3.854-12.15c.089-.279.484-.279.572 0l3.854 12.15a.3.3 0 0 0 .283.209l12.213.1a.3.3 0 0 1 .182.537l-9.85 7.648a.3.3 0 0 0-.103.323l3.688 12.256a.3.3 0 0 1-.468.326zm45.744 12.258a.3.3 0 0 0-.36 0l-9.905 7.444a.3.3 0 0 1-.468-.327l3.688-12.255a.3.3 0 0 0-.103-.324l-9.85-7.647a.3.3 0 0 1 .182-.537l12.212-.1a.3.3 0 0 0 .283-.209l3.855-12.151c.088-.279.483-.279.572 0l3.854 12.151a.3.3 0 0 0 .283.209l12.212.1a.3.3 0 0 1 .182.537l-9.85 7.647a.3.3 0 0 0-.103.324l3.688 12.255a.3.3 0 0 1-.467.327zm45.816-12.257a.3.3 0 0 0-.361 0l-9.905 7.444a.3.3 0 0 1-.467-.327l3.688-12.255a.3.3 0 0 0-.104-.324l-9.85-7.647a.3.3 0 0 1 .182-.537l12.212-.1a.3.3 0 0 0 .284-.209l3.854-12.151c.089-.279.484-.279.572 0l3.854 12.151a.3.3 0 0 0 .284.209l12.212.1a.3.3 0 0 1 .181.537l-9.85 7.647a.3.3 0 0 0-.103.324l3.689 12.255a.3.3 0 0 1-.468.327zm33.491-33.491a.3.3 0 0 0-.361 0l-9.905 7.444a.3.3 0 0 1-.468-.327l3.688-12.256a.3.3 0 0 0-.103-.323l-9.85-7.647a.3.3 0 0 1 .182-.537l12.212-.1a.3.3 0 0 0 .284-.209l3.854-12.151c.089-.279.484-.279.572 0l3.853 12.151c.04.123.154.208.284.209l12.213.1a.3.3 0 0 1 .182.537l-9.85 7.647a.3.3 0 0 0-.104.323l3.688 12.256a.3.3 0 0 1-.467.326zm-.066-91.5a.3.3 0 0 0-.36 0l-9.906 7.444a.3.3 0 0 1-.467-.326l3.688-12.255a.3.3 0 0 0-.104-.324l-9.849-7.647a.3.3 0 0 1 .182-.537l12.212-.1a.3.3 0 0 0 .283-.21l3.855-12.15a.3.3 0 0 1 .572 0l3.854 12.15a.3.3 0 0 0 .283.21l12.213.1a.3.3 0 0 1 .181.537l-9.849 7.647a.3.3 0 0 0-.104.324l3.687 12.255a.3.3 0 0 1-.467.326zm-79.241-45.75a.3.3 0 0 0-.36 0l-9.906 7.443a.3.3 0 0 1-.467-.327l3.689-12.255a.3.3 0 0 0-.104-.324l-9.849-7.647a.3.3 0 0 1 .181-.537l12.212-.1a.3.3 0 0 0 .284-.209l3.854-12.15a.3.3 0 0 1 .572 0l3.854 12.15c.04.124.154.209.284.21l12.212.099a.3.3 0 0 1 .181.537l-9.849 7.647a.3.3 0 0 0-.104.324l3.688 12.255a.3.3 0 0 1-.467.327zm45.897 12.26a.3.3 0 0 0-.361 0l-9.904 7.443a.3.3 0 0 1-.468-.326l3.688-12.254a.3.3 0 0 0-.103-.324l-9.85-7.648a.3.3 0 0 1 .181-.537l12.213-.1a.3.3 0 0 0 .284-.208l3.853-12.152c.089-.279.484-.279.572 0l3.855 12.152a.3.3 0 0 0 .283.209l12.212.1a.3.3 0 0 1 .182.536l-9.849 7.648a.3.3 0 0 0-.104.324l3.688 12.254a.3.3 0 0 1-.468.327z"/><path fill="#000" d="M379.991 97.096h-22.884v22.928h26.661V127h-34.792V62.305h34.347v7.02h-26.216V90.12h22.884zm52.787-34.791v45.988q-.089 9.198-5.332 14.397-5.244 5.199-14.619 5.199-9.597 0-14.663-5.066-5.066-5.11-5.154-14.53V62.305h8.087v45.677q0 6.532 2.755 9.776 2.8 3.2 8.975 3.199 6.22 0 8.976-3.199 2.799-3.244 2.799-9.776V62.305zm32.081 38.524h-11.375V127h-8.176V62.305h18.129q9.509 0 14.396 4.976 4.888 4.932 4.888 14.486 0 5.998-2.666 10.486-2.622 4.443-7.465 6.71l12.531 27.504V127h-8.754zm-11.375-6.976h9.864q5.11 0 8.131-3.288 3.066-3.289 3.066-8.798 0-12.442-11.286-12.442h-9.775zm82.246 6.487q0 13.241-5.643 20.395t-16.04 7.154q-9.998 0-15.818-6.932-5.777-6.976-5.999-19.684V89.098q0-12.974 5.732-20.306 5.732-7.376 15.996-7.376 10.22 0 15.907 7.065 5.733 7.02 5.865 20.084zm-8.131-11.33q0-10.266-3.377-15.241-3.333-5.022-10.264-5.021-6.71 0-10.175 5.065-3.421 5.065-3.466 14.93v11.597q0 9.909 3.421 15.107 3.466 5.199 10.309 5.199t10.131-4.799 3.421-14.707zm28.838 12.663V127h-8.132V62.305h20.617q9.02 0 14.175 5.42 5.154 5.377 5.154 14.353 0 9.331-4.932 14.396-4.888 5.02-13.819 5.199zm0-6.976h12.485q5.421 0 8.309-3.244 2.889-3.243 2.889-9.287 0-5.82-2.977-9.33t-8.176-3.51h-12.53zm73.359 2.4h-22.883v22.927h26.66V127h-34.791V62.305h34.347v7.02h-26.216V90.12h22.883zm44.39 13.018h-21.862L647.303 127h-8.353l20.839-64.695h6.976L687.649 127h-8.354zm-19.729-7.02h17.64l-8.842-29.415zM738.703 127h-8.176l-25.904-49.854V127h-8.176V62.305h8.176l25.993 50.076V62.305h8.087zm-359.557 90.115h-21.861L352.264 234h-8.353l20.839-64.695h6.976L392.61 234h-8.354zm-19.728-7.02h17.64l-8.842-29.415zm50.165 16.929h25.372V234h-33.547v-64.695h8.175zm60.652-50.699h-17.018V234h-8.131v-57.675h-16.974v-7.02h42.123zm40.568 27.771H487.92v22.928h26.66V234h-34.791v-64.695h34.347v7.02H487.92v20.795h22.883zm33.77 3.733h-11.375V234h-8.176v-64.695h18.129q9.509 0 14.396 4.976 4.888 4.932 4.888 14.486 0 5.998-2.666 10.486-2.622 4.444-7.465 6.709l12.53 27.505V234h-8.753zm-11.375-6.976h9.864q5.11 0 8.131-3.289 3.066-3.288 3.066-8.797 0-12.442-11.286-12.442h-9.775zM615.622 234h-8.176l-25.904-49.854V234h-8.176v-64.695h8.176l25.993 50.076v-50.076h8.087zm45.056-16.885h-21.862L633.795 234h-8.353l20.839-64.695h6.976L674.141 234h-8.353zm-19.729-7.02h17.64l-8.842-29.415zm74.027-33.77h-17.018V234h-8.132v-57.675h-16.973v-7.02h42.123zM733.016 234h-8.132v-64.695h8.132zm32.747-12.486 14.797-52.209h8.931L769.362 234h-7.109l-20.084-64.695h8.887zm63.54-17.418H806.42v22.928h26.66V234h-34.791v-64.695h34.347v7.02H806.42v20.795h22.883zm42.479 13.552q0-4.843-2.622-7.42t-9.464-5.021-10.487-5.11q-3.599-2.71-5.42-6.132-1.778-3.466-1.778-7.909 0-7.688 5.11-12.663 5.154-4.977 13.463-4.977 5.688 0 10.131 2.577 4.444 2.534 6.843 7.065 2.4 4.533 2.4 9.953h-8.176q0-5.998-2.888-9.286t-8.31-3.288q-4.932 0-7.642 2.754t-2.711 7.732q0 4.088 2.933 6.843t9.065 4.932q9.552 3.154 13.641 7.776 4.132 4.62 4.132 12.086 0 7.864-5.11 12.619-5.109 4.71-13.908 4.71-5.642 0-10.442-2.444-4.753-2.489-7.509-6.932-2.71-4.488-2.71-10.264h8.176q0 5.998 3.332 9.331 3.377 3.333 9.153 3.333 5.377 0 8.087-2.755t2.711-7.51"/><path fill="#000" d="M379.991 97.096v1h1v-1zm-22.884 0v-1h-1v1zm0 22.928h-1v1h1zm26.661 0h1v-1h-1zm0 6.976v1h1v-1zm-34.792 0h-1v1h1zm0-64.695v-1h-1v1zm34.347 0h1v-1h-1zm0 7.02v1h1v-1zm-26.216 0v-1h-1v1zm0 20.795h-1v1h1zm22.884 0h1v-1h-1zm0 5.976h-22.884v2h22.884zm-23.884 1v22.928h2V97.096zm1 23.928h26.661v-2h-26.661zm25.661-1V127h2v-6.976zm1 5.976h-34.792v2h34.792zm-33.792 1V62.305h-2V127zm-1-63.695h34.347v-2h-34.347zm33.347-1v7.02h2v-7.02zm1 6.02h-26.216v2h26.216zm-27.216 1V90.12h2V69.325zm1 21.795h22.884v-2h-22.884zm21.884-1v6.976h2V90.12zm53.787-27.815h1v-1h-1zm0 45.988 1 .01v-.01zm-34.614 14.53-.71.704.003.003zm-5.154-14.53h-1v.01zm0-45.988v-1h-1v1zm8.087 0h1v-1h-1zm2.755 55.453-.763.647.005.006.005.005zm17.951 0-.757-.654-.001.001zm2.799-55.453v-1h-1v1zm7.176 0v45.988h2V62.305zm0 45.979c-.057 5.937-1.771 10.459-5.036 13.696l1.408 1.42c3.726-3.694 5.567-8.77 5.628-15.097zm-5.036 13.696c-3.261 3.233-7.854 4.909-13.915 4.909v2c6.44 0 11.593-1.791 15.323-5.489zm-13.915 4.909c-6.226 0-10.823-1.64-13.956-4.773l-1.414 1.414c3.621 3.622 8.799 5.359 15.37 5.359zm-13.953-4.77c-3.142-3.17-4.807-7.732-4.864-13.835l-2 .019c.061 6.457 1.832 11.581 5.444 15.224zm-4.864-13.826V62.305h-2v45.988zm-1-44.988h8.087v-2h-8.087zm7.087-1v45.677h2V62.305zm0 45.677c0 4.471.939 8.005 2.992 10.423l1.525-1.295c-1.62-1.906-2.517-4.889-2.517-9.128zm3.002 10.434c2.129 2.434 5.456 3.541 9.728 3.541v-2c-3.963 0-6.62-1.025-8.223-2.858zm9.728 3.541c4.298 0 7.631-1.105 9.734-3.547l-1.516-1.305c-1.571 1.825-4.221 2.852-8.218 2.852zm9.733-3.546c2.087-2.418 3.042-5.955 3.042-10.429h-2c0 4.236-.911 7.216-2.556 9.122zm3.042-10.429V62.305h-2v45.677zm-1-44.677h8.176v-2h-8.176zm40.257 37.524.915-.403-.262-.597h-.653zm-11.375 0v-1h-1v1zm0 26.171v1h1v-1zm-8.176 0h-1v1h1zm0-64.695v-1h-1v1zm32.525 4.976-.713.701.003.003zm2.222 24.972-.86-.51-.001.002zm-7.465 6.71-.423-.906-.897.42.41.9zm12.531 27.504h1v-.217l-.09-.198zm0 .533v1h1v-1zm-8.754 0-.915.403.263.597h.652zm-22.883-33.147h-1v1h1zm17.995-3.288-.731-.683-.005.006zm-17.995-21.24v-1h-1v1zm11.375 30.504h-11.375v2h11.375zm-12.375 1V127h2v-26.171zm1 25.171h-8.176v2h8.176zm-7.176 1V62.305h-2V127zm-1-63.695h18.129v-2h-18.129zm18.129 0c6.171 0 10.673 1.612 13.683 4.677l1.427-1.401c-3.507-3.57-8.603-5.276-15.11-5.276zm13.686 4.68c3.012 3.04 4.598 7.575 4.598 13.782h2c0-6.532-1.672-11.653-5.177-15.19zm4.598 13.782c0 3.846-.853 7.16-2.526 9.975l1.72 1.022c1.882-3.169 2.806-6.846 2.806-10.997zm-2.527 9.978c-1.641 2.782-3.974 4.883-7.027 6.312l.847 1.811c3.404-1.593 6.048-3.965 7.902-7.107zm-7.514 7.632 12.531 27.504 1.82-.829L473.5 98.548zm12.441 27.09V127h2v-.533zm1-.467h-8.754v2h8.754zm-7.838.597-11.509-26.171-1.831.805 11.509 26.172zm-23.799-31.744h9.864v-2h-9.864zm9.864 0c3.642 0 6.636-1.183 8.868-3.612l-1.473-1.353c-1.797 1.955-4.224 2.965-7.395 2.965zm8.863-3.607c2.253-2.416 3.334-5.613 3.334-9.48h-2c0 3.48-.963 6.15-2.797 8.116zm3.334-9.48c0-4.278-.968-7.673-3.08-10.002-2.13-2.348-5.263-3.439-9.206-3.439v2c3.582 0 6.092.983 7.724 2.782 1.65 1.819 2.562 4.644 2.562 8.66zm-12.286-13.44h-9.775v2h9.775zm-10.775 1v24.527h2V69.325zm77.603 51.409-.785-.619zm-31.858.222-.771.638.005.005zm-5.999-19.684h-1v.017zm5.732-32.481.788.616.002-.002zm31.903-.311-.779.627.005.005zm5.865 20.084h1.001l-.001-.01zm-11.508-14.796-.833.553.006.008zm-20.439.044-.826-.565-.003.005zm-3.466 14.93-1-.005v.005zm3.421 26.704-.835.55.003.005zm23.861-14.307 1 .013v-.013zm7.131-.8c0 8.701-1.856 15.247-5.428 19.776l1.571 1.238c3.952-5.01 5.857-12.061 5.857-21.014zm-5.428 19.776c-3.544 4.492-8.581 6.773-15.255 6.773v2c7.189 0 12.846-2.489 16.826-7.535zm-15.255 6.773c-6.405 0-11.384-2.206-15.053-6.575l-1.531 1.286c4.092 4.873 9.658 7.289 16.584 7.289zm-15.048-6.57c-3.658-4.417-5.623-10.728-5.769-19.064l-2 .035c.151 8.609 2.184 15.421 6.228 20.305zm-5.769-19.046V89.098h-2v12.175zm0-12.175c0-8.513 1.881-15.036 5.52-19.69l-1.576-1.232c-4.004 5.121-5.944 12.136-5.944 20.922zm5.522-19.692c3.611-4.648 8.637-6.99 15.206-6.99v-2c-7.117 0-12.754 2.575-16.786 7.762zm15.206-6.99c6.554 0 11.552 2.25 15.128 6.692l1.558-1.254c-4.007-4.978-9.614-7.438-16.686-7.438zm15.133 6.697c3.626 4.442 5.552 10.883 5.64 19.462l1.999-.02c-.09-8.839-2.074-15.787-6.09-20.707zm5.639 19.452v11.775h2V88.565zm-6.131.444c0-6.917-1.131-12.238-3.549-15.802l-1.655 1.123c2.084 3.072 3.204 7.91 3.204 14.68zm-3.544-15.793c-2.437-3.672-6.199-5.468-11.097-5.468v2c4.345 0 7.425 1.551 9.431 4.574zm-11.097-5.468c-4.767 0-8.484 1.822-11.001 5.5l1.651 1.13c2.105-3.076 5.171-4.63 9.35-4.63zm-11.004 5.505c-2.441 3.614-3.607 8.822-3.637 15.485l2 .01c.029-6.49 1.173-11.235 3.294-14.375zm-3.637 15.49v11.597h2V88.743zm0 11.597c0 6.695 1.151 11.958 3.586 15.657l1.671-1.099c-2.128-3.233-3.257-8.042-3.257-14.558zm3.589 15.662c2.516 3.774 6.282 5.644 11.141 5.644v-2c-4.265 0-7.372-1.596-9.477-4.753zm11.141 5.644c4.825 0 8.542-1.711 10.956-5.234l-1.65-1.13c-1.971 2.876-5.007 4.364-9.306 4.364zm10.956-5.234c2.357-3.44 3.506-8.579 3.596-15.259l-2-.027c-.088 6.532-1.219 11.198-3.246 14.156zm3.596-15.272V89.01h-2v12.13zm27.838.533v-1h-1v1zm0 25.327v1h1v-1zm-8.132 0h-1v1h1zm0-64.695v-1h-1v1zm34.792 5.42-.725.69.003.003zm.222 28.75-.717-.698zm-13.819 5.198v1h.02zm-13.063-6.976h-1v1h1zm0-25.372v-1h-1v1zm-1 32.348V127h2v-25.327zm1 24.327h-8.132v2h8.132zm-7.132 1V62.305h-2V127zm-1-63.695h20.617v-2h-20.617zm20.617 0c5.801 0 10.241 1.734 13.45 5.11l1.449-1.379c-3.663-3.852-8.672-5.731-14.899-5.731zm13.453 5.113c3.222 3.36 4.876 7.878 4.876 13.66h2c0-6.186-1.782-11.237-5.432-15.044zm4.876 13.66c0 6.046-1.595 10.562-4.649 13.698l1.433 1.396c3.523-3.618 5.216-8.7 5.216-15.094zm-4.649 13.699c-3.028 3.11-7.355 4.781-13.122 4.896l.04 2c6.141-.123 11.027-1.918 14.515-5.501zm-13.102 4.896h-13.063v2H569.5zm-13.063-4.976h12.485v-2h-12.485zm12.485 0c3.823 0 6.896-1.152 9.056-3.579l-1.493-1.33c-1.691 1.898-4.158 2.909-7.563 2.909zm9.056-3.579c2.143-2.406 3.142-5.774 3.142-9.951h-2c0 3.879-.927 6.703-2.635 8.621zm3.142-9.951c0-4.053-1.04-7.414-3.215-9.978l-1.525 1.293c1.794 2.116 2.74 4.977 2.74 8.685zm-3.215-9.978c-2.2-2.595-5.221-3.864-8.938-3.864v2c3.214 0 5.644 1.072 7.413 3.157zm-8.938-3.864h-12.53v2h12.53zm-13.53 1v25.372h2V69.325zm74.359 27.771v1h1v-1zm-22.883 0v-1h-1v1zm0 22.928h-1v1h1zm26.66 0h1v-1h-1zm0 6.976v1h1v-1zm-34.791 0h-1v1h1zm0-64.695v-1h-1v1zm34.347 0h1v-1h-1zm0 7.02v1h1v-1zm-26.216 0v-1h-1v1zm0 20.795h-1v1h1zm22.883 0h1v-1h-1zm0 5.976h-22.883v2h22.883zm-23.883 1v22.928h2V97.096zm1 23.928h26.66v-2h-26.66zm25.66-1V127h2v-6.976zm1 5.976h-34.791v2h34.791zm-33.791 1V62.305h-2V127zm-1-63.695h34.347v-2h-34.347zm33.347-1v7.02h2v-7.02zm1 6.02h-26.216v2h26.216zm-27.216 1V90.12h2V69.325zm1 21.795h22.883v-2h-22.883zm21.883-1v6.976h2V90.12zm45.39 19.995.957-.289-.215-.711h-.742zm-21.862 0v-1h-.746l-.212.715zM647.303 127v1h.746l.213-.715zm-8.353 0-.952-.307-.421 1.307h1.373zm20.839-64.695v-1h-.728l-.224.693zm6.976 0 .952-.307-.224-.693h-.728zM687.649 127v1h1.374l-.422-1.307zm-8.354 0-.957.29.215.71h.742zm-24.838-23.905-.958-.287-.385 1.287h1.343zm17.64 0v1h1.345l-.387-1.288zm-8.842-29.415.958-.288-.961-3.194-.955 3.195zm10.931 35.435h-21.862v2h21.862zm-22.82.715-5.021 16.885 1.917.57 5.021-16.885zM647.303 126h-8.353v2h8.353zm-7.401 1.307 20.839-64.696-1.904-.613-20.839 64.695zm19.887-64.002h6.976v-2h-6.976zm6.024-.693 20.884 64.695 1.904-.614-20.884-64.695zM687.649 126h-8.354v2h8.354zm-7.396.71-5.11-16.884-1.915.579 5.11 16.885zm-25.796-22.615h17.64v-2h-17.64zm18.598-1.288-8.842-29.415-1.916.576 8.843 29.415zm-10.758-29.414-8.798 29.415 1.916.573 8.798-29.415zM738.703 127v1h1v-1zm-8.176 0-.887.461.28.539h.607zm-25.904-49.854.887-.462-1.887.462zm0 49.854v1h1v-1zm-8.176 0h-1v1h1zm0-64.695v-1h-1v1zm8.176 0 .887-.461-.28-.54h-.607zm25.993 50.076-.887.461 1.887-.461zm0-50.076v-1h-1v1zm8.087 0h1v-1h-1zm0 63.695h-8.176v2h8.176zm-7.288.539L705.51 76.684l-1.775.923 25.905 49.854zm-27.792-49.393V127h2V77.146zm1 48.854h-8.176v2h8.176zm-7.176 1V62.305h-2V127zm-1-63.695h8.176v-2h-8.176zm7.288-.54 25.994 50.077 1.775-.921-25.994-50.077zm27.881 49.616V62.305h-2v50.076zm-1-49.076h8.087v-2h-8.087zm7.087-1V127h2V62.305zm-358.557 154.81.958-.289-.215-.711h-.743zm-21.861 0v-1h-.746l-.212.715zM352.264 234v1h.746l.213-.715zm-8.353 0-.952-.307-.421 1.307h1.373zm20.839-64.695v-1h-.728l-.224.693zm6.976 0 .952-.308-.224-.692h-.728zM392.61 234v1h1.373l-.421-1.307zm-8.354 0-.957.29.215.71h.742zm-24.838-23.905-.958-.287-.385 1.287h1.343zm17.64 0v1h1.345l-.387-1.288zm-8.842-29.415.957-.288-.96-3.194-.955 3.195zm10.93 35.435h-21.861v2h21.861zm-22.819.715-5.021 16.885 1.917.57 5.021-16.885zM352.264 233h-8.353v2h8.353zm-7.402 1.307 20.84-64.696-1.904-.613-20.839 64.695zm19.888-64.002h6.976v-2h-6.976zm6.024-.693 20.884 64.695 1.904-.614-20.884-64.696zM392.61 233h-8.354v2h8.354zm-7.397.71-5.109-16.884-1.915.579 5.11 16.885zm-25.795-22.615h17.64v-2h-17.64zm18.598-1.288-8.843-29.415-1.915.576 8.842 29.415zm-10.758-29.414-8.798 29.415 1.916.573 8.798-29.415zm42.325 46.631h-1v1h1zm25.372 0h1v-1h-1zm0 6.976v1h1v-1zm-33.547 0h-1v1h1zm0-64.695v-1h-1v1zm8.175 0h1v-1h-1zm0 58.719h25.372v-2h-25.372zm24.372-1V234h2v-6.976zm1 5.976h-33.547v2h33.547zm-32.547 1v-64.695h-2V234zm-1-63.695h8.175v-2h-8.175zm7.175-1v57.719h2v-57.719zm61.652 7.02v1h1v-1zm-17.018 0v-1h-1v1zm0 57.675v1h1v-1zm-8.131 0h-1v1h1zm0-57.675h1v-1h-1zm-16.974 0h-1v1h1zm0-7.02v-1h-1v1zm42.123 0h1v-1h-1zm0 6.02h-17.018v2h17.018zm-18.018 1V234h2v-57.675zm1 56.675h-8.131v2h8.131zm-7.131 1v-57.675h-2V234zm-1-58.675h-16.974v2h16.974zm-15.974 1v-7.02h-2v7.02zm-1-6.02h42.123v-2h-42.123zm41.123-1v7.02h2v-7.02zm41.568 34.791v1h1v-1zm-22.883 0v-1h-1v1zm0 22.928h-1v1h1zm26.66 0h1v-1h-1zm0 6.976v1h1v-1zm-34.791 0h-1v1h1zm0-64.695v-1h-1v1zm34.347 0h1v-1h-1zm0 7.02v1h1v-1zm-26.216 0v-1h-1v1zm0 20.795h-1v1h1zm22.883 0h1v-1h-1zm0 5.976H487.92v2h22.883zm-23.883 1v22.928h2v-22.928zm1 23.928h26.66v-2h-26.66zm25.66-1V234h2v-6.976zm1 5.976h-34.791v2h34.791zm-33.791 1v-64.695h-2V234zm-1-63.695h34.347v-2h-34.347zm33.347-1v7.02h2v-7.02zm1 6.02H487.92v2h26.216zm-27.216 1v20.795h2v-20.795zm1 21.795h22.883v-2H487.92zm21.883-1v6.976h2v-6.976zm34.77 10.709.915-.403-.263-.597h-.652zm-11.375 0v-1h-1v1zm0 26.171v1h1v-1zm-8.176 0h-1v1h1zm0-64.695v-1h-1v1zm32.525 4.976-.713.701.003.003zm2.222 24.972-.86-.511-.001.003zm-7.465 6.709-.424-.905-.896.419.41.901zm12.53 27.505h1v-.217l-.09-.198zm0 .533v1h1v-1zm-8.753 0-.915.403.262.597h.653zm-22.883-33.147h-1v1h1zm17.995-3.289-.731-.682-.005.006zm-17.995-21.239v-1h-1v1zm11.375 30.504h-11.375v2h11.375zm-12.375 1V234h2v-26.171zm1 25.171h-8.176v2h8.176zm-7.176 1v-64.695h-2V234zm-1-63.695h18.129v-2h-18.129zm18.129 0c6.171 0 10.673 1.612 13.683 4.677l1.427-1.401c-3.507-3.571-8.603-5.276-15.11-5.276zm13.686 4.68c3.012 3.04 4.598 7.575 4.598 13.782h2c0-6.532-1.673-11.653-5.177-15.19zm4.598 13.782c0 3.846-.853 7.16-2.526 9.975l1.72 1.022c1.882-3.169 2.806-6.846 2.806-10.997zm-2.527 9.978c-1.642 2.782-3.974 4.883-7.028 6.312l.848 1.811c3.404-1.593 6.048-3.964 7.902-7.107zm-7.514 7.632 12.53 27.504 1.82-.829-12.53-27.504zm12.44 27.09V234h2v-.533zm1-.467h-8.753v2h8.753zm-7.838.597-11.508-26.171-1.831.805 11.509 26.172zm-23.798-31.744h9.864v-2h-9.864zm9.864 0c3.642 0 6.636-1.183 8.868-3.612l-1.473-1.353c-1.797 1.955-4.224 2.965-7.395 2.965zm8.863-3.607c2.253-2.416 3.334-5.613 3.334-9.479h-2c0 3.48-.963 6.148-2.797 8.115zm3.334-9.479c0-4.279-.968-7.674-3.081-10.003-2.129-2.348-5.262-3.439-9.205-3.439v2c3.582 0 6.091.983 7.724 2.782 1.649 1.819 2.562 4.644 2.562 8.66zm-12.286-13.442h-9.775v2h9.775zm-10.775 1v24.528h2v-24.528zM615.622 234v1h1v-1zm-8.176 0-.887.461.28.539h.607zm-25.904-49.854.887-.462-1.887.462zm0 49.854v1h1v-1zm-8.176 0h-1v1h1zm0-64.695v-1h-1v1zm8.176 0 .887-.461-.28-.539h-.607zm25.993 50.076-.887.461 1.887-.461zm0-50.076v-1h-1v1zm8.087 0h1v-1h-1zm0 63.695h-8.176v2h8.176zm-7.288.539-25.905-49.855-1.775.923 25.905 49.854zm-27.792-49.393V234h2v-49.854zm1 48.854h-8.176v2h8.176zm-7.176 1v-64.695h-2V234zm-1-63.695h8.176v-2h-8.176zm7.288-.54 25.994 50.077 1.775-.921-25.994-50.077zm27.881 49.616v-50.076h-2v50.076zm-1-49.076h8.087v-2h-8.087zm7.087-1V234h2v-64.695zm46.056 47.81.957-.289-.215-.711h-.742zm-21.862 0v-1h-.746l-.212.715zM633.795 234v1h.746l.213-.715zm-8.353 0-.952-.307-.421 1.307h1.373zm20.839-64.695v-1h-.728l-.224.693zm6.976 0 .952-.308-.224-.692h-.728zM674.141 234v1h1.374l-.422-1.307zm-8.353 0-.958.29.215.71h.743zm-24.839-23.905-.958-.287-.385 1.287h1.343zm17.64 0v1h1.345l-.387-1.288zm-8.842-29.415.958-.288-.96-3.194-.956 3.195zm10.931 35.435h-21.862v2h21.862zm-22.82.715-5.021 16.885 1.917.57 5.021-16.885zM633.795 233h-8.353v2h8.353zm-7.401 1.307 20.839-64.696-1.904-.613-20.839 64.695zm19.887-64.002h6.976v-2h-6.976zm6.025-.693 20.883 64.695 1.904-.614-20.884-64.696zM674.141 233h-8.353v2h8.353zm-7.396.71-5.11-16.884-1.914.579 5.109 16.885zm-25.796-22.615h17.64v-2h-17.64zm18.598-1.288-8.842-29.415-1.916.576 8.843 29.415zm-10.758-29.414-8.798 29.415 1.916.573 8.798-29.415zm66.187-4.068v1h1v-1zm-17.018 0v-1h-1v1zm0 57.675v1h1v-1zm-8.132 0h-1v1h1zm0-57.675h1v-1h-1zm-16.973 0h-1v1h1zm0-7.02v-1h-1v1zm42.123 0h1v-1h-1zm0 6.02h-17.018v2h17.018zm-18.018 1V234h2v-57.675zm1 56.675h-8.132v2h8.132zm-7.132 1v-57.675h-2V234zm-1-58.675h-16.973v2h16.973zm-15.973 1v-7.02h-2v7.02zm-1-6.02h42.123v-2h-42.123zm41.123-1v7.02h2v-7.02zM733.016 234v1h1v-1zm-8.132 0h-1v1h1zm0-64.695v-1h-1v1zm8.132 0h1v-1h-1zm0 63.695h-8.132v2h8.132zm-7.132 1v-64.695h-2V234zm-1-63.695h8.132v-2h-8.132zm7.132-1V234h2v-64.695zm33.747 52.209-.962.271.959 3.407.965-3.405zm14.797-52.209v-1h-.756l-.207.727zm8.931 0 .955.297.403-1.297h-1.358zM769.362 234v1h.736l.219-.703zm-7.109 0-.955.296.218.704h.737zm-20.084-64.695v-1h-1.358l.403 1.296zm8.887 0 .962-.271-.205-.729h-.757zm15.669 52.482 14.797-52.21-1.925-.545-14.796 52.209zm13.835-51.482h8.931v-2h-8.931zm7.976-1.297-20.129 64.695 1.91.594 20.129-64.695zM769.362 233h-7.109v2h7.109zm-6.154.704-20.084-64.696-1.91.593 20.084 64.695zm-21.039-63.399h8.887v-2h-8.887zm7.924-.729 14.708 52.209 1.925-.542-14.708-52.209zm79.21 34.52v1h1v-1zm-22.883 0v-1h-1v1zm0 22.928h-1v1h1zm26.66 0h1v-1h-1zm0 6.976v1h1v-1zm-34.791 0h-1v1h1zm0-64.695v-1h-1v1zm34.347 0h1v-1h-1zm0 7.02v1h1v-1zm-26.216 0v-1h-1v1zm0 20.795h-1v1h1zm22.883 0h1v-1h-1zm0 5.976H806.42v2h22.883zm-23.883 1v22.928h2v-22.928zm1 23.928h26.66v-2h-26.66zm25.66-1V234h2v-6.976zm1 5.976h-34.791v2h34.791zm-33.791 1v-64.695h-2V234zm-1-63.695h34.347v-2h-34.347zm33.347-1v7.02h2v-7.02zm1 6.02H806.42v2h26.216zm-27.216 1v20.795h2v-20.795zm1 21.795h22.883v-2H806.42zm21.883-1v6.976h2v-6.976zm20.906 2.977-.601.799.011.008zm-5.42-6.132-.89.457.003.007.004.006zm3.332-20.572-.695-.72-.003.003zm23.594-2.4-.501.865.006.004zm9.243 17.018v1h1v-1zm-8.176 0h-1v1h1zm-2.888-9.286-.752.66zm-15.952-.534-.713-.701zm9.287 19.507-.335.942.01.004.011.003zm13.641 7.776-.749.662.003.004zm-.978 24.705.678.735.003-.003zm-24.35 2.266-.463.886.01.005zm-7.509-6.932-.856.517.006.01zm-2.71-10.264v-1h-1v1zm8.176 0h1v-1h-1zm3.332 9.331-.707.707.005.005zm17.24.578.713.701zm3.711-7.51c0-3.408-.927-6.173-2.921-8.133l-1.402 1.426c1.502 1.476 2.323 3.658 2.323 6.707zm-2.921-8.133c-1.91-1.878-5.238-3.61-9.829-5.25l-.673 1.884c4.534 1.619 7.515 3.234 9.1 4.792zm-9.829-5.25c-4.519-1.614-7.913-3.278-10.232-4.975l-1.181 1.614c2.539 1.858 6.136 3.6 10.74 5.245zm-10.221-4.967c-2.302-1.733-4.004-3.67-5.14-5.803l-1.765.94c1.293 2.429 3.205 4.58 5.702 6.461zm-5.133-5.789c-1.102-2.151-1.667-4.627-1.667-7.453h-2c0 3.099.621 5.895 1.888 8.366zm-1.667-7.453c0-4.878 1.611-8.833 4.808-11.947l-1.396-1.433c-3.616 3.522-5.412 8.009-5.412 13.38zm4.805-11.944c3.22-3.109 7.444-4.696 12.768-4.696v-2c-5.754 0-10.505 1.731-14.158 5.257zm12.768-4.696c3.635 0 6.836.822 9.63 2.442l1.003-1.73c-3.131-1.816-6.684-2.712-10.633-2.712zm9.636 2.446c2.797 1.594 4.943 3.81 6.454 6.664l1.768-.936c-1.688-3.189-4.104-5.683-7.231-7.466zm6.454 6.664c1.519 2.869 2.284 6.025 2.284 9.485h2c0-3.767-.836-7.247-2.516-10.421zm3.284 8.485h-8.176v2h8.176zm-7.176 1c0-4.151-1-7.514-3.137-9.946l-1.503 1.32c1.714 1.951 2.64 4.78 2.64 8.626zm-3.137-9.946c-2.16-2.459-5.233-3.628-9.061-3.628v2c3.401 0 5.867 1.022 7.558 2.948zm-9.061-3.628c-3.478 0-6.312.976-8.355 3.053l1.426 1.403c1.57-1.597 3.832-2.456 6.929-2.456zm-8.355 3.053c-2.04 2.073-2.998 4.931-2.998 8.433h2c0-3.134.849-5.43 2.424-7.03zm-2.998 8.433c0 2.996 1.088 5.542 3.248 7.571l1.37-1.457c-1.751-1.644-2.618-3.66-2.618-6.114zm3.248 7.571c2.099 1.972 5.268 3.674 9.415 5.146l.669-1.885c-4.028-1.43-6.903-3.017-8.714-4.718zm9.436 5.153c6.296 2.079 10.65 4.6 13.206 7.489l1.498-1.325c-2.895-3.272-7.635-5.935-14.077-8.063zm13.209 7.493c2.559 2.862 3.878 6.636 3.878 11.42h2c0-5.17-1.436-9.453-4.387-12.753zm3.878 11.42c0 5.004-1.615 8.931-4.791 11.887l1.362 1.464c3.637-3.384 5.429-7.869 5.429-13.351zm-4.788 11.883c-3.176 2.928-7.546 4.446-13.23 4.446v2c6.047 0 10.949-1.623 14.586-4.975zm-13.23 4.446c-3.612 0-6.936-.781-9.988-2.335l-.907 1.782c3.346 1.704 6.983 2.553 10.895 2.553zm-9.978-2.33c-3.015-1.578-5.383-3.767-7.123-6.573l-1.7 1.054c1.934 3.119 4.572 5.551 7.896 7.291zm-7.117-6.563c-1.703-2.82-2.566-6.059-2.566-9.747h-2c0 4.014.944 7.618 2.854 10.781zm-3.566-8.747h8.176v-2h-8.176zm7.176-1c0 4.188 1.168 7.581 3.625 10.038l1.414-1.414c-1.986-1.987-3.039-4.814-3.039-8.624zm3.63 10.043c2.477 2.445 5.802 3.621 9.855 3.621v-2c-3.648 0-6.426-1.046-8.451-3.045zm9.855 3.621c3.746 0 6.742-.962 8.8-3.054l-1.426-1.403c-1.555 1.581-3.95 2.457-7.374 2.457zm8.8-3.054c2.032-2.065 2.998-4.843 2.998-8.211h-2c0 2.972-.841 5.2-2.424 6.808z"/><path fill="#000" fill-opacity=".2" d="M379.991 97.096v1h1v-1zm-22.884 0v-1h-1v1zm0 22.928h-1v1h1zm26.661 0h1v-1h-1zm0 6.976v1h1v-1zm-34.792 0h-1v1h1zm0-64.695v-1h-1v1zm34.347 0h1v-1h-1zm0 7.02v1h1v-1zm-26.216 0v-1h-1v1zm0 20.795h-1v1h1zm22.884 0h1v-1h-1zm0 5.976h-22.884v2h22.884zm-23.884 1v22.928h2V97.096zm1 23.928h26.661v-2h-26.661zm25.661-1V127h2v-6.976zm1 5.976h-34.792v2h34.792zm-33.792 1V62.305h-2V127zm-1-63.695h34.347v-2h-34.347zm33.347-1v7.02h2v-7.02zm1 6.02h-26.216v2h26.216zm-27.216 1V90.12h2V69.325zm1 21.795h22.884v-2h-22.884zm21.884-1v6.976h2V90.12zm53.787-27.815h1v-1h-1zm0 45.988 1 .01v-.01zm-34.614 14.53-.71.704.003.003zm-5.154-14.53h-1v.01zm0-45.988v-1h-1v1zm8.087 0h1v-1h-1zm2.755 55.453-.763.647.005.006.005.005zm17.951 0-.757-.654-.001.001zm2.799-55.453v-1h-1v1zm7.176 0v45.988h2V62.305zm0 45.979c-.057 5.937-1.771 10.459-5.036 13.696l1.408 1.42c3.726-3.694 5.567-8.77 5.628-15.097zm-5.036 13.696c-3.261 3.233-7.854 4.909-13.915 4.909v2c6.44 0 11.593-1.791 15.323-5.489zm-13.915 4.909c-6.226 0-10.823-1.64-13.956-4.773l-1.414 1.414c3.621 3.622 8.799 5.359 15.37 5.359zm-13.953-4.77c-3.142-3.17-4.807-7.732-4.864-13.835l-2 .019c.061 6.457 1.832 11.581 5.444 15.224zm-4.864-13.826V62.305h-2v45.988zm-1-44.988h8.087v-2h-8.087zm7.087-1v45.677h2V62.305zm0 45.677c0 4.471.939 8.005 2.992 10.423l1.525-1.295c-1.62-1.906-2.517-4.889-2.517-9.128zm3.002 10.434c2.129 2.434 5.456 3.541 9.728 3.541v-2c-3.963 0-6.62-1.025-8.223-2.858zm9.728 3.541c4.298 0 7.631-1.105 9.734-3.547l-1.516-1.305c-1.571 1.825-4.221 2.852-8.218 2.852zm9.733-3.546c2.087-2.418 3.042-5.955 3.042-10.429h-2c0 4.236-.911 7.216-2.556 9.122zm3.042-10.429V62.305h-2v45.677zm-1-44.677h8.176v-2h-8.176zm40.257 37.524.915-.403-.262-.597h-.653zm-11.375 0v-1h-1v1zm0 26.171v1h1v-1zm-8.176 0h-1v1h1zm0-64.695v-1h-1v1zm32.525 4.976-.713.701.003.003zm2.222 24.972-.86-.51-.001.002zm-7.465 6.71-.423-.906-.897.42.41.9zm12.531 27.504h1v-.217l-.09-.198zm0 .533v1h1v-1zm-8.754 0-.915.403.263.597h.652zm-22.883-33.147h-1v1h1zm17.995-3.288-.731-.683-.005.006zm-17.995-21.24v-1h-1v1zm11.375 30.504h-11.375v2h11.375zm-12.375 1V127h2v-26.171zm1 25.171h-8.176v2h8.176zm-7.176 1V62.305h-2V127zm-1-63.695h18.129v-2h-18.129zm18.129 0c6.171 0 10.673 1.612 13.683 4.677l1.427-1.401c-3.507-3.57-8.603-5.276-15.11-5.276zm13.686 4.68c3.012 3.04 4.598 7.575 4.598 13.782h2c0-6.532-1.672-11.653-5.177-15.19zm4.598 13.782c0 3.846-.853 7.16-2.526 9.975l1.72 1.022c1.882-3.169 2.806-6.846 2.806-10.997zm-2.527 9.978c-1.641 2.782-3.974 4.883-7.027 6.312l.847 1.811c3.404-1.593 6.048-3.965 7.902-7.107zm-7.514 7.632 12.531 27.504 1.82-.829L473.5 98.548zm12.441 27.09V127h2v-.533zm1-.467h-8.754v2h8.754zm-7.838.597-11.509-26.171-1.831.805 11.509 26.172zm-23.799-31.744h9.864v-2h-9.864zm9.864 0c3.642 0 6.636-1.183 8.868-3.612l-1.473-1.353c-1.797 1.955-4.224 2.965-7.395 2.965zm8.863-3.607c2.253-2.416 3.334-5.613 3.334-9.48h-2c0 3.48-.963 6.15-2.797 8.116zm3.334-9.48c0-4.278-.968-7.673-3.08-10.002-2.13-2.348-5.263-3.439-9.206-3.439v2c3.582 0 6.092.983 7.724 2.782 1.65 1.819 2.562 4.644 2.562 8.66zm-12.286-13.44h-9.775v2h9.775zm-10.775 1v24.527h2V69.325zm77.603 51.409-.785-.619zm-31.858.222-.771.638.005.005zm-5.999-19.684h-1v.017zm5.732-32.481.788.616.002-.002zm31.903-.311-.779.627.005.005zm5.865 20.084h1.001l-.001-.01zm-11.508-14.796-.833.553.006.008zm-20.439.044-.826-.565-.003.005zm-3.466 14.93-1-.005v.005zm3.421 26.704-.835.55.003.005zm23.861-14.307 1 .013v-.013zm7.131-.8c0 8.701-1.856 15.247-5.428 19.776l1.571 1.238c3.952-5.01 5.857-12.061 5.857-21.014zm-5.428 19.776c-3.544 4.492-8.581 6.773-15.255 6.773v2c7.189 0 12.846-2.489 16.826-7.535zm-15.255 6.773c-6.405 0-11.384-2.206-15.053-6.575l-1.531 1.286c4.092 4.873 9.658 7.289 16.584 7.289zm-15.048-6.57c-3.658-4.417-5.623-10.728-5.769-19.064l-2 .035c.151 8.609 2.184 15.421 6.228 20.305zm-5.769-19.046V89.098h-2v12.175zm0-12.175c0-8.513 1.881-15.036 5.52-19.69l-1.576-1.232c-4.004 5.121-5.944 12.136-5.944 20.922zm5.522-19.692c3.611-4.648 8.637-6.99 15.206-6.99v-2c-7.117 0-12.754 2.575-16.786 7.762zm15.206-6.99c6.554 0 11.552 2.25 15.128 6.692l1.558-1.254c-4.007-4.978-9.614-7.438-16.686-7.438zm15.133 6.697c3.626 4.442 5.552 10.883 5.64 19.462l1.999-.02c-.09-8.839-2.074-15.787-6.09-20.707zm5.639 19.452v11.775h2V88.565zm-6.131.444c0-6.917-1.131-12.238-3.549-15.802l-1.655 1.123c2.084 3.072 3.204 7.91 3.204 14.68zm-3.544-15.793c-2.437-3.672-6.199-5.468-11.097-5.468v2c4.345 0 7.425 1.551 9.431 4.574zm-11.097-5.468c-4.767 0-8.484 1.822-11.001 5.5l1.651 1.13c2.105-3.076 5.171-4.63 9.35-4.63zm-11.004 5.505c-2.441 3.614-3.607 8.822-3.637 15.485l2 .01c.029-6.49 1.173-11.235 3.294-14.375zm-3.637 15.49v11.597h2V88.743zm0 11.597c0 6.695 1.151 11.958 3.586 15.657l1.671-1.099c-2.128-3.233-3.257-8.042-3.257-14.558zm3.589 15.662c2.516 3.774 6.282 5.644 11.141 5.644v-2c-4.265 0-7.372-1.596-9.477-4.753zm11.141 5.644c4.825 0 8.542-1.711 10.956-5.234l-1.65-1.13c-1.971 2.876-5.007 4.364-9.306 4.364zm10.956-5.234c2.357-3.44 3.506-8.579 3.596-15.259l-2-.027c-.088 6.532-1.219 11.198-3.246 14.156zm3.596-15.272V89.01h-2v12.13zm27.838.533v-1h-1v1zm0 25.327v1h1v-1zm-8.132 0h-1v1h1zm0-64.695v-1h-1v1zm34.792 5.42-.725.69.003.003zm.222 28.75-.717-.698zm-13.819 5.198v1h.02zm-13.063-6.976h-1v1h1zm0-25.372v-1h-1v1zm-1 32.348V127h2v-25.327zm1 24.327h-8.132v2h8.132zm-7.132 1V62.305h-2V127zm-1-63.695h20.617v-2h-20.617zm20.617 0c5.801 0 10.241 1.734 13.45 5.11l1.449-1.379c-3.663-3.852-8.672-5.731-14.899-5.731zm13.453 5.113c3.222 3.36 4.876 7.878 4.876 13.66h2c0-6.186-1.782-11.237-5.432-15.044zm4.876 13.66c0 6.046-1.595 10.562-4.649 13.698l1.433 1.396c3.523-3.618 5.216-8.7 5.216-15.094zm-4.649 13.699c-3.028 3.11-7.355 4.781-13.122 4.896l.04 2c6.141-.123 11.027-1.918 14.515-5.501zm-13.102 4.896h-13.063v2H569.5zm-13.063-4.976h12.485v-2h-12.485zm12.485 0c3.823 0 6.896-1.152 9.056-3.579l-1.493-1.33c-1.691 1.898-4.158 2.909-7.563 2.909zm9.056-3.579c2.143-2.406 3.142-5.774 3.142-9.951h-2c0 3.879-.927 6.703-2.635 8.621zm3.142-9.951c0-4.053-1.04-7.414-3.215-9.978l-1.525 1.293c1.794 2.116 2.74 4.977 2.74 8.685zm-3.215-9.978c-2.2-2.595-5.221-3.864-8.938-3.864v2c3.214 0 5.644 1.072 7.413 3.157zm-8.938-3.864h-12.53v2h12.53zm-13.53 1v25.372h2V69.325zm74.359 27.771v1h1v-1zm-22.883 0v-1h-1v1zm0 22.928h-1v1h1zm26.66 0h1v-1h-1zm0 6.976v1h1v-1zm-34.791 0h-1v1h1zm0-64.695v-1h-1v1zm34.347 0h1v-1h-1zm0 7.02v1h1v-1zm-26.216 0v-1h-1v1zm0 20.795h-1v1h1zm22.883 0h1v-1h-1zm0 5.976h-22.883v2h22.883zm-23.883 1v22.928h2V97.096zm1 23.928h26.66v-2h-26.66zm25.66-1V127h2v-6.976zm1 5.976h-34.791v2h34.791zm-33.791 1V62.305h-2V127zm-1-63.695h34.347v-2h-34.347zm33.347-1v7.02h2v-7.02zm1 6.02h-26.216v2h26.216zm-27.216 1V90.12h2V69.325zm1 21.795h22.883v-2h-22.883zm21.883-1v6.976h2V90.12zm45.39 19.995.957-.289-.215-.711h-.742zm-21.862 0v-1h-.746l-.212.715zM647.303 127v1h.746l.213-.715zm-8.353 0-.952-.307-.421 1.307h1.373zm20.839-64.695v-1h-.728l-.224.693zm6.976 0 .952-.307-.224-.693h-.728zM687.649 127v1h1.374l-.422-1.307zm-8.354 0-.957.29.215.71h.742zm-24.838-23.905-.958-.287-.385 1.287h1.343zm17.64 0v1h1.345l-.387-1.288zm-8.842-29.415.958-.288-.961-3.194-.955 3.195zm10.931 35.435h-21.862v2h21.862zm-22.82.715-5.021 16.885 1.917.57 5.021-16.885zM647.303 126h-8.353v2h8.353zm-7.401 1.307 20.839-64.696-1.904-.613-20.839 64.695zm19.887-64.002h6.976v-2h-6.976zm6.024-.693 20.884 64.695 1.904-.614-20.884-64.695zM687.649 126h-8.354v2h8.354zm-7.396.71-5.11-16.884-1.915.579 5.11 16.885zm-25.796-22.615h17.64v-2h-17.64zm18.598-1.288-8.842-29.415-1.916.576 8.843 29.415zm-10.758-29.414-8.798 29.415 1.916.573 8.798-29.415zM738.703 127v1h1v-1zm-8.176 0-.887.461.28.539h.607zm-25.904-49.854.887-.462-1.887.462zm0 49.854v1h1v-1zm-8.176 0h-1v1h1zm0-64.695v-1h-1v1zm8.176 0 .887-.461-.28-.54h-.607zm25.993 50.076-.887.461 1.887-.461zm0-50.076v-1h-1v1zm8.087 0h1v-1h-1zm0 63.695h-8.176v2h8.176zm-7.288.539L705.51 76.684l-1.775.923 25.905 49.854zm-27.792-49.393V127h2V77.146zm1 48.854h-8.176v2h8.176zm-7.176 1V62.305h-2V127zm-1-63.695h8.176v-2h-8.176zm7.288-.54 25.994 50.077 1.775-.921-25.994-50.077zm27.881 49.616V62.305h-2v50.076zm-1-49.076h8.087v-2h-8.087zm7.087-1V127h2V62.305zm-358.557 154.81.958-.289-.215-.711h-.743zm-21.861 0v-1h-.746l-.212.715zM352.264 234v1h.746l.213-.715zm-8.353 0-.952-.307-.421 1.307h1.373zm20.839-64.695v-1h-.728l-.224.693zm6.976 0 .952-.308-.224-.692h-.728zM392.61 234v1h1.373l-.421-1.307zm-8.354 0-.957.29.215.71h.742zm-24.838-23.905-.958-.287-.385 1.287h1.343zm17.64 0v1h1.345l-.387-1.288zm-8.842-29.415.957-.288-.96-3.194-.955 3.195zm10.93 35.435h-21.861v2h21.861zm-22.819.715-5.021 16.885 1.917.57 5.021-16.885zM352.264 233h-8.353v2h8.353zm-7.402 1.307 20.84-64.696-1.904-.613-20.839 64.695zm19.888-64.002h6.976v-2h-6.976zm6.024-.693 20.884 64.695 1.904-.614-20.884-64.696zM392.61 233h-8.354v2h8.354zm-7.397.71-5.109-16.884-1.915.579 5.11 16.885zm-25.795-22.615h17.64v-2h-17.64zm18.598-1.288-8.843-29.415-1.915.576 8.842 29.415zm-10.758-29.414-8.798 29.415 1.916.573 8.798-29.415zm42.325 46.631h-1v1h1zm25.372 0h1v-1h-1zm0 6.976v1h1v-1zm-33.547 0h-1v1h1zm0-64.695v-1h-1v1zm8.175 0h1v-1h-1zm0 58.719h25.372v-2h-25.372zm24.372-1V234h2v-6.976zm1 5.976h-33.547v2h33.547zm-32.547 1v-64.695h-2V234zm-1-63.695h8.175v-2h-8.175zm7.175-1v57.719h2v-57.719zm61.652 7.02v1h1v-1zm-17.018 0v-1h-1v1zm0 57.675v1h1v-1zm-8.131 0h-1v1h1zm0-57.675h1v-1h-1zm-16.974 0h-1v1h1zm0-7.02v-1h-1v1zm42.123 0h1v-1h-1zm0 6.02h-17.018v2h17.018zm-18.018 1V234h2v-57.675zm1 56.675h-8.131v2h8.131zm-7.131 1v-57.675h-2V234zm-1-58.675h-16.974v2h16.974zm-15.974 1v-7.02h-2v7.02zm-1-6.02h42.123v-2h-42.123zm41.123-1v7.02h2v-7.02zm41.568 34.791v1h1v-1zm-22.883 0v-1h-1v1zm0 22.928h-1v1h1zm26.66 0h1v-1h-1zm0 6.976v1h1v-1zm-34.791 0h-1v1h1zm0-64.695v-1h-1v1zm34.347 0h1v-1h-1zm0 7.02v1h1v-1zm-26.216 0v-1h-1v1zm0 20.795h-1v1h1zm22.883 0h1v-1h-1zm0 5.976H487.92v2h22.883zm-23.883 1v22.928h2v-22.928zm1 23.928h26.66v-2h-26.66zm25.66-1V234h2v-6.976zm1 5.976h-34.791v2h34.791zm-33.791 1v-64.695h-2V234zm-1-63.695h34.347v-2h-34.347zm33.347-1v7.02h2v-7.02zm1 6.02H487.92v2h26.216zm-27.216 1v20.795h2v-20.795zm1 21.795h22.883v-2H487.92zm21.883-1v6.976h2v-6.976zm34.77 10.709.915-.403-.263-.597h-.652zm-11.375 0v-1h-1v1zm0 26.171v1h1v-1zm-8.176 0h-1v1h1zm0-64.695v-1h-1v1zm32.525 4.976-.713.701.003.003zm2.222 24.972-.86-.511-.001.003zm-7.465 6.709-.424-.905-.896.419.41.901zm12.53 27.505h1v-.217l-.09-.198zm0 .533v1h1v-1zm-8.753 0-.915.403.262.597h.653zm-22.883-33.147h-1v1h1zm17.995-3.289-.731-.682-.005.006zm-17.995-21.239v-1h-1v1zm11.375 30.504h-11.375v2h11.375zm-12.375 1V234h2v-26.171zm1 25.171h-8.176v2h8.176zm-7.176 1v-64.695h-2V234zm-1-63.695h18.129v-2h-18.129zm18.129 0c6.171 0 10.673 1.612 13.683 4.677l1.427-1.401c-3.507-3.571-8.603-5.276-15.11-5.276zm13.686 4.68c3.012 3.04 4.598 7.575 4.598 13.782h2c0-6.532-1.673-11.653-5.177-15.19zm4.598 13.782c0 3.846-.853 7.16-2.526 9.975l1.72 1.022c1.882-3.169 2.806-6.846 2.806-10.997zm-2.527 9.978c-1.642 2.782-3.974 4.883-7.028 6.312l.848 1.811c3.404-1.593 6.048-3.964 7.902-7.107zm-7.514 7.632 12.53 27.504 1.82-.829-12.53-27.504zm12.44 27.09V234h2v-.533zm1-.467h-8.753v2h8.753zm-7.838.597-11.508-26.171-1.831.805 11.509 26.172zm-23.798-31.744h9.864v-2h-9.864zm9.864 0c3.642 0 6.636-1.183 8.868-3.612l-1.473-1.353c-1.797 1.955-4.224 2.965-7.395 2.965zm8.863-3.607c2.253-2.416 3.334-5.613 3.334-9.479h-2c0 3.48-.963 6.148-2.797 8.115zm3.334-9.479c0-4.279-.968-7.674-3.081-10.003-2.129-2.348-5.262-3.439-9.205-3.439v2c3.582 0 6.091.983 7.724 2.782 1.649 1.819 2.562 4.644 2.562 8.66zm-12.286-13.442h-9.775v2h9.775zm-10.775 1v24.528h2v-24.528zM615.622 234v1h1v-1zm-8.176 0-.887.461.28.539h.607zm-25.904-49.854.887-.462-1.887.462zm0 49.854v1h1v-1zm-8.176 0h-1v1h1zm0-64.695v-1h-1v1zm8.176 0 .887-.461-.28-.539h-.607zm25.993 50.076-.887.461 1.887-.461zm0-50.076v-1h-1v1zm8.087 0h1v-1h-1zm0 63.695h-8.176v2h8.176zm-7.288.539-25.905-49.855-1.775.923 25.905 49.854zm-27.792-49.393V234h2v-49.854zm1 48.854h-8.176v2h8.176zm-7.176 1v-64.695h-2V234zm-1-63.695h8.176v-2h-8.176zm7.288-.54 25.994 50.077 1.775-.921-25.994-50.077zm27.881 49.616v-50.076h-2v50.076zm-1-49.076h8.087v-2h-8.087zm7.087-1V234h2v-64.695zm46.056 47.81.957-.289-.215-.711h-.742zm-21.862 0v-1h-.746l-.212.715zM633.795 234v1h.746l.213-.715zm-8.353 0-.952-.307-.421 1.307h1.373zm20.839-64.695v-1h-.728l-.224.693zm6.976 0 .952-.308-.224-.692h-.728zM674.141 234v1h1.374l-.422-1.307zm-8.353 0-.958.29.215.71h.743zm-24.839-23.905-.958-.287-.385 1.287h1.343zm17.64 0v1h1.345l-.387-1.288zm-8.842-29.415.958-.288-.96-3.194-.956 3.195zm10.931 35.435h-21.862v2h21.862zm-22.82.715-5.021 16.885 1.917.57 5.021-16.885zM633.795 233h-8.353v2h8.353zm-7.401 1.307 20.839-64.696-1.904-.613-20.839 64.695zm19.887-64.002h6.976v-2h-6.976zm6.025-.693 20.883 64.695 1.904-.614-20.884-64.696zM674.141 233h-8.353v2h8.353zm-7.396.71-5.11-16.884-1.914.579 5.109 16.885zm-25.796-22.615h17.64v-2h-17.64zm18.598-1.288-8.842-29.415-1.916.576 8.843 29.415zm-10.758-29.414-8.798 29.415 1.916.573 8.798-29.415zm66.187-4.068v1h1v-1zm-17.018 0v-1h-1v1zm0 57.675v1h1v-1zm-8.132 0h-1v1h1zm0-57.675h1v-1h-1zm-16.973 0h-1v1h1zm0-7.02v-1h-1v1zm42.123 0h1v-1h-1zm0 6.02h-17.018v2h17.018zm-18.018 1V234h2v-57.675zm1 56.675h-8.132v2h8.132zm-7.132 1v-57.675h-2V234zm-1-58.675h-16.973v2h16.973zm-15.973 1v-7.02h-2v7.02zm-1-6.02h42.123v-2h-42.123zm41.123-1v7.02h2v-7.02zM733.016 234v1h1v-1zm-8.132 0h-1v1h1zm0-64.695v-1h-1v1zm8.132 0h1v-1h-1zm0 63.695h-8.132v2h8.132zm-7.132 1v-64.695h-2V234zm-1-63.695h8.132v-2h-8.132zm7.132-1V234h2v-64.695zm33.747 52.209-.962.271.959 3.407.965-3.405zm14.797-52.209v-1h-.756l-.207.727zm8.931 0 .955.297.403-1.297h-1.358zM769.362 234v1h.736l.219-.703zm-7.109 0-.955.296.218.704h.737zm-20.084-64.695v-1h-1.358l.403 1.296zm8.887 0 .962-.271-.205-.729h-.757zm15.669 52.482 14.797-52.21-1.925-.545-14.796 52.209zm13.835-51.482h8.931v-2h-8.931zm7.976-1.297-20.129 64.695 1.91.594 20.129-64.695zM769.362 233h-7.109v2h7.109zm-6.154.704-20.084-64.696-1.91.593 20.084 64.695zm-21.039-63.399h8.887v-2h-8.887zm7.924-.729 14.708 52.209 1.925-.542-14.708-52.209zm79.21 34.52v1h1v-1zm-22.883 0v-1h-1v1zm0 22.928h-1v1h1zm26.66 0h1v-1h-1zm0 6.976v1h1v-1zm-34.791 0h-1v1h1zm0-64.695v-1h-1v1zm34.347 0h1v-1h-1zm0 7.02v1h1v-1zm-26.216 0v-1h-1v1zm0 20.795h-1v1h1zm22.883 0h1v-1h-1zm0 5.976H806.42v2h22.883zm-23.883 1v22.928h2v-22.928zm1 23.928h26.66v-2h-26.66zm25.66-1V234h2v-6.976zm1 5.976h-34.791v2h34.791zm-33.791 1v-64.695h-2V234zm-1-63.695h34.347v-2h-34.347zm33.347-1v7.02h2v-7.02zm1 6.02H806.42v2h26.216zm-27.216 1v20.795h2v-20.795zm1 21.795h22.883v-2H806.42zm21.883-1v6.976h2v-6.976zm20.906 2.977-.601.799.011.008zm-5.42-6.132-.89.457.003.007.004.006zm3.332-20.572-.695-.72-.003.003zm23.594-2.4-.501.865.006.004zm9.243 17.018v1h1v-1zm-8.176 0h-1v1h1zm-2.888-9.286-.752.66zm-15.952-.534-.713-.701zm9.287 19.507-.335.942.01.004.011.003zm13.641 7.776-.749.662.003.004zm-.978 24.705.678.735.003-.003zm-24.35 2.266-.463.886.01.005zm-7.509-6.932-.856.517.006.01zm-2.71-10.264v-1h-1v1zm8.176 0h1v-1h-1zm3.332 9.331-.707.707.005.005zm17.24.578.713.701zm3.711-7.51c0-3.408-.927-6.173-2.921-8.133l-1.402 1.426c1.502 1.476 2.323 3.658 2.323 6.707zm-2.921-8.133c-1.91-1.878-5.238-3.61-9.829-5.25l-.673 1.884c4.534 1.619 7.515 3.234 9.1 4.792zm-9.829-5.25c-4.519-1.614-7.913-3.278-10.232-4.975l-1.181 1.614c2.539 1.858 6.136 3.6 10.74 5.245zm-10.221-4.967c-2.302-1.733-4.004-3.67-5.14-5.803l-1.765.94c1.293 2.429 3.205 4.58 5.702 6.461zm-5.133-5.789c-1.102-2.151-1.667-4.627-1.667-7.453h-2c0 3.099.621 5.895 1.888 8.366zm-1.667-7.453c0-4.878 1.611-8.833 4.808-11.947l-1.396-1.433c-3.616 3.522-5.412 8.009-5.412 13.38zm4.805-11.944c3.22-3.109 7.444-4.696 12.768-4.696v-2c-5.754 0-10.505 1.731-14.158 5.257zm12.768-4.696c3.635 0 6.836.822 9.63 2.442l1.003-1.73c-3.131-1.816-6.684-2.712-10.633-2.712zm9.636 2.446c2.797 1.594 4.943 3.81 6.454 6.664l1.768-.936c-1.688-3.189-4.104-5.683-7.231-7.466zm6.454 6.664c1.519 2.869 2.284 6.025 2.284 9.485h2c0-3.767-.836-7.247-2.516-10.421zm3.284 8.485h-8.176v2h8.176zm-7.176 1c0-4.151-1-7.514-3.137-9.946l-1.503 1.32c1.714 1.951 2.64 4.78 2.64 8.626zm-3.137-9.946c-2.16-2.459-5.233-3.628-9.061-3.628v2c3.401 0 5.867 1.022 7.558 2.948zm-9.061-3.628c-3.478 0-6.312.976-8.355 3.053l1.426 1.403c1.57-1.597 3.832-2.456 6.929-2.456zm-8.355 3.053c-2.04 2.073-2.998 4.931-2.998 8.433h2c0-3.134.849-5.43 2.424-7.03zm-2.998 8.433c0 2.996 1.088 5.542 3.248 7.571l1.37-1.457c-1.751-1.644-2.618-3.66-2.618-6.114zm3.248 7.571c2.099 1.972 5.268 3.674 9.415 5.146l.669-1.885c-4.028-1.43-6.903-3.017-8.714-4.718zm9.436 5.153c6.296 2.079 10.65 4.6 13.206 7.489l1.498-1.325c-2.895-3.272-7.635-5.935-14.077-8.063zm13.209 7.493c2.559 2.862 3.878 6.636 3.878 11.42h2c0-5.17-1.436-9.453-4.387-12.753zm3.878 11.42c0 5.004-1.615 8.931-4.791 11.887l1.362 1.464c3.637-3.384 5.429-7.869 5.429-13.351zm-4.788 11.883c-3.176 2.928-7.546 4.446-13.23 4.446v2c6.047 0 10.949-1.623 14.586-4.975zm-13.23 4.446c-3.612 0-6.936-.781-9.988-2.335l-.907 1.782c3.346 1.704 6.983 2.553 10.895 2.553zm-9.978-2.33c-3.015-1.578-5.383-3.767-7.123-6.573l-1.7 1.054c1.934 3.119 4.572 5.551 7.896 7.291zm-7.117-6.563c-1.703-2.82-2.566-6.059-2.566-9.747h-2c0 4.014.944 7.618 2.854 10.781zm-3.566-8.747h8.176v-2h-8.176zm7.176-1c0 4.188 1.168 7.581 3.625 10.038l1.414-1.414c-1.986-1.987-3.039-4.814-3.039-8.624zm3.63 10.043c2.477 2.445 5.802 3.621 9.855 3.621v-2c-3.648 0-6.426-1.046-8.451-3.045zm9.855 3.621c3.746 0 6.742-.962 8.8-3.054l-1.426-1.403c-1.555 1.581-3.95 2.457-7.374 2.457zm8.8-3.054c2.032-2.065 2.998-4.843 2.998-8.211h-2c0 2.972-.841 5.2-2.424 6.808z"/></svg>