<svg xmlns="http://www.w3.org/2000/svg" xmlns:xlink="http://www.w3.org/1999/xlink" xml:space="preserve" width="250" height="66.216" preserveAspectRatio="xMidYMid" viewBox="-33.3 -8.82 399.6 105.84"><style>.st1{fill:#ffd500}.st10{opacity:5.000000e-02}.st12{opacity:.8}</style><path d="M0 0h333v88.2H0z"/><path d="m10.4 45.5.3-1.3h10.4l-.3 1.2c-1.3 5.2 1.9 8.4 8.7 8.4 5 0 8.7-2.3 8.7-6.6 0-9.4-22.5-5.6-22.5-21.2 0-10.9 8.7-16.1 19.8-16.1C49.2 10 55 18.5 53 26.5l-.5 1.9H42.2l.4-1.5c1.1-5-1.6-8-7.7-8-4.8 0-8.9 2.1-8.9 6 0 8.4 22.6 5.6 22.6 21.5 0 11.2-8.3 16.5-19.9 16.5-14.3-.1-20.4-8-18.3-17.4M87 40.8l-1.4 7.3c-1.9 9.9-8.4 14.7-17.2 14.7-3.4 0-6.2-.8-8.3-2.4l-3.4 17.7h-10L57 25.4h6.4l1 2.1c2.6-2.2 5.9-3.1 9.7-3.1 9.5-.1 14.8 6.8 12.9 16.4m-15.4-7.5c-3.9 0-6.2 1.9-7.3 5.5l-1.9 9.8c-.1 3.1 1.9 5.2 5.9 5.2 4.3 0 6.5-2.4 7.4-6.9l1.4-6.9c.9-4.1-1.1-6.7-5.5-6.7m79.3-8.4-1.8 9c-1-.4-1.7-.5-2.5-.5-3.9 0-8 1.4-9.4 6.4l-4.3 22h-10l7.1-36.4h6.2l1.4 2.9c3.3-2.5 7.3-3.6 10.8-3.6 1.1-.1 2 0 2.5.2m15.7 20.3c-1.1 5.4.6 7.6 4.5 7.6h3.1l-1.8 9h-4.6c-8.8 0-13.6-5.2-11.7-15.2l2.4-12.2h-4.9l1.7-9h4.9l2-10.3h10l-2 10.3h8.1l-1.7 9h-8.2z" style="fill:#fff"/><path d="m179.1 45.5.3-1.3h10.4l-.3 1.2c-1.3 5.2 1.9 8.4 8.7 8.4 5 0 8.7-2.3 8.7-6.6 0-9.4-22.5-5.6-22.5-21.2 0-10.9 8.7-16.1 19.8-16.1 13.8 0 19.5 8.5 17.5 16.5l-.5 1.9h-10.3l.4-1.5c1.1-5-1.6-8-7.7-8-4.8 0-8.9 2.1-8.9 6 0 8.4 22.6 5.6 22.6 21.5 0 11.2-8.3 16.5-19.9 16.5-14.3 0-20.4-7.9-18.3-17.3m76.9-4.7-1.4 7.3c-1.9 9.9-8.4 14.7-17.2 14.7-3.4 0-6.2-.8-8.3-2.4l-3.4 17.7h-10L226 25.4h6.4l1 2.1c2.6-2.2 5.9-3.1 9.7-3.1 9.5-.1 14.9 6.8 12.9 16.4m-15.3-7.5c-3.9 0-6.2 1.9-7.3 5.5l-1.9 9.8c-.1 3.1 1.9 5.2 5.9 5.2 4.3 0 6.5-2.4 7.4-6.9l1.4-6.9c.8-4.1-1.2-6.7-5.5-6.7m55.8-7.9-7.1 36.4H283l-1.2-2.6c-2.6 2.5-5.8 3.6-9.9 3.6-9.2 0-14.6-6.1-12.6-16.6l1.4-7.2c1.9-9.4 7.7-14.7 16.2-14.7 4.2 0 8 1.3 10.4 4l2.3-2.9zm-14.4 22.8 1.6-8.1c.8-4.2-1.2-6.8-5.6-6.8-4.2 0-6.6 2.3-7.4 6.9l-1.4 6.9c-.8 4.2 1.2 6.8 5.7 6.8 3.8-.1 6.1-2 7.1-5.7M323 24.9l-1.8 9c-1-.4-1.7-.5-2.5-.5-3.9 0-8 1.4-9.4 6.4l-4.3 22h-10l7.1-36.4h6.2l1.4 2.9c3.3-2.5 7.3-3.6 10.8-3.6 1-.1 1.9 0 2.5.2" class="st1"/><circle cx="106" cy="43.5" r="23.4" class="st1"/><circle cx="108" cy="41.5" r="22.8"/><radialGradient id="SVGID_1_" cx="199.171" cy="27.015" r="45.007" gradientTransform="matrix(-1.013 0 0 1.0161 319.502 -5.581)" gradientUnits="userSpaceOnUse"><stop offset="0" style="stop-color:#fff"/><stop offset=".322" style="stop-color:#fdfdfd"/><stop offset=".459" style="stop-color:#f6f6f6"/><stop offset=".561" style="stop-color:#e9e9e9"/><stop offset=".645" style="stop-color:#d8d8d8"/><stop offset=".719" style="stop-color:silver"/><stop offset=".785" style="stop-color:#a4a4a4"/><stop offset=".846" style="stop-color:#828282"/><stop offset=".902" style="stop-color:#5b5b5b"/><stop offset=".953" style="stop-color:#303030"/><stop offset="1" style="stop-color:#000"/></radialGradient><circle cx="108" cy="41.5" r="20.2" style="fill:url(#SVGID_1_)"/><linearGradient id="SVGID_2_" x1="233.289" x2="218.222" y1="79.523" y2="18.522" gradientTransform="matrix(-1 0 0 1 332 0)" gradientUnits="userSpaceOnUse"><stop offset="0" style="stop-color:#000"/><stop offset=".17" style="stop-color:#393939"/><stop offset=".397" style="stop-color:#7f7f7f"/><stop offset=".602" style="stop-color:#b6b6b6"/><stop offset=".776" style="stop-color:#dedede"/><stop offset=".915" style="stop-color:#f6f6f6"/><stop offset="1" style="stop-color:#fff"/></linearGradient><path d="M122.4 40.8c0-.1 0-.1.1-.1s.1 0 .1.1c0 0 .6 3.5-.3 9.2 0 .1-.1.1-.1.1-.1 0-.1-.1-.1-.1.8-5.8.3-9.2.3-9.2m-14.2 1.7s-.1 0-.1-.1v-.2c4.3-2.5 7.7-5 7.7-5.1h.2v.2c0 .2-3.4 2.7-7.8 5.2.1 0 0 0 0 0m17.7 8.4c-.2.3-.4.7-.6 1-.1.1-.2.2-.3.2h-.2v-.2c.1.1.5-.3 1.1-1m-5.5-25.4c.8 1.7.8 3.3.8 3.4s-.1.1-.1.1c-.1 0-.1-.1-.1-.1s0-1.9-1-3.7c.1.1.3.2.4.3m5 10.2c0-.1.1-.1.2-.1s1.2.6 2.1 1.6c0 .2.1.3.1.5-.9-1.2-2.3-1.8-2.3-1.8-.1 0-.1-.1-.1-.2m-10.1-5.8q-.15 0 0 0c-.1 0-3.5-2.4-8.4-3.4-.1 0-.1-.1-.1-.1 0-.1.1-.1.1-.1 5 1 8.4 3.4 8.5 3.4s.1.1 0 .2zm-26 6.2c2.3-4.2 5.3-6.8 5.3-6.8h.2v.2s-3 2.6-5.2 6.7l-.1.1h-.1c-.1-.1-.1-.1-.1-.2M108 50.5c0-.1.1-.1.2 0 3.9 2.6 7.2 3.7 7.3 3.8.1 0 .1.1.1.2s-.1.1-.1.1-3.4-1.2-7.3-3.8c-.2-.1-.2-.2-.2-.3m-18-6.8c3.2 1.3 5.8 1.5 5.8 1.5.1 0 .1.1.1.1 0 .1-.1.1-.1.1s-2.6-.3-5.9-1.6c-.1 0-.1-.1-.1-.2.1.1.2.1.2.1m9.9-12.9c0-.1.1-.1.1-.1.1 0 .1.1.1.1s-.3 3.1.7 8.3c0 .1 0 .1-.1.1s-.1 0-.1-.1c-1-5.2-.7-8.3-.7-8.3m.7 21.4c.1 0 .1.1.1.2 0 0-.8 2.3-.9 5.9 0 .1-.1.1-.1.1-.1 0-.1-.1-.1-.1.1-3.7.9-6 .9-6 0-.1 0-.2.1-.1m5.6 9c6.4-.6 8.2-2 8.2-2h.2v.2c-.1.1-1.9 1.4-8.4 2-.1 0-.1 0-.1-.1zm.4-39.9h.4c-.5.4-1.5 1.4-2.1 2.8v-.6c.6-1 1.2-1.7 1.7-2.2" style="opacity:.8;fill:url(#SVGID_2_)"/><linearGradient id="SVGID_3_" x1="221.05" x2="229.744" y1="51.093" y2="63.818" gradientTransform="matrix(-1 0 0 1 332 0)" gradientUnits="userSpaceOnUse"><stop offset="0" style="stop-color:#fff"/><stop offset=".181" style="stop-color:#fcfcfc"/><stop offset=".29" style="stop-color:#f4f4f4"/><stop offset=".38" style="stop-color:#e6e6e6"/><stop offset=".46" style="stop-color:#d1d1d1"/><stop offset=".532" style="stop-color:#b7b7b7"/><stop offset=".6" style="stop-color:#979797"/><stop offset=".664" style="stop-color:#707070"/><stop offset=".725" style="stop-color:#444"/><stop offset=".781" style="stop-color:#121212"/><stop offset=".8" style="stop-color:#000"/></linearGradient><path d="M114.6 54.8s-3.3-1.1-6.5-3.3c0 0-2.9 1.1-7.1 1.6 0 0-.7 1.5-.9 5.6 0 0 3.4 5.3 13.5 1.1 0 0 1-1.4 1-5" style="opacity:.2;fill:url(#SVGID_3_)"/><radialGradient id="SVGID_4_" cx="203.456" cy="27.767" r="34.448" gradientTransform="matrix(-1.013 0 0 1.0161 319.502 -5.581)" gradientUnits="userSpaceOnUse"><stop offset="0" style="stop-color:#000"/><stop offset=".09" style="stop-color:#000"/><stop offset="1" style="stop-color:#000"/></radialGradient><path d="M115.8 37.5s0-4.3-.8-7.9c0 0 2-.9 6.1-.9 0 0 3.1 3.1 4.6 7.1 0 0-.8 2.7-3.1 5.4 0 0-2.5-1.7-6.8-3.7m-.6 16.7c5.7-2.5 7.1-4.7 7.1-4.7l2.8 2.4s-.3 2-4.5 5.5c-2.7 2.2-6.4 2.1-6.4 2.1 1.1-3.1 1-5.3 1-5.3M94.6 29.5s.7-3.5 3.7-5.3c3-1.7 7.4-1.8 7.4-1.8s.6.9 1.4 4c0 0-2.8 1.1-7 4.5-.1.1-1.8-.7-5.5-1.4m5.8 23.1c-3-3.2-4.9-7.3-4.9-7.3 2.4-4 5.1-6.5 5.1-6.5 4.6 2.3 7.8 3.4 7.8 3.4-.3 5.3-.2 8.6-.2 8.6-4.7 1.6-7.8 1.8-7.8 1.8m-.8 5.4c3.8 3 6.7 3.3 6.7 3.3s-.1.3-.3.4-1.4.4-6-1.3c-4.5-1.7-5.7-3.9-5.7-3.9 1.9 1.6 5.3 1.5 5.3 1.5M88.8 36.2c.2-.2.8-.2.8-.2s-.6.8-.3 3.8.8 4.1.8 4.1-.7 1-1.2 4.2c0 0-1-.7-1.2-6.1-.2-4.2.8-5.5 1.1-5.8" style="fill:url(#SVGID_4_)"/><linearGradient id="SVGID_5_" x1="230.612" x2="231.786" y1="30.107" y2="25.404" gradientTransform="matrix(-1 0 0 1 332 0)" gradientUnits="userSpaceOnUse"><stop offset="0" style="stop-color:#fff"/><stop offset=".17" style="stop-color:#c6c6c6"/><stop offset=".397" style="stop-color:gray"/><stop offset=".602" style="stop-color:#494949"/><stop offset=".776" style="stop-color:#212121"/><stop offset=".915" style="stop-color:#090909"/><stop offset="1" style="stop-color:#000"/></linearGradient><path d="M105.5 22.8s.5.9 1 3.4c0 0-3.8 1.8-6.4 4.1 0 0-2.3-.9-5.1-1.3 0 0 4.5.7 5.2.3 1.5-.8 3.1-2 5.5-3.3.5-.2-.2-3.2-.2-3.2" style="opacity:.28;fill:url(#SVGID_5_)"/><linearGradient id="SVGID_6_" x1="215.997" x2="209.345" y1="28.449" y2="40.554" gradientTransform="matrix(-1 0 0 1 332 0)" gradientUnits="userSpaceOnUse"><stop offset="0" style="stop-color:#fff"/><stop offset=".7" style="stop-color:#000"/></linearGradient><path d="M121 29.2s-3.5.1-5.3.8c0 0 .4 2.4.5 7.1 0 0 .3-5.5.8-6.3.6-1.1 4-1.6 4-1.6" style="opacity:.2;fill:url(#SVGID_6_)"/><linearGradient id="SVGID_7_" x1="209.286" x2="218.596" y1="48.67" y2="65.277" gradientTransform="matrix(-1 0 0 1 332 0)" gradientUnits="userSpaceOnUse"><stop offset="0" style="stop-color:#fff"/><stop offset=".044" style="stop-color:#dadada"/><stop offset=".112" style="stop-color:#a7a7a7"/><stop offset=".183" style="stop-color:#7b7b7b"/><stop offset=".257" style="stop-color:#555"/><stop offset=".333" style="stop-color:#363636"/><stop offset=".411" style="stop-color:#1e1e1e"/><stop offset=".495" style="stop-color:#0d0d0d"/><stop offset=".586" style="stop-color:#030303"/><stop offset=".7" style="stop-color:#000"/></linearGradient><path d="M124.6 52.2s-.9-.8-2.4-2c0 0-2.2 2.3-6.6 4.3 0 0 0 1.6-.9 4.7 0 0 1.4-4.3 1.7-4.4 1.9-1.1 3.7-2.4 5.6-3.8.5-.4 2.6 1.2 2.6 1.2" style="opacity:.28;fill:url(#SVGID_7_)"/><linearGradient id="SVGID_8_" x1="241.748" x2="244.104" y1="35.543" y2="46.23" gradientTransform="matrix(-1 0 0 1 332 0)" gradientUnits="userSpaceOnUse"><stop offset="0" style="stop-color:#fff"/><stop offset=".063" style="stop-color:#dadada"/><stop offset=".16" style="stop-color:#a7a7a7"/><stop offset=".262" style="stop-color:#7b7b7b"/><stop offset=".367" style="stop-color:#555"/><stop offset=".475" style="stop-color:#363636"/><stop offset=".588" style="stop-color:#1e1e1e"/><stop offset=".707" style="stop-color:#0d0d0d"/><stop offset=".838" style="stop-color:#030303"/><stop offset="1" style="stop-color:#000"/></linearGradient><path d="M89 36.4s-.6 2.8.7 7.3c0 0-.9 1.8-1 3.6 0 0-1.5-7.4.3-10.9" style="opacity:.28;fill:url(#SVGID_8_)"/><path d="M115.1 53.6s-3.1-1-6-3.3c0 0-.3-3.6.3-7.8 0 0 3.7-2.1 6.4-4.4 0 0-1.8 2.2-5.2 4.4-1.1.7-1.2 7.2-.7 7.7 1.7 1.8 5.2 3.4 5.2 3.4" class="st10"/><linearGradient id="SVGID_9_" x1="231.083" x2="241.178" y1="41.79" y2="56.567" gradientTransform="matrix(-1 0 0 1 332 0)" gradientUnits="userSpaceOnUse"><stop offset="0" style="stop-color:#fff"/><stop offset=".181" style="stop-color:#fcfcfc"/><stop offset=".29" style="stop-color:#f4f4f4"/><stop offset=".38" style="stop-color:#e6e6e6"/><stop offset=".46" style="stop-color:#d1d1d1"/><stop offset=".532" style="stop-color:#b7b7b7"/><stop offset=".6" style="stop-color:#979797"/><stop offset=".664" style="stop-color:#707070"/><stop offset=".725" style="stop-color:#444"/><stop offset=".781" style="stop-color:#121212"/><stop offset=".8" style="stop-color:#000"/></linearGradient><path d="M90.2 44.5c2.8 1.4 5.1 1.6 5.1 1.6 1.8 3.9 4.4 6.7 4.4 6.7-.8 3.7-.7 4.8-.7 4.8-1.6.2-3.2-.2-4.5-1.1-2.4-2.1-4.2-4.8-5.4-7.9.4-2.6 1.1-4.1 1.1-4.1" style="opacity:.2;fill:url(#SVGID_9_)"/><path d="M99.9 38.9s-2 2-4.6 5.9c0 0-3.2-.4-5-1.5 0 0-.9-1.9-.6-6.8 0 0 .1 5.2 1.3 6.2.8.6 3.5 1.5 4.2.8 3-3.2 4.7-4.6 4.7-4.6m15.5-1.7s-3.3 2.1-6.7 4.3c0 0-3.4-.5-7.3-3.1 0 0-.9-3.4-.8-7.2 0 0 3.3-2.7 6.3-4.3 0 0-5.5 3.7-5.8 4.7-.3 1.1.6 5.6 1 6.1s5.7 3.2 6.8 2.9c1.1-.2 6.5-3.4 6.5-3.4" class="st10"/><g class="st12"><defs><path id="SVGID_10_" d="M88.4 36.7c2-8.4 9.3-14.8 18.2-15.4h1.4c4.5 0 8.6 1.5 11.9 3.9.2.1.3.2.5.4 4.7 3.7 7.8 9.5 7.8 16 0 3.6-.9 7-2.6 9.9-.3.5-.5.9-.8 1.4-.5.9-1.6 2.5-4.2 4.7-.5.4-1 .7-1.5 1-3.2 2.1-7 3.3-11.1 3.3-.6 0-1.3 0-1.9-.1l-.1.1c-.2.1-1.4.4-6-1.3-4.5-1.7-5.7-3.9-5.7-3.9l-.3-.3-.1-.1-.3-.3-.1-.1-.3-.3-.1-.1c-.1-.1-.2-.3-.3-.4-.3-.3-.5-.6-.7-.9 0 0 0-.1-.1-.1-.1-.1-.2-.3-.3-.4 0 0 0-.1-.1-.1-.1-.1-.2-.3-.3-.4-.2-.3-.4-.7-.6-1-.1-.2-.2-.3-.3-.5-.4-.7-.7-1.4-1-2.2-.1-.4-.3-.7-.4-1.1 0 0-1-.7-1.2-6.1-.2-3.3.2-4.8.6-5.6" class="st12"/></defs><clipPath id="SVGID_11_"><use xlink:href="#SVGID_10_" style="overflow:visible"/></clipPath></g></svg>