<svg xmlns="http://www.w3.org/2000/svg" id="svg44" width="1475" height="995.027" version="1.2" viewBox="0 0 1770 1194.032">
  <g id="g42" fill="none" fill-opacity="1" fill-rule="evenodd" stroke="#000" stroke-linecap="square" stroke-linejoin="bevel" stroke-width="1" transform="translate(225.187 503.316)">
    <g id="g14" fill="orange" stroke="none" transform="matrix(13.25966 0 0 13.25966 -7301.465 -549.393)">
      <path id="path12" fill-rule="evenodd" d="M563 8h75v3h-75V8" vector-effect="none"/>
    </g>
    <g id="g18" fill="orange" stroke="none" transform="matrix(13.25966 0 0 13.25966 -7301.465 -549.393)">
      <path id="path16" fill-rule="evenodd" d="M563 8h3v41h-3V8" vector-effect="none"/>
    </g>
    <g id="g22" fill="orange" stroke="none" transform="matrix(13.25966 0 0 13.25966 -7301.465 -549.393)">
      <path id="path20" fill-rule="evenodd" d="M563 86h75v3h-75v-3" vector-effect="none"/>
    </g>
    <g id="g26" fill="orange" stroke="none" transform="matrix(13.25966 0 0 13.25966 -7301.465 -549.393)">
      <path id="path24" fill-rule="evenodd" d="M635 49h3v40h-3V49" vector-effect="none"/>
    </g>
    <g id="g30" fill="#000" stroke="#000" stroke-linecap="square" stroke-linejoin="bevel" stroke-opacity="1" stroke-width="1" transform="matrix(13.25966 0 0 13.25966 -7195.387 -549.393)">
      <g id="text28" fill="#000" fill-opacity="1" stroke="none" aria-label="anders" font-family="Oswald" font-size="21.333" font-stretch="normal" font-style="normal" font-variant="normal" font-weight="400">
        <path d="M606.87 37.17q-.725 0-1.28-.405-.554-.426-.874-1.066-.32-.662-.32-1.387 0-1.152.384-1.941.384-.79 1.045-1.323.683-.555 1.558-.96.896-.405 1.877-.79v-.874q0-.747-.085-1.237-.086-.491-.363-.726-.256-.256-.79-.256-.469 0-.767.214-.278.213-.406.618-.128.384-.128.918v.618l-2.261-.085q.043-2.048.939-3.008.896-.981 2.773-.981 1.835 0 2.603 1.002.768 1.003.768 2.902v5.632q0 .576.021 1.109.043.533.085 1.003.064.448.107.853h-2.09q-.065-.341-.171-.853-.086-.534-.128-.96-.214.725-.832 1.365-.598.619-1.664.619zm.897-1.962q.341 0 .64-.192.298-.192.533-.427.235-.256.32-.405v-3.499q-.533.299-1.003.598-.469.298-.832.64-.341.32-.554.746-.192.406-.192.939 0 .747.277 1.173.277.427.81.427z" style="-inkscape-font-specification:Oswald" id="path31"/>
        <path d="M613.74 37V24.67h2.283v1.215q.618-.576 1.365-.981t1.643-.405q.746 0 1.13.384.406.384.555.96.17.576.17 1.173V37h-2.282v-9.323q0-.661-.192-1.024-.192-.362-.79-.362-.383 0-.81.234-.405.214-.79.534V37z" style="-inkscape-font-specification:Oswald" id="path33"/>
        <path d="M625.964 37.17q-1.557 0-2.325-1.13-.768-1.152-.768-3.883v-2.389q0-1.408.234-2.603.235-1.216.875-1.941.661-.725 1.92-.725.619 0 1.13.277.513.277.918.683V19.72h2.283V37h-2.283v-.79q-.405.427-.896.705-.47.256-1.088.256zm.576-1.791q.32 0 .683-.107.362-.128.725-.363v-8.085q-.299-.213-.661-.363-.363-.17-.79-.17-.79 0-1.066.768-.278.746-.278 1.813v3.477q0 .854.086 1.558.106.682.405 1.088.299.384.896.384z" style="-inkscape-font-specification:Oswald" id="path35"/>
        <path d="M635.948 37.17q-1.45 0-2.24-.554-.79-.576-1.11-1.664-.298-1.11-.298-2.71v-2.815q0-1.643.32-2.731.32-1.088 1.11-1.643.81-.554 2.218-.554 1.557 0 2.283.64.746.64.98 1.856.236 1.194.236 2.88v1.002h-4.864v2.475q0 .747.128 1.216.149.47.448.704.32.213.81.213.512 0 .768-.234.278-.256.363-.704.107-.47.107-1.088v-.747h2.218v.47q0 1.855-.79 2.922-.788 1.067-2.687 1.067zm-1.365-7.53h2.624v-1.11q0-.767-.086-1.28-.085-.533-.362-.789-.256-.277-.832-.277-.555 0-.854.256-.277.256-.384.875-.106.597-.106 1.664z" style="-inkscape-font-specification:Oswald" id="path37"/>
        <path d="M641.58 37V24.67h2.283v1.749q.682-1.131 1.365-1.515.683-.384 1.365-.384h.15q.085 0 .213.021v2.518q-.256-.107-.597-.171-.32-.085-.662-.085-.533 0-.981.256-.427.234-.853.938V37z" style="-inkscape-font-specification:Oswald" id="path39"/>
        <path d="M651.223 37.17q-1.515 0-2.432-.938-.918-.96-1.046-2.517l1.899-.576q.17 1.173.576 1.77.405.576 1.195.576.618 0 .938-.341.32-.363.32-.96 0-.533-.234-.96-.235-.427-.768-.875l-2.112-1.813q-.64-.555-1.088-1.237-.427-.683-.427-1.771 0-.981.384-1.643.405-.682 1.11-1.024.725-.362 1.685-.362 1.472 0 2.24.96.789.938.896 2.282l-1.536.576q-.086-.64-.256-1.109-.171-.49-.47-.747-.298-.277-.79-.277-.554 0-.895.384-.32.363-.32.875 0 .32.128.64.15.298.49.597l2.177 2.005q.448.406.832.875.405.47.66 1.067.257.597.257 1.386 0 1.046-.427 1.75-.426.704-1.194 1.066-.768.342-1.792.342z" style="-inkscape-font-specification:Oswald" id="path41"/>
      </g>
    </g>
    <g id="g34" fill="#000" stroke="#000" stroke-linecap="square" stroke-linejoin="bevel" stroke-opacity="1" stroke-width="1" transform="matrix(13.25966 0 0 13.25966 -7434.061 -549.393)">
      <g id="text32" fill="#000" fill-opacity="1" stroke="none" aria-label="kreativ" font-family="Oswald" font-size="21.333" font-stretch="normal" font-style="normal" font-variant="normal" font-weight="400">
        <path d="M548.195 74.979v-17.28h2.282v10.304l3.328-5.334h2.39l-2.902 4.822L556.11 75h-2.282l-2.304-6.315-1.046 1.579v4.715z" style="-inkscape-font-specification:Oswald" id="path44"/>
        <path d="M557.368 75V62.67h2.283v1.749q.682-1.131 1.365-1.515.683-.384 1.365-.384h.15q.085 0 .213.021v2.518q-.256-.107-.597-.171-.32-.085-.662-.085-.533 0-.981.256-.427.234-.853.938V75z" style="-inkscape-font-specification:Oswald" id="path46"/>
        <path d="M567.565 75.17q-1.45 0-2.24-.554-.79-.576-1.11-1.664-.298-1.11-.298-2.71v-2.815q0-1.643.32-2.731.32-1.088 1.11-1.643.81-.554 2.218-.554 1.558 0 2.283.64.747.64.981 1.856.235 1.194.235 2.88v1.002H566.2v2.475q0 .747.128 1.216.15.47.448.704.32.213.81.213.513 0 .769-.234.277-.256.362-.704.107-.47.107-1.088v-.747h2.219v.47q0 1.855-.79 2.922-.79 1.067-2.688 1.067zm-1.365-7.53h2.624v-1.11q0-.767-.085-1.28-.086-.533-.363-.789-.256-.277-.832-.277-.555 0-.853.256-.278.256-.384.875-.107.597-.107 1.664z" style="-inkscape-font-specification:Oswald" id="path48"/>
        <path d="M575.352 75.17q-.725 0-1.28-.405-.555-.426-.875-1.066-.32-.662-.32-1.387 0-1.152.384-1.941.384-.79 1.046-1.323.682-.555 1.557-.96.896-.405 1.877-.79v-.874q0-.747-.085-1.237-.085-.491-.363-.726-.256-.256-.79-.256-.468 0-.767.214-.277.213-.405.618-.128.384-.128.918v.618l-2.262-.085q.043-2.048.939-3.008.896-.981 2.773-.981 1.835 0 2.603 1.002.768 1.003.768 2.902v5.632q0 .576.021 1.109.043.533.086 1.003.064.448.106.853h-2.09q-.064-.341-.171-.853-.085-.534-.128-.96-.213.725-.832 1.365-.597.619-1.664.619zm.896-1.962q.341 0 .64-.192t.533-.427q.235-.256.32-.405v-3.499q-.533.299-1.002.598-.47.298-.832.64-.342.32-.555.746-.192.406-.192.939 0 .747.277 1.173.278.427.81.427z" style="-inkscape-font-specification:Oswald" id="path50"/>
        <path d="M585.336 75.17q-.96 0-1.558-.362-.576-.363-.853-1.024-.256-.661-.256-1.557v-8.043h-1.301v-1.515h1.301v-3.605h2.283v3.605h1.984v1.515h-1.984v7.893q0 .726.234 1.046.235.298.896.298.171 0 .384-.021.235-.021.448-.043v1.686q-.426.064-.789.085-.363.043-.79.043z" style="-inkscape-font-specification:Oswald" id="path52"/>
        <path d="M588.77 75V62.67h2.283V75zm0-14.165v-2.39h2.283v2.39z" style="-inkscape-font-specification:Oswald" id="path54"/>
        <path d="M595.106 75l-2.432-12.33h2.304l1.515 9.92 1.536-9.92h2.219L597.9 75z" style="-inkscape-font-specification:Oswald" id="path56"/>
      </g>
    </g>
  </g>
</svg>
