<?xml version="1.0" encoding="UTF-8" standalone="no"?>
<!-- Generator: Adobe Illustrator 19.2.1, SVG Export Plug-In . SVG Version: 6.00 Build 0)  -->
<svg id="layer" xmlns:rdf="http://www.w3.org/1999/02/22-rdf-syntax-ns#" xmlns="http://www.w3.org/2000/svg" xml:space="preserve" viewBox="0 0 300 74.162361" height="61.802" width="250" version="1.1" y="0px" x="0px" xmlns:cc="http://creativecommons.org/ns#" xmlns:dc="http://purl.org/dc/elements/1.1/"><metadata id="metadata17"><rdf:RDF><cc:Work rdf:about=""><dc:format>image/svg+xml</dc:format><dc:type rdf:resource="http://purl.org/dc/dcmitype/StillImage"/><dc:title/></cc:Work></rdf:RDF></metadata>
<style id="style2" type="text/css">
	.st0{fill:#5468FF;}
	.st1{fill:#FFFFFF;}
</style>
<g id="g10" transform="matrix(.41674 0 0 .41674 16.374 -96.67)">
	<path id="path4" fill="#5468ff" class="st0" d="m40.2 246.8h109.3c10.8 0 19.5 8.7 19.5 19.5v109.3c0 10.8-8.7 19.5-19.5 19.5h-109.3c-10.8 0-19.5-8.7-19.5-19.5v-109.3c0-10.7 8.7-19.5 19.5-19.5"/>
	<path id="path6" fill="#fff" class="st1" d="m110.3 279.9v-5.1c0-3.6-2.9-6.4-6.4-6.4h-15c-3.6 0-6.4 2.9-6.4 6.4v5.2c0 0.6 0.5 1 1.1 0.9 4.2-1.2 8.6-1.8 13.1-1.8 4.3 0 8.5 0.6 12.6 1.7 0.5 0.1 1-0.3 1-0.9m-41.1 6.7-2.6-2.6c-2.5-2.5-6.6-2.5-9.1 0l-3.1 3.1c-2.5 2.5-2.5 6.6 0 9.1l2.5 2.5c0.4 0.4 1 0.3 1.4-0.1 1.5-2 3.1-4 4.9-5.8s3.7-3.5 5.8-4.9c0.5-0.3 0.5-0.9 0.2-1.3m27.4 16.2v22c0 0.6 0.7 1.1 1.3 0.8l19.6-10.1c0.4-0.2 0.6-0.8 0.4-1.2-4.1-7.1-11.6-12-20.3-12.3-0.6-0.1-1 0.3-1 0.8m0 53c-16.3 0-29.6-13.2-29.6-29.5s13.3-29.5 29.6-29.5 29.6 13.2 29.6 29.5-13.3 29.5-29.6 29.5m0-71.5c-23.2 0-42 18.8-42 41.9 0 23.2 18.8 41.9 42 41.9s42-18.8 42-41.9-18.8-41.9-42-41.9"/>
	<path id="path8" fill="#5468ff" class="st0" d="m316.4 364.5c-28.9 0.1-28.9-23.3-28.9-27v-87.8l17.6-2.8v87.3c0 2.1 0 15.5 11.3 15.6zm-71.4-14.4c5.4 0 9.4-0.3 12.2-0.9v-17.9c-1.4-0.4-2.8-0.7-4.2-0.9-2-0.3-4.1-0.5-6.1-0.5-1.9 0-3.9 0.1-5.9 0.5-2 0.3-3.8 0.8-5.4 1.6s-2.9 1.8-3.8 3.2c-1 1.4-1.4 2.2-1.4 4.3 0 4.1 1.4 6.5 4.1 8.1 2.4 1.7 6 2.5 10.5 2.5zm-1.6-63.9c5.8 0 10.7 0.7 14.7 2.2 4 1.4 7.2 3.5 9.5 6 2.4 2.6 4 6.1 5 9.8s1.5 7.7 1.5 12.2v45.3c-2.7 0.6-6.8 1.3-12.3 2.1s-11.7 1.2-18.5 1.2c-4.5 0-8.7-0.5-12.5-1.3-3.8-0.9-7-2.2-9.7-4.2-2.7-1.9-4.7-4.4-6.3-7.5-1.5-3.1-2.3-7.4-2.3-11.9 0-4.3 0.9-7.1 2.5-10 1.7-3 4-5.4 6.9-7.3s6.3-3.2 10.1-4 7.8-1.2 12-1.2c1.9 0 4 0.1 6.1 0.4 2.1 0.2 4.4 0.6 6.9 1.2v-2.9c0-2-0.2-4-0.7-5.8s-1.3-3.4-2.5-4.8-2.8-2.5-4.8-3.2c-2-0.8-4.5-1.4-7.5-1.4-4.1 0-7.8 0.5-11.1 1.1-3.4 0.6-6.2 1.3-8.3 2l-2.1-14.4c2.2-0.8 5.5-1.5 9.7-2.3 4.3-0.9 8.9-1.3 13.7-1.3zm348 63.4c5.4 0 9.4-0.3 12.2-0.9v-17.9c-1-0.3-2.4-0.6-4.2-0.9-2-0.3-4.1-0.5-6.1-0.5-1.9 0-3.9 0.1-5.9 0.5-2 0.3-3.8 0.8-5.4 1.6s-2.9 1.8-3.8 3.2c-1 1.4-1.4 2.2-1.4 4.3 0 4.1 1.4 6.5 4.1 8.1 2.6 1.8 6.1 2.5 10.5 2.5zm-1.5-63.8c5.8 0 10.7 0.7 14.7 2.2 4 1.4 7.2 3.5 9.5 6 2.3 2.6 4 6.1 5 9.8s1.5 7.7 1.5 12.2v45.3c-2.7 0.6-6.8 1.3-12.3 2.1s-11.7 1.2-18.5 1.2c-4.5 0-8.7-0.5-12.5-1.3-3.8-0.9-7-2.2-9.7-4.2-2.7-1.9-4.7-4.4-6.3-7.5-1.5-3.1-2.3-7.4-2.3-11.9 0-4.3 0.9-7.1 2.5-10 1.7-3 4-5.4 6.9-7.3s6.3-3.2 10.1-4 7.8-1.2 12-1.2c1.9 0 4 0.1 6.1 0.4 2.2 0.2 4.4 0.6 6.8 1.2v-2.9c0-2-0.2-4-0.7-5.8s-1.3-3.4-2.5-4.8-2.8-2.5-4.8-3.2c-2-0.8-4.5-1.3-7.5-1.3-4.1 0-7.8 0.5-11.1 1.1-3.4 0.6-6.2 1.3-8.3 2l-2.1-14.4c2.2-0.8 5.5-1.5 9.7-2.3 4.4-1 9-1.4 13.8-1.4zm-52.9-8.4c5.9 0 10.7-4.8 10.7-10.7s-4.8-10.7-10.7-10.7-10.7 4.8-10.7 10.7c0 6 4.8 10.7 10.7 10.7zm8.9 87.1h-17.7v-76l17.7-2.8zm-31 0c-28.9 0.1-28.9-23.3-28.9-27v-87.8l17.6-2.8v87.3c0 2.1 0 15.5 11.3 15.6zm-57.3-38.9c0-7.6-1.7-14-4.9-18.4-3.2-4.5-7.8-6.7-13.6-6.7s-10.4 2.2-13.6 6.7-4.8 10.7-4.8 18.4 1.6 12.9 4.9 17.3c3.2 4.5 7.8 6.7 13.6 6.7s10.4-2.2 13.6-6.7 4.8-9.6 4.8-17.3zm18 0c0 5.9-0.9 10.4-2.6 15.3-1.8 4.9-4.2 9.1-7.4 12.6s-7 6.2-11.5 8.1-11.4 3-14.9 3-10.4-1-14.8-3c-4.5-1.9-8.3-4.6-11.5-8.1s-5.7-7.7-7.5-12.6-2.7-9.4-2.7-15.3 0.8-11.7 2.6-16.5c1.8-4.9 4.3-9 7.6-12.5 3.2-3.5 7.1-6.1 11.5-8 4.5-1.9 9.4-2.8 14.7-2.8s10.2 0.9 14.7 2.8 8.4 4.5 11.5 8c3.2 3.5 5.7 7.6 7.5 12.5 1.9 4.8 2.8 10.5 2.8 16.5zm-132.6 0c0 7.4 1.6 15.6 4.9 19 3.2 3.4 7.4 5.1 12.6 5.1 2.8 0 5.5-0.4 7.9-1.2 2.5-0.8 4.5-1.7 6-2.7v-43.7c-1.3-0.3-6.5-1.4-11.6-1.5-6.4-0.2-11.3 2.4-14.7 6.6s-5.1 11.5-5.1 18.4zm49 34.7c0 12-3.1 20.8-9.2 26.4-6.2 5.6-15.6 8.4-28.3 8.4-4.6 0-14.3-0.9-22-2.6l2.8-14c6.4 1.3 15 1.7 19.4 1.7 7.1 0 12.1-1.4 15.1-4.3s4.5-7.2 4.5-12.8v-2.9c-1.8 0.9-4.1 1.7-6.9 2.6s-6.1 1.3-9.8 1.3c-4.9 0-9.3-0.8-13.3-2.3s-7.5-3.8-10.3-6.7c-2.8-3-5.1-6.7-6.7-11.2s-2.4-12.4-2.4-18.3c0-5.5 0.9-12.4 2.5-17 1.7-4.6 4.1-8.5 7.4-11.8 3.2-3.3 7.2-5.8 11.9-7.7 4.6-1.8 10.1-3 16-3 5.7 0 11 0.7 16.1 1.6s9.5 1.7 13.1 2.7z"/>
</g>
</svg>
