<?xml version="1.0" encoding="UTF-8" standalone="no"?>
<svg id="svg1936" xmlns:rdf="http://www.w3.org/1999/02/22-rdf-syntax-ns#" xmlns="http://www.w3.org/2000/svg" height="75.338" width="250" version="1.0" xmlns:cc="http://creativecommons.org/ns#" xmlns:dc="http://purl.org/dc/elements/1.1/" viewBox="0 0 300 90.406137">
 <metadata id="metadata21">
  <rdf:RDF>
   <cc:Work rdf:about="">
    <dc:format>image/svg+xml</dc:format>
    <dc:type rdf:resource="http://purl.org/dc/dcmitype/StillImage"/>
    <dc:title/>
   </cc:Work>
  </rdf:RDF>
 </metadata>
 <path id="path8" d="m180.1 66.451c-14.528 10.708-35.585 16.421-53.715 16.421-25.421 0-48.307-9.4023-65.621-25.04-1.3603-1.2297-0.14147-2.9056 1.4909-1.948 18.685 10.871 41.788 17.412 65.653 17.412 16.095 0 33.801-3.33 50.081-10.24 2.4594-1.0447 4.5162 1.6106 2.1112 3.3953" fill-rule="evenodd" fill="#f90"/>
 <path id="path10" d="m186.13 59.541c-1.85-2.3724-12.275-1.1209-16.955-0.56588-1.4256 0.17412-1.6432-1.0665-0.35912-1.9588 8.3032-5.8438 21.928-4.157 23.517-2.1982 1.5888 1.9697-0.41353 15.627-8.2162 22.146-1.1971 1.0012-2.3397 0.46795-1.8065-0.8597 1.752-4.3747 5.6806-14.18 3.8197-16.563" fill-rule="evenodd" fill="#f90"/>
 <path id="path12" fill-rule="evenodd" d="m169.51 15.761v-5.6806c0-0.85971 0.65294-1.4365 1.4365-1.4365h25.432c0.81618 0 1.4691 0.58765 1.4691 1.4365v4.8644c-0.0109 0.81618-0.69647 1.8826-1.9153 3.5694l-13.179 18.816c4.897-0.1197 10.066 0.60941 14.506 3.1124 1.0012 0.56588 1.2732 1.3929 1.3494 2.2091v6.0615c0 0.82706-0.91412 1.7956-1.8718 1.295-7.8244-4.1026-18.217-4.5488-26.868 0.0435-0.88147 0.47882-1.8065-0.47882-1.8065-1.3059v-5.7568c0-0.925 0.0109-2.5029 0.93587-3.9068l15.268-21.895h-13.287c-0.81618 0-1.4691-0.57676-1.4691-1.4256"/>
 <path id="path14" fill-rule="evenodd" d="m76.735 51.205h-7.738c-0.74-0.0544-1.3276-0.6094-1.3821-1.3168v-39.71c0-0.79441 0.66382-1.4256 1.4909-1.4256h7.215c0.75089 0.0326 1.3494 0.60941 1.4038 1.3277v5.1909h0.14147c1.8826-5.0168 5.4194-7.3565 10.186-7.3565 4.8426 0 7.8679 2.3397 10.044 7.3565 1.8718-5.0168 6.1268-7.3565 10.686-7.3565 3.2429 0 6.7906 1.3385 8.9562 4.3421 2.4485 3.3409 1.9479 8.1944 1.9479 12.449l-0.0109 25.062c0 0.79441-0.66382 1.4365-1.4909 1.4365h-7.7265c-0.77264-0.0544-1.3929-0.6747-1.3929-1.4365v-21.046c0-1.6759 0.15234-5.8547-0.21765-7.4435-0.57676-2.6662-2.307-3.417-4.5488-3.417-1.8718 0-3.8306 1.2515-4.625 3.2538-0.79442 2.0024-0.71824 5.3541-0.71824 7.6068v21.046c0 0.79441-0.66382 1.4365-1.4909 1.4365h-7.7265c-0.78353-0.0544-1.3929-0.6747-1.3929-1.4365l-0.0109-21.046c0-4.4291 0.7291-10.948-4.7665-10.948-5.5609 0-5.3432 6.3553-5.3432 10.948v21.046c0 0.79441-0.66383 1.4365-1.4909 1.4365"/>
 <path id="path16" fill-rule="evenodd" d="m219.74 7.9147c11.481 0 17.695 9.8594 17.695 22.396 0 12.112-6.8668 21.721-17.695 21.721-11.274 0-17.412-9.8594-17.412-22.146 0-12.362 6.2138-21.971 17.412-21.971m0.0653 8.1074c-5.7023 0-6.0615 7.77-6.0615 12.613 0 4.8535-0.0762 15.214 5.9962 15.214 5.9962 0 6.2791-8.3576 6.2791-13.451 0-3.3518-0.14148-7.3564-1.1535-10.534-0.87059-2.7641-2.6009-3.8415-5.0603-3.8415"/>
 <path id="path18" fill-rule="evenodd" d="m252.32 51.205h-7.7047c-0.77265-0.0544-1.3929-0.6747-1.3929-1.4365l-0.0109-39.721c0.0653-0.72912 0.70735-1.295 1.4909-1.295h7.1715c0.67469 0.0326 1.2297 0.48971 1.382 1.11v6.0724h0.14147c2.1656-5.4303 5.2018-8.0203 10.545-8.0203 3.4715 0 6.8559 1.2515 9.0324 4.6794 2.02 3.179 2.02 8.522 2.02 12.363v24.997c-0.0871 0.69646-0.72912 1.2515-1.4909 1.2515h-7.7591c-0.70735-0.0544-1.295-0.57676-1.3712-1.2515v-21.569c0-4.3421 0.50059-10.697-4.8426-10.697-1.8826 0-3.6129 1.2624-4.4726 3.1776-1.0882 2.4268-1.2297 4.8426-1.2297 7.5197v21.384c-0.0109 0.79441-0.68558 1.4365-1.5126 1.4365"/>
 <path id="path28" fill-rule="evenodd" d="m149.23 32.237c0 3.0144 0.0762 5.5282-1.4474 8.2053-1.2297 2.1765-3.1885 3.515-5.3541 3.515-2.9709 0-4.712-2.2635-4.712-5.6044 0-6.5947 5.9091-7.7918 11.514-7.7918v1.6759m7.8026 18.859c-0.51147 0.45706-1.2515 0.4897-1.8282 0.185-2.5682-2.1329-3.0362-3.1232-4.44-5.1582-4.2441 4.3312-7.2585 5.6262-12.754 5.6262-6.5185 0-11.579-4.0156-11.579-12.058 0-6.2791 3.3953-10.556 8.2488-12.645 4.2006-1.85 10.066-2.1765 14.55-2.6879v-1.0012c0-1.8391 0.14147-4.0156-0.94676-5.6044-0.93588-1.4256-2.7424-2.0132-4.3421-2.0132-2.9491 0-5.5718 1.5126-6.2138 4.6468-0.13058 0.69648-0.64205 1.3821-1.3494 1.4147l-7.4979-0.8053c-0.63118-0.14146-1.3385-0.65294-1.1535-1.6215 1.7194-9.0976 9.9465-11.84 17.303-11.84 3.7653 0 8.6841 1.0012 11.655 3.8524 3.7653 3.515 3.4062 8.2053 3.4062 13.309v12.058c0 3.6238 1.5018 5.2126 2.9165 7.1715 0.48971 0.69647 0.59853 1.5344-0.0327 2.0568-1.5779 1.3168-4.3856 3.7653-5.9309 5.1365l-0.0109-0.0218"/>
 <path id="path30" fill-rule="evenodd" d="m47.798 32.237c0 3.0144 0.0762 5.5282-1.4474 8.2053-1.2297 2.1765-3.1776 3.515-5.3541 3.515-2.9709 0-4.7012-2.2635-4.7012-5.6044 0-6.5947 5.9091-7.7918 11.503-7.7918v1.6759m7.8026 18.859c-0.51147 0.45706-1.2515 0.4897-1.8282 0.185-2.5682-2.1329-3.0253-3.1232-4.44-5.1582-4.2441 4.3312-7.2476 5.6262-12.754 5.6262-6.5076 0-11.579-4.0156-11.579-12.058 0-6.2791 3.4062-10.556 8.2488-12.645 4.2006-1.85 10.066-2.1765 14.55-2.6879v-1.0012c0-1.8391 0.14147-4.0156-0.93588-5.6044-0.94677-1.4256-2.7532-2.0132-4.3421-2.0132-2.9491 0-5.5826 1.5126-6.2247 4.6468-0.13059 0.69648-0.64206 1.3821-1.3385 1.4147l-7.5088-0.8053c-0.63118-0.14146-1.3276-0.65294-1.1535-1.6215 1.7303-9.0976 9.9464-11.84 17.303-11.84 3.7653 0 8.6841 1.0012 11.655 3.8524 3.7653 3.515 3.4062 8.2053 3.4062 13.309v12.058c0 3.6238 1.5018 5.2126 2.9165 7.1715 0.50059 0.69647 0.60941 1.5344-0.0218 2.0568-1.5779 1.3168-4.3856 3.7653-5.9309 5.1365l-0.0217-0.0218"/>
</svg>
