<svg xmlns="http://www.w3.org/2000/svg" version="1.1" id="Layer_1" x="0" y="0" viewBox="0 0 300 64.805" xml:space="preserve" width="250" height="54.004"><style type="text/css" id="style2">.st0{fill:#77c159}</style><g id="g20" transform="translate(25 -92.646) scale(.48828)"><path class="st0" d="M0 270.1c0-5.8 1-11.2 2.9-16.2s4.7-9.4 8.1-13.1c3.5-3.7 7.7-6.6 12.5-8.8 4.9-2.1 10.2-3.2 16-3.2 4.4 0 8.4.6 12 1.9 3.6 1.3 7.1 3.4 10.4 6.4v-6.7h19.7v79.4H61.9v-6.7c-3.4 2.9-6.8 5.1-10.4 6.4-3.6 1.3-7.6 1.9-12 1.9-5.8 0-11.1-1.1-16-3.2s-9-5-12.5-8.8c-3.5-3.7-6.2-8.1-8.1-13.1-1.9-5-2.9-10.4-2.9-16.2zm42.1 22.7c1.6 0 3.2-.2 4.9-.5 1.7-.3 3.4-.9 5.2-1.7 1.7-.8 3.4-1.9 5.1-3.2 1.7-1.3 3.2-3 4.7-5v-24.7c-1.5-2-3.1-3.6-4.7-4.9-1.7-1.3-3.3-2.4-5.1-3.2-1.7-.8-3.4-1.4-5.2-1.7-1.7-.3-3.3-.5-4.9-.5-3 0-5.9.6-8.6 1.7-2.7 1.1-5 2.7-6.9 4.8-2 2-3.5 4.4-4.6 7.2-1.1 2.8-1.7 5.8-1.7 9s.6 6.3 1.7 9c1.1 2.8 2.6 5.2 4.6 7.2 2 2 4.3 3.6 6.9 4.8 2.6 1.2 5.5 1.7 8.6 1.7z" id="path4"/><path class="st0" d="M130.8 248.5c-9.3.1-17.4 6.6-17.4 16.2v45.1H93.7v-44.6c.1-18.6 16.2-36.1 36.8-36.4h.5c20.6.3 36.7 17.8 36.8 36.4v44.6h-19.7v-45.1c.2-9.7-7.9-16.2-17.3-16.2" id="path6"/><path class="st0" d="M177.3 270.1c0-5.8 1-11.2 2.9-16.2s4.7-9.4 8.1-13.1c3.5-3.7 7.7-6.6 12.5-8.8 4.8-2.2 10.2-3.2 16-3.2 4.4 0 8.4.6 12 1.9 3.6 1.3 7.1 3.4 10.4 6.3v-30.5h19.7v103.2h-19.7V303c-3.3 2.9-6.8 5.1-10.4 6.3-3.6 1.3-7.6 1.9-12 1.9-5.8 0-11.1-1.1-16-3.2s-9-5-12.5-8.8c-3.5-3.7-6.2-8.1-8.1-13.1-2-4.8-2.9-10.2-2.9-16zm42.1 22.7c1.5 0 3.2-.2 4.9-.5 1.7-.3 3.4-.9 5.2-1.7 1.7-.8 3.4-1.9 5.1-3.2 1.7-1.3 3.2-3 4.7-5v-24.7c-1.5-2-3.1-3.6-4.7-4.9-1.7-1.3-3.3-2.4-5.1-3.2-1.7-.8-3.4-1.4-5.2-1.7-1.7-.3-3.3-.5-4.9-.5-3 0-5.9.6-8.6 1.7-2.7 1.1-5 2.7-6.9 4.8-2 2-3.5 4.4-4.6 7.2-1.1 2.8-1.7 5.8-1.7 9s.6 6.3 1.7 9c1.1 2.8 2.6 5.2 4.6 7.2 2 2 4.3 3.6 6.9 4.8 2.7 1.2 5.5 1.7 8.6 1.7z" id="path8"/><path class="st0" d="M351.1 292.8c2.9 0 5.7-.6 8.3-1.7 2.6-1.1 4.9-2.7 6.8-4.7 1.9-2 3.5-4.4 4.6-7.2 1.1-2.8 1.7-5.8 1.7-9.2 0-3.3-.6-6.3-1.7-9.1s-2.7-5.2-4.7-7.2-4.2-3.6-6.8-4.7c-2.6-1.1-5.3-1.7-8.2-1.7-2.9 0-5.7.6-8.3 1.7-2.6 1.1-4.9 2.7-6.8 4.7-1.9 2-3.5 4.4-4.6 7.2-1.1 2.8-1.7 5.8-1.7 9.1 0 3.4.6 6.4 1.7 9.2 1.1 2.8 2.6 5.2 4.6 7.2 1.9 2 4.2 3.6 6.8 4.7 2.5 1.2 5.3 1.7 8.3 1.7zm0 18.5c-5.7 0-11.1-1-16.2-3.1s-9.5-4.9-13.3-8.6c-3.8-3.7-6.8-8.1-9-13.1s-3.3-10.5-3.3-16.4c0-5.7 1.1-11.1 3.3-16.1 2.2-5 5.2-9.4 9-13.1 3.8-3.7 8.2-6.7 13.3-8.8 5.1-2.1 10.5-3.2 16.2-3.2 5.7 0 11.1 1.1 16.2 3.2s9.5 5.1 13.3 8.8c3.8 3.7 6.8 8.1 9 13.1s3.3 10.4 3.3 16.1c0 5.9-1.1 11.4-3.3 16.4-2.2 5-5.2 9.4-9 13.1-3.8 3.7-8.2 6.6-13.3 8.6-5.1 2.1-10.5 3.1-16.2 3.1z" id="path10"/><path class="st0" d="M411.5 224.2c-1.6 0-3.1-.3-4.5-.9-1.4-.6-2.7-1.5-3.7-2.5-1.1-1.1-1.9-2.3-2.5-3.7-.6-1.4-.9-2.9-.9-4.5s.3-3.1.9-4.6c.6-1.4 1.5-2.7 2.5-3.8 1.1-1.1 2.3-1.9 3.7-2.5 1.4-.6 2.9-.9 4.5-.9s3.1.3 4.6.9c1.4.6 2.7 1.5 3.8 2.5 1.1 1.1 1.9 2.3 2.5 3.8.6 1.4.9 3 .9 4.6 0 1.6-.3 3.1-.9 4.5-.6 1.4-1.5 2.7-2.5 3.7-1.1 1.1-2.3 1.9-3.8 2.5-1.5.6-3 .9-4.6.9z" id="path12"/><path class="st0" id="rect14" d="M401.6 230.4h19.7v79.4h-19.7z"/><path class="st0" d="M430.4 270.1c0-5.8 1-11.2 2.9-16.2s4.7-9.4 8.1-13.1c3.5-3.7 7.7-6.6 12.5-8.8 4.9-2.1 10.2-3.2 16-3.2 4.4 0 8.4.6 12 1.9 3.6 1.3 7.1 3.4 10.4 6.3v-30.5H512v103.2h-19.7V303c-3.3 2.9-6.8 5.1-10.4 6.3-3.6 1.3-7.6 1.9-12 1.9-5.8 0-11.1-1.1-16-3.2s-9-5-12.5-8.8c-3.5-3.7-6.2-8.1-8.1-13.1-2-4.8-2.9-10.2-2.9-16zm42.1 22.7c1.6 0 3.2-.2 4.9-.5 1.7-.3 3.4-.9 5.2-1.7 1.7-.8 3.4-1.9 5.1-3.2 1.7-1.3 3.2-3 4.7-5v-24.7c-1.5-2-3.1-3.6-4.7-4.9-1.7-1.3-3.3-2.4-5.1-3.2-1.7-.8-3.4-1.4-5.2-1.7-1.7-.3-3.3-.5-4.9-.5-3 0-5.9.6-8.6 1.7-2.7 1.1-5 2.7-6.9 4.8-2 2-3.5 4.4-4.6 7.2-1.1 2.8-1.7 5.8-1.7 9s.6 6.3 1.7 9c1.1 2.8 2.6 5.2 4.6 7.2 2 2 4.3 3.6 6.9 4.8 2.7 1.2 5.5 1.7 8.6 1.7z" id="path16"/><path class="st0" d="M307.4 248.2c-13.2 0-19 6.8-19 16.5v45.1h-19.7v-44.6c.1-18.6 10.8-36.9 38.7-36.9" id="path18"/></g></svg>