<svg xmlns="http://www.w3.org/2000/svg" viewBox="0 0 300 196.905" width="250" height="164.088"><g transform="matrix(.68512 0 0 .68512 -21.383 -72.794)"><path d="M101.8 357.8c-12 0-21.8-10-21.8-22.3s9.8-22.3 21.8-22.3 21.8 10 21.8 22.3-9.8 22.3-21.8 22.3zm21.8 2.8c0 2 3.5 7.8 7.8 7.8h2.8c1.1 0 2-.9 2-2v-60.9c-.1-1-.9-1.8-1.9-1.8h-8.6c-1 0-1.9.8-1.9 1.8v5c-5.3-6.5-13.6-9.2-21.9-9.2-18.9 0-34.2 15.3-34.2 34.2 0 18.9 15.3 34.2 34.2 34.2 8.2.1 17.2-3.1 21.7-9.1zm33-8.7c5.7 4 12 5.9 18 5.9 5.7 0 11.7-3 11.7-8.1 0-6.9-12.9-8-21-10.7-8.1-2.8-15.1-8.5-15.1-17.7 0-14.1 12.6-20 24.3-20 7.4 0 15.1 2.5 20.1 6 1.7 1.3.7 2.8.7 2.8l-4.8 6.8c-.5.8-1.6 1.4-2.8.6-3.2-2.1-6.8-4.2-13.2-4.2-8 0-11.5 3.3-11.5 7.4 0 4.9 5.6 6.5 12.2 8.1 11.4 3.1 23.9 6.8 23.9 20.8 0 12.4-11.6 20.1-24.5 20.1-9.7 0-18-2.8-25-7.9-1.4-1.5-.4-2.8-.4-2.8l4.7-6.7c1-1.2 2.2-.8 2.7-.4zm107 8.7c0 2 3.5 7.8 7.8 7.8h2.8c1.1 0 2-.9 2-2v-60.9c-.1-1-.9-1.8-1.9-1.8h-8.6c-1 0-1.9.8-1.9 1.8v5c-5.3-6.5-13.6-9.2-21.9-9.2-18.9 0-34.2 15.3-34.2 34.2 0 18.9 15.3 34.2 34.2 34.2 8.1.1 17.2-3.1 21.7-9.1zm-21.9-2.8c-12 0-21.8-10-21.8-22.3s9.8-22.3 21.8-22.3 21.8 10 21.8 22.3-9.8 22.3-21.8 22.3zm111.3 4.9v-31.5c0-17.8-11.2-29.8-29.1-29.8-8.5 0-15.5 4.9-18 9.2v-.1c0-4.3-3.5-6.8-7.8-6.8h-2.8c-1.1 0-2 .9-2 2v60.9c.1 1 .9 1.8 1.9 1.8h9l.2-.1.2-.1.2-.1.1-.1.2-.2.2-.3c.2-.3.3-.7.4-1v-36c0-9.5 7.7-17.3 17.3-17.3 9.5 0 17.3 7.7 17.3 17.3v36c.1 1 .9 1.8 1.9 1.8h9.1l.2-.1.2-.1.1-.1.2-.2h.1l.2-.3c.2-.3.3-.6.4-1zm67-2.1c0 2 3.5 7.8 7.8 7.8h2.8c1.1 0 2-.9 2-2v-60.9c-.1-1-.9-1.8-1.9-1.8H422c-1 0-1.9.8-1.9 1.8v5c-5.3-6.5-13.6-9.2-21.9-9.2-18.9 0-34.2 15.3-34.2 34.2 0 18.9 15.3 34.2 34.2 34.2 8.2.1 17.3-3.1 21.8-9.1zm-21.8-2.8c-12 0-21.8-10-21.8-22.3s9.8-22.3 21.8-22.3 21.8 10 21.8 22.3c-.1 12.3-9.8 22.3-21.8 22.3z" fill="#283343"/><radialGradient id="a" cx=".001" cy="-.253" r="1.426" gradientTransform="matrix(64.1297 0 0 59.2754 250.513 214.933)" gradientUnits="userSpaceOnUse"><stop offset="0" stop-color="#ffb900"/><stop offset=".6" stop-color="#f95d8f"/><stop offset=".999" stop-color="#f95353"/><stop offset="1" stop-color="#f95353"/></radialGradient><path d="M289.5 197.7c-16.6 0-30 13.4-30 30s13.4 30 30 30 30-13.4 30-30c0-16.5-13.4-30-30-30zm-77.9 0c-16.6 0-30 13.4-30 30s13.4 30 30 30 30-13.4 30-30c0-16.5-13.5-30-30-30zm69-37.5c0 16.6-13.4 30-30 30s-30-13.4-30-30 13.4-30 30-30c16.5 0 30 13.4 30 30z" fill="url(#a)"/></g></svg>