<?xml version="1.0" encoding="UTF-8" standalone="no"?>
<!-- Created with Inkscape (http://www.inkscape.org/) -->
<svg id="svg10" xmlns:rdf="http://www.w3.org/1999/02/22-rdf-syntax-ns#" xmlns="http://www.w3.org/2000/svg" height="129.09" viewBox="0 0 300 154.91016" width="250" version="1.1" xmlns:cc="http://creativecommons.org/ns#" xmlns:dc="http://purl.org/dc/elements/1.1/">
 <metadata id="metadata16">
  <rdf:RDF>
   <cc:Work rdf:about="">
    <dc:format>image/svg+xml</dc:format>
    <dc:type rdf:resource="http://purl.org/dc/dcmitype/StillImage"/>
    <dc:title/>
   </cc:Work>
  </rdf:RDF>
 </metadata>
 <g id="g90" stroke-width=".26016" transform="matrix(.97427 0 0 .97427 18.917 7.6138)">
  <path id="path104" fill="#f59a58" d="m115.14 137.3c-1.6089-2.4598-1.6924-5.3679-0.30694-10.699 1.2762-4.9104 1.2316-7.2037-0.18078-9.2995-0.48255-0.71605-0.7607-0.87996-1.4932-0.87996-0.80067 0-0.90974 0.0836-0.98649 0.75653-0.14183 1.2436 0.19435 2.4294 0.93992 3.3155l0.70285 0.83529-0.66399-0.43507c-0.89797-0.58837-1.8031-2.266-1.8031-3.3421 0-0.48421 0.24133-1.7513 0.53629-2.8157 0.64613-2.3316 0.59629-3.7728-0.16663-4.8185-1.4715-2.0169-1.3137-3.0763 0.9839-6.6043 1.933-2.9682 2.3794-7.0542 0.77062-7.0542-0.99301 0-1.4417 1.4462-0.81312 2.6208 0.51868 0.96917 0.32133 3.5013-0.33814 4.3386-0.46039 0.58452-0.69149 0.34184-0.41896-0.43994 0.34634-0.99353 0.20097-1.9666-0.2938-1.9666-0.34738 0-1.6453 2.2091-1.4277 2.43 0.048 0.0487-0.0871 0.57554-0.30024 1.1707-0.45232 1.2632-0.49822 3.9172-0.0866 5.0065 0.15768 0.41724 0.59383 1.0806 0.96922 1.4741s0.54355 0.71545 0.37369 0.71545c-0.45724 0-2.3677-1.9931-2.6907-2.8071-0.41627-1.0491-0.555-3.683-0.25639-4.8677 1.0559-4.1891 1.0846-4.3606 0.78987-4.7157-0.47735-0.57518-0.893-0.42336-1.8594 0.67919-0.82232 0.93813-1.6254 2.7098-2.1835 4.817-0.19698 0.74369-0.2111 0.72529-0.29948-0.39025-0.10169-1.2835 0.21294-2.6246 1.0376-4.4228 1.0473-2.2835 1.8342-6.0169 1.259-5.9732-0.0761 0.0058-1.2506 0.52948-2.6099 1.1638l-2.4716 1.1532-1.1959-2.5296-1.1959-2.5296 0.67561-0.31758c0.37158-0.17467 1.1439-0.50424 1.7162-0.73237l1.0406-0.41479-0.78048-0.55996c-1.7295-1.2408-4.1616-3.8148-5.4903-5.8105-3.6113-5.4243-5.6104-12.402-6.3671-22.224-0.74982-9.7325 0.54874-16.736 4.714-25.424 2.9034-6.056 6.2577-11.285 14.058-21.916 2.3624-3.2195 4.6762-6.4098 5.1418-7.0894 0.46565-0.67967 0.92881-1.2357 1.0292-1.2355 0.10045 0.0001454 0.52694 0.61478 0.94777 1.3659 0.42083 0.75107 2.771 4.5851 5.2226 8.5201 9.3131 14.948 12.379 20.787 14.687 27.967 1.5318 4.7673 1.875 7.1885 1.8541 13.082-0.057 16.089-3.0868 26.15-9 29.886-0.64338 0.40646-1.17 0.82526-1.1702 0.93066-0.00078 0.28978 1.1707 0.72998 8.5614 3.2174 3.7332 1.2564 6.7877 2.3904 6.7877 2.5199 0 0.48884-5.2549 10.331-5.5159 10.331-0.41322 0-4.6068-1.7084-8.393-3.4193-1.8548-0.83811-3.4646-1.5238-3.5772-1.5238-0.11266 0-0.20484 0.38925-0.20484 0.865s-0.29879 1.7343-0.66398 2.7967c-1.0079 2.9322-1.1769 4.1065-0.74557 5.1801l0.36734 0.91428-0.68457-0.77057c-0.65593-0.73835-0.67849-0.86348-0.53933-2.9919 0.0799-1.2217 0.2712-2.5509 0.42518-2.9537 0.15397-0.40281 0.27995-1.2489 0.27995-1.8802 0-0.91976-0.12224-1.2279-0.61529-1.551-0.70022-0.4588-1.5704-0.24747-2.2913 0.55642-0.86131 0.96056-0.82529 1.7076 0.16701 3.4631 1.3734 2.4298 1.6681 4.5061 1.0815 7.6204-0.7591 4.0304-0.74669 4.3896 0.23613 6.8325 0.20901 0.51953 0.20843 0.51953-0.37921 0.003-1.4018-1.2324-1.6136-2.7608-1.086-7.8367 0.40856-3.9305-0.10564-5.3467-2.6106-7.1902-0.51966-0.38245-1.0184-0.98851-1.1084-1.3468-0.35944-1.4322-1.8982 0.50596-1.6121 2.0306 0.12545 0.66871 0.3965 0.93313 1.5011 1.4643 0.74141 0.35654 1.5895 0.97785 1.8846 1.3807 0.79149 1.0803 0.79241 3.3104 0.002 5.7996-1.0159 3.2008-0.76656 5.454 0.90394 8.1689 0.6919 1.1245 0.7339 1.2798 0.28047 1.0371-0.90431-0.48397-2.0666-2.3517-2.6417-4.2449-0.43964-1.4474-0.5183-2.2005-0.39577-3.7894 0.15419-1.9996-0.0802-3.7743-0.5622-4.2563-0.47887-0.47887-1.5222 0.0253-1.9595 0.94682-0.75902 1.5995-0.56037 2.6466 0.99136 5.2256 2.981 4.9544 3.1742 7.4541 1.0758 13.925-1.5242 4.7004-1.786 7.0952-0.97588 8.9267 0.43092 0.97418 0.46512 1.2197 0.1699 1.2197-0.20329 0-0.54192-0.26341-0.75251-0.58536zm1.617-57.668c3.4966-1.8023 5.4932-7.2122 6.3259-17.141 0.38149-4.5486 0.15739-14.93-0.39178-18.149-1.3107-7.6821-3.8256-11.051-8.238-11.036-2.1233 0.0073-3.4139 0.58468-4.8832 2.1847-2.0372 2.2185-3.5034 6.3713-4.2329 11.988-0.48398 3.7269-0.41655 14.263 0.11654 18.211 1.0523 7.7931 3.0922 12.343 6.2302 13.896 1.4338 0.70975 3.7439 0.73028 5.0732 0.04508zm-57.599 12.599c-4.256-0.926-7.964-4.238-9.713-8.676-1.336-3.388-1.598-8.247-0.644-11.942 1.866-7.2309 8.2853-12.382 17.408-13.969 1.2878-0.224 2.8683-0.40924 3.5122-0.41166 2.1195-0.0079 2.3415-0.15544 2.3415-1.5559 0-2.6717-1.2729-4.7718-3.5748-5.898-1.33-0.65071-1.7747-0.73163-3.9696-0.72226-3.1 0.01324-5.7962 0.61998-8.3975 1.8898l-2.0233 0.98764-0.3751-1.3168c-1.3094-4.5965-2.1811-8.0514-2.0748-8.2234 0.19167-0.31013 3.9044-1.8002 6.1902-2.4844 5.0881-1.5229 12.02-1.7985 16.388-0.65153 5.7132 1.5002 9.5416 5.4894 11.094 11.56 0.87611 3.4256 1.0515 6.8111 1.0585 20.429 0.006 11.818 0.14781 15.942 0.66989 19.485l0.16297 1.1057h-6.2581c-3.4419 0-6.3223-0.10387-6.4007-0.23081-0.07846-0.12695-0.27019-1.1513-0.42608-2.2764s-0.32735-2.1874-0.38102-2.3608c-0.05367-0.17335-0.81478 0.43169-1.6913 1.3445-3.3611 3.5002-8.1397 4.952-12.895 3.9174zm10.13-10.865c1.4206-0.78586 2.662-2.4765 3.0101-4.0994 0.15626-0.72864 0.28412-3.4849 0.28412-6.125v-4.8002l-0.97561 0.0045c-1.6387 0.0076-4.4315 0.71285-5.8239 1.4707-1.66 0.90346-3.1859 2.6188-3.7175 4.179-0.52028 1.5269-0.52657 4.5247-0.01311 6.2537 1.0283 3.4628 4.1666 4.8145 7.236 3.1166zm167.2 10.988c-7.9026-1.3698-12.976-9.9511-13.77-23.292-0.4846-8.1405 0.73408-15.993 3.2559-20.979 2.5104-4.9634 6.4856-8.4082 10.722-9.2917 4.3819-0.91378 8.6918 0.50608 10.689 3.5214l0.81032 1.2234v-25.844h14.309v32.739c0 18.006 0.077 34.692 0.17114 37.078l0.17113 4.3391-6.0898-0.06994-6.0898-0.06994-0.39024-2.9919-0.39024-2.9919-0.57744 0.92844c-0.97069 1.5607-3.5883 3.8525-5.3326 4.6688-2.5562 1.1962-4.7783 1.5027-7.4883 1.033zm8.7701-11.954c1.025-0.62497 1.9822-2.0537 2.5401-3.791 0.36357-1.1323 0.41028-2.6704 0.3439-11.324l-0.0768-10.014-0.91057-1.8142c-1.1036-2.1988-2.1248-2.9851-3.8759-2.9845-4.3924 0.0016-6.6118 5.2027-6.6051 15.479 0.005 8.1714 1.52 12.934 4.6273 14.55 1.0876 0.56567 2.9404 0.51791 3.9571-0.10201zm-231.34 11.7c-2.29-0.1-4.9531-0.273-5.919-0.383l-1.7561-0.2v-70.917l1.7561-0.29c3.636-0.59916 5.8017-0.79264 10.732-0.95876 8.5333-0.28753 13.348 0.42916 17.926 2.6685 4.6 2.2499 7.6309 6.0551 8.7153 10.942 0.52359 2.3595 0.52853 6.4594 0.01046 8.6641-0.60339 2.5678-2.0452 5.2366-3.9272 7.2693-1.5692 1.6949-4.1864 3.6153-5.4889 4.0276-0.91589 0.28992-0.70396 0.55737 0.91057 1.1491 5.4305 1.9904 9.7122 6.9161 10.891 12.53 0.51174 2.4363 0.35465 7.9508-0.29274 10.276-0.58072 2.0861-1.962 4.7926-3.399 6.6602-5.1607 6.7067-14.165 9.2631-30.159 8.5619zm12.844-11.356c1.7389-0.48129 3.0097-1.2719 4.2485-2.6431 1.234-1.3659 1.6798-2.2484 2.1558-4.2672 1.3236-5.614-0.92371-11.05-5.414-13.096-1.4895-0.67864-3.9998-1.1561-6.0943-1.1591l-1.3659-0.002v21.564l1.1057 0.1045c1.58 0.14933 3.7454-0.0529 5.3643-0.50097zm-0.09596-32.375c4.4926-2.131 6.5166-8.267 4.5175-13.696-0.74208-2.0154-2.5492-3.7942-4.4183-4.3493-1.394-0.41397-4.2016-0.5343-5.6602-0.24258l-0.81301 0.1626v18.996l2.5366-0.12702c1.9422-0.09726 2.8414-0.27159 3.8374-0.74402zm130.74 43.684c-0.92446-0.13201-2.5635-0.53507-3.6423-0.8957-6.9191-2.3129-11.396-7.6747-13.32-15.954-0.66316-2.8533-0.9476-11.045-0.50025-14.407 1.4683-11.034 6.8503-18.735 14.981-21.437 1.8244-0.60619 2.5149-0.69368 5.5935-0.70879 3.047-0.01496 3.7661 0.06639 5.4291 0.61405 6.3136 2.0792 10.357 7.7044 11.889 16.539 0.48075 2.7722 0.67084 11.842 0.28762 13.724l-0.19875 0.97561h-24.766l0.159 1.4959c0.51533 4.8484 3.0291 8.0142 7.1997 9.0673 2.4747 0.62489 7.5903 0.38592 11.038-0.51564 1.4207-0.37147 2.6064-0.64756 2.635-0.61354 0.0285 0.03402 0.42063 1.9936 0.87138 4.3545 0.45075 2.361 0.88149 4.6029 0.9572 4.982 0.12949 0.64843 0.0404 0.72091-1.5033 1.2232-4.7909 1.5589-12.304 2.242-17.11 1.5556zm7.9743-33.972c-0.25719-4.0999-1.48-7.3205-3.2313-8.5106-0.75879-0.51561-1.2957-0.66017-2.4519-0.66017-1.272 0-1.6389 0.12043-2.6063 0.85547-1.9152 1.4551-3.1739 4.6193-3.722 9.3559l-0.17309 1.4959h12.344zm15.567 33.431c-0.0588-0.17886-0.1718-11.564-0.2512-25.301s-0.17397-25.385-0.21018-25.886l-0.0658-0.91057 6.0271-0.06978 6.0271-0.06978 0.14085 0.72019c0.0775 0.3961 0.21372 1.5397 0.30279 2.5413 0.25739 2.8946 0.27473 2.912 1.4372 1.4413 2.4723-3.1277 6.3939-5.1059 10.698-5.3962 3.9785-0.26837 7.2066 0.72637 9.6104 2.9615 2.4167 2.247 3.7394 4.8554 4.7152 9.2984 0.56501 2.5726 0.57593 2.9809 0.58116 21.744l0.005 19.122h-14.049l-0.13009-18.472-0.13008-18.472-0.78048-1.561c-1.0078-2.0156-2.0443-2.7317-3.9538-2.7317-0.77293 0-1.7215 0.16516-2.1079 0.36702-1.7807 0.93026-3.2521 3.5632-3.6924 6.6068-0.14077 0.9733-0.25418 8.9438-0.25706 18.067l-0.005 16.325h-6.9025c-5.2916 0-6.9274-0.0759-7.0093-0.3252z"/>
  <path id="path102" fill="#a39d9e" d="m114.86 136.54c-1.2897-2.3696-1.2081-5.4096 0.28395-10.583 0.79849-2.7687 0.85792-6.1459 0.13568-7.7107-1.4424-3.1253-3.9912-2.7469-3.1325 0.46504 0.16115 0.60276 0.4279 1.2648 0.59277 1.4711 0.23626 0.29567 0.22513 0.33021-0.0525 0.16303-0.52811-0.31798-1.3266-2.2426-1.333-3.2132-0.004-0.6454 0.13722-0.91137 0.57965-1.0892 0.48045-0.19312 0.49988-0.23825 0.10841-0.25178-0.26448-0.009-0.42631-0.16137-0.36326-0.34169 0.0625-0.17887 0.33571-0.29106 0.60705-0.24932 0.38316 0.0589 0.41224 0.0212 0.13022-0.16886-0.55889-0.37672-0.13105-1.074 0.68015-1.1085l0.72361-0.0308-0.78049-0.1986c-0.42926-0.10923-0.62723-0.21245-0.43993-0.22938 0.18731-0.0169 0.26821-0.14786 0.17977-0.29095-0.0884-0.14309 0.051-0.26758 0.30985-0.27665 0.35993-0.0126 0.32406-0.0751-0.1525-0.26575-1.0098-0.40392-0.47736-0.5202 0.75205-0.16426 1.2115 0.35076 1.6312 0.85613 0.86169 1.0376-0.32873 0.0775-0.2977 0.10316 0.10309 0.0851 0.31535-0.0142 0.60194 0.0912 0.63687 0.23433 0.0349 0.14309 0.30374 0.46115 0.59736 0.70679 0.5292 0.44273 0.52932 0.44693 0.0136 0.48122-0.44933 0.0299-0.43658 0.0581 0.0934 0.20685 0.45741 0.12839 0.7688 0.58471 1.2224 1.7914 1.2314 3.2756 1.0828 5.6905-0.66909 10.873-0.40911 1.2103-0.6784 2.2006-0.5984 2.2006s0.019 0.15238-0.13559 0.33862c-0.15456 0.18624-0.417 1.162-0.58318 2.1682-0.29263 1.7719-0.11737 3.0035 0.70762 4.9728 0.0749 0.17886 0.028 0.3252-0.10426 0.3252-0.13227 0-0.57074-0.60677-0.97437-1.3484zm-1.2404-20.923c-0.0865-0.0864-0.31084-0.0957-0.49864-0.0205-0.20754 0.0831-0.1459 0.1447 0.15718 0.15718 0.27425 0.0113 0.42791-0.0502 0.34146-0.13664zm0.0705-0.88347c-0.21463-0.13871-0.56585-0.24576-0.78049-0.23789-0.25731 0.009-0.213 0.0905 0.13008 0.23789 0.71521 0.30733 1.126 0.30733 0.65041 0zm1.3008-0.26016c-0.21463-0.13871-0.56585-0.24576-0.78048-0.2379-0.25732 0.009-0.21301 0.0905 0.13008 0.2379 0.71521 0.30733 1.126 0.30733 0.6504 0zm4.4155 4.5048c-0.82919-0.9444-1.797-2.7638-1.8082-3.3991-0.003-0.17886 0.15469-0.32521 0.35072-0.32521 0.20063 0 0.50024 0.51362 0.68541 1.175 0.18094 0.64624 0.66187 1.6999 1.0687 2.3415 0.40687 0.64156 0.69593 1.1665 0.64236 1.1665-0.0536 0-0.47615-0.43137-0.93907-0.9586zm2.1036-3.2397c-0.56057-0.91948-0.68552-1.5253-0.31462-1.5253 0.24908 0 1.1366 2.1115 0.96126 2.2869-0.0623 0.0623-0.35328-0.28042-0.64664-0.7616zm-3.9174-1.135c-0.35772-0.2045-0.52644-0.37596-0.37493-0.38103 0.15152-0.005 0.50273 0.16267 0.78049 0.37275 0.64234 0.48584 0.43717 0.49003-0.40556 0.008zm-0.21322-1.2331c0.0956-0.67001 0.99371-0.98358 0.99371-0.34693 0 0.22512-0.12399 0.40932-0.27552 0.40932s-0.20316 0.11707-0.11473 0.26016c0.0884 0.14309-0.0299 0.26016-0.2629 0.26016-0.29012 0-0.39748-0.18371-0.34056-0.58271zm3.6604-0.37008c-0.45298-0.18278-0.40749-0.60819 0.065-0.60819 0.21464 0 0.39025 0.17561 0.39025 0.39025 0 0.21463-0.0293 0.381-0.065 0.3697-0.0358-0.0113-0.21138-0.0796-0.39025-0.15176zm-3.7073-1.3968c0-0.65042 0.12034-1.034 0.3252-1.0365 0.22023-0.003 0.20167-0.0821-0.0575-0.24601-0.61772-0.39067-0.13744-0.57852 0.60926-0.23831 0.78358 0.35703 0.89716 0.73885 0.22874 0.76901-0.27199 0.0123-0.32436 0.0734-0.13008 0.15176 0.53104 0.21428 0.37025 0.60619-0.26017 0.63412-0.55754 0.0247-0.55457 0.0345 0.0624 0.20623 0.63905 0.17787 0.57017 0.3124-0.32258 0.63013-0.38434 0.13678-0.45528 0.001-0.45528-0.87046zm-4.4228 0.22216c-0.35772-0.15034-0.52366-0.32175-0.36875-0.38092 0.15491-0.0592 0.62321 0.0705 1.0406 0.28824 0.85172 0.44416 0.33425 0.51554-0.6719 0.0927zm7.9136-0.78959c0.20704-1.2947 0.21419-1.305 0.76459-1.0938 0.56468 0.21669 0.54718 0.62389-0.0278 0.64698-0.38762 0.0156-0.37795 0.0502 0.065 0.23285 0.49574 0.20441 0.48959 0.22736-0.13008 0.48554-0.35773 0.14905-0.50407 0.27842-0.3252 0.28749 0.48646 0.0247 0.39269 0.53681-0.0983 0.53681-0.35193 0-0.39388-0.18519-0.24825-1.0959zm-8.1738-0.20489c0.51405-0.3322 1.376-0.3322 1.1707 0-0.0884 0.14309-0.47583 0.25837-0.86088 0.25618-0.54758-0.003-0.61508-0.0589-0.30985-0.25618zm-0.52032-0.53568c0-0.15154 0.11707-0.20316 0.26016-0.11473 0.14309 0.0884 0.26016 0.21242 0.26016 0.27552s-0.11707 0.11473-0.26016 0.11473-0.26016-0.12399-0.26016-0.27552zm-2.895-0.41748c-0.32377-0.39248-0.30248-0.40376 0.22831-0.12093 0.60539 0.32258 0.75445 0.55376 0.35706 0.55376-0.12557 0-0.38899-0.19477-0.58537-0.43283zm3.107-0.0966c-0.88153-0.4656-1.5002-1.0316-1.1275-1.0316 0.18021 0 1.9009 0.89404 2.4765 1.2868 0.72189 0.4925-0.29904 0.29938-1.349-0.25519zm5.7067-0.0332c-0.80219-0.29299-0.95599-0.73409-0.26016-0.74618 0.39661-0.007 0.38823-0.0454-0.065-0.29853-0.77275-0.43161-0.79922-0.48145-0.39-0.73436 0.3086-0.19073 0.28411-0.26324-0.13762-0.40745-0.28216-0.0965-0.98902-0.39546-1.5708-0.6644-1.2813-0.59231-2.1516-0.64845-0.96215-0.0621 0.46304 0.22827 0.78567 0.50602 0.71695 0.6172-0.0687 0.11118-0.56012-0.0197-1.092-0.2909-0.53189-0.27117-1.1472-0.49038-1.3674-0.48712-0.22016 0.003-0.0198 0.19349 0.44525 0.42274 0.46504 0.22925 0.84553 0.51927 0.84553 0.64448 0 0.30412-0.00026 0.30403-1.1707-0.29265-0.56132-0.28618-1.2007-0.51766-1.4209-0.51441-0.22015 0.003 0.009 0.20319 0.5103 0.44428 0.50081 0.2411 0.9691 0.50509 1.0406 0.58664 0.0715 0.0816 0.42276 0.28347 0.78048 0.44869 0.35773 0.16521 0.50245 0.30832 0.32161 0.318-0.18084 0.01-1.0004-0.30434-1.8211-0.69784-1.2384-0.59371-1.4782-0.81511-1.4092-1.3012 0.0687-0.48341 0.20504-0.56192 0.78049-0.4493 0.64725 0.12667 0.65529 0.11796 0.11193-0.1213-0.32195-0.14177-0.58536-0.36427-0.58536-0.49445 0-0.49879 0.74267-0.78596 3.4351-1.3283 2.633-0.53032 2.8212-0.53694 3.4553-0.12152 0.76989 0.50445 0.70149 0.81183-0.0868 0.38997-0.28903-0.15469-0.67954-0.2771-0.86781-0.27203-0.4794 0.0129 0.86254 0.75076 1.386 0.76205 0.23509 0.005 0.49839 0.19411 0.58511 0.42008 0.13069 0.34059 0.0131 0.38289-0.68762 0.24734l-0.84527-0.16352 0.84553 0.43556c0.46504 0.23956 0.84553 0.53802 0.84553 0.66323 0 0.32771-0.31578 0.26744-0.89526-0.17085-0.58811-0.44483-0.92588-0.48926-0.92588-0.1218 0 0.14308 0.17561 0.26016 0.39024 0.26016 0.21464 0 0.39025 0.11707 0.39025 0.26016 0 0.37646-0.2832 0.32497-1.4309-0.26016-0.56132-0.28618-1.1975-0.52033-1.4137-0.52033s0.28385 0.35122 1.1112 0.78049c1.5506 0.80452 2.4242 1.0067 2.1028 0.48657-0.11024-0.17838-0.0396-0.24661 0.17977-0.17357 0.19878 0.0662 0.37498 0.37991 0.39156 0.69716 0.0267 0.51003-0.0637 0.55843-0.78049 0.41796-0.60751-0.11907-0.71284-0.0907-0.42039 0.11309 0.21464 0.14958 0.59513 0.27375 0.84553 0.27595 0.67381 0.006 0.55337 0.51925-0.13008 0.55448-0.4405 0.0227-0.47269 0.0596-0.13008 0.14916 0.25041 0.0654 0.45529 0.22747 0.45529 0.36006 0 0.28989-0.16995 0.28047-1.1057-0.0613zm-5.0081-3.9997c-0.42926-0.19656-0.95609-0.35315-1.1707-0.34798-0.21463 0.005-0.039 0.17021 0.39025 0.36677 0.42926 0.19656 0.95609 0.35316 1.1707 0.34799 0.21463-0.005 0.039-0.17022-0.39025-0.36678zm4.2222 0.24246c-0.0865-0.0864-0.31084-0.0957-0.49865-0.0205-0.20754 0.0831-0.14589 0.1447 0.15718 0.15718 0.27426 0.0113 0.42792-0.0502 0.34147-0.13664zm-2.9214-0.50262c-0.42927-0.19656-0.9561-0.35738-1.1707-0.35738-0.21464 0-0.039 0.16082 0.39024 0.35738 0.42927 0.19656 0.9561 0.35738 1.1707 0.35738 0.21464 0 0.039-0.16082-0.39024-0.35738zm1.3008-0.26016c-0.42927-0.19656-0.9561-0.35738-1.1707-0.35738-0.21464 0-0.039 0.16082 0.39024 0.35738 0.42927 0.19656 0.9561 0.35738 1.1707 0.35738 0.21464 0 0.039-0.16082-0.39024-0.35738zm1.4309-0.25077c-0.35772-0.20449-0.88455-0.37067-1.1707-0.36929-0.39599 0.002-0.33381 0.0879 0.26017 0.3599 1.0363 0.47451 1.7368 0.48174 0.91056 0.009zm4.3577 4.6337c-0.25041-0.0654-0.45529-0.22379-0.45529-0.3519 0-0.1281 0.20488-0.15821 0.45529-0.0669 0.40873 0.14906 0.40461 0.10832-0.0403-0.39841-0.48737-0.55505-0.48737-0.5645 0-0.56842 0.30552-0.002 0.38271-0.0773 0.20126-0.19512-0.32473-0.21087-0.40758-1.622-0.0952-1.622 0.10769 0 0.32704 0.15814 0.48746 0.35143 0.33967 0.40929 0.31808 2.5104-0.0258 2.5104-0.12808 0-0.16052 0.11708-0.0721 0.26017 0.0884 0.14309 0.12461 0.24658 0.0804 0.22998-0.0442-0.0166-0.28527-0.0837-0.53568-0.14916zm-12.358-0.43462c-0.66525-0.32948-0.77154-0.68685-0.20427-0.68685 0.2096 0 0.5064 0.23414 0.65956 0.52032s0.24508 0.50595 0.20427 0.48838c-0.0408-0.0176-0.3376-0.1624-0.65956-0.32185zm3.122-0.3355c-0.75122-0.35526-1.3659-0.76873-1.3659-0.91881 0-0.15894 0.2444-0.11463 0.58537 0.10614 0.32195 0.20845 0.87805 0.45098 1.2358 0.53894 0.35772 0.088 0.88455 0.33691 1.1707 0.55321 0.81498 0.61597-0.0451 0.46813-1.626-0.27948zm-3.6423-0.78382c-0.17886-0.0722-0.3252-0.28455-0.3252-0.47195 0-0.38359 0.7699-0.76137 1.0128-0.49698 0.0868 0.0945 0.005 0.22615-0.1811 0.29256-0.25077 0.0893-0.21691 0.21332 0.13008 0.47643 0.36724 0.27848 0.38435 0.35303 0.0788 0.34343-0.21464-0.007-0.53659-0.0713-0.71545-0.14349zm14.884-1.1458c-0.0943-0.15261-0.11569-0.33327-0.0475-0.40146 0.0682-0.0682 0.19331 0.0567 0.27805 0.27747 0.17591 0.45843 0.026 0.53907-0.23056 0.12399zm-15.339-0.24285c-0.0884-0.14309-0.008-0.26196 0.17976-0.26415 0.25028-0.003 0.23711-0.0771-0.0497-0.27997-0.27886-0.19721-0.3016-0.31225-0.0797-0.40307 0.17083-0.0699 0.25003-0.28489 0.17602-0.47776-0.0756-0.19711 0.0732-0.4044 0.33982-0.47334 0.43088-0.11141 0.43263-0.12542 0.0191-0.15283-0.6681-0.0443-0.55587-0.54532 0.13008-0.58069 0.4405-0.0227 0.4727-0.0596 0.13009-0.14916-0.97852-0.25571-0.36414-1.3915 0.64803-1.198 0.87309 0.1669 0.68623 0.58928-0.27315 0.61742-0.38505 0.0113-0.52448 0.0791-0.30984 0.1507 0.21463 0.0716 0.56585 0.18777 0.78048 0.2582 0.322 0.10566 0.30193 0.19305-0.11476 0.49971-0.3621 0.26649-0.39891 0.37401-0.13008 0.37994 0.27034 0.006 0.23405 0.11483-0.13008 0.39024-0.36414 0.27542-0.40042 0.38428-0.13009 0.39025 0.27034 0.006 0.23405 0.11483-0.13008 0.39024-0.4999 0.37811-0.4999 0.38206 0 0.39025 0.49991 0.008 0.49991 0.0121 0 0.39024-0.59367 0.44904-0.83642 0.47704-1.056 0.12181zm13.138-0.94243c0-0.36131 0.0656-0.37191 0.45528-0.0736 0.25041 0.19166 0.50407 0.38161 0.56369 0.42209 0.0596 0.0405-0.14526 0.0736-0.45529 0.0736-0.34652 0-0.56368-0.16262-0.56368-0.4221zm1.9512 0.16194c-0.0884-0.14309-0.0368-0.26016 0.11472-0.26016 0.15154 0 0.27552 0.11707 0.27552 0.26016s-0.0516 0.26016-0.11473 0.26016c-0.0631 0-0.18708-0.11707-0.27551-0.26016zm-1.626-0.70393c-0.32195-0.062-0.58537-0.22168-0.58537-0.35481 0-0.35023 0.34726-0.29775 0.92589 0.1399 0.27775 0.21008 0.44647 0.36975 0.37493 0.35481-0.0716-0.0149-0.3935-0.0779-0.71545-0.1399zm1.4999-0.1416c0.007-0.53025 0.47132-1.1085 0.69732-0.86741 0.11509 0.12276 0.0695 0.27327-0.10132 0.33447-0.17083 0.0612-0.24611 0.27932-0.16729 0.48471 0.0788 0.20539 0.0137 0.37343-0.1447 0.37343s-0.2862-0.14634-0.28401-0.3252zm-18.299-0.65041c-0.18908-0.32234 0.12465-1.8862 0.3784-1.8862 0.12958 0 0.15531 0.31985 0.0572 0.71079-0.0981 0.39094-0.17839 0.85923-0.17839 1.0406 0 0.37376-0.0895 0.42064-0.2572 0.13473zm7.3683-0.0497c0-0.40251 0.56469-0.64926 2.2114-0.9663 1.3225-0.25462 1.6206-0.24069 1.9512 0.0912 0.34733 0.34865 0.29013 0.3728-0.52033 0.21971-0.71048-0.1342-0.82482-0.10708-0.52032 0.12342 0.30327 0.22958 0.15832 0.25993-0.65041 0.13621-0.7979-0.12206-0.94962-0.0917-0.65041 0.13008 0.29921 0.22181 0.14749 0.25215-0.6504 0.13009-0.75055-0.11482-0.93187-0.0851-0.65041 0.10663 0.33544 0.22849 0.3263 0.26639-0.065 0.26981-0.25041 0.002-0.45528-0.10618-0.45528-0.24082zm9.0406-0.19469c-0.25041-0.0654-0.45529-0.23159-0.45529-0.36922 0-0.14412 0.24824-0.12108 0.58537 0.0543 0.97568 0.50763 0.9398 0.59449-0.13008 0.3149zm2.1463-0.94804c0-0.73936 0.19417-0.96292 0.67584-0.77809 0.51293 0.19683 0.4545 0.60061-0.0905 0.62519-0.27198 0.0123-0.32435 0.0734-0.13008 0.15176 0.45299 0.18279 0.4075 0.60819-0.065 0.60819-0.23538 0-0.39024-0.24089-0.39024-0.60705zm-2.1463 0.16755c-0.54097-0.14137-0.61201-0.60115-0.0929-0.60115 0.19933 0 0.4298 0.17561 0.51216 0.39024 0.0824 0.21464 0.12416 0.37667 0.0929 0.36007-0.0313-0.0166-0.26176-0.0837-0.51216-0.14916zm-8.1371-0.32963c0.0846-0.13684 0.32563-0.18285 0.53568-0.10224 0.53779 0.20636 0.47441 0.35104-0.15377 0.35104-0.29462 0-0.46648-0.11196-0.38191-0.2488zm22.641-0.37858c-1.6275-0.62761-9.5676-4.0626-10.93-4.7284-1.1722-0.5729-3.7038-0.63301-3.3619-0.07982 0.11979 0.19382-0.0666 0.24954-0.57001 0.1704-0.4114-0.06467-0.60165-0.06861-0.42279-0.0087 0.17886 0.05986 0.3252 0.22522 0.3252 0.36746s-0.23415 0.1843-0.52032 0.09347c-0.29849-0.09474-0.52033-0.04675-0.52033 0.11255 0 0.15273 0.11707 0.2777 0.26016 0.2777s0.26017 0.1296 0.26017 0.288c0 0.16124-0.20039 0.21821-0.45529 0.12944-0.38319-0.13345-0.3759-0.09709 0.0461 0.22964 0.27573 0.21351 0.44285 0.44668 0.37136 0.51817-0.14941 0.14941-2.3667-0.66252-2.5664-0.93976-0.073-0.10133-0.42419-0.23499-0.78048-0.29702-0.35629-0.06202-0.50146-0.06272-0.3226-0.0016 0.53272 0.1822 0.37092 0.58889-0.34214 0.86-0.66511 0.25288-2.0986 0.33136-1.4774 0.08088 0.17976-0.07247 0.25291-0.25136 0.16258-0.39752-0.1057-0.17102 0.14876-0.21284 0.71382-0.11732l0.87808 0.14845-0.84553-0.28835c-0.46504-0.15859-0.84553-0.3779-0.84553-0.48736s0.84878-0.34312 1.8862-0.51924c1.3978-0.23731 1.7515-0.37339 1.3658-0.52555-0.76659-0.3025-1.2261-0.28181-1.0234 0.04609 0.12439 0.20126-0.0766 0.23206-0.6676 0.10226-0.59096-0.1298-0.79199-0.099-0.6676 0.10226 0.2578 0.41713-0.51381 0.3551-0.86632-0.06965-0.2436-0.29352 0.0328-0.42178 1.5417-0.71545l1.8385-0.35781-1.1833-0.42304c-1.2169-0.43506-1.6416-0.26774-0.59795 0.2356 0.89415 0.43123 0.0449 0.37043-1.0157-0.07272-1.3129-0.54858-1.6994-0.4662-0.61028 0.13008 0.50081 0.27418 0.72148 0.50342 0.49037 0.50942s-0.73211-0.23445-1.1134-0.53432c-0.65357-0.5141-0.73026-0.52091-1.3432-0.11927-0.35756 0.23428-0.79314 0.34009-0.96796 0.23513-0.23787-0.14282-0.23552-0.08912 0.009 0.21338 0.28489 0.35193 0.13347 0.44511-1.1707 0.72044-1.0934 0.23083-1.6957 0.24054-2.2303 0.03598-1.022-0.39108-1.2072-0.33407-0.43835 0.13495l0.65041 0.39678-0.80217-0.13066c-0.55008-0.0896-0.80217-0.02487-0.80217 0.20592 0 0.32695 1.1033 0.19722 4.4336-0.52134 0.47914-0.10338 0.68895-0.06587 0.58374 0.10437-0.0903 0.14617-0.0172 0.33322 0.16257 0.41566 0.17976 0.08245 0.0671 0.08572-0.25039 0.0073-0.67943-0.16788-4.9939 0.62552-5.4839 1.0085-0.27659 0.21615-0.27659 0.30243 0 0.47788 0.24683 0.15658 0.20771 0.21517-0.14561 0.21809-0.35397 0.0029-0.43631-0.11772-0.30801-0.4513 0.54253-1.4106 1.2804-3.8705 1.2219-4.0737-0.0374-0.12998 0.0845-0.33306 0.27093-0.4513 0.25995-0.16489 0.26315-0.21591 0.0137-0.21896-0.50788-0.0062-0.38149-0.52333 0.13008-0.53222 0.39968-0.0069 0.40545-0.03707 0.0473-0.24664-0.29054-0.16999-1.0396 0.06523-2.6016 0.81698-3.5765 1.7212-3.1082 1.8366-4.4672-1.1006l-1.1906-2.5733 1.545-0.56333c0.84973-0.30983 1.5979-0.6489 1.6625-0.7535 0.0646-0.10459-0.33894-0.5065-0.89685-0.89314-0.55791-0.38663-1.7137-1.4313-2.5685-2.3214-5.1228-5.3348-8.0012-13.538-8.9158-25.408-0.74982-9.7325 0.54874-16.736 4.714-25.424 2.9034-6.056 6.2577-11.285 14.058-21.916 2.3624-3.2195 4.6762-6.4098 5.1418-7.0894 0.46564-0.67967 0.9288-1.2357 1.0292-1.2355 0.10044 0.0001454 0.52693 0.61478 0.94777 1.3659 0.42083 0.75107 2.771 4.5851 5.2226 8.5201 9.3131 14.948 12.379 20.787 14.687 27.967 1.5318 4.7673 1.875 7.1885 1.8541 13.082-0.057 16.089-3.0868 26.15-9 29.886-0.64338 0.40646-1.17 0.82526-1.1702 0.93066-0.00078 0.28978 1.1707 0.72998 8.5614 3.2174 3.7332 1.2564 6.7877 2.3904 6.7877 2.5199 0 0.53439-5.2671 10.33-5.5482 10.319-0.16801-0.007-1.0079-0.2836-1.8664-0.61467zm-17.156-3.9467c-0.27753-0.20293-0.68711-0.36155-0.91016-0.35248-0.2646 0.01075-0.21136 0.09485 0.15318 0.24193 0.30731 0.12399 0.64098 0.35851 0.7415 0.52114 0.10051 0.16264 0.25865 0.21981 0.35141 0.12704 0.0928-0.09276-0.0584-0.3347-0.33593-0.53763zm3.3672-1.6469 0.78049-0.17574-0.75581-0.19882c-0.49707-0.13076-0.8211-0.09318-0.94652 0.10976-0.10489 0.16972-0.31279 0.23314-0.46199 0.14092-0.1492-0.09221-0.34481-0.04867-0.43468 0.09675-0.18047 0.292 0.59097 0.3035 1.8185 0.02711zm-4.1473-1.2019c-0.27776-0.21008-0.68751-0.37246-0.91057-0.36084-0.22306 0.01163-0.0543 0.18195 0.37493 0.37851 1.0086 0.46182 1.1628 0.45673 0.53564-0.01766zm-8.5411-2.1001c-0.0864-0.08645-0.31085-0.09569-0.49865-0.02053-0.20754 0.08305-0.14589 0.1447 0.15718 0.15718 0.27426 0.01129 0.42792-0.05019 0.34147-0.13664zm1.3008-1.3008c-0.0864-0.08645-0.31084-0.09569-0.49865-0.02053-0.20754 0.08305-0.14589 0.1447 0.15719 0.15718 0.27425 0.01129 0.42791-0.05019 0.34146-0.13664zm6.2597-12.828c3.4966-1.8023 5.4932-7.2122 6.3259-17.141 0.38149-4.5486 0.15739-14.93-0.39178-18.149-1.3107-7.6821-3.8256-11.051-8.238-11.036-2.1233 0.0073-3.4139 0.58468-4.8832 2.1847-2.0372 2.2185-3.5034 6.3713-4.2329 11.988-0.48398 3.7269-0.41655 14.263 0.11654 18.211 1.0523 7.7931 3.0922 12.343 6.2302 13.896 1.4338 0.70975 3.7439 0.73028 5.0732 0.04508zm-4.6077 22.98c0.0125-0.30308 0.0741-0.36472 0.15718-0.15718 0.0751 0.1878 0.0659 0.41219-0.0205 0.49864-0.0865 0.0864-0.14794-0.0672-0.13664-0.34146zm1.7212 0.22981c-0.68506-0.17758-0.37336-0.74101 0.36378-0.65757l0.62622 0.0709-0.6504-0.38687c-0.52409-0.31173-0.55866-0.38866-0.17802-0.39608 0.60017-0.0117 1.4788 0.45198 1.4788 0.78042 0 0.13805-0.20488 0.2528-0.45529 0.25499-0.38908 0.003-0.39854 0.0406-0.065 0.25618 0.32115 0.20754 0.29811 0.24756-0.13008 0.226-0.28618-0.0144-0.73168-0.081-0.99-0.14795zm5.9331-0.33821c-0.0884-0.14309-0.0437-0.26017 0.0994-0.26017 0.14309 0 0.33251 0.11708 0.42095 0.26017 0.0884 0.14309 0.0437 0.26016-0.0994 0.26016-0.14309 0-0.33251-0.11707-0.42095-0.26016zm0.26264-0.46203c-0.42791-0.22376-0.65053-0.44933-0.4947-0.50127 0.41411-0.13804 1.663 0.38517 1.663 0.69669 0 0.34097-0.20951 0.30592-1.1683-0.19542zm-14.832-0.0583c-0.0884-0.14309-0.0368-0.26016 0.11472-0.26016 0.15154 0 0.27552 0.11707 0.27552 0.26016s-0.0516 0.26016-0.11473 0.26016c-0.0631 0-0.18708-0.11707-0.27551-0.26016zm3.8512-0.0845c0.34892-0.2851 0.38224-0.41421 0.13008-0.50402-0.18644-0.0664-0.26631-0.19969-0.17749-0.29618 0.1987-0.21584 1.5296 0.36389 1.5296 0.66629 0 0.12012-0.14634 0.22-0.3252 0.22195-0.17887 0.002-0.61789 0.0692-0.97561 0.14939-0.60604 0.13589-0.61841 0.11969-0.18134-0.23743zm14.59 0.0348c-0.10532-0.17041-0.053-0.35602 0.11635-0.41246 0.16931-0.0564 0.24842-0.19877 0.17578-0.31629-0.0726-0.11753 0.10472-0.15177 0.39411-0.0761 0.37926 0.0992 0.45263 0.22621 0.26278 0.45496-0.14486 0.17455-0.18636 0.3944-0.0922 0.48855 0.0941 0.0941-0.017 0.17118-0.24707 0.17118-0.23004 0-0.50442-0.13943-0.60975-0.30985zm-11.416-0.21047c0.0884-0.14309 0.27786-0.26016 0.42095-0.26016s0.18781 0.11707 0.0994 0.26016c-0.0884 0.14309-0.27786 0.26016-0.42095 0.26016s-0.18781-0.11707-0.0994-0.26016zm-6.7921-0.67169c0.0869-0.22633 0.15792-0.51902 0.15792-0.6504 0-0.13139 0.26342-0.23499 0.58537-0.23023l0.58536 0.009-0.5743 0.47937c-0.31587 0.26366-0.50123 0.55245-0.41192 0.64176 0.0893 0.0893 0.0133 0.16237-0.16898 0.16237-0.19527 0-0.26651-0.16901-0.17345-0.41152zm9.1986 0.23219c-0.25041-0.0654-0.45528-0.286-0.45528-0.49015 0-0.20414 0.03-0.37116 0.0667-0.37116s0.44648-0.10891 0.91057-0.24201c0.9747-0.27954 1.1846 0.12178 0.25845 0.49406-0.32195 0.12941-0.43903 0.24271-0.26016 0.25178 0.17886 0.009 0.3252 0.13356 0.3252 0.27665 0 0.27054-0.0876 0.27891-0.84553 0.0808zm3.7073-0.0808c0-0.14309-0.16309-0.26016-0.36241-0.26016-0.19933 0-0.43193-0.18117-0.5169-0.4026-0.13943-0.36335-0.0985-0.36335 0.42029 0 0.31614 0.22143 0.87069 0.39093 1.2324 0.37667 0.5735-0.0226 0.59104-0.0477 0.13724-0.19601-0.6545-0.21392-2.2114-1.057-2.2114-1.1975 0-0.2169 1.4678 0.33348 2.4585 0.92187 1.0028 0.59559 1.0122 0.61461 0.39025 0.78816-0.96722 0.26987-1.548 0.25845-1.548-0.0305zm-8.5203-0.26827c-0.32195-0.12941-0.58536-0.36589-0.58536-0.52551 0-0.15963 0.14634-0.22201 0.3252-0.13863 0.17886 0.0834 0.53008 0.22386 0.78049 0.31218 0.2504 0.0883 0.45528 0.26401 0.45528 0.39041 0 0.2784-0.2077 0.27022-0.97561-0.0384zm2.4065 0.008c-0.0884-0.14309-0.0437-0.26016 0.0994-0.26016 0.14309 0 0.33252 0.11707 0.42095 0.26016 0.0884 0.14309 0.0437 0.26016-0.0994 0.26016-0.14309 0-0.33252-0.11707-0.42095-0.26016zm12.057-0.18928c-0.3261-0.0753-0.39866-0.30078-0.29956-0.93068 0.0719-0.45719 0.26559-0.91727 0.43034-1.0224 0.19278-0.123 0.13726-0.19256-0.15572-0.19512-0.25041-0.0021-0.45529-0.11089-0.45529-0.24155s0.35889-0.1021 0.79754 0.06347c0.73557 0.27765 0.78453 0.3719 0.63016 1.2132-0.19431 1.0589-0.35663 1.2496-0.94747 1.1131zm0.48996-0.74839c-0.0864-0.08645-0.31084-0.09569-0.49864-0.02053-0.20754 0.08305-0.1459 0.1447 0.15718 0.15718 0.27425 0.0113 0.42791-0.0502 0.34146-0.13664zm-13.971 0.42751c-0.21049-0.13312-0.29551-0.32924-0.18893-0.43582s0.39169 0.0041 0.63358 0.24602c0.47021 0.47021 0.18873 0.59036-0.44465 0.1898zm1.0331-0.40043c-0.35772-0.20704-1.1187-0.56821-1.691-0.80261-0.57236-0.2344-0.90866-0.47662-0.74733-0.53827 0.34061-0.13017 3.112 1.0877 3.3495 1.4718 0.22529 0.36453-0.14757 0.31094-0.91109-0.13094zm-2.4715-0.39022c-0.0884-0.14309 0.0148-0.26016 0.22945-0.26016 0.21464 0 0.4626 0.11707 0.55104 0.26016 0.0884 0.14309-0.0148 0.26016-0.22946 0.26016-0.21463 0-0.4626-0.11707-0.55103-0.26016zm-2.6016-0.26016c-0.0884-0.14309 0.0286-0.26016 0.26016-0.26016 0.23153 0 0.3486 0.11707 0.26017 0.26016-0.0884 0.14309-0.20551 0.26016-0.26017 0.26016-0.0546 0-0.17172-0.11707-0.26016-0.26016zm4.4252-0.46203c-0.42791-0.22376-0.64073-0.45259-0.47292-0.50853 0.30309-0.10103 1.9013 0.61108 1.9013 0.84715 0 0.22529-0.64026 0.07351-1.4284-0.33862zm-52.059-6.697c-4.256-0.926-7.964-4.238-9.713-8.676-1.336-3.388-1.598-8.247-0.644-11.942 1.866-7.2309 8.2853-12.382 17.408-13.969 1.2878-0.224 2.8683-0.40924 3.5122-0.41166 2.1195-0.0079 2.3415-0.15544 2.3415-1.5559 0-2.6717-1.2729-4.7718-3.5748-5.898-1.33-0.65071-1.7747-0.73163-3.9696-0.72226-3.1 0.01324-5.7962 0.61998-8.3975 1.8898l-2.0233 0.98764-0.3751-1.3168c-1.3094-4.5965-2.1811-8.0514-2.0748-8.2234 0.19167-0.31013 3.9044-1.8002 6.1902-2.4844 5.0881-1.5229 12.02-1.7985 16.388-0.65153 5.7132 1.5002 9.5416 5.4894 11.094 11.56 0.87611 3.4256 1.0515 6.8111 1.0585 20.429 0.006 11.818 0.14781 15.942 0.66989 19.485l0.16297 1.1057h-6.2581c-3.4419 0-6.3223-0.10387-6.4007-0.23081-0.07846-0.12695-0.27019-1.1513-0.42608-2.2764s-0.32735-2.1874-0.38102-2.3608c-0.05367-0.17335-0.81478 0.43169-1.6913 1.3445-3.3611 3.5002-8.1397 4.952-12.895 3.9174zm10.13-10.865c1.4206-0.78586 2.662-2.4765 3.0101-4.0994 0.15626-0.72864 0.28412-3.4849 0.28412-6.125v-4.8002l-0.97561 0.0045c-1.6387 0.0076-4.4315 0.71285-5.8239 1.4707-1.66 0.90346-3.1859 2.6188-3.7175 4.179-0.52028 1.5269-0.52657 4.5247-0.01311 6.2537 1.0283 3.4628 4.1666 4.8145 7.236 3.1166zm167.2 10.988c-7.9026-1.3698-12.976-9.9511-13.77-23.292-0.4846-8.1405 0.73408-15.993 3.2559-20.979 2.5104-4.9634 6.4856-8.4082 10.722-9.2917 4.3819-0.91378 8.6918 0.50608 10.689 3.5214l0.81032 1.2234v-25.844h14.309v32.739c0 18.006 0.077 34.692 0.17114 37.078l0.17113 4.3391-6.0898-0.06994-6.0898-0.06994-0.39024-2.9919-0.39024-2.9919-0.57744 0.92844c-0.97069 1.5607-3.5883 3.8525-5.3326 4.6688-2.5562 1.1962-4.7783 1.5027-7.4883 1.033zm8.7701-11.954c1.025-0.62497 1.9822-2.0537 2.5401-3.791 0.36357-1.1323 0.41028-2.6704 0.3439-11.324l-0.0768-10.014-0.91057-1.8142c-1.1036-2.1988-2.1248-2.9851-3.8759-2.9845-4.3924 0.0016-6.6118 5.2027-6.6051 15.479 0.005 8.1714 1.52 12.934 4.6273 14.55 1.0876 0.56567 2.9404 0.51791 3.9571-0.10201zm-231.34 11.7c-2.29-0.1-4.9531-0.273-5.919-0.383l-1.7561-0.2v-70.917l1.7561-0.29c3.636-0.59916 5.8017-0.79264 10.732-0.95876 8.5333-0.28753 13.348 0.42916 17.926 2.6685 4.6 2.2499 7.6309 6.0551 8.7153 10.942 0.52359 2.3595 0.52853 6.4594 0.01046 8.6641-0.60339 2.5678-2.0452 5.2366-3.9272 7.2693-1.5692 1.6949-4.1864 3.6153-5.4889 4.0276-0.91589 0.28992-0.70396 0.55737 0.91057 1.1491 5.4305 1.9904 9.7122 6.9161 10.891 12.53 0.51174 2.4363 0.35465 7.9508-0.29274 10.276-0.58072 2.0861-1.962 4.7926-3.399 6.6602-5.1607 6.7067-14.165 9.2631-30.159 8.5619zm12.844-11.356c1.7389-0.48129 3.0097-1.2719 4.2485-2.6431 1.234-1.3659 1.6798-2.2484 2.1558-4.2672 1.3236-5.614-0.92371-11.05-5.414-13.096-1.4895-0.67864-3.9998-1.1561-6.0943-1.1591l-1.3659-0.002v21.564l1.1057 0.1045c1.58 0.14933 3.7454-0.0529 5.3643-0.50097zm-0.09596-32.375c4.4926-2.131 6.5166-8.267 4.5175-13.696-0.74208-2.0154-2.5492-3.7942-4.4183-4.3493-1.394-0.41397-4.2016-0.5343-5.6602-0.24258l-0.81301 0.1626v18.996l2.5366-0.12702c1.9422-0.09726 2.8414-0.27159 3.8374-0.74402zm130.74 43.684c-0.92446-0.13201-2.5635-0.53507-3.6423-0.8957-6.9191-2.3129-11.396-7.6747-13.32-15.954-0.66316-2.8533-0.9476-11.045-0.50025-14.407 1.4683-11.034 6.8503-18.735 14.981-21.437 1.8244-0.60619 2.5149-0.69368 5.5935-0.70879 3.047-0.01496 3.7661 0.06639 5.4291 0.61405 6.3136 2.0792 10.357 7.7044 11.889 16.539 0.48075 2.7722 0.67084 11.842 0.28762 13.724l-0.19875 0.97561h-24.766l0.159 1.4959c0.51533 4.8484 3.0291 8.0142 7.1997 9.0673 2.4747 0.62489 7.5903 0.38592 11.038-0.51564 1.4207-0.37147 2.6064-0.64756 2.635-0.61354 0.0285 0.03402 0.42063 1.9936 0.87138 4.3545 0.45075 2.361 0.88149 4.6029 0.9572 4.982 0.12949 0.64843 0.0404 0.72091-1.5033 1.2232-4.7909 1.5589-12.304 2.242-17.11 1.5556zm7.9743-33.972c-0.25719-4.0999-1.48-7.3205-3.2313-8.5106-0.75879-0.51561-1.2957-0.66017-2.4519-0.66017-1.272 0-1.6389 0.12043-2.6063 0.85547-1.9152 1.4551-3.1739 4.6193-3.722 9.3559l-0.17309 1.4959h12.344zm15.567 33.431c-0.0588-0.17886-0.1718-11.564-0.2512-25.301s-0.17397-25.385-0.21018-25.886l-0.0658-0.91057 6.0271-0.06978 6.0271-0.06978 0.14085 0.72019c0.0775 0.3961 0.21372 1.5397 0.30279 2.5413 0.25739 2.8946 0.27473 2.912 1.4372 1.4413 2.4723-3.1277 6.3939-5.1059 10.698-5.3962 3.9785-0.26837 7.2066 0.72637 9.6104 2.9615 2.4167 2.247 3.7394 4.8554 4.7152 9.2984 0.56501 2.5726 0.57593 2.9809 0.58116 21.744l0.005 19.122h-14.049l-0.13009-18.472-0.13008-18.472-0.78048-1.561c-1.0078-2.0156-2.0443-2.7317-3.9538-2.7317-0.77293 0-1.7215 0.16516-2.1079 0.36702-1.7807 0.93026-3.2521 3.5632-3.6924 6.6068-0.14077 0.9733-0.25418 8.9438-0.25706 18.067l-0.005 16.325h-6.9025c-5.2916 0-6.9274-0.0759-7.0093-0.3252z"/>
  <path id="path100" fill="#f49622" d="m114.86 136.54c-1.2897-2.3696-1.2081-5.4096 0.28395-10.583 0.79849-2.7687 0.85792-6.1459 0.13568-7.7107-1.4424-3.1253-3.9912-2.7469-3.1325 0.46504 0.16115 0.60276 0.4279 1.2648 0.59277 1.4711 0.23626 0.29567 0.22513 0.33021-0.0525 0.16303-0.52811-0.31798-1.3266-2.2426-1.333-3.2132-0.004-0.6454 0.13722-0.91137 0.57965-1.0892 0.48045-0.19312 0.49988-0.23825 0.10841-0.25178-0.26448-0.009-0.42631-0.16137-0.36326-0.34169 0.0625-0.17887 0.33571-0.29106 0.60705-0.24932 0.38316 0.0589 0.41224 0.0212 0.13022-0.16886-0.55889-0.37672-0.13105-1.074 0.68015-1.1085l0.72361-0.0308-0.78049-0.1986c-0.42926-0.10923-0.62723-0.21245-0.43993-0.22938 0.18731-0.0169 0.26821-0.14786 0.17977-0.29095-0.0884-0.14309 0.051-0.26758 0.30985-0.27665 0.35993-0.0126 0.32406-0.0751-0.1525-0.26575-1.0098-0.40392-0.47736-0.5202 0.75205-0.16426 1.2115 0.35076 1.6312 0.85613 0.86169 1.0376-0.32873 0.0775-0.2977 0.10316 0.10309 0.0851 0.31535-0.0142 0.5495 0.0597 0.52033 0.16428-0.0292 0.10456 0.23044 0.38867 0.57692 0.63136 0.59625 0.41763 0.60321 0.45172 0.13008 0.63713-0.46732 0.18312-0.46355 0.19707 0.0578 0.21417 0.43614 0.0143 0.70166 0.37791 1.2182 1.6682 1.3447 3.3589 1.2255 5.1931-0.73784 11.358-1.6144 5.0694-1.6879 6.3629-0.52116 9.1707 0.42941 1.0334-0.35839 0.35556-1.038-0.8931zm-1.2404-20.923c-0.0865-0.0864-0.31084-0.0957-0.49864-0.0205-0.20754 0.0831-0.1459 0.1447 0.15718 0.15718 0.27425 0.0113 0.42791-0.0502 0.34146-0.13664zm0.0705-0.88347c-0.21463-0.13871-0.56585-0.24576-0.78049-0.23789-0.25731 0.009-0.213 0.0905 0.13008 0.23789 0.71521 0.30733 1.126 0.30733 0.65041 0zm1.3008-0.26016c-0.21463-0.13871-0.56585-0.24576-0.78048-0.2379-0.25732 0.009-0.21301 0.0905 0.13008 0.2379 0.71521 0.30733 1.126 0.30733 0.6504 0zm4.4155 4.5048c-0.82919-0.9444-1.797-2.7638-1.8082-3.3991-0.003-0.17886 0.15469-0.32521 0.35072-0.32521 0.20063 0 0.50024 0.51362 0.68541 1.175 0.18094 0.64624 0.66187 1.6999 1.0687 2.3415 0.40687 0.64156 0.69593 1.1665 0.64236 1.1665-0.0536 0-0.47615-0.43137-0.93907-0.9586zm2.1036-3.2397c-0.56057-0.91948-0.68552-1.5253-0.31462-1.5253 0.24908 0 1.1366 2.1115 0.96126 2.2869-0.0623 0.0623-0.35328-0.28042-0.64664-0.7616zm-3.8027-1.1494c-0.48495-0.38852-0.48176-0.39332 0.0804-0.12092 0.32195 0.15601 0.58537 0.33808 0.58537 0.40459 0 0.19908-0.13493 0.14159-0.66572-0.28367zm-0.32799-1.2188c0.0956-0.67001 0.99371-0.98358 0.99371-0.34693 0 0.22512-0.12399 0.40932-0.27552 0.40932s-0.20316 0.11707-0.11473 0.26016c0.0884 0.14309-0.0299 0.26016-0.2629 0.26016-0.29012 0-0.39748-0.18371-0.34056-0.58271zm3.6604-0.37008c-0.45298-0.18278-0.40749-0.60819 0.065-0.60819 0.21464 0 0.39025 0.17561 0.39025 0.39025 0 0.21463-0.0293 0.381-0.065 0.3697-0.0358-0.0113-0.21138-0.0796-0.39025-0.15176zm-3.7073-1.3968c0-0.65042 0.12034-1.034 0.3252-1.0365 0.22023-0.003 0.20167-0.0821-0.0575-0.24601-0.61772-0.39067-0.13744-0.57852 0.60926-0.23831 0.78358 0.35703 0.89716 0.73885 0.22874 0.76901-0.27199 0.0123-0.32436 0.0734-0.13008 0.15176 0.53104 0.21428 0.37025 0.60619-0.26017 0.63412-0.55754 0.0247-0.55457 0.0345 0.0624 0.20623 0.63905 0.17787 0.57017 0.3124-0.32258 0.63013-0.38434 0.13678-0.45528 0.001-0.45528-0.87046zm-4.4228 0.22216c-0.35772-0.15034-0.52366-0.32175-0.36875-0.38092 0.15491-0.0592 0.62321 0.0705 1.0406 0.28824 0.85172 0.44416 0.33425 0.51554-0.6719 0.0927zm7.9136-0.78959c0.20704-1.2947 0.21419-1.305 0.76459-1.0938 0.56456 0.21664 0.54714 0.6233-0.0278 0.64924-0.27199 0.0123-0.32436 0.0734-0.13008 0.15176 0.48007 0.19371 0.39496 0.60504-0.13008 0.62872-0.27199 0.0123-0.32436 0.0734-0.13008 0.15176 0.46826 0.18895 0.40051 0.60819-0.0983 0.60819-0.35193 0-0.39388-0.18519-0.24825-1.0959zm-8.1738-0.20489c0.51405-0.3322 1.376-0.3322 1.1707 0-0.0884 0.14309-0.47583 0.25837-0.86088 0.25618-0.54758-0.003-0.61508-0.0589-0.30985-0.25618zm-0.52032-0.53568c0-0.15154 0.11707-0.20316 0.26016-0.11473 0.14309 0.0884 0.26016 0.21242 0.26016 0.27552s-0.11707 0.11473-0.26016 0.11473-0.26016-0.12399-0.26016-0.27552zm-2.895-0.41748c-0.32377-0.39248-0.30248-0.40376 0.22831-0.12093 0.60539 0.32258 0.75445 0.55376 0.35706 0.55376-0.12557 0-0.38899-0.19477-0.58537-0.43283zm3.107-0.0966c-0.88153-0.4656-1.5002-1.0316-1.1275-1.0316 0.18021 0 1.9009 0.89404 2.4765 1.2868 0.72189 0.4925-0.29904 0.29938-1.349-0.25519zm5.7067-0.0332c-0.80219-0.29299-0.95599-0.73409-0.26016-0.74618 0.39661-0.007 0.38823-0.0454-0.065-0.29853-0.77275-0.43161-0.79922-0.48145-0.39-0.73436 0.3086-0.19073 0.28411-0.26324-0.13762-0.40745-0.28216-0.0965-0.98902-0.39546-1.5708-0.6644-1.2813-0.59231-2.1516-0.64845-0.96215-0.0621 0.46304 0.22827 0.78567 0.50602 0.71695 0.6172-0.0687 0.11118-0.56012-0.0197-1.092-0.2909-0.53189-0.27117-1.1472-0.49038-1.3674-0.48712-0.22016 0.003-0.0198 0.19349 0.44525 0.42274 0.46504 0.22925 0.84553 0.51927 0.84553 0.64448 0 0.30412-0.00026 0.30403-1.1707-0.29265-0.56132-0.28618-1.2007-0.51766-1.4209-0.51441-0.22015 0.003 0.009 0.20319 0.5103 0.44428 0.50081 0.2411 0.9691 0.50509 1.0406 0.58664 0.0715 0.0816 0.42276 0.28347 0.78048 0.44869 0.35773 0.16521 0.50245 0.30832 0.32161 0.318-0.18084 0.01-1.0004-0.30434-1.8211-0.69784-1.2384-0.59371-1.4782-0.81511-1.4092-1.3012 0.0687-0.48341 0.20504-0.56192 0.78049-0.4493 0.64725 0.12667 0.65529 0.11796 0.11193-0.1213-0.32195-0.14177-0.58536-0.36427-0.58536-0.49445 0-0.49879 0.74267-0.78596 3.4351-1.3283 2.633-0.53032 2.8212-0.53694 3.4553-0.12152 0.76989 0.50445 0.70149 0.81183-0.0868 0.38997-0.28903-0.15469-0.67954-0.2771-0.86781-0.27203-0.4794 0.0129 0.86254 0.75076 1.386 0.76205 0.23509 0.005 0.49839 0.19411 0.58511 0.42008 0.13069 0.34059 0.0131 0.38289-0.68762 0.24734l-0.84527-0.16352 0.84553 0.43556c0.46504 0.23956 0.84553 0.53802 0.84553 0.66323 0 0.32771-0.31578 0.26744-0.89526-0.17085-0.58811-0.44483-0.92588-0.48926-0.92588-0.1218 0 0.14308 0.17561 0.26016 0.39024 0.26016 0.21464 0 0.39025 0.11707 0.39025 0.26016 0 0.37646-0.2832 0.32497-1.4309-0.26016-0.56132-0.28618-1.1975-0.52033-1.4137-0.52033s0.28385 0.35122 1.1112 0.78049c1.5506 0.80452 2.4242 1.0067 2.1028 0.48657-0.11024-0.17838-0.0396-0.24661 0.17977-0.17357 0.19878 0.0662 0.37498 0.37991 0.39156 0.69716 0.0267 0.51003-0.0637 0.55843-0.78049 0.41796-0.60751-0.11907-0.71284-0.0907-0.42039 0.11309 0.21464 0.14958 0.59513 0.27375 0.84553 0.27595 0.67381 0.006 0.55337 0.51925-0.13008 0.55448-0.4405 0.0227-0.47269 0.0596-0.13008 0.14916 0.25041 0.0654 0.45529 0.22747 0.45529 0.36006 0 0.28989-0.16995 0.28047-1.1057-0.0613zm-5.0081-3.9997c-0.42926-0.19656-0.95609-0.35315-1.1707-0.34798-0.21463 0.005-0.039 0.17021 0.39025 0.36677 0.42926 0.19656 0.95609 0.35316 1.1707 0.34799 0.21463-0.005 0.039-0.17022-0.39025-0.36678zm4.2222 0.24246c-0.0865-0.0864-0.31084-0.0957-0.49865-0.0205-0.20754 0.0831-0.14589 0.1447 0.15718 0.15718 0.27426 0.0113 0.42792-0.0502 0.34147-0.13664zm-2.9214-0.50262c-0.42927-0.19656-0.9561-0.35738-1.1707-0.35738-0.21464 0-0.039 0.16082 0.39024 0.35738 0.42927 0.19656 0.9561 0.35738 1.1707 0.35738 0.21464 0 0.039-0.16082-0.39024-0.35738zm1.3008-0.26016c-0.42927-0.19656-0.9561-0.35738-1.1707-0.35738-0.21464 0-0.039 0.16082 0.39024 0.35738 0.42927 0.19656 0.9561 0.35738 1.1707 0.35738 0.21464 0 0.039-0.16082-0.39024-0.35738zm1.4309-0.25077c-0.35772-0.20449-0.88455-0.37067-1.1707-0.36929-0.39599 0.002-0.33381 0.0879 0.26017 0.3599 1.0363 0.47451 1.7368 0.48174 0.91056 0.009zm4.3577 4.6337c-0.25041-0.0654-0.45529-0.22379-0.45529-0.3519 0-0.1281 0.20488-0.15821 0.45529-0.0669 0.40873 0.14906 0.40461 0.10832-0.0403-0.39841-0.48737-0.55505-0.48737-0.5645 0-0.56842 0.30552-0.002 0.38271-0.0773 0.20126-0.19512-0.32473-0.21087-0.40758-1.622-0.0952-1.622 0.10769 0 0.32704 0.15814 0.48746 0.35143 0.33967 0.40929 0.31808 2.5104-0.0258 2.5104-0.12808 0-0.16052 0.11708-0.0721 0.26017 0.0884 0.14309 0.12461 0.24658 0.0804 0.22998-0.0442-0.0166-0.28527-0.0837-0.53568-0.14916zm-12.358-0.43462c-0.66525-0.32948-0.77154-0.68685-0.20427-0.68685 0.2096 0 0.5064 0.23414 0.65956 0.52032s0.24508 0.50595 0.20427 0.48838c-0.0408-0.0176-0.3376-0.1624-0.65956-0.32185zm3.122-0.3355c-0.75122-0.35526-1.3659-0.76873-1.3659-0.91881 0-0.15894 0.2444-0.11463 0.58537 0.10614 0.32195 0.20845 0.87805 0.45098 1.2358 0.53894 0.35772 0.088 0.88455 0.33691 1.1707 0.55321 0.81498 0.61597-0.0451 0.46813-1.626-0.27948zm-3.6423-0.78382c-0.17886-0.0722-0.3252-0.28455-0.3252-0.47195 0-0.38359 0.7699-0.76137 1.0128-0.49698 0.0868 0.0945 0.005 0.22615-0.1811 0.29256-0.25077 0.0893-0.21691 0.21332 0.13008 0.47643 0.36724 0.27848 0.38435 0.35303 0.0788 0.34343-0.21464-0.007-0.53659-0.0713-0.71545-0.14349zm14.884-1.1458c-0.0943-0.15261-0.11569-0.33327-0.0475-0.40146 0.0682-0.0682 0.19331 0.0567 0.27805 0.27747 0.17591 0.45843 0.026 0.53907-0.23056 0.12399zm-15.339-0.24285c-0.0884-0.14309-0.008-0.26196 0.17976-0.26415 0.25028-0.003 0.23711-0.0771-0.0497-0.27997-0.27886-0.19721-0.3016-0.31225-0.0797-0.40307 0.17083-0.0699 0.25003-0.28489 0.17602-0.47776-0.0756-0.19711 0.0732-0.4044 0.33982-0.47334 0.43088-0.11141 0.43263-0.12542 0.0191-0.15283-0.6681-0.0443-0.55587-0.54532 0.13008-0.58069 0.4405-0.0227 0.4727-0.0596 0.13009-0.14916-0.97852-0.25571-0.36414-1.3915 0.64803-1.198 0.87309 0.1669 0.68623 0.58928-0.27315 0.61742-0.38505 0.0113-0.52448 0.0791-0.30984 0.1507 0.21463 0.0716 0.56585 0.18777 0.78048 0.2582 0.322 0.10566 0.30193 0.19305-0.11476 0.49971-0.3621 0.26649-0.39891 0.37401-0.13008 0.37994 0.27034 0.006 0.23405 0.11483-0.13008 0.39024-0.36414 0.27542-0.40042 0.38428-0.13009 0.39025 0.27034 0.006 0.23405 0.11483-0.13008 0.39024-0.4999 0.37811-0.4999 0.38206 0 0.39025 0.49991 0.008 0.49991 0.0121 0 0.39024-0.59367 0.44904-0.83642 0.47704-1.056 0.12181zm13.138-0.94243c0-0.36131 0.0656-0.37191 0.45528-0.0736 0.25041 0.19166 0.50407 0.38161 0.56369 0.42209 0.0596 0.0405-0.14526 0.0736-0.45529 0.0736-0.34652 0-0.56368-0.16262-0.56368-0.4221zm1.9512 0.16194c-0.0884-0.14309-0.0368-0.26016 0.11472-0.26016 0.15154 0 0.27552 0.11707 0.27552 0.26016s-0.0516 0.26016-0.11473 0.26016c-0.0631 0-0.18708-0.11707-0.27551-0.26016zm-1.626-0.70393c-0.32195-0.062-0.58537-0.22168-0.58537-0.35481 0-0.35023 0.34726-0.29775 0.92589 0.1399 0.27775 0.21008 0.44647 0.36975 0.37493 0.35481-0.0716-0.0149-0.3935-0.0779-0.71545-0.1399zm1.4999-0.1416c0.007-0.53025 0.47132-1.1085 0.69732-0.86741 0.11509 0.12276 0.0695 0.27327-0.10132 0.33447-0.17083 0.0612-0.24611 0.27932-0.16729 0.48471 0.0788 0.20539 0.0137 0.37343-0.1447 0.37343s-0.2862-0.14634-0.28401-0.3252zm-18.299-0.65041c-0.18908-0.32234 0.12465-1.8862 0.3784-1.8862 0.12958 0 0.15531 0.31985 0.0572 0.71079-0.0981 0.39094-0.17839 0.85923-0.17839 1.0406 0 0.37376-0.0895 0.42064-0.2572 0.13473zm7.3683-0.0497c0-0.40251 0.56469-0.64926 2.2114-0.9663 1.3225-0.25462 1.6206-0.24069 1.9512 0.0912 0.34733 0.34865 0.29013 0.3728-0.52033 0.21971-0.71048-0.1342-0.82482-0.10708-0.52032 0.12342 0.30327 0.22958 0.15832 0.25993-0.65041 0.13621-0.7979-0.12206-0.94962-0.0917-0.65041 0.13008 0.29921 0.22181 0.14749 0.25215-0.6504 0.13009-0.75055-0.11482-0.93187-0.0851-0.65041 0.10663 0.33544 0.22849 0.3263 0.26639-0.065 0.26981-0.25041 0.002-0.45528-0.10618-0.45528-0.24082zm9.0406-0.19469c-0.25041-0.0654-0.45529-0.23159-0.45529-0.36922 0-0.14412 0.24824-0.12108 0.58537 0.0543 0.97568 0.50763 0.9398 0.59449-0.13008 0.3149zm2.1463-0.94804c0-0.73936 0.19417-0.96292 0.67584-0.77809 0.51293 0.19683 0.4545 0.60061-0.0905 0.62519-0.27198 0.0123-0.32435 0.0734-0.13008 0.15176 0.45299 0.18279 0.4075 0.60819-0.065 0.60819-0.23538 0-0.39024-0.24089-0.39024-0.60705zm-2.1463 0.16755c-0.54097-0.14137-0.61201-0.60115-0.0929-0.60115 0.19933 0 0.4298 0.17561 0.51216 0.39024 0.0824 0.21464 0.12416 0.37667 0.0929 0.36007-0.0313-0.0166-0.26176-0.0837-0.51216-0.14916zm-8.1371-0.32963c0.0846-0.13684 0.32563-0.18285 0.53568-0.10224 0.53779 0.20636 0.47441 0.35104-0.15377 0.35104-0.29462 0-0.46648-0.11196-0.38191-0.2488zm20.95-1.1523c-1.7886-0.75064-4.4118-1.9144-5.8292-2.5862-1.4175-0.67177-2.6374-1.1612-2.7109-1.0877-0.0736 0.07356-0.40045-0.04102-0.72642-0.25461-0.89361-0.58551-3.6853-0.67426-3.3341-0.10599 0.11979 0.19382-0.0666 0.24954-0.57001 0.1704-0.4114-0.06467-0.60165-0.06861-0.42279-0.0087 0.17886 0.05986 0.3252 0.22522 0.3252 0.36746s-0.23415 0.1843-0.52032 0.09347c-0.29849-0.09474-0.52033-0.04675-0.52033 0.11255 0 0.15273 0.11707 0.2777 0.26016 0.2777s0.26017 0.1296 0.26017 0.288c0 0.16124-0.20039 0.21821-0.45529 0.12944-0.38319-0.13345-0.3759-0.09709 0.0461 0.22964 0.27573 0.21351 0.44285 0.44668 0.37136 0.51817-0.14941 0.14941-2.3667-0.66252-2.5664-0.93976-0.073-0.10133-0.42419-0.23499-0.78048-0.29702-0.35629-0.06202-0.50146-0.06272-0.3226-0.0016 0.53272 0.1822 0.37092 0.58889-0.34214 0.86-0.66511 0.25288-2.0986 0.33136-1.4774 0.08088 0.17976-0.07247 0.25291-0.25136 0.16258-0.39752-0.1057-0.17102 0.14876-0.21284 0.71382-0.11732l0.87808 0.14845-0.84553-0.28835c-0.46504-0.15859-0.84553-0.3779-0.84553-0.48736s0.84878-0.34312 1.8862-0.51924c1.3978-0.23731 1.7515-0.37339 1.3658-0.52555-0.76659-0.3025-1.2261-0.28181-1.0234 0.04609 0.12439 0.20126-0.0766 0.23206-0.6676 0.10226-0.59096-0.1298-0.79199-0.099-0.6676 0.10226 0.2578 0.41713-0.51381 0.3551-0.86632-0.06965-0.2436-0.29352 0.0328-0.42178 1.5417-0.71545l1.8385-0.35781-1.1833-0.42304c-1.2169-0.43506-1.6416-0.26774-0.59795 0.2356 0.89415 0.43123 0.0449 0.37043-1.0157-0.07272-1.3129-0.54858-1.6994-0.4662-0.61028 0.13008 0.50081 0.27418 0.72148 0.50342 0.49037 0.50942s-0.73211-0.23445-1.1134-0.53432c-0.65357-0.5141-0.73026-0.52091-1.3432-0.11927-0.35756 0.23428-0.79314 0.34009-0.96796 0.23513-0.23787-0.14282-0.23552-0.08912 0.009 0.21338 0.28489 0.35193 0.13347 0.44511-1.1707 0.72044-1.0934 0.23083-1.6957 0.24054-2.2303 0.03598-1.022-0.39108-1.2072-0.33407-0.43835 0.13495l0.65041 0.39678-0.80217-0.13066c-0.55008-0.0896-0.80217-0.02487-0.80217 0.20592 0 0.32695 1.1033 0.19722 4.4336-0.52134 0.47914-0.10338 0.68895-0.06587 0.58374 0.10437-0.0903 0.14617-0.0172 0.33322 0.16257 0.41566 0.17976 0.08245 0.0671 0.08572-0.25039 0.0073-0.67943-0.16788-4.9939 0.62552-5.4839 1.0085-0.27659 0.21615-0.27659 0.30243 0 0.47788 0.24683 0.15658 0.20771 0.21517-0.14561 0.21809-0.35397 0.0029-0.43631-0.11772-0.30801-0.4513 0.54253-1.4106 1.2804-3.8705 1.2219-4.0737-0.0374-0.12998 0.0845-0.33306 0.27093-0.4513 0.25995-0.16489 0.26315-0.21591 0.0137-0.21896-0.50788-0.0062-0.38149-0.52333 0.13008-0.53222 0.413-0.0072 0.41577-0.03099 0.0299-0.25637-0.31346-0.18307-1.0826 0.05864-2.9226 0.91848-1.3734 0.64181-2.5995 1.1669-2.7245 1.1669-0.12504 0-0.71852-1.0722-1.3188-2.3826-1.2227-2.6692-1.2577-2.5496 0.95232-3.2582 0.75122-0.24087 1.3633-0.50437 1.3602-0.58556-0.003-0.08119-0.66118-0.6159-1.4624-1.1883-5.823-4.17-9.875-13.378-11.003-25.026-0.427-4.409-0.366-11.757 0.121-14.524 1.801-10.25 5.898-18.091 18.352-35.122 2.6152-3.5772 5.0757-6.9494 5.4678-7.4937l0.71292-0.98965 0.98406 1.6401c0.54124 0.90203 3.0572 4.9794 5.591 9.0609 7.5161 12.107 10.451 17.468 12.814 23.408 2.8274 7.1067 3.4055 10.454 3.213 18.602-0.36153 15.302-3.2161 24.411-8.766 27.972-2.1207 1.3609-2.6121 1.0624 7.2917 4.4291 3.3626 1.1431 6.2694 2.1349 6.4594 2.2041 0.24571 0.08943-0.42949 1.6302-2.3355 5.3294-1.4746 2.862-2.8009 5.1954-2.9472 5.1854-0.1464-0.01-1.7296-0.63233-3.5182-1.383zm-15.465-3.173c-0.27753-0.20293-0.68711-0.36155-0.91016-0.35248-0.2646 0.01075-0.21136 0.09485 0.15318 0.24193 0.30731 0.12399 0.64098 0.35851 0.7415 0.52114 0.10051 0.16264 0.25865 0.21981 0.35141 0.12704 0.0928-0.09276-0.0584-0.3347-0.33593-0.53763zm3.3672-1.6469 0.78049-0.17574-0.75581-0.19882c-0.49707-0.13076-0.8211-0.09318-0.94652 0.10976-0.10489 0.16972-0.31279 0.23314-0.46199 0.14092-0.1492-0.09221-0.34481-0.04867-0.43468 0.09675-0.18047 0.292 0.59097 0.3035 1.8185 0.02711zm-4.1473-1.2019c-0.27776-0.21008-0.68751-0.37246-0.91057-0.36084-0.22306 0.01163-0.0543 0.18195 0.37493 0.37851 1.0086 0.46182 1.1628 0.45673 0.53564-0.01766zm-8.5411-2.1001c-0.0864-0.08645-0.31085-0.09569-0.49865-0.02053-0.20754 0.08305-0.14589 0.1447 0.15718 0.15718 0.27426 0.01129 0.42792-0.05019 0.34147-0.13664zm1.3008-1.3008c-0.0864-0.08645-0.31084-0.09569-0.49865-0.02053-0.20754 0.08305-0.14589 0.1447 0.15719 0.15718 0.27425 0.01129 0.42791-0.05019 0.34146-0.13664zm6.6906-12.959c3.5667-2.0902 5.648-8.7781 6.0978-19.594 0.38158-9.1756-0.24513-16.43-1.7836-20.645-1.7192-4.7107-4.6996-6.8268-8.4372-5.9904-3.7913 0.84846-6.3669 5.1255-7.6155 12.646-0.58748 3.5386-0.67268 15.983-0.13536 19.772 0.52549 3.7055 1.5511 7.6248 2.5252 9.6501 1.0449 2.1724 3.1793 4.3128 4.7349 4.7482 1.43 0.40024 3.3439 0.15644 4.6137-0.58771zm-5.0386 23.111c0.0125-0.30308 0.0741-0.36472 0.15718-0.15718 0.0751 0.1878 0.0659 0.41219-0.0205 0.49864-0.0865 0.0864-0.14794-0.0672-0.13664-0.34146zm1.7212 0.22981c-0.68506-0.17758-0.37336-0.74101 0.36378-0.65757l0.62622 0.0709-0.6504-0.38687c-0.52409-0.31173-0.55866-0.38866-0.17802-0.39608 0.60017-0.0117 1.4788 0.45198 1.4788 0.78042 0 0.13805-0.20488 0.2528-0.45529 0.25499-0.38908 0.003-0.39854 0.0406-0.065 0.25618 0.32115 0.20754 0.29811 0.24756-0.13008 0.226-0.28618-0.0144-0.73168-0.081-0.99-0.14795zm5.9331-0.33821c-0.0884-0.14309-0.0437-0.26017 0.0994-0.26017 0.14309 0 0.33251 0.11708 0.42095 0.26017 0.0884 0.14309 0.0437 0.26016-0.0994 0.26016-0.14309 0-0.33251-0.11707-0.42095-0.26016zm0.26264-0.46203c-0.42791-0.22376-0.65053-0.44933-0.4947-0.50127 0.41411-0.13804 1.663 0.38517 1.663 0.69669 0 0.34097-0.20951 0.30592-1.1683-0.19542zm-14.832-0.0583c-0.0884-0.14309-0.0368-0.26016 0.11472-0.26016 0.15154 0 0.27552 0.11707 0.27552 0.26016s-0.0516 0.26016-0.11473 0.26016c-0.0631 0-0.18708-0.11707-0.27551-0.26016zm3.8512-0.0845c0.34892-0.2851 0.38224-0.41421 0.13008-0.50402-0.18644-0.0664-0.26631-0.19969-0.17749-0.29618 0.1987-0.21584 1.5296 0.36389 1.5296 0.66629 0 0.12012-0.14634 0.22-0.3252 0.22195-0.17887 0.002-0.61789 0.0692-0.97561 0.14939-0.60604 0.13589-0.61841 0.11969-0.18134-0.23743zm14.59 0.0348c-0.10532-0.17041-0.053-0.35602 0.11635-0.41246 0.16931-0.0564 0.24842-0.19877 0.17578-0.31629-0.0726-0.11753 0.10472-0.15177 0.39411-0.0761 0.37926 0.0992 0.45263 0.22621 0.26278 0.45496-0.14486 0.17455-0.18636 0.3944-0.0922 0.48855 0.0941 0.0941-0.017 0.17118-0.24707 0.17118-0.23004 0-0.50442-0.13943-0.60975-0.30985zm-11.416-0.21047c0.0884-0.14309 0.27786-0.26016 0.42095-0.26016s0.18781 0.11707 0.0994 0.26016c-0.0884 0.14309-0.27786 0.26016-0.42095 0.26016s-0.18781-0.11707-0.0994-0.26016zm-6.7921-0.67169c0.0869-0.22633 0.15792-0.51902 0.15792-0.6504 0-0.13139 0.26342-0.23499 0.58537-0.23023l0.58536 0.009-0.5743 0.47937c-0.31587 0.26366-0.50123 0.55245-0.41192 0.64176 0.0893 0.0893 0.0133 0.16237-0.16898 0.16237-0.19527 0-0.26651-0.16901-0.17345-0.41152zm9.1986 0.23219c-0.25041-0.0654-0.45528-0.286-0.45528-0.49015 0-0.20414 0.03-0.37116 0.0667-0.37116s0.44648-0.10891 0.91057-0.24201c0.9747-0.27954 1.1846 0.12178 0.25845 0.49406-0.32195 0.12941-0.43903 0.24271-0.26016 0.25178 0.17886 0.009 0.3252 0.13356 0.3252 0.27665 0 0.27054-0.0876 0.27891-0.84553 0.0808zm3.7073-0.0808c0-0.14309-0.16309-0.26016-0.36241-0.26016-0.19933 0-0.43193-0.18117-0.5169-0.4026-0.13943-0.36335-0.0985-0.36335 0.42029 0 0.31614 0.22143 0.87069 0.39093 1.2324 0.37667 0.5735-0.0226 0.59104-0.0477 0.13724-0.19601-0.6545-0.21392-2.2114-1.057-2.2114-1.1975 0-0.2169 1.4678 0.33348 2.4585 0.92187 1.0028 0.59559 1.0122 0.61461 0.39025 0.78816-0.96722 0.26987-1.548 0.25845-1.548-0.0305zm-8.5203-0.26827c-0.32195-0.12941-0.58536-0.36589-0.58536-0.52551 0-0.15963 0.14634-0.22201 0.3252-0.13863 0.17886 0.0834 0.53008 0.22386 0.78049 0.31218 0.2504 0.0883 0.45528 0.26401 0.45528 0.39041 0 0.2784-0.2077 0.27022-0.97561-0.0384zm2.4065 0.008c-0.0884-0.14309-0.0437-0.26016 0.0994-0.26016 0.14309 0 0.33252 0.11707 0.42095 0.26016 0.0884 0.14309 0.0437 0.26016-0.0994 0.26016-0.14309 0-0.33252-0.11707-0.42095-0.26016zm12.057-0.18928c-0.3261-0.0753-0.39866-0.30078-0.29956-0.93068 0.0719-0.45719 0.26559-0.91727 0.43034-1.0224 0.19278-0.123 0.13726-0.19256-0.15572-0.19512-0.25041-0.0021-0.45529-0.11089-0.45529-0.24155s0.35889-0.1021 0.79754 0.06347c0.73557 0.27765 0.78453 0.3719 0.63016 1.2132-0.19431 1.0589-0.35663 1.2496-0.94747 1.1131zm0.48996-0.74839c-0.0864-0.08645-0.31084-0.09569-0.49864-0.02053-0.20754 0.08305-0.1459 0.1447 0.15718 0.15718 0.27425 0.0113 0.42791-0.0502 0.34146-0.13664zm-13.971 0.42751c-0.21049-0.13312-0.29551-0.32924-0.18893-0.43582s0.39169 0.0041 0.63358 0.24602c0.47021 0.47021 0.18873 0.59036-0.44465 0.1898zm1.0331-0.40043c-0.35772-0.20704-1.1187-0.56821-1.691-0.80261-0.57236-0.2344-0.90866-0.47662-0.74733-0.53827 0.34061-0.13017 3.112 1.0877 3.3495 1.4718 0.22529 0.36453-0.14757 0.31094-0.91109-0.13094zm-2.4715-0.39022c-0.0884-0.14309 0.0148-0.26016 0.22945-0.26016 0.21464 0 0.4626 0.11707 0.55104 0.26016 0.0884 0.14309-0.0148 0.26016-0.22946 0.26016-0.21463 0-0.4626-0.11707-0.55103-0.26016zm-2.6016-0.26016c-0.0884-0.14309 0.0286-0.26016 0.26016-0.26016 0.23153 0 0.3486 0.11707 0.26017 0.26016-0.0884 0.14309-0.20551 0.26016-0.26017 0.26016-0.0546 0-0.17172-0.11707-0.26016-0.26016zm4.4252-0.46203c-0.42791-0.22376-0.64073-0.45259-0.47292-0.50853 0.30309-0.10103 1.9013 0.61108 1.9013 0.84715 0 0.22529-0.64026 0.07351-1.4284-0.33862zm-52.716-6.946c-4.7221-1.3026-8.5092-5.5909-9.7079-10.993-0.58653-2.6432-0.54308-6.7813 0.09752-9.286 0.807-3.1553 2.1327-5.4359 4.5807-7.8801 1.8511-1.8482 2.5202-2.317 5.0879-3.5651 3.7626-1.8289 7.8179-2.8346 12.452-3.0883l1.1707-0.06408-0.05985-1.3008c-0.10363-2.2523-0.59354-3.5174-1.8743-4.8403-1.6058-1.6586-3.3563-2.1806-6.6426-1.9808-2.9277 0.17799-5.2675 0.75883-7.5796 1.8816-0.98423 0.47795-1.8276 0.83089-1.8742 0.78432-0.14826-0.14826-2.3922-8.4502-2.3922-8.8505 0-0.80819 4.601-2.5835 9.2087-3.5531 3.3993-0.71536 9.4526-0.7741 12.385-0.12016 6.4356 1.4353 10.367 5.4572 11.982 12.257 0.77459 3.2614 1.0175 8.4757 1.024 21.983 0.0053 10.875 0.18016 15.57 0.65651 17.626l0.13562 0.58537h-12.664l-0.31913-2.3969c-0.17552-1.3183-0.36044-2.4383-0.41092-2.4887-0.05049-0.05049-0.89382 0.70619-1.8741 1.6815-1.8787 1.8692-3.7648 2.9828-6.1091 3.6068-1.6964 0.4515-5.6401 0.45265-7.2733 0.0021zm10.644-10.447c1.5046-0.74976 2.6674-2.1883 3.1374-3.8815 0.16565-0.59667 0.28813-3.2465 0.28896-6.2517l0.0016-5.2161-0.97561 0.08569c-5.0224 0.44114-7.7131 1.8827-9.2174 4.9384-0.76338 1.5506-0.8433 1.9338-0.82445 3.9528 0.03108 3.3289 0.8847 5.2263 2.9071 6.462 1.3155 0.80375 2.9526 0.7724 4.6825-0.08964zm89.297 10.531c-4.1786-0.48415-7.7287-1.8924-10.745-4.2622-5.476-4.3028-8.3441-12.695-7.9132-23.153 0.56309-13.668 6.4984-22.963 16.301-25.531 2.0729-0.54294 6.5722-0.6071 8.5854-0.12244 4.5402 1.093 8.2824 4.1714 10.47 8.6129 2.2119 4.4898 3.0556 8.9828 3.0536 16.26-0.00078 2.5756-0.0739 5.122-0.16259 5.6585l-0.16126 0.97561h-24.814l0.21784 1.824c0.80734 6.7597 5.5907 9.989 13.543 9.1432 1.466-0.15592 3.5434-0.51042 4.6166-0.78777s2.1163-0.54458 2.318-0.59385c0.28216-0.0689 0.58769 1.0515 1.3236 4.8535l0.95674 4.9431-1.3236 0.46262c-2.135 0.74623-6.0188 1.448-9.6215 1.7384-3.7122 0.2993-3.8837 0.29875-6.6463-0.02133zm7.1404-33.334c-0.51294-6.0271-2.255-9.4749-5.0239-9.9427-3.7405-0.63196-6.6196 3.3289-7.2354 9.954l-0.17425 1.8749h12.594zm69.329 33.153c-6.0256-1.9871-9.9254-7.9316-11.635-17.735-0.55526-3.1849-0.62787-13.492-0.11548-16.393 1.0055-5.6932 2.9594-10.605 5.4329-13.659 3.8706-4.7777 9.7502-6.6708 14.823-4.7727 1.569 0.58706 3.7679 2.4506 4.242 3.5952 0.17935 0.43301 0.42897 0.78729 0.5547 0.78729 0.12831 0 0.2286-5.7069 0.2286-13.008v-13.008h13.74l0.15315 35.187c0.0842 19.353 0.22221 35.977 0.30658 36.943l0.15344 1.7561h-12.002l-0.12243-0.58537c-0.0673-0.32195-0.25728-1.6098-0.42208-2.8618s-0.37535-2.2733-0.46789-2.2694c-0.0925 0.0038-0.46093 0.48543-0.81865 1.0702-0.98148 1.6044-3.026 3.3164-5.2033 4.3572-1.805 0.86283-2.156 0.93786-4.6829 1.0011-2.0841 0.05213-3.0716-0.04376-4.1655-0.40449zm9.4228-11.021c1.3109-0.39275 2.7732-2.0349 3.4586-3.8838 0.48609-1.3114 0.51987-2.0457 0.51925-11.289-0.00078-9.8221-0.005-9.8963-0.62395-11.447-1.6818-4.2119-5.2162-5.209-7.8967-2.2276-2.3112 2.5706-3.1714 6.2703-3.1794 13.675-0.008 7.336 0.85909 11.094 3.1463 13.638 1.4922 1.6597 2.7502 2.0815 4.5759 1.5345zm-234.59 10.949c-1.574-0.133-3.0086-0.295-3.1879-0.361-0.2597-0.095-0.3127-7.319-0.2602-35.444l0.065974-35.325 2.6016-0.43927c1.4309-0.2416 4.967-0.56879 7.8579-0.72709 11.237-0.61531 18.016 0.71554 22.951 4.5059 6.984 5.364 8.0347 17.229 2.1506 24.287-1.3584 1.6293-3.7917 3.5474-5.5773 4.3963-1.1131 0.52914-1.2349 0.86897-0.39024 1.0888 0.32195 0.0838 1.6343 0.67708 2.9163 1.3184 4.1807 2.0914 7.3501 6.0346 8.6068 10.708 0.94818 3.5263 0.73078 8.5489-0.53151 12.28-0.92406 2.7313-2.0984 4.5163-4.6826 7.1178-1.7995 1.8115-2.8262 2.6061-4.4356 3.4332-2.3558 1.2106-5.6006 2.2223-9.0851 2.8328-2.8209 0.49422-14.615 0.69772-19 0.32783zm17.044-10.877c1.6036-0.48432 3.7214-1.9377 4.685-3.2153 1.5636-2.0731 1.9456-3.4897 1.9456-7.2166 0-3.1085-0.03618-3.3284-0.81984-4.9824-1.8798-3.9677-5.6001-6.0714-10.417-5.8906l-2.0312 0.07625-0.06791 10.712c-0.06363 10.036-0.03901 10.721 0.39024 10.848 0.72343 0.2141 5.3056-0.02612 6.3154-0.33108zm0.1545-32.61c1.7184-0.88933 3.5602-2.9523 4.3091-4.8266 0.85547-2.1408 0.85958-6.7999 0.0079-8.9294-0.72937-1.8236-2.0765-3.2342-3.875-4.0576-1.1613-0.53165-1.7839-0.63361-3.8434-0.62938-3.8806 0.008-3.5209-1.0094-3.5209 9.9596v9.3855l2.797-0.107c2.3888-0.09153 2.9906-0.20747 4.1256-0.79488zm153.86 21.96c0-11.71-0.077-23.418-0.17114-26.016l-0.17113-4.7246h11.983l0.14853 0.97561c0.0817 0.53658 0.22886 1.8244 0.32703 2.8618 0.0982 1.0374 0.20772 1.8862 0.24343 1.8862 0.0357 0 0.98644-0.92066 2.1127-2.0459 3.6221-3.6188 8.1505-5.2041 12.803-4.4823 5.195 0.80603 8.3322 3.433 10.172 8.5176 1.519 4.198 1.5745 5.1011 1.5756 25.653l0.001 18.667h-13.762l-0.0872-18.016c-0.0794-16.406-0.12843-18.14-0.54815-19.398-1.6495-4.9436-7.0026-5.2434-9.2306-0.51704-0.42475 0.90103-0.90164 2.2586-1.0598 3.0169-0.19266 0.92386-0.2875 6.9101-0.2875 18.146v16.768h-14.049z"/>
  <path id="path98" fill="#dd6531" d="m114.86 136.54c-1.2897-2.3696-1.2081-5.4096 0.28395-10.583 0.79849-2.7687 0.85792-6.1459 0.13568-7.7107-1.4424-3.1253-3.9912-2.7469-3.1325 0.46504 0.16115 0.60276 0.4279 1.2648 0.59277 1.4711 0.23626 0.29567 0.22513 0.33021-0.0525 0.16303-0.52811-0.31798-1.3266-2.2426-1.333-3.2132-0.004-0.6454 0.13722-0.91137 0.57965-1.0892 0.48045-0.19312 0.49988-0.23825 0.10841-0.25178-0.26448-0.009-0.42631-0.16137-0.36326-0.34169 0.0625-0.17887 0.33571-0.29106 0.60705-0.24932 0.38316 0.0589 0.41224 0.0212 0.13022-0.16886-0.55889-0.37672-0.13105-1.074 0.68015-1.1085l0.72361-0.0308-0.78049-0.1986c-0.42926-0.10923-0.62723-0.21245-0.43993-0.22938 0.18731-0.0169 0.26821-0.14786 0.17977-0.29095-0.0884-0.14309 0.051-0.26758 0.30985-0.27665 0.35993-0.0126 0.32406-0.0751-0.1525-0.26575-1.0098-0.40392-0.47736-0.5202 0.75205-0.16426 1.2115 0.35076 1.6312 0.85613 0.86169 1.0376-0.32873 0.0775-0.2977 0.10316 0.10309 0.0851 0.31535-0.0142 0.5495 0.0597 0.52033 0.16428-0.0292 0.10456 0.23044 0.38867 0.57692 0.63136 0.59625 0.41763 0.60321 0.45172 0.13008 0.63713-0.46732 0.18312-0.46355 0.19707 0.0578 0.21417 0.43614 0.0143 0.70166 0.37791 1.2182 1.6682 1.3447 3.3589 1.2255 5.1931-0.73784 11.358-1.6144 5.0694-1.6879 6.3629-0.52116 9.1707 0.42941 1.0334-0.35839 0.35556-1.038-0.8931zm-1.2404-20.923c-0.0865-0.0864-0.31084-0.0957-0.49864-0.0205-0.20754 0.0831-0.1459 0.1447 0.15718 0.15718 0.27425 0.0113 0.42791-0.0502 0.34146-0.13664zm0.0705-0.88347c-0.21463-0.13871-0.56585-0.24576-0.78049-0.23789-0.25731 0.009-0.213 0.0905 0.13008 0.23789 0.71521 0.30733 1.126 0.30733 0.65041 0zm1.3008-0.26016c-0.21463-0.13871-0.56585-0.24576-0.78048-0.2379-0.25732 0.009-0.21301 0.0905 0.13008 0.2379 0.71521 0.30733 1.126 0.30733 0.6504 0zm4.4155 4.5048c-0.82919-0.9444-1.797-2.7638-1.8082-3.3991-0.003-0.17886 0.15469-0.32521 0.35072-0.32521 0.20063 0 0.50024 0.51362 0.68541 1.175 0.18094 0.64624 0.66187 1.6999 1.0687 2.3415 0.40687 0.64156 0.69593 1.1665 0.64236 1.1665-0.0536 0-0.47615-0.43137-0.93907-0.9586zm2.1036-3.2397c-0.56057-0.91948-0.68552-1.5253-0.31462-1.5253 0.24908 0 1.1366 2.1115 0.96126 2.2869-0.0623 0.0623-0.35328-0.28042-0.64664-0.7616zm-3.8027-1.1494c-0.48495-0.38852-0.48176-0.39332 0.0804-0.12092 0.32195 0.15601 0.58537 0.33808 0.58537 0.40459 0 0.19908-0.13493 0.14159-0.66572-0.28367zm-0.32799-1.2188c0.0956-0.67001 0.99371-0.98358 0.99371-0.34693 0 0.22512-0.12399 0.40932-0.27552 0.40932s-0.20316 0.11707-0.11473 0.26016c0.0884 0.14309-0.0299 0.26016-0.2629 0.26016-0.29012 0-0.39748-0.18371-0.34056-0.58271zm3.6604-0.37008c-0.45298-0.18278-0.40749-0.60819 0.065-0.60819 0.21464 0 0.39025 0.17561 0.39025 0.39025 0 0.21463-0.0293 0.381-0.065 0.3697-0.0358-0.0113-0.21138-0.0796-0.39025-0.15176zm-3.7073-1.3968c0-0.65042 0.12034-1.034 0.3252-1.0365 0.22023-0.003 0.20167-0.0821-0.0575-0.24601-0.61772-0.39067-0.13744-0.57852 0.60926-0.23831 0.78358 0.35703 0.89716 0.73885 0.22874 0.76901-0.27199 0.0123-0.32436 0.0734-0.13008 0.15176 0.53104 0.21428 0.37025 0.60619-0.26017 0.63412-0.55754 0.0247-0.55457 0.0345 0.0624 0.20623 0.63905 0.17787 0.57017 0.3124-0.32258 0.63013-0.38434 0.13678-0.45528 0.001-0.45528-0.87046zm-4.4228 0.22216c-0.35772-0.15034-0.52366-0.32175-0.36875-0.38092 0.15491-0.0592 0.62321 0.0705 1.0406 0.28824 0.85172 0.44416 0.33425 0.51554-0.6719 0.0927zm7.9136-0.78959c0.20704-1.2947 0.21419-1.305 0.76459-1.0938 0.56456 0.21664 0.54714 0.6233-0.0278 0.64924-0.27199 0.0123-0.32436 0.0734-0.13008 0.15176 0.48007 0.19371 0.39496 0.60504-0.13008 0.62872-0.27199 0.0123-0.32436 0.0734-0.13008 0.15176 0.46826 0.18895 0.40051 0.60819-0.0983 0.60819-0.35193 0-0.39388-0.18519-0.24825-1.0959zm-8.1738-0.20489c0.51405-0.3322 1.376-0.3322 1.1707 0-0.0884 0.14309-0.47583 0.25837-0.86088 0.25618-0.54758-0.003-0.61508-0.0589-0.30985-0.25618zm-0.52032-0.53568c0-0.15154 0.11707-0.20316 0.26016-0.11473 0.14309 0.0884 0.26016 0.21242 0.26016 0.27552s-0.11707 0.11473-0.26016 0.11473-0.26016-0.12399-0.26016-0.27552zm-2.895-0.41748c-0.32377-0.39248-0.30248-0.40376 0.22831-0.12093 0.60539 0.32258 0.75445 0.55376 0.35706 0.55376-0.12557 0-0.38899-0.19477-0.58537-0.43283zm3.107-0.0966c-0.88153-0.4656-1.5002-1.0316-1.1275-1.0316 0.18021 0 1.9009 0.89404 2.4765 1.2868 0.72189 0.4925-0.29904 0.29938-1.349-0.25519zm5.7067-0.0332c-0.80349-0.29346-0.95342-0.72906-0.26016-0.75588 0.36248-0.014 0.33597-0.0752-0.13008-0.29991-0.60692-0.29271-0.79135-0.72313-0.30985-0.72313 0.15154 0 0.20425-0.11531 0.11715-0.25624-0.099-0.16011 0.15448-0.19368 0.6755-0.0895 0.64159 0.12831 0.7862 0.0896 0.62713-0.16775-0.13792-0.22316-0.0864-0.29447 0.15467-0.21419 0.19878 0.0662 0.37498 0.37991 0.39156 0.69716 0.0267 0.51003-0.0637 0.55843-0.78049 0.41796-0.60751-0.11907-0.71284-0.0907-0.42039 0.11309 0.21464 0.14958 0.59513 0.27375 0.84553 0.27595 0.67381 0.006 0.55337 0.51925-0.13008 0.55448-0.4405 0.0227-0.47269 0.0596-0.13008 0.14916 0.25041 0.0654 0.45529 0.22747 0.45529 0.36006 0 0.28989-0.16995 0.28047-1.1057-0.0613zm3.3821-0.13712c-0.25041-0.0654-0.45529-0.22379-0.45529-0.3519 0-0.1281 0.20488-0.15821 0.45529-0.0669 0.40873 0.14906 0.40461 0.10832-0.0403-0.39841-0.48737-0.55505-0.48737-0.5645 0-0.56842 0.30552-0.002 0.38271-0.0773 0.20126-0.19512-0.16189-0.10513-0.2936-0.50938-0.29269-0.89834 0.002-0.61157 0.0679-0.67177 0.49119-0.44521 0.37906 0.20287 0.47962 0.52391 0.44563 1.4226-0.0242 0.63836-0.14891 1.1606-0.27724 1.1606-0.12834 0-0.16098 0.11708-0.0725 0.26017 0.0884 0.14309 0.12462 0.24658 0.0804 0.22998-0.0442-0.0166-0.28528-0.0837-0.53568-0.14916zm-12.423-0.60115c-0.35772-0.27981-0.5222-0.51136-0.36552-0.51454 0.15668-0.003 0.49678 0.22836 0.75577 0.51454 0.59321 0.65549 0.44775 0.65549-0.39025 0zm3.6423 0c-0.50081-0.27418-0.76047-0.50342-0.57701-0.50942 0.42507-0.0139 2.138 0.69626 2.138 0.88639 0 0.27616-0.65845 0.11714-1.561-0.37697zm0.78049-0.52032c-0.34688-0.22418-0.34688-0.2522 0-0.2522 0.21463 0 0.56585 0.11349 0.78049 0.2522 0.34688 0.22417 0.34688 0.25219 0 0.25219-0.21464 0-0.56586-0.11349-0.78049-0.25219zm-2.3415-0.27552c0-0.15154 0.11707-0.20316 0.26016-0.11473 0.14309 0.0884 0.26016 0.21242 0.26016 0.27552s-0.11707 0.11473-0.26016 0.11473-0.26016-0.12399-0.26016-0.27552zm-2.4262-0.30985c-0.41379-0.30283-0.40826-0.34773 0.0804-0.65261 0.30976-0.19328 0.52473-0.21992 0.52473-0.065 0 0.1443-0.14634 0.26609-0.32521 0.27064-0.18318 0.005-0.10466 0.17508 0.17981 0.39024 0.27775 0.21009 0.38794 0.38197 0.24485 0.38197s-0.46013-0.14634-0.70454-0.3252zm2.9466-0.2266c-0.50081-0.26842-0.72903-0.48822-0.50715-0.48844 0.52939-0.00052 1.8033 0.59564 1.8059 0.84512 0.003 0.27383-0.25401 0.20329-1.2988-0.35668zm1.8211-0.0986c-0.17813-0.21464-0.53072-0.39025-0.78352-0.39025-0.25281 0-0.73603-0.23411-1.0738-0.52026-0.5173-0.43819-0.5321-0.48774-0.0939-0.3141 1.8365 0.72764 2.7317 1.1808 2.7317 1.3829 0 0.3595-0.42173 0.27395-0.78049-0.15833zm1.2984-0.26303c-0.17682-0.21306-0.47489-0.38738-0.66238-0.38738s-0.90486-0.30186-1.5942-0.6708c-0.6893-0.36894-1.0191-0.59489-0.73295-0.50211 0.28618 0.0928 0.84228 0.23367 1.2358 0.31308 0.3935 0.0794 0.71545 0.24682 0.71545 0.37203 0 0.1252 0.20488 0.23136 0.45529 0.23591 0.59236 0.0108 1.4696 0.67739 1.1507 0.87446-0.13544 0.0837-0.39092-0.0221-0.56775-0.23519zm1.3032-0.2573c-0.17813-0.21463-0.51441-0.39102-0.7473-0.39196-0.23288-0.001-0.77465-0.23978-1.2039-0.53075l-0.78048-0.52905 0.78048 0.18057c0.42927 0.0993 0.85306 0.29114 0.94175 0.42628 0.0887 0.13514 0.38137 0.19946 0.65041 0.14294 0.4131-0.0868 0.36781-0.17179-0.29134-0.54676l-0.78049-0.44398 0.78049 0.17116c0.42927 0.0941 0.81951 0.27012 0.86721 0.39107s0.28184 0.22252 0.52032 0.2257c0.47246 0.006 1.9091 1.0196 1.4589 1.0291-0.15151 0.003-0.50273-0.1661-0.78049-0.37619-0.27775-0.21008-0.73915-0.38309-1.0253-0.38446-0.47549-0.002-0.46429 0.0414 0.13008 0.50627 0.48557 0.37982 0.54309 0.51022 0.22698 0.51454-0.23289 0.003-0.56918-0.16982-0.74731-0.38446zm7.4039-0.14739c-0.0943-0.15261-0.11569-0.33327-0.0475-0.40146 0.0682-0.0682 0.19331 0.0567 0.27805 0.27747 0.17591 0.45843 0.026 0.53907-0.23056 0.12399zm-4.8023-0.37568c-0.35772-0.18998-1.2003-0.61479-1.8723-0.94402-1.3216-0.64742-1.5258-0.95335-0.30766-0.46099 1.6177 0.65388 2.9604 1.37 2.9604 1.5787 0 0.25584 0.0489 0.26672-0.78049-0.17373zm-9.8862-0.12733c0-0.14309 0.18252-0.26017 0.4056-0.26017s0.33324 0.11708 0.24481 0.26017c-0.0884 0.14308-0.27096 0.26016-0.4056 0.26016-0.13465 0-0.24481-0.11708-0.24481-0.26016zm12.62-0.51735c-0.0911-0.14748 0.0133-0.19109 0.24481-0.10225 0.45071 0.17296 0.53317 0.35943 0.15895 0.35943-0.13465 0-0.31634-0.11573-0.40376-0.25718zm-3.514-0.68012c-0.6439-0.35949-0.93658-0.57506-0.6504-0.47905 0.28617 0.096 0.75447 0.241 1.0406 0.32218 0.53798 0.15261 1.3728 0.84308 0.99419 0.82225-0.11754-0.006-0.74054-0.30588-1.3844-0.66538zm5.2032-0.10335c0-0.14309 0.11708-0.26016 0.26017-0.26016s0.26016 0.11707 0.26016 0.26016-0.11707 0.26016-0.26016 0.26016-0.26017-0.11707-0.26017-0.26016zm-1.9494-0.25718c-0.0911-0.14748 0.0133-0.19109 0.2448-0.10225 0.45072 0.17296 0.53318 0.35943 0.15895 0.35943-0.13464 0-0.31633-0.11573-0.40375-0.25718zm2.3396-0.52331c-0.0884-0.14309-0.0368-0.26016 0.11472-0.26016 0.15154 0 0.27552 0.11707 0.27552 0.26016s-0.0516 0.26017-0.11472 0.26017c-0.0631 0-0.18709-0.11708-0.27552-0.26017zm0-0.78048c-0.0884-0.14309-0.0437-0.26017 0.0994-0.26017 0.14309 0 0.33252 0.11708 0.42095 0.26017 0.0884 0.14309 0.0437 0.26016-0.0994 0.26016-0.14309 0-0.33252-0.11707-0.42095-0.26016zm10.276-1.7765c-5.1965-2.1965-7.8739-3.441-13.789-6.4087-5.2806-2.6496-5.3565-2.6778-7.6748-2.8533l-2.3415-0.17729-3.8002 1.8355c-2.0901 1.0095-3.9173 1.8355-4.0605 1.8355-0.14319 0-0.75151-1.0722-1.3518-2.3826-1.2227-2.6692-1.2577-2.5496 0.95232-3.2582 0.75122-0.24087 1.3633-0.50437 1.3602-0.58556-0.003-0.08119-0.66117-0.6159-1.4624-1.1883-5.8296-4.1643-9.8811-13.372-11.009-25.02-0.42694-4.4094-0.36602-11.757 0.12042-14.524 1.8013-10.249 5.8981-18.091 18.349-35.122 2.6152-3.5772 5.0757-6.9494 5.4678-7.4937l0.71291-0.98965 0.98407 1.6401c0.54123 0.90203 3.0572 4.9794 5.591 9.0609 7.5162 12.107 10.451 17.468 12.814 23.408 2.8274 7.1067 3.4055 10.454 3.213 18.602-0.36152 15.302-3.216 24.411-8.766 27.972-2.1207 1.3609-2.6121 1.0624 7.2917 4.4291 3.3626 1.1431 6.2694 2.1349 6.4594 2.2041 0.2457 0.08943-0.42949 1.6302-2.3355 5.3294-1.4746 2.862-2.8009 5.1964-2.9473 5.1877-0.14639-0.009-1.8466-0.68395-3.7784-1.5005zm-16.54-22.238c3.5667-2.0902 5.648-8.7781 6.0978-19.594 0.38158-9.1756-0.24513-16.43-1.7836-20.645-1.7192-4.7107-4.6996-6.8268-8.4372-5.9904-3.7913 0.84846-6.3669 5.1255-7.6155 12.646-0.58748 3.5386-0.67268 15.983-0.13536 19.772 0.52549 3.7055 1.5511 7.6248 2.5252 9.6501 1.0449 2.1724 3.1793 4.3128 4.7349 4.7482 1.43 0.40024 3.3439 0.15644 4.6137-0.58771zm-58.676 12.48c-4.7221-1.3026-8.5092-5.5909-9.7079-10.993-0.58653-2.6432-0.54308-6.7813 0.09752-9.286 0.807-3.1553 2.1327-5.4359 4.5807-7.8801 1.8511-1.8482 2.5202-2.317 5.0879-3.5651 3.7626-1.8289 7.8179-2.8346 12.452-3.0883l1.1707-0.06408-0.05985-1.3008c-0.10363-2.2523-0.59354-3.5174-1.8743-4.8403-1.6058-1.6586-3.3563-2.1806-6.6426-1.9808-2.9277 0.17799-5.2675 0.75883-7.5796 1.8816-0.98423 0.47795-1.8276 0.83089-1.8742 0.78432-0.14826-0.14826-2.3922-8.4502-2.3922-8.8505 0-0.80819 4.601-2.5835 9.2087-3.5531 3.3993-0.71536 9.4526-0.7741 12.385-0.12016 6.4356 1.4353 10.367 5.4572 11.982 12.257 0.77459 3.2614 1.0175 8.4757 1.024 21.983 0.0053 10.875 0.18016 15.57 0.65651 17.626l0.13562 0.58537h-12.664l-0.31913-2.3969c-0.17552-1.3183-0.36044-2.4383-0.41092-2.4887-0.05049-0.05049-0.89382 0.70619-1.8741 1.6815-1.8787 1.8692-3.7648 2.9828-6.1091 3.6068-1.6964 0.4515-5.6401 0.45265-7.2733 0.0021zm10.644-10.447c1.5046-0.74976 2.6674-2.1883 3.1374-3.8815 0.16565-0.59667 0.28813-3.2465 0.28896-6.2517l0.0016-5.2161-0.97561 0.08569c-5.0224 0.44114-7.7131 1.8827-9.2174 4.9384-0.76338 1.5506-0.8433 1.9338-0.82445 3.9528 0.03108 3.3289 0.8847 5.2263 2.9071 6.462 1.3155 0.80375 2.9526 0.7724 4.6825-0.08964zm89.297 10.531c-4.1786-0.48415-7.7287-1.8924-10.745-4.2622-5.476-4.3028-8.3441-12.695-7.9132-23.153 0.56309-13.668 6.4984-22.963 16.301-25.531 2.0729-0.54294 6.5722-0.6071 8.5854-0.12244 4.5402 1.093 8.2824 4.1714 10.47 8.6129 2.2119 4.4898 3.0556 8.9828 3.0536 16.26-0.00078 2.5756-0.0739 5.122-0.16259 5.6585l-0.16126 0.97561h-24.814l0.21784 1.824c0.80734 6.7597 5.5907 9.989 13.543 9.1432 1.466-0.15592 3.5434-0.51042 4.6166-0.78777s2.1163-0.54458 2.318-0.59385c0.28216-0.0689 0.58769 1.0515 1.3236 4.8535l0.95674 4.9431-1.3236 0.46262c-2.135 0.74623-6.0188 1.448-9.6215 1.7384-3.7122 0.2993-3.8837 0.29875-6.6463-0.02133zm7.1404-33.334c-0.51294-6.0271-2.255-9.4749-5.0239-9.9427-3.7405-0.63196-6.6196 3.3289-7.2354 9.954l-0.17425 1.8749h12.594zm69.329 33.153c-6.0256-1.9871-9.9254-7.9316-11.635-17.735-0.55526-3.1849-0.62787-13.492-0.11548-16.393 1.0055-5.6932 2.9594-10.605 5.4329-13.659 3.8706-4.7777 9.7502-6.6708 14.823-4.7727 1.569 0.58706 3.7679 2.4506 4.242 3.5952 0.17935 0.43301 0.42897 0.78729 0.5547 0.78729 0.12831 0 0.2286-5.7069 0.2286-13.008v-13.008h13.74l0.15315 35.187c0.0842 19.353 0.22221 35.977 0.30658 36.943l0.15344 1.7561h-12.002l-0.12243-0.58537c-0.0673-0.32195-0.25728-1.6098-0.42208-2.8618s-0.37535-2.2733-0.46789-2.2694c-0.0925 0.0038-0.46093 0.48543-0.81865 1.0702-0.98148 1.6044-3.026 3.3164-5.2033 4.3572-1.805 0.86283-2.156 0.93786-4.6829 1.0011-2.0841 0.05213-3.0716-0.04376-4.1655-0.40449zm9.4228-11.021c1.3109-0.39275 2.7732-2.0349 3.4586-3.8838 0.48609-1.3114 0.51987-2.0457 0.51925-11.289-0.00078-9.8221-0.005-9.8963-0.62395-11.447-1.6818-4.2119-5.2162-5.209-7.8967-2.2276-2.3112 2.5706-3.1714 6.2703-3.1794 13.675-0.008 7.336 0.85909 11.094 3.1463 13.638 1.4922 1.6597 2.7502 2.0815 4.5759 1.5345zm-234.59 10.949c-1.574-0.133-3.0086-0.295-3.1879-0.361-0.2597-0.095-0.3127-7.319-0.2602-35.444l0.065974-35.325 2.6016-0.43927c1.4309-0.2416 4.967-0.56879 7.8579-0.72709 11.237-0.61531 18.016 0.71554 22.951 4.5059 6.984 5.364 8.0347 17.229 2.1506 24.287-1.3584 1.6293-3.7917 3.5474-5.5773 4.3963-1.1131 0.52914-1.2349 0.86897-0.39024 1.0888 0.32195 0.0838 1.6343 0.67708 2.9163 1.3184 4.1807 2.0914 7.3501 6.0346 8.6068 10.708 0.94818 3.5263 0.73078 8.5489-0.53151 12.28-0.92406 2.7313-2.0984 4.5163-4.6826 7.1178-1.7995 1.8115-2.8262 2.6061-4.4356 3.4332-2.3558 1.2106-5.6006 2.2223-9.0851 2.8328-2.8209 0.49422-14.615 0.69772-19 0.32783zm17.044-10.877c1.6036-0.48432 3.7214-1.9377 4.685-3.2153 1.5636-2.0731 1.9456-3.4897 1.9456-7.2166 0-3.1085-0.03618-3.3284-0.81984-4.9824-1.8798-3.9677-5.6001-6.0714-10.417-5.8906l-2.0312 0.07625-0.06791 10.712c-0.06363 10.036-0.03901 10.721 0.39024 10.848 0.72343 0.2141 5.3056-0.02612 6.3154-0.33108zm0.1545-32.61c1.7184-0.88933 3.5602-2.9523 4.3091-4.8266 0.85547-2.1408 0.85958-6.7999 0.0079-8.9294-0.72937-1.8236-2.0765-3.2342-3.875-4.0576-1.1613-0.53165-1.7839-0.63361-3.8434-0.62938-3.8806 0.008-3.5209-1.0094-3.5209 9.9596v9.3855l2.797-0.107c2.3888-0.09153 2.9906-0.20747 4.1256-0.79488zm153.86 21.96c0-11.71-0.077-23.418-0.17114-26.016l-0.17113-4.7246h11.983l0.14853 0.97561c0.0817 0.53658 0.22886 1.8244 0.32703 2.8618 0.0982 1.0374 0.20772 1.8862 0.24343 1.8862 0.0357 0 0.98644-0.92066 2.1127-2.0459 3.6221-3.6188 8.1505-5.2041 12.803-4.4823 5.195 0.80603 8.3322 3.433 10.172 8.5176 1.519 4.198 1.5745 5.1011 1.5756 25.653l0.001 18.667h-13.762l-0.0872-18.016c-0.0794-16.406-0.12843-18.14-0.54815-19.398-1.6495-4.9436-7.0026-5.2434-9.2306-0.51704-0.42475 0.90103-0.90164 2.2586-1.0598 3.0169-0.19266 0.92386-0.2875 6.9101-0.2875 18.146v16.768h-14.049z"/>
  <path id="path96" fill="#615d5e" d="m136.72 103.01c-0.28618-0.12905-2.2179-0.94735-4.2927-1.8184-2.0748-0.87108-6.9662-3.1802-10.87-5.1313l-7.0974-3.5475-2.2681-0.1506-2.2681-0.1506-3.7519 1.8919c-2.0636 1.0406-3.891 1.8919-4.0608 1.8919-0.1699 0-0.80007-1.0722-1.4004-2.3826-1.2227-2.6692-1.2577-2.5496 0.95232-3.2582 0.75122-0.24087 1.3633-0.50437 1.3602-0.58556-0.003-0.08119-0.66117-0.6159-1.4624-1.1883-5.8296-4.1643-9.8811-13.372-11.009-25.02-0.42694-4.4094-0.36602-11.757 0.12042-14.524 1.8013-10.249 5.8981-18.091 18.349-35.122 2.6152-3.5772 5.0757-6.9494 5.4678-7.4937l0.71291-0.98965 0.98407 1.6401c0.54123 0.90203 3.0572 4.9794 5.591 9.0609 7.5162 12.107 10.451 17.468 12.814 23.408 2.8274 7.1067 3.4055 10.454 3.213 18.602-0.36152 15.302-3.216 24.411-8.766 27.972-2.1207 1.3609-2.6121 1.0624 7.2917 4.4291 3.3626 1.1431 6.2694 2.1349 6.4594 2.2041 0.2457 0.08943-0.42949 1.6302-2.3355 5.3294-1.4746 2.862-2.8009 5.1957-2.9473 5.186-0.14639-0.01-0.50031-0.1232-0.78649-0.25226zm-19.53-23.508c3.5667-2.0902 5.648-8.7781 6.0978-19.594 0.38158-9.1756-0.24513-16.43-1.7836-20.645-1.7192-4.7107-4.6996-6.8268-8.4372-5.9904-3.7913 0.84846-6.3669 5.1255-7.6155 12.646-0.58748 3.5386-0.67268 15.983-0.13536 19.772 0.52549 3.7055 1.5511 7.6248 2.5252 9.6501 1.0449 2.1724 3.1793 4.3128 4.7349 4.7482 1.43 0.40024 3.3439 0.15644 4.6137-0.58771zm-58.676 12.48c-4.7221-1.3026-8.5092-5.5909-9.7079-10.993-0.58653-2.6432-0.54308-6.7813 0.09752-9.286 0.807-3.1553 2.1327-5.4359 4.5807-7.8801 1.8511-1.8482 2.5202-2.317 5.0879-3.5651 3.7626-1.8289 7.8179-2.8346 12.452-3.0883l1.1707-0.06408-0.05985-1.3008c-0.10363-2.2523-0.59354-3.5174-1.8743-4.8403-1.6058-1.6586-3.3563-2.1806-6.6426-1.9808-2.9277 0.17799-5.2675 0.75883-7.5796 1.8816-0.98423 0.47795-1.8276 0.83089-1.8742 0.78432-0.14826-0.14826-2.3922-8.4502-2.3922-8.8505 0-0.80819 4.601-2.5835 9.2087-3.5531 3.3993-0.71536 9.4526-0.7741 12.385-0.12016 6.4356 1.4353 10.367 5.4572 11.982 12.257 0.77459 3.2614 1.0175 8.4757 1.024 21.983 0.0053 10.875 0.18016 15.57 0.65651 17.626l0.13562 0.58537h-12.664l-0.31913-2.3969c-0.17552-1.3183-0.36044-2.4383-0.41092-2.4887-0.05049-0.05049-0.89382 0.70619-1.8741 1.6815-1.8787 1.8692-3.7648 2.9828-6.1091 3.6068-1.6964 0.4515-5.6401 0.45265-7.2733 0.0021zm10.644-10.447c1.5046-0.74976 2.6674-2.1883 3.1374-3.8815 0.16565-0.59667 0.28813-3.2465 0.28896-6.2517l0.0016-5.2161-0.97561 0.08569c-5.0224 0.44114-7.7131 1.8827-9.2174 4.9384-0.76338 1.5506-0.8433 1.9338-0.82445 3.9528 0.03108 3.3289 0.8847 5.2263 2.9071 6.462 1.3155 0.80375 2.9526 0.7724 4.6825-0.08964zm89.297 10.531c-4.1786-0.48415-7.7287-1.8924-10.745-4.2622-5.476-4.3028-8.3441-12.695-7.9132-23.153 0.56309-13.668 6.4984-22.963 16.301-25.531 2.0729-0.54294 6.5722-0.6071 8.5854-0.12244 4.5402 1.093 8.2824 4.1714 10.47 8.6129 2.2119 4.4898 3.0556 8.9828 3.0536 16.26-0.00078 2.5756-0.0739 5.122-0.16259 5.6585l-0.16126 0.97561h-24.814l0.21784 1.824c0.80734 6.7597 5.5907 9.989 13.543 9.1432 1.466-0.15592 3.5434-0.51042 4.6166-0.78777s2.1163-0.54458 2.318-0.59385c0.28216-0.0689 0.58769 1.0515 1.3236 4.8535l0.95674 4.9431-1.3236 0.46262c-2.135 0.74623-6.0188 1.448-9.6215 1.7384-3.7122 0.2993-3.8837 0.29875-6.6463-0.02133zm7.1404-33.334c-0.51294-6.0271-2.255-9.4749-5.0239-9.9427-3.7405-0.63196-6.6196 3.3289-7.2354 9.954l-0.17425 1.8749h12.594zm69.329 33.153c-6.0256-1.9871-9.9254-7.9316-11.635-17.735-0.55526-3.1849-0.62787-13.492-0.11548-16.393 1.0055-5.6932 2.9594-10.605 5.4329-13.659 3.8706-4.7777 9.7502-6.6708 14.823-4.7727 1.569 0.58706 3.7679 2.4506 4.242 3.5952 0.17935 0.43301 0.42897 0.78729 0.5547 0.78729 0.12831 0 0.2286-5.7069 0.2286-13.008v-13.008h13.74l0.15315 35.187c0.0842 19.353 0.22221 35.977 0.30658 36.943l0.15344 1.7561h-12.002l-0.12243-0.58537c-0.0673-0.32195-0.25728-1.6098-0.42208-2.8618s-0.37535-2.2733-0.46789-2.2694c-0.0925 0.0038-0.46093 0.48543-0.81865 1.0702-0.98148 1.6044-3.026 3.3164-5.2033 4.3572-1.805 0.86283-2.156 0.93786-4.6829 1.0011-2.0841 0.05213-3.0716-0.04376-4.1655-0.40449zm9.4228-11.021c1.3109-0.39275 2.7732-2.0349 3.4586-3.8838 0.48609-1.3114 0.51987-2.0457 0.51925-11.289-0.00078-9.8221-0.005-9.8963-0.62395-11.447-1.6818-4.2119-5.2162-5.209-7.8967-2.2276-2.3112 2.5706-3.1714 6.2703-3.1794 13.675-0.008 7.336 0.85909 11.094 3.1463 13.638 1.4922 1.6597 2.7502 2.0815 4.5759 1.5345zm-234.59 10.949c-1.574-0.133-3.0086-0.295-3.1879-0.361-0.2597-0.095-0.3127-7.319-0.2602-35.444l0.065974-35.325 2.6016-0.43927c1.4309-0.2416 4.967-0.56879 7.8579-0.72709 11.237-0.61531 18.016 0.71554 22.951 4.5059 6.984 5.364 8.0347 17.229 2.1506 24.287-1.3584 1.6293-3.7917 3.5474-5.5773 4.3963-1.1131 0.52914-1.2349 0.86897-0.39024 1.0888 0.32195 0.0838 1.6343 0.67708 2.9163 1.3184 4.1807 2.0914 7.3501 6.0346 8.6068 10.708 0.94818 3.5263 0.73078 8.5489-0.53151 12.28-0.92406 2.7313-2.0984 4.5163-4.6826 7.1178-1.7995 1.8115-2.8262 2.6061-4.4356 3.4332-2.3558 1.2106-5.6006 2.2223-9.0851 2.8328-2.8209 0.49422-14.615 0.69772-19 0.32783zm17.044-10.877c1.6036-0.48432 3.7214-1.9377 4.685-3.2153 1.5636-2.0731 1.9456-3.4897 1.9456-7.2166 0-3.1085-0.03618-3.3284-0.81984-4.9824-1.8798-3.9677-5.6001-6.0714-10.417-5.8906l-2.0312 0.07625-0.06791 10.712c-0.06363 10.036-0.03901 10.721 0.39024 10.848 0.72343 0.2141 5.3056-0.02612 6.3154-0.33108zm0.1545-32.61c1.7184-0.88933 3.5602-2.9523 4.3091-4.8266 0.85547-2.1408 0.85958-6.7999 0.0079-8.9294-0.72937-1.8236-2.0765-3.2342-3.875-4.0576-1.1613-0.53165-1.7839-0.63361-3.8434-0.62938-3.8806 0.008-3.5209-1.0094-3.5209 9.9596v9.3855l2.797-0.107c2.3888-0.09153 2.9906-0.20747 4.1256-0.79488zm153.86 21.96c0-11.71-0.077-23.418-0.17114-26.016l-0.17113-4.7246h11.983l0.14853 0.97561c0.0817 0.53658 0.22886 1.8244 0.32703 2.8618 0.0982 1.0374 0.20772 1.8862 0.24343 1.8862 0.0357 0 0.98644-0.92066 2.1127-2.0459 3.6221-3.6188 8.1505-5.2041 12.803-4.4823 5.195 0.80603 8.3322 3.433 10.172 8.5176 1.519 4.198 1.5745 5.1011 1.5756 25.653l0.001 18.667h-13.762l-0.0872-18.016c-0.0794-16.406-0.12843-18.14-0.54815-19.398-1.6495-4.9436-7.0026-5.2434-9.2306-0.51704-0.42475 0.90103-0.90164 2.2586-1.0598 3.0169-0.19266 0.92386-0.2875 6.9101-0.2875 18.146v16.768h-14.049z"/>
  <path id="path94" fill="#5f0b0b" d="m134.5 102.02c-5.2044-2.1697-7.255-3.1195-13.712-6.3509-6.2749-3.1405-6.305-3.1521-8.5854-3.3231-2.0601-0.15442-2.3966-0.11363-3.373 0.40906-2.7203 1.4562-6.9662 3.2854-7.049 3.0368-0.0501-0.15024-0.5527-1.2278-1.1169-2.3946-0.56424-1.1668-1.0259-2.1584-1.0259-2.2036 0-0.04519 0.76098-0.35082 1.6911-0.67916 0.93008-0.32835 1.691-0.67257 1.691-0.76494s-0.49756-0.52612-1.1057-0.96388c-7.4612-5.371-11.644-17.176-11.641-32.853 0.0027-12.924 4.1518-22.129 19.115-42.407 2.1645-2.9333 4.3154-5.8894 4.7798-6.5691 0.46436-0.67967 0.92648-1.2357 1.0269-1.2355 0.10045 0.0001454 0.52528 0.61478 0.94407 1.3659 0.4188 0.75107 2.7696 4.5851 5.2241 8.5201 8.0285 12.871 10.935 18.182 13.354 24.402 2.6057 6.7007 3.3142 10.961 3.0642 18.427-0.44648 13.334-2.4871 21.218-6.6422 25.66-0.85136 0.91011-1.9654 1.8796-2.4756 2.1543-0.51023 0.27478-0.92769 0.69604-0.92769 0.93615 0 0.49528 1.2355 0.97532 9.626 3.7401 2.9333 0.96657 5.4161 1.8043 5.5172 1.8616 0.18678 0.10581-5.0183 10.482-5.2571 10.48-0.0716-0.00052-1.4764-0.56246-3.122-1.2485zm-18.44-21.897c3.3885-0.94122 5.7922-6.0052 6.9033-14.543 0.61285-4.7093 0.61023-16.211-0.005-20.406-1.2183-8.3123-3.9768-12.136-8.7517-12.132-3.3584 0.0031-6.2369 3.0395-7.7653 8.1911-1.2653 4.265-1.465 6.2818-1.4678 14.829-0.003 8.7206 0.26032 11.366 1.5865 15.942 1.8562 6.4054 5.2439 9.3005 9.4996 8.1184zm-57.173 11.865c-5.078-1.232-8.978-5.689-10.134-11.586-0.59529-3.0352-0.3896-6.9518 0.51299-9.768 1.8451-5.7569 6.8658-10.19 13.693-12.092 2.1653-0.60302 6.5524-1.2944 8.2602-1.3018 1.1051-0.0048 1.1057-0.0053 1.1057-0.98872 0-1.4927-0.6196-3.5689-1.402-4.6979-0.38962-0.56223-1.3028-1.3414-2.056-1.7542-2.7929-1.5308-8.7363-1.051-12.89 1.0406l-1.7906 0.90172-1.2461-4.5707c-1.4235-5.2217-1.5753-4.5795 1.3863-5.8656 2.1017-0.91263 5.818-1.9086 8.5799-2.2995 2.8403-0.40198 9.2975-0.18105 11.35 0.38835 5.3375 1.4806 9.0384 5.1432 10.667 10.557 1.0327 3.4323 1.1857 5.8975 1.1952 19.252 0.0082 11.644 0.17976 17.051 0.66641 21.008l0.16797 1.3659h-12.278l-0.12552-0.58537c-0.06904-0.32195-0.25172-1.4585-0.40596-2.5257s-0.32932-1.9892-0.38907-2.0489c-0.05975-0.05975-0.4354 0.28497-0.83477 0.76603-2.1001 2.5296-4.5312 4.1012-7.3845 4.7738-1.9842 0.46772-4.7956 0.48091-6.6495 0.03121zm9.8691-10.128c1.3572-0.56873 2.5602-1.7484 3.2133-3.1507 0.5819-1.2496 0.61081-1.5796 0.61323-7l0.0026-5.6885-1.4959 0.17996c-4.6691 0.5617-7.4032 2.1201-8.8351 5.036-0.64132 1.306-0.72533 1.766-0.72118 3.9497 0.004 2.1205 0.10244 2.6815 0.6928 3.9494 0.95618 2.0537 2.382 3.075 4.293 3.075 0.77012 0 1.7769-0.15787 2.2374-0.35082zm166.72 10.086c-6.1322-1.6491-10.355-7.8058-12.015-17.518-0.68564-4.0106-0.90676-9.7884-0.52476-13.712 1.0304-10.583 4.757-17.677 10.881-20.712l2.24-1.1102h3.1658c3.1045 0 3.2005 0.01764 4.9517 0.91057 1.68 0.85656 2.3083 1.4581 3.8116 3.649 0.41814 0.60941 0.44237-0.05882 0.45529-12.56l0.0136-13.203h13.746l0.11994 36.228c0.066 19.925 0.2062 36.55 0.31165 36.943l0.19168 0.71545h-6.0141c-3.3077 0-6.0178-0.08781-6.0223-0.19512-0.0312-0.7398-0.74995-5.5929-0.84187-5.6848-0.0629-0.06292-0.43231 0.36601-0.82088 0.95317-1.6002 2.418-4.3895 4.4809-7.1567 5.2927-1.7298 0.50746-4.6127 0.50895-6.4927 0.0034zm9.6067-11.361c1.3668-0.68925 2.6635-2.64 3.0963-4.6579 0.16451-0.76709 0.27588-4.946 0.27588-10.352 0-8.2781-0.0444-9.2093-0.51145-10.721-1.188-3.8464-3.7824-5.4579-6.6732-4.1451-1.8844 0.85572-3.3526 3.4216-4.1812 7.3072-0.66999 3.1418-0.67668 12.477-0.0111 15.468 0.83772 3.7644 2.2503 6.1951 4.1453 7.1331 1.4287 0.7072 2.4101 0.69915 3.8594-0.03169zm-233.77 11.252c-1.5739-0.122-3.3593-0.296-3.9674-0.387l-1.1057-0.16495v-35.219c0-33.375 0.023939-35.226 0.45741-35.364 3.1684-1.0056 17.7-1.5461 22.37-0.83206 5.3712 0.82142 8.9441 2.4834 12.045 5.603 3.2205 3.2397 4.4928 6.5958 4.4959 11.86 0.0018 3.3271-0.44441 5.292-1.827 8.0425-1.1746 2.3367-4.4095 5.6112-6.8419 6.9256-0.93008 0.50259-1.6674 1.0127-1.6384 1.1336 0.02897 0.1209 0.96555 0.58957 2.0813 1.0415 2.4593 0.99609 3.6444 1.7818 5.6102 3.7198 2.6786 2.6406 4.0552 5.3835 4.7689 9.5021 1.0562 6.095-0.73463 12.423-4.7657 16.84-3.4213 3.7486-7.6497 5.747-14.642 6.9196-2.9291 0.49125-12.764 0.71002-17.041 0.37905zm16.313-11.156c4.897-1.911 7.302-8.023 5.488-13.949-0.872-2.851-2.662-4.862-5.528-6.213-1.523-0.718-2.014-0.813-4.631-0.9l-2.9268-0.09755v10.781c0 5.9298 0.0878 10.871 0.19512 10.979 0.10732 0.1089 1.4829 0.1484 3.0569 0.08777 2.1417-0.0825 3.235-0.25585 4.3451-0.68896zm-2.721-31.601c2.8608-0.59949 4.9716-2.4289 6.349-5.5024 0.8028-1.7914 0.98501-5.7686 0.36775-8.0269-1.113-4.0721-4.4068-6.2014-8.9914-5.8127-2.8826 0.24442-2.6016-0.82725-2.6016 9.9216 0 5.1836 0.07805 9.5028 0.17344 9.5982 0.28686 0.28686 2.9696 0.18545 4.7029-0.17777zm132.1 42.758c-6.9811-1.243-12.37-5.5908-14.966-12.074-3.4131-8.5238-2.9351-21.329 1.0983-29.422 2.6637-5.3451 6.2905-8.7665 11.238-10.602 1.809-0.67107 2.5722-0.79996 5.3613-0.90549 3.8989-0.14752 5.9317 0.24732 8.686 1.6871 6.6804 3.4921 10.031 11.987 9.7281 24.666-0.0617 2.5848-0.19798 4.8384-0.30287 5.0081-0.14276 0.23098-3.3002 0.30857-12.557 0.30857h-12.367l0.17525 1.3659c0.53232 4.1488 2.2834 7.0952 5.0578 8.5106 3.2042 1.6347 9.0679 1.6878 14.289 0.12948 0.76534-0.22845 1.4587-0.3482 1.5408-0.26611 0.15804 0.15804 1.8534 8.568 1.8706 9.2791 0.0117 0.48583-2.4728 1.2961-5.9736 1.9481-2.5628 0.47732-10.92 0.71537-12.878 0.3668zm8.6332-31.381c0.26596-0.69306-0.3775-5.5768-0.95519-7.2498-0.71135-2.0601-1.5989-3.2934-2.8936-4.0211-1.4336-0.80571-3.2188-0.65017-4.7377 0.41276-1.9813 1.3866-3.8191 6.183-3.8191 9.9676v1.3118h6.122c5.4019 0 6.141-0.04955 6.2836-0.42122zm15.335 7.6407c-0.0901-12.914-0.23629-24.621-0.32492-26.016l-0.16116-2.5366h11.945l0.31662 2.9192c0.17413 1.6056 0.37152 2.9741 0.43864 3.0412 0.0671 0.06712 0.31175-0.16359 0.54362-0.51268 0.23188-0.34909 1.1417-1.3372 2.0218-2.1957 1.7211-1.6789 4.1011-3.0365 6.3921-3.6461 1.7869-0.47551 5.9505-0.49301 7.6728-0.03225 4.6972 1.2566 7.813 4.9437 9.2844 10.987 0.54845 2.2524 0.56708 2.8689 0.66169 21.895l0.0974 19.577h-13.796l-0.0751-18.146c-0.0702-16.976-0.10641-18.23-0.56112-19.447-0.69022-1.8472-1.3861-2.7207-2.6101-3.2766-3.1074-1.4112-6.0047 0.38064-7.3178 4.5258l-0.64295 2.0297v34.314h-13.721z"/>
  <path id="path92" fill="#262122" d="m58.887 91.988c-5.078-1.232-8.978-5.689-10.134-11.586-0.59529-3.0352-0.3896-6.9518 0.51299-9.768 1.8451-5.7569 6.8658-10.19 13.693-12.092 2.1653-0.60302 6.5524-1.2944 8.2602-1.3018 1.1051-0.0048 1.1057-0.0053 1.1057-0.98872 0-1.4927-0.6196-3.5689-1.402-4.6979-0.38962-0.56223-1.3028-1.3414-2.056-1.7542-2.7929-1.5308-8.7363-1.051-12.89 1.0406l-1.7906 0.90172-1.2461-4.5707c-1.4235-5.2217-1.5753-4.5795 1.3863-5.8656 2.1017-0.91263 5.818-1.9086 8.5799-2.2995 2.8403-0.40198 9.2975-0.18105 11.35 0.38835 5.3375 1.4806 9.0384 5.1432 10.667 10.557 1.0327 3.4323 1.1857 5.8975 1.1952 19.252 0.0082 11.644 0.17976 17.051 0.66641 21.008l0.16797 1.3659h-12.278l-0.12552-0.58537c-0.06904-0.32195-0.25172-1.4585-0.40596-2.5257s-0.32932-1.9892-0.38907-2.0489c-0.05975-0.05975-0.4354 0.28497-0.83477 0.76603-2.1001 2.5296-4.5312 4.1012-7.3845 4.7738-1.9842 0.46772-4.7956 0.48091-6.6495 0.03121zm9.8691-10.128c1.3572-0.56873 2.5602-1.7484 3.2133-3.1507 0.5819-1.2496 0.61081-1.5796 0.61323-7l0.0026-5.6885-1.4959 0.17996c-4.6691 0.5617-7.4032 2.1201-8.8351 5.036-0.64132 1.306-0.72533 1.766-0.72118 3.9497 0.004 2.1205 0.10244 2.6815 0.6928 3.9494 0.95618 2.0537 2.382 3.075 4.293 3.075 0.77012 0 1.7769-0.15787 2.2374-0.35082zm166.72 10.086c-6.1322-1.6491-10.355-7.8058-12.015-17.518-0.68564-4.0106-0.90676-9.7884-0.52476-13.712 1.0304-10.583 4.757-17.677 10.881-20.712l2.24-1.1102h3.1658c3.1045 0 3.2005 0.01764 4.9517 0.91057 1.68 0.85656 2.3083 1.4581 3.8116 3.649 0.41814 0.60941 0.44237-0.05882 0.45529-12.56l0.0136-13.203h13.746l0.11994 36.228c0.066 19.925 0.2062 36.55 0.31165 36.943l0.19168 0.71545h-6.0141c-3.3077 0-6.0178-0.08781-6.0223-0.19512-0.0312-0.7398-0.74995-5.5929-0.84187-5.6848-0.0629-0.06292-0.43231 0.36601-0.82088 0.95317-1.6002 2.418-4.3895 4.4809-7.1567 5.2927-1.7298 0.50746-4.6127 0.50895-6.4927 0.0034zm9.6067-11.361c1.3668-0.68925 2.6635-2.64 3.0963-4.6579 0.16451-0.76709 0.27588-4.946 0.27588-10.352 0-8.2781-0.0444-9.2093-0.51145-10.721-1.188-3.8464-3.7824-5.4579-6.6732-4.1451-1.8844 0.85572-3.3526 3.4216-4.1812 7.3072-0.66999 3.1418-0.67668 12.477-0.0111 15.468 0.83772 3.7644 2.2503 6.1951 4.1453 7.1331 1.4287 0.7072 2.4101 0.69915 3.8594-0.03169zm-233.77 11.252c-1.5739-0.122-3.3593-0.296-3.9674-0.387l-1.1057-0.16495v-35.219c0-33.375 0.023939-35.226 0.45741-35.364 3.1684-1.0056 17.7-1.5461 22.37-0.83206 5.3712 0.82142 8.9441 2.4834 12.045 5.603 3.2205 3.2397 4.4928 6.5958 4.4959 11.86 0.0018 3.3271-0.44441 5.292-1.827 8.0425-1.1746 2.3367-4.4095 5.6112-6.8419 6.9256-0.93008 0.50259-1.6674 1.0127-1.6384 1.1336 0.02897 0.1209 0.96555 0.58957 2.0813 1.0415 2.4593 0.99609 3.6444 1.7818 5.6102 3.7198 2.6786 2.6406 4.0552 5.3835 4.7689 9.5021 1.0562 6.095-0.73463 12.423-4.7657 16.84-3.4213 3.7486-7.6497 5.747-14.642 6.9196-2.9291 0.49125-12.764 0.71002-17.041 0.37905zm16.313-11.156c4.897-1.911 7.302-8.023 5.488-13.949-0.872-2.851-2.662-4.862-5.528-6.213-1.523-0.718-2.014-0.813-4.631-0.9l-2.9268-0.09755v10.781c0 5.9298 0.0878 10.871 0.19512 10.979 0.10732 0.1089 1.4829 0.1484 3.0569 0.08777 2.1417-0.0825 3.235-0.25585 4.3451-0.68896zm-2.721-31.601c2.8608-0.59949 4.9716-2.4289 6.349-5.5024 0.8028-1.7914 0.98501-5.7686 0.36775-8.0269-1.113-4.0721-4.4068-6.2014-8.9914-5.8127-2.8826 0.24442-2.6016-0.82725-2.6016 9.9216 0 5.1836 0.07805 9.5028 0.17344 9.5982 0.28686 0.28686 2.9696 0.18545 4.7029-0.17777zm132.1 42.758c-6.9811-1.243-12.37-5.5908-14.966-12.074-3.4131-8.5238-2.9351-21.329 1.0983-29.422 2.6637-5.3451 6.2905-8.7665 11.238-10.602 1.809-0.67107 2.5722-0.79996 5.3613-0.90549 3.8989-0.14752 5.9317 0.24732 8.686 1.6871 6.6804 3.4921 10.031 11.987 9.7281 24.666-0.0617 2.5848-0.19798 4.8384-0.30287 5.0081-0.14276 0.23098-3.3002 0.30857-12.557 0.30857h-12.367l0.17525 1.3659c0.53232 4.1488 2.2834 7.0952 5.0578 8.5106 3.2042 1.6347 9.0679 1.6878 14.289 0.12948 0.76534-0.22845 1.4587-0.3482 1.5408-0.26611 0.15804 0.15804 1.8534 8.568 1.8706 9.2791 0.0117 0.48583-2.4728 1.2961-5.9736 1.9481-2.5628 0.47732-10.92 0.71537-12.878 0.3668zm8.6332-31.381c0.26596-0.69306-0.3775-5.5768-0.95519-7.2498-0.71135-2.0601-1.5989-3.2934-2.8936-4.0211-1.4336-0.80571-3.2188-0.65017-4.7377 0.41276-1.9813 1.3866-3.8191 6.183-3.8191 9.9676v1.3118h6.122c5.4019 0 6.141-0.04955 6.2836-0.42122zm15.335 7.6407c-0.0901-12.914-0.23629-24.621-0.32492-26.016l-0.16116-2.5366h11.945l0.31662 2.9192c0.17413 1.6056 0.37152 2.9741 0.43864 3.0412 0.0671 0.06712 0.31175-0.16359 0.54362-0.51268 0.23188-0.34909 1.1417-1.3372 2.0218-2.1957 1.7211-1.6789 4.1011-3.0365 6.3921-3.6461 1.7869-0.47551 5.9505-0.49301 7.6728-0.03225 4.6972 1.2566 7.813 4.9437 9.2844 10.987 0.54845 2.2524 0.56708 2.8689 0.66169 21.895l0.0974 19.577h-13.796l-0.0751-18.146c-0.0702-16.976-0.10641-18.23-0.56112-19.447-0.69022-1.8472-1.3861-2.7207-2.6101-3.2766-3.1074-1.4112-6.0047 0.38064-7.3178 4.5258l-0.64295 2.0297v34.314h-13.721z"/>
 </g>
</svg>
