<?xml version="1.0" encoding="UTF-8" standalone="no"?>
<svg id="svg24" xmlns:rdf="http://www.w3.org/1999/02/22-rdf-syntax-ns#" xmlns="http://www.w3.org/2000/svg" height="56.702" width="250" version="1.1" xmlns:cc="http://creativecommons.org/ns#" xmlns:xlink="http://www.w3.org/1999/xlink" viewBox="0 0 300 68.042862" xmlns:dc="http://purl.org/dc/elements/1.1/">
 <metadata id="metadata28">
  <rdf:RDF>
   <cc:Work rdf:about="">
    <dc:format>image/svg+xml</dc:format>
    <dc:type rdf:resource="http://purl.org/dc/dcmitype/StillImage"/>
    <dc:title>logo-color-h</dc:title>
   </cc:Work>
  </rdf:RDF>
 </metadata>
 <title id="title2">logo-color-h</title>
 <defs id="defs5">
  <path id="a" d="m24.602 40.577h-24.602v-40.577h49.204v40.577z"/>
 </defs>
 <g id="g22" fill="none" transform="matrix(1.3974 0 0 1.3974 25 5.6702)">
  <path id="path7" fill="#283c46" d="m172.54 19.144c-1.278 0-2.288 0.814-3.24 2.05v6.248c0.862 0.422 1.546 0.633 2.764 0.633 1.842 0 3.24-1.54 3.24-4.737 0-2.807-1.16-4.194-2.764-4.194zm0.09 11.828c-1.368 0-2.468-0.24-3.33-0.573v5.49l-3.565 0.545v-20.187h3.03l0.328 1.99c1.01-1.175 2.408-2.292 4.4-2.292 3 0 5.408 2.293 5.408 7.182 0 5.432-2.973 7.845-6.27 7.845zm-13.402-0.15v-9.536c0-1.267-0.446-2.142-1.753-2.142-1.1 0-2.14 0.724-3.18 1.81v9.868h-3.567v-9.536c0-1.267-0.475-2.142-1.782-2.142-1.1 0-2.14 0.724-3.18 1.81v9.868h-3.566v-14.575h3.03l0.328 2.052c1.337-1.3 2.793-2.355 4.725-2.355 2.05 0 3.15 0.935 3.686 2.354 1.278-1.3 2.853-2.355 4.785-2.355 2.705 0 4.042 1.66 4.042 4.376v10.502h-3.566zm-23.57-7.272c-4.13 0.512-5.11 1.75-5.11 3.137 0 1.057 0.653 1.69 1.753 1.69 1.218 0 2.378-0.573 3.358-1.57v-3.257zm0.506 7.272-0.297-1.902c-1.16 1.238-2.646 2.203-4.786 2.203-2.436 0-4.07-1.508-4.07-4.043 0-3.53 2.852-5.07 8.647-5.643v-0.423c0-1.57-0.89-2.172-2.466-2.172-1.664 0-3.24 0.482-4.784 1.177l-0.446-2.898c1.664-0.664 3.418-1.177 5.706-1.177 3.715 0 5.557 1.388 5.557 4.89v9.987h-3.06zm-14.768 0.27c-3.983 0-6.806-2.715-6.806-7.482 0-5.07 3.12-7.665 6.924-7.665 1.932 0 3.358 0.513 4.488 1.237l-0.505 3.26c-1.22-0.936-2.38-1.36-3.776-1.36-2.05 0-3.536 1.54-3.536 4.437 0 3.016 1.605 4.465 3.774 4.465 1.248 0 2.378-0.332 3.715-1.388l0.476 3.078c-1.457 1.026-2.943 1.418-4.755 1.418zm-14.61-12.642c-1.426 0-2.585 1.146-2.852 3.53h5.706c-0.237-2.263-1.13-3.53-2.853-3.53zm6.3 5.793h-9.212c0.18 2.837 1.666 4.074 3.864 4.074 1.843 0 3.36-0.694 4.933-1.81l0.417 2.836c-1.546 1.086-3.418 1.78-5.736 1.78-4.012 0-7.013-2.323-7.013-7.574 0-4.738 2.793-7.605 6.538-7.605 4.31 0 6.24 3.29 6.24 7.423 0 0.302-0.03 0.664-0.03 0.875zm-19.968 6.85c-2.08 0-4.22-0.664-5.588-1.418l0.476-3.018c1.545 1.026 3.447 1.72 5.23 1.72 1.546 0 2.378-0.573 2.378-1.508 0-1.027-0.623-1.45-2.91-2.023-3.478-0.906-4.934-1.93-4.934-4.587 0-2.505 1.96-4.285 5.29-4.285 1.872 0 3.595 0.362 5.022 1.026l-0.476 3.02c-1.426-0.816-3.12-1.33-4.547-1.33-1.337 0-1.99 0.514-1.99 1.33 0 0.783 0.534 1.206 2.673 1.78 3.715 0.965 5.172 1.99 5.172 4.736 0 2.867-2.02 4.557-5.795 4.557zm-11.379-7.543c-4.13 0.512-5.11 1.75-5.11 3.137 0 1.057 0.653 1.69 1.753 1.69 1.218 0 2.377-0.573 3.357-1.57zm0.506 7.272-0.298-1.902c-1.16 1.238-2.645 2.203-4.785 2.203-2.437 0-4.07-1.508-4.07-4.043 0-3.53 2.852-5.07 8.646-5.643v-0.423c0-1.57-0.89-2.172-2.466-2.172-1.664 0-3.24 0.482-4.785 1.177l-0.445-2.898c1.664-0.664 3.417-1.177 5.706-1.177 3.714 0 5.557 1.388 5.557 4.89v9.987h-3.06zm-18.425-9.416h-2.05v6.368h2.11c2.495 0 3.952-1.056 3.952-3.138 0-2.113-1.397-3.23-4.012-3.23zm-0.06-8.358h-1.99v5.522h1.812c2.318 0 3.537-1.056 3.537-2.836 0-1.66-0.98-2.686-3.358-2.686zm0.12 17.774h-5.884v-20.822h5.974c4.606 0 6.805 2.112 6.805 5.402 0 2.172-1.19 3.59-2.973 4.345 2.288 0.724 3.804 2.233 3.804 5.01 0 4.103-2.912 6.065-7.726 6.065z"/>
  <g id="g14">
   <mask id="b" fill="#fff">
    <use id="use9" xlink:href="#a" height="100%" width="100%" y="0" x="0"/>
   </mask>
   <path id="path12" fill="#b3dcff" mask="url(#b)" d="m24.603 0c-13.245 0-23.62 16.673-24.603 30.756 4.156 7.137 14.178 9.82 24.603 9.82 10.423 0 20.446-2.683 24.6-9.82-0.979-14.083-11.355-30.756-24.599-30.756"/>
  </g>
  <path id="path16" fill="#5ecc62" d="m39.936 17.506c-2.908-3.71-6.614-7.635-8.764-7.635s-8.156 10.525-10.912 10.525-4.188-4.79-7.577-4.77c-4.616 0.025-9.14 13.453-9.14 13.453s1.87 8.208 21.446 8.208c19.575 0 21.14-8.073 21.14-8.073s-2.016-6.374-6.194-11.707"/>
  <path id="path18" fill="#00ad45" d="m20.567 24.886c-3.04 0-4.598-2.968-5.443-4.8-0.76-1.65-0.892-4.257-3.048-4.33 0.212-0.083 0.416-0.132 0.607-0.132 3.39 0 4.82 4.77 7.577 4.77 2.756 0 8.763-10.523 10.912-10.523 0.405 0 0.86 0.142 1.356 0.393-0.366-0.047-0.835-0.014-1.197 0.345-0.694 0.687-7 14.278-10.763 14.278"/>
  <path id="path20" fill="#000" d="m14.11 27.932c0 1.355 1.112 2.453 2.48 2.453 1.37 0 2.48-1.098 2.48-2.453s-1.11-2.454-2.48-2.454c-1.368 0-2.48 1.1-2.48 2.454m16.023 0c0 1.355 1.11 2.453 2.48 2.453s2.48-1.098 2.48-2.453-1.11-2.454-2.48-2.454-2.48 1.1-2.48 2.454m-5.47 6.221c-3.477 0-5.056-2.507-5.12-2.614-0.22-0.357-0.105-0.822 0.255-1.038 0.36-0.215 0.827-0.104 1.046 0.25 0.055 0.087 1.23 1.89 3.82 1.89 2.672 0 3.66-1.824 3.668-1.842 0.194-0.37 0.655-0.515 1.03-0.323 0.373 0.192 0.52 0.647 0.325 1.018-0.057 0.108-1.433 2.658-5.024 2.658"/>
 </g>
</svg>
