<?xml version="1.0" encoding="UTF-8" standalone="no"?>
<!-- Created with Inkscape (http://www.inkscape.org/) -->
<svg id="svg3893" xmlns:rdf="http://www.w3.org/1999/02/22-rdf-syntax-ns#" xmlns="http://www.w3.org/2000/svg" height="158.72" viewBox="0 0 300 190.46591" width="250" version="1.1" xmlns:cc="http://creativecommons.org/ns#" xmlns:dc="http://purl.org/dc/elements/1.1/">
 <defs id="defs3895">
  <clipPath id="clipPath866" clipPathUnits="userSpaceOnUse">
   <path id="path868" d="m513.42 300.01h49.968v31.724h-49.968z"/>
  </clipPath>
 </defs>
 <metadata id="metadata3898">
  <rdf:RDF>
   <cc:Work rdf:about="">
    <dc:format>image/svg+xml</dc:format>
    <dc:type rdf:resource="http://purl.org/dc/dcmitype/StillImage"/>
    <dc:title/>
   </cc:Work>
  </rdf:RDF>
 </metadata>
 <g id="layer1" transform="translate(-428.97 -82.829)">
  <path id="path842" d="m703.97 257.42h-250v-158.72h250z" fill="#fff"/>
  <path id="path844" d="m458.71 103.12h136.74v149.59h-136.74z" fill="#e2001a"/>
  <path id="path846" d="m600.88 103.12h98.148v149.59h-98.148z"/>
  <g id="g848" transform="matrix(5.0032 0 0 -5.0032 700.94 129.16)">
   <path id="path850" d="m0 0h-0.383v5.206h-19.617v-5.206h-0.506v5.451h20.506z" fill="#fff"/>
  </g>
  <path id="path852" d="m699.02 129.16h-98.148v-26.047h98.148z" fill="#8b8c8e"/>
  <g id="g854" transform="matrix(5.0032 0 0 -5.0032 598.22 129.16)">
   <path id="path856" d="m0 0h-0.554v5.206h-27.33v-5.206h-0.213v5.451h28.097z" fill="#fff"/>
  </g>
  <path id="path858" d="m595.45 129.16h-136.74v-26.047h136.74z" fill="#ee8360"/>
  <path id="path860" d="m530 121.94h13.459v109.16h-13.459z" fill="#fff"/>
  <g id="g862" transform="matrix(5.0032 0 0 -5.0032 -2114.8 1758.4)">
   <g id="g864" clip-path="url(#clipPath866)">
    <path id="path870" d="m519.81 315.51h1.104v-7.533h-1.104zm0 8.886h1.104v-6.215h-1.104zm3.784-17.941c-0.002-0.652-0.525-1.176-1.172-1.177l-5.302-0.001 0.001 21.812h5.307c0.641-0.001 1.164-0.525 1.166-1.177v-7.645c0-0.616-0.505-1.114-1.121-1.114h-0.118c0.681 0 1.239-0.553 1.239-1.235v-0.479z" fill-rule="evenodd" fill="#fff"/>
    <path id="path872" d="m536.25 320.63h-1.104v-12.65h1.104zm2.689-15.357v21.82h-2.69v-3.797h-2.618c-0.64-0.002-1.161-0.526-1.163-1.177l-0.003-15.661c0.002-0.652 0.526-1.176 1.172-1.177z" fill-rule="evenodd" fill="#fff"/>
    <path id="path874" d="m524.76 327.09h2.69v-2.693h-2.69z" fill="#fff"/>
    <path id="path876" d="m524.76 323.29h2.69v-18.021h-2.69z" fill="#fff"/>
    <path id="path878" d="m540.54 308.46h3.189v-3.189h-3.189z" fill="#fff"/>
    <path id="path880" d="m549.32 320.63h-1.104v-12.65h1.104zm2.689-15.357v21.82h-2.69v-3.797h-2.618c-0.64-0.002-1.161-0.526-1.163-1.177l-0.003-15.661c0.002-0.652 0.526-1.176 1.172-1.177z" fill-rule="evenodd" fill="#fff"/>
    <g id="g882" transform="translate(554.34 323.3)">
     <path id="path884" d="m0 0 4.139-0.008c0.646-0.001 1.17-0.525 1.172-1.177l-0.002-9.381h-3.796v-4.749h1.106v3.683h2.69l-0.001-5.214c-0.002-0.651-0.522-1.175-1.163-1.177l-4.138 0.001c-0.647 0.002-1.171 0.525-1.172 1.177l0.003 15.668c0.001 0.652 0.522 1.175 1.162 1.177m2.619-2.665h-1.104v-5.072h1.104z" fill-rule="evenodd" fill="#fff"/>
    </g>
   </g>
  </g>
 </g>
</svg>
