<?xml version="1.0" encoding="UTF-8" standalone="no"?>
<!-- Created with Inkscape (http://www.inkscape.org/) -->
<svg id="svg2" xmlns:rdf="http://www.w3.org/1999/02/22-rdf-syntax-ns#" xmlns="http://www.w3.org/2000/svg" height="102.01" viewBox="0 0 301.20002 122.40938" width="251" version="1.1" xmlns:cc="http://creativecommons.org/ns#" xmlns:dc="http://purl.org/dc/elements/1.1/">
 <metadata id="metadata7">
  <rdf:RDF>
   <cc:Work rdf:about="">
    <dc:format>image/svg+xml</dc:format>
    <dc:type rdf:resource="http://purl.org/dc/dcmitype/StillImage"/>
    <dc:title/>
   </cc:Work>
  </rdf:RDF>
 </metadata>
 <g id="layer1" transform="translate(-62.5 -946.98)" fill="#008373">
  <path id="path2998" d="m88.1 957.68 20.177 7.0981v71.023l28.42-16.406-13.934-6.5377-8.7906-21.88 44.78 15.732v22.872l-50.464 29.107-20.189-11.23z"/>
  <g id="flowRoot3000" transform="matrix(2.1654 0 0 2.1654 -488.77 -2225)">
   <path id="path3009" d="m313.02 1507.1v-28.008h7.9688c2.4219 0.0001 4.3424 0.5925 5.7617 1.7774s2.1289 2.7279 2.1289 4.6289c-0.00002 1.5885-0.42971 2.9688-1.2891 4.1406-0.85939 1.1719-2.0443 2.0052-3.5547 2.5v0.078c1.888 0.2214 3.3984 0.9343 4.5312 2.1387s1.6992 2.7702 1.6992 4.6973c-0.00002 2.3958-0.8594 4.3359-2.5781 5.8203-1.7188 1.4844-3.8867 2.2265-6.5039 2.2265zm3.2812-25.039v9.043h3.3594c1.7969 0 3.2096-0.433 4.2383-1.2989 1.0286-0.8658 1.543-2.0865 1.543-3.6621-0.00002-2.7213-1.7904-4.082-5.3711-4.082zm0 11.992v10.078h4.45c1.9271 0 3.4212-0.4557 4.4824-1.3672 1.0612-0.9114 1.5918-2.1614 1.5918-3.75-0.00002-3.3073-2.2526-4.9609-6.7578-4.9609z"/>
   <path id="path3011" d="m336.08 1482.6c-0.57292 0-1.0612-0.1953-1.4648-0.5859-0.40365-0.3906-0.60547-0.8854-0.60547-1.4844 0-0.5989 0.20182-1.097 0.60547-1.4941 0.40364-0.3971 0.89192-0.5957 1.4648-0.5957 0.58593 0 1.084 0.1986 1.4941 0.5957 0.41015 0.3971 0.61523 0.8952 0.61524 1.4941-0.00001 0.573-0.20509 1.0612-0.61524 1.4649-0.41016 0.4036-0.90821 0.6054-1.4941 0.6054zm1.5625 24.447h-3.2031v-19.847h3.2031z"/>
   <path id="path3013" d="m359.41 1507.1h-3.2031v-11.26c0-4.2448-1.43-6.3672-4.5289-6.3672-1.6016 0-2.9264 0.6022-3.9746 1.8066-1.0482 1.2045-1.5723 2.7247-1.5723 4.5606v11.26h-3.2031v-19.847h3.2031v3.2522h0.0781c1.5104-2.5261 3.6629-3.7275 6.443-3.7275 2.1875 0 3.8607 0.7064 5.0195 2.1191 1.1588 1.4128 1.7383 3.4538 1.7383 6.1231z"/>
   <path id="path3015" d="m381.85 1505.4c0 7.3437-3.5156 11.016-10.547 11.016-2.474 0-4.5134-0.4405-6.3623-1.378l0.84027-2.7464s2.1713 1.4431 5.483 1.4431c4.9219 0 7.3828-2.5703 7.3828-7.8046v-2.1654h-0.0781c-1.5234 2.5521-3.6691 3.7952-6.729 3.7952-2.487 0-4.4889-0.7493-6.0059-2.5266-1.5169-1.7774-2.2754-4.1634-2.2754-7.1582 0-3.3984 0.81705-6.1003 2.4512-8.1055 1.6341-2.0052 3.8704-3.0078 6.709-3.0078 2.6953 0 4.5479 1.0807 5.85 3.2422h0.0781v-2.7602h3.2031zm-3.2031-7.3522v-2.7899c0-1.5886-0.53712-2.9492-1.6113-4.0821-1.0742-1.1328-2.3192-1.6992-3.9207-1.6992-1.9792 0-3.5286 0.7194-4.6484 2.1582s-1.6797 3.4538-1.6797 6.0449c-0.00001 2.2266 0.5371 3.8479 1.6113 5.1825 1.0742 1.3347 2.4967 2.002 4.2676 2.002 1.7969 0 3.1655-0.638 4.2918-1.9141 1.1263-1.276 1.6894-2.9101 1.6894-4.9023z"/>
  </g>
 </g>
</svg>
