<?xml version="1.0" encoding="UTF-8" standalone="no"?>
<!-- Created with Inkscape (http://www.inkscape.org/) -->
<svg id="svg3769" xmlns:rdf="http://www.w3.org/1999/02/22-rdf-syntax-ns#" xmlns="http://www.w3.org/2000/svg" height="41.539" width="250" version="1.1" xmlns:cc="http://creativecommons.org/ns#" xmlns:dc="http://purl.org/dc/elements/1.1/" viewBox="0 0 300 49.8466">
 <defs id="defs3771">
  <clipPath id="clipPath3414" clipPathUnits="userSpaceOnUse">
   <path id="path3416" d="m589.5 28.972h94.5v-16.035h-94.5z"/>
  </clipPath>
  <clipPath id="clipPath3420" clipPathUnits="userSpaceOnUse">
   <path id="path3422" d="m589.5 12.937h94.5v16.035h-94.5z"/>
  </clipPath>
  <clipPath id="clipPath3390" clipPathUnits="userSpaceOnUse">
   <path id="path3392" d="m589.5 28.972h94.5v-16.035h-94.5z"/>
  </clipPath>
  <clipPath id="clipPath3396" clipPathUnits="userSpaceOnUse">
   <path id="path3398" d="m589.5 28.656h94.48v-15.698h-94.48z"/>
  </clipPath>
  <clipPath id="clipPath3402" clipPathUnits="userSpaceOnUse">
   <path id="path3404" d="m589.5 12.937h94.5v16.035h-94.5z"/>
  </clipPath>
  <clipPath id="clipPath3362" clipPathUnits="userSpaceOnUse">
   <path id="path3364" d="m589.5 28.972h94.5v-16.035h-94.5z"/>
  </clipPath>
  <clipPath id="clipPath3368" clipPathUnits="userSpaceOnUse">
   <path id="path3370" d="m589.5 12.937h94.5v16.035h-94.5z"/>
  </clipPath>
 </defs>
 <metadata id="metadata3774">
  <rdf:RDF>
   <cc:Work rdf:about="">
    <dc:format>image/svg+xml</dc:format>
    <dc:type rdf:resource="http://purl.org/dc/dcmitype/StillImage"/>
    <dc:title/>
   </cc:Work>
  </rdf:RDF>
 </metadata>
 <g id="layer1" transform="translate(-292.39 -665.63)">
  <g id="g3358" transform="matrix(2.6461 0 0 -2.6461 -1242.5 745.61)">
   <g id="g3360" clip-path="url(#clipPath3362)">
    <g id="g3366" clip-path="url(#clipPath3368)">
     <path id="path3372" d="m626.56 27.217c0 0.79592 0.6424 1.4397 1.4332 1.4397 0.7935 0 1.4384-0.64376 1.4384-1.4397 0-0.79489-0.6449-1.4393-1.4384-1.4393-0.7908 0-1.4332 0.64444-1.4332 1.4393" fill="#273b7d"/>
     <path id="path3374" d="m649.22 17.641c0 0.79625 0.6421 1.4407 1.4329 1.4407 0.7932 0 1.438-0.64445 1.438-1.4407 0-0.79421-0.6448-1.4393-1.438-1.4393-0.7908 0-1.4329 0.64513-1.4329 1.4393" fill="#499fdd"/>
     <path id="path3376" d="m602.99 18.263c-1.2367 0-2.0961 0.98219-2.0961 2.3857 0 1.4032 0.8594 2.3847 2.0961 2.3847 1.2438 0 2.1127-0.98151 2.1127-2.3847 0-1.4257-0.8508-2.3857-2.1127-2.3857zm0 6.8671c-2.6164 0-4.5152-1.8852-4.5152-4.4814s1.8988-4.4811 4.5152-4.4811c2.6262 0 4.5329 1.8849 4.5329 4.4811s-1.9067 4.4814-4.5329 4.4814" fill="#273b7d"/>
     <path id="path3378" d="m623.78 20.424c-0.1017 0.19139-0.2183 0.35344-0.3425 0.48205l-0.0791 0.08393 0.0832 0.07983c0.1201 0.12657 0.2429 0.27668 0.3613 0.45066l2.3089 3.4324h-2.8029l-1.7348-2.6849c-0.0982-0.14397-0.2965-0.21664-0.5933-0.21664h-0.3954v5.0761c0 1.0153-0.6325 1.1534-1.3158 1.1534h-1.1698l0.002-11.982h2.4836v3.5941h0.2327c0.2831 0 0.4759-0.03275 0.5643-0.18661l1.3701-2.586c0.3827-0.70176 0.7641-0.82151 1.4816-0.82151h1.9033l-1.4175 2.3448-0.9399 1.7802" fill="#273b7d"/>
     <path id="path3380" d="m635.83 25.149c-1.2633 0-2.0694-0.5612-2.5211-1.0358l-0.1508-0.1525-0.0532 0.20742c-0.1327 0.50833-0.58 0.78808-1.2531 0.78808h-1.1131l0.007-8.6538h2.4667v3.9885c0 0.38994 0.0507 0.72836 0.1538 1.0371 0.2746 0.93443 1.0405 1.5154 1.9978 1.5154 0.77 0 1.0709-0.40632 1.0709-1.4564v-3.7691c0-0.89622 0.4145-1.3155 1.3114-1.3155h1.1739l-0.004 5.5039c0 2.1868-1.0665 3.3426-3.0855 3.3426" fill="#273b7d"/>
     <path id="path3382" d="m628.02 24.953h-1.1692l0.008-6.6911h-0.0008v-1.961h1.248c0.0157 0 0.0283-0.0017 0.044-0.0017l0.5813 0.0017h0.5786v0.0034h0.004l0.005 7.3348c0 0.88496-0.4231 1.3138-1.2981 1.3138" fill="#273b7d"/>
     <path id="path3384" d="m612.68 18.263c-1.2366 0-2.0977 0.98219-2.0977 2.3857 0 1.4032 0.8611 2.3847 2.0977 2.3847 1.2412 0 2.1125-0.98151 2.1125-2.3847 0-1.4257-0.8505-2.3857-2.1125-2.3857zm0 6.8671c-2.619 0-4.5182-1.8852-4.5182-4.4814s1.8992-4.4811 4.5182-4.4811c2.6235 0 4.5333 1.8849 4.5333 4.4811s-1.9098 4.4814-4.5333 4.4814" fill="#273b7d"/>
    </g>
   </g>
  </g>
  <g id="g3386" transform="matrix(2.6461 0 0 -2.6461 -1242.5 745.61)">
   <g id="g3388" clip-path="url(#clipPath3390)">
    <g id="g3394" clip-path="url(#clipPath3396)">
     <g id="g3400" clip-path="url(#clipPath3402)">
      <path id="path3406" d="m665.56 18.263c-1.2361 0-2.0978 0.98219-2.0978 2.3857 0 1.4032 0.8617 2.3847 2.0978 2.3847 1.2414 0 2.1131-0.98151 2.1131-2.3847 0-1.4257-0.8509-2.3857-2.1131-2.3857zm0 6.8671c-2.6184 0-4.5176-1.8852-4.5176-4.4814s1.8992-4.4811 4.5176-4.4811c2.6238 0 4.5332 1.8849 4.5332 4.4811s-1.9094 4.4814-4.5332 4.4814" fill="#499fdd"/>
      <path id="path3408" d="m644.12 18.644c-1.3486 0-1.8286 1.1766-1.8286 2.2793 0 0.4858 0.1228 2.0691 1.699 2.0691 0.7833 0 1.8272-0.22448 1.8272-2.1506 0-1.8166-0.9238-2.1977-1.6976-2.1977zm2.9783 6.3322c-0.4681 0-0.8283-0.18661-1.0088-0.52743l-0.0682-0.13236-0.1143 0.09927c-0.3982 0.34457-1.1121 0.75327-2.2714 0.75327-2.3066 0-3.8595-1.7324-3.8595-4.3105 0-2.575 1.6068-4.3746 3.9059-4.3746 0.7853 0 1.4059 0.1832 1.8978 0.55574l0.1904 0.14294v-0.24051c0-1.1558-0.7475-1.7935-2.1025-1.7935-0.6585 0-1.2579 0.16034-1.6587 0.30568-0.5234 0.15795-0.8301 0.02729-1.0423-0.49775l-0.1958-0.48444-0.277-0.70756 0.1716-0.09143c0.8672-0.46022 1.9961-0.73485 3.0165-0.73485 2.1008 0 4.5537 1.0753 4.5537 4.1014l0.009 7.9366h-1.146" fill="#273b7d"/>
     </g>
    </g>
   </g>
  </g>
  <g id="g3410" transform="matrix(2.6461 0 0 -2.6461 -1242.5 745.61)">
   <g id="g3412" clip-path="url(#clipPath3414)">
    <g id="g3418" clip-path="url(#clipPath3420)">
     <path id="path3424" d="m593.8 18.362-2.008 0.002v2.4007c0 0.5131 0.1989 0.77989 0.6386 0.84129h1.3694c0.9774 0 1.6089-0.61647 1.6096-1.6137-0.0007-1.0235-0.6165-1.6297-1.6096-1.6304zm-2.008 6.4762v0.63182c0 0.55301 0.234 0.81604 0.7475 0.84982h1.0275c0.8812 0 1.409-0.52743 1.409-1.4097 0-0.67276-0.3613-1.4578-1.3766-1.4578h-1.8074zm4.5725-2.3959-0.363 0.20401 0.3169 0.27088c0.3685 0.31693 0.9863 1.0293 0.9863 2.2602 0 1.8832-1.4608 3.0987-3.7217 3.0987h-2.5801v0.00068h-0.2938c-0.6703-0.02457-1.2066-0.56973-1.2141-1.2442v-10.69h1.1841c0.003-0.00068 0.004 0 0.005-0.00068l2.9499 0.00068c2.5133 0 4.1355 1.368 4.1355 3.487 0 1.1408-0.5243 2.1162-1.4055 2.6122" fill="#273b7d"/>
     <path id="path3426" d="m681.11 25.121c-1.0235 0-2.0129-0.47932-2.6481-1.2831l-0.1788-0.22653-0.1402 0.25348c-0.4568 0.8331-1.2432 1.2561-2.3366 1.2561-1.1466 0-1.9156-0.63966-2.2728-1.02l-0.2337-0.25314-0.09 0.33297c-0.1304 0.47932-0.5571 0.74338-1.2036 0.74338h-1.0368l-0.01-8.6203h2.3557v3.8052c0 0.33331 0.0413 0.66321 0.1248 1.0081 0.2252 0.91941 0.8431 1.9084 1.8819 1.8095 0.6407-0.06141 0.9535-0.55643 0.9535-1.5127v-5.1102h2.3724v3.8052c0 0.41655 0.0389 0.72837 0.1328 1.0412 0.191 0.87779 0.8361 1.7778 1.8384 1.7778 0.7253 0 0.9935-0.41075 0.9935-1.514v-3.8499c0-0.87097 0.3885-1.2602 1.2588-1.2602h1.1088l0.002 5.5032c0 2.1984-0.9679 3.314-2.8725 3.314" fill="#499fdd"/>
     <path id="path3428" d="m659.67 19.297c-0.007-0.0085-1.0207-1.0774-2.3553-1.0774-1.2159 0-2.4444 0.74611-2.4444 2.4116 0 1.438 0.9525 2.443 2.3158 2.443 0.4428 0 0.9463-0.15864 1.0251-0.42542l0.0116-0.04504c0.1815-0.60487 0.7312-0.63728 0.8393-0.63728l1.2906-0.0014v1.1282c0 1.4881-1.8928 2.0278-3.1666 2.0278-2.7238 0-4.7002-1.8965-4.7002-4.508 0-2.6105 1.9549-4.5043 4.6504-4.5043 2.3386 0 3.6104 1.5372 3.6223 1.5526l0.0679 0.08324-1.0221 1.6955-0.1344-0.14328" fill="#499fdd"/>
    </g>
   </g>
  </g>
 </g>
</svg>
