<svg viewBox="0 0 300 61.088" enable-background="new 0 0 3000 3000" width="250" height="50.907" xmlns="http://www.w3.org/2000/svg"><path fill="#192534" d="M264.447 53.64h-8.702V19.56h8.702v4.657c2.33-3.034 6.44-5.504 10.553-5.504v8.75c-.617-.142-1.44-.212-2.4-.212-2.877 0-6.714 1.694-8.153 3.881zM241.01 33.39c-.205-3.246-2.398-7.552-8.154-7.552-5.412 0-7.743 4.164-8.154 7.552zm-7.606 21.098c-10.072 0-17.678-6.987-17.678-17.924 0-9.879 7.058-17.852 17.13-17.852 9.868 0 16.582 7.622 16.582 18.77v1.976h-24.598c.548 4.304 3.906 7.903 9.524 7.903 2.81 0 6.714-1.27 8.84-3.387l3.837 5.786c-3.29 3.104-8.498 4.728-13.637 4.728zm-26.258-.847h-8.772V27.392h-5.481v-7.833h5.48v-1.834c0-7.268 4.523-11.854 11.17-11.854 3.152 0 6.51.845 8.635 3.174l-3.29 5.293c-.89-.917-2.055-1.412-3.632-1.412-2.398 0-4.11 1.623-4.11 4.8v1.833h6.714v7.833h-6.714zm-22.407 0h-8.772V27.392h-5.483v-7.833h5.483v-1.834c0-7.268 4.522-11.854 11.17-11.854 3.151 0 6.51.845 8.633 3.174l-3.288 5.293c-.892-.917-2.056-1.412-3.633-1.412-2.398 0-4.11 1.623-4.11 4.8v1.833h6.714v7.833h-6.714v26.249zm-19.685 0h-8.703v-4.305c-2.26 2.611-6.236 5.152-11.65 5.152-7.262 0-10.689-4.093-10.689-10.726V19.56h8.702v20.676c0 4.727 2.4 6.28 6.1 6.28 3.358 0 6.03-1.906 7.537-3.882V19.56h8.703V53.64zm-62.134-10.938c1.439 2.187 4.66 3.811 7.47 3.811 5.07 0 8.428-3.952 8.428-9.878 0-5.928-3.358-9.95-8.428-9.95-2.81 0-6.031 1.693-7.47 3.952zm0 10.938h-8.702V5.09h8.702v18.844c2.604-3.458 6.303-5.223 10.211-5.223 8.427 0 14.664 6.775 14.664 17.924 0 11.36-6.304 17.852-14.664 17.852-3.974 0-7.607-1.836-10.211-5.222z"/><g transform="matrix(.08363 0 0 .08363 25 -93.87)"><defs><filter id="a" filterUnits="userSpaceOnUse" x="-.006" y="1623.573" width="529.941" height="168.505"><feColorMatrix values="1 0 0 0 0 0 1 0 0 0 0 0 1 0 0 0 0 0 1 0"/></filter></defs><mask maskUnits="userSpaceOnUse" x="-.006" y="1623.573" width="529.941" height="168.505" id="b"><g filter="url(#a)"><path fill="#fff" d="M0 1792.079v-168.506h529.936v168.506z"/></g></mask><path mask="url(#b)" fill="#192534" d="M526.052 1655.512l-60.275-30c-5.177-2.585-13.634-2.585-18.812 0l-172.605 85.909c-5.156 2.585-13.634 2.585-18.79 0l-172.606-85.909c-5.178-2.585-13.634-2.585-18.812 0l-60.275 30c-5.177 2.584-5.177 6.786 0 9.348l251.693 125.281c5.156 2.584 13.634 2.584 18.79 0l251.692-125.281c5.177-2.562 5.177-6.764 0-9.348"/></g><g transform="matrix(.08363 0 0 .08363 25 -94.288)"><defs><filter id="c" filterUnits="userSpaceOnUse" x="-.006" y="1463.039" width="529.941" height="168.504"><feColorMatrix values="1 0 0 0 0 0 1 0 0 0 0 0 1 0 0 0 0 0 1 0"/></filter></defs><mask maskUnits="userSpaceOnUse" x="-.006" y="1463.039" width="529.941" height="168.504" id="d"><g filter="url(#c)"><path fill="#fff" d="M0 1631.544v-168.506h529.936v168.506z"/></g></mask><path mask="url(#d)" fill="#192534" d="M526.052 1494.977l-60.275-30c-5.177-2.584-13.634-2.584-18.812 0l-172.605 85.91c-5.156 2.562-13.634 2.562-18.79 0l-172.606-85.91c-5.178-2.584-13.634-2.584-18.812 0l-60.275 30c-5.177 2.584-5.177 6.786 0 9.371l251.693 125.258c5.156 2.584 13.634 2.584 18.79 0l251.692-125.258c5.177-2.585 5.177-6.787 0-9.371"/></g><g transform="matrix(.08363 0 0 .08363 25 -94.874)"><defs><filter id="e" filterUnits="userSpaceOnUse" x="-.009" y="1230.266" width="529.942" height="243.479"><feColorMatrix values="1 0 0 0 0 0 1 0 0 0 0 0 1 0 0 0 0 0 1 0"/></filter></defs><mask maskUnits="userSpaceOnUse" x="-.009" y="1230.266" width="529.942" height="243.479" id="f"><g filter="url(#e)"><path fill="#fff" d="M0 1473.745v-243.479h529.933v243.479z"/></g></mask><path mask="url(#f)" fill="#192534" d="M3.875 1356.328l251.692 115.644c5.156 2.364 13.634 2.364 18.79 0l251.693-115.644c5.178-2.386 5.178-6.265 0-8.63l-251.693-115.644c-5.156-2.386-13.634-2.386-18.79 0L3.875 1347.698c-5.178 2.365-5.178 6.244 0 8.63"/></g></svg>