<?xml version="1.0" encoding="UTF-8" standalone="no"?>
<svg id="svg14" xmlns:rdf="http://www.w3.org/1999/02/22-rdf-syntax-ns#" xmlns="http://www.w3.org/2000/svg" version="1.1" height="105.01" width="250" enable-background="new 0 0 120 60" xmlns:cc="http://creativecommons.org/ns#" xmlns:dc="http://purl.org/dc/elements/1.1/" viewBox="0 0 300 126.01601">
 <metadata id="metadata20">
  <rdf:RDF>
   <cc:Work rdf:about="">
    <dc:format>image/svg+xml</dc:format>
    <dc:type rdf:resource="http://purl.org/dc/dcmitype/StillImage"/>
    <dc:title/>
   </cc:Work>
  </rdf:RDF>
 </metadata>
 <g id="g12" fill="#24beca" transform="matrix(2.5183 0 0 2.5183 -1.1109 -4.8603)">
  <path id="path2" d="m39.2 38.1c-1.7 2.3-3.9 4.7-6.8 6.5-2.8 1.8-6 3.2-9.8 3.2-3.5 0-6.4-1.8-8-3.3-2.4-2.3-3.7-5.6-4.1-8.7-1.1-9.6 4.8-22.2 13.9-27.8 2.1-1.3 4.4-1.9 6.6-1.9 4.4 0 7.7 3.1 8.1 6.9 0.4 3.4-0.9 6.3-4.7 8.2-1.9 1-2.9 0.9-3.2 0.5-0.2-0.3-0.1-0.8 0.3-1.1 3.5-2.9 3.6-5.3 3.2-8.7-0.3-2.2-1.7-3.6-3.3-3.6-6.9 0-16.9 15.5-15.5 26.7 0.5 4.4 3.2 9.5 8.8 9.5 1.8 0 3.8-0.5 5.5-1.4 3.9-2 5.6-3.4 7.9-6.6 0.3-0.4 0.6-0.9 0.9-1.3 0.2-0.4 0.6-0.5 0.9-0.5s0.7 0.3 0.7 0.8c0 0.3-0.1 0.9-0.5 1.4-0.2 0.2-0.6 0.8-0.9 1.2z"/>
  <path id="path4" d="m49.7 43.8c-1.7 0-2.7-0.9-3.1-2.3-1.1 1.5-2.7 2.3-4.3 2.3-2.7 0-5.2-2.3-5.6-5.3-0.6-5.3 3.9-12.1 10.7-12.1 2.9 0 5.3 1.2 5.6 3.5 0.4 2.9-2.1 3.5-3 3.5-0.8 0-2.1-0.2-2.2-1s1.7-0.3 1.5-2.2c-0.1-1.2-1.3-1.6-2.5-1.6-4.2 0-6.5 5.8-6 9.4 0.2 1.6 1 3.2 2.5 3.2 1.2 0 3-1.7 3.6-4.3 0.4-1.7 2.1-2.9 3.3-2.9 0.6 0 1.1 0.3 1.2 0.9 0 0.2 0 0.5-0.1 0.9-0.1 0.8-0.7 3.2-0.7 3.8 0 0.5 0.3 1.1 1.1 1.1 0.9 0 5-2.4 7.3-5.6 0.2-0.3 0.6-0.5 0.9-0.5s0.7 0.2 0.7 0.6c0.1 0.4-0.1 0.9-0.6 1.6-2.6 3.8-8.3 7-10.3 7z"/>
  <path id="path6" d="m107 41.8c0.2 1.7 1 2.8 1.7 3.4 0.3 0.2 0.4 0.5 0.4 0.7 0.1 0.5-0.3 0.9-0.9 0.9-0.2 0-0.4 0-0.6-0.1-3-1.2-4.2-3.2-4.6-5.1-1.1 1.4-2.7 2.3-4.2 2.3-2.7 0-5.2-2.3-5.6-5.3-0.6-5.2 4.1-12 10.8-12 2.8 0 5.3 1.1 5.6 3.4 0.4 2.9-2.2 3.5-3 3.5-0.9 0-2.2-0.2-2.3-1-0.1-0.7 1.8-0.3 1.6-2.1-0.1-1.2-1.4-1.6-2.5-1.6-3.9 0-6.5 5.1-6 9.3 0.2 1.7 1 3.3 2.5 3.3 1.2 0 3-1.7 3.7-4.3 0.4-1.7 2.1-2.9 3.3-2.9 0.6 0 1.1 0.3 1.2 1 0 0.3-0.1 1.1-0.7 3.8-0.5 1-0.5 2-0.4 2.8z"/>
  <path id="path8" d="m71 40.8c0.9 0 3.9-1.1 6.3-4.4 0.3-0.3 0.6-0.5 0.9-0.5 0.4 0 0.7 0.2 0.8 0.6 0 0.3-0.2 0.9-0.7 1.6-2.7 3.8-7.3 5.7-9.3 5.7-2.1 0-3.2-1.3-3.4-3.2-0.1-0.6-0.1-1.4 0.1-2.2 0.7-4.3 2.3-6.9 2.2-7.7 0-0.2-0.2-0.3-0.3-0.3-1.3 0-6 4.8-6.7 8l-0.6 2.5c-0.4 1.8-2.1 2.9-3.3 2.9-0.6 0-1-0.3-1.1-0.9 0-0.2 0-0.5 0.1-0.9 0 0 2.3-11.8 2.4-12.4 0.3-1.4 0.8-2.8 3.6-2.8 0.6 0 1 0.3 1.1 1 0 0.2 0 0.5-0.1 0.9l-0.8 3.6c2.5-3.3 6.3-5.7 8.7-5.7 1 0 1.7 0.5 1.9 1.6 0.1 0.6-0.1 1.6-0.5 2.7-0.8 2.3-1.7 5.6-2.4 8.5-0.2 0.4 0 1.4 1.1 1.4z"/>
  <path id="path10" d="m86.8 27c0 1.6 0.8 3.3 1.8 4.4 0.4-1.1 0.6-2.2 0.6-3.3 0-2.1-0.8-3-1.4-3-0.7 0-1 1-1 1.9zm3.6 8.6c-0.3 0-0.6 0-1-0.1-2.6 3.8-5.3 6.4-7.4 7.5-0.9 0.5-1.7 0.7-2.3 0.7-0.5 0-1-0.1-1.2-0.5-0.9-1.6-1.3-4.7-1.3-8 0-2.4 0.2-4.4 0.6-5.8 0.5-1.5 2.4-2.9 3.6-2.9 0.6 0 1.1 0.3 1.1 1 0 0.2-0.1 0.5-0.2 0.8-0.9 2.5-1.3 4.9-1.3 7.3 0 1.3 0.3 3.5 0.6 4.6 0.1 0.2 0.1 0.5 0.3 0.5 0.4 0 3.1-2.7 5.1-5.9-1.7-1.1-2.7-3.1-2.7-5.6 0-4.2 2.5-6.3 4.9-6.3 1.9 0 3.6 1.4 3.6 4.2 0 1.7-0.7 3.7-1.7 5.6 0 0 0.4 0.1 0.6 0.1 1.5 0 2.7-0.7 3.3-1.4 0.5-0.5 0.9-0.9 1.3-0.9 0.3 0 0.4 0.2 0.4 0.5 0 0.2-0.1 0.5-0.2 0.8-1.4 2.3-4 3.8-6.1 3.8z"/>
 </g>
</svg>
