<?xml version="1.0" encoding="UTF-8" standalone="no"?>
<!-- Created with Inkscape (http://www.inkscape.org/) -->
<svg id="svg634" xmlns:rdf="http://www.w3.org/1999/02/22-rdf-syntax-ns#" xmlns="http://www.w3.org/2000/svg" height="82.895" viewBox="0 0 299.99998 99.474142" width="250" version="1.1" xmlns:cc="http://creativecommons.org/ns#" xmlns:dc="http://purl.org/dc/elements/1.1/">
 <title id="title646">Carrd</title>
 <metadata id="metadata640">
  <rdf:RDF>
   <cc:Work rdf:about="">
    <dc:format>image/svg+xml</dc:format>
    <dc:type rdf:resource="http://purl.org/dc/dcmitype/StillImage"/>
    <dc:title>Carrd</dc:title>
   </cc:Work>
  </rdf:RDF>
 </metadata>
 <path id="path644" stroke-width=".39999" d="m48.106 80.701-0.10673-10.484-11.5-4.8194-11.5-4.8194v-26.145c0-23.426 0.0649-26.145 0.62434-26.145 0.34338 0 4.2583 1.7344 8.6998 3.8541 4.4415 2.1198 11.765 5.606 16.275 7.7471 4.5099 2.1411 10.508 5.0046 13.329 6.3632 3.2762 1.5778 5.4041 2.383 5.8898 2.2289 0.41827-0.13276 4.8217-2.2089 9.7854-4.6137s9.4694-4.4838 10.013-4.6202l0.98769-0.24789-0.10289 26.3-0.10288 26.3-7.3998 3.5333c-4.0699 1.9433-10.28 4.9192-13.8 6.613-16.254 7.822-18.791 8.9991-19.852 9.2113l-1.1336 0.22673zm13.293 2.9616c5.8298-2.7971 14.47-6.9306 19.199-9.1855l8.5998-4.0999 0.10305-24.644c0.0567-13.554 0.047-24.644-0.0214-24.644-0.1143 0-16.312 7.748-30.281 14.484-3.1899 1.5383-6.5565 3.1286-7.4813 3.5339l-1.6814 0.73688 0.0416 24.641c0.0299 17.751 0.16456 24.588 0.48145 24.452 0.24194-0.10409 5.2098-2.4778 11.04-5.2748zm-3.1999-11.18c0-0.38854 2.5434-1.8386 7.0998-4.0478 15.128-7.3349 15.7-7.5652 15.7-6.3239 0 0.41347-2.6534 1.9058-7.8998 4.4432-14.238 6.886-14.9 7.1492-14.9 5.9285zm0.15395-11.57c-0.13903-0.3623-0.18554-0.72583-0.10337-0.80783 0.59431-0.59308 22.084-10.58 22.377-10.399 1.1082 0.68491-0.56721 1.7193-10.327 6.3761-12.791 6.1029-11.637 5.636-11.946 4.8307zm-0.083-12.097c0.085-0.44157 3.8222-2.4365 10.865-5.7998 5.9046-2.8197 11.003-5.1268 11.329-5.1268 0.34145 0 0.53792 0.2867 0.46301 0.67565-0.13859 0.71962-20.703 10.895-22.057 10.914-0.47086 0.007-0.68338-0.22831-0.59969-0.66286zm-10.071 13.71v-5.7623l-6.4397-2.5375c-3.5418-1.3956-6.5356-2.7746-6.6529-3.0644-0.57866-1.4298 0.83287-1.1673 6.8301 1.2701l6.2857 2.5546-0.11157-5.016-0.11156-5.016-6.3958-2.64c-4.4037-1.8177-6.4373-2.8558-6.5292-3.3328-0.0745-0.38677 0.11038-0.69275 0.41853-0.69275 0.30356 0 3.2315 1.08 6.5065 2.3999 3.275 1.32 6.0004 2.3999 6.0563 2.3999s0.15612-0.94498 0.22262-2.0999l0.1209-2.0999 2.5456-1.2919 2.5456-1.2919-3.7456-1.7345c-2.0601-0.954-6.2205-2.8748-9.2454-4.2685-5.0305-2.3177-6.1622-3.1564-5.1245-3.7977 0.20647-0.1276 1.5114 0.31222 2.8999 0.97737s5.8412 2.7091 9.8948 4.542l7.3703 3.3327 5.9494-2.8284 5.9494-2.8284-1.32-0.59848c-0.72598-0.32916-4.6499-2.199-8.7198-4.1552-12.552-6.0333-26.495-12.684-28.702-13.69l-2.103-0.95888 0.10305 24.608 0.10305 24.608 10.4 4.3673c5.7198 2.402 10.535 4.3763 10.7 4.3872 0.16499 0.011 0.29999-2.5731 0.29999-5.7424zm89.798 7.5904c-0.22-0.087-1.6769-0.53066-3.2376-0.98579-5.8784-1.7143-10.379-6.612-12.607-13.72-0.98134-3.1301-1.1544-4.3455-1.1535-8.1022 0.002-7.8644 2.2206-13.978 6.6364-18.285 2.3854-2.3266 3.8328-3.2604 6.9113-4.4585 1.9333-0.75242 3.0407-0.87598 7.8507-0.87598 5.2515 0 5.7436 0.06735 7.9103 1.0826 3.4058 1.596 5.7051 3.3912 7.2893 5.6913 1.7376 2.5229 3.1546 6.083 2.5659 6.4468-0.52712 0.32578-7.7966 2.1789-8.5474 2.1789-0.30775 0-1.0071-0.97749-1.554-2.1722-2.2019-4.8096-7.832-6.6927-12.654-4.2324-4.0236 2.0527-5.9007 5.632-6.2806 11.976-0.68251 11.397 3.3286 17.598 11.099 17.159 1.9962-0.11279 3.0272-0.39734 4.132-1.1404 1.8002-1.2107 3.7333-4.007 4.3482-6.2899 0.26943-1.0004 0.69475-1.7 1.0335-1.7 0.79345 0 8.1842 2.381 8.5736 2.7621 0.17349 0.16977-0.15536 1.5788-0.73078 3.1312-1.8553 5.0052-6.152 9.311-10.722 10.744-1.8742 0.58784-9.8986 1.1715-10.862 0.79009zm33.599-0.2186c-3.672-0.94402-5.8223-2.7617-7.0192-5.9336-1.3816-3.661-0.66696-7.3748 1.965-10.212 1.8644-2.01 3.634-2.6528 12.824-4.6587 3.8716-0.84505 4.8885-1.3127 4.6394-2.1337-0.0785-0.25891-0.25045-0.96246-0.382-1.5634-0.30377-1.3876-2.1477-2.3718-4.5884-2.4489-2.5779-0.08147-4.2793 0.7487-5.3165 2.5941-0.5695 1.0133-1.0904 1.4919-1.4978 1.3762-0.34354-0.0975-2.0178-0.3933-3.7206-0.65726s-3.2812-0.70312-3.5076-0.97591c-0.67497-0.81328 1.9038-5.326 3.9241-6.8669 2.513-1.9167 5.0502-2.5284 10.488-2.5284 6.9685 0 10.387 1.3504 12.417 4.9054 0.94525 1.6551 0.97309 1.9641 1.1971 13.294 0.19056 9.6371 0.3433 11.862 0.90277 13.148 0.37038 0.85185 0.67341 1.7068 0.67341 1.9 0 0.19313-1.9727 0.35115-4.3838 0.35115h-4.3838l-0.46199-1.542-0.46199-1.542-1.9847 1.3356c-3.3294 2.2406-7.7355 3.0803-11.323 2.158zm7.6434-6.6c3.3436-0.99295 4.9206-3.3867 4.9468-7.5092 0.005-0.82498-0.13815-1.5-0.31867-1.5-1.096 0-7.8399 1.6665-8.843 2.1852-3.067 1.586-2.6427 5.3168 0.77142 6.7823 0.76998 0.33052 1.4123 0.608 1.4274 0.61661 0.0151 0.009 0.92231-0.25011 2.0161-0.57493zm73.554 6.3505c-6.3241-2-9.8654-8.0766-9.8835-16.96-0.014-6.8645 1.8128-11.227 6.0268-14.394 2.5086-1.885 4.1616-2.4005 7.7063-2.4035 3.1447-0.0028 5.4506 0.73484 7.5862 2.4263l1.5638 1.2386v-7.6258c0-8.9019-0.50899-8.1517 5.3999-7.9586l3.5999 0.11762 0.10328 22.699 0.10331 22.699h-8.4064v-1.8c0-0.98997-0.135-1.7968-0.29999-1.793-0.165 0.004-0.74998 0.48309-1.3 1.0651-2.5324 2.6797-8.2454 3.9385-12.2 2.688zm9.6289-7.8361c2.2104-1.5146 3.109-3.6028 3.3038-7.6774 0.22799-4.7684-0.41003-7.4962-2.1633-9.2495-1.7265-1.7265-4.1624-2.445-6.2098-1.8316-1.8282 0.54774-4.1654 3.0707-4.7308 5.1068-0.61104 2.2005-0.52598 7.2558 0.16102 9.5692 1.385 4.6638 5.9618 6.6023 9.6391 4.0826zm-63.461 7.5097c-0.0917-0.0915-0.0767-7.5163 0.0333-16.5l0.2-16.333h7.9998l0.2 1.795 0.19999 1.795 0.82931-1.0591c1.6846-2.1514 3.6708-3.1316 6.3263-3.1221 2.3946 0.0086 6.0777 1.2117 5.7787 1.8876-0.0741 0.16748-0.73823 1.9523-1.4759 3.9663l-1.3412 3.6618-1.3458-0.56233c-3.1578-1.3194-6.0537-0.38489-7.1961 2.3222-0.61583 1.4593-0.74562 3.1778-0.86966 11.515-0.0802 5.3899-0.2211 10.025-0.31313 10.3-0.12017 0.35904-1.3924 0.49999-4.5131 0.49999-2.3902 0-4.4208-0.0748-4.5124-0.16628zm22.712-0.088c-0.15346-0.15347-0.27902-7.4268-0.27902-16.163 0-13.123 0.0973-15.965 0.5597-16.348 0.36123-0.2998 1.886-0.42354 4.2999-0.34897l3.7402 0.11554 0.2 1.8 0.19999 1.8 0.77283-1.1409c1.3548-2.0002 3.5046-3.059 6.2109-3.059 2.6862 0 5.6159 0.97877 5.6159 1.8762 0 0.78691-1.9976 6.5983-2.4726 7.1932-0.28467 0.35657-0.70318 0.33249-1.7383-0.1-3.0941-1.2928-5.4874-0.53202-6.6967 2.1287-0.7911 1.7406-0.88236 2.7649-1.0782 12.101l-0.21395 10.2-4.4208 0.11236c-2.4315 0.0618-4.5464-0.0132-4.6999-0.16666z"/>
</svg>
