<?xml version="1.0" encoding="UTF-8" standalone="no"?>
<!-- Created with Inkscape (http://www.inkscape.org/) -->
<svg id="svg8" xmlns:rdf="http://www.w3.org/1999/02/22-rdf-syntax-ns#" xmlns="http://www.w3.org/2000/svg" height="15.774mm" width="66.146mm" version="1.1" xmlns:cc="http://creativecommons.org/ns#" xmlns:dc="http://purl.org/dc/elements/1.1/" viewBox="0 0 79.374995 18.929084">
 <metadata id="metadata5">
  <rdf:RDF>
   <cc:Work rdf:about="">
    <dc:format>image/svg+xml</dc:format>
    <dc:type rdf:resource="http://purl.org/dc/dcmitype/StillImage"/>
    <dc:title/>
   </cc:Work>
  </rdf:RDF>
 </metadata>
 <g id="layer1" transform="translate(-36.829 -126.9)">
  <g id="g39" stroke-width=".26458" fill="#fff" transform="matrix(.093741 0 0 .093741 78.68 120.05)">
   <path id="path53" d="m121.11 257.85c-0.0818-0.21315 1.2445-3.5767 2.9473-7.4745 4.5812-10.486 12.521-28.663 16.785-38.424 2.062-4.7204 3.7714-8.6856 3.7987-8.8117 0.0273-0.12608-1.0859-0.61351-2.4738-1.0832-4.5015-1.5234-7.6451-4.1241-10.371-8.5795-0.8591-1.4044-3.3236-7.2392-7.8495-18.584-25.706-64.435-30.189-75.727-30.189-76.047 0-0.19838 0.18833-0.43296 0.41852-0.52129s7.2464-0.1606 15.592-0.1606c13.125 0 15.226 0.05349 15.569 0.39633 0.21799 0.21798 0.7557 1.3193 1.195 2.4474 0.43924 1.1281 1.8616 4.6704 3.1609 7.8719s3.7591 9.2736 5.4663 13.494c1.7072 4.2201 3.853 9.5184 4.7686 11.774 0.91548 2.2556 3.1544 7.792 4.9754 12.303 4.6599 11.544 9.5675 23.664 10.686 26.392 0.52232 1.2733 1.0318 2.3151 1.1321 2.3151 0.10033 0 0.48369-0.74414 0.85191-1.6536 0.57814-1.428 4.0433-9.4702 12.968-30.096 1.1648-2.6921 2.8062-6.5021 3.6476-8.4667 0.84135-1.9645 3.459-8.0367 5.817-13.494 2.358-5.457 5.486-12.72 6.9511-16.14 1.4651-3.4197 2.842-6.4261 3.0598-6.6807 0.36873-0.43122 1.463-0.46302 15.933-0.46302 12.707 0 15.591 0.06494 15.833 0.35655 0.32073 0.38646 1.0279-1.3048-16.501 39.463-5.1933 12.078-11.23 26.128-13.415 31.221-2.1849 5.0932-4.085 9.3795-4.2225 9.525-0.15743 0.16674-5.5118 0.3135-14.479 0.39687l-14.229 0.13229 2.5023 4.3656c1.3762 2.4011 4.9872 8.6925 8.0243 13.981 3.0371 5.2884 5.522 9.8983 5.522 10.244 0 0.34585-1.7391 4.5914-3.8647 9.4347-4.4086 10.045-7.5407 17.197-13.474 30.766-2.2906 5.2388-4.2822 9.6738-4.4257 9.8557-0.20363 0.258-3.7468 0.33073-16.112 0.33073-13.676 0-15.871-0.0532-16-0.38753zm-454.15-51.733c-6.1962-0.82159-11.605-2.4009-16.778-4.8984-13.201-6.3741-21.58-18.075-24.825-34.667-1.6553-8.4635-1.6078-29.234 0.0848-37.033 2.4662-11.363 6.2915-18.87 13.088-25.684 7.4393-7.4585 16.304-11.574 28.85-13.393 1.8348-0.26612 8.5138-0.34538 29.104-0.34538h26.723v28.576l-25.665 0.14815c-18.533 0.10698-26.127 0.23768-27.328 0.47032-4.2426 0.82188-8.2063 2.5557-10.553 4.6162-3.554 3.1205-5.9506 9.4318-6.7142 17.682-0.36432 3.936-0.20203 13.422 0.28441 16.624 1.5164 9.9806 5.0813 15.266 12.003 17.797 4.5588 1.6667 3.9073 1.6304 32.04 1.7867 23.096 0.12839 25.669 0.18442 25.741 0.56034 0.0781 0.40585-1.2649 2.2327-14.625 19.894l-6.35 8.3942-15.743-0.0246c-13.562-0.0211-16.241-0.0906-19.338-0.50125zm82.383-0.0312c-1.6889-0.64924-3.4534-2.3139-4.3206-4.0761l-0.64891-1.3187-0.0708-28.324-0.0708-28.324 13.472-12.29c7.4094-6.7593 13.414-12.349 13.344-12.422-0.0701-0.0728-6.1005-0.19182-13.401-0.26458l-13.273-0.1323v-28.834h29.501c32.249 0 31.381-0.03601 38.232 1.5868 13.766 3.2606 24.2 11.257 30.129 23.09 3.1494 6.2859 5.3564 14.617 6.2443 23.571 0.35127 3.5427 0.35102 16.646-0.00026 20.185-2.7969 28.167-17.316 44.299-42.848 47.608-3.5371 0.45839-5.8803 0.49742-29.376 0.48931-24.91-0.009-25.566-0.0217-26.913-0.5395zm52.048-28.666c5.3655-0.7237 9.0782-2.3304 11.927-5.1614 4.2778-4.2512 6.2388-10.825 6.5144-21.838 0.21647-8.6495-0.52303-14.76-2.3681-19.568-1.8285-4.7643-4.0495-7.3498-7.9724-9.2806-4.9756-2.449-8.4445-2.8294-24.77-2.7168l-11.509 0.0795-0.0673 29.435-0.0673 29.435 12.767-0.005c9.504-0.004 13.477-0.10094 15.545-0.37988zm61.815 28.629c-0.0877-0.32742-0.15941-10.299-0.15925-22.159 0.00022-16.62 0.0752-21.698 0.32712-22.15 0.17975-0.32234 6.5688-6.2755 14.198-13.229l13.871-12.643-13.871-0.0667c-12.666-0.0609-13.9-0.10549-14.202-0.51359-0.43218-0.58401-0.48726-44.009-0.0568-44.813 0.26548-0.49605 0.70285-0.51177 14.235-0.51177 10.506 0 14.039 0.07858 14.278 0.3175 0.24191 0.24191 0.31745 5.6118 0.31726 22.556l-0.00026 22.238 6.4164-0.063c12.853-0.12629 15.671-0.97233 18.65-5.5999 0.99883-1.5514 5.2532-9.758 14.484-27.939 3.0292-5.9664 5.6236-10.997 5.7653-11.179 0.20095-0.25786 3.6607-0.33073 15.703-0.33073h15.446v0.5661c0 0.74799-19.877 40.16-22.399 44.413-2.4508 4.1328-4.9411 7.4899-7.4563 10.052l-1.9458 1.9818 0.88535 0.64459c1.8407 1.3401 6.5073 6.3318 8.0596 8.6209 2.4508 3.6142 4.4466 7.2616 11.944 21.828 11.809 22.943 14.297 27.903 14.168 28.244-0.09795 0.25951-3.5372 0.33073-15.972 0.33073h-15.847l-0.37306-0.59531c-0.20521-0.32742-4.4444-8.4961-9.4204-18.153-4.976-9.6565-9.4718-18.221-9.9907-19.032-3.1196-4.8768-5.5562-5.9452-14.598-6.4013-2.8521-0.14384-7.0609-0.26319-9.3528-0.2652l-4.1672-0.004v21.806c0 11.994-0.0723 21.995-0.1606 22.225-0.14369 0.37445-1.6586 0.41851-14.389 0.41851h-14.228zm144.69 0.0613c-13.593-2.09-23.243-9.6-27.477-21.39-0.38425-1.0695-1.0244-3.4507-1.4225-5.2917l-0.72382-3.3472v-22.357c0-22.287 0.0026-22.367 0.60894-25.363 0.81584-4.0274 1.7257-6.8289 3.1481-9.6939 4.4581-8.979 12.867-15.103 23.77-17.309 4.8301-0.97754 9.2431-1.13 29.226-1.0094 20.334 0.12268 21.101 0.16881 26.723 1.6071 9.8283 2.5144 16.41 7.8162 20.365 16.404 2.5097 5.4503 3.6833 12.865 3.1581 19.954-0.30842 4.1631-0.45008 5.0397-1.3146 8.135-3.1244 11.188-10.968 18.193-23.099 20.63-5.5547 1.116-7.6416 1.1976-30.623 1.1976h-21.937v1.5404c0 3.2126 1.3999 5.4324 3.973 6.2999 1.3722 0.46265 3.2614 0.49654 34.785 0.62395 29.36 0.11867 33.341 0.18205 33.391 0.53161 0.03114 0.21828-5.4522 6.8858-12.185 14.817l-12.242 14.42-22.472 0.0434c-20.659 0.0399-22.728 0.004-25.647-0.44515zm43.108-64.68c2.1506-0.45561 2.905-0.89616 3.4978-2.0425 0.57047-1.1032 0.77073-3.7504 0.3901-5.1568-0.34473-1.2738-1.3432-2.5724-2.3969-3.1173-0.39809-0.20587-1.7202-0.49925-2.9381-0.65196-2.8227-0.35394-31.843-0.36704-34.898-0.0158-3.2289 0.3712-4.4067 1.0463-5.496 3.1504-0.83473 1.6125-0.8599 1.7571-0.8599 4.9452v3.2842l20.439-0.005c16.896-0.004 20.755-0.0715 22.262-0.39085zm181.52 64.888c-0.0696-0.1819-0.0956-6.8792-0.0578-14.883l0.0687-14.552 32.015-0.14046c32.653-0.14327 33.037-0.1558 34.358-1.1219 0.73853-0.54003 1.1168-3.6633 0.66424-5.4845-0.69041-2.7782-1.5577-2.9056-19.809-2.9093-7.7854-0.002-15.524-0.12831-17.198-0.28158-10.944-1.0024-19.535-5.0507-24.822-11.698-3.7688-4.7376-5.8053-10.485-6.3731-17.985-0.85574-11.305 2.2752-21.195 8.7938-27.778 5.1816-5.2323 12.431-8.1034 22.532-8.9236 5.2186-0.42376 62.606-0.37311 63.19 0.0558 0.41616 0.30558 0.44516 1.4371 0.38131 14.883l-0.0691 14.552-30.559 0.14119c-31.358 0.14487-31.397 0.14627-32.96 1.1701-1.0657 0.69827-1.5206 3.7704-0.89291 6.0305 0.597 2.1497 1.913 2.3038 19.736 2.3103 14.625 0.005 17.698 0.15014 22.584 1.064 5.3416 0.99899 11.201 3.4058 14.816 6.0854 3.1207 2.3135 6.271 5.9793 7.9124 9.2071 2.5293 4.974 3.4829 13.54 2.5536 22.939-1.4574 14.742-11.685 24.726-27.796 27.133-3.2624 0.48737-5.1262 0.5139-36.19 0.51505-25.957 0.001-32.777-0.0674-32.877-0.32951z"/>
   <path id="path51" d="m121.39 257.63c-0.0725-0.18899 2.2053-5.6966 5.0618-12.239 2.8565-6.5425 7.454-17.075 10.217-23.405 2.7627-6.3302 5.7384-13.142 6.6127-15.137 0.87434-1.9955 1.545-3.7624 1.4903-3.9264-0.0547-0.16407-1.1223-0.62724-2.3724-1.0293-1.2502-0.40202-2.9622-1.1253-3.8045-1.6072-2.7472-1.5718-5.7905-5.018-7.612-8.6195-0.37497-0.74144-3.714-8.9568-7.42-18.256-10.335-25.934-26.95-67.604-28.345-71.09-0.68612-1.7144-1.18-3.293-1.0975-3.5079 0.13028-0.33951 2.1719-0.38179 15.569-0.32246l15.419 0.06828 0.60246 1.1906c0.33136 0.65485 4.1574 10.001 8.5024 20.77s9.4196 23.33 11.277 27.914c1.8573 4.5839 5.0333 12.442 7.0579 17.462 2.0246 5.0205 3.7909 9.2392 3.9252 9.3751 0.13428 0.13582 0.30731 0.18374 0.38457 0.1065 0.12428-0.1243 2.2666-5.0236 7.2698-16.625 0.8472-1.9645 3.828-8.8702 6.6239-15.346 2.796-6.4757 5.772-13.381 6.6134-15.346 0.8414-1.9645 3.4604-8.0367 5.8198-13.494 2.3595-5.457 4.8249-11.172 5.4786-12.7 0.65373-1.528 1.3103-2.927 1.4591-3.1089 0.34377-0.42034 31.297-0.48912 31.556-0.07012 0.0886 0.14334-3.4871 8.7456-7.946 19.116-7.1152 16.549-14.426 33.557-23.515 54.707l-2.672 6.2177-14.352 0.0684c-10.16 0.0484-14.352 0.15286-14.352 0.35748 0 0.32858 0.89342 1.9181 9.6305 17.134 3.4566 6.0198 6.3399 11.088 6.4071 11.264 0.0673 0.17526-1.2022 3.3462-2.8209 7.0466-1.6188 3.7004-3.409 7.7995-3.9782 9.1092-0.56928 1.3097-4.1656 9.525-7.9919 18.256l-6.9568 15.875-15.806 0.0682c-12.765 0.0551-15.831 0.003-15.937-0.27538zm-449.25-51.172c-25.614-1.6848-41.54-15.272-46.575-39.736-0.84947-4.1272-1.1703-7.7999-1.3668-15.644-0.31699-12.658 0.83305-21.634 3.8577-30.11 2.3235-6.5111 5.5587-11.85 9.9432-16.409 6.5777-6.8398 14.475-11.01 24.86-13.128 5.6726-1.1571 8.1892-1.2402 34.945-1.1546l25.135 0.08042v28.046l-25.4 0.15909c-26.845 0.16814-26.606 0.15718-30.994 1.4255-2.1835 0.63111-5.2765 2.2959-6.8912 3.7091-3.4557 3.0244-5.6434 8.1714-6.7467 15.873-0.45153 3.152-0.45147 14.576 0.00009 17.727 1.966 13.721 7.3475 19.291 19.806 20.503 1.4308 0.13916 13.287 0.25609 26.348 0.25984 20.527 0.006 23.746 0.0587 23.746 0.38918 0 0.36992-19.204 25.995-20.583 27.465l-0.68254 0.7276-14.04-0.0477c-7.7218-0.0262-14.635-0.0868-15.362-0.13471zm77.999-0.30214c-2.614-0.9187-4.4091-2.6243-5.2535-4.9918-0.29319-0.82196-0.36075-6.1357-0.36938-29.052l-0.0106-28.046 13.487-12.303c7.418-6.7667 13.49-12.392 13.493-12.502 0.003-0.10914-5.8784-0.19843-13.07-0.19843-7.1914 0-13.264-0.0723-13.494-0.1606-0.37447-0.1437-0.41852-1.6623-0.41852-14.43v-14.273l29.964 0.09188c32.247 0.09888 31.098 0.05278 37.281 1.4961 17.882 4.1744 29.501 15.658 34.336 33.933 1.82 6.8798 2.5222 13.216 2.5165 22.708-0.005 7.5969-0.32024 11.653-1.3377 17.189-2.2364 12.168-6.5127 20.789-13.809 27.838-5.7468 5.5521-12.44 9.1099-21.085 11.207-7.4675 1.8118-7.2924 1.8024-35.454 1.8922-24.042 0.0766-25.474 0.0551-26.776-0.4026zm49.75-28.357c9.9283-0.96559 15.409-4.9262 18.132-13.102 2.8194-8.4656 2.8214-24.298 0.004-32.784-2.8419-8.5603-8.2172-12.301-18.842-13.111-5.1543-0.3932-25.649-0.35352-26.053 0.0504-0.24308 0.24308-0.3175 7.1213-0.3175 29.347 0 15.966 0.0723 29.218 0.1606 29.448 0.14325 0.37332 1.4649 0.41778 12.237 0.41169 6.642-0.004 13.247-0.12068 14.678-0.25984zm63.73 28.524c-0.47137-0.47137-0.45845-44.12 0.0132-44.709 0.1819-0.22735 5.2718-4.9162 11.311-10.42 6.0391-5.5034 12.435-11.353 14.213-12.999l3.2328-2.9925 5.8953-0.007c8.6601-0.01 12.496-0.45414 15.073-1.7453 2.6154-1.3102 4.0561-3.4375 9.206-13.594 1.8816-3.7108 6.0339-11.867 9.2273-18.124l5.8062-11.377 15.291-0.06832c8.4098-0.03757 15.393 0.03359 15.517 0.15815 0.12557 0.12556-0.88268 2.3958-2.263 5.0954-1.3692 2.6779-4.9407 9.7505-7.9367 15.717-11.65 23.2-13.149 25.887-17.307 31.027-1.091 1.3484-2.536 2.9304-3.2112 3.5155l-1.2277 1.0638 1.0583 0.82682c2.3272 1.8182 6.4284 6.2728 8.2335 8.9432 2.5784 3.8144 3.3089 5.1487 11.081 20.241 3.7472 7.276 8.6456 16.786 10.885 21.134 3.1901 6.1928 4.0069 7.9837 3.7708 8.2682-0.42418 0.51109-30.594 0.54239-31.257 0.0324-0.23646-0.1819-4.2586-7.7721-8.9382-16.867-4.6795-9.095-9.1597-17.699-9.9559-19.119-2.6326-4.6962-4.9272-6.5471-9.2817-7.4871-2.0016-0.43209-18.272-1.1144-19.461-0.81606l-0.71766 0.18012v21.902c0 16.682-0.0757 21.978-0.3175 22.22-0.45778 0.45779-27.482 0.45779-27.94 0zm147.94 0.0283c-9.98-0.89019-17.843-4.2216-23.631-10.012-4.5924-4.5945-7.2405-9.7441-8.7847-17.083l-0.613-2.91v-45.508l0.62174-2.8929c1.6294-7.5813 4.2357-12.643 8.8679-17.224 5.856-5.7903 13.287-8.9824 23.054-9.9034 3.8739-0.36529 38.731-0.36071 42.73 0.006 7.6075 0.69677 14.246 2.8738 18.918 6.2041 2.018 1.4385 5.2675 4.8017 6.7159 6.9509 2.5638 3.8042 4.3979 8.6794 5.2479 13.949 0.58304 3.6146 0.57658 11.046-0.0127 14.482-2.3098 13.475-10.575 21.894-24.057 24.507-1.4908 0.28892-3.0678 0.61244-3.5044 0.71894-0.43656 0.1065-11.628 0.26442-24.871 0.35092l-24.077 0.15728-0.081042 1.42c-0.1706 2.9888 1.4833 5.9086 3.7852 6.6825 0.85521 0.28751 7.5071 0.38275 34.66 0.49629 18.481 0.0773 33.632 0.16846 33.668 0.20265 0.03638 0.0342 0.06614 0.18776 0.06614 0.34129 0 0.30817-22.865 27.463-24.104 28.627l-0.77488 0.72761-20.699-0.0364c-11.385-0.02-21.791-0.13378-23.126-0.25283zm38.41-64.545c3.9839-0.57132 5.273-1.9283 5.2806-5.5586 0.0056-2.7365-0.78401-4.3134-2.638-5.2675l-1.308-0.66h-38.378l-1.5875 0.79375c-1.4018 0.70091-1.6803 0.97703-2.3813 2.3607-0.72607 1.4333-0.80132 1.8351-0.88241 4.7115-0.048736 1.7295-0.022754 3.3163 0.057864 3.5263 0.12586 0.328 2.951 0.38102 20.065 0.37651 11.893-0.003 20.664-0.11225 21.77-0.27084zm182.7 64.323c-0.357-0.66704-0.37131-28.293-0.0151-28.857 0.21997-0.34804 4.216-0.41315 32.474-0.52917 36.248-0.14881 33.871-0.007 34.484-2.0529 0.17401-0.58088 0.26852-2.0389 0.21518-3.3206-0.11268-2.7085-0.42-3.1534-2.6274-3.8041-1.2195-0.3595-4.0535-0.45279-18.767-0.61772-19.4-0.21747-20.194-0.28607-26.072-2.2528-8.7198-2.9174-15.126-8.4644-18.142-15.71-2.9473-7.0797-3.6399-17.352-1.6903-25.068 2.9981-11.865 10.436-19.174 22.407-22.017 5.1491-1.2229 5.2093-1.2248 38.975-1.2248h32.015l0.0684 14.535c0.0539 11.453-0.003 14.58-0.26459 14.746-0.18314 0.11628-13.906 0.21845-30.496 0.22705-27.717 0.0144-30.269 0.0522-31.475 0.46707-1.8525 0.63707-2.3844 1.6223-2.3862 4.4199-0.003 2.844 0.44077 3.661 2.3116 4.2658 1.2195 0.3943 3.5157 0.47226 18.982 0.64454 9.6771 0.10779 17.952 0.2766 18.389 0.37512 0.43657 0.0985 2.0135 0.41551 3.5044 0.70443 7.1624 1.388 13.443 4.5766 17.614 8.943 4.7078 4.9276 6.6774 9.8084 7.3459 18.204 0.29766 3.7379 0.28618 4.9087-0.0881 8.9958-0.47996 5.2402-1.163 8.0322-2.8483 11.642-3.4892 7.474-9.9011 12.873-18.581 15.645-6.4904 2.0732-8.0443 2.1492-43.914 2.1495-30.522 0.00022-31.151-0.01-31.419-0.51155zm-369.24-71.254c-0.0795-0.32869-0.1118-10.48-0.0718-22.558l0.0728-21.96h28.31v44.99l-14.083 0.0685-14.083 0.0685z"/>
   <path id="path49" d="m121.71 257.8c-0.097-0.097-0.1764-0.32763-0.1764-0.5125 0-0.18484 4.7766-11.268 10.615-24.628 13.556-31.025 13.013-29.748 12.756-29.967-0.12062-0.10274-1.2264-0.51051-2.4573-0.90614s-2.8808-1.0871-3.6665-1.5367c-2.8817-1.6487-5.9414-5.1136-7.7848-8.8157-0.3623-0.72761-1.4389-3.2874-2.3924-5.6885-0.95351-2.4011-7.8846-19.784-15.403-38.629-7.5179-18.845-14.901-37.358-16.407-41.139-1.9958-5.0122-2.6626-6.9662-2.4604-7.2099 0.21757-0.26216 3.5087-0.33337 15.26-0.33019 8.2405 0.0021 15.114 0.09152 15.274 0.19844 0.45741 0.30543 0.5048 0.41695 6.9942 16.466 3.3833 8.3674 7.0709 17.476 8.1946 20.241 1.1237 2.7649 3.8963 9.611 6.1612 15.214 9.1125 22.541 10.12 24.969 10.4 25.059 0.34795 0.11235-0.24588 1.4361 9.6392-21.487 4.3927-10.186 10.426-24.176 13.407-31.089 2.9811-6.9122 6.4948-15.068 7.8083-18.124 1.3135-3.0559 2.6252-5.7646 2.9149-6.0193 0.48832-0.42926 1.6132-0.46302 15.425-0.46302 8.1939 0 15.086 0.07227 15.317 0.1606 0.23019 0.08833 0.41852 0.29202 0.41852 0.45265s-1.0274 2.678-2.283 5.5941c-4.9428 11.479-22.888 53.236-27.123 63.114-2.4647 5.7481-4.6779 10.6-4.9183 10.782-0.33697 0.25498-3.6675 0.33073-14.542 0.33073-14.415 0-14.727 0.0212-13.87 0.93927 0.55557 0.5948 15.905 27.653 15.905 28.037 0 0.23378-1.0004 2.7096-2.2232 5.5018s-5.461 12.459-9.4182 21.481c-3.9572 9.0223-7.7291 17.654-8.382 19.182-0.65286 1.528-1.3585 3.046-1.5681 3.3734l-0.3811 0.59531h-15.428c-8.4853 0-15.507-0.0794-15.604-0.1764zm-452.48-51.706c-12.286-1.4689-21.182-5.0594-28.597-11.542-11.054-9.6645-16.496-24.832-16.511-46.026-0.0179-24.284 6.7595-40.282 21.163-49.955 5.5765-3.7451 12.804-6.36 21.299-7.7056 2.5902-0.41029 5.8336-0.47223 29.476-0.56292 21.669-0.08311 26.606-0.03815 26.785 0.24394 0.24929 0.39306 0.31363 26.933 0.0668 27.576-0.14482 0.37739-2.5563 0.41903-24.54 0.42368-26.027 0.006-27.745 0.0772-31.788 1.3272-8.518 2.6333-12.555 8.6904-13.898 20.853-0.44155 3.9985-0.20941 15.211 0.38155 18.429 1.9091 10.395 5.7751 15.4 13.659 17.684 4.0385 1.1699 5.6252 1.2322 31.394 1.233 15.82 0.00053 24.449 0.0928 24.554 0.26284 0.15803 0.2557-1.0443 1.8869-14.389 19.521l-6.4528 8.5272-15.375-0.0335c-8.4564-0.0184-16.209-0.13312-17.227-0.25491zm79.852-0.50711c-1.8311-0.91501-3.0615-2.1659-3.8886-3.9536-0.55391-1.1971-0.55753-1.3662-0.62795-29.292l-0.0708-28.087 13.548-12.394c7.4514-6.8166 13.595-12.542 13.652-12.722 0.0817-0.25784-2.8109-0.34303-13.477-0.39687l-13.581-0.0686v-28.3h28.707c22.117 0 29.345 0.07977 31.485 0.34748 19.597 2.4511 32.944 12.321 39.245 29.021 1.6164 4.2841 2.9483 9.8185 3.7887 15.743 0.55411 3.9062 0.77899 16.961 0.37477 21.756-2.4011 28.481-16.158 44.495-41.689 48.529-2.5894 0.40911-5.8292 0.47005-29.371 0.55252l-26.461 0.0927zm52.845-27.898c9.862-1.4867 14.795-6.1666 17.058-16.184 1.013-4.483 1.2672-7.9094 1.1204-15.1-0.10626-5.2044-0.25319-7.1959-0.70879-9.6069-1.5534-8.2203-4.5667-13.005-9.8053-15.57-4.9074-2.4028-7.93-2.7334-24.077-2.6329l-12.568 0.0782-0.0681 29.369c-0.0375 16.153-0.0114 29.518 0.0579 29.699 0.19483 0.51154 25.554 0.46555 28.991-0.0526zm61.816 28.517c-0.097-0.097-0.17639-10.137-0.17639-22.311v-22.134l11.422-10.431c6.2819-5.7373 12.741-11.647 14.354-13.134l2.932-2.7021 3.5719-0.0161c5.5871-0.0253 12.76-0.47378 14.674-0.91746 3.2185-0.74643 4.9392-1.9672 6.8558-4.8637 1.2924-1.9532 2.1566-3.6077 12.737-24.385 4.0386-7.9309 7.4609-14.569 7.6052-14.751 0.40576-0.51165 30.319-0.47986 30.516 0.03243 0.07665 0.19974-1.34 3.2656-3.148 6.813-1.8081 3.5474-6.576 12.962-10.595 20.921-9.3158 18.447-10.979 21.209-15.826 26.278l-2.3377 2.4453 1.5219 1.1484c3.5457 2.6755 6.8517 6.6158 9.9978 11.916 0.92977 1.5663 4.8665 9.0155 8.7482 16.554 3.8818 7.5382 8.8274 17.14 10.99 21.336 2.1629 4.1967 3.9325 7.7984 3.9325 8.0036 0 0.31704-2.3456 0.37324-15.578 0.37324-12.17 0-15.638-0.0726-15.853-0.33194-0.15153-0.18257-4.1667-7.8919-8.9226-17.132-4.7559-9.2399-9.3127-17.931-10.126-19.313-2.4591-4.1789-4.559-5.8681-8.403-6.7596-2.3262-0.53948-8.3577-0.90131-15.134-0.90787l-5.6224-0.005v21.806c0 11.994-0.0723 21.995-0.1606 22.225-0.14362 0.37424-1.6225 0.41852-13.979 0.41852-7.6 0-13.898-0.0794-13.995-0.17639zm145.48-0.21c-8.6948-1.201-15.373-4.1659-20.629-9.1592-4.8794-4.6349-7.6183-9.783-9.318-17.514l-0.7099-3.229-0.09798-20.827c-0.083-17.643-0.03559-21.306 0.31012-23.964 1.1885-9.1354 4.0412-15.315 9.5844-20.763 4.1144-4.0434 9.2453-6.8134 15.569-8.4052 5.1245-1.2899 6.9204-1.3639 30.427-1.2541l21.696 0.10132 3.18 0.70195c6.9045 1.5241 11.815 3.801 15.802 7.3273 3.2851 2.9055 6.8458 8.6453 8.2442 13.289 1.347 4.4734 1.6003 6.5246 1.5952 12.915-0.0042 5.1614-0.08342 6.3156-0.59626 8.6789-1.0635 4.9009-2.7174 8.6803-5.3488 12.223-5.0925 6.8563-13.109 10.626-24.728 11.627-1.8544 0.15981-12.115 0.27476-24.667 0.27635l-21.492 0.003-0.15206 0.60586c-0.25466 1.0146 0.3365 3.824 1.0997 5.2263 0.39658 0.72866 1.1087 1.5644 1.5824 1.8572 2.0915 1.2926 2.2133 1.2969 36.949 1.3018 26.636 0.004 32.478 0.0671 32.478 0.35203 0 0.30732-21.532 25.977-23.623 28.161l-0.82275 0.85989-21.975-0.0318c-15.904-0.023-22.632-0.12264-24.356-0.36069zm42.216-64.32c2.915-0.66301 3.9508-2.0793 3.9508-5.4025 0-2.9834-1.1041-4.8546-3.3784-5.7256-1.1501-0.44046-2.6283-0.48504-18.696-0.56381-11.495-0.0564-18.069 0.011-19.27 0.19732-4.3338 0.67241-5.9072 2.6479-6.1979 7.7819-0.085196 1.5045-0.076094 3.0494 0.020108 3.4332l0.17513 0.69781h20.779c17.992 0 21.025-0.0561 22.618-0.41834zm181.35 64.381c-0.0696-0.1819-0.0957-6.7601-0.0579-14.618l0.0688-14.288 32.015-0.13229c35.007-0.14466 33.445-0.0692 34.635-1.673 0.46853-0.63127 0.55428-1.1232 0.55343-3.175-0.003-3.1809-0.39105-3.9522-2.3159-4.583-1.2263-0.40195-3.3522-0.47622-18.321-0.64007-18.163-0.19882-19.784-0.30937-24.869-1.6963-5.9221-1.615-10.372-4.0489-14.248-7.7918-5.8629-5.6629-8.6374-13.276-8.6374-23.7 0-6.5712 1.0228-11.472 3.4234-16.404 4.0408-8.3014 10.628-13.26 20.518-15.444 4.8616-1.0739 6.4607-1.1164 39.026-1.0367l31.353 0.0767v28.84l-30.559 0.13978c-23.456 0.10729-30.786 0.21671-31.535 0.47076-1.1984 0.40673-2.2537 1.6129-2.4836 2.8385-0.0949 0.50596-0.12475 1.7666-0.0663 2.8013 0.0963 1.7048 0.18301 1.9499 0.92323 2.6113 1.3607 1.2158 2.8631 1.3248 18.262 1.3248 7.7159 0 15.545 0.12314 17.399 0.27364 15.87 1.2887 26.529 8.2616 30.117 19.702 1.422 4.5344 1.9705 10.259 1.526 15.927-0.35835 4.5688-0.64352 6.1802-1.6531 9.3408-2.4432 7.6488-7.3373 13.377-14.472 16.936-4.2011 2.0963-7.4754 3.0794-12.756 3.83-3.7663 0.53531-67.642 0.60068-67.846 0.0694zm-369.1-70.91c-0.0694-0.1819-0.0954-10.332-0.0578-22.556l0.0683-22.225 13.758-0.06919c12.699-0.06387 13.784-0.03452 14.089 0.3813 0.43212 0.5886 0.48718 43.483 0.0568 44.288-0.2654 0.4959-0.70053 0.51177-14.031 0.51177-10.762 0-13.785-0.072-13.884-0.33073z"/>
   <path id="path47" d="m121.54 257.45c0-0.14018 1.0595-2.6703 2.3544-5.6224s4.6396-10.606 7.4327-17.009c7.6704-17.584 9.1576-20.987 11.557-26.447 1.2122-2.7589 2.204-5.2249 2.204-5.4799 0-0.32434-0.33796-0.54952-1.1245-0.74926-5.7911-1.4707-9.8584-4.8311-12.738-10.524-0.38846-0.76808-5.7742-14.103-11.968-29.633-6.1941-15.53-14.304-35.857-18.021-45.17-3.7175-9.3133-6.8155-17.201-6.8845-17.529l-0.12544-0.59531h30.74l0.37219 0.7276c0.20468 0.40018 5.4038 13.17 11.554 28.377 6.1498 15.207 12.101 29.911 13.224 32.676 1.1237 2.7649 2.9671 7.319 4.0965 10.12 1.2336 3.0596 2.1951 5.0932 2.4082 5.0932 0.19503 0 0.47985-0.23403 0.63294-0.52007 0.25509-0.47663 6.6792-15.3 10.324-23.822 0.84018-1.9645 3.4577-8.0367 5.8166-13.494 4.0214-9.3028 7.4795-17.314 12.049-27.914 1.0666-2.4738 2.5839-5.9862 3.3719-7.8052l1.4327-3.3073h15.586c13.696 0 15.581 0.04812 15.544 0.39688-0.023 0.21828-4.168 9.9814-9.2112 21.696-8.5137 19.776-14.449 33.57-21.629 50.271-1.5954 3.7108-3.0235 6.8957-3.1735 7.0776-0.21201 0.25711-3.4424 0.33073-14.512 0.33073-7.8317 0-14.302 0.10041-14.377 0.22314-0.0759 0.12273 3.5618 6.6788 8.0837 14.569l8.2216 14.346-0.80796 1.9012c-0.44437 1.0457-1.512 3.5086-2.3724 5.4731-0.86048 1.9645-4.6947 10.716-8.5204 19.447-8.289 18.917-10.054 22.968-10.054 23.072 0 0.0432-7.0842 0.0785-15.743 0.0785-9.9196 0-15.743-0.0943-15.743-0.25489zm-451.1-51.369c-17.264-1.5329-30.173-8.8183-37.931-21.408-6.6-10.711-9.563-27.533-7.9912-45.37 0.60606-6.878 1.4445-11.144 3.3025-16.801 2.5723-7.8326 5.779-13.212 10.969-18.402 7.4948-7.4948 16.784-11.683 29.647-13.367 2.52-0.32997 52.539-0.69476 53.746-0.39196l0.62631 0.15719v27.762l-0.59531 0.13862c-0.32742 0.0762-12.085 0.17254-26.128 0.21401l-25.532 0.0754-2.3812 0.60823c-9.3666 2.3924-13.534 7.7236-15.396 19.693-0.64362 4.139-0.64726 14.728-0.006 18.836 1.7283 11.08 5.4194 16.358 13.222 18.908 4.3658 1.4264 3.9739 1.4073 31.218 1.5222 14.232 0.06 25.334 0.20833 25.334 0.33846 0 0.12742-0.75139 1.2217-1.6697 2.4318-0.91836 1.21-5.4009 7.1412-9.9613 13.18-4.5604 6.0391-8.5327 11.248-8.8274 11.576l-0.53587 0.59532-14.308-0.0364c-7.8691-0.02-15.43-0.13605-16.802-0.25787zm80.282 0.0533c-2.2858-0.5799-4.4487-2.4177-5.477-4.6538l-0.60837-1.3229-0.0743-27.583c-0.0594-22.036-0.006-27.707 0.26458-28.199 0.1864-0.33889 4.5692-4.4761 9.7395-9.1938s11.213-10.232 13.428-12.255c2.2148-2.0225 4.027-3.7787 4.027-3.9026 0-0.12391-6.0484-0.22528-13.441-0.22528-10.101 0-13.52-0.0789-13.758-0.3175-0.23868-0.23868-0.3175-3.6823-0.3175-13.872 0-12.196 0.0434-13.598 0.43284-13.987 0.39669-0.39669 2.7883-0.42371 28.641-0.32362 30.224 0.11702 30.777 0.13975 37.25 1.5315 13.461 2.8939 23.788 10.168 29.931 21.082 5.4874 9.7496 8.115 23.03 7.6295 38.562-0.60924 19.491-5.4376 32.736-15.356 42.122-6.763 6.4005-15.124 10.19-26.535 12.026-3.5724 0.57492-4.2263 0.58943-29.318 0.65034-14.116 0.0343-26.022-0.0283-26.458-0.13905zm52.054-28.415c8.5545-1.6846 12.873-5.3198 15.41-12.972 2.954-8.9089 2.9356-25.004-0.0381-33.338-2.4117-6.7594-6.063-10.085-13.186-12.011l-2.6458-0.71539-14.762-0.008-14.762-0.008 0.0165 29.621c0.0129 23.118 0.088 29.67 0.34177 29.842 0.17887 0.1217 6.4569 0.16997 13.951 0.10726 10.771-0.0901 14.055-0.1985 15.674-0.51721zm60.97 28.482c-0.0983-0.0983-0.17873-10.074-0.17873-22.169v-21.99l1.6536-1.6051c1.7982-1.7454 25.229-23.154 26.524-24.235l0.79375-0.66248 7.5406-0.15794c7.8906-0.16528 10.559-0.46918 12.792-1.4568 3.5384-1.5652 3.8504-2.0589 14.326-22.667 8.4957-16.714 10.506-20.515 10.986-20.771 0.30858-0.16514 5.9153-0.263 15.069-0.263 12.968 0 14.595 0.04561 14.736 0.41309 0.09514 0.24792-2.4088 5.511-6.2624 13.163-9.3427 18.552-14.223 28.11-15.426 30.212-2.5665 4.4861-6.4932 9.6326-8.9804 11.77-0.5457 0.46894-0.9874 0.98911-0.98155 1.1559 0.0058 0.16683 0.7338 0.8391 1.6176 1.494 3.3007 2.4455 7.315 7.3653 10.47 12.832 0.98145 1.7004 9.0606 17.293 16.999 32.808 1.787 3.4925 3.8954 7.5709 4.6855 9.063 0.79005 1.4922 1.3631 2.8316 1.2735 2.9766-0.19161 0.31004-30.515 0.3676-31 0.0588-0.16997-0.10812-4.1397-7.637-8.8216-16.731-11.275-21.901-11.998-23.154-14.229-24.695-3.2757-2.2617-5.7745-2.6615-16.725-2.6758l-8.8635-0.0116-0.13229 22.093-0.1323 22.093-13.778 0.0685c-7.5779 0.0377-13.858-0.012-13.957-0.11025zm147.19-0.12654c-11.541-1.1817-20.16-5.6503-25.899-13.428-2.9161-3.9518-4.7753-8.5732-5.8726-14.597-0.57804-3.1735-0.60341-3.9589-0.70736-21.892-0.06781-11.694-0.004-19.919 0.17201-22.152 0.5833-7.4024 2.4848-13.786 5.3968-18.117 5.3301-7.9278 12.561-12.365 23.603-14.484 1.7511-0.33598 5.6126-0.42614 22.357-0.52205 21.871-0.12528 24.946-0.008 30.152 1.1523 10.293 2.2937 16.914 7.1798 21.104 15.573 4.8451 9.7063 5.0091 24.414 0.37761 33.867-3.9094 7.9786-10.521 12.904-20.205 15.051-5.5456 1.2297-6.8438 1.2912-30.767 1.4585l-22.742 0.17 0.0211 1.85c0.036909 3.1952 1.3683 5.4287 3.8188 6.4059 1.1147 0.44451 3.2138 0.47762 34.516 0.54444 18.331 0.0391 33.432 0.17351 33.557 0.29863 0.20341 0.20341-22.198 27.059-23.803 28.536l-0.64691 0.59532-21.086-0.0352c-11.597-0.0193-22.098-0.13878-23.335-0.26544zm38.608-63.989c2.459-0.2827 4.3403-1.0652 5.0998-2.1211 0.7357-1.023 1.0843-3.4312 0.75464-5.2143-0.37301-2.0178-1.2708-3.3081-2.8391-4.0802l-1.2742-0.62737h-38.352l-1.4209 0.64161c-2.6993 1.2188-3.7384 3.549-3.7384 8.3828 0 2.6111 0.056674 2.9901 0.46302 3.0963 0.93483 0.2443 39.144 0.17242 41.32-0.0777zm183.28 63.881c-0.0905-0.23597-0.16462-6.715-0.16462-14.398 0-11.294 0.0673-14.025 0.35158-14.261 0.25093-0.20824 9.5125-0.31221 32.345-0.36312 35.91-0.0801 33.566 0.0538 34.409-1.9639 0.61193-1.4646 0.42138-5.3548-0.31025-6.3341-1.1283-1.5104-1.1832-1.5153-18.906-1.709-19.418-0.2122-22.019-0.44277-28.22-2.5024-11.622-3.8596-18.088-11.508-20.238-23.942-0.50654-2.9287-0.42865-11.169 0.13449-14.224 1.2031-6.5254 3.8396-11.883 7.9561-16.166 5.0521-5.2571 11.905-8.1256 21.583-9.0341 2.0318-0.19072 13.152-0.25998 33.47-0.20847l30.427 0.0771v28.84l-30.692 0.13229c-30.028 0.12943-30.714 0.14374-31.743 0.66146-1.5714 0.79123-2.0926 1.903-2.0987 4.4773-0.004 1.5239 0.12571 2.3818 0.45056 2.9893 1.0347 1.9351 1.3072 1.963 21.22 2.1798 16.42 0.1787 17.641 0.22457 20.455 0.76801 11.24 2.1709 18.798 7.089 22.931 14.921 4.0034 7.5875 4.6057 20.12 1.427 29.698-3.5448 10.681-12.152 17.522-25.206 20.035-2.8861 0.55569-3.5192 0.56725-36.177 0.66049-30.463 0.087-33.253 0.0591-33.404-0.33412zm-369.07-70.93c-0.097-0.097-0.17639-10.074-0.17639-22.172 0-16.755 0.0756-22.071 0.3175-22.313 0.23852-0.23851 3.6229-0.3175 13.604-0.3175 7.3078 0 13.475 0.07227 13.705 0.1606 0.37706 0.14469 0.41852 2.3725 0.41852 22.49v22.329h-13.847c-7.6156 0-13.926-0.0794-14.023-0.17639z"/>
   <path id="path45" d="m121.8 257.29c0-0.23307 0.99997-2.7036 2.2222-5.4901s4.5077-10.305 7.3012-16.708c7.2799-16.686 9.2392-21.172 11.793-27.001 1.2466-2.8449 2.224-5.3003 2.172-5.4564-0.052-0.15609-1.097-0.5732-2.3222-0.92691-1.2252-0.3537-2.9191-1.0116-3.7642-1.4621-2.9872-1.5922-6.0033-4.9468-7.9815-8.8775-0.38487-0.76471-4.4356-10.766-9.0017-22.225-4.566-11.459-12.714-31.898-18.106-45.42-5.3924-13.522-9.7434-24.684-9.669-24.805 0.0744-0.12039 6.9121-0.2189 15.195-0.2189h15.06l0.40108 0.61212c0.22059 0.33667 2.0558 4.7122 4.0781 9.7234 3.7477 9.2862 13.786 34.102 19.206 47.476 1.651 4.0746 4.0349 9.9682 5.2975 13.097 2.3241 5.759 2.817 6.6833 3.3042 6.1961 0.2517-0.25171 2.038-4.3196 8.9949-20.484 1.7224-4.0018 5.0618-11.741 7.4209-17.198 2.3592-5.457 4.6178-10.696 5.0192-11.642 2.3531-5.5445 10.876-25.215 11.408-26.326l0.63204-1.3229 15.287-0.0683c12.181-0.05442 15.313 0.000122 15.416 0.26845 0.0711 0.18521-3.6313 9.0861-8.2275 19.78-15.299 35.595-23.36 54.341-24.518 57.014l-1.1457 2.6458-14.51 0.0684c-13.982 0.0659-14.505 0.0863-14.382 0.55905 0.11031 0.42171 3.241 5.9428 13.921 24.55 1.1828 2.0607 2.1505 3.9534 2.1505 4.206 0 0.25262-0.76169 2.198-1.6926 4.3231-1.8961 4.3282-10.386 23.717-15.42 35.217-1.8156 4.1474-3.583 8.1657-3.9274 8.9297l-0.62626 1.3891h-15.493c-14.031 0-15.493-0.04-15.493-0.42373zm-454.14-51.6c-6.4972-0.83211-11.887-2.392-17.215-4.9828-14.779-7.1862-22.732-19.699-25.567-40.228-0.852-6.1694-0.85438-17.928-0.005-24.169 2.4512-18.008 8.7722-29.626 20.367-37.437 4.3066-2.901 9.5404-5.1469 15.244-6.5412 7.0574-1.7254 6.5828-1.7028 35.734-1.7028h26.458v27.516l-25.532 0.15936c-16.751 0.10455-26.01 0.25836-26.922 0.44722-10.967 2.2712-15.148 6.9114-17.453 19.369-0.6879 3.7181-0.67226 16.989 0.0245 20.77 2.024 10.983 6.2451 16.301 14.585 18.375 4.0349 1.0033 6.0041 1.0719 30.77 1.0719 21.816 0 24.161 0.0404 24.084 0.41512-0.047 0.22831-4.6694 6.4789-10.272 13.89l-10.186 13.475-15.61-0.0292c-11.683-0.0219-16.338-0.12245-18.504-0.39979zm81.414-0.36976c-1.734-0.86648-2.6395-1.7581-3.5902-3.5352l-0.58267-1.0891-0.0708-28.209-0.0708-28.209 13.669-12.471c7.518-6.8591 13.77-12.471 13.894-12.471 0.1238 0 0.25538 13.246 0.29239 29.435l0.0673 29.435 12.7 0.0775c8.0655 0.0492 13.646-0.0293 15.294-0.21514 11.391-1.2853 16.786-6.614 19.013-18.78 0.54267-2.964 0.60545-4.1174 0.60491-11.112-0.00053-7.0117-0.0618-8.128-0.60261-10.98-1.2276-6.4746-2.8323-10.07-5.8576-13.126-3.1351-3.1662-7.1751-4.841-13.294-5.5109-2.9075-0.31834-27.48-0.3914-27.871-0.0829-0.13824 0.10914-6.4734 0.16557-14.078 0.1254l-13.827-0.073 0.0685-13.95 0.0685-13.95h29.104c26.434 0 29.385 0.04269 32.162 0.46517 11.452 1.742 20.123 5.6738 26.905 12.2 8.1563 7.8486 12.552 17.636 14.631 32.578 0.16196 1.1642 0.35829 5.8671 0.43628 10.451 0.11407 6.7048 0.0546 9.188-0.30434 12.7-2.537 24.826-14.386 40.087-35.11 45.223-7.1279 1.7665-5.8921 1.7034-35.285 1.8019l-26.728 0.0896zm114.65 0.38347c-0.0888-0.23147-0.15974-10.025-0.1576-21.764 0.003-16.432 0.0791-21.482 0.33073-21.945 0.17976-0.33093 3.482-3.4739 7.3383-6.9844s10.22-9.3119 14.142-12.892l7.1307-6.5094 7.8183-0.16192c10.298-0.21326 12.439-0.64545 15.097-3.0472 1.7745-1.6031 3.2238-4.155 10.764-18.952 4.0221-7.8932 8.2981-16.256 9.5022-18.585l2.1893-4.2333 15.097-0.06831c9.846-0.04455 15.097 0.02291 15.097 0.19397 0 0.23944-3.0426 6.304-16.331 32.55-6.6732 13.181-8.9775 16.837-13.489 21.404-1.2072 1.2221-2.195 2.2569-2.195 2.2996s0.68461 0.60656 1.5214 1.253c3.6243 2.8 6.879 6.6533 9.9822 11.818 1.8899 3.1456 2.2923 3.912 12.574 23.947 4.1073 8.0036 8.2878 16.126 9.2901 18.05 1.0023 1.9241 1.8223 3.6208 1.8223 3.7703 0 0.1831-5.0496 0.27194-15.457 0.27194h-15.457l-0.51435-0.85989c-0.28289-0.47294-2.3363-4.4318-4.563-8.7974-8.2329-16.141-13.764-26.67-14.931-28.427-3.0196-4.5422-5.7022-5.6497-14.823-6.1197-2.9124-0.15009-7.2002-0.23706-9.5286-0.19325l-4.2333 0.0796-0.13229 22.093-0.1323 22.093-13.795 0.0685c-12.408 0.0616-13.812 0.0262-13.957-0.35237zm146.55 0.23362c-9.6469-1.2731-16.715-4.4178-22.116-9.8398-4.6463-4.6646-7.2459-9.7961-8.7694-17.311-0.59616-2.9406-0.6005-3.1231-0.6005-25.319 0-22.266 0.0026-22.369 0.60177-25.135 1.6553-7.6417 4.0004-12.329 8.5205-17.029 5.0727-5.2749 11.551-8.3944 20.511-9.8763 3.187-0.52712 36.917-0.809 43.502-0.36356 15.047 1.0178 24.11 6.2194 29.356 16.85 4.0496 8.2054 4.7407 20.904 1.6373 30.085-3.1456 9.3061-9.8179 15.35-19.912 18.036-5.8029 1.5445-5.7712 1.5428-31.432 1.7042l-23.68 0.14893 0.00847 2.249c0.00741 1.9841 0.10046 2.417 0.79013 3.6756 0.86371 1.5762 2.0214 2.4763 3.8317 2.979 0.91496 0.25407 8.8331 0.35079 34.197 0.41774 18.154 0.0479 33.007 0.17702 33.007 0.28691 0 0.10988-5.3909 6.5655-11.98 14.346l-11.98 14.146-22.35 0.0273c-12.292 0.015-22.707-0.0199-23.144-0.0775zm40.348-63.865c3.2885-0.53351 4.7313-1.9679 4.9786-4.9492 0.29165-3.5171-1.1227-6.0191-3.8862-6.8747-1.3539-0.41918-3.1295-0.46091-19.613-0.46091-20.336 0-20.12-0.0183-22.225 1.8832-1.6171 1.461-2.117 3.1325-2.117 7.0784 0 1.7893 0.079375 3.3326 0.1764 3.4297 0.30271 0.30271 40.786 0.20168 42.685-0.10653zm182.31 49.64v-14.426l30.626-0.005c18.875-0.003 31.324-0.10618 32.446-0.26833 2.3797-0.344 3.4683-0.88066 3.9103-1.9278 0.52485-1.2434 0.44849-5.1219-0.12189-6.1913-1.071-2.0079-2.5389-2.17-19.764-2.1823-7.7854-0.006-15.524-0.13555-17.198-0.28882-9.6398-0.8829-17.031-3.872-22.417-9.0654-5.79-5.5832-8.5783-13.252-8.5783-23.595 0-6.8368 1.1502-12.007 3.8097-17.126 4.4964-8.6546 11.684-13.295 23.555-15.207 2.3727-0.38211 6.5489-0.44792 34.046-0.5365 17.238-0.0555 31.615-0.0325 31.948 0.0513l0.6065 0.15222v28.564l-29.303 0.005c-17.797 0.003-30.01 0.1075-31.104 0.26566-3.3072 0.47818-4.1471 1.3818-4.3619 4.6926-0.16584 2.5571 0.38131 4.0668 1.7008 4.693 1.6856 0.79984 4.0174 0.91611 18.485 0.92172 7.8581 0.003 15.597 0.12615 17.198 0.27356 11.674 1.075 20.597 5.308 25.647 12.167 3.6737 4.9896 5.4368 11.384 5.4403 19.731 0.007 16.326-7.4771 27.298-21.694 31.805-5.8318 1.8489-3.8899 1.7619-41.209 1.8455l-33.668 0.0755zm-369.2-56.911c-0.24299-0.63322-0.18624-43.585 0.0581-43.97 0.1665-0.26226 3.1351-0.31855 13.953-0.26458l13.741 0.06855v44.456l-13.795 0.0685c-12.408 0.0616-13.812 0.0262-13.957-0.35237z"/>
   <path id="path43" d="m121.8 257.34c0-0.14107 1.842-4.3827 11.502-26.485 4.3248-9.8954 8.8044-20.145 9.9548-22.778 1.1504-2.6324 2.0916-5.029 2.0916-5.3256 0-0.44558-0.31078-0.61702-1.7859-0.98519-5.135-1.2816-9.4571-4.9187-12.102-10.184-0.39701-0.79037-2.6251-6.2077-4.9514-12.039-2.3262-5.8308-7.4816-18.757-11.456-28.725-3.9748-9.9682-10.214-25.614-13.866-34.769-3.6514-9.155-6.6388-16.746-6.6388-16.869 0-0.12312 6.8557-0.19312 15.235-0.15556l15.235 0.06829 3.6976 9.1281c2.0337 5.0205 5.5247 13.652 7.7578 19.182 2.2332 5.5298 4.616 11.417 5.2951 13.083 0.67916 1.6657 2.9443 7.2616 5.0336 12.435 2.0893 5.1738 5.0018 12.383 6.4721 16.02 1.4704 3.6372 2.8187 6.7583 2.9962 6.9358 0.71956 0.71929 0.24874 1.7075 10.363-21.751 1.5058-3.4925 5.0246-11.648 7.8195-18.124 2.7949-6.4757 6.7233-15.584 8.7297-20.241 2.0064-4.6567 4.4599-10.342 5.4522-12.634l1.8041-4.1672h15.451c12.256 0 15.423 0.06839 15.317 0.33073-0.0738 0.1819-1.6776 3.9026-3.564 8.2682s-7.369 17.105-12.184 28.31c-4.8146 11.205-10.879 25.314-13.475 31.353l-4.7217 10.98-14.54 0.13795c-7.9972 0.0759-14.57 0.16517-14.607 0.19844-0.20473 0.18723 0.0625 0.79248 1.2206 2.7644 0.70768 1.205 4.4158 7.6523 8.2402 14.327l6.9535 12.136-0.7996 1.8865c-0.43979 1.0376-4.0408 9.2684-8.0023 18.291-3.9615 9.0223-7.7196 17.595-8.3514 19.05-0.63177 1.4552-1.9065 4.3722-2.8328 6.4823l-1.6841 3.8365-15.529 0.0683c-8.541 0.0376-15.529 0.0185-15.529-0.0421zm-450.45-51.4c-5.7726-0.48514-12.285-1.8503-16.798-3.5214-12.343-4.5707-21.61-14.168-26.189-27.125-1.1725-3.3176-2.5513-9.1957-3.041-12.965-0.22692-1.7462-0.53604-3.8644-0.68695-4.7069-0.42096-2.3504-0.59893-11.852-0.28599-15.269 1.6974-18.536 6.0068-29.684 14.83-38.365 7.0807-6.9661 16.408-11.221 28.201-12.864 2.7371-0.38136 6.726-0.45787 28.922-0.55474 19.688-0.08592 25.837-0.0381 26.128 0.20319 0.53955 0.44779 0.57278 26.749 0.0344 27.196-0.2419 0.20076-8.0954 0.31126-26.128 0.36763l-25.782 0.0806-2.6458 0.7191c-11.451 3.1121-15.789 11.03-15.838 28.905-0.0192 7.0412 0.25524 9.8513 1.4233 14.574 1.911 7.7274 5.5901 12.025 12.233 14.29 4.1103 1.4012 4.7008 1.4282 31.286 1.4338 13.533 0.003 24.759 0.10195 24.945 0.2203 0.24444 0.1551-1.5846 2.7579-6.551 9.3225-3.7896 5.009-8.4406 11.161-10.336 13.671l-3.4454 4.5641-14.61-0.0445c-8.0354-0.0245-15.086-0.0845-15.668-0.13343zm79.243-0.0633c-2.4114-0.75882-4.3506-2.5078-5.1881-4.6791-0.47942-1.243-0.50042-2.4629-0.50042-29.073v-27.775l13.494-12.362c7.4216-6.7992 13.613-12.328 13.758-12.287 0.17382 0.0494 0.28767 10.125 0.33189 29.372l0.0673 29.296 15.014-0.0942c14.318-0.0898 15.106-0.12013 16.998-0.65279 3.2779-0.92268 4.9534-1.6462 7.0332-3.0374 5.2731-3.5268 8.0302-10.088 8.8748-21.118 0.65759-8.5884-0.39767-17.986-2.6378-23.491-1.1591-2.8482-2.0766-4.2581-4.0229-6.1813-2.1415-2.1162-4.9482-3.5946-8.8505-4.6618l-2.6458-0.7236h-57.414l-0.0686-13.596c-0.0512-10.157 0.0105-13.691 0.24414-13.973 0.26802-0.32294 4.3621-0.36149 28.644-0.26976 30.763 0.11622 31.399 0.1441 37.724 1.6543 17.013 4.0622 27.76 13.809 33.078 29.998 2.3438 7.1355 3.3449 13.608 3.6051 23.306 0.46733 17.421-2.6191 30.919-9.3825 41.034-5.8896 8.8078-15.091 14.927-26.639 17.717-6.9257 1.6733-6.7514 1.6647-35.057 1.7383-14.188 0.0369-26.095-0.0266-26.458-0.14106zm113.42 0.0648c-0.097-0.097-0.17639-10.032-0.17639-22.077v-21.9l14.315-13.074 14.315-13.074 7.5793-0.16616c8.1479-0.17863 10.71-0.48588 13.06-1.5662 3.5471-1.6306 3.7804-2.0045 14.976-24.011 3.3685-6.6212 6.9899-13.705 8.0474-15.743l1.9228-3.7042 14.883-0.06835c12.919-0.05933 14.883-0.01725 14.883 0.3189 0 0.56313-20.151 40.401-22.124 43.737-2.172 3.6738-4.6134 6.9462-7.1677 9.6074-1.3795 1.4372-2.4672 2.7172-2.4173 2.8445 0.04998 0.12725 1.0434 1.0032 2.2076 1.9465 3.4182 2.7698 6.7669 6.9381 9.8476 12.258 0.98428 1.6996 9.0489 17.262 17.002 32.808 1.7866 3.4925 3.8853 7.5533 4.6638 9.0239 0.77848 1.4706 1.3388 2.7506 1.2451 2.8443-0.09372 0.0937-6.982 0.17036-15.307 0.17036-12.123 0-15.194-0.0687-15.423-0.3451-0.15753-0.1898-4.4302-8.3765-9.4949-18.193-5.0647-9.8162-9.7746-18.699-10.467-19.74-3.4578-5.2013-6.8608-6.1648-21.791-6.1696-6.0647-0.002-6.9368 0.0493-7.0776 0.41625-0.0883 0.23018-0.1606 10.231-0.1606 22.225v21.806h-13.582c-7.4701 0-13.661-0.0794-13.758-0.17639zm146.8-0.11655c-9.9408-1.0452-17.446-4.4312-23.153-10.446-5.2495-5.5326-7.9645-12.239-8.7375-21.585-0.32488-3.9274-0.32144-36.511 0.0042-40.436 0.44426-5.3538 1.8597-10.888 3.7366-14.611 4.8823-9.6832 14.451-15.817 26.957-17.281 4.0688-0.47628 40.268-0.56423 44.754-0.10874 10.858 1.1024 18.784 4.9674 23.782 11.597 2.8046 3.72 5.075 9.2178 5.9963 14.52 0.63024 3.6272 0.6218 11.964-0.01561 15.408-2.286 12.353-9.7352 20.278-21.79 23.183-6.0329 1.4538-6.6428 1.4859-31.559 1.659l-23.151 0.1608 0.019579 1.9844c0.032967 3.3506 1.4821 5.7651 4.0825 6.8018 1.1181 0.44576 3.19 0.47861 34.461 0.54635 22.629 0.049 33.271 0.15935 33.271 0.34492 0 0.27906-23.03 27.625-23.77 28.224-0.31983 0.2591-4.9962 0.32311-21.59 0.29554-11.65-0.0194-22.135-0.13534-23.299-0.25775zm41.804-64.081c2.3504-1.0594 3.1335-2.4926 3.1005-5.674-0.03548-3.4253-1.3766-5.2261-4.485-6.0224-1.409-0.36097-3.9992-0.40488-19.961-0.33837l-18.342 0.0764-1.5875 0.79375c-1.8688 0.93442-3.0995 2.5431-3.549 4.6389-0.31721 1.479-0.3946 6.6751-0.10377 6.9659 0.10102 0.10102 10.013 0.15063 22.027 0.11024 20.388-0.0685 21.913-0.10522 22.901-0.55049zm180.43 64.043c-0.0696-0.1819-0.0957-6.641-0.0578-14.354l0.0688-14.023 32.015-0.13229c35.003-0.14464 33.445-0.0694 34.634-1.6715 0.42722-0.57561 0.57544-1.2328 0.65043-2.8844 0.15295-3.368-0.48104-4.7072-2.6084-5.5097-0.71057-0.26805-4.774-0.39188-17.462-0.53214-17.424-0.19262-20.133-0.3654-24.936-1.5904-11.954-3.0485-19.491-10.1-22.162-20.735-2.287-9.1044-1.546-19.073 1.9706-26.508 3.9814-8.4186 10.408-13.339 20.314-15.553 5.3118-1.1874 7.1835-1.2421 39.631-1.1602l30.559 0.0771 0.0733 13.626c0.0403 7.4943 0.008 13.894-0.0712 14.221l-0.14443 0.59531h-29.88c-20.296 0-30.305 0.0911-31.205 0.2842-2.6053 0.55874-3.5354 1.9069-3.556 5.154-0.0164 2.5736 0.50109 3.6865 2.0843 4.4837 1.0067 0.50686 1.7648 0.53648 17.984 0.70254 12.991 0.13301 17.584 0.267 19.727 0.57551 16.214 2.3342 25.677 10.178 27.987 23.196 0.80909 4.5603 0.8805 5.4011 0.77517 9.1281-0.12742 4.5094-0.6459 7.8207-1.8214 11.633-3.7433 12.139-13.799 19.483-28.808 21.038-3.998 0.41426-65.6 0.357-65.76-0.0611zm-368.89-70.797c-0.26318-0.16709-0.31819-4.8011-0.26459-22.287l0.0677-22.076h27.252l0.0677 22.076c0.0536 17.486-0.003 22.12-0.26458 22.287-0.18275 0.11602-6.2259 0.21094-13.429 0.21094-7.2033 0-13.246-0.0949-13.429-0.21094z"/>
   <path id="path41" d="m122.24 257.24c-0.0694-0.11234 0.62667-1.928 1.5469-4.0349 0.92019-2.1069 3.5429-8.1169 5.8282-13.356 2.2853-5.2388 6.8271-15.643 10.093-23.121 3.2658-7.4777 5.9018-13.832 5.8579-14.12-0.0627-0.41153-0.56094-0.66275-2.3182-1.1689-4.1431-1.1932-7.2006-3.3511-9.6572-6.8155-2.0935-2.9524 0.25572 2.7825-31.521-76.949-3.9879-10.006-7.2508-18.251-7.2508-18.322 0-0.07123 6.7649-0.1295 15.033-0.1295h15.033l2.1467 5.3578c1.1806 2.9468 4.125 10.239 6.5431 16.206 2.418 5.9664 5.9981 14.807 7.9557 19.645 1.9576 4.8386 5.1852 12.816 7.1725 17.727 1.9873 4.9113 4.4012 10.883 5.3641 13.27 1.7185 4.2604 2.2 5.0222 2.9841 4.7212 0.21548-0.0827 1.1717-1.9769 2.1249-4.2093 0.95322-2.2324 3.6648-8.5238 6.0256-13.981 2.3609-5.457 4.6209-10.696 5.0224-11.642 0.40145-0.94589 3.0182-7.0181 5.8149-13.494 2.7968-6.4757 6.3167-14.631 7.822-18.124 1.5054-3.4925 3.6133-8.3741 4.6843-10.848l1.9473-4.4979 15.257-0.06829 15.257-0.06829-0.94416 2.185c-0.5193 1.2017-1.633 3.7923-2.4749 5.7568s-6.1386 14.288-11.77 27.384c-5.6318 13.097-12.029 27.98-14.216 33.073-2.187 5.0932-4.1439 9.5878-4.3487 9.988l-0.37227 0.7276h-14.397c-9.915 0-14.452 0.0879-14.572 0.2823-0.0959 0.15526 1.5802 3.3402 3.7248 7.0776 10.523 18.338 12.376 21.604 12.478 21.996 0.0609 0.233-0.26493 1.2539-0.72414 2.2686-0.74628 1.6492-1.9777 4.4561-6.7294 15.339-7.3229 16.772-13.496 30.824-13.802 31.419l-0.37404 0.7276h-15.059c-8.2824 0-15.116-0.0919-15.185-0.20423zm-451.81-51.57c-5.8762-0.60519-11.767-1.9106-16.001-3.5459-16.554-6.3943-26.252-19.912-28.999-40.422-0.27982-2.0895-0.51059-4.3517-0.51282-5.0271-0.003-0.76184-0.0881-1.0955-0.22539-0.87892-0.35037 0.55257-0.61429-6.8576-0.40461-11.36 0.11055-2.3739 0.27344-3.8391 0.39286-3.5335 0.14343 0.36703 0.20952 0.15608 0.22259-0.71047 0.0324-2.1478 0.82157-7.6336 1.6438-11.427 4.1846-19.306 15.882-31.698 34.125-36.153 6.9485-1.6968 7.4885-1.7226 35.952-1.7226h25.797v26.988l-25.665 0.1529c-17.733 0.10565-26.05 0.24568-26.911 0.4531-3.6667 0.88309-4.7592 1.2382-6.6911 2.1748-3.8108 1.8475-6.1929 4.3122-8.1281 8.4095-3.2962 6.9791-4.2794 20.857-2.2189 31.318 1.1916 6.0491 2.8273 9.5665 5.8248 12.525 2.0828 2.0559 4.0109 3.1929 7.1719 4.2293 4.3352 1.4214 5.0849 1.456 31.548 1.4577 16.841 0.001 24.408 0.0875 24.408 0.27887 0 0.15252-2.9475 4.1709-6.5499 8.9297s-8.1438 10.766-10.092 13.349l-3.5419 4.6964-15.11-0.0423c-8.3104-0.0233-15.526-0.0853-16.036-0.13772zm79.477-0.24781c-1.5202-0.53916-3.169-2.0325-4.0151-3.6367l-0.71703-1.3594-0.072-27.953-0.072-27.953 13.396-12.263c7.3678-6.7448 13.502-12.303 13.631-12.351 0.13532-0.0506 0.26312 12.325 0.30193 29.236l0.0673 29.324 13.626 0.074c11.035 0.0599 14.104-0.0008 16.14-0.31934 10.432-1.6324 15.675-7.0762 17.712-18.389 0.84317-4.6826 1.1665-10.942 0.82263-15.928-0.71429-10.356-2.6512-16.168-6.7365-20.213-2.9914-2.962-6.905-4.6143-12.857-5.4278-1.6647-0.22756-9.2435-0.25744-29.173-0.11501l-26.924 0.19242 0.0685-13.726 0.0685-13.726h28.443c25.993 0 28.745 0.0413 31.957 0.47955 22.641 3.0899 36.319 16.022 40.792 38.567 1.0332 5.2072 1.3615 8.7396 1.5106 16.251 0.11515 5.8043 0.0512 8.4108-0.29524 12.039-1.4766 15.461-6.4847 27.363-14.741 35.033-7.5962 7.057-16.818 10.88-29.723 12.321-1.4406 0.16091-12.206 0.25859-27.252 0.24726-21.091-0.0159-25.036-0.0774-25.96-0.40481zm114.2-21.496v-21.924l14.166-12.935 14.166-12.935 6.9346-0.19609c13.048-0.36897 15.411-1.1588 18.657-6.2385 0.71432-1.1176 4.7831-8.8781 9.0416-17.246 4.2585-8.3674 8.5089-16.672 9.4452-18.455l1.7024-3.2411h14.67c9.4139 0 14.67 0.09299 14.67 0.25955 0 0.30123-18.106 36.288-20.436 40.619-2.53 4.7016-5.829 9.4101-8.7002 12.417-1.4376 1.5057-2.6138 2.8459-2.6138 2.9782s1.0127 1.0458 2.2506 2.0299c1.2378 0.98413 2.9536 2.6062 3.813 3.6047 4.2172 4.8999 5.2449 6.6869 16.815 29.241 1.7171 3.347 3.9233 7.6332 4.9029 9.525 0.97949 1.8918 3.0544 5.9111 4.6109 8.9318l2.83 5.4923-15.296-0.0683-15.296-0.0683-4.4364-8.599c-2.44-4.7294-6.2387-12.111-8.4415-16.404-2.2028-4.2929-4.5974-8.8768-5.3213-10.186-4.3619-7.8915-6.5724-8.8074-21.863-9.0585-8.0898-0.13283-8.5965-0.11341-8.9297 0.34223-0.28779 0.39358-0.35322 4.5168-0.35322 22.261v21.778h-26.988zm145.24 21.53c-12.652-1.741-21.966-7.8486-26.59-17.436-1.478-3.0647-2.0574-4.831-2.9693-9.0523l-0.73567-3.4057v-43.92l0.74194-3.4367c1.5326-7.0991 3.5514-11.351 7.5241-15.847 5.1664-5.8469 13.407-9.7598 22.614-10.738 1.5307-0.16268 10.678-0.27305 22.63-0.27305 22.008 0 23.741 0.0923 29.305 1.5601 5.8322 1.5386 10.101 3.8698 13.693 7.4774 4.2406 4.2589 6.8177 9.3566 8.198 16.216 0.79018 3.9272 0.85624 12.728 0.12324 16.418-2.4426 12.297-9.734 20.017-21.618 22.89-5.6765 1.3724-6.2192 1.3988-31.082 1.5118-15.833 0.072-23.385 0.19532-23.614 0.38577-0.62973 0.52263-0.23326 4.1236 0.65 5.9037 0.68786 1.3863 2.2372 2.7691 3.6382 3.2472 1.2204 0.41644 3.9924 0.45905 34.354 0.52808 18.165 0.0413 32.988 0.17044 32.941 0.28698-0.04723 0.11654-5.3842 6.4786-11.86 14.138l-11.774 13.926-21.828-0.0168c-16.427-0.01-22.442-0.1-24.334-0.36zm42.947-63.32c1.4157-0.47605 2.9403-1.9362 3.3099-3.17 0.39434-1.3162 0.39875-4.197 0.0082-5.3634-0.50858-1.519-1.5448-2.6447-3.1102-3.3787l-1.483-0.7h-37.836l-1.515 0.61193c-1.7669 0.7137-3.1287 2.1429-3.7951 3.983-0.58785 1.6231-0.85767 7.5277-0.37081 8.1143 0.29789 0.35895 2.81 0.39559 22.059 0.3218 16.809-0.0644 21.951-0.16017 22.733-0.42321zm180.89 49.57v-14.163l30.89-0.002c18.084-0.0008 31.522-0.10496 32.413-0.25101 1.906-0.31218 2.7755-0.73319 3.4801-1.6851 0.47572-0.64268 0.55295-1.1231 0.55295-3.4396 0-3.1033-0.36869-4.0876-1.7824-4.7584-1.769-0.83944-4.2344-0.97282-18.061-0.97711-16.657-0.005-20.373-0.25638-26.061-1.7621-12.188-3.2262-19.436-10.851-21.872-23.009-0.59896-2.9898-0.67384-12.158-0.12398-15.18 1.8961-10.422 7.9274-18.427 16.622-22.062 2.1869-0.91434 5.7498-1.9316 8.674-2.4765 2.1397-0.39876 5.7931-0.45406 34.999-0.52976l32.61-0.0845v28.05l-30.493 0.0726c-32.953 0.0784-31.49 0.0127-33.079 1.4867-0.99965 0.92755-1.3284 2.2134-1.2134 4.7456 0.14049 3.0938 0.90924 3.9828 3.9412 4.5578 0.80158 0.15201 7.0832 0.26443 14.909 0.26679 15.086 0.005 19.969 0.23981 24.663 1.1882 10.246 2.0701 17.931 7.2097 21.515 14.389 1.7647 3.5348 3.1891 8.8909 3.2008 12.036 0.003 0.80111 0.072 0.98469 0.26053 0.69295 0.17204-0.26622 0.25649 0.86619 0.25649 3.4396s-0.0845 3.7058-0.25649 3.4396c-0.18928-0.29288-0.25781-0.11955-0.26159 0.66146-0.008 1.6552-0.71604 5.5886-1.4751 8.1946-1.3319 4.5727-3.5443 8.3452-6.8501 11.68-4.509 4.549-10.319 7.3942-18.401 9.0112-2.0303 0.40622-5.4964 0.45875-35.653 0.54028l-33.404 0.0903v-14.163zm-369.09-78.85v-22.093h26.988v44.183h-26.988z"/>
  </g>
 </g>
</svg>
