<svg xmlns="http://www.w3.org/2000/svg" xmlns:xlink="http://www.w3.org/1999/xlink" width="250" height="58.479" viewBox="0 0 79.375 18.567"><defs><linearGradient x1="0" y1=".5" x2="1" y2=".5" id="a"><stop stop-color="red" offset="0%"/><stop stop-color="red" offset="50%"/><stop stop-color="#FF7000" offset="100%"/></linearGradient><linearGradient xlink:href="#a" id="b" gradientUnits="userSpaceOnUse" gradientTransform="matrix(1.18933 0 0 .2782 75.595 91.24)" x1="0" y1="27.808" x2="55.616" y2="27.808"/></defs><path d="M84.347 96.623c.906.735 1.47 1.733 1.69 2.994h-2.352a2.524 2.524 0 00-.943-1.593c-.498-.384-1.124-.575-1.877-.574-.81-.02-1.588.31-2.138.906-.572.605-.857 1.494-.856 2.664 0 1.171.286 2.062.856 2.672a2.8 2.8 0 002.138.918c.753 0 1.379-.195 1.877-.586.503-.396.84-.966.943-1.6h2.353c-.22 1.263-.784 2.264-1.691 3.006-.908.742-2.054 1.112-3.44 1.111a5.581 5.581 0 01-2.752-.664 4.712 4.712 0 01-1.877-1.912c-.455-.824-.683-1.804-.683-2.94 0-1.135.227-2.11.68-2.926a4.712 4.712 0 011.878-1.913 5.583 5.583 0 012.751-.664c1.387 0 2.534.367 3.443 1.1zm17.715-4.646v14.434h-2.216V91.977zm10.113 4.214a4.758 4.758 0 011.945 1.913c.467.832.7 1.807.7 2.927-.001 1.12-.235 2.101-.7 2.945a4.758 4.758 0 01-1.945 1.913 5.862 5.862 0 01-2.8.664 5.805 5.805 0 01-2.791-.664 4.82 4.82 0 01-1.945-1.922c-.474-.839-.71-1.817-.709-2.936 0-1.119.237-2.094.71-2.927a4.84 4.84 0 011.944-1.913c.86-.451 1.82-.68 2.79-.664a5.863 5.863 0 012.8.659zm-4.375 1.66a2.87 2.87 0 00-1.158 1.194 4.127 4.127 0 00-.438 1.98c0 .797.146 1.46.438 1.992.26.503.663.919 1.158 1.194a3.383 3.383 0 003.15 0 2.892 2.892 0 001.157-1.194c.292-.531.437-1.195.437-1.991 0-.797-.145-1.457-.437-1.98a2.877 2.877 0 00-1.157-1.196 3.373 3.373 0 00-3.15 0zm21.266-6.24a1.434 1.434 0 011.03-.37c.382-.017.756.116 1.042.37.26.24.406.581.396.936.012.35-.133.687-.396.918-.291.243-.663.369-1.042.351a1.476 1.476 0 01-1.03-.351 1.175 1.175 0 01-.39-.918 1.237 1.237 0 01.39-.946zm2.139 4.058v10.753h-2.217V95.669zm9.033.83c.759.643 1.222 1.505 1.391 2.586h-2.101a2.273 2.273 0 00-.749-1.415c-.407-.359-.95-.531-1.623-.531-.558 0-.988.133-1.294.398a1.367 1.367 0 00-.456 1.083c-.014.309.107.608.33.82.239.218.52.385.827.488.463.154.933.284 1.41.39.664.141 1.317.33 1.955.566.499.196.94.515 1.283.929.353.423.53.998.53 1.725.022.85-.357 1.66-1.022 2.185-.68.56-1.598.84-2.752.84-1.335 0-2.414-.313-3.238-.937-.823-.623-1.318-1.5-1.483-2.632h2.16c.052.562.333 1.078.777 1.425.454.365 1.05.547 1.79.546.528 0 .946-.14 1.253-.419.301-.27.468-.658.458-1.062a1.178 1.178 0 00-.35-.899 2.434 2.434 0 00-.875-.516 12.139 12.139 0 00-1.44-.381 15.875 15.875 0 01-1.895-.546 2.95 2.95 0 01-1.245-.888c-.344-.41-.516-.966-.515-1.668a2.742 2.742 0 011.02-2.214c.682-.568 1.625-.85 2.83-.85 1.257 0 2.265.323 3.024.968zm-42.406 4.193a5.17 5.17 0 00-.632-2.546 4.545 4.545 0 00-1.809-1.796 6.08 6.08 0 00-5.503.011 4.709 4.709 0 00-1.878 1.912c-.453.831-.68 1.805-.68 2.92 0 1.133.227 2.115.68 2.947a4.709 4.709 0 001.874 1.907 5.583 5.583 0 002.752.664 5.78 5.78 0 002.43-.498 4.562 4.562 0 002.664-3.385h-2.372a2.337 2.337 0 01-.943 1.503 3.08 3.08 0 01-1.877.565 2.983 2.983 0 01-2.117-.796c-.57-.531-.875-1.35-.914-2.458h8.246c.056-.317.083-.638.08-.96zm-7.37-2.42a3.108 3.108 0 012.177-.796 3.344 3.344 0 011.507.341c.463.23.844.598 1.09 1.054.21.392.33.827.352 1.272h-6.031c.116-.808.418-1.435.905-1.881zm35.078-1.54c.753.81 1.13 1.965 1.131 3.464v6.281h-2.224v-6.057c0-.965-.247-1.712-.74-2.24-.495-.529-1.17-.794-2.029-.797-.882 0-1.59.284-2.126.851-.535.567-.8 1.4-.794 2.496v5.733h-2.222V95.685h2.222v2.367a3.621 3.621 0 011.444-1.878 4.17 4.17 0 012.34-.664c1.248 0 2.247.403 2.998 1.212z" fill="url(#b)" fill-rule="evenodd" transform="translate(-68.98 -89.692)"/></svg>