<?xml version="1.0" encoding="UTF-8" standalone="no"?>
<svg id="svg3695" xmlns:rdf="http://www.w3.org/1999/02/22-rdf-syntax-ns#" xmlns="http://www.w3.org/2000/svg" height="80.247" viewBox="0 0 300 96.296301" width="250" version="1.1" xmlns:cc="http://creativecommons.org/ns#" xmlns:dc="http://purl.org/dc/elements/1.1/">
 <metadata id="metadata8">
  <rdf:RDF>
   <cc:Work rdf:about="">
    <dc:format>image/svg+xml</dc:format>
    <dc:type rdf:resource="http://purl.org/dc/dcmitype/StillImage"/>
    <dc:title/>
   </cc:Work>
  </rdf:RDF>
 </metadata>
 <path id="path3440" d="m275 66.667v-58.642h-250v80.247h216.05v-21.605" stroke-width=".25" fill="#eb443f"/>
 <path id="path3442" d="m198.59 72.84c0 3.4074-2.7654 6.1728-6.1728 6.1728h-10.01c-3.4074 0-6.1728-2.7654-6.1728-6.1728v-52.469c0-1.6975 1.3796-3.0864 3.0864-3.0864h5.7932c1.7068 0 3.0864 1.3889 3.0864 3.0864v21.759l10.392 10.401zm32.191 0c0 3.4074-2.7685 6.1728-6.1728 6.1728h-10.648c-3.4074 0-6.1728-2.7654-6.1728-6.1728v-49.383c0-3.4074 2.7654-6.1728 6.1728-6.1728h45.605c3.4074 0 6.1728 2.7654 6.1728 6.1728v26.034c0 3.4074-2.7654 6.1728-6.1728 6.1728h-25.701c-1.7068 0-3.0864 1.3796-3.0864 3.0864v14.09zm-11.04-32.231c0 1.7037 1.3796 3.0864 3.0864 3.0864h27.833c1.7068 0 3.0864-1.3827 3.0864-3.0864v-8.2716c0-1.6975-1.3796-3.0864-3.0864-3.0864h-27.833c-1.7068 0-3.0864 1.3889-3.0864 3.0864zm-68.201-23.324c-1.7068 0-3.0864 1.3827-3.0864 3.0864v16.883c0 3.4043-2.7685 6.1728-6.1728 6.1728h-21.988c-3.4074 0-6.1728-2.7685-6.1728-6.1728v-16.883c0-1.7037-1.3827-3.0864-3.0864-3.0864h-5.7901c-1.7068 0-3.0864 1.3827-3.0864 3.0864v52.469c0 3.4074 2.7624 6.1728 6.1728 6.1728h10.327c3.4074 0 6.1728-2.7654 6.1728-6.1728v-11.275c0-3.4074 2.7654-6.1728 6.1728-6.1728h11.278c3.4043 0 6.1728 2.7654 6.1728 6.1728v14.361c0 1.7068 1.3796 3.0864 3.0864 3.0864h5.7901c1.7068 0 3.0864-1.3796 3.0864-3.0864v-55.556c0-1.7037-1.3796-3.0864-3.0864-3.0864zm-59.963 55.556c0 3.4074-2.7654 6.1728-6.1728 6.1728h-44.972c-3.4074 0-6.1728-2.7654-6.1728-6.1728v-49.383c0-3.4105 2.7654-6.1728 6.1728-6.1728h44.975c3.4074 0 6.1728 2.7624 6.1728 6.1728v11.512c0 1.7068-1.3827 3.0864-3.0864 3.0864h-6.2408c-1.4599 0-2.642-1.179-2.642-2.6358v-3.0864c0-1.7037-1.3827-3.0864-3.0864-3.0864h-24.127c-3.4074 0-6.1728 2.7654-6.1728 6.1728v6.7099l10.395 10.392v8.3457c0 3.4167 2.7654 6.1728 6.1728 6.1728h13.735c1.6975 0 3.0864-1.3704 3.0864-3.0864v-1.5216c0-1.7068 1.3796-3.0864 3.0864-3.0864h5.7932c1.7037 0 3.0864 1.3796 3.0864 3.0864z" stroke-width=".25" fill="#fff"/>
</svg>
