<?xml version="1.0" encoding="UTF-8" standalone="no"?>
<svg id="svg18" xmlns:rdf="http://www.w3.org/1999/02/22-rdf-syntax-ns#" xmlns="http://www.w3.org/2000/svg" height="45.121" width="250" version="1.1" preserveAspectRatio="xMidYMid" xmlns:cc="http://creativecommons.org/ns#" xmlns:dc="http://purl.org/dc/elements/1.1/" viewBox="0 0 300 54.145226">
 <metadata id="metadata24">
  <rdf:RDF>
   <cc:Work rdf:about="">
    <dc:format>image/svg+xml</dc:format>
    <dc:type rdf:resource="http://purl.org/dc/dcmitype/StillImage"/>
    <dc:title/>
   </cc:Work>
  </rdf:RDF>
 </metadata>
 <g id="g16" fill="#ccc" transform="matrix(.48895 0 0 .48895 25 3.9046)">
  <path id="path2" d="m32.133 23.9c5.7389 0 10.998 2.0753 15.087 5.504l5.557-6.624c-5.587-4.696-12.788-7.532-20.642-7.532-17.719 0-32.135 14.416-32.135 32.134 0 17.721 14.416 32.137 32.137 32.132 7.854 0 15.054-2.8359 20.642-7.5321l-5.5574-6.6237c-4.0836 3.4311-9.3465 5.504-15.085 5.504-12.949 0-23.484-10.533-23.484-23.48-0.0012-12.946 10.535-23.485 23.484-23.482h-0.0037z"/>
  <path id="path4" d="m210.01 17.104h-17.302c-2.3885 0-4.3247 1.9374-4.3247 4.3247v51.907c0 2.386 1.9386 4.3247 4.3247 4.3247h17.302c16.697 0 30.279-13.583 30.279-30.279 0-16.698-13.58-30.281-30.283-30.278h0.004zm0 51.907h-12.98v-43.256h12.976c11.926 0 21.623 9.7056 21.623 21.628 0.005 11.931-9.6969 21.625-21.627 21.627h0.004z"/>
  <path id="path6" d="m263.71 21.429v51.907c0 2.386 1.9386 4.3247 4.3247 4.3247h36.05v-8.65h-31.72v-17.304h20.185v-8.651h-20.18v-17.301h31.72v-8.6506h-36.048c-2.3873-0.005-4.3197 1.9337-4.3197 4.3247h-0.005z"/>
  <path id="path8" d="m394.65 21.429v51.907c0 2.386 1.9386 4.3247 4.3247 4.3247h36.046v-8.65h-31.72v-17.304h20.187v-8.651h-20.19v-17.301h31.72v-8.6506h-36.045c-2.3885-0.005-4.3247 1.9337-4.3247 4.3247h-0.001z"/>
  <path id="path10" d="m353.48 17.104h-18.74c-2.3885 0-4.3247 1.9374-4.3247 4.3247v56.233h8.6518v-25.955h14.419c9.5404 0 17.302-7.762 17.302-17.301-0.001-9.5391-7.7633-17.306-17.307-17.302h0.004zm0 25.953h-14.42v-17.302h14.419c4.7708 0 8.6493 3.8773 8.6493 8.6506s-3.8785 8.6543-8.653 8.6506h0.004z"/>
  <path id="path12" d="m502.65 17.104v44.285l-35.61-42.73c-1.1657-1.4005-3.0832-1.92-4.7956-1.2986-1.7125 0.62136-2.8533 2.2468-2.8533 4.0674v56.233h8.6518v-44.284l35.606 42.728c0.83884 1.0066 2.0629 1.5534 3.3181 1.5534 0.49211 0 0.99045-0.08202 1.4726-0.25724 1.7125-0.62136 2.8533-2.2468 2.8533-4.0674v-56.233h-8.6468v0.0025z"/>
  <path id="path14" d="m163.81 32.635c-0.0211-0.11184-0.0398-0.22369-0.0696-0.33305-0.0186-0.06586-0.041-0.128-0.0621-0.19262-0.0311-0.09693-0.0634-0.19386-0.1019-0.28831-0.0273-0.06586-0.0584-0.12924-0.0882-0.19262-0.0422-0.08948-0.0857-0.17771-0.13546-0.26346-0.0348-0.06338-0.0746-0.12303-0.11309-0.18392-0.0534-0.08202-0.10811-0.1628-0.16776-0.24109-0.0435-0.05841-0.0882-0.11433-0.13546-0.17025-0.0621-0.07456-0.12924-0.1454-0.19635-0.21499-0.0522-0.05219-0.10439-0.10439-0.15907-0.15534-0.0721-0.06586-0.14664-0.128-0.22493-0.18765-0.0597-0.04598-0.11806-0.0932-0.18019-0.13546-0.0224-0.01615-0.0423-0.0348-0.0659-0.04971l-42.17-28.117c-1.331-0.88854-3.067-0.88854-4.398 0l-42.177 28.116c-0.02361 0.01491-0.04225 0.03355-0.06586 0.04971-0.06214 0.0435-0.12054 0.08948-0.18019 0.13546-0.07705 0.06089-0.15286 0.12303-0.22493 0.18641-0.05468 0.04971-0.10687 0.1019-0.15782 0.15534-0.06959 0.06959-0.13421 0.14043-0.19759 0.21499-0.04722 0.05592-0.09196 0.11184-0.13546 0.17398-0.05965 0.07829-0.11433 0.15782-0.16777 0.24109-0.03852 0.06089-0.07705 0.12054-0.11309 0.18392-0.04971 0.08575-0.0932 0.17398-0.13421 0.26097-0.02983 0.06338-0.06214 0.128-0.08823 0.19262-0.03852 0.09445-0.07208 0.19138-0.10315 0.28831-0.02113 0.06462-0.0435 0.128-0.06089 0.18641-0.02858 0.10936-0.04971 0.21996-0.06959 0.33305-0.01118 0.05717-0.02485 0.11309-0.03231 0.1715-0.02237 0.1715-0.0348 0.34299-0.0348 0.51821v28.123c0 0.17398 0.01243 0.34796 0.03728 0.51821 0.0087 0.06214 0.02486 0.11184 0.03728 0.1715 0.01988 0.11184 0.03728 0.22369 0.07456 0.33553 0.0174 0.06214 0.03728 0.12427 0.06214 0.19262 0.03107 0.09942 0.06214 0.19884 0.09942 0.28955 0.0261 0.06214 0.06214 0.12427 0.08699 0.18641 0.04101 0.08699 0.08699 0.17398 0.1367 0.2647 0.0348 0.06214 0.07456 0.12427 0.11184 0.18144 0.05344 0.08699 0.11184 0.16155 0.17398 0.23612 0.04349 0.06214 0.08699 0.11184 0.1367 0.1715 0.06338 0.07456 0.12427 0.14913 0.19884 0.21499 0.05095 0.04971 0.09942 0.11184 0.16155 0.14913 0.07208 0.06214 0.14913 0.12427 0.22369 0.18889 0.05965 0.04971 0.12427 0.08699 0.17398 0.13546 0.02361 0.01243 0.03728 0.03728 0.06214 0.04847l42.164 28.131c0.6661 0.44738 1.4291 0.67107 2.1996 0.66734 0.77049-0.0037 1.5335-0.22369 2.1996-0.66734l42.175-28.117c0.0236-0.01491 0.0435-0.03231 0.0659-0.04847 0.0621-0.04349 0.12055-0.08947 0.1802-0.13546 0.0771-0.06089 0.15285-0.12427 0.22493-0.18889 0.0547-0.04847 0.10687-0.1019 0.15907-0.1541 0.0683-0.06959 0.13421-0.14043 0.19635-0.21499 0.0472-0.05592 0.092-0.11184 0.13545-0.1715 0.0597-0.07829 0.11434-0.15907 0.16777-0.24109 0.0385-0.05965 0.077-0.12054 0.11309-0.18144 0.0497-0.08699 0.0932-0.17522 0.13546-0.2647 0.0298-0.06338 0.0609-0.12676 0.0882-0.19138 0.0385-0.09569 0.0708-0.19262 0.1019-0.28955 0.0211-0.06462 0.0435-0.128 0.0621-0.19262 0.0286-0.10936 0.0485-0.2212 0.0696-0.33305 0.01-0.05716 0.0249-0.11309 0.0311-0.1715 0.0224-0.1715 0.0348-0.34299 0.0348-0.51821v-28.116c0-0.17522-0.0137-0.34672-0.0348-0.51821-0.01-0.06089-0.0286-0.1106-0.041-0.1715h0.006zm-46.073 24.129-14.024-9.38 14.024-9.3813 14.025 9.3813zm-3.97-25.65-17.19 11.499-13.877-9.283 31.067-20.713zm-24.322 16.268-9.919 6.635v-13.27zm7.132 4.7745 17.192 11.498v18.497l-31.067-20.715 13.877-9.282v0.0025zm25.122 11.495 17.192-11.498 13.879 9.2819-31.07 20.712zm24.324-16.267 9.9206-6.6361v13.271l-9.9206-6.6374v0.0025zm-7.13-4.771-17.19-11.498v-18.498l31.07 20.712z"/>
 </g>
</svg>
