<svg xmlns="http://www.w3.org/2000/svg" version="1.1" id="Layer_1" x="0" y="0" viewBox="0 0 300 45.522" xml:space="preserve" width="250" height="37.935"><style type="text/css" id="style2">.st0{fill:#036}</style><g id="XMLID_1_" transform="matrix(.68474 0 0 .68474 -21.152 -148.425)"><path id="XMLID_5_" class="st0" d="M182.4 235.9c-10 0-15.3 4.8-15.3 13.9v8.6c0 9.1 5.3 13.9 15.3 13.9s15.3-4.8 15.3-13.9v-8.6c0-9.1-5.3-13.9-15.3-13.9zm-5.8 13.7c0-3.7 1.7-5.3 5.8-5.3s5.8 1.6 5.8 5.3v9.1c0 3.7-1.7 5.3-5.8 5.3s-5.8-1.6-5.8-5.3z"/><path id="XMLID_6_" class="st0" d="M223.6 235.9c-3.8 0-8.9 1.3-13.3 3.3l-.5-1.8c-.1-.5-.6-.9-1.2-.9h-5.3c-.7 0-1.2.5-1.2 1.2v32.6c0 .7.5 1.2 1.2 1.2h7.1c.7 0 1.2-.5 1.2-1.2v-22.6c2.6-1.3 6.2-2.7 8.3-2.7 1.6 0 2.2.6 2.2 2.2v23c0 .7.5 1.2 1.2 1.2h7.1c.7 0 1.2-.5 1.2-1.2v-23.9c.2-6.8-2.6-10.4-8-10.4z"/><path id="XMLID_7_" class="st0" d="M257.5 223.1c-1.9-.5-4.1-.8-6.2-.8-7.6 0-11.3 3.6-11.3 11.1v4.2h-4c-.7 0-1.2.5-1.2 1.2v5.4c0 .7.5 1.2 1.2 1.2h4v25c0 .7.5 1.2 1.2 1.2h7.1c.7 0 1.2-.5 1.2-1.2v-25h7c.6 0 1.2-.5 1.2-1.1v-5.4c0-.4-.1-.7-.3-.9-.2-.2-.5-.4-.9-.4h-7v-3.7c0-2.6.5-3.5 3.3-3.5.9 0 2.2.1 3.5.4.3.1.6 0 .9-.2.3-.2.4-.5.5-.8l.7-5.2c.1-.8-.3-1.3-.9-1.5z"/><path id="XMLID_8_" class="st0" d="M270.4 223.3h-7.1c-.7 0-1.2.5-1.2 1.2v45.9c0 .7.5 1.2 1.2 1.2h7.1c.7 0 1.2-.5 1.2-1.2v-45.9c0-.7-.5-1.2-1.2-1.2z"/><path id="XMLID_9_" class="st0" d="M305.3 236.6h-7.1c-.7 0-1.2.5-1.2 1.2v22.6c-2.6 1.3-6.2 2.7-8.3 2.7-1.6 0-2.2-.6-2.2-2.2v-23c0-.7-.5-1.2-1.2-1.2h-7.1c-.7 0-1.2.5-1.2 1.2v23.9c0 7 2.8 10.6 8.2 10.6 3.8 0 8.9-1.3 13.3-3.3l.5 1.8c.2.5.6.9 1.2.9h5.3c.7 0 1.2-.5 1.2-1.2V238c-.2-.8-.7-1.4-1.4-1.4z"/><path id="XMLID_12_" class="st0" d="M325.3 235.9c-9.6 0-14.6 4.8-14.6 13.8v9c0 9.3 4.7 13.6 14.9 13.6 4.1 0 8.6-.7 12.1-2 .6-.2.9-.8.8-1.4l-1.1-5.1c-.1-.3-.3-.6-.6-.8-.3-.2-.6-.2-1-.1-3.3.9-6.4 1.4-9.5 1.4-5.2 0-6.1-1.7-6.1-5.2v-1.2h17.7c.7 0 1.2-.5 1.2-1.2v-6.6c0-9.6-4.3-14.2-13.8-14.2zm-5.1 14.1v-1.2c0-3.4 1.6-4.9 5.1-4.9 3.9 0 4.6 1.9 4.6 4.9v1.2z"/><path id="XMLID_13_" class="st0" d="M364.9 235.9c-3.8 0-8.9 1.3-13.3 3.3l-.5-1.8c-.1-.5-.6-.9-1.2-.9h-5.3c-.7 0-1.2.5-1.2 1.2v32.6c0 .7.5 1.2 1.2 1.2h7.1c.7 0 1.2-.5 1.2-1.2v-22.6c2.6-1.3 6.2-2.7 8.3-2.7 1.6 0 2.2.6 2.2 2.2v23c0 .7.5 1.2 1.2 1.2h7.1c.7 0 1.2-.5 1.2-1.2v-23.9c.2-6.8-2.5-10.4-8-10.4z"/><path id="XMLID_14_" class="st0" d="M400.6 264.3c-.1-.3-.2-.6-.5-.8-.3-.2-.6-.3-1-.2-2 .5-4.2.7-6.2.7-4.5 0-5.8-1.1-5.8-5.1v-9.4c0-4 1.3-5.1 5.8-5.1 1.2 0 3.9.2 6.2.7.3.1.7 0 .9-.2.3-.2.5-.5.5-.8l.8-5.7c.1-.6-.3-1.2-.9-1.3-2.7-.8-6-1.1-7.9-1.1-10.8 0-15.2 3.9-15.2 13.6v9.3c0 9.6 4.4 13.6 15.2 13.6 2.6 0 5.6-.4 7.9-1.1.6-.2.9-.7.8-1.3z"/><path id="XMLID_17_" class="st0" d="M418.6 235.9c-9.6 0-14.6 4.8-14.6 13.8v9c0 9.3 4.7 13.6 14.9 13.6 4.1 0 8.5-.7 12.1-2 .6-.2.9-.8.8-1.4l-1-5.1c-.1-.3-.3-.6-.6-.8-.3-.2-.6-.2-1-.1-3.3.9-6.4 1.4-9.5 1.4-5.2 0-6.1-1.7-6.1-5.2v-1.2h17.7c.7 0 1.2-.5 1.2-1.2v-6.6c0-9.6-4.4-14.2-13.9-14.2zm-5 14.1v-1.2c0-3.4 1.6-4.9 5.1-4.9 3.9 0 4.6 1.9 4.6 4.9v1.2z"/><path id="XMLID_18_" class="st0" d="M152 232.5c2.9 0 6.8.4 10.6 1 .3.1.7 0 .9-.2.3-.2.4-.5.5-.8l.8-6.3c.1-.6-.3-1.2-.9-1.3-3.8-.9-8.1-1.4-12.1-1.4-11.3 0-17.1 4.7-17.1 14v20.9c0 9.3 5.7 14 17.1 14 4.1 0 8.4-.5 12.1-1.4.6-.1 1-.7.9-1.3l-.8-6.3c0-.3-.2-.6-.5-.8-.3-.2-.6-.3-.9-.2-3.8.7-7.7 1.1-10.6 1.1-5.6 0-7.5-1.6-7.5-6.5v-18c-.1-4.8 1.8-6.5 7.5-6.5z"/><path id="XMLID_19_" class="st0" d="M111.1 259.4c-.8-1.5-1.7-3.1-2.8-4.6-.8-1.1-1.6-2.2-2.5-3.3-.3-.4-.2-1 .1-1.2l.8-.8c3.7-3.7 7.5-7.6 10.4-11.8 3.1-4.4 4.8-8.7 5.2-13 0-.4-.2-.9-.5-1.2-.2-.2-.5-.3-.8-.3l-.5.1c-2.8 1.1-5.7 1.9-8.3 2.5-.5.1-1 .5-1.1 1-1.9 5.2-6.8 10.2-11.9 15.4-.2.2-.5.5-1 .5s-.7-.2-1-.5c-5.1-5.2-10-10.2-11.9-15.4-.2-.5-.6-.9-1.1-1-2.6-.6-5.5-1.5-8.3-2.6l-.5-.1c-.3 0-.6.1-.8.3-.4.3-.6.7-.5 1.2.4 4.3 2.1 8.6 5.2 13.1 2.9 4.2 6.7 8.1 10.4 11.8 6.8 6.9 13.2 13.4 13.7 21 .1.7.6 1.2 1.3 1.2h8c.4 0 .7-.1.9-.4.2-.3.4-.6.4-1-.1-1.4-.3-2.8-.6-4.3v-.1c0-.3.2-.5.5-.5h.1c6.5 1 10.6 2.5 10.6 4.1 0 1.6-3.7 4-9.7 5.7-.5.2-.9.6-.9 1.2 0 .7.6 1.3 1.3 1.3h.3c8.1-1.9 13.4-5 13.4-8.5 0-4.3-7.2-8.1-17.9-9.8z"/><path id="XMLID_20_" class="st0" d="M89.7 255.3c-.2-.2-.5-.4-.9-.4-.6 0-.9.4-1.1.6-.9 1.3-1.6 2.6-2.3 3.9-10.7 1.7-18 5.4-18 9.6 0 3.5 5.3 6.7 13.4 8.5h.3c.7 0 1.3-.6 1.3-1.3 0-.6-.4-1-.9-1.2-6-1.7-9.7-4.1-9.7-5.7 0-1.7 4.1-3.2 10.6-4.1h.1c.3 0 .5.2.5.5v.1c-.3 1.4-.5 2.8-.6 4.3 0 .4.1.7.4 1 .2.3.6.4.9.4h8c.7 0 1.3-.5 1.3-1.2.2-2.3.9-4.7 2.2-7.1.5-.8.1-1.6-.2-2-1.3-1.6-2.9-3.4-5.3-5.9z"/><path id="XMLID_21_" class="st0" d="M97.4 235.7c.3.3.7.4.9.4.2 0 .6-.1.9-.4 2.8-2.7 4.3-5.9 4.6-6.8l.1-.5c0-.7-.6-1.2-1.2-1.2-.5 0-1.9.2-4.4.2-2.5 0-3.9-.2-4.4-.2-.6 0-1.2.5-1.2 1.2l.1.5c.2.9 1.7 4.1 4.6 6.8z"/></g></svg>