<?xml version="1.0" encoding="UTF-8" standalone="no"?>
<!-- Generator: Adobe Illustrator 19.2.1, SVG Export Plug-In . SVG Version: 6.00 Build 0)  -->
<svg id="layer" xmlns:rdf="http://www.w3.org/1999/02/22-rdf-syntax-ns#" xmlns="http://www.w3.org/2000/svg" xml:space="preserve" viewBox="0 0 300 99.174811" height="82.646" width="250" version="1.1" y="0px" x="0px" xmlns:cc="http://creativecommons.org/ns#" xmlns:dc="http://purl.org/dc/elements/1.1/"><metadata id="metadata21"><rdf:RDF><cc:Work rdf:about=""><dc:format>image/svg+xml</dc:format><dc:type rdf:resource="http://purl.org/dc/dcmitype/StillImage"/><dc:title/></cc:Work></rdf:RDF></metadata>
<style id="style2" type="text/css">
	.st0{fill:#ED6504;}
</style>
<g id="Page-1" transform="matrix(.41697 0 0 .41697 16.496 -84.842)">
	<g id="Home-page_desktop_v2-Copy-2" transform="translate(-847,-981)">
		<g id="Trusted-by" transform="translate(0,900)">
			<g id="Group" transform="translate(282,81)">
				<g id="couchsurfing" fill="#ed6504" transform="translate(565)">
					<path id="Fill-1" d="m103.1 306.8c-0.4 3.2-1.5 6.6-3 10.2-1.6 3.6-3.9 7.2-7 10.5-1.1 1.1-2.1 1.8-3 2.1-0.4 0.1-0.8 0.1-1.1 0.1-0.5 0-1-0.1-1.4-0.3-0.9-0.3-1.6-0.7-2.2-1.2s-1-1.1-1.4-1.6c-0.3-0.6-0.8-2-1.4-5.2-0.4-2.6-0.7-5.8-0.8-9.5-0.1-3.6 0.2-7.7 0.7-12.2 0.5-4.1 1.3-8.3 2.5-12.3 2.5 0.8 4.4 1.3 5.9 1.7 1.9 0.5 3.2 1 4.2 1.3 1.1 0.4 1.9 0.9 2.6 1.3 0.7 0.5 1.6 1.1 2.6 1.8 1.1 1 2 2.6 2.5 4.9 0.7 2.4 0.8 5.2 0.3 8.4m5.2-18.6c-1.6-1.7-3.8-3.3-6.3-4.7-2.5-1.3-5.2-2.6-8.2-3.6-3-1.1-6.1-1.9-9.1-2.5-3.1-0.7-6-1-8.5-1.2h-0.6s-0.6 1.7-2.2 2.8c0 0-0.7 0.8-1.5 1.2l-1.4 0.7 1.3 1c1.1 0.8 2 2.2 2.4 2.8 0.4 0.5 0.6 0.9 1 1.5-0.6 3.5-1 7.8-1.3 13-0.7 0.7-1.4 1.5-2.2 2.5-1.1 1.4-2.6 3.1-4.6 5.5-1.9 2.1-4.2 4.6-7.2 7.6-2 1.7-3.9 3.3-5.8 4.9-1.8 1.5-6.8 6.5-11.5 8.2-2.2 0.8-4 1.8-6.8 2.4-1.2-0.1-3.9 0.6-5.2-2.5-4-8.8 1.3-27.2 3.1-32 2.9-7.5 12.3-14.3 14.3-15.8 2.2-1.7 4.5-2.6 5.8-3.5 3.3-2.2 2.3-4.3 2.3-4.3s-4.2-1.1-9.1-0.1c-2.8 0.6-7 2.6-9.3 4.6s-4.6 3.4-7.1 7.7c-2.8 4.7-4.9 7.7-6.5 12.6-1.6 5-3.6 14.9-3.7 20.7-0.1 5.2 1.2 13.3 2.9 17 1.5 3.3 3.1 5.1 4.9 5.6 1.6 0.4 4.2 1.2 6.8 0.7 5.8-1.2 12.4-4.3 17.8-8.4 5.2-4 8.4-7.9 12.4-12.4 3.5-4.1 6.5-6.7 8.8-10.4 0 3.7 0.1 6.3 0.3 10.5 0.1 1.8 0.5 3.7 1.1 6.2 0.6 2.4 1.6 4.7 2.8 6.9 1.3 2.2 3 4.1 5.1 5.7 2.2 1.6 4.8 2.4 7.9 2.4 2 0 4.1-1.2 6.3-3.5 2-2.2 4-4.9 5.8-8.2 1.7-3.3 3.3-7 4.7-11s2.5-8 3.1-11.9c0.7-3.9 0.9-7.5 0.6-10.7-0.6-3.7-1.7-6.3-3.4-8" class="st0"/>
					<path id="Fill-3" d="m118.8 267.4c0 0.4 0.5 8.5 0.6 13.5 0.1 4.8 0.1 22.1 0.2 27.2s0 11 0.2 14.5 0.6 7 1 9.4c0.4 2.6 1 4.2 2 5 0.7 1.2 1.9 2.2 3.5 2.9 0.7 0.3 1.4 0.4 2.3 0.4 1.4 0 3.1-0.4 4.9-1.1 1.1-0.4 2.2-1.5 3.6-3.6 1.3-1.8 2.6-4 4.1-6.6 1.4-2.6 2.8-5.3 4.2-8.1 0.8-1.6 1.6-3.1 2.3-4.6l0.3 2.7c0.2 2.3 0.5 4.4 0.9 6.4s0.8 3.8 1.3 5.3c0.6 1.8 1.5 2.9 2.7 3.1 2.3 0.9 4.8 1 7.6 0.3 2.7-0.7 5.3-1.9 7.6-3.4 2-1.3 3.7-2.9 5.3-4.7 0.4 1.9 0.9 3.7 1.7 5.3 1.5 3.3 3.2 5.1 5.2 5.6 1.6 0.4 3.7 0.9 6.5 0.9 4.3-0.1 12.6-3.6 18.2-7.7 5.5-4 8.6-5.5 12.7-10.1 2.3-2.5 8.8-7.6 8.8-10 0 0-1.3 28.7 0.3 28.7 2.3-0.1 2.4 0.1 4.1 0.7 2 0.7 2 1.2 3 1.4 0.9 0.2 2.2 0.5 2.3 0.1s-0.2-0.8-0.4-1.9c-0.2-1.2-0.3-1.1-0.4-4.1-0.1-2.3-0.1-2.4 0-5.3 0.1-2.8 0.3-5.8 0.5-8.7 0.3-2.9 0.6-5.2 1-7 0.2-0.5 0.3-1.2 0.6-2.4 0.5-1.8 1-3.9 1.7-6.2 2.3-7.4 4-12.5 5.3-14.9 1.1-1.9 2.5-4.7 3.4-4.7 0.7 0 0.6 0.1 1.9 4.6 0.8 2.5 1.6 5.5 2.7 8.9s2.5 6.9 4.2 10.4c1.7 3.6 3.8 6.6 6 8.9 2.4 2.4 5.2 3.8 8.3 4.1s6.7-1.2 10.5-4.4l1.8-1.5-2.3-0.3c-4.4-0.5-7.9-2-10.3-4.5-2.5-2.5-4.6-5.4-6-8.6-1.5-3.3-2.7-6.8-3.6-10.5s-1.8-7.1-2.7-10.1c-0.9-3.2-2.2-5.7-3.8-7.5-1.3-1.6-3.3-2.4-5.3-2.4-1 0-1.4 0.1-2 0.2-2.7 0.3-3.4 2.8-6.5 7.6-1.8 2.9-4.5 8.2-6 11.5 0 0-1-53.1-1-56 0 0 0.3-3.9 0.3-4.9 0-1.2-0.2-1.5-0.6-2.9-0.1-0.3-0.6-1.1-1.8-1.1-1.8 0-5.7 1.8-6.5 2.2 0 0-0.6 1.1-0.7 1.9-0.1 2 0.3 8.5 0.4 13.3 0.2 9.6 0.3 19.3 0.4 28.9 0.1 9.4 0.1 18.4 0.1 26.6-1 1.1-2.3 2.5-3.8 4.2-2 2.1-7.3 6.9-7.3 6.9s-4.4 4-6.3 5.6c-1.9 1.5-3.9 3-6 4.5-2 1.3-4.2 2.5-6.5 3.5-2.3 0.9-4.9 1.7-7.8 2.2-1.2-0.1-2.1-0.5-2.7-1.1-0.6-0.7-1.2-1.4-1.5-2.3-1.3-4.5-1.5-8.5-0.6-11.8 1-3.4 2.6-7.5 4.8-12.3 2-4.2 4.3-7.7 6.9-10.3s5-4.7 7.2-6.3c2.3-1.7 4.1-2.8 5.5-3.6 1.9-1.1 2.7-2.3 2.5-3.6l-0.1-0.7-0.7-0.1c-2.9-0.6-5.9-0.6-8.9 0s-6.3 2.1-9.8 4.6c-2.5 2.1-5 5.2-7.6 9.5-2.5 4.2-4.7 8.9-6.4 13.9s-2.8 10-3.2 15.1v0.2c-1.4 1.2-2.9 2.5-4.6 4-1.8 1.6-3.7 2.9-5.7 4.1-1.7 0.9-3.1 1-4.3 0.2-1.5-0.9-2.6-3.2-3-6.6-0.5-3.7-0.6-7.9-0.5-12.5s0.4-9.2 0.9-13.9c0.5-4.8 0.9-8.7 1.2-11.7l0.1-0.8-0.8-0.3c-0.5-0.1-1.2-0.3-2.2-0.5s-1.9-0.2-2.9-0.2-1.9 0.1-2.7 0.4c-1.1 0.3-1.8 1.3-1.8 2.6v0.1c0.5 3.9 0.1 8.6-1.2 13.9-1.4 5.4-3.1 10.6-5.2 15.3-2.1 4.8-4.2 8.7-6.4 11.7-2.4 3.3-3.1 3.4-3.4 3.3-0.2 0-1-0.4-1.6-2.1-0.5-1.2-0.8-2.5-1-3.8-0.2-1.4-0.3-2.6-0.4-3.8-0.1-1.5-0.1-2.2-0.1-2.3-0.1-9.4 2.4-37.4 0.9-44.5l-0.1-0.5-0.1-0.2c-0.5-0.7-1.5-1.1-2.7-1.7s-2.3-1.4-3.3-1.7c-1.1 0-3.4 0.3-3.4 0.7" class="st0"/>
					<path id="Fill-5" d="m311.4 338.6c-0.4 1.1-1.2 2.6-2.4 4.1-1.3 1.7-2.7 3.2-4.4 4.5-1.6 1.3-3.4 2.3-5.2 3-1.6 0.6-3 0.6-4.3 0.1-0.3-0.3-0.7-0.9 0-2.6 0.6-1.7 1.6-3.4 3-5.3 1.4-1.8 3-3.7 4.9-5.5 1.6-1.6 3.2-2.9 4.5-4 0.9 0.8 1.9 1.7 2.8 2.8 1.1 1.1 1.4 2 1.1 2.9m20.1-43.5c-0.1 2.4-0.5 15.8-0.5 15.8 0 0.5-2.3 0.9-3.3 1.4 0 0-3.4 2-4.9 2.9s-3.2 1.9-5.1 3c-1.8 1-4 2.2-6.5 3.7-2.1-1.5-4.8-3-8.1-4.6-3.4-1.6-6.8-3.4-10.3-5.4-3.4-1.9-6.5-4.2-9.2-6.6-2.7-2.3-4.6-5.2-5.6-8.3-1-3-0.5-5.4 1.4-7.4 2-2.2 4.8-3.8 8.3-4.7s7.4-1.2 11.5-0.7c4.1 0.4 7.6 1.6 10.5 3.6 1.1 0.7 2.3 1.4 3.4 2.2 0.8 0.5 1.4 0.8 2 0.8 0.7 0 1.3-0.5 1.5-1.2l0.1-0.4-0.2-0.4c-0.7-1.2-1.4-2.4-2.2-3.7-0.8-1.4-1.9-2.8-3.3-4.1s-3.3-2.5-5.6-3.6-5.3-1.9-8.8-2.5c-3.9-0.6-7.6-0.3-11.1 0.8s-6.6 2.9-9.2 5.3-4.7 5.1-6.1 8.3-1.8 6.6-1.2 9.9c0.3 3.2 2.1 6.4 5.3 9.5 3 3 6.5 5.8 10.4 8.4 3.8 2.6 7.5 5 11.1 7.1 2.8 1.7 4.9 3.1 6.2 4.4-1.6 1.4-3.4 3-5.3 4.7-2.4 2.1-4.5 4.4-6.3 6.7-1.9 2.4-3.2 4.9-4 7.4-0.9 2.8-0.4 5.5 1.3 8.1l0.1 0.1c1.5 1.9 3.6 3.2 6.1 3.9 1.1 0.3 2.2 0.4 3.2 0.4 1.3 0 2.6-0.2 3.7-0.7 3-1.1 6.3-3 9.8-5.6 3.5-2.7 6.7-6.5 9.6-11.4 1.1-2.1 1.4-4.3 1-6.3-0.4-1.9-1-3.8-1.9-5.5-0.8-1.5-1.9-2.9-3.2-4.3 2.6-1.8 5.1-3.5 7.4-5 2.6-1.7 3.2-3 4.2-3.8 1-0.7 2.5-1.5 2.5-1.5 0 5 0.1 9.8 0.3 13.7 0.2 4 1.8 13.4 3.8 15.2 1.9 2.4 3.8 3.2 6 3.4 3.3 0.3 6.9-2.9 8.5-4.9 5.5-6.9 11.4-21.5 11.4-21.5 0.1 0.9 1.7 13.5 4.1 17.3 1.5 2.4 4.8 3.5 7.5 2.8 3.7-1 5.9-3.2 8.3-4.8 2.4-1.7 7.7-9.4 8.4-11 0.1 5.3 0.1 12.4 0 18.4 0 0.7 0.2 2 1.9 2.6 0.7 0.2 1.3 0.4 2 0.4 0.4 0 0.7 0 1.1-0.1 1-0.2 2-0.4 2.9-0.9 1.2-0.6 1.7-1.6 1.5-2.8-0.3-1.4-0.3-3.3-0.3-5.8 0.1-2.6 0.1-5.2 0.2-7.9s0.2-5.3 0.4-7.6c0.1-1.1 0.2-2.1 0.3-2.9l0.2-0.7c0.8-2.6 1.9-5.5 3.2-8.6 1.3-3 2.9-6 5-8.7s4.5-5.1 7.4-7.1c2.8-2.1 6.2-3.4 10-4.1 3-0.5 4.1-1.2 5.1-2.2 0.9-1 0.6-2.3 0.6-3.7v-1s-0.1-0.1-0.2-0.1c-2-0.1-8.5-0.4-13.5 1-4 1.1-7.5 2.5-10.5 4.7-2.9 2.2-5.4 4.7-7.2 7.7-1.1 1.7-2 3.5-2.9 5.4-0.2-2-0.3-3.9-0.4-5.5l-0.4-5.7-0.6-5.7c-0.3-1.9-0.7-4.6-1.2-8.1l-0.1-0.6-0.5-0.2c-1.7-0.8-3.1-1.5-4.5-2.1-0.6-0.3-1.1-0.4-1.6-0.4-0.7 0-1.1 0.3-1.4 0.6-0.4 0.5-0.5 1.1-0.4 1.9 0.8 8.6 1.7 18.3 2.8 29.1v0.3c0.5 5.3 0.8 11.2 1 17.5h-0.3c-0.8 0-1.8 0.5-3.2 1.9-1.6 1.4-2.6 2.6-4.4 4.3s-6.1 4.8-7.5 5c-2.2 0.3-3.5-3-4.4-6.4-1-3.8-1.5-8.5-1.8-13.5-0.3-4.8 0.2-9.8 0.7-14.6 0.4-4.4 0.8-8.5 1.1-12.2 0 0-1.9-1.4-2.8-1.6-1-0.2-1.9-0.2-2.8-0.2-1 0-2.5 0.1-3.3 0.4-1.1 0.4-1.3 3-1.3 3 0 4.1 0.4 10.4-1 16-1.3 5.6-2.9 11.5-5 16.5-2 5-3.7 7.5-5.8 10.7-2.3 3.4-4.1 3.8-4.1 3.8-2-0.8-2.6-5.3-2.8-6.8s-0.3-9.5-0.3-9.7c0.3-12.3 0.8-19.1 1.2-27.6 0.5-8.7 0.8-14.2 0.1-17.7 0 0-2.1-0.8-3.6-1.2-0.8-0.3-2.3-0.8-3.2-0.9-1-0.2-1.2 0-2.2 0 0 0 0.1 6.5 0.2 8.6-0.2 2-0.3 11.9-0.4 14.2" class="st0"/>
					<path id="Fill-7" d="m476.3 265.1c-0.8-0.9-1.9-1.4-2.8-1.6 0 0-3.3 0-4.7 0.1-1.8 0.1-9.5 0.4-9.5 0.4-1.6 0.1-3.5 0.2-5.8 0.3v-0.6c0.1-1.2 0.1-2.5 0.2-4.3 0.1-5.1 0.6-9.6 1.7-13.6 1.1-3.9 2.7-7 4.9-9.3 2.1-2.2 5.7-2.7 8.1-2.9s4.4 0.5 5.7 1.4 2.8 2.3 3.9 3.7c0.3 0.3 0.8 1.1 0.8 1.1 0.6 1.1 1.2 1.9 1.8 2.2 0.1 0.4 0.5 0.9 1.2 1 0.2 0 2-0.1 2-0.1s2.7-0.5 3.8-0.7 1.4-3.6-0.9-6.6l-0.2-0.4c-1.4-1.9-3.2-3.7-5.2-5.4-3.2-2.7-7.1-4.7-11.5-5.9-4.6-1.3-9.5-0.5-14.7 2.3-2.1 1.2-4.2 3.4-6.2 6.6s-3.6 7.8-4.6 13.8c-0.1 0.8-0.3 1.5-0.4 2.3-0.8 4.7-1 8.6-1.1 16.8 0 0-8.8 0.8-12.1 1.2-5.9 0.6-7.4 0.9-8.1 1.1l-0.4 0.1-0.2 0.4c-0.1 0.1-2 2.9-2.4 3.7-0.4 0.9-0.7 1.9-0.7 2.6 0 0.5 0.1 1.9 2.7 2s0 0 0 0c2.1 0 4.5 0 6.2-0.1s7.6-0.7 9.4-0.8c1.6-0.1 3.6-0.4 6.1-0.5l0.7 11c0.9 11.5 1.6 21.2 2 28.9 0.4 7.4 0.8 13.8 1 19.1 0.2 3.6 0.7 7 0.7 7.3 0.1 1.8 0.3 2.2 0.7 2.6 0.4 0.3 0.9 0.2 1.6 0.2 1.3 0.1 5.2 0.3 5.2 0.3 1.6 0 2.6-1.3 2.6-2.4s-0.1-3.6-0.5-4c-0.1-0.2 0.1-0.7 0-2.1-0.4-5-0.9-10-1.3-15.2s-0.8-10.7-1-16.4c-0.1-4.8-1.5-17.5-1.5-19l0.1-11.2c2.1-0.1 4.1-0.2 5.8-0.3 2-0.1 12-0.8 12-0.8 2.1-0.1 4.4-0.4 7.2-0.9 0.4 0 0.7-0.2 0.9-0.5 0.4-0.5 0.3-1.3 0.1-1.9-0.2-0.7-2.1-3.6-3.3-5" class="st0"/>
					<path id="Fill-9" d="m479 260.2c0.2 0.1 0.4 0 0.4 0 2.2-0.4 3.6-1.2 4.2-2.5 0.3-0.6 3.2-3.1 3.2-3.1 1.2-1.3 1.6-3.1 1.3-5.5-0.5-3.2-2.4-3.6-3.5-3.6-0.3 0-0.5 0-1 0.1s-4.4 1.8-6.7 4.3c-1.6 1.7-2.5 3.4-3.2 5.1 0 0 0 0.1-0.1 0.6 0 0.5 0.2 4.4 2.9 4.5 1.1 0.1 2.3 0 2.5 0.1" class="st0"/>
					<path id="Fill-11" d="m489 321.5c-0.7-9.1-1.2-17.9-1.4-26.1-0.3-8.4-0.8-16.1-1.4-23l-0.1-0.7-0.7-0.2c-1.3-0.3-2.4-0.3-3.3 0.1-0.8 0.3-2.3 1.5-3.2 3-0.3 0.4-0.6 0.7-0.9 0.9l-0.6 0.3s0.6 8.5 1 14.8c0.3 5.9 0.7 12 1 18.3 0.3 5.8 0.6 11.6 1 17.5 0.3 5.5 1 12.1 1 12.1s2.1 1.4 4 2.2c0.8 0.3 1.7 0.5 2.8 0.5 0.9 0 1.8-0.1 2.9-0.3l0.9-0.2-0.1-1c-0.3-2.4-2.4-13.7-2.9-18.2" class="st0"/>
					<path id="Fill-13" d="m596.9 286.8c-0.1 2.6-0.8 5.4-2.1 8.5-0.8 2.1-2.2 4.9-3.9 8.2-1.8 3.5-4 7-6.5 10.5-2.5 3.6-5.4 6.7-8.5 9.5-3 2.7-6.3 4.5-9.7 5.3-1 0.2-1.9 0.2-2.5-0.1-0.5-0.3-0.9-0.6-0.9-0.7-0.1-0.8-0.3-2.3-0.3-3.7s0.4-2.8 1-4.9 1.6-4.7 3-7.6c1.3-2.9 3.4-6.2 5.9-9.9 5.7-6.9 11.1-11.7 16-14.1 3.5-1.7 6.4-2.7 8.4-2.9 0.2 0.6 0.2 1.2 0.1 1.9m-10.4 98.3c-3.2 7.8-3.2 10.5-9.7 18.7-3.4 3.2-6.6 5.6-10.6 7.1-1.4 0.6-2.6 0.8-3.9 0.8-2.1 0-4.1-0.7-6-2.1-2.8-3.3-2.5-6-2.3-9.1 0.2-3.3 1.1-7.2 2.6-11.6 1.1-3.9 3.3-8.2 6.5-12.9s8.2-10.2 14.8-16.3c0.9-0.7 10.1-9.5 13.6-12.4 0 0.3-0.3 26.3-5 37.8m33-68.5-0.6-0.6-0.7 0.5c-2.8 1.8-5.4 3.5-8 5.2-2.1 1.5-4.2 3-6.4 4.6-1.1 0.8-1.8 1.4-2.6 2 0.3-2.1 1.8-16.6 2.5-21.2 0.7-4.9 1.5-11.1 2.4-15.8 0.5-2.8 1.1-9 1.7-9 0 0 0.9-0.9 1.4-2.1l-0.3-0.9c-2.3-1.6-5.2-2.5-8.7-2.6-3.4-0.1-6.8 0.3-10.1 1h-0.1c-3.2 1.3-6.2 2.7-8.7 4.2-2.5 1.6-4.6 3.1-6.3 4.6s-3.1 2.8-4.2 4.1c-1 1.2-1.7 1.9-1.9 2.1l-0.1 0.1c-1.5 1.8-3.2 4.2-5.1 7.2-1.8 2.9-3.5 6.2-5.1 9.7-1.6 3.6-2.7 7.3-3.5 11.1-0.5 2.3-0.6 4.5-0.6 6.7-1.1-0.4-2.3-1-3.5-1.7-1.4-0.9-2.5-2.2-3.3-4.1-1.9-4.5-3.1-8.8-3.7-12.8-0.6-4.1-1.1-7.9-1.7-11.4s-1.5-6.6-2.8-9.3c-1.4-2.9-3.7-5-7-6.5-1.7-0.7-3.7-0.2-5.6 1.4-1.7 1.5-3.3 3.4-4.9 5.9s-3 5.3-4.3 8.5c-1.3 3.1-2.6 6.1-3.7 8.8-0.5 1.1-0.9 2.2-1.3 3.3 0.1-3.2 0.2-6.6 0.2-10.2l0.1-3c0-2.6-0.6-5.4-0.5-8.2 0.1-4.3-0.6-8.1-0.6-11.6 0 0 0.1-1.1 0-1.2s-0.5-0.2-1.2-0.6c-0.8-0.5-1.6-1-2.4-1.6-0.9-0.7-1.8-1-2.7-1-0.7 0-2 0.4-2 3 0.4 8.1 0.7 17.6 1 28.4 0.2 10.8-0.7 31.6-0.7 33.1s-0.1 1.3 0.1 2.1c0.3 0.8 2.5 2.2 3.1 2.5s4.8-1.3 5-1.7 0.6-1.7 1.3-4.2c0.7-2.4 1.6-5.2 2.8-8.7s2.5-7.1 3.9-11c1.4-4 2.9-7.6 4.4-10.8s3-6 4.4-8.2c1.5-2.3 2.6-2.9 3.2-3 0.2 0.1 0.7 0.7 1.3 3.1 0.7 2.4 1.4 5.5 2.4 9.4 0.9 3.6 1.9 7.5 3 11.5s2.6 7.5 4.4 10.5c1.9 3.1 4.2 5 6.9 6 1.6 0.5 3.4 0.4 5.3-0.2 0.2 0.5 0.5 1 0.8 1.4 0.5 1 1.3 1.8 2.4 2.5s2.4 1.2 4.2 1.4c3.5 0.5 7.2-0.5 8.5-0.9 1.6-0.4 3.6-1.3 6-2.8s5-3.7 7.9-6.7c2.2-2.3 4.7-5.2 6.7-8.8-0.3 2.3-0.3 4.9-0.4 7.3-0.1 3.5-0.1 6.2-0.3 9.4-2.4 2-5 4.1-6.6 5.3-1.7 1.4-4.7 4-6.1 5.2-4.4 3.8-6.5 5.7-8.3 7.5-1.1 1.1-2.9 2.9-6.1 6.3-3 3.1-6 6.9-9.1 11.3-3.1 4.5-5.8 9.5-8.1 15s-3.3 11.2-3 16.9c0.3 5.2 1.5 9.2 3.7 11.8 2.2 2.7 4.9 4.4 8 5 1.2 0.3 2.5 0.4 3.8 0.4 2 0 4.2-0.3 6.4-0.9 3.6-1 7-2.5 10.3-4.5 2.4-1.5 4.3-2.9 5.7-4 1.4-1.2 2.8-2.6 4-4.2 1.3-1.8 2.4-3.4 3.5-4.9s2.1-3.3 3.1-5.6c1-2.2 2-5.1 2.9-8.5s1.8-8 2.6-13.5c0.7-4.9 1.1-9.8 1.5-14.7 0.3-4.9 1.6-16 1.9-20.7 0-0.1 1.8-2 4.3-4.5 2.8-2.9 5.9-6.1 9-9.7 0.3-0.3 0.9-0.9 1.4-1.6 0.7-0.9 1.3-1.7 1.9-2.4 0.7-0.9 1.2-1.7 1.6-2.5 0.8-1.5 0.4-2.3 0-2.7" class="st0"/>
				</g>
			</g>
		</g>
	</g>
</g>
</svg>
