<?xml version="1.0" encoding="UTF-8" standalone="no"?>
<svg id="svg4171" xmlns:rdf="http://www.w3.org/1999/02/22-rdf-syntax-ns#" xmlns="http://www.w3.org/2000/svg" xml:space="preserve" height="85.769" viewBox="0 0 299.99998 102.92262" width="250" version="1.1" xmlns:cc="http://creativecommons.org/ns#" xmlns:dc="http://purl.org/dc/elements/1.1/"><metadata id="metadata4177"><rdf:RDF><cc:Work rdf:about=""><dc:format>image/svg+xml</dc:format><dc:type rdf:resource="http://purl.org/dc/dcmitype/StillImage"/><dc:title/></cc:Work></rdf:RDF></metadata><defs id="defs4175"><clipPath id="clipPath4187" clipPathUnits="userSpaceOnUse"><path id="path4189" d="m0 425.2h708.66v-425.2h-708.66z"/></clipPath></defs><g id="g4179" transform="matrix(1.1359 0 0 -1.1359 -251.9 293.46)"><g id="g4183" fill="#042b48"><g id="g4185" fill="#042b48" clip-path="url(#clipPath4187)"><g id="g4191" transform="translate(340.99 217.58)"><path id="path4193" d="m0 0c0-2.425-0.463-4.637-1.3-6.226-1.009-1.905-2.173-3.234-3.366-3.843-1.641-0.835-3.707-1.69-6.586-1.69h-4.044v22.753h3.221c4.28 0 7.213-0.841 8.971-2.572 2.09-2.059 3.104-4.814 3.104-8.422m-1.89 15.206c-2.434 1.24-6.053 1.24-10.633 1.24h-7.069c-1.158 0-2.097-0.939-2.097-2.097v-29.463c0-1.157 0.939-2.096 2.097-2.096h6.662c3.78 0 7.209 0.393 9.411 1.079 1.585 0.491 3.181 1.529 5.022 3.27 1.559 1.472 2.785 3.317 3.642 5.484 0.886 2.243 1.318 4.609 1.318 7.232 0 3.66-0.771 6.809-2.359 9.622-1.441 2.558-3.344 4.377-5.994 5.729" fill="#042b48"/></g><g id="g4195" transform="translate(463.03 205.82)"><path id="path4197" d="m0 0h-10.436v27.36c0 0.467-0.38 0.845-0.845 0.845h-4.702c-0.466 0-0.845-0.378-0.845-0.845v-31.966c0-0.467 0.379-0.846 0.845-0.846h15.983c0.465 0 0.848 0.379 0.848 0.846v3.759c0 0.469-0.383 0.847-0.848 0.847" fill="#042b48"/></g><g id="g4199" transform="translate(435.33 213.59)"><path id="path4201" d="m0 0c0-2.225-0.685-4.08-2.034-5.516-1.35-1.437-3.039-2.167-5.017-2.167-2.038 0-3.751 0.718-5.096 2.13-1.34 1.415-2.022 3.291-2.022 5.576 0 2.242 0.682 4.081 2.024 5.471 1.343 1.391 3.056 2.096 5.094 2.096 2.026 0 3.724-0.716 5.05-2.132 1.326-1.412 2.001-3.249 2.001-5.458m-5.813 13.324c-1.536 0-3.091-0.305-4.385-0.862-1.508-0.646-2.894-1.553-3.903-2.554l-0.601-0.48-2.708 2.543h-2.843c-0.465 0-0.842-0.377-0.842-0.842v-32.911c0-0.467 0.378-0.845 0.845-0.845h4.701c0.467 0 0.847 0.379 0.847 0.847v12.166l0.598-0.455c1.287-1.204 2.95-2.034 4.125-2.52 1.249-0.516 2.621-0.78 4.076-0.78 3.306 0 6.085 1.248 8.499 3.812 2.408 2.557 3.581 5.661 3.581 9.488 0 3.886-1.176 7.13-3.505 9.64-2.302 2.491-5.157 3.753-8.485 3.753" fill="#042b48"/></g><g id="g4203" transform="translate(389.23 216.16)"><path id="path4205" d="m0 0 0.149 0.387c0.847 1.866 1.627 3.045 2.381 3.604 1.364 1.009 2.965 1.522 4.765 1.522 1.543 0 3.024-0.499 4.396-1.485 1.209-0.865 2.09-2.13 2.533-3.616l0.101-0.412zm6.978 10.753c-3.801 0-6.871-1.255-9.39-3.836-2.52-2.584-3.745-5.741-3.745-9.651 0-3.815 1.228-6.902 3.757-9.439 2.526-2.535 5.709-3.766 9.73-3.766 2.584 0 4.824 0.454 6.656 1.348 1.543 0.752 2.915 1.843 4.079 3.243 0.167 0.203 0.233 0.472 0.172 0.728-0.056 0.257-0.23 0.472-0.469 0.583l-3.782 1.739c-0.3 0.138-0.656 0.089-0.907-0.128-1.691-1.459-3.641-2.2-5.797-2.2s-3.793 0.489-5.008 1.493c-1.29 1.072-2.003 2.191-2.332 3.679h19.696c0.466 0 0.842 0.375 0.844 0.841l0.007 0.835c0 4.359-1.369 8.256-3.757 10.695-2.529 2.581-5.718 3.836-9.754 3.836" fill="#042b48"/></g><g id="g4207" transform="translate(358.09 216.16)"><path id="path4209" d="m0 0 0.148 0.386c0.854 1.871 1.635 3.05 2.387 3.605 1.36 1.009 2.963 1.522 4.763 1.522 1.542 0 3.022-0.5 4.396-1.485 1.208-0.865 2.088-2.13 2.533-3.615l0.099-0.413zm6.979 10.753c-3.798 0-6.871-1.255-9.39-3.836-2.521-2.584-3.745-5.741-3.745-9.651 0-3.816 1.227-6.904 3.757-9.439 2.526-2.535 5.709-3.766 9.73-3.766 2.584 0 4.824 0.454 6.656 1.348 1.544 0.752 2.915 1.843 4.079 3.244 0.168 0.202 0.231 0.471 0.172 0.728-0.056 0.256-0.231 0.471-0.469 0.582l-3.782 1.739c-0.298 0.138-0.655 0.089-0.907-0.128-1.688-1.459-3.639-2.2-5.797-2.2-2.156 0-3.793 0.489-5.005 1.494-1.29 1.071-2.006 2.189-2.335 3.678h19.696c0.465 0 0.844 0.375 0.847 0.841l0.004 0.835c0 4.358-1.369 8.254-3.757 10.695-2.526 2.581-5.715 3.836-9.754 3.836" fill="#042b48"/></g><g id="g4211" transform="translate(284.75 212.19)"><path id="path4213" d="m0 0c-2.797 0-5.063 2.266-5.063 5.063 0 0.295 0.025 0.584 0.075 0.865l-12.108 6.972c-0.881-0.744-2.02-1.193-3.263-1.193-2.797 0-5.064 2.267-5.064 5.063s2.267 5.063 5.064 5.063 5.064-2.267 5.064-5.063c0-0.322-0.033-0.637-0.091-0.943l12.064-6.946c0.889 0.775 2.051 1.245 3.322 1.245 2.795 0 5.062-2.267 5.062-5.063 0-2.797-2.267-5.063-5.062-5.063m-15.357-6.724c0-2.796-2.266-5.063-5.063-5.063-2.795 0-5.062 2.267-5.062 5.063 0 2.797 2.267 5.064 5.062 5.064 1.257 0 2.405-0.459 3.29-1.217l8.827 5.073c0.377-1.089 0.963-2.081 1.708-2.929l-8.843-5.083c0.052-0.295 0.081-0.598 0.081-0.908m30.444 30.899-24.042 13.738c-1.637 0.935-3.647 0.935-5.284 0l-24.04-13.738c-1.66-0.948-2.684-2.714-2.684-4.624v-27.946c0-1.902 1.015-3.661 2.663-4.612l41.387-23.889 0.007 16.968 12.01 6.921c1.65 0.951 2.666 2.71 2.666 4.614v27.944c0 1.91-1.024 3.676-2.683 4.624" fill="#042b48"/></g></g></g></g></svg>
