<?xml version="1.0" encoding="UTF-8" standalone="no"?>
<svg id="svg105" xmlns:rdf="http://www.w3.org/1999/02/22-rdf-syntax-ns#" xmlns="http://www.w3.org/2000/svg" height="78.836" width="250" version="1.1" xmlns:cc="http://creativecommons.org/ns#" xmlns:xlink="http://www.w3.org/1999/xlink" viewBox="0.015 0.019 24.9475 7.8670374" xmlns:dc="http://purl.org/dc/elements/1.1/">
 <metadata id="metadata111">
  <rdf:RDF>
   <cc:Work rdf:about="">
    <dc:format>image/svg+xml</dc:format>
    <dc:type rdf:resource="http://purl.org/dc/dcmitype/StillImage"/>
    <dc:title/>
   </cc:Work>
  </rdf:RDF>
 </metadata>
 <path id="path2" stroke-width=".099996" fill="#ec2027" d="m1.5463 3.917c0-1.8391 1.4907-3.3297 3.3299-3.3297 1.8389 0 3.3301 1.4905 3.3301 3.3297 0 1.8389-1.4912 3.3299-3.3301 3.3299-1.8392 0-3.3299-1.4909-3.3299-3.3299"/>
 <g id="g26" transform="matrix(.021928 0 0 -.021929 -2.8607 13.372)">
  <defs id="defs5">
   <path id="a" d="m200.98 431.18c0 83.871 67.979 151.84 151.85 151.84 83.865 0 151.87-67.975 151.87-151.84 0-83.86-68.001-151.85-151.87-151.85-83.87 0-151.85 67.988-151.85 151.85"/>
  </defs>
  <clipPath id="b">
   <use id="use7" xlink:href="#a" height="100%" width="100%" y="0" x="0" overflow="visible"/>
  </clipPath>
  <g id="g24" clip-path="url(#b)">
   <path id="path10" fill="#cccdce" d="m404.48 225.27c-4.707 21.616-32.001 70.562-42.351 91.261-10.34 20.699-20.703 49.873-15.996 68.701 0.846 3.42-8.969 29.512-6.137 31.351 21.955 14.335 27.753-1.559 36.553 4.863 4.538 3.322 10.661-2.73 12.247 2.765 5.643 19.755-7.847 54.181-22.895 69.233-4.907 4.91-12.447 7.985-20.957 9.626-3.26 4.471-8.533 8.764-15.996 12.728-8.341 4.431-26.426 10.283-35.818 11.841-6.498 1.066-7.958-0.753-10.732-1.211 2.583-0.225 14.865-6.295 17.265-6.651-2.4-1.612-9.428 0.076-13.903-1.935-2.263-1.018-3.95-4.901-3.941-6.733 12.826 1.292 32.83 0.036 44.64-5.222-9.405-1.066-23.7-2.255-29.85-5.495-17.875-9.421-25.758-31.414-21.064-57.766 4.721-26.337 25.419-122.32 32.006-154.32 6.591-32.001-14.121-52.7-27.285-58.338l14.122-0.949-4.716-10.354c16.936-1.875 35.76 3.759 35.76 3.759-3.768-10.345-29.169-14.117-29.169-14.117s12.233-3.754 31.988 3.771a11802 11802 0 0 1 31.988 12.229l9.419-24.458 17.884 17.871 7.526-18.82c-0.002 0.001 14.106 4.709 9.412 26.365"/>
   <path id="path12" fill="#fff" d="m408.61 229.4c-4.698 21.634-31.993 70.58-42.351 91.279-10.35 20.699-20.699 49.877-15.996 68.688 0.864 3.416 0.882 17.408 3.718 19.265 21.959 14.335 20.401 0.477 29.2 6.903 4.538 3.309 8.167 7.316 9.744 12.819 5.656 19.761-7.833 54.181-22.89 69.242-4.903 4.901-12.438 7.984-20.939 9.61-3.282 4.485-8.555 8.778-16.019 12.743-14.068 7.479-31.511 10.458-47.668 7.526 2.587-0.241 8.497-5.578 10.884-5.934-3.607-2.44-13.19-2.126-13.133-7.553 12.834 1.278 26.894-0.753 38.722-6.003-9.405-1.066-18.156-3.389-24.311-6.631-17.88-9.405-22.587-28.225-17.88-54.583 4.703-26.354 25.415-122.33 31.993-154.32 6.582-31.992-14.112-52.691-27.29-58.338l14.121-0.939-4.703-10.372c16.927-1.861 35.76 3.776 35.76 3.776-3.768-10.363-29.183-14.108-29.183-14.108s12.233-3.776 32.006 3.772c19.759 7.521 31.992 12.215 31.992 12.215l9.406-24.458 17.875 17.875 7.539-18.82c0.002 0.001 14.11 4.713 9.403 26.346"/>
   <path id="path14" fill="#0071bc" d="m300.42 445.46c0 5.453 4.426 9.884 9.895 9.884 5.456 0 9.869-4.431 9.869-9.884 0-5.471-4.413-9.886-9.869-9.886-5.469 0-9.895 4.416-9.895 9.886"/>
   <path id="path16" fill="#fff" d="m312.13 448.75a2.5675 2.5675 0 1 0 5.135 0 2.579 2.579 0 0 0 -2.574 -2.57 2.57 2.57 0 0 0 -2.561 2.57"/>
   <path id="path18" fill="#0071bc" d="m367.88 451.33c0 4.676 3.808 8.483 8.492 8.483 4.694 0 8.488-3.808 8.488-8.483 0-4.705-3.794-8.506-8.488-8.506-4.684 0-8.492 3.801-8.492 8.506"/>
   <path id="path20" fill="#fff" d="m377.94 454.14c0 1.218 0.989 2.202 2.2 2.202a2.19 2.19 0 0 0 2.196 -2.202 2.184 2.184 0 0 0 -2.196 -2.193c-1.211 0-2.2 0.977-2.2 2.193"/>
   <path id="path22" fill="#188dcd" d="m313.12 474.1s-7.451 3.364-14.683-1.183-6.974-9.2-6.974-9.2-3.843 8.572 6.413 12.761c10.252 4.21 15.244-2.378 15.244-2.378m68.367 0.67s-5.353 3.062-9.503 3.015c-8.537-0.116-10.871-3.89-10.871-3.89s1.438 8.989 12.362 7.192c5.906-0.984 8.012-6.317 8.012-6.317"/>
  </g>
 </g>
 <path id="path28" d="m1.6388 3.9427c0-1.8024 1.4607-3.2631 3.2629-3.2631 1.8021 0 3.2635 1.4606 3.2635 3.2631 0 1.802-1.4612 3.2633-3.2634 3.2633s-3.263-1.4612-3.263-3.2633z" stroke="#fff" stroke-width=".45404" fill="none"/>
 <path id="path30" stroke-width=".099996" fill="#fdd204" d="m4.5642 4.4359c0.0219-0.1328 0.36509-0.38419 0.60808-0.39939 0.24349-0.0152 0.31939-0.0118 0.52248-0.0603 0.20299-0.0487 0.72677-0.17899 0.87167-0.24599 0.14499-0.067 0.75947 0.0333 0.32629 0.27469-0.1876 0.105-0.69278 0.29769-1.0536 0.40529-0.36068 0.1079-0.57918-0.103-0.69917 0.0743-0.0952 0.141-0.0194 0.33399 0.41138 0.37409 0.58188 0.054 1.14-0.26189 1.2013-0.0942 0.0618 0.16769-0.50008 0.37739-0.84217 0.38409-0.34179 0.0065-1.031-0.22599-1.134-0.29779-0.10299-0.072-0.24099-0.23969-0.21229-0.41478"/>
 <g id="g51" transform="matrix(.021928 0 0 -.021929 -2.8607 13.372)">
  <defs id="defs33">
   <path id="c" d="m347.15 332.34s-36.143 19.278-36.744 11.458c-0.61-7.833 0-39.759 4.213-42.177 4.222-2.409 34.344 15.658 34.344 15.658z"/>
  </defs>
  <clipPath id="d">
   <use id="use35" xlink:href="#c" height="100%" width="100%" y="0" x="0" overflow="visible"/>
  </clipPath>
  <g id="g49" clip-path="url(#d)">
   <linearGradient id="e" y2="-5893.7" gradientUnits="userSpaceOnUse" x2="-5820.4" gradientTransform="matrix(8.4986 0 0 -8.4986 49784 -49765)" y1="-5893.7" x1="-5821.4">
    <stop id="stop38" stop-color="#b4d66f" offset="0"/>
    <stop id="stop40" stop-color="#0db14b" offset=".691"/>
    <stop id="stop44" stop-color="#0db14b" offset="1"/>
   </linearGradient>
   <path id="path47" fill="url(#e)" d="m347.15 332.34s-36.143 19.278-36.744 11.458c-0.61-7.833 0-39.759 4.213-42.177 4.222-2.409 34.344 15.658 34.344 15.658z"/>
  </g>
 </g>
 <g id="g72" transform="matrix(.021928 0 0 -.021929 -2.8607 13.372)">
  <defs id="defs54">
   <path id="f" d="m361.01 333.55s24.707 18.677 30.126 17.47c5.424-1.211 6.626-39.759 1.799-41.584-4.818-1.795-33.088 9.788-33.088 9.788z"/>
  </defs>
  <clipPath id="g">
   <use id="use56" xlink:href="#f" height="100%" width="100%" y="0" x="0" overflow="visible"/>
  </clipPath>
  <g id="g70" clip-path="url(#g)">
   <linearGradient id="h" y2="-5883.4" gradientUnits="userSpaceOnUse" x2="-5808.2" gradientTransform="matrix(7.9189 0 0 -7.9189 46362 -46260)" y1="-5883.4" x1="-5809.2">
    <stop id="stop59" stop-color="#b4d66f" offset="0"/>
    <stop id="stop61" stop-color="#0db14b" offset=".691"/>
    <stop id="stop65" stop-color="#0db14b" offset="1"/>
   </linearGradient>
   <path id="path68" fill="url(#h)" d="m361.01 333.55s24.707 18.677 30.126 17.47c5.424-1.211 6.626-39.759 1.799-41.584-4.818-1.795-33.088 9.788-33.088 9.788z"/>
  </g>
 </g>
 <g id="g89" transform="matrix(.021928 0 0 -.021929 -2.8607 13.372)">
  <defs id="defs75">
   <path id="i" d="m339.92 332.34c0-12.638-1.803-18.071 3.616-19.273 5.424-1.207 15.658 0 19.278 2.409 3.612 2.414 0.597 18.668-0.605 21.696-1.207 3.002-22.289 0.588-22.289-4.832"/>
  </defs>
  <clipPath id="j">
   <use id="use77" xlink:href="#i" height="100%" width="100%" y="0" x="0" overflow="visible"/>
  </clipPath>
  <g id="g87" clip-path="url(#j)">
   <linearGradient id="k" y2="-5815.4" gradientUnits="userSpaceOnUse" x2="-5728" gradientTransform="matrix(5.46 0 0 -5.46 31620 -31426)" y1="-5815.4" x1="-5729">
    <stop id="stop80" stop-color="#73c063" offset="0"/>
    <stop id="stop82" stop-color="#0db14b" offset="1"/>
   </linearGradient>
   <path id="path85" fill="url(#k)" d="m339.92 332.34c0-12.638-1.803-18.071 3.616-19.273 5.424-1.207 15.658 0 19.278 2.409 3.612 2.414 0.597 18.668-0.605 21.696-1.207 3.002-22.289 0.588-22.289-4.832"/>
  </g>
 </g>
 <path id="path91" d="m1.56 3.9526c0-1.8389 1.4908-3.3299 3.3296-3.3299 1.8387 0 3.3299 1.4907 3.3299 3.3299 0 1.8389-1.491 3.3299-3.3299 3.3299-1.8388 0-3.3296-1.4907-3.3296-3.33z" stroke="#ec2027" stroke-width=".33982" fill="none"/>
 <g id="g103" stroke-width=".61449" transform="matrix(.099996 0 0 .099996 1.39 .45265)">
  <path id="path93" d="m91.993 37.874c0 1.878 0.189 3.287 0.566 4.22 0.379 0.936 0.95 1.665 1.718 2.187 0.767 0.522 1.722 0.783 2.867 0.783s2.097-0.26 2.856-0.783c0.76-0.522 1.328-1.245 1.706-2.168 0.378-0.924 0.567-2.295 0.567-4.118v-6.485h-1.549v6.174c0 1.653-0.075 2.735-0.226 3.244a3.509 3.509 0 0 1 -1.217 1.807c-0.588 0.458-1.303 0.686-2.146 0.686s-1.569-0.235-2.178-0.706-1.021-1.108-1.238-1.92c-0.145-0.567-0.216-1.604-0.216-3.11v-6.175h-1.508v6.365h-0.002zm23.748-5.264c-0.503-0.429-1.117-0.776-1.84-1.043a6.44 6.44 0 0 0 -2.251 -0.4c-1.238 0-2.357 0.307-3.357 0.923-1.001 0.615-1.787 1.472-2.36 2.568s-0.858 2.286-0.858 3.565c0 1.903 0.612 3.52 1.835 4.848 1.224 1.327 2.764 1.991 4.622 1.991 1.209 0 2.287-0.261 3.233-0.785a5.922 5.922 0 0 0 2.262 -2.206l-1.199-0.887c-1.093 1.545-2.501 2.316-4.226 2.316-0.942 0-1.792-0.234-2.55-0.704s-1.355-1.129-1.79-1.98a5.882 5.882 0 0 1 -0.651 -2.718c0-1.48 0.472-2.74 1.417-3.776 0.946-1.035 2.133-1.553 3.564-1.553 1.79 0 3.202 0.773 4.236 2.316l1.199-0.837c-0.354-0.662-0.782-1.209-1.286-1.638zm4.169 12.111h1.507v-5.933l5.892 5.933h2.154l-6.836-6.907 6.452-6.306h-2.214l-5.448 5.323v-10.421h-1.506v18.31zm18.788 0c1.98 0 3.518-0.323 4.615-0.971 1.098-0.647 1.991-1.651 2.678-3.01 0.687-1.36 1.032-2.934 1.032-4.722 0-2.073-0.434-3.858-1.301-5.355-0.867-1.498-2.073-2.549-3.612-3.156-1.073-0.43-2.796-0.644-5.171-0.644h-3.294v17.857h5.053zm-3.531-16.103h1.123c2.283 0 3.922 0.17 4.916 0.51 1.323 0.452 2.358 1.289 3.1 2.51 0.74 1.22 1.112 2.692 1.112 4.413 0 1.642-0.343 3.03-1.026 4.166-0.684 1.136-1.623 1.922-2.82 2.358-0.85 0.308-2.373 0.461-4.569 0.461h-1.836zm14.488 9.256c0 1.878 0.19 3.287 0.567 4.22 0.379 0.936 0.95 1.665 1.716 2.187 0.767 0.522 1.722 0.783 2.867 0.783 1.144 0 2.097-0.26 2.857-0.783 0.758-0.522 1.327-1.245 1.706-2.168 0.378-0.924 0.566-2.295 0.566-4.118v-6.485h-1.549v6.174c0 1.653-0.076 2.735-0.226 3.244a3.503 3.503 0 0 1 -1.217 1.807c-0.588 0.458-1.303 0.686-2.145 0.686-0.844 0-1.57-0.235-2.18-0.706-0.608-0.47-1.02-1.108-1.237-1.92-0.144-0.567-0.216-1.604-0.216-3.11v-6.175h-1.508v6.365zm23.748-5.264c-0.504-0.429-1.117-0.776-1.84-1.043a6.44 6.44 0 0 0 -2.251 -0.4c-1.237 0-2.357 0.307-3.358 0.923-1.001 0.615-1.787 1.472-2.36 2.568a7.605 7.605 0 0 0 -0.857 3.565c0 1.903 0.611 3.52 1.834 4.848 1.224 1.327 2.764 1.991 4.62 1.991 1.21 0 2.288-0.261 3.233-0.785a5.918 5.918 0 0 0 2.264 -2.206l-1.2-0.887c-1.092 1.545-2.5 2.316-4.226 2.316-0.941 0-1.79-0.234-2.55-0.704-0.757-0.47-1.354-1.129-1.79-1.98a5.883 5.883 0 0 1 -0.652 -2.718c0-1.48 0.473-2.74 1.417-3.776 0.946-1.035 2.133-1.553 3.564-1.553 1.79 0 3.203 0.773 4.237 2.316l1.199-0.837c-0.352-0.662-0.78-1.209-1.284-1.638z" stroke="#000"/>
  <path id="path95" d="m211.04 33.39c-1.08 1.344-1.622 2.931-1.622 4.762 0 1.845 0.57 3.46 1.714 4.84 1.143 1.382 2.615 2.072 4.418 2.072 1.795 0 3.265-0.69 4.408-2.071 1.142-1.381 1.713-2.995 1.713-4.841 0-1.84-0.54-3.431-1.622-4.775-1.19-1.474-2.69-2.21-4.5-2.21-1.816 0-3.32 0.74-4.509 2.222zm7.737 1.003c0.905 1.045 1.358 2.309 1.358 3.792a5.9 5.9 0 0 1 -0.617 2.674c-0.41 0.827-0.967 1.465-1.667 1.915a4.19 4.19 0 0 1 -2.307 0.674 4.188 4.188 0 0 1 -2.306 -0.674c-0.7-0.45-1.256-1.088-1.668-1.915a5.929 5.929 0 0 1 -0.618 -2.674c0-1.482 0.451-2.747 1.353-3.792s1.982-1.568 3.238-1.568c1.252 0 2.328 0.523 3.234 1.568z" stroke="#090" fill="#090"/>
  <path id="path97" d="m177.57 44.721h1.508v-5.933l5.891 5.933h2.154l-6.836-6.907 6.452-6.306h-2.214l-5.447 5.323v-10.421h-1.508v18.31z" stroke="#000"/>
  <path id="path99" d="m202.8 27.23a8.983 8.983 0 0 0 -3.798 -0.82c-1.662 0-3.151 0.412-4.468 1.233s-2.353 1.961-3.108 3.418c-0.756 1.457-1.133 3.032-1.133 4.725 0 2.274 0.658 4.278 1.976 6.01 1.712 2.251 4.037 3.376 6.972 3.376 2.417 0 4.349-0.812 5.791-2.436 1.443-1.625 2.17-3.82 2.186-6.581h-6.84v1.726h5.06c-0.21 1.654-0.879 2.998-2.01 4.035-1.13 1.039-2.512 1.557-4.146 1.557a6.968 6.968 0 0 1 -3.714 -1.04c-1.131-0.691-2.016-1.644-2.656-2.854a8.083 8.083 0 0 1 -0.96 -3.833c0-1.313 0.308-2.558 0.927-3.736a7.079 7.079 0 0 1 2.617 -2.8c1.126-0.688 2.312-1.033 3.557-1.033 1 0 2.027 0.253 3.082 0.76 1.054 0.505 2.024 1.248 2.909 2.228l1.23-1.311c-1.13-1.203-2.288-2.079-3.474-2.625z" stroke="#090" fill="#090"/>
  <path id="path101" d="m81.035 44.721c1.98 0 3.518-0.323 4.617-0.971 1.097-0.647 1.99-1.651 2.677-3.01 0.687-1.36 1.03-2.934 1.03-4.722 0-2.073-0.433-3.858-1.3-5.355-0.867-1.498-2.071-2.549-3.611-3.156-1.073-0.43-2.796-0.644-5.171-0.644h-3.295v17.857h5.053zm-3.531-16.103h1.124c2.282 0 3.921 0.17 4.915 0.51 1.325 0.452 2.358 1.289 3.1 2.51 0.742 1.22 1.112 2.692 1.112 4.413 0 1.642-0.342 3.03-1.026 4.166-0.683 1.136-1.624 1.922-2.819 2.358-0.85 0.308-2.373 0.461-4.57 0.461h-1.836z" stroke="#000"/>
 </g>
</svg>
