<?xml version="1.0" encoding="UTF-8" standalone="no"?>
<!-- Generator: Adobe Illustrator 22.0.1, SVG Export Plug-In . SVG Version: 6.00 Build 0)  -->
<svg id="Logo" xmlns:rdf="http://www.w3.org/1999/02/22-rdf-syntax-ns#" xmlns="http://www.w3.org/2000/svg" xml:space="preserve" viewBox="0 0 300 120.37617" height="100.31" width="250" version="1.2" y="0px" x="0px" xmlns:cc="http://creativecommons.org/ns#" xmlns:dc="http://purl.org/dc/elements/1.1/"><metadata id="metadata17"><rdf:RDF><cc:Work rdf:about=""><dc:format>image/svg+xml</dc:format><dc:type rdf:resource="http://purl.org/dc/dcmitype/StillImage"/><dc:title/></cc:Work></rdf:RDF></metadata>
<g id="g10" transform="matrix(1.3062 0 0 1.3062 25 10.031)">
	<path id="path2" fill="#f5af02" d="m121.2 40.7c-8.7 0.3-14.1 1.9-14.1 7.6 0 3.7 3 7.7 10.5 7.7 10.1 0 15.4-5.5 15.4-14.5v-1c-3.5 0-7.9 0.1-11.8 0.2zm21.4 11.9c0 2.8 0.1 5.5 0.3 8h-8.9c-0.2-2-0.3-4.1-0.3-6-4.8 5.9-10.6 7.6-18.5 7.6-11.9 0-18.2-6.2-18.2-13.5 0-10.5 8.6-14.1 23.5-14.5 4.1-0.1 8.7-0.1 12.5-0.1v-1c0-7-4.5-9.9-12.3-9.9-5.8 0-10 2.4-10.5 6.5h-10.1c1.1-10.3 11.9-12.9 21.4-12.9 11.4 0 21 4.1 21 16.1v19.7z"/>
	<path id="path4" fill="#e53238" d="m38.2 35.6c-0.4-9-6.8-12.3-13.8-12.3-7.4-0.1-13.4 3.7-14.4 12.3zm-28.4 6.4c0.5 8.7 6.5 13.9 14.8 13.9 5.7 0 10.8-2.3 12.5-7.4h9.9c-2 10.2-12.9 13.7-22.3 13.7-17.1 0-24.7-9.4-24.7-22.1 0-14 7.8-23.2 24.8-23.2 13.5 0 23.5 7.1 23.5 22.5v2.6z"/>
	<path id="path6" fill="#0064d2" d="m72.9 55.6c8.9 0 15-6.4 15-16.1s-6.1-16.1-15-16.1-15 6.4-15 16.1 6.1 16.1 15 16.1zm-24.6-55.6h9.6v24.1c4.7-5.6 11.2-7.2 17.6-7.2 10.7 0 22.6 7.2 22.6 22.8 0 13-9.4 22.5-22.7 22.5-7 0-13.5-2.5-17.6-7.4 0 2-0.1 4-0.3 5.9h-9.5c0.2-3 0.3-6.8 0.3-9.9z"/>
	<path id="path8" fill="#86b817" d="m191.4 18.5-29.7 58.3h-10.7l8.5-16.2-22.3-42.1h11.2l16.4 32.9 16.4-32.9z"/>
</g>
</svg>
