<?xml version="1.0" encoding="UTF-8" standalone="no"?>
<!-- Generator: Adobe Illustrator 14.0.0, SVG Export Plug-In . SVG Version: 6.00 Build 43363)  -->
<svg id="Layer_1" xmlns:rdf="http://www.w3.org/1999/02/22-rdf-syntax-ns#" xmlns="http://www.w3.org/2000/svg" enable-background="new 0 0 2592 720" xml:space="preserve" height="61.999" viewBox="0 0 299.99958 74.399007" width="250" version="1.1" y="0px" x="0px" xmlns:cc="http://creativecommons.org/ns#" xmlns:dc="http://purl.org/dc/elements/1.1/"><metadata id="metadata262"><rdf:RDF><cc:Work rdf:about=""><dc:format>image/svg+xml</dc:format><dc:type rdf:resource="http://purl.org/dc/dcmitype/StillImage"/><dc:title/></cc:Work></rdf:RDF></metadata>
<path id="path235" stroke-width=".10687" fill="#807f83" d="m30.181 18.208h5.8186c0.3334 0 0.6015-0.27155 0.6022-0.60241 0-0.002-0.071-4.9891-0.071-6.3759v-0.0165c0-1.139 0.2391-2.132 0.6554-2.9642l0.199-0.37371c-0.022 0.004-0.044 0.0146-0.067 0.0369l-11.306 11.211c-0.022 0.0182-0.036 0.0418-0.042 0.0661 0.2339-0.11574 0.5536-0.2739 0.5988-0.29378 0.9846-0.44425 2.1784-0.68769 3.6075-0.68769zm45.276-1.2207c-0.4622-2.4742-1.9332-3.6935-3.2631-4.1729-1.4349-0.51863-4.3445-1.0558-8.0002-1.4867-2.9411-0.34635-6.3979-0.31878-8.486-0.25424-0.251-1.7159-1.455-3.2841-2.802-3.827-3.59-1.4447-9.135-1.0957-10.559-0.6967-1.1314 0.31622-2.3838 0.96426-3.0808 1.9629-0.4674 0.66707-0.7698 1.5217-0.7722 2.7156 0 0.67572 0.019 2.2675 0.036 3.6818 0.017 1.4187 0.036 2.6875 0.036 2.6962-0.0006 1.2631-1.0243 2.291-2.2929 2.2926h-5.8196c-1.2413 0-2.1898 0.2086-2.9143 0.53775-0.7257 0.32947-1.2396 0.77361-1.6301 1.2991-0.7772 1.0434-0.9122 2.3311-0.909 3.6451 0 0 0.011 1.0738 0.2702 3.1522 0.2151 1.6081 1.9591 12.842 3.6155 16.259 0.6423 1.3293 1.07 1.883 2.3318 2.469 2.8114 1.2036 9.2329 2.5427 12.243 2.9261 3.0042 0.3844 4.8898 1.1924 6.0135-1.1637 0-0.006 0.2251-0.58616 0.5295-1.4375 0.9756-2.9563 1.1114-5.5793 1.1114-7.4775 0-0.193 0.2831-0.20187 0.2831 0 0 1.3401-0.2559 6.0823 3.3264 7.3546 1.4142 0.50152 4.3479 0.94866 7.3287 1.298 2.6953 0.30971 4.6513 1.3704 4.6513 8.2853 0 4.207-0.8837 4.7839-5.5031 4.7839-3.7446 0-5.1718 0.0969-5.1718-2.878 0-2.4044 2.378-2.1524 4.1404-2.1524 0.7872 0 0.2159-0.58552 0.2159-2.0689 0-1.4756 0.9229-2.3286 0.05-2.3502-6.0944-0.16767-9.6803-0.007-9.6803 7.6149 0 6.9193 2.6479 8.2042 11.298 8.2042 6.7818 0 9.1724-0.22207 11.973-8.9107 0.5544-1.7152 1.8944-6.9497 2.7054-15.738 0.5128-5.557-0.4833-22.329-1.2735-26.563zm-11.822 18.539c-0.8378-0.0293-1.6437 0.0236-2.3952 0.14438 0.2115-1.7081 0.9165-3.8039 3.414-3.7162 2.7646 0.0951 3.152 2.7081 3.1618 4.478-1.1657-0.5198-2.6088-0.85098-4.1806-0.90623z"/>
<path id="path237" stroke-width=".10687" fill="#7ac143" d="m273.06 25.123c1.0727 0 1.9372 0.86925 1.9372 1.937 0 1.0713-0.8645 1.9428-1.9372 1.9428-1.0746 0-1.939-0.8715-1.939-1.9428 0-1.0677 0.8644-1.937 1.939-1.937zm0 3.5376c0.8657 0 1.5745-0.70672 1.5745-1.6007 0-0.89309-0.7089-1.5984-1.5745-1.5984-0.8672 0-1.5757 0.70532-1.5757 1.5984 0 0.89394 0.7085 1.6007 1.5757 1.6007zm-0.8269-2.7087h0.8523c0.5476 0 0.8316 0.1913 0.8316 0.63832 0 0.40439-0.257 0.57281-0.5726 0.63116l0.5968 0.94748h-0.4169l-0.5827-0.92964h-0.3431v0.92964h-0.3653v-2.217zm0.3653 0.94856h0.487c0.3533 0 0.4636-0.12076 0.4636-0.32862 0-0.20583-0.175-0.27956-0.4636-0.27956h-0.487z"/>
<g id="g255" fill="#7ac143" transform="matrix(.10687 0 0 .10687 11.844 -1.2793)">
	<path id="path239" d="m682.6 432.81h24.379l1.176-155.76h-25.56v-29.89h161.64l1.97 60.571h-31.858l-2.748-30.686h-60.97l-0.395 60.96h61.755v29.902h-62.15l-0.387 64.901h61.354l3.938-34.63h34.607l-3.932 64.512h-162.83z"/>
	<path id="path241" d="m1103.4 277.05h-20.447l-76.711 185.65h-44.07l-77.09-185.65h-21.633v-29.885h92.049v29.885h-21.636l53.092 146.32h0.78l52.708-146.32h-25.948v-29.885h88.88z"/>
	<path id="path243" d="m1124.7 432.81h24.38l1.183-155.76h-25.563v-29.885h161.64l1.97 60.571h-31.853l-2.758-30.686h-60.966l-0.391 60.96h61.755v29.902h-62.139l-0.402 64.901h61.351l3.947-34.63h34.61l-3.939 64.512h-162.82v-29.881z"/>
	<path id="path245" d="m1331.9 432.81h24.38l1.178-155.76h-25.558v-29.885h99.505c49.964 0 66.073 28.714 66.073 56.633 0 24.781-12.182 47.202-50.738 57.033v0.784c20.057 5.501 25.188 10.621 45.242 45.235 13.357 22.424 18.079 25.964 25.564 25.964 3.14 0 6.282-0.794 9.04-1.18v31.062h-22.033c-29.109 0-32.626-3.527-55.435-48.773-20.471-40.114-25.192-42.861-40.924-42.861h-8.637l-0.402 61.753h25.552v29.882h-92.808v-29.883zm68.055-91.656h16.902c23.196 0 38.921-12.58 38.921-32.632 0-19.669-9.814-31.476-29.492-31.476h-25.967z"/>
	<path id="path247" d="m1724.5 277.05h-25.575v-29.885h84.555v29.885h-24.387l-1.178 185.65h-32.25l-115.24-153.39h-0.781l-1.19 123.51h25.577v29.882h-84.561v-29.882h24.386l1.178-155.76h-25.563v-29.885h63.718l109.34 145.92h0.786z"/>
	<path id="path249" d="m1905.8 242.82c74.345 0 106.98 49.167 106.98 108.96 0 68.04-40.522 115.23-106.98 115.23-74.339 0-106.98-49.157-106.98-109.32-0.001-67.649 40.497-114.87 106.98-114.87zm0 189.59c40.105 0 62.914-34.229 62.914-77.884 0-49.148-26.723-77.076-62.914-77.076-40.123 0-62.93 34.213-62.93 78.66 0 48.379 26.746 76.3 62.93 76.3z"/>
	<path id="path251" d="m2080.4 432.81h24.368l1.176-155.76h-43.238l-1.607 30.686h-32.614l2.336-60.571h193.14l2.358 60.571h-32.659l-1.571-30.686h-43.263l-1.182 155.76h25.552v29.882h-92.795v-29.882z"/>
	<path id="path253" d="m2250.3 432.81h24.388l1.191-155.76h-25.579v-29.885h161.67l1.951 60.571h-31.847l-2.753-30.686h-60.962l-0.394 60.96h61.728v29.902h-62.125l-0.402 64.901h61.352l3.957-34.63h34.587l-3.917 64.512h-162.85z"/>
</g>
</svg>
