<svg xmlns="http://www.w3.org/2000/svg" viewBox="0 0 300 116.25" width="250" height="96.875"><path d="M195.117 19.697v65.235h19.58V74.97h-6.494V9.785h-13.135zM25 74.971h6.64V43.477H25v-8.643l6.64-1.074v-8.79c0-10.595 2.296-15.234 15.82-15.234 2.93 0 6.397.44 9.425.977l-1.807 10.644c-2.05-.341-3.076-.39-4.394-.39-4.786 0-5.957.488-5.957 5.127v7.666h9.912v9.765h-9.864V75.02h6.592v9.96H25zm163.477-3.174c-2.051.44-3.858.39-5.127.39-5.42.147-4.932-1.66-4.932-6.738V43.428h10.254v-9.766h-10.254V9.687h-13.135v58.448c0 11.474 2.832 16.699 15.186 16.699 2.93 0 6.933-.732 9.96-1.416zm-39.6-28.32v-1.758c-3.955-.733-7.91-.733-10.059-.733-6.103 0-6.836 3.223-6.836 4.98 0 2.491.83 3.81 7.471 5.274 9.668 2.149 19.385 4.444 19.385 16.406 0 11.377-5.86 17.237-18.164 17.237-8.252 0-16.26-1.758-22.363-3.32v-9.815h9.912v1.758c4.297.83 8.74.732 11.084.732 6.494 0 7.568-3.515 7.568-5.37 0-2.589-1.855-3.81-7.959-5.079-11.523-1.953-20.605-5.908-20.605-17.578 0-11.035 7.373-15.38 19.726-15.38 8.35 0 14.697 1.317 20.8 2.831v9.717h-9.96zm-66.455 28.32v-1.563h-1.563v1.514c-7.03-.39-12.695-6.055-13.037-13.135h1.563v-1.562h-1.563c.44-6.983 6.006-12.598 13.037-13.037v1.562h1.563v-1.562c6.885.39 12.451 5.81 13.086 12.646v.44h-1.563v1.562h1.563v.44c-.635 6.884-6.153 12.304-13.086 12.695zm26.22 0v-40.82H95.509v3.808a26.67 26.67 0 00-8.936-3.369h.098v-4.492h1.611v-3.32H75.05v3.32h1.611v4.54h.098c-12.549 2.296-22.07 13.282-22.07 26.515 0 14.892 12.06 26.953 26.953 26.953 5.078 0 9.814-1.416 13.916-3.858l2.343 3.858h13.868V71.797zM247.95 33.76H275v9.717h-6.445l-16.602 40.82c-4.736 11.474-12.549 22.265-24.463 22.265-2.93 0-6.836-.341-9.521-.976l1.172-11.914c1.757.342 4.004.537 5.175.537 5.518 0 11.72-3.418 13.672-9.375l-16.797-41.357h-6.445V33.76h27.05v9.717h-6.444l9.521 23.437 9.522-23.437h-6.446zM88.525 52.07l-.976-.976-5.078 4.443a2.28 2.28 0 00-.83-.146c-1.368 0-2.49 1.123-2.49 2.539 0 1.416 1.122 2.539 2.49 2.539 1.367 0 2.49-1.123 2.49-2.54 0-.243-.049-.536-.098-.78l4.492-5.079" fill="#d52f2f"/></svg>