<?xml version="1.0" encoding="UTF-8" standalone="no"?>
<svg id="svg16" xmlns:rdf="http://www.w3.org/1999/02/22-rdf-syntax-ns#" xmlns="http://www.w3.org/2000/svg" height="95.825" width="250" version="1.1" xmlns:cc="http://creativecommons.org/ns#" xmlns:dc="http://purl.org/dc/elements/1.1/" viewBox="0 0 300 114.98974">
 <metadata id="metadata22">
  <rdf:RDF>
   <cc:Work rdf:about="">
    <dc:format>image/svg+xml</dc:format>
    <dc:type rdf:resource="http://purl.org/dc/dcmitype/StillImage"/>
    <dc:title/>
   </cc:Work>
  </rdf:RDF>
 </metadata>
 <path id="path2" stroke-width=".45887" fill="#2f292b" d="m140.32 71.837h-4.7263v-5.2815h4.7263v-2.2255c0-5.1118 3.1662-8.7276 9.6178-8.7276 1.3858 0 2.8358 0.16978 4.1665 0.22026v5.8918a25.439 25.439 0 0 0 -2.8908 -0.16519c-2.1658 0-3.001 0.8902-3.001 3.2809v1.7253h5.4467v5.2815h-5.45v23.453h-7.8925z"/>
 <path id="path4" stroke-width=".45887" fill="#2f292b" d="m159.05 82.845c0.22484 5.0567 2.6109 7.2776 7.0574 7.2776 3.1662 0 5.7266-1.9456 6.2222-3.7214h6.9472c-2.2209 6.8371-6.9472 9.6729-13.449 9.6729-9.0626 0-14.675-6.2222-14.675-15.12 0-8.6129 5.9469-15.175 14.675-15.175 9.783 0 14.56 8.2274 13.949 17.065zm12.839-5.0062c-0.725-4.0013-2.4458-6.1121-6.2819-6.1121-5.1118 0-6.392 3.8912-6.5572 6.1121z"/>
 <path id="path6" stroke-width=".45887" fill="#2f292b" d="m186.93 82.845c0.22484 5.0567 2.6155 7.2776 7.0574 7.2776 3.1662 0 5.7266-1.9456 6.2222-3.7214h6.9472c-2.2255 6.8371-6.9472 9.6729-13.449 9.6729-9.058 0-14.67-6.2222-14.67-15.12 0-8.6129 5.9469-15.175 14.67-15.175 9.783 0 14.56 8.2274 13.949 17.065zm12.839-5.0062c-0.725-4.0013-2.4458-6.1121-6.2819-6.1121-5.1118 0-6.392 3.8912-6.5572 6.1121z"/>
 <path id="path8" stroke-width=".45887" fill="#2f292b" d="m228.8 91.623h-0.11013c-1.8309 3.1157-5.0016 4.4464-8.723 4.4464-8.6726 0-12.894-7.3923-12.894-15.395 0-7.7227 4.2812-14.895 12.729-14.895 3.391 0 6.727 1.4454 8.5028 4.2812h0.11013v-14.45h7.8925v39.683h-7.5024v-3.6709zm-6.8922-19.896c-5.1668 0-6.9472 4.5015-6.9472 9.1727 0 4.5015 2.0557 9.2232 6.9472 9.2232 5.1668 0 6.782-4.5565 6.782-9.2828-0.005-4.6667-1.6703-9.1131-6.782-9.1131zm16.12-16.12h7.8925v39.683h-7.8925z"/>
 <path id="path10" stroke-width=".45887" fill="#2f292b" d="m262.99 98.905c-1.7253 4.6162-4.5015 6.5021-9.8931 6.5021-1.6106 0-3.2212-0.11012-4.8364-0.27532v-6.5067c1.5005 0.16519 3.056 0.33497 4.6116 0.27532 2.0557-0.22026 3.056-1.8309 3.056-3.6113 0-0.61029-0.11013-1.2206-0.33038-1.7804l-10.11-26.952h8.4477l6.5021 19.676h0.11013l6.2819-19.676h8.17z"/>
 <path id="path12" stroke-width=".45887" fill="#0fc62b" d="m87.517 95.165-26.366-0.0367c-2.8908 0-5.6073-1.1242-7.6539-3.1662l-25.334-25.37c-4.217-4.2262-4.217-11.091 0-15.308l38.54-38.531c2.042-2.0419 4.7584-3.1708 7.6493-3.1708 2.8908 0 5.6119 1.1288 7.6539 3.1708l38.535 38.531c2.042 2.0465 3.1662 4.763 3.1662 7.6539 0 2.8954-1.1242 5.6119-3.1708 7.6493l-25.045 25.371c-2.0052 2.0098-4.7951 3.1662-7.6493 3.1662z"/>
 <path id="path14" stroke-width=".45887" fill="#fff" d="m50.968 63.293h-4.5932a2.0832 2.0832 0 0 1 -1.473 -0.6057l-2.6798-2.6798a2.08 2.08 0 0 1 -0.61029 -1.473c0-0.55523 0.21567-1.0829 0.61029-1.473l30.106-30.115c0.39003-0.39004 0.91314-0.61029 1.473-0.61029 0.55982 0 1.0783 0.21567 1.473 0.61029l4.9741 4.9787a2.0855 2.0855 0 0 1 0 2.9459l-27.816 27.816a2.0465 2.0465 0 0 1 -1.4638 0.6057zm24.765 24.76h-4.5932c-0.55064 0-1.0738-0.21567-1.4684-0.61029l-2.6844-2.6752a2.0993 2.0993 0 0 1 -0.61029 -1.473c0-0.55982 0.21566-1.0829 0.61029-1.473l4.9741-4.9833c0.38544-0.38545 0.92231-0.60571 1.4729-0.60571 0.54605 0 1.0829 0.22026 1.473 0.61029l4.9741 4.9695c0.81219 0.81219 0.8076 2.1383 0 2.9459l-2.6798 2.6798c-0.38544 0.39003-0.92231 0.61488-1.4684 0.61488zm-11.715-12.045h-4.5886c-0.55523 0-1.0737-0.21567-1.4684-0.6057l-2.6844-2.6798a2.0961 2.0961 0 0 1 -0.61029 -1.473c0-0.55523 0.21567-1.0783 0.61029-1.473l18.901-18.905c0.38086-0.38545 0.92232-0.6057 1.473-0.6057 0.55064 0 1.0875 0.22026 1.473 0.61029l4.9741 4.9741a2.0855 2.0855 0 0 1 0 2.9459l-16.602 16.602c-0.39004 0.39003-0.92691 0.61029-1.4775 0.61029z"/>
</svg>
