<?xml version="1.0" encoding="UTF-8" standalone="no"?>
<!-- Generator: Gravit.io -->
<svg id="svg72" xmlns:rdf="http://www.w3.org/1999/02/22-rdf-syntax-ns#" style="isolation:isolate" xmlns="http://www.w3.org/2000/svg" height="66.005" width="250" version="1.1" xmlns:cc="http://creativecommons.org/ns#" xmlns:dc="http://purl.org/dc/elements/1.1/" viewBox="0 0 300 79.205539">
 <metadata id="metadata76">
  <rdf:RDF>
   <cc:Work rdf:about="">
    <dc:format>image/svg+xml</dc:format>
    <dc:type rdf:resource="http://purl.org/dc/dcmitype/StillImage"/>
    <dc:title/>
   </cc:Work>
  </rdf:RDF>
 </metadata>
 <defs id="defs5">
  <clipPath id="_clipPath_MReCnj0SQjifQ13hnR13pxcUrcRmVoC6">
   <rect id="rect2" y="0" width="534.56" x="0" height="141.13"/>
  </clipPath>
 </defs>
 <g id="g70" transform="matrix(.46768 0 0 .46768 25 6.6004)" clip-path="url(#_clipPath_MReCnj0SQjifQ13hnR13pxcUrcRmVoC6)">
  <clipPath id="_clipPath_1pvOp5sj38WHsNSoGjfMNIT0JGaR6b5B">
   <path id="path7" fill="#fff" d="m0 0v141.13h534.56v-141.13z"/>
  </clipPath>
  <g id="g12" clip-path="url(#_clipPath_1pvOp5sj38WHsNSoGjfMNIT0JGaR6b5B)">
   <path id="path10" fill="#373535" d="m113.3 116.24h11.575v22.584h-54.634c-0.252-0.868-0.346-20.49-0.091-22.566 3.796-0.041 7.62 0.004 11.416-0.025 0.264-0.945 0.326-46.456 0.076-47.901h-37.45c-0.264 0.928-0.3 46.607-0.02 47.894h13.485v22.588h-56.719v-22.573h11.59v-47.972h-12.528v-22.635c4.136-0.079 8.279 0.011 12.597-0.05 0-0.581 0.003-1.091-0.001-1.601-0.027-3.647 0.13-7.276 0.859-10.867 2.13-10.5 8.27-17.693 18.029-21.894 4.415-1.901 9.055-2.948 13.817-3.526 5.408-0.656 10.82-0.602 16.237-0.181 1.123 0.088 2.24 0.266 3.402 0.407v24.566c-1.485-0.116-2.918-0.242-4.352-0.338-2.996-0.201-5.996-0.221-8.949 0.361-1.253 0.247-2.513 0.674-3.648 1.256-2.37 1.216-3.69 3.268-3.873 5.916-0.132 1.923-0.026 3.862-0.026 5.895h68.73c0.144 0.131 0.178 0.155 0.203 0.186 0.025 0.029 0.045 0.063 0.06 0.099 0.015 0.037 0.024 0.078 0.029 0.117 0.009 0.08 0.018 0.161 0.022 0.242 0.005 0.08 0.005 0.161 0.005 0.242 0.001 0.081 0.002 0.162 0.002 0.243 0 22.91 0.001 45.82 0.002 68.729 0 0.081 0.005 0.162 0.008 0.243 0.001 0.04 0.001 0.081 0.007 0.121 0.007 0.04 0.018 0.079 0.03 0.117 0.011 0.039 0.026 0.076 0.11 0.323z"/>
  </g>
  <clipPath id="_clipPath_cRx8C1WzR85wOXXb51OH9kjhESkyneut">
   <path id="path14" fill="#fff" d="m0 0v141.13h534.56v-141.13z"/>
  </clipPath>
  <g id="g19" clip-path="url(#_clipPath_cRx8C1WzR85wOXXb51OH9kjhESkyneut)">
   <path id="path17" fill="#373535" d="m263.74 80.7h26.447c0.035-0.24 0.111-0.438 0.083-0.619-0.222-1.393-0.318-2.828-0.728-4.166-1.102-3.593-3.161-6.534-6.745-7.969-4.914-1.967-9.488-0.946-13.51 2.319-3.143 2.552-4.65 6.139-5.596 9.982-0.026 0.107 0.023 0.233 0.049 0.453zm58.488 47.336c-2.07 1.676-4.203 3.055-6.421 4.313-7.586 4.304-15.727 6.978-24.356 8.112-9.583 1.258-19.094 0.898-28.28-2.34-16.945-5.973-27.363-17.902-31.28-35.369-2.375-10.588-1.409-21.054 2.758-31.063 6.105-14.671 17.187-23.548 32.629-27.02 6.456-1.452 12.993-1.636 19.544-0.742 8.374 1.143 15.921 4.204 22.246 9.94 5.83 5.288 9.554 11.87 11.668 19.39 1.792 6.371 2.389 12.867 1.794 19.465-0.117 1.29-0.213 2.581-0.335 3.869-0.041 0.437-0.131 0.87-0.214 1.403h-59.002c0.02 0.382-0.005 0.654 0.055 0.907 2.369 9.963 9.635 14.811 17.599 15.943 4.724 0.672 9.356 0.116 13.929-1.132 5.425-1.481 10.476-3.801 15.229-6.791 0.302-0.189 0.612-0.368 1.027-0.617 3.799 7.235 7.571 14.42 11.41 21.732z"/>
  </g>
  <clipPath id="_clipPath_DNkd3ZTSEfJUt6otpOBxfXlBT7haajrK">
   <path id="path21" fill="#fff" d="m0 0v141.13h534.56v-141.13z"/>
  </clipPath>
  <g id="g26" clip-path="url(#_clipPath_DNkd3ZTSEfJUt6otpOBxfXlBT7haajrK)">
   <path id="path24" fill="#373535" d="m194.57 138.84h-37.025c-8.598-23.454-17.218-46.964-25.883-70.599h-10.452v-22.437c0.863-0.248 47.811-0.334 49.563-0.086v22.497h-8.183c0.116 0.488 0.175 0.824 0.277 1.146 3.515 11.096 7.027 22.193 10.557 33.285 1.033 3.248 1.694 6.57 2.111 9.948 0.067 0.541 0.179 1.078 0.273 1.635 0.812-0.115 0.646-0.656 0.693-1.049 0.384-3.217 0.923-6.404 1.883-9.504 1.173-3.783 2.39-7.552 3.586-11.328 2.404-7.59 4.807-15.181 7.208-22.772 0.118-0.375 0.212-0.757 0.36-1.291h-8.149v-22.603h49.455v22.518h-10.376l-25.898 70.64z"/>
  </g>
  <clipPath id="_clipPath_0rpkmzQq0yJsIyYFsW4lTRZ65ttyM49P">
   <path id="path28" fill="#fff" d="m0 0v141.13h534.56v-141.13z"/>
  </clipPath>
  <g id="g33" clip-path="url(#_clipPath_0rpkmzQq0yJsIyYFsW4lTRZ65ttyM49P)">
   <path id="path31" fill="#373535" d="m373.88 116.23h12.527v22.585h-56.452c-0.234-0.865-0.317-20.53-0.076-22.556 4.115-0.065 8.258 0.013 12.478-0.043 0.025-0.5 0.06-0.892 0.06-1.284 0.003-14.085-0.025-28.171 0.024-42.255 0.01-3.033-1.452-4.458-4.447-4.429-2.307 0.022-4.614 0.007-6.921 0.001-0.394-0.001-0.788-0.037-1.241-0.06v-22.483c0.29-0.035 0.595-0.104 0.9-0.104 9.876-0.001 19.751-0.002 29.627 0.014 1.788 0.002 3.54 0.292 5.248 0.846 3.751 1.217 5.892 3.832 6.625 7.645 0.175 0.908 0.268 1.845 0.279 2.771 0.03 2.468 0.015 4.937-0.024 7.406-0.013 0.881-0.145 1.761-0.005 2.719 0.166-0.414 0.339-0.825 0.497-1.242 2.951-7.823 7.966-13.914 15.245-18.081 3.964-2.269 8.256-3.469 12.814-3.719 1.578-0.087 3.139 0.04 4.736 0.382v30.67c-1.842-0.129-3.639-0.313-5.441-0.367-3.622-0.11-7.194 0.264-10.651 1.409-7.086 2.348-11.623 7.228-14.021 14.209-1.302 3.789-1.786 7.717-1.84 11.697-0.059 4.451-0.02 8.904-0.019 13.356 0 0.237 0.039 0.475 0.078 0.913z"/>
  </g>
  <clipPath id="_clipPath_TlipZQJVgkJUCR7KIlFUdVyxiUll6IVu">
   <path id="path35" fill="#fff" d="m0 0v141.13h534.56v-141.13z"/>
  </clipPath>
  <g id="g40" clip-path="url(#_clipPath_TlipZQJVgkJUCR7KIlFUdVyxiUll6IVu)">
   <path id="path38" fill="#373535" d="m488.81 75.04c-1.589-0.126-3.038-0.266-4.489-0.35-3.663-0.213-7.284 0.081-10.811 1.12-7.729 2.279-12.584 7.458-15.018 15.039-1.085 3.378-1.573 6.863-1.633 10.392-0.08 4.735-0.031 9.471-0.034 14.206 0 0.199 0.036 0.396 0.072 0.761 4.152 0.075 8.295-0.002 12.513 0.046v22.567h-56.527v-22.543h12.476c0.04-0.451 0.098-0.795 0.099-1.138 0.004-14.248 0.002-28.495 0.005-42.743 0-1.037-0.169-2.024-0.846-2.846-0.881-1.069-2.116-1.279-3.399-1.289-2.306-0.019-4.614-0.006-6.921-0.006h-1.408v-22.577c0.357-0.026 0.707-0.074 1.058-0.075 9.592-0.003 19.185-0.002 28.777-0.002 1.994 0 3.954 0.226 5.86 0.845 3.895 1.264 6.07 3.994 6.719 7.975 0.175 1.073 0.249 2.173 0.249 3.261 0.002 3.069-0.058 6.137-0.096 9.389 0.169-0.401 0.303-0.69 0.413-0.987 2.818-7.627 7.592-13.673 14.555-17.925 4.188-2.557 8.757-3.932 13.657-4.197 1.578-0.085 3.138 0.045 4.729 0.385v30.692z"/>
  </g>
  <clipPath id="_clipPath_AK72TFuCDuoQfc9XpkeNJNZetTixoVtT">
   <path id="path42" fill="#fff" d="m0 0v141.13h534.56v-141.13z"/>
  </clipPath>
  <g id="g47" clip-path="url(#_clipPath_AK72TFuCDuoQfc9XpkeNJNZetTixoVtT)">
   <path id="path45" fill="#373535" d="m82.433 20.568c0.035-8.337 6.762-15.044 15.072-15.027 8.333 0.017 15.119 6.86 15.069 15.194-0.05 8.275-6.87 14.995-15.172 14.952-8.334-0.043-14.999-6.777-14.965-15.119z"/>
  </g>
  <clipPath id="_clipPath_fLvi6ZYifa8vy5bxrIStORqdKdgm0ctE">
   <path id="path49" fill="#fff" d="m0 0v141.13h534.56v-141.13z"/>
  </clipPath>
  <g id="g54" clip-path="url(#_clipPath_fLvi6ZYifa8vy5bxrIStORqdKdgm0ctE)">
   <path id="path52" fill="#373535" d="m514.52 34.736c2.982 0.025 5.656-0.884 8.02-2.677 7.202-5.463 7.652-16.912 0.915-22.96-5.559-4.99-14.02-4.439-18.877 1.228-4.717 5.504-4.678 14.476 0.12 19.897 2.6 2.939 5.864 4.5 9.822 4.512zm20.036-14.609c-0.114 9.911-7.007 18.391-16.73 20.004-7.843 1.302-14.273-1.483-19.022-7.814-6.651-8.864-4.757-21.768 4.032-28.39 11.235-8.463 27.575-2.568 30.924 11.185 0.399 1.639 0.537 3.341 0.796 5.015z"/>
  </g>
  <clipPath id="_clipPath_0vhA3qwvoFyT8hUXwGloWO8zTiRoMSiD">
   <path id="path56" fill="#fff" d="m0 0v141.13h534.56v-141.13z"/>
  </clipPath>
  <g id="g61" clip-path="url(#_clipPath_0vhA3qwvoFyT8hUXwGloWO8zTiRoMSiD)">
   <path id="path59" fill="#fefefe" d="m523.99 29.497c-1.387-2.665-2.7-5.187-4.003-7.69 0.042-0.066 0.056-0.109 0.085-0.13 0.098-0.07 0.2-0.134 0.303-0.196 1.913-1.168 2.777-2.912 2.635-5.105-0.155-2.394-1.204-4.295-3.515-5.228-0.879-0.355-1.874-0.559-2.822-0.585-2.831-0.077-5.664-0.033-8.497-0.028-0.232 0.001-0.465 0.065-0.757 0.109v18.837h5.96v-6.326h1.453c0.91 2.166 1.798 4.281 2.664 6.342h6.494z"/>
  </g>
  <clipPath id="_clipPath_YPiPq4Bj72V7CFVrNdeltsZn8TlYgllp">
   <path id="path63" fill="#fff" d="m0 0v141.13h534.56v-141.13z"/>
  </clipPath>
  <g id="g68" clip-path="url(#_clipPath_YPiPq4Bj72V7CFVrNdeltsZn8TlYgllp)">
   <path id="path66" fill="#373535" d="m513.43 14.575v4.504c1.173-0.005 2.361 0.305 3.13-0.825 0.586-0.863 0.596-1.864 0.069-2.748-0.711-1.191-1.943-0.875-3.199-0.931zm10.568 14.922h-6.494c-0.866-2.061-1.754-4.176-2.664-6.342h-1.453v6.326h-5.96v-18.837c0.292-0.044 0.525-0.108 0.757-0.109 2.833-0.005 5.666-0.049 8.497 0.028 0.948 0.026 1.943 0.23 2.822 0.585 2.311 0.933 3.36 2.834 3.515 5.228 0.142 2.193-0.722 3.937-2.635 5.105-0.103 0.062-0.205 0.126-0.303 0.196-0.029 0.021-0.043 0.064-0.085 0.13 1.303 2.503 2.616 5.025 4.003 7.69z"/>
  </g>
 </g>
</svg>
