<?xml version="1.0" encoding="UTF-8" standalone="no"?>
<!-- Created with Inkscape (http://www.inkscape.org/) -->
<svg id="svg2" xmlns:rdf="http://www.w3.org/1999/02/22-rdf-syntax-ns#" xmlns="http://www.w3.org/2000/svg" xml:space="preserve" height="35.929" width="250" version="1.0" xmlns:cc="http://creativecommons.org/ns#" xmlns:dc="http://purl.org/dc/elements/1.1/" viewBox="-0.592 -0.024 300 43.114929"><metadata id="metadata12"><rdf:RDF><cc:Work rdf:about=""><dc:format>image/svg+xml</dc:format><dc:type rdf:resource="http://purl.org/dc/dcmitype/StillImage"/><dc:title/></cc:Work></rdf:RDF></metadata>
	<g id="g6" fill="#1b1655" transform="matrix(.39656 0 0 .39656 24.408 3.5689)">
		<polygon id="polygon8" points="65.109 24.381 0 24.381 0 39.754 65.109 39.754"/>
		<polygon id="polygon10" points="0 15.383 0 0 89.605 0 89.605 15.383"/>
		<polygon id="polygon12" points="0 89.582 16.113 89.582 16.113 74.203 0 74.203"/>
		<polygon id="polygon14" points="40.613 49.287 0.006 49.287 0.006 64.672 40.613 64.672"/>
		<path id="path16" d="m146.6 38.9v10.063h23.012v14.443h-23.01v26.172h-16.39v-65.209h48.598v14.531zm74.997 50.678h18.445l-12.86-25.055c7.551-3.262 12.023-9.313 12.023-19.1 0-14.902-10.156-21.055-24.41-21.055h-29.629v65.209h16.207v-22.444h9.227zm-7.274-51.146c5.781 0 8.387 2.705 8.387 7.367 0 5.027-2.605 7.736-8.566 7.736h-12.77v-15.103zm34.238 51.146h49.285v-14.348h-32.99v-12.753h20.531v-14.164h-20.531v-9.602h30.695v-14.342h-47.004v65.209zm79.293 1.024c16.391 0 26.555-6.883 26.555-20.957 0-12.855-8.672-17.426-23.102-20.775-9.039-2.143-11.465-3.35-11.465-6.334 0-2.516 1.582-4.566 7.551-4.566 6.422 0 11.922 2.236 17.141 6.059l8.844-12.207c-6.609-5.406-14.43-8.48-25.234-8.48-14.727 0-24.883 7.918-24.883 20.127 0 12.951 7.82 17.049 22.359 20.4 9.875 2.328 12.203 3.914 12.203 6.996 0 3.637-2.609 5.117-9.406 5.117-6.148 0-13.797-2.891-18.453-6.613l-8.855 12.016c6.152 5.408 16.12 9.217 26.745 9.217zm35.352-1.024h49.29v-14.348h-32.98v-12.753h20.539v-14.164h-20.539v-9.602h30.711v-14.342h-47.016zm99.258 0h13.695v-65.209h-15.836v35.58l-25.14-35.58h-14.82v65.209h15.836v-37.359zm25.515 0h16.672v-65.209h-16.672zm55.313 1.024c16.391 0 27.938-9.125 27.938-29.152v-37.08h-16.578v37.08c0 8.848-3.727 14.258-11.188 14.258-7.547 0-11.273-5.496-11.273-14.258v-37.08h-16.68v37.08c0 20.12 11.562 29.152 27.781 29.152zm60.578 0c16.391 0 26.547-6.883 26.547-20.957 0-12.855-8.656-17.426-23.109-20.775-9.023-2.143-11.453-3.35-11.453-6.334 0-2.516 1.586-4.566 7.547-4.566 6.422 0 11.93 2.236 17.148 6.059l8.844-12.207c-6.609-5.406-14.438-8.48-25.242-8.48-14.719 0-24.883 7.918-24.883 20.127 0 12.951 7.828 17.049 22.359 20.4 9.875 2.328 12.211 3.914 12.211 6.996 0 3.637-2.609 5.117-9.406 5.117-6.148 0-13.789-2.891-18.453-6.613l-8.852 12.016c6.148 5.408 16.125 9.217 26.742 9.217z"/>
	</g>
</svg>
