<?xml version="1.0" encoding="UTF-8" standalone="no"?>
<!-- Generator: Adobe Illustrator 18.0.0, SVG Export Plug-In . SVG Version: 6.00 Build 0)  -->
<svg id="Layer_1" xmlns:rdf="http://www.w3.org/1999/02/22-rdf-syntax-ns#" xmlns="http://www.w3.org/2000/svg" enable-background="new 0 0 298.3 87.7" xml:space="preserve" viewBox="0 0 300 81.354163" height="67.795" width="250" version="1.1" y="0px" x="0px" xmlns:cc="http://creativecommons.org/ns#" xmlns:xlink="http://www.w3.org/1999/xlink" xmlns:dc="http://purl.org/dc/elements/1.1/"><metadata id="metadata31"><rdf:RDF><cc:Work rdf:about=""><dc:format>image/svg+xml</dc:format><dc:type rdf:resource="http://purl.org/dc/dcmitype/StillImage"/><dc:title/></cc:Work></rdf:RDF></metadata>
<g id="g4" transform="matrix(.86806 0 0 .86806 20.486 2.6997)">
	<path id="path2" fill="#231f20" d="m80.4 44.1c-0.5-1-1.8-1.8-2.8-1.8h-2.2c-1.1 0-2.3 0.8-2.8 1.8l-17.5 36.4c-0.5 1 0 1.6 1.1 1.6h4c1.6 0 2.3-0.7 2.7-1.6s1.4-2.8 1.6-3.2c0.2-0.5 1-0.9 2.1-0.9h18.7c1.1 0 1.8 0.2 2.1 0.8 0.2 0.4 1.2 2.1 1.6 3.1 0.5 0.9 1.3 1.7 2.8 1.7h5.8c1.1 0 1.5-0.8 1.2-1.6-0.3-0.6-18.4-36.3-18.4-36.3zm-11 26.7c-1.1 0-1.6-0.8-1.1-1.8l6.9-14.7c0.5-1 1.2-1 1.6 0l6.7 14.7c0.4 1-0.1 1.8-1.1 1.8zm145.3-26.4v36c0 1 0.9 1.7 2 1.7h4.8c1.1 0 2-0.7 2-1.8v-36c0-1.1-0.7-2-1.8-2h-4.9c-1.2 0.1-2.1 0.7-2.1 2.1zm-79.6 22.6c-0.6-0.9-0.3-1.9 0.8-2.2 0 0 4.1-1.2 6.1-3s3-4.3 3-7.6c0-2.2-0.4-4-1.1-5.5-0.8-1.5-1.8-2.7-3.3-3.6-1.4-0.9-3.1-1.6-5.1-2s-4.6-0.6-4.6-0.6c-1.1 0-2.8-0.1-3.9-0.1h-19.7c-1.1 0-2 0.9-2 2v36c0 1.1 0.9 1.8 2 1.8h4.7c1.1 0 2-0.7 2-1.8v-14.3h8.9c1.1 0 2.5 0.7 3.1 1.6l9.2 12.9c0.9 1.1 1.7 1.6 2.7 1.6h6.1c1.1 0 1.2-1 0.9-1.5-0.6-0.7-9.8-13.7-9.8-13.7zm-3.7-7.3c-1.2 0.3-2.6 0.3-2.6 0.3-1.1 0-2.8 0.1-3.9 0.1h-9.1c-1.1 0-2-0.9-2-2v-7.3c0-1.1 0.9-2 2-2h9.1c1.1 0 2.8 0 3.9 0.1 0 0 1.4 0.1 2.6 0.3 1.2 0.3 2.2 0.7 2.9 1.2s1.2 1.1 1.5 1.8 0.5 1.4 0.5 2.2-0.2 1.6-0.5 2.2c-0.3 0.7-0.8 1.3-1.5 1.8-0.8 0.6-1.7 1-2.9 1.3zm141.6-17.3c-1.1 0-1.9 0.7-1.9 1.7v23c0 1.1-0.6 1.3-1.4 0.5l-23.1-23.9c-0.7-0.8-1.8-1.4-3.3-1.4h-4.3c-1.4 0-2 0.7-2 1.5v36.8c0 0.7 0.7 1.4 1.8 1.4h4.3c1.1 0 1.8-0.6 1.8-1.6v-24.3c0-1.1 0.6-1.3 1.4-0.5l24.1 25c0.8 0.8 1.7 1.4 3.3 1.4h3.3c1.1 0 2-0.9 2-2v-35.7c0-1.1-0.9-2-2-2h-4zm-94 22.4c-0.5 0.9-1.4 0.9-1.9 0l-11.3-20.7c-0.5-1-1.5-1.8-2.8-1.8h-6.1c-1.1 0-2 0.9-2 2v36c0 1.1 0.7 1.8 2 1.8h3.8c1.1 0 1.9-0.7 1.9-1.7 0-0.5 0-26.2 0.1-26.2 0 0 14.1 26.2 14.1 26.2 0.5 0.9 1.8 1 2.3 0 0 0 14.1-26.1 14.2-26.1v26.1c0 1 0.8 1.7 1.9 1.7h4.4c1.1 0 2-0.5 2-2v-35.8c0-1.1-0.9-2-2-2h-5.9c-1.5 0-2.4 0.8-2.9 1.7z"/>
</g>
<g id="g8" transform="matrix(.86806 0 0 .86806 20.486 2.6997)">
	<path id="path6" fill="#231f20" d="m5.2 62.2c0 19.4 19.8 20.4 23.8 20.4 13.2 0 18.7-3.6 19-3.7 0.8-0.5 1.8-1.4 1.8-3.2v-13.4c0-1.2-1-2.2-2.2-2.2h-16.6c-1.2 0-2 1-2 2.2v1.4c0 1.2 0.8 2.2 2 2.2h9.6c0.9 0 1.7 0.8 1.7 1.7v6.2c-1.9 0.8-10.5 3.3-17.4 1.6-10.1-2.3-10.9-10.6-10.9-13.1 0-2.1 0.6-12.5 13-13.6 10-0.9 16.5 3.2 16.6 3.2 1.2 0.6 2.4 0.2 3-1.1l1.2-2.5c0.5-1 0.3-2.1-0.9-3-0.1 0-7.1-3.8-17.9-3.8-23.2 0.1-23.8 18.6-23.8 20.7z"/>
</g>
<g id="g20" transform="matrix(.86806 0 0 .86806 20.486 2.6997)">
	<g id="g18">
		<defs id="defs11">
			<path id="SVGID_1_" d="m270.8 32.4h-26c-1 0-1.8-0.5-2.2-1.3-0.5-0.8-0.5-1.8 0-2.6l13-22.5c0.5-0.8 1.3-1.3 2.2-1.3 1 0 1.8 0.5 2.2 1.3l13 22.5c0.5 0.8 0.5 1.8 0 2.6-0.4 0.9-1.2 1.3-2.2 1.3z"/>
		</defs>
		<use id="use13" fill-rule="evenodd" xlink:href="#SVGID_1_" height="100%" width="100%" clip-rule="evenodd" y="0" x="0" overflow="visible" fill="#0071ce"/>
		<clipPath id="SVGID_2_">
			<use id="use15" xlink:href="#SVGID_1_" height="100%" width="100%" y="0" x="0" overflow="visible"/>
		</clipPath>
	</g>
</g>
<g id="g24" transform="matrix(.86806 0 0 .86806 20.486 2.6997)">
	<path id="path22" fill="#231f20" d="m288.7 73.8c2.5 0 4.5 2 4.5 4.5s-2 4.5-4.5 4.5-4.5-2-4.5-4.5c0-2.4 2-4.5 4.5-4.5zm0 8.4c2.1 0 3.7-1.7 3.7-3.9s-1.6-3.9-3.7-3.9-3.7 1.7-3.7 3.9 1.6 3.9 3.7 3.9zm-1.7-6.5h2c1.2 0 1.8 0.5 1.8 1.5 0 0.9-0.5 1.5-1.4 1.5l1.6 2.3h-0.9l-1.5-2.3h-0.7v2.3h-0.9zm0.9 2.3h1c0.7 0 1.1-0.1 1.1-0.8 0-0.6-0.5-0.8-1.1-0.8h-1z"/>
</g>
</svg>
