<svg xmlns="http://www.w3.org/2000/svg" version="1.1" id="Layer_1" x="0" y="0" viewBox="0 0 300 96.389" xml:space="preserve" width="250" height="80.324"><style type="text/css" id="style2">.st0{fill:#3d515b}.st1{fill:#404041}</style><g id="XMLID_31_" transform="matrix(.6853 0 0 .6853 -21.258 -123.197)"><path id="XMLID_33_" class="st0" d="M67.5 268.3h24.9v12.5H67.5z"/><path id="XMLID_37_" class="st0" d="M104.9 268.3h24.9v12.5h-24.9z"/><path id="XMLID_38_" class="st0" d="M67.5 243.3h62.3v12.5H67.5z"/><path id="XMLID_39_" class="st0" d="M67.5 218.4h37.4v12.5H67.5z"/><path id="XMLID_40_" class="st0" d="M117.4 218.4h12.5v12.5h-12.5z"/><path id="XMLID_43_" class="st1" d="M310.8 218.3c-20 0-30.4 14.2-30.4 31.6 0 17.5 10.1 31.6 30.4 31.6 20.3 0 30.4-14.2 30.4-31.6 0-17.4-10.4-31.6-30.4-31.6zM326 250c0 11.2-3.8 20.3-15.1 20.3s-15.1-9.1-15.1-20.3c0-11.2 3.8-20.3 15.1-20.3 11.3-.1 15.1 9 15.1 20.3z"/><path id="XMLID_44_" class="st1" d="M221.2 280.7v-87.4s11.5-1.6 12.4-1.8c1-.1 2.4.6 2.4 2v32.4c2.4-2.3 5-4.1 7.9-5.5 2.9-1.4 6.2-2.1 10.1-2.1 3.4 0 6.3.6 8.9 1.7 2.6 1.1 4.8 2.7 6.5 4.8 1.7 2.1 3.1 4.5 4 7.4.9 2.9 1.3 6 1.3 9.4v39.1h-14.8v-39.1c0-3.8-.9-6.7-2.6-8.7-1.7-2.1-4.3-3.1-7.8-3.1-2.6 0-4.9.6-7.2 1.7-2.2 1.2-4.4 2.7-6.3 4.7v44.4h-14.8z"/><path id="XMLID_45_" class="st1" d="M418.5 281.6c-10.2 0-16.6-5.9-16.6-17v-32.7h-11.5l2.6-9.1c.2-.7.7-1.4 1.7-1.5 1-.1 7.1-1 7.1-1l2.8-17.9s8.3-1.2 9.6-1.4c1.2-.2 2.4.7 2.4 2.1v17.2h14.5v11.6h-14.5v32.3c0 4.4 2.7 6.1 5.3 6.1 1.6 0 3.7-.8 5.3-1.6 1-.5 2.5-.1 2.9 1.3.4 1.2 2.2 7.7 2.2 7.7-1.4 1-6.5 3.9-13.8 3.9z"/><path id="XMLID_46_" class="st1" d="M382.4 232c-2.9-.9-8.3-2.4-13.4-2.4-5.2 0-9.4 1.8-9.4 6.2 0 5.5 8.9 7 15 9.3 4.1 1.5 15 4.4 15 16.1 0 14.3-11.9 20.4-24.5 20.4s-20.1-4.7-20.1-4.7 2-6.9 2.4-8.3c.4-1.2 1.8-1.7 2.7-1.3 3.3 1.3 9.1 3 15.8 3 6.7 0 10-2.1 10-6.4 0-5.8-9.1-7.6-15.1-9.5-4.1-1.3-15.1-4.3-15.1-17.3 0-12.7 11.2-18.7 23.1-18.7 10.1 0 15.1 2.1 18.8 4 0 0-2.1 7.2-2.4 8.3-.4 1.2-1.5 1.8-2.8 1.3z"/><path id="XMLID_54_" class="st1" d="M215.4 220.5c0-1.4-1.2-2.2-2.3-2-5 .6-8.5 2.9-10.8 5.1-4.5-3.5-10.7-5.2-17.7-5.2-14 0-25 6.8-25 21.6 0 8.5 3.6 14.3 9.3 17.8-4.3 2-7.1 6.3-7.1 10.5 0 7 5.6 9.2 5.6 9.2s-9.7 4.7-9.7 14.2c0 12.1 11.1 17 24.7 17 19.6 0 33.1-8.1 33.1-22.9 0-9.1-7-14.2-22.2-14.8-9-.4-14.9-.7-16.4-1.2-1.9-.6-2.9-2.2-2.9-3.9 0-1.9 1.5-3.7 4-4.9 2.1.4 4.3.6 6.7.6 14.1 0 25-6.8 25-21.6 0-3.6-.6-6.7-1.8-9.4 2.1-1.1 4.6-1.9 7.6-1.9-.1-.1-.1-7-.1-8.2zm-38.7 60.3s7.4.3 14.7.6c8.3.4 10.9 2.2 10.9 6.5 0 5.2-7.2 10.3-17.3 10.3-9.5 0-14.3-3.3-14.3-8.9 0-3.1 1.7-6.7 6-8.5zm7.9-29.7c-6.7 0-11.8-3.5-11.8-11.2 0-7.7 5.2-11.2 11.8-11.2 6.6 0 11.8 3.5 11.8 11.2 0 7.7-5.1 11.2-11.8 11.2z"/></g></svg>