<?xml version="1.0" encoding="UTF-8" standalone="no"?>
<!-- Generator: Adobe Illustrator 21.1.0, SVG Export Plug-In . SVG Version: 6.00 Build 0)  -->
<svg id="Layer_1" xmlns:rdf="http://www.w3.org/1999/02/22-rdf-syntax-ns#" xmlns="http://www.w3.org/2000/svg" xml:space="preserve" viewBox="0 0 300 127.51944" height="106.27" width="250" version="1.1" y="0px" x="0px" xmlns:cc="http://creativecommons.org/ns#" xmlns:dc="http://purl.org/dc/elements/1.1/"><metadata id="metadata277"><rdf:RDF><cc:Work rdf:about=""><dc:format>image/svg+xml</dc:format><dc:type rdf:resource="http://purl.org/dc/dcmitype/StillImage"/><dc:title/></cc:Work></rdf:RDF></metadata><defs id="defs275">
			<linearGradient id="SVGID_1_" y2="51.607" gradientUnits="userSpaceOnUse" x2="9.8574" gradientTransform="matrix(.39403 -.018648 .053943 .45747 22.014 16.393)" y1="13.366" x1="48.099">
			<stop id="stop259" stop-color="#fff" offset="0"/>
			<stop id="stop261" stop-color="#040706" offset="1"/>
		</linearGradient>
	</defs>
<style id="style2" type="text/css">
	.st0{fill:none;}
	.st1{fill:#E7BB66;}
	.st2{fill:#FFFFFF;}
	.st3{fill:#040706;}
	.st4{fill:#4775B8;}
	.st5{opacity:0.4;fill:url(#SVGID_1_);}
</style>
<g id="g1383" transform="matrix(2.2524 0 0 2.2524 16.736 -3.8127)"><g id="g1366" transform="matrix(.91627 0 0 .91627 8.9373 -.58269)"><g id="g249" transform="matrix(.42575 0 0 .42575 10.863 9.8546)">
			<path id="path237" fill="#040706" class="st3" d="m164.6 72.5h-9.5v-37.2h9.5z"/>
			<path id="path239" fill="#040706" class="st3" d="m204.8 35.5v8.4h-24.9v28.6h-9.5v-36.6c0-9.9 5.9-17.2 16.6-16v8.9c-4.5-0.4-7 1.5-7.1 6.6h24.9z"/>
			<path id="path241" fill="#040706" class="st3" d="m209.1 35.5v8.4h-6.7v28.6h-9.5v-36.6c0-9.9 5.9-17.2 16.6-16v8.9c-4.5-0.4-7 1.5-7.1 6.6h6.7z"/>
			<path id="path243" fill="#040706" class="st3" d="m245.5 74c0 10-6.6 16.7-16.5 16.7-8.2 0-14.9-5.3-16.2-13h9.9c0.6 2.7 3 4.1 6.3 4.1 5.2 0 7-3.7 7-7.1v-4.3c-2.2 1.9-5.1 3-8.5 3-9.1 0-15.1-6.6-15.1-16.3v-21.8h9.5v21.7c0 2.1 0.7 7.3 6.9 7.3 4.3 0 7.2-3.1 7.2-7.3v-21.7h9.5z"/>
			<rect id="rect245" class="st3" height="53.1" width="9.6" y="19.7" x="140.1" fill="#040706"/>
			<circle id="circle247" cy="26.5" cx="159.9" r="5.8" class="st4" fill="#4775b8"/>
		</g><g id="g253" transform="matrix(.42575 0 0 .42575 10.863 9.8546)">
			<path id="path251" fill="#040706" class="st3" d="m135.4 70.7c0 12.3-7.4 20.1-19.3 20.1-8.9 0-16.6-5.1-18-13h10.5c1.2 3 5 4.1 7.6 4.1 6.7 0 9.7-4.4 9.7-11v-1.9c-2.9 2.7-6.6 4.3-11 4.3-9.7 0-17.7-8.4-17.7-19.3 0-11 8-19.4 17.7-19.4 4.5 0 8.4 1.7 11.4 4.8v-4h9.1zm-19.1-27.3c-5.3 0-9.5 4.6-9.5 10.7 0 5.9 4.3 10.5 9.5 10.5 5.3 0 9.5-4.7 9.5-10.5 0.1-5.9-4.2-10.7-9.5-10.7z"/>
		</g></g><g id="g1355" transform="matrix(1.2493 0 0 1.2493 -9.9018 -5.9007)"><g id="g257" transform="matrix(.42575 0 0 .42575 10.863 9.8546)">
			<path id="path255" fill="#040706" class="st3" d="m45.6 88.7-45.6-45.6 2.5-1.3 43.2-23 45.6 24.3zm0-11l38.8-34.6-38.8-22.3-38.8 22.3z"/>
		</g><path id="path264" opacity=".4" d="m37.856 28.928 2.0862 1.4901-0.08515-6.5992-7.5358 1.1495 1.5327 1.0644c-2.4268 2.3416-4.0447 5.7902-4.8536 9.4943-0.63863 2.8525-0.72378 8.7279-0.3406 9.9201l1.3624 1.9159 0.59606-0.5109c-0.08515-1.2347 0.08515-2.6397 0.08515-2.6397l0.04257-0.04258c-0.554-6.171 2.597-11.748 7.11-15.24z" class="st5" stroke-width=".42575" fill="url(#SVGID_1_)"/><path id="path266" d="m37.728 17.986 3.7892 2.001-2.001-10.133-11.751 2.8951 2.7248 1.4476c-3.2357 3.9595-4.8536 9.5369-5.109 15.37-0.21288 4.4704 1.3198 13.496 2.2139 15.285l2.7248 2.7248 0.80893-0.85151c-0.46833-1.9159-0.59606-4.0447-0.59606-4.0447s-1.5327-15.966 7.1952-24.694z" class="st4" stroke-width=".42575" fill="#4775b8"/></g></g>
</svg>
