<?xml version="1.0" encoding="UTF-8" standalone="no"?>
<svg id="svg14" xmlns:rdf="http://www.w3.org/1999/02/22-rdf-syntax-ns#" xmlns="http://www.w3.org/2000/svg" height="82.295" width="250" version="1.1" xmlns:cc="http://creativecommons.org/ns#" xmlns:dc="http://purl.org/dc/elements/1.1/" viewBox="0 0 300 98.753897">
 <metadata id="metadata20">
  <rdf:RDF>
   <cc:Work rdf:about="">
    <dc:format>image/svg+xml</dc:format>
    <dc:type rdf:resource="http://purl.org/dc/dcmitype/StillImage"/>
    <dc:title/>
   </cc:Work>
  </rdf:RDF>
 </metadata>
 <path id="path2" stroke-width=".92716" fill="#ea4335" d="m131.99 51.537c0 11.84-9.2624 20.564-20.629 20.564s-20.629-8.7246-20.629-20.564c0-11.923 9.2624-20.564 20.629-20.564s20.629 8.6412 20.629 20.564zm-9.0306 0c0-7.3988-5.3683-12.461-11.599-12.461-6.2305 0-11.599 5.0623-11.599 12.461 0 7.3246 5.3683 12.461 11.599 12.461 6.2305 0 11.599-5.1458 11.599-12.461z"/>
 <path id="path4" stroke-width=".92716" fill="#fbbc05" d="m176.49 51.537c0 11.84-9.2624 20.564-20.629 20.564s-20.629-8.7246-20.629-20.564c0-11.914 9.2624-20.564 20.629-20.564s20.629 8.6412 20.629 20.564zm-9.0306 0c0-7.3988-5.3683-12.461-11.599-12.461-6.2305 0-11.599 5.0623-11.599 12.461 0 7.3246 5.3683 12.461 11.599 12.461 6.2305 0 11.599-5.1458 11.599-12.461z"/>
 <path id="path6" stroke-width=".92716" fill="#4285f4" d="m219.14 32.215v36.92c0 15.187-8.9564 21.39-19.545 21.39-9.967 0-15.966-6.6663-18.228-12.118l7.8623-3.2729c1.4 3.3471 4.8305 7.2968 10.356 7.2968 6.7776 0 10.978-4.1815 10.978-12.053v-2.958h-0.31c-2.0212 2.4941-5.9153 4.6729-10.829 4.6729-10.282 0-19.702-8.9564-19.702-20.481 0-11.608 9.42-20.639 19.702-20.639 4.9047 0 8.7988 2.1788 10.829 4.5987h0.31523v-3.3471h8.5762zm-7.9365 19.396c0-7.2411-4.8305-12.535-10.978-12.535-6.2305 0-11.45 5.2941-11.45 12.535 0 7.167 5.2199 12.387 11.45 12.387 6.1471 0 10.978-5.2199 10.978-12.387z"/>
 <path id="path8" stroke-width=".92716" fill="#34a853" d="m233.28 10.575v60.266h-8.808v-60.266z"/>
 <path id="path10" stroke-width=".92716" fill="#ea4335" d="m267.6 58.306 7.0093 4.6729c-2.2623 3.3471-7.714 9.114-17.134 9.114-11.682 0-20.407-9.0306-20.407-20.564 0-12.229 8.7988-20.564 19.396-20.564 10.672 0 15.892 8.4928 17.598 13.082l0.94 2.335-27.49 11.386c2.1047 4.1259 5.3775 6.2305 9.967 6.2305 4.5987 0 7.7882-2.2623 10.125-5.6928zm-21.575-7.3988 18.376-7.6305c-1.0106-2.5682-4.0517-4.3577-7.6306-4.3577-4.5894 0-10.978 4.0517-10.746 11.988z"/>
 <path id="path12" stroke-width=".92716" fill="#4285f4" d="m57.386 46.188v-8.7246h29.4c0.28742 1.5205 0.43577 3.3192 0.43577 5.2663 0 6.5458-1.7894 14.64-7.5564 20.407-5.6093 5.8411-12.776 8.9564-22.27 8.9564-17.597 0-32.395-14.334-32.395-31.931 0-17.598 14.798-31.932 32.395-31.932 9.7352 0 16.67 3.8199 21.881 8.7988l-6.1564 6.1564c-3.7365-3.5047-8.7988-6.2305-15.734-6.2305-12.85 0-22.901 10.356-22.901 23.207 0 12.85 10.05 23.207 22.901 23.207 8.3352 0 13.082-3.3471 16.123-6.3881 2.4663-2.4663 4.0888-5.9895 4.7285-10.801z"/>
</svg>
