<?xml version="1.0" encoding="UTF-8" standalone="no"?>
<svg
   xmlns:dc="http://purl.org/dc/elements/1.1/"
   xmlns:cc="http://creativecommons.org/ns#"
   xmlns:rdf="http://www.w3.org/1999/02/22-rdf-syntax-ns#"
   xmlns:svg="http://www.w3.org/2000/svg"
   xmlns="http://www.w3.org/2000/svg"
   xmlns:sodipodi="http://sodipodi.sourceforge.net/DTD/sodipodi-0.dtd"
   xmlns:inkscape="http://www.inkscape.org/namespaces/inkscape"
   id="svg10"
   height="45.132"
   width="250"
   version="1.1"
   viewBox="0 0 300 54.158217"
   sodipodi:docname="Instapaper.svg"
   inkscape:version="0.92.4 (5da689c313, 2019-01-14)">
  <defs
     id="defs10" />
  <sodipodi:namedview
     pagecolor="#ffffff"
     bordercolor="#666666"
     borderopacity="1"
     objecttolerance="10"
     gridtolerance="10"
     guidetolerance="10"
     inkscape:pageopacity="0"
     inkscape:pageshadow="2"
     inkscape:window-width="1920"
     inkscape:window-height="1017"
     id="namedview8"
     showgrid="false"
     inkscape:zoom="2.8"
     inkscape:cx="295.95989"
     inkscape:cy="-31.770779"
     inkscape:window-x="-8"
     inkscape:window-y="-8"
     inkscape:window-maximized="1"
     inkscape:current-layer="svg10" />
  <title
     id="title72">Instapaper</title>
  <metadata
     id="metadata16">
    <rdf:RDF>
      <cc:Work
         rdf:about="">
        <dc:format>image/svg+xml</dc:format>
        <dc:type
           rdf:resource="http://purl.org/dc/dcmitype/StillImage" />
        <dc:title>Instapaper</dc:title>
      </cc:Work>
    </rdf:RDF>
  </metadata>
  <g
     id="g20"
     stroke-width="1.3333"
     transform="matrix(.38032 0 0 .38032 25 4.5132)">
    <path
       id="path22"
       fill="#2e2e2d"
       d="m304.32 117.04c0.29881-0.89644 1.9988-1.9733 3.7778-2.393l3.2345-0.76306 0.3539-39.207 0.3539-39.207-3.6872-2.947c-2.028-1.6208-3.3872-3.23-3.0206-3.576 1.112-1.0491 23.553-7.61 26.03-7.61 1.9493 0 2.1775 0.83452 1.4581 5.3333-0.46906 2.9333-0.6092 5.3333-0.31142 5.3333s2.426-1.7604 4.7293-3.9121c12.161-11.36 31.126-7.9698 39.097 6.9893 2.4443 4.5876 2.9798 7.7403 2.9877 17.589 0.0107 13.032-2.0376 20.077-8.1758 28.124-6.7086 8.7954-22.911 13.808-34.815 10.77l-4.3333-1.1059v9.5269c0 11.62 1.4011 14.685 6.7136 14.685 2.625 0 3.9531 0.67194 3.9531 2 0 1.6864-3.0494 2-19.444 2-14.729 0-19.313-0.39527-18.901-1.6299zm46.73-31.721c5.4046-4.2513 8.2932-13.608 8.2277-26.652-0.0625-12.448-1.9546-17.718-8.0963-22.549-3.9591-3.1142-10.578-3.6089-15.892-1.1878l-3.5042 1.5966 0.44149 22.299c0.42507 21.47 0.56162 22.427 3.6739 25.737 3.9804 4.2335 10.327 4.5506 15.15 0.75691zm102.28 31.514c0-1.0083 1.8-2.1933 4-2.6333l4-0.8v-78.158l-4-2.3629c-2.2-1.2996-4-2.82-4-3.3788 0-0.93575 23.603-8.1666 26.657-8.1666 0.7384 0 1.3426 2.5123 1.3426 5.5828v5.5828l3.6667-3.5121c7.9289-7.5946 19.281-9.5869 29.132-5.1129 9.4598 4.2961 14.396 14.484 14.308 29.529-0.13776 23.609-14.416 39.397-35.381 39.122-4.184-0.05495-8.534-0.86899-9.6667-1.809-1.8295-1.5183-2.0594-0.44387-2.0594 9.6242 0 12.004 0.76797 13.705 6.5622 14.532 1.7759 0.2536 3.4759 1.2111 3.7778 2.1278 0.42227 1.2822-3.9362 1.6667-18.896 1.6667-15.609 0-19.444-0.36159-19.444-1.8333zm45.988-31.729c6.056-4.7636 8.6204-12.232 8.6204-25.105 0-17.929-5.3494-26.667-16.326-26.667-10.242 0-10.282 0.09345-10.282 24.113 0 26.437 1.3235 30.162 10.82 30.448 1.9178 0.05789 5.1432-1.1976 7.1675-2.7899zm-355.32 6.455c-12.715-2.9143-13.333-3.5809-13.333-14.367 0-8.1457 0.30171-9.3261 2.2861-8.9439 1.2717 0.2449 2.8631 2.4522 3.5864 4.9743 0.7152 2.4937 3.4936 6.8396 6.1742 9.6575 4.4229 4.6494 5.5097 5.1234 11.747 5.1234 8.4162 0 12.206-3.075 12.206-9.9032 0-5.7347-3.4659-8.6406-16.034-13.443-11.139-4.2563-16.478-8.9354-18.715-16.401-3.2983-11.009 3.5287-22.557 15.203-25.715 6.7221-1.8187 18.417-0.93519 25.214 1.9049 4.9949 2.087 4.9985 2.0942 4.9985 10.157 0 10.019-2.6358 10.87-6.5136 2.1036-4.7511-10.741-17.135-14.625-23.153-7.2617-5.4316 6.6458-0.94512 12.85 12.96 17.921 12.416 4.5285 19.127 10.11 20.707 17.223 4.2827 19.286-13.816 32.361-37.333 26.971zm64.098 0.84492c-1.7796-0.35644-4.7114-1.6151-6.5152-2.797-5.9904-3.9251-6.9159-8.7729-6.9159-36.228v-25.376h-4c-5.5295 0-5.0042-1.8186 1.6667-5.7693 3.1167-1.8458 8.6441-6.4028 12.283-10.127 3.6391-3.7239 7.3891-6.7707 8.3333-6.7707 1.2241 0 1.7168 2.4873 1.7168 8.6667v8.6667h8c7.1111 0 8 0.2963 8 2.6667 0 2.3714-0.88889 2.6667-8.0288 2.6667h-8.0288l0.36214 25.617 0.36212 25.617 3.5882 2.0128c3.0553 1.7138 4.3078 1.7526 8.4332 0.26081 6.1814-2.2352 7.2982-1.0888 3.2061 3.2915-5.6896 6.0902-14.732 9.1507-22.463 7.6023zm76.216 0.000777c-1.6605-0.32568-4.6157-2.593-6.567-5.0386l-3.5479-4.4464-5.1631 4.1492c-4.2645 3.427-6.6141 4.2416-13.5 4.68-7.4937 0.47716-8.7639 0.17118-12.564-3.0266-7.9319-6.6743-8.1271-17.893-0.43956-25.258 2.2688-2.1737 9.6164-5.8455 17.675-8.8327l13.792-5.1125-0.18584-9.4902c-0.13721-7.0068-0.80188-10.171-2.54-12.092-3.0811-3.4045-7.9031-3.3057-11.443 0.23445-2.4114 2.4114-2.7267 3.8926-2.1068 9.8983 0.7926 7.6796 0.0579 8.5992-6.8698 8.5992-5.9315 0-9.5253-3.4363-9.4913-9.0756 0.0628-10.441 8.6243-15.579 25.97-15.586 9.6548-0.0041 12.912 0.52496 16.667 2.707 8.17 4.748 9.3289 8.9734 9.3313 34.021 0.003 23.36 0.47513 25.267 6.2687 25.267 7.2018 0 0.3194 6.9459-8.2667 8.3429-2.2 0.35797-5.3586 0.38438-7.0192 0.05871zm-12.23-12.449c2.2554-1.207 2.579-2.8803 2.579-13.333 0-8.6892-0.4551-11.945-1.6667-11.924-3.4664 0.06091-12.733 5.1391-14.823 8.1231-2.7534 3.931-2.8038 11.692-0.10107 15.551 2.2819 3.2579 9.3835 4.0602 14.012 1.5831zm158.91 11.438c-2.3828-1.0603-5.0291-3.4569-5.8807-5.3258-1.8796-4.1252-2.6458-4.2023-5.9104-0.59491-5.9521 6.577-17.959 8.6244-26.048 4.4416-7.3442-3.7978-9.9348-15.108-5.2284-22.826 3.1068-5.0953 5.0243-6.2093 21.4-12.432l12.667-4.8134 0.39058-9.5293c0.33337-8.1332-0.008-9.9284-2.3333-12.253-1.4982-1.4982-4.1309-2.7239-5.8506-2.7239-5.1075 0-7.54 3.9668-7.54 12.296 0 8.0214-0.90097 9.0377-8.0123 9.0377-2.5108 0-4.7289-1.1883-6.5576-3.5131-3.5345-4.4934-3.481-7.0199 0.26741-12.623 7.0364-10.518 33.232-12.536 43.425-3.3458 5.7046 5.1435 6.1905 7.4149 6.8776 32.149l0.66667 24 4.4143 0.42385c4.9704 0.47724 5.0224 2.2556 0.16834 5.7591-4.6498 3.356-11.804 4.1487-16.915 1.8743zm-9.9342-11.657c2.0232-2.0232 2.2276-25.067 0.22235-25.067-2.8262 0-14.32 6.623-15.123 8.7139-1.6247 4.2338-0.84274 13.065 1.3736 15.514 2.5354 2.8016 11.037 3.3285 13.527 0.83832zm138.27 12.42c-19.531-5.083-29.076-24.823-22.58-46.696 2.8266-9.5182 13.426-20.555 21.913-22.818 7.715-2.0569 18.85-0.9008 24.408 2.5342 5.4414 3.3629 10.012 11.323 11.113 19.352l0.84168 6.1407h-43.332l0.94506 6.302c1.1576 7.7195 4.972 15.474 9.0065 18.31 8.6183 6.0576 20.012 5.1984 28.369-2.1392 4.0367-3.5443 4.6492-3.7469 4.6492-1.5383 0 4.9451-7.4498 14.562-13.58 17.529-6.7381 3.2619-15.93 4.5397-21.754 3.024zm17.293-52.487c-1.9219-11.567-6.8465-15.958-14.594-13.012-3.699 1.4064-8.6166 10.3-8.6692 15.679-0.0283 2.8932 0.40215 3 12.088 3h12.117zm-576.63 49.666c0-1.8937 0.88889-2.6667 3.0667-2.6667 6.1185 0 6.2667-0.97712 6.2667-41.333-0.0001-40.356-0.1482-41.333-6.2667-41.333-1.8371 0-3.0667-0.8019-3.0667-2 0-1.6889 3.1111-2 20-2s20 0.31111 20 2c0 1.1981-1.2296 2-3.0667 2-6.1185 0-6.2667 0.97712-6.2667 41.333s0.14814 41.333 6.2667 41.333c2.1778 0 3.0667 0.77295 3.0667 2.6667 0 2.5481-0.88889 2.6667-20 2.6667s-20-0.119-20-2.667zm46.667 0.95898c0-0.93923 1.8-2.3871 4-3.2175l4-1.5098v-50.322l-4-2.3629c-2.2-1.2996-4-2.82-4-3.3788 0-0.93575 23.603-8.1666 26.657-8.1666 0.73841 0 1.3426 2.8177 1.3426 6.2616v6.2616l4.3333-4.194c8.2051-7.9412 20.709-10.616 29.171-6.2407 7.624 3.9425 9.0999 10.034 9.1331 37.694l0.0293 24.449 4 1.5098c2.2 0.83041 4 2.2957 4 3.2562 0 1.37-3.7836 1.6662-17.557 1.3743-17.856-0.379-22.102-1.738-14.449-4.627l4.012-1.514v-23.153c0-28.411-0.51124-29.699-11.433-28.793-11.385 0.94417-11.233 0.56638-11.233 27.906v23.865l3.3333 1.5188c1.8333 0.83532 3.3333 2.3225 3.3333 3.3047 0 1.4008-3.738 1.786-17.333 1.786-13.2 0-17.333-0.40724-17.333-1.7077zm553.33-0.166c0-1.0707 1.35-2.3681 3-2.883 1.65-0.51492 3.4408-1.6054 3.9796-2.4232 0.53877-0.81783 0.98877-12.119 1-25.114l0.0204-23.627-4-2.9573c-2.2-1.6265-4-3.3326-4-3.7914 0-0.86127 23.558-7.9978 26.401-7.9978 1.0437 0 1.5989 2.4761 1.5989 7.1304v7.1304l7.1304-7.1304c5.8998-5.8998 7.9352-7.1304 11.793-7.1304 6.079 0 9.0762 3.3703 9.0762 10.206 0 3.9964-0.85523 6.1327-3.4195 8.5417l-3.4195 3.2125-5.178-2.9801c-5.6731-3.265-9.4502-3.7158-13.404-1.5998-2.3938 1.2812-2.579 3.0005-2.579 23.949v22.568l5.4196 1.4593c3.156 0.84982 5.1986 2.1243 4.8906 3.0514-0.36881 1.11-6.2482 1.7041-19.42 1.962-15.842 0.31024-18.891 0.05578-18.891-1.5768z" />
  </g>
</svg>
