<?xml version="1.0" encoding="UTF-8" standalone="no"?>
<svg id="svg4" xmlns:rdf="http://www.w3.org/1999/02/22-rdf-syntax-ns#" xmlns="http://www.w3.org/2000/svg" height="70.919" viewBox="0 0 299.99974 85.102991" width="250" version="1.1" xmlns:cc="http://creativecommons.org/ns#" xmlns:dc="http://purl.org/dc/elements/1.1/">
 <metadata id="metadata10">
  <rdf:RDF>
   <cc:Work rdf:about="">
    <dc:format>image/svg+xml</dc:format>
    <dc:type rdf:resource="http://purl.org/dc/dcmitype/StillImage"/>
    <dc:title/>
   </cc:Work>
  </rdf:RDF>
 </metadata>
 <path id="path2" stroke-width=".31566" fill="#262626" d="m37.867 7.3406c-5.1169 2.1418-10.742 8.1928-12.519 15.788-2.2499 9.6235 7.1131 13.693 7.881 12.359 0.90388-1.5679-1.6777-2.0981-2.2091-7.0912-0.68681-6.449 2.3114-13.655 6.0846-16.817 0.70139-0.58743 0.66802 0.23018 0.66802 1.7425 0 2.7044-0.14943 26.982-0.14943 32.049 0 6.856-0.28317 9.021-0.79176 11.16-0.5153 2.168-1.3437 3.6328-0.716 4.1971 0.70136 0.63119 3.6959-0.87016 5.4295-3.2897 2.0788-2.9018 2.8065-6.3868 2.9371-10.171 0.1578-4.5622 0.15107-11.802 0.1578-15.931 0.006-3.7871 0.0638-14.877-0.0664-21.543-0.0319-1.6352-4.5669-3.3507-6.707-2.4541m181.7 32.088c-0.16496 3.5642-0.95394 6.3502-1.9331 8.3153-1.8957 3.8043-5.8292 4.9856-7.4994-0.48323-0.91016-2.981-0.95267-7.9597-0.29832-12.12 0.66609-4.2378 2.526-7.4384 5.6058-7.1497 3.0377 0.28532 4.4596 4.1995 4.125 11.437zm-51.21 22.114c-0.0412 5.9222-0.97329 11.115-2.972 12.623-2.8349 2.1385-6.6451 0.53438-5.8562-3.7871 0.6981-3.8241 3.9996-7.7296 8.8362-12.501 0 0 0.0101 1.0882-0.008 3.6656zm-0.77424-22.148c-0.17335 3.2463-1.015 6.5076-1.9331 8.3502-1.8953 3.8042-5.8574 4.9935-7.4994-0.48323-1.1227-3.742-0.85378-8.585-0.29833-11.637 0.7208-3.9593 2.468-7.6324 5.6058-7.6324 3.0507 0 4.5551 3.347 4.125 11.402zm-29.666-0.0497c-0.18598 3.4382-0.85672 6.3123-1.9331 8.3999-1.9474 3.7781-5.8002 4.9763-7.4994-0.48323-1.2249-3.9367-0.80792-9.3046-0.29836-12.204 0.75619-4.303 2.6497-7.3538 5.6058-7.0647 3.0364 0.29666 4.5126 4.1991 4.125 11.353zm135.95 4.016c-0.7423 0-1.081 0.76512-1.3613 2.053-0.97203 4.4781-1.9937 5.4892-3.3112 5.4892-1.4719 0-2.7945-2.2174-3.1345-6.6561-0.2672-3.4903-0.22427-9.916 0.11743-16.308 0.0698-1.3133-0.29246-2.6127-3.8149-3.8923-1.5157-0.55041-3.719-1.3608-4.816 1.2872-3.0995 7.4812-4.3123 13.421-4.5976 15.834-0.0148 0.12487-0.1679 0.15037-0.19482-0.14139-0.18179-1.9325-0.58826-5.4442-0.63876-12.822-0.01-1.4395-0.31474-2.6649-1.9037-3.6681-1.031-0.65094-4.1617-1.8022-5.289-0.43257-0.97667 1.1202-2.1078 4.1347-3.283 7.7081-0.95517 2.9043-1.6204 4.869-1.6204 4.869s0.0126-7.8364 0.024-10.809c0.005-1.1214-0.76417-1.4951-0.99602-1.5628-1.044-0.303-3.1008-0.80918-3.974-0.80918-1.0772 0-1.3411 0.60214-1.3411 1.4795 0 0.11486-0.17001 10.317-0.17001 17.452 0 0.30988 0 0.64798 0.003 1.0071-0.59583 3.2789-2.5281 7.73-4.6296 7.73-2.104 0-3.0966-1.8608-3.0966-10.366 0-4.9616 0.14895-7.119 0.22219-10.707 0.0425-2.067 0.12455-3.6542 0.11991-4.0144-0.0155-1.1046-1.9255-1.6613-2.8142-1.867-0.89293-0.20748-1.6689-0.28784-2.2748-0.25334-0.85758 0.0484-1.4644 0.61101-1.4644 1.3848 0 0.4149 0.005 1.2039 0.005 1.2039-1.1046-1.7358-2.8812-2.9439-4.0632-3.294-3.1837-0.94551-6.5059-0.10773-9.0117 3.3988-1.9916 2.7861-3.1921 5.9416-3.6647 10.475-0.34545 3.3144-0.2327 6.6754 0.38125 9.5179-0.74186 3.2074-2.1191 4.5214-3.6272 4.5214-2.1894 0-3.7766-3.5736-3.5923-9.754 0.12159-4.0651 0.935-6.9178 1.8241-11.045 0.37913-1.7593 0.0711-2.6804-0.70148-3.5633-0.70862-0.80959-2.2184-1.2232-4.3889-0.71449-1.546 0.36272-3.7564 0.75278-5.7787 1.0524 0 0 0.12204-0.48687 0.22219-1.3453 0.52598-4.5016-4.3657-4.1364-5.9264-2.6986-0.93163 0.85842-1.5658 1.8709-1.8065 3.6912-0.38166 2.8888 1.9744 4.2513 1.9744 4.2513-0.77301 3.5384-2.6678 8.1608-4.6241 11.503-1.0478 1.7905-1.8494 3.1173-2.8841 4.5277-0.004-0.52519-0.007-1.0503-0.009-1.573-0.0237-7.4392 0.0753-13.294 0.11907-15.404 0.0425-2.0669 0.12541-3.6121 0.12077-3.9723-0.0117-0.80792-0.48349-1.113-1.4648-1.4993-0.86767-0.34166-1.8936-0.57815-2.9578-0.66063-1.3432-0.10477-2.1524 0.60764-2.1313 1.4501 0.004 0.15905 0.004 1.1357 0.004 1.1357-1.1046-1.7358-2.8812-2.9439-4.0632-3.294-3.1837-0.94511-6.5059-0.1073-9.0117 3.3988-1.9912 2.7861-3.2952 6.6956-3.6647 10.441-0.34419 3.4904-0.28065 6.4566 0.18854 8.9553-0.50621 2.5021-1.9617 5.1185-3.6075 5.1185-2.104 0-3.3011-1.8609-3.3011-10.366 0-4.9616 0.14895-7.119 0.22219-10.707 0.0425-2.0669 0.12455-3.6546 0.11991-4.0143-0.0155-1.1046-1.9256-1.6613-2.8142-1.8675-0.92995-0.21503-1.7328-0.29413-2.3493-0.24871-0.81338 0.0606-1.3852 0.78901-1.3852 1.3323v1.2518c-1.1046-1.7358-2.8811-2.9439-4.0632-3.294-3.1837-0.94511-6.4873-0.0938-9.0117 3.3988-1.6461 2.2773-2.9788 4.8021-3.6647 10.391-0.1982 1.6151-0.28574 3.1276-0.27437 4.5412-0.65644 4.0145-3.5557 8.6414-5.9273 8.6414-1.3878 0-2.7095-2.6918-2.7095-8.4285 0-7.6416 0.47298-18.522 0.55293-19.57 0 0 2.9964-0.0509 3.5768-0.0577 1.4946-0.0164 2.8484 0.0189 4.8391-0.0829 0.99855-0.0509 1.9605-3.6344 0.92996-4.0779-0.46708-0.20073-3.7682-0.37661-5.0768-0.40439-1.1004-0.0249-4.1637-0.25164-4.1637-0.25164s0.27478-7.2216 0.33873-7.9845c0.0543-0.63582-0.76837-0.96319-1.2401-1.1618-1.1471-0.48516-2.1734-0.71745-3.3899-0.96824-1.6807-0.34672-2.4431-0.008-2.5921 1.4109-0.22427 2.1528-0.34043 8.4584-0.34043 8.4584-1.2333 0-5.4463-0.2411-6.6801-0.2411-1.1462 0-2.3834 4.9296-0.79867 4.9902 1.8233 0.0707 5.0007 0.13172 7.1072 0.19526 0 0-0.0938 11.059-0.0938 14.474 0 0.36326 0.003 0.71307 0.004 1.0525-1.1593 6.0426-5.2427 9.3067-5.2427 9.3067 0.87693-3.9975-0.91439-6.9995-4.141-9.5406-1.1888-0.93642-3.5355-2.7092-6.1613-4.6519 0 0 1.5208-1.4988 2.8694-4.5142 0.95562-2.136 0.99687-4.5804-1.3486-5.1194-3.8755-0.89125-7.071 1.955-8.0241 4.9935-0.73847 2.3539-0.3446 4.1006 1.1021 5.9151 0.10562 0.13257 0.22008 0.26805 0.33832 0.40438-0.87484 1.6862-2.0766 3.9564-3.0945 5.7169-2.8252 4.8879-4.9594 8.7542-6.5724 8.7542-1.2893 0-1.2721-3.9252-1.2721-7.6003 0-3.1683 0.23397-7.9315 0.4208-12.863 0.0618-1.631-0.75366-2.5601-2.1208-3.4017-0.83065-0.51127-2.6035-1.5165-3.6302-1.5165-1.5368 0-5.9706 0.20912-10.16 12.328-0.52796 1.5274-1.5652 4.3106-1.5652 4.3106l0.0893-14.573c0-0.34167-0.18197-0.672-0.59864-0.89798-0.70596-0.38333-2.5915-1.1673-4.2681-1.1673-0.79883 0-1.1975 0.37156-1.1975 1.1122l-0.14624 22.799c0 1.7323 0.0452 3.7532 0.21644 4.6371 0.17065 0.885 0.4471 1.605 0.78949 2.0333 0.34189 0.42753 0.73737 0.75366 1.3894 0.88826 0.60688 0.12493 3.93 0.55167 4.1027-0.71828 0.20694-1.5219 0.21486-3.1681 1.9598-9.3075 2.7166-9.5583 6.2585-14.222 7.9235-15.878 0.29113-0.28949 0.62355-0.30675 0.60754 0.16704-0.0711 2.0956-0.32105 7.3319-0.48933 11.781-0.45104 11.905 1.7147 14.112 4.8097 14.112 2.3678 0 5.7055-2.3527 9.2835-8.3081 2.2306-3.7114 4.3964-7.3504 5.9525-9.9732 1.0844 1.0038 2.3013 2.0843 3.5174 3.2385 2.826 2.6822 3.7539 5.2309 3.1383 7.6487-0.47087 1.8484-2.2441 3.7533-5.4 1.9018-0.91986-0.54015-1.3125-0.95748-2.2374-1.5664-0.49693-0.32714-1.2556-0.42493-1.7105-0.0822-1.1816 0.89091-1.8574 2.0241-2.2432 3.427-0.37534 1.3651 0.99179 2.0867 2.409 2.7179 1.2203 0.54324 3.8431 1.0355 5.5158 1.0916 6.5172 0.21796 11.738-3.1467 15.372-11.826 0.65056 7.4956 3.4194 11.737 8.2299 11.737 3.2161 0 6.4406-4.1571 7.8507-8.2467 0.4048 1.667 1.004 3.1167 1.7778 4.3426 3.7068 5.873 10.898 4.609 14.51-0.37819 1.1168-1.541 1.2868-2.0948 1.2868-2.0948 0.52683 4.7091 4.319 6.3544 6.4903 6.3544 2.4318 0 4.9426-1.1496 6.7024-5.1114 0.20622 0.42996 0.43131 0.84056 0.67708 1.2298 3.7067 5.873 10.898 4.609 14.51-0.37818 0.17042-0.23393 0.31811-0.44615 0.44731-0.63662l0.10603 3.0931s-2.0606 1.8903-3.3255 3.0499c-5.5671 5.1076-9.8002 8.9827-10.112 13.495-0.39974 5.7539 4.2668 7.8924 7.7973 8.1726 3.7493 0.29754 6.9599-1.7736 8.9334-4.6721 1.7358-2.5512 2.8719-8.0422 2.7886-13.465-0.0332-2.1717-0.0879-4.933-0.13087-7.8928 1.9567-2.2723 4.1612-5.1442 6.1911-8.5059 2.2121-3.6635 4.5828-8.5833 5.7968-12.412 0 0 2.0598 0.0177 4.258-0.12623 0.70316-0.0459 0.90514 0.0976 0.77512 0.61309-0.15697 0.62276-2.7772 10.729-0.38588 17.462 1.6369 4.609 5.3268 6.0918 7.5145 6.0918 2.5609 0 5.0108-1.934 6.3237-4.8058 0.1582 0.32017 0.32358 0.62999 0.5041 0.916 3.7068 5.873 10.872 4.6014 14.51-0.37819 0.82095-1.1235 1.2868-2.0948 1.2868-2.0948 0.78059 4.8736 4.5707 6.3792 6.7415 6.3792 2.2614 0 4.4074-0.92705 6.1486-5.047 0.0728 1.814 0.18725 3.2973 0.36818 3.7649 0.11026 0.28599 0.75281 0.64501 1.2203 0.8184 2.0686 0.76711 4.1785 0.40436 4.959 0.24656 0.54072-0.10944 0.96237-0.54324 1.02-1.6634 0.15149-2.9413 0.0585-7.8831 0.95016-11.556 1.4968-6.1638 2.8929-8.5547 3.5553-9.7384 0.37071-0.66319 0.78898-0.7726 0.80414-0.0707 0.0312 1.4202 0.10183 5.5907 0.68168 11.194 0.42582 4.121 0.99476 6.5568 1.4319 7.3277 1.2477 2.2045 2.7886 2.3089 4.0434 2.3089 0.79823 0 2.4675-0.22058 2.3181-1.6235-0.0728-0.6838 0.0547-4.9098 1.5304-10.982 0.9636-3.9655 2.5702-7.5486 3.1496-8.8585 0.21376-0.48307 0.31307-0.10227 0.30969-0.0281-0.12203 2.731-0.39596 11.664 0.7166 16.549 1.5081 6.6182 5.8709 7.3588 7.3912 7.3588 3.2456 0 5.8999-2.4689 6.7941-8.965 0.21543-1.5633-0.10354-2.7704-1.0592-2.7704"/>
</svg>
