<?xml version="1.0" encoding="UTF-8" standalone="no"?>
<!-- Created with Inkscape (http://www.inkscape.org/) -->
<svg id="svg8" xmlns:rdf="http://www.w3.org/1999/02/22-rdf-syntax-ns#" xmlns="http://www.w3.org/2000/svg" height="16.895mm" width="66.146mm" version="1.1" xmlns:cc="http://creativecommons.org/ns#" xmlns:dc="http://purl.org/dc/elements/1.1/" viewBox="0 0 79.375111 20.274097">
 <metadata id="metadata5">
  <rdf:RDF>
   <cc:Work rdf:about="">
    <dc:format>image/svg+xml</dc:format>
    <dc:type rdf:resource="http://purl.org/dc/dcmitype/StillImage"/>
    <dc:title/>
   </cc:Work>
  </rdf:RDF>
 </metadata>
 <g id="layer1" transform="translate(-110.3 -215.37)">
  <g id="g345" stroke-width=".027561" transform="translate(176.64 93.129)">
   <path id="path439" fill="#fef9f8" d="m-3.2909 139.03-0.10894-0.11713 0.11713 0.10894c0.10893 0.10132 0.1298 0.12532 0.10894 0.12532-0.0045 0-0.05721-0.0527-0.11713-0.11713zm-29.683-14.16c0-0.49265 0.0037-0.69419 0.0083-0.44787 0.0046 0.24633 0.0046 0.6494 0 0.89573-0.0046 0.24632-0.0083 0.0448-0.0083-0.44786z"/>
   <path id="path435" fill="#fef2ec" d="m-53.524 128.68c0.0199-0.008 0.04367-0.007 0.05282 0.002 0.0092 0.009-0.0071 0.0157-0.03617 0.0145-0.03211-0.001-0.03864-0.008-0.01665-0.0167zm0.1378 0c0.0199-0.008 0.04367-0.007 0.05283 0.002 0.0092 0.009-0.0071 0.0157-0.03617 0.0145-0.03211-0.001-0.03864-0.008-0.01665-0.0167zm54.736 0c0.019896-0.008 0.043667-0.007 0.052825 0.002 0.00916 0.009-0.00712 0.0157-0.036173 0.0145-0.032108-0.001-0.038638-0.008-0.016652-0.0167z"/>
   <path id="path431" fill="#feebe2" d="m-31.815 137.26c0-1.819 0.0033-2.5672 0.0073-1.6627 0.004 0.90454 0.004 2.3928 0.000003 3.3073-0.004 0.91447-0.0073 0.17439-0.0073-1.6446z"/>
   <path id="path429" fill="#ebebeb" d="m-28.938 125.7c-0.03428-0.0437-0.03331-0.0447 0.01041-0.0104 0.04591 0.036 0.06051 0.0586 0.03782 0.0586-0.0057 0-0.02743-0.0217-0.04823-0.0482z"/>
   <path id="path427" fill="#fee5d9" d="m-25.807 137.24c0-1.8266 0.0033-2.5738 0.0073-1.6605 0.004 0.91329 0.004 2.4078 0 3.3211-0.004 0.91329-0.0073 0.16605-0.0073-1.6605zm-32.315-6.625c0-0.006 0.0217-0.0274 0.04823-0.0482 0.04371-0.0343 0.04469-0.0333 0.01041 0.0104-0.036 0.0459-0.05864 0.0605-0.05864 0.0378z"/>
   <path id="path417" fill="#feba99" d="m-34.985 134.75c0-3.1984 0.0032-4.511 0.0071-2.9168s0.0039 4.2111 0.000001 5.8153c-0.0039 1.6042-0.0071 0.29986-0.0071-2.8986z"/>
   <path id="path405" fill="#fda57a" d="m-1.6752 134.78c0.00132-0.0321 0.00785-0.0386 0.016652-0.0166 0.00796 0.0199 0.00698 0.0437-0.00218 0.0528-0.00916 0.009-0.015673-0.007-0.014477-0.0362z"/>
   <path id="path403" fill="#fda175" d="m-55.479 137.2c-0.03428-0.0437-0.03331-0.0447 0.01041-0.0104 0.04591 0.036 0.06051 0.0586 0.03782 0.0586-0.0057 0-0.02743-0.0217-0.04823-0.0482z"/>
   <path id="path387" fill="#fd884d" d="m-3.2909 139-0.10894-0.11714 0.11713 0.10895c0.10893 0.10132 0.1298 0.12532 0.10894 0.12532-0.0045 0-0.05721-0.0527-0.11713-0.11713z"/>
   <path id="path383" fill="#fd8144" d="m-53.291 140.81c0.02681-0.007 0.06402-0.007 0.08268 0.001s-0.0033 0.0133-0.04876 0.0127c-0.04548-0.00053-0.06074-0.007-0.03393-0.0137zm54.558 0.00031c0.019896-0.008 0.043667-0.007 0.052825 0.002 0.00916 0.009-0.00713 0.0157-0.036173 0.0145-0.032108-0.001-0.038638-0.008-0.016652-0.0167zm0.1912 0.00063c0.018949-0.008 0.049954-0.008 0.068902 0s0.00345 0.0139-0.034451 0.0139c-0.037896 0-0.053399-0.006-0.034451-0.0139zm-54.9-9.23c0.0199-0.008 0.04367-0.007 0.05282 0.002 0.0092 0.009-0.0071 0.0157-0.03617 0.0145-0.03211-0.001-0.03864-0.008-0.01665-0.0166zm54.734 0.00052c0.018949-0.008 0.049954-0.008 0.068902 0s0.00345 0.0139-0.034451 0.0139c-0.037896 0-0.053399-0.006-0.034451-0.0139z"/>
   <path id="path377" fill="#878787" d="m-31.278 124.34c0-0.006 0.0217-0.0274 0.04823-0.0482 0.04371-0.0343 0.04469-0.0333 0.01041 0.0104-0.03601 0.0459-0.05864 0.0605-0.05864 0.0378z"/>
   <path id="path369" fill="#fd5e11" d="m-53.276 138.05c0.0199-0.008 0.04367-0.007 0.05282 0.002 0.0092 0.009-0.0071 0.0157-0.03617 0.0145-0.03211-0.001-0.03864-0.008-0.01665-0.0166zm54.763 0c0.019897-0.008 0.043668-0.007 0.052826 0.002 0.00916 0.009-0.00712 0.0157-0.036173 0.0145-0.032108-0.001-0.038638-0.008-0.016653-0.0166zm-59.471-7.5432c0-0.006 0.0217-0.0274 0.04823-0.0482 0.04371-0.0343 0.04469-0.0333 0.01041 0.0104-0.036 0.0459-0.05864 0.0605-0.05864 0.0378zm4.7904-1.7999c0.0199-0.008 0.04367-0.007 0.05282 0.002 0.0092 0.009-0.0071 0.0157-0.03617 0.0145-0.03211-0.001-0.03864-0.008-0.01665-0.0166zm54.736 0c0.019896-0.008 0.043668-0.007 0.052826 0.002 0.00916 0.009-0.00713 0.0157-0.036174 0.0145-0.032108-0.001-0.038637-0.008-0.016652-0.0166z"/>
   <path id="path367" fill="#fd5604" d="m-58.013 139.02-0.09498-0.10335 0.10335 0.095c0.05684 0.0522 0.10335 0.0987 0.10335 0.10335 0 0.021-0.02332 0.001-0.11173-0.095z"/>
   <path id="path365" fill="#fd5401" d="m-0.76784 132.44c0.0356-0.0379 0.07093-0.0689 0.078509-0.0689 0.00758 0-0.015348 0.031-0.050949 0.0689-0.0356 0.0379-0.07093 0.0689-0.078509 0.0689-0.00758 0 0.015349-0.031 0.050949-0.0689z"/>
   <path id="path363" fill="#fe5300" d="m-54.253 140.76c-1.9959-0.25308-3.593-1.2255-4.5719-2.7836-0.41575-0.66172-0.68872-1.4257-0.81277-2.2749-0.06428-0.44001-0.07669-1.2315-0.02597-1.6575 0.32376-2.7197 2.3587-4.8 5.1305-5.2448 0.65784-0.10557 1.608-0.10562 2.3129-0.00013 1.2276 0.18371 2.2919 0.64075 3.2411 1.3919 0.12422 0.0983 0.22326 0.1868 0.22008 0.19666-0.01 0.0309-1.8419 2.2558-1.8574 2.2558-0.0081 0-0.09089-0.0604-0.18398-0.13429-0.41925-0.3326-0.88212-0.58895-1.3245-0.73354-0.4334-0.14167-0.75961-0.18942-1.2839-0.18795-0.39563 0.001-0.48897 0.0103-0.71797 0.0708-1.0174 0.26871-1.7815 0.98765-2.1184 1.9933-0.12138 0.36231-0.16775 0.67714-0.16762 1.1382 0.000209 0.77932 0.16506 1.3735 0.54281 1.9565 0.15852 0.24464 0.65023 0.71327 0.90505 0.86256 0.59796 0.35031 1.2385 0.4844 2.065 0.43231 0.48562-0.0306 0.88077-0.12947 1.2355-0.30907l0.28142-0.1425 0.0073-0.73678 0.0073-0.73679h-2.2884v-2.3152h5.3192v5.2058l-0.32384 0.24374c-1.0614 0.79884-2.2122 1.2733-3.6036 1.4857-0.39414 0.0602-1.5883 0.0744-1.988 0.0238zm54.987 0.0254c-0.045475-0.006-0.1943-0.0248-0.33073-0.0414-1.5463-0.18859-2.9889-0.93454-3.9355-2.035-0.76761-0.89236-1.2366-1.9908-1.3685-3.2052-0.04028-0.3709-0.03487-1.1032 0.01095-1.4825 0.15649-1.2953 0.70177-2.4634 1.5862-3.3979 0.96514-1.0198 2.2467-1.6542 3.7481-1.8553 0.45685-0.0612 1.3676-0.0602 1.8741 0.002 1.3133 0.16143 2.4186 0.61483 3.4366 1.4097 0.12595 0.0983 0.229 0.18906 0.229 0.20159 0 0.025-1.8129 2.2439-1.8422 2.2547-0.00998 0.004-0.13808-0.0833-0.28467-0.19326-0.71556-0.53684-1.3384-0.78093-2.1706-0.85066-0.61645-0.0516-1.1063 0.0259-1.593 0.25234-0.87836 0.40859-1.4876 1.2084-1.7091 2.2439-0.066162 0.30921-0.065412 1.0927 0.00137 1.4268 0.26373 1.3198 1.1542 2.2286 2.429 2.4791 0.35348 0.0694 1.0096 0.0744 1.4044 0.0107 0.34235-0.0553 0.73247-0.18345 0.95868-0.31495l0.17407-0.1012 0.00734-0.73653 0.00734-0.73653h-2.2884v-2.3152h5.3468l-0.0009375 2.5976-0.0009375 2.5976-0.25632 0.19865c-0.81472 0.63141-1.7803 1.1021-2.7898 1.3599-0.67712 0.17294-1.0776 0.22279-1.8716 0.23298-0.37896 0.005-0.72623 0.004-0.7717-0.002zm-11.782-3.32c-1.3264-1.7055-2.4514-3.1465-2.5-3.2022l-0.08842-0.10121-0.0011 3.1902-0.0011 3.1902h-3.1694v-11.603l1.509 0.002 1.509 0.002 2.384 3.0742 2.384 3.0741 0.007-3.0758 0.007-3.0758h3.1692v11.631l-1.3987-0.002-1.3987-0.002zm-37.165 2.9736c0.02292-0.0568 1.131-2.683 2.4625-5.836l2.4208-5.7326h3.1084l2.4577 5.8153c1.3517 3.1984 2.4587 5.8246 2.4599 5.836s-0.76586 0.0207-1.7046 0.0207h-1.7069l-0.41232-1.0404-0.41232-1.0404-2.2709-0.007-2.2709-0.007-0.41241 1.0467-0.41241 1.0467-1.6741 0.00073-1.6741 0.00073 0.04168-0.10335zm7.7254-4.4959c-0.31382-0.82545-1.3098-3.3022-1.3224-3.2886-0.02446 0.0263-1.3188 3.2504-1.3188 3.285 0 0.0181 0.45647 0.0277 1.3252 0.0277 0.74792 0 1.3212-0.0105 1.316-0.0242zm5.5167-1.2023v-5.8015h3.4048l1.3775 2.2373c0.75763 1.2305 1.3899 2.2407 1.4051 2.2448 0.01516 0.004 0.64768-1.0026 1.4056-2.2372l1.378-2.2447 1.7019-0.00016 1.7019-0.00017v11.603h-3.1968l-0.007-3.3393-0.007-3.3393-1.4984 2.2932c-0.82414 1.2613-1.5086 2.2896-1.5211 2.2851-0.01245-0.004-0.68142-1.0189-1.4866-2.2543-0.80516-1.2354-1.4756-2.258-1.4899-2.2724-0.01628-0.0164-0.02599 1.2166-0.02599 3.3004v3.3266h-3.142v-5.8015zm13.67 0v-5.8015h3.197v11.603h-3.197z"/>
   <path id="path347" d="m-30.462 127.43c-0.38729-0.0565-0.89404-0.25707-1.1305-0.44746l-0.08084-0.0651 0.2451-0.28658c0.1348-0.15761 0.24845-0.29149 0.25254-0.2975 0.0041-0.006 0.05504 0.0206 0.11322 0.0591 0.33575 0.2222 0.65061 0.32397 1.0017 0.32381 0.18094-0.00008 0.24949-0.0118 0.31986-0.0547 0.07901-0.0482 0.08957-0.0688 0.08957-0.17477 0-0.18819-0.08631-0.24173-0.60634-0.37613-0.58871-0.15214-0.85227-0.27215-1.0302-0.46908-0.16044-0.17759-0.19206-0.26296-0.2042-0.55129-0.01276-0.30329 0.03981-0.48627 0.2-0.69607 0.20742-0.27164 0.53589-0.40925 1.0206-0.42757 0.38146-0.0144 0.67325 0.03 0.96849 0.14731 0.21098 0.0839 0.47845 0.24421 0.47845 0.28684 0 0.0316-0.40924 0.60681-0.43172 0.60681-0.0081 0-0.11575-0.0495-0.23933-0.10997-0.3762-0.18413-0.73001-0.2419-0.94116-0.15367-0.10074 0.0421-0.13521 0.11516-0.11938 0.25306 0.01231 0.10725 0.15506 0.18211 0.51983 0.27262 0.7563 0.18767 1.0575 0.34502 1.2335 0.64435 0.06957 0.11835 0.07474 0.14904 0.07474 0.44409 0 0.30873-0.0025 0.32147-0.09453 0.4913-0.05199 0.0959-0.14501 0.21835-0.2067 0.27214-0.31152 0.27157-0.86653 0.39107-1.4328 0.30849zm-6.3551-1.7196v-1.695h0.9095v3.39h-0.9095zm1.571 0v-1.695l0.43408 0.0001 0.43408 0.0001 0.7028 0.90017 0.7028 0.90016 0.0073-0.90026 0.0073-0.90027h0.93632v3.39l-0.40652-0.00028-0.40652-0.00027-0.72626-0.92312c-0.39944-0.50769-0.73741-0.92998-0.75103-0.9384-0.01447-0.009-0.02477 0.37515-0.02477 0.92338v0.93869h-0.9095zm7.7721 0.39963v-1.2954h-1.0197v-0.79927h2.9766v0.79927h-1.0197v2.5908h-0.93706zm1.7208 1.2471c0.0087-0.0265 0.33092-0.79237 0.71611-1.7019l0.70035-1.6536h0.89828l0.72271 1.6812c0.39749 0.92466 0.72352 1.6905 0.72451 1.7019s-0.2192 0.0207-0.4893 0.0207h-0.49111l-0.12158-0.31742-0.12159-0.31742-0.67502 0.007-0.67502 0.007-0.12104 0.31006-0.12105 0.31006h-0.48101c-0.44573 0-0.47985-0.004-0.46525-0.0482zm2.2205-1.3367c-0.01445-0.0341-0.10212-0.25425-0.19482-0.48921-0.0927-0.23495-0.17235-0.43107-0.17699-0.43582-0.0072-0.007-0.08112 0.17434-0.34796 0.85613l-0.05124 0.13091h0.79728zm1.9016-0.31006v-1.695h0.8777l0.6943 0.88884c0.38187 0.48886 0.70528 0.89297 0.7187 0.89802 0.01385 0.005 0.0244-0.3791 0.0244-0.88884v-0.89802h0.9095v3.3914l-0.40501-0.008-0.40501-0.008-0.73187-0.92856-0.73187-0.92856-0.0073 0.93545-0.0073 0.93546h-0.93634zm4.6578 0.39963v-1.2954h-1.0197v-0.79927h2.9766v0.79927h-1.0197v2.5908h-0.93706z"/>
  </g>
 </g>
</svg>
