<svg xmlns="http://www.w3.org/2000/svg" version="1.1" id="Ñëîé_1" x="0" y="0" viewBox="0 0 300 89.314" xml:space="preserve" width="250" height="74.429"><style type="text/css" id="style2">.st0{fill:#365ebf}</style><g id="Intuit_Logo_5_" transform="translate(-121.55 -212.836)"><g id="XMLID_2_" transform="matrix(.68852 0 0 .68852 101.796 85.33)"><g id="XMLID_3_"><g id="XMLID_4_"><path id="XMLID_12_" class="st0" d="M313.5 302.2h-9.8c-2 0-3.5-1.1-3.7-3l-.2-3.8c-7 5.7-15.4 8.7-24.3 8.7-17.1 0-24.1-10.8-24.1-27.3v-45.2c0-2.6 1.5-3.5 4-3.5h10.7c2.4 0 3.8.8 3.8 3.5v41.9c0 8.4 2.1 14.2 11.3 14.2 5.8 0 13.1-3.2 17.7-7.3v-48.8c0-2.6 1.4-3.5 3.8-3.5h10.8c2.4 0 3.8.8 3.8 3.5V298c.1 3.1-.8 4.2-3.8 4.2z"/></g></g><path id="XMLID_11_" class="st0" d="M65 231.1c0-1.8.9-3 2.7-3h12.9c1.8 0 2.9 1.1 2.9 3v67.3c0 2.7-1.2 3.8-3.8 3.8H69c-2.7 0-4-1.1-4-3.8z"/><path id="XMLID_10_" class="st0" d="M336.5 231.1c0-1.8.9-3 2.7-3h12.9c1.8 0 2.9 1.1 2.9 3v67.3c0 2.7-1.2 3.8-3.8 3.8h-10.8c-2.7 0-4-1.1-4-3.8v-67.3z"/><path id="XMLID_9_" class="st0" d="M165.4 302.2h-11c-2.7 0-3.7-1.4-3.7-4v-41.5c0-8.4-2.3-14.3-11.6-14.3-6 0-13.3 3.2-18 7.3v48.7c0 2.6-1.1 3.8-3.7 3.8h-11.1c-2.3 0-3.7-1.2-3.7-3.7v-66.7c0-2.4 1.1-3.8 3.8-3.8h9.9c2.1 0 3.5.6 3.7 2.9l.2 4.1c7-5.6 15.9-8.8 24.7-8.8 17.1 0 24.1 10.7 24.1 27.3v44.7c.1 2.6-.8 4-3.6 4z"/><g id="XMLID_5_"><g id="XMLID_6_"><path id="XMLID_8_" class="st0" d="M219.8 207.2c0-6.2-5-11.2-11.2-11.2-6.2 0-11.2 5-11.2 11.2 0 6.2 5 11.2 11.2 11.2 6.2 0 11.2-5 11.2-11.2z"/></g><path id="XMLID_7_" class="st0" d="M235.7 228c1.8 0 2.9.6 2.9 2.6v10.8c0 1.8-1.2 2.9-3.1 2.9h-17.7v54.1c0 2.7-1.2 3.8-4 3.8h-10.6c-2.7 0-4-1.1-4-3.8v-54.1h-17.7c-1.8 0-3.1-1.1-3.1-2.9v-10.8c0-2 1.1-2.6 2.9-2.6z"/></g><g id="XMLID_13_"><g id="XMLID_14_"><path id="XMLID_15_" class="st0" d="M409.3 207.2c0-6.2-5-11.2-11.2-11.2-6.2 0-11.2 5-11.2 11.2 0 6.2 5 11.2 11.2 11.2 6.2 0 11.2-5 11.2-11.2z"/></g><path id="XMLID_16_" class="st0" d="M425.2 228c1.8 0 2.9.6 2.9 2.6v10.8c0 1.8-1.2 2.9-3.1 2.9h-17.7v54.1c0 2.7-1.2 3.8-4 3.8h-10.6c-2.7 0-4-1.1-4-3.8v-54.1H371c-1.8 0-3.1-1.1-3.1-2.9v-10.8c0-2 1.1-2.6 2.9-2.6z"/></g></g></g></svg>