<svg xmlns="http://www.w3.org/2000/svg" version="1.1" id="Layer_1" x="0" y="0" viewBox="0 0 300 100.63" xml:space="preserve" width="250" height="83.858"><style type="text/css" id="style2">.st0{fill:#f36}.st1{fill:#fff}</style><g id="XMLID_1_" transform="matrix(.68512 0 0 .68512 -21.245 -120.964)"><path id="XMLID_3_" class="st0" d="M178.8 188.8H78.6c-6.1 0-11.1 5-11.1 11.1v100.2c0 6.1 5 11.1 11.1 11.1h100.2c6.1 0 11.1-5 11.1-11.1V199.9c0-6.1-5-11.1-11.1-11.1z"/><path id="XMLID_11_" class="st0" d="M239.3 283.8H251v-51.1h-11.7zm42.8-30.2c-6-1.9-11.5-3.5-11.5-7.2v-.2c0-3 2.6-5.1 7.2-5.1 2.2 0 4.7.5 7.3 1.4h.1c.2.1.4.2.7.3 1.9.6 6.8 1.4 11.1-5.2-5.4-3.6-12.4-5.8-18.8-5.8-10.2 0-18.2 5.9-18.2 15.6v.2c0 9.8 8.4 12.9 16 15 6 1.8 11.4 3.2 11.4 7.2v.2c0 3.4-2.9 5.5-7.9 5.5-3.3 0-7-.9-10.7-2.6-1.1-.4-6.5-2.3-11.2 4.3 6.4 5 14.3 7.6 21.6 7.6 10.6 0 19-5.3 19-16.1v-.2c-.2-9.2-8.6-12.6-16.1-14.9zm-74.7 16.7l-13.7-37.6h-12.6l21 51.5h10.5l20.9-51.5h-12.3zm145-38.7c-15.7 0-27.3 12.1-27.3 26.8 0 14.6 11.5 26.5 27.1 26.5 15.8 0 27.4-12.1 27.4-26.7 0-14.7-11.6-26.6-27.2-26.6zm0 43.2c-9.1 0-15.6-7.5-15.6-16.6 0-9 6-16.4 15.4-16.4 9.2 0 15.7 7.5 15.7 16.6-.1 9.1-6.1 16.4-15.5 16.4zm61.9-43.2c-7.9 0-12.7 4.2-16 9v-7.9h-11.7v51.1h11.7V255c0-7.9 4.7-12.7 11.5-12.7 7 0 10.9 4.5 10.9 12.5v29h11.7v-32.5c.1-11.9-6.6-19.7-18.1-19.7zm-108.6 52.2h11.7v-51.1h-11.7z"/><path id="XMLID_12_" class="st1" d="M108.4 227.3c4.1 0 7.5-3.2 7.5-7.4s-3.4-7.4-7.5-7.4-7.5 3.2-7.5 7.4 3.4 7.4 7.5 7.4z"/><path id="XMLID_13_" class="st1" d="M92.9 266.8c-.4 1.9-.7 3.9-.7 5.5 0 6.5 3.5 10.8 11 10.8 6.2 0 11.2-3.7 14.8-9.6l-2.2 8.9h12.3l7-28.2c1.8-7.1 5.2-10.9 10.3-10.9 4.1 0 6.6 2.5 6.6 6.7 0 1.2-.1 2.5-.5 4l-3.6 13c-.5 1.9-.8 3.7-.8 5.5 0 6.2 3.6 10.7 11.2 10.7 6.5 0 11.7-4.2 14.5-14.2l-4.8-1.9c-2.4 6.7-4.5 7.9-6.2 7.9-1.6 0-2.5-1.1-2.5-3.3 0-1 .2-2.1.5-3.4l3.5-12.6c.9-3 1.2-5.6 1.2-8 0-9.5-5.7-14.4-12.6-14.4-6.5 0-13.1 5.8-16.4 12l2.4-11.1h-18.8l-2.6 9.7h8.8l-5.4 21.7c-4.3 9.5-12.1 9.6-13 9.4-1.6-.4-2.6-1-2.6-3.1 0-1.2.2-2.9.8-5l8.2-32.7H92.5l-2.6 9.7h8.7z"/></g></svg>