<?xml version="1.0" encoding="UTF-8" standalone="no"?>
<!-- Created with Inkscape (http://www.inkscape.org/) -->
<!-- viewBox fix by in[k]firmary (http://inkfirmary.48design.de) -->
<svg id="svg2" xmlns:rdf="http://www.w3.org/1999/02/22-rdf-syntax-ns#" xmlns="http://www.w3.org/2000/svg" xml:space="preserve" height="56.438" viewBox="0 0 299.99996 67.725842" width="250" version="1.1" xmlns:cc="http://creativecommons.org/ns#" xmlns:dc="http://purl.org/dc/elements/1.1/"><g id="g12" transform="matrix(1.25 0 0 -1.25 -246.83 519.87)" fill="#21ace2"><path id="signet" d="m238.95 407.86-1.0154-1.3962c-1.3573-1.9975-1.4856-4.4786-0.54399-6.685 0.99252-2.3413 3.0228-4.1826 5.3975-5.053 0.0979-0.0368 0.19755-0.07 0.29617-0.10275l0.13297-0.0423c0.14089-0.0438 0.27827-0.0933 0.4231-0.12088 6.564-1.2678 8.3451 3.3661 8.8186 4.0496-1.56-2.2458-4.1821-2.7817-7.3982-2.0006-0.25281 0.0609-0.53025 0.14956-0.77367 0.23573-0.31539 0.11286-0.62423 0.24177-0.92477 0.38683-0.5714 0.27388-1.115 0.61004-1.6199 0.99126-2.8773 2.1832-4.6694 6.3452-2.7924 9.7373zm-7.4465-1.6259-1.8798-2.6534c-2.3028-3.3132-2.1762-7.75-0.38079-11.254 0.30135-0.58779 0.63816-1.1553 1.0154-1.6984 0.34519-0.49409 0.73354-1.0842 1.1907-1.4808 0.1667-0.18307 0.33765-0.36183 0.51376-0.53794l0.13902-0.13297c0.17134-0.16682 0.34495-0.33002 0.52585-0.48959l0.0181-0.0181 0.006-0.006c0.19957-0.17466 0.40675-0.34177 0.61651-0.50772l0.13902-0.1088c0.21057-0.16131 0.42688-0.32058 0.64673-0.47145l0.0181-0.0181c0.0963-0.0673 0.19836-0.1293 0.29617-0.19342l0.13901-0.0907c0.15731-0.10097 0.31625-0.19642 0.4775-0.29013l0.0665-0.0423c0.1394-0.0798 0.28064-0.15913 0.42309-0.23572l0.15111-0.0786c0.0986-0.0508 0.19677-0.10178 0.29617-0.1511l0.0423-0.0242c0.20262-0.10009 0.40835-0.19269 0.61651-0.28408l0.13902-0.0544c0.16749-0.0705 0.33181-0.14139 0.50168-0.2055 0.072-0.0273 0.14471-0.0528 0.21759-0.0786 0.15333-0.0571 0.3097-0.11068 0.46541-0.1632 0.0705-0.0226 0.14197-0.0444 0.21155-0.0665 0.22156-0.0688 0.44087-0.15512 0.67091-0.19342 11.888-1.9694 14.633 7.1806 14.633 7.1806-2.4742-3.5639-7.2666-5.2624-12.379-3.9348-0.22778 0.0595-0.45472 0.12292-0.67696 0.19342l-0.19946 0.0665c-0.15809 0.0514-0.31496 0.10691-0.47145 0.1632-0.0713 0.0267-0.14105 0.0513-0.21155 0.0786-0.17057 0.065-0.34101 0.13443-0.50772 0.20551l-0.13902 0.0544c-0.20819 0.0923-0.41299 0.18916-0.61651 0.29012-0.10482 0.0508-0.21096 0.10464-0.3143 0.15715l-0.17529 0.0907c-0.13316 0.0722-0.26903 0.14762-0.39892 0.22363l-0.0907 0.0544c-0.16128 0.0949-0.32089 0.18974-0.4775 0.29013l-0.14506 0.0967c-0.10337 0.0673-0.20727 0.13646-0.30826 0.20551-0.21985 0.15115-0.43093 0.31159-0.64069 0.47145l-0.14506 0.1088c-2.2386 1.766-4.0151 4.1828-4.8596 6.9207-0.88375 2.8397-0.69173 6.026 0.84016 8.6131zm-9.2779-3.3546-2.4842-3.1551c-3.1841-4.5758-2.7885-10.531-0.35661-15.395 0.0579-0.11576 0.12104-0.23022 0.18133-0.34453 0.0383-0.0737 0.0697-0.14651 0.1088-0.21759l0.0725-0.12693c0.0415-0.0775 0.0847-0.14849 0.12693-0.22364 0.0767-0.13374 0.15664-0.26662 0.23572-0.39892 0.0439-0.0728 0.0824-0.14477 0.12693-0.21759 0.0885-0.14158 0.18043-0.28297 0.272-0.4231l0.11484-0.17528c0.12759-0.18945 0.25982-0.37586 0.39287-0.56212l0.006-0.0181 0.0665-0.0907c0.11585-0.15986 0.23613-0.31595 0.35662-0.47146l0.13297-0.16924c0.10798-0.13548 0.22126-0.27034 0.33243-0.40496l0.12089-0.15111c0.15028-0.1761 0.30365-0.34834 0.45936-0.5198l0.0121-0.0121 0.0181-0.0181c0.15185-0.16595 0.3081-0.3274 0.4654-0.48958l0.14507-0.15111c0.12286-0.12272 0.24949-0.24225 0.37474-0.36265l0.15112-0.14508c0.16763-0.15725 0.33465-0.31455 0.50771-0.46541l0.0121-0.006 0.0846-0.0786c0.15188-0.13143 0.30889-0.2586 0.46541-0.38683l0.18737-0.15111c0.12682-0.10184 0.25616-0.20357 0.38683-0.30221l0.20551-0.15716c0.14326-0.10561 0.28957-0.21334 0.43519-0.31431l0.15715-0.10879 0.0423-0.0302c0.13859-0.0946 0.28224-0.18636 0.42309-0.27804l0.18133-0.12089c0.21678-0.13693 0.43648-0.27411 0.65883-0.40496l0.18132-0.10275c0.16363-0.094 0.3237-0.1881 0.48959-0.27804 0.09-0.0487 0.18726-0.092 0.27804-0.13902 0.11741-0.0618 0.23089-0.12098 0.35056-0.18133l0.0846-0.0423 0.13902-0.0665c0.18542-0.0885 0.37342-0.17606 0.56212-0.2599l0.12088-0.0544c0.21522-0.0949 0.43281-0.18525 0.65278-0.27199l0.15715-0.0605c0.20422-0.0783 0.40992-0.15744 0.61652-0.22968l0.0786-0.0302c0.22781-0.0789 0.45808-0.15169 0.68905-0.22364l0.16319-0.0484c0.23483-0.0714 0.46522-0.15478 0.70718-0.19946 15.398-2.8084 19.874 9.2538 19.874 9.2538-3.7554-4.8944-10.424-6.1881-16.743-4.7508-0.23947 0.054-0.47383 0.13128-0.70718 0.19946l-0.17528 0.0544c-0.22781 0.0696-0.45223 0.13984-0.67696 0.21759l-0.0907 0.0363c-0.20115 0.0702-0.40119 0.14675-0.59839 0.22364l-0.16924 0.0665c-0.21759 0.0862-0.43378 0.17282-0.64673 0.26595l-0.13298 0.0544c-0.18315 0.083-0.36242 0.16711-0.54398 0.25386l-0.15715 0.0786c-0.14167 0.0682-0.27765 0.13873-0.41705 0.21155-0.0946 0.0485-0.19092 0.10034-0.28408 0.15111-0.17068 0.0926-0.34023 0.18689-0.50772 0.28408l-0.16924 0.0907c-0.22314 0.13056-0.44204 0.26774-0.65883 0.40497l-0.17528 0.12088c-0.1573 0.10184-0.31641 0.20237-0.47145 0.30826l-0.14506 0.1088c-0.15107 0.1056-0.30164 0.21155-0.44728 0.32034l-0.19341 0.14507c-0.13387 0.10241-0.26666 0.20811-0.39893 0.3143l-0.18132 0.14506c-0.1683 0.13781-0.33131 0.2746-0.49563 0.41705l-0.0544 0.0423c-0.17692 0.1558-0.35369 0.31793-0.52585 0.4775l-0.14506 0.14506c-0.12682 0.12127-0.25113 0.24337-0.37475 0.3687l-0.1511 0.14506c-0.15661 0.16073-0.30911 0.32451-0.45937 0.48959l-0.0242 0.0242c-0.15887 0.17436-0.31274 0.35201-0.4654 0.53189l-0.12089 0.14506c-0.11437 0.13694-0.22808 0.27751-0.33848 0.41706l-0.12088 0.1511c-0.13317 0.17147-0.26766 0.34603-0.39288 0.51981-3.5075 4.7842-4.7681 11.384-1.9644 16.803z"/><path id="jQuery" d="m298.1 411.38c-11.531 0-16.542-8.3031-18.453-17.329-1.9099-9.0913 0.59316-17.062 12.058-16.996l9.0483 0.0302 8.4499 0.0302c0.32552 0.003 0.66046 0.26029 0.74344 0.57421l1.4748 5.6212c0.0824 0.31536-0.12176 0.57275-0.44728 0.5742l-1.4083 0.006-1.4144 0.0121c-0.27706 0.001-0.43199 0.17915-0.39892 0.41705l0.0363 0.13297s3.1908 7.7541 3.9167 12.234c0.98845 5.9966-2.0096 14.694-13.606 14.694zm119.02-3.3183-1.8616-0.0121c-0.32552-0.002-0.85887-0.006-1.1847-0.006h-4.9261c-0.3255 0-0.74082-0.22122-0.92476-0.48959l-10.898-15.957c-0.18394-0.27011-0.39258-0.23249-0.4654 0.0846l-0.79784 3.5178c-0.0719 0.31856-0.3998 0.5742-0.72531 0.5742h-7.0053c-0.32639 0-0.51763-0.25511-0.42914-0.56816l3.137-10.995c0.0891-0.31333 0.0988-0.827 0.0181-1.1424l-1.372-5.319c-0.0815-0.31711 0.12147-0.57421 0.44728-0.57421h6.9207c0.32492 0 0.66276 0.2571 0.74344 0.57421l1.366 5.319c0.0807 0.31536 0.30527 0.7857 0.50168 1.0456l17.692 23.476c0.19642 0.25908 0.0898 0.47291-0.23573 0.47145zm-60.11-3.5359c-11.399 0-14.097-6.9191-15.612-13.902-1.5153-7.1173-1.3868-13.769 10.408-13.769h1.4325 0.35662 0.0846c0.46681 0.00097 0.93913 0.004 1.4144 0.006h0.0242c3.1154 0.0116 6.2351 0.0373 7.5009 0.0484 0.32406 0.005 0.64074 0.26401 0.70717 0.58025l0.4775 2.3331 0.0967 0.45332 0.56816 2.7864c0.0659 0.31856-0.15111 0.58025-0.4775 0.58025h-10.602c-4.2172 0-5.4717 1.1177-5.0107 4.4123h16.966c0.26923 0.005 0.51787 0.19463 0.61651 0.44123l0.0423 0.14506h-0.006c2.5171 9.4932 1.7944 15.884-8.9878 15.884zm-59.868-0.22364c6.3632 0.18278 7.6126-4.5492 5.9959-9.9851l-0.16319-0.56817v-0.006l-1.2753-4.5332-1.2814-4.5332c-0.0891-0.31304-0.42915-0.5742-0.75554-0.5742h-6.7696c-5.1387 0-6.3953 4.0204-5.1437 9.9488 1.2507 6.063 3.7061 9.833 8.7642 10.215 0.21599 0.0163 0.42334 0.0304 0.62861 0.0363zm-25.809-0.0967c-0.32552 0-0.65336-0.26343-0.72531-0.58024l-0.61047-2.6957-0.61047-2.6957c-0.0725-0.31682 0.13384-0.58025 0.45936-0.58025h6.4915c0.32639 0 0.64935 0.26256 0.71927 0.58025l0.59234 2.6957 0.59234 2.6957c0.0696 0.31855-0.13989 0.58024-0.46541 0.58024zm46.994-0.0725c-0.32581 0-0.64737-0.26256-0.71322-0.58025l-1.2935-6.141-1.2995-6.141v-0.006l-0.12089-0.5742c-1.491-6.8075-1.093-13.3 7.0113-13.503 0.13259-0.004 0.23573 0 0.23573 0h12.717c0.32552 0 0.64505 0.26082 0.71323 0.58025l2.7441 12.892 2.7441 12.892c0.0673 0.31856-0.14564 0.58025-0.47145 0.58025h-5.8629c-0.32552 0-0.64964-0.26256-0.71927-0.58025l-2.0792-9.6285-2.0853-9.6346c-0.0688-0.31769-0.38829-0.58025-0.71322-0.58025h-4.1524c-4.1076 0-3.6341 2.8416-2.7924 6.7333l0.0242 0.11485 0.0907 0.49562 0.0181 0.0907 0.18738 0.9973 0.19946 1.0698c0.0612 0.32232 0.15724 0.79721 0.21759 1.094l0.94895 4.6239 0.9429 4.6238c0.065 0.31856-0.14593 0.58025-0.47145 0.58025zm55.541-0.0665c-0.32552 0-0.65195-0.2617-0.71926-0.58025l-0.23573-1.1303-0.28408-1.3418-0.0786-0.37475-2.4419-11.436-2.321-10.862c-0.0688-0.31856-0.0881-0.71081-0.0484-0.87038 0.0395-0.15899 0.65941-0.28408 0.98522-0.28408h4.8958c0.32639 0 0.73513 0.055 0.91268 0.12693 0.17785 0.0719 0.44244 0.71414 0.50772 1.0336l0.87037 4.2975 0.87038 4.3035v0.006l0.11484 0.5742 1.0577 4.9442 0.93082 4.364c0.0688 0.31711 0.38857 0.57363 0.71322 0.57421l15.395 0.006c0.32465 0.001 0.52788 0.26227 0.45332 0.58025l-0.26595 1.1121-0.26594 1.1363-0.13902 0.58025c-0.52745 2.0492-2.073 3.2277-5.4338 3.2277l-5.2343 0.006-4.8173 0.006h-5.4217zm-18.368-5.9959c3.6553 0 4.3642-1.7821 4.1161-3.7898-0.0436-0.3497-0.36511-0.61047-0.68905-0.61047h-8.879c-0.30696 0-0.46865 0.20865-0.4231 0.46541l0.006 0.0181 0.006 0.0302s0.0128 0.0626 0.0363 0.15111c0.84832 2.2551 2.5799 3.7354 5.8267 3.7354zm-86.088-2.2545c-0.32552 0-0.64818-0.26227-0.71926-0.58025l-0.91269-4.0376-0.91268-4.0376c-0.0722-0.31798-0.18655-0.84107-0.25386-1.1605l-0.87642-4.1222-0.87641-4.1222c-0.0682-0.31797-0.20928-0.83396-0.31431-1.1424 0 0-1.2128-3.6067-3.2518-3.5661-0.0862 0.003-0.16943-0.002-0.25386 0-0.98642 0.0186-1.7649 0.0363-1.7649 0.0363-0.32552 0.005-0.65017-0.25192-0.72531-0.56816l-0.67696-2.8287-0.67091-2.8287c-0.0751-0.31594 0.12954-0.5802 0.45332-0.58629 1.1547-0.0134 3.7442-0.0423 5.3129-0.0423 5.0923 0 7.7797 2.8262 9.5016 10.946l2.0127 9.3202 1.8918 8.74c0.0696 0.31798-0.14564 0.58025-0.47145 0.58025z"/></g><metadata id="metadata3471"><rdf:RDF><cc:Work rdf:about=""><dc:title/><dc:format>image/svg+xml</dc:format><dc:type rdf:resource="http://purl.org/dc/dcmitype/StillImage"/></cc:Work></rdf:RDF></metadata></svg>
