<?xml version="1.0" encoding="UTF-8" standalone="no"?>
<svg
   xmlns:dc="http://purl.org/dc/elements/1.1/"
   xmlns:cc="http://creativecommons.org/ns#"
   xmlns:rdf="http://www.w3.org/1999/02/22-rdf-syntax-ns#"
   xmlns:svg="http://www.w3.org/2000/svg"
   xmlns="http://www.w3.org/2000/svg"
   xmlns:sodipodi="http://sodipodi.sourceforge.net/DTD/sodipodi-0.dtd"
   xmlns:inkscape="http://www.inkscape.org/namespaces/inkscape"
   width="250"
   height="86.784752"
   version="1.1"
   id="svg10"
   sodipodi:docname="kirby-logo.svg"
   viewBox="0 0 300 104.1417"
   inkscape:version="0.92.4 (5da689c313, 2019-01-14)">
  <metadata
     id="metadata16">
    <rdf:RDF>
      <cc:Work
         rdf:about="">
        <dc:format>image/svg+xml</dc:format>
        <dc:type
           rdf:resource="http://purl.org/dc/dcmitype/StillImage" />
        <dc:title></dc:title>
      </cc:Work>
    </rdf:RDF>
  </metadata>
  <defs
     id="defs14" />
  <sodipodi:namedview
     pagecolor="#ffffff"
     bordercolor="#666666"
     borderopacity="1"
     objecttolerance="10"
     gridtolerance="10"
     guidetolerance="10"
     inkscape:pageopacity="0"
     inkscape:pageshadow="2"
     inkscape:window-width="1920"
     inkscape:window-height="1017"
     id="namedview12"
     showgrid="false"
     scale-x="1.2"
     inkscape:zoom="2.3471074"
     inkscape:cx="125.0055"
     inkscape:cy="43.392375"
     inkscape:window-x="-8"
     inkscape:window-y="-8"
     inkscape:window-maximized="1"
     inkscape:current-layer="svg10" />
  <path
     d="M 62.193465,8.6784756 99.386929,30.370531 v 43.40064 L 62.193465,95.463226 25.000001,73.771171 V 30.370531 Z M 29.132608,32.839764 V 71.301938 L 62.193465,90.584683 95.254322,71.301938 V 32.839764 L 62.193465,13.554953 Z"
     id="path2"
     inkscape:connector-curvature="0"
     style="stroke-width:2.06630349" />
  <path
     d="m 78.723893,52.070851 -10.331517,5.351726 v 0.847185 h 10.331517 v 8.265214 H 45.663036 V 58.269762 H 55.994554 V 57.366787 L 45.663036,52.070851 V 41.739333 l 16.530429,8.878907 16.530428,-8.878907"
     id="path4"
     inkscape:connector-curvature="0"
     style="stroke-width:2.06630349" />
  <g
     id="g8"
     transform="matrix(2.0663035,0,0,2.0663035,25.000001,8.6784756)">
    <path
       d="m 62.774,23.603 -1.97,2.162 V 31.02 H 56 V 11.095 h 4.803 v 8.785 l 1.67,-2.531 4.297,-6.254 h 5.94 L 65.976,19.908 72.71,31.02 H 67.017 L 62.775,23.603 Z M 78.58,31.02 H 73.954 V 16.213 h 4.626 z m 11.796,-10.633 -1.519,-0.11 c -1.45,0 -2.381,0.456 -2.792,1.369 V 31.02 H 81.454 V 16.213 h 4.324 l 0.15,1.902 c 0.776,-1.45 1.857,-2.176 3.244,-2.176 0.492,0 0.921,0.055 1.286,0.164 z m 15.41,3.352 c 0,2.427 -0.503,4.293 -1.506,5.598 -1.004,1.304 -2.418,1.956 -4.242,1.956 -1.506,0 -2.72,-0.597 -3.64,-1.792 L 96.206,31.02 H 92.073 V 10 h 4.612 v 7.403 c 0.857,-0.976 1.966,-1.464 3.325,-1.464 1.843,0 3.266,0.662 4.27,1.984 1.003,1.323 1.505,3.184 1.505,5.584 v 0.232 z m -4.626,-0.287 c 0,-1.423 -0.19,-2.438 -0.568,-3.045 -0.379,-0.606 -0.96,-0.91 -1.745,-0.91 -1.04,0 -1.76,0.397 -2.162,1.19 v 5.885 c 0.392,0.785 1.122,1.177 2.19,1.177 1.085,0 1.774,-0.529 2.066,-1.587 0.146,-0.52 0.219,-1.424 0.219,-2.71 z m 12.425,1.109 2.464,-8.348 h 4.94 l -6.035,17.284 -0.26,0.63 C 113.836,36.042 112.322,37 110.151,37 a 7.201,7.201 0 0 1 -1.903,-0.274 v -3.298 h 0.602 c 0.648,0 1.143,-0.093 1.485,-0.28 0.342,-0.187 0.596,-0.523 0.76,-1.006 l 0.37,-0.985 -5.146,-14.944 h 4.926 z M 76.25,15 a 2.5,2.5 0 1 1 0,-5 2.5,2.5 0 0 1 0,5 z"
       id="path6"
       inkscape:connector-curvature="0" />
  </g>
</svg>
