<svg viewBox="0 0 287.5 141.55" width="250" height="123.087" xmlns="http://www.w3.org/2000/svg"><g fill="#267abf" fill-rule="evenodd"><path d="M222.627 127.986a8.607 8.607 0 006.213-1.871c3.954-3.152 4.724-9.096 1.719-13.276a9.31 9.31 0 00-1.766-1.86l2.863-7.898c.489-1.343-.153-2.853-1.428-3.372-1.277-.519-2.705.15-3.193 1.494l-2.864 7.9a8.606 8.606 0 00-6.212 1.871c-3.955 3.152-4.724 9.095-1.72 13.276a9.242 9.242 0 001.766 1.86l-.965 2.661c-.488 1.344.154 2.853 1.428 3.372 1.278.519 2.706-.15 3.194-1.492l.965-2.664zm3.973-5.214a5.316 5.316 0 01-7.412-1.034 5.234 5.234 0 011.011-7.365 5.317 5.317 0 017.412 1.034 5.232 5.232 0 01-1.011 7.365z"/><path d="M186.269 89.27c-3.285 0-5.87-2.711-5.87-5.874 0-3.164 2.585-5.8 5.87-5.8 3.144 0 5.8 2.636 5.8 5.8 0 3.163-2.656 5.874-5.8 5.874zm-29.799-.43c-11.248 0-17.538-7.397-17.538-17.375V42.996c0-2.652 2.168-4.606 4.962-4.606 2.584 0 4.821 2.093 4.821 4.606v28.47c0 5.024 2.446 8.513 7.755 8.513 5.24 0 7.687-3.559 7.687-8.514V42.996c0-2.443 2.096-4.606 4.82-4.606 2.866 0 5.032 2.163 5.032 4.606v28.47c0 10.048-6.498 17.375-17.539 17.375zm-27.319 0c-1.608 0-3.005-.628-4.054-2.022l-13.555-18.143-1.258 1.395v14.235c0 2.442-2.236 4.535-4.89 4.535-2.725 0-4.892-2.092-4.892-4.535v-41.45c0-2.37 2.167-4.465 4.892-4.465 2.654 0 4.89 2.093 4.89 4.465v13.26l13.834-15.702c.84-1.046 2.446-2.023 3.984-2.023 2.096 0 4.821 2.023 4.821 4.465 0 1.047-.07 1.746-1.188 3.001l-13.903 15.7 15.3 20.237c.7.907.769 1.674.769 2.371 0 2.025-1.746 4.676-4.751 4.676zm-54.433 0c-11.248 0-17.537-7.397-17.537-17.375V42.996c0-2.652 2.165-4.606 4.96-4.606 2.585 0 4.82 2.093 4.82 4.606v28.47c0 5.024 2.447 8.513 7.757 8.513 5.24 0 7.687-3.559 7.687-8.514V42.996c0-2.443 2.096-4.606 4.82-4.606 2.865 0 5.03 2.163 5.03 4.606v28.47c0 10.048-6.498 17.375-17.537 17.375zm-27.32 0c-1.608 0-3.005-.628-4.053-2.022L29.791 68.675l-1.258 1.395v14.235c0 2.442-2.237 4.535-4.892 4.535-2.725 0-4.891-2.092-4.891-4.535v-41.45c0-2.37 2.166-4.465 4.89-4.465 2.656 0 4.893 2.093 4.893 4.465v13.26l13.833-15.702c.84-1.046 2.446-2.023 3.983-2.023 2.096 0 4.823 2.023 4.823 4.465 0 1.047-.07 1.746-1.189 3.001l-13.905 15.7 15.303 20.237c.697.907.768 1.674.768 2.371 0 2.025-1.747 4.676-4.751 4.676zm158.613 0c-2.725 0-4.89-2.092-4.89-4.465v-41.52c0-2.37 2.165-4.465 4.89-4.465 2.655 0 4.89 2.093 4.89 4.465v41.52c0 2.372-2.235 4.465-4.89 4.465zm-4.655 10.03h50.817a2.538 2.538 0 010 5.076h-50.817a2.538 2.538 0 110-5.077zm67.16-64.699a2.676 2.676 0 01-3.53 1.35L227.78 14.96 190.575 35.52a2.676 2.676 0 01-3.531-1.35 2.67 2.67 0 011.353-3.528L226.08 9.82a2.686 2.686 0 011.645-.586l.056-.001h.056c.598.007 1.18.214 1.645.587l37.684 20.827a2.67 2.67 0 011.352 3.527zm-31.864 54.573c-3.026 0-5.668-.477-7.924-1.43-2.258-.952-4.142-2.253-5.655-3.904-1.512-1.649-2.652-3.59-3.42-5.82-.768-2.231-1.153-4.624-1.153-7.182V56.607c0-2.464.338-4.799 1.013-7.006.675-2.208 1.733-4.15 3.177-5.821 1.442-1.674 3.316-2.998 5.62-3.975 2.302-.976 5.083-1.464 8.34-1.464 3.258 0 6.039.488 8.342 1.464 2.304.977 4.177 2.301 5.62 3.975 1.442 1.673 2.5 3.612 3.176 5.82.675 2.208 1.012 4.543 1.012 7.007V70.41c0 2.556-.383 4.949-1.152 7.18-.767 2.232-1.907 4.17-3.42 5.821-1.512 1.65-3.398 2.95-5.654 3.905-2.258.95-4.899 1.428-7.924 1.428zm0-41.549c-3.072 0-5.237.86-6.493 2.58-1.257 1.72-1.886 3.997-1.886 6.832V70.41c0 2.789.675 5.065 2.025 6.832 1.35 1.765 3.467 2.65 6.352 2.65 2.887 0 5.004-.885 6.352-2.65 1.35-1.767 2.025-4.045 2.025-6.834V56.607c0-2.835-.627-5.113-1.885-6.834-1.255-1.718-3.42-2.578-6.492-2.578z"/></g></svg>