<svg width="250" height="63.349" viewBox="0 0 300 76.018" preserveAspectRatio="xMidYMid" xmlns="http://www.w3.org/2000/svg"><path d="M25 15.704h9.772v35.594h18.094v9.016H25v-44.61M61.878 15.043a5.45 5.45 0 015.449 5.446 5.446 5.446 0 01-5.45 5.445 5.446 5.446 0 010-10.891zM57.18 30.07h9.393v30.232h-9.393zM71.769 30.075h9.016v4.132h.125c1.252-2.379 4.32-4.882 8.891-4.882 9.518 0 11.271 6.26 11.271 14.398v16.58H91.68V45.604c0-3.508-.065-8.015-4.887-8.015-4.882 0-5.632 3.82-5.632 7.763v14.951H71.77V30.075M105.836 15.701h9.39v26.662l10.636-12.305h11.512l-12.319 13.997 12.061 16.26h-11.803l-9.965-14.945h-.123v14.944h-9.39V15.701" fill="#1a1918"/><path d="M165.094 55.068c-3.008 3.821-7.95 6.015-12.836 6.015-9.39 0-16.905-6.265-16.905-15.97 0-9.705 7.515-15.964 16.905-15.964 8.77 0 14.277 6.26 14.277 15.964v2.943h-21.789c.746 3.57 3.442 5.887 7.074 5.887 3.07 0 5.134-1.566 6.7-3.696zm-7.95-13.396c.061-3.132-2.38-5.761-5.764-5.761-4.131 0-6.386 2.817-6.634 5.76zM202.258 60.298h-8.644v-4.009h-.122c-1.444 2.191-5.072 4.76-9.332 4.76-9.019 0-14.966-6.51-14.966-15.716 0-8.454 5.259-16.218 13.899-16.218 3.885 0 7.517 1.064 9.646 4.007h.123v-17.42h9.396zM186.096 37.38c-4.692 0-7.51 3.134-7.51 7.7 0 4.576 2.818 7.702 7.51 7.702 4.7 0 7.518-3.126 7.518-7.702 0-4.566-2.817-7.7-7.518-7.7z" fill="#1a1918"/><path d="M270.31 6.335h-53.984c-2.58 0-4.675 2.045-4.675 4.566v54.211c0 2.524 2.095 4.571 4.675 4.571h53.984c2.585 0 4.69-2.047 4.69-4.57V10.9c0-2.521-2.105-4.566-4.69-4.566" fill="#006087"/><path d="M225.742 15.056a5.45 5.45 0 015.446 5.447 5.45 5.45 0 01-5.446 5.449 5.448 5.448 0 110-10.896zm-4.7 15.028h9.397v30.232h-9.396zM236.332 30.084h9.013v4.13h.125c1.254-2.376 4.32-4.882 8.89-4.882 9.515 0 11.271 6.262 11.271 14.401v16.583h-9.389V45.615c0-3.508-.064-8.017-4.882-8.017-4.89 0-5.639 3.82-5.639 7.763v14.955h-9.39V30.084" fill="#fff"/></svg>