<svg xmlns="http://www.w3.org/2000/svg" viewBox="0 0 300 59.157" width="250" height="49.298"><path d="M151.22 48.712c0 .878 0 1.073.586 1.61l3.27 3.222v.146h-14.545v-6.199c-1.415 4.1-5.32 6.785-9.615 6.736-7.468 0-12.886-5.906-12.886-16.79 0-10.201 5.857-16.986 14.057-16.986 3.66-.244 7.029 1.904 8.444 5.271V12.007a1.707 1.707 0 00-.683-1.66l-3.124-3.026v-.146l14.496-1.708zm-10.689-1.953V26.31a5.321 5.321 0 00-4.344-2.05c-3.514 0-6.93 3.22-6.93 12.836 0 8.98 2.928 12.153 6.588 12.153 1.904 0 3.612-.976 4.686-2.489zm20.305 6.931V26.064c.097-.634-.147-1.22-.586-1.66l-3.221-3.367v-.147h14.545v28.017c0 .878 0 1.074.585 1.61l3.222 3.027v.146zm-.488-42.854c0-3.27 2.635-5.906 5.857-5.906 3.221 0 5.857 2.635 5.857 5.906 0 3.27-2.636 5.906-5.857 5.906-3.222 0-5.857-2.636-5.857-5.906zm50.468 37.827c0 .878 0 1.122.586 1.66l3.27 3.22v.147h-14.594v-7.077c-1.318 4.441-5.369 7.565-10.006 7.614-6.491 0-9.957-4.783-9.957-13.813 0-4.344 0-9.127.147-14.496.097-.586-.098-1.22-.586-1.611l-3.221-3.27v-.147h14.398V38.9c0 5.907.879 9.86 4.54 9.86a5.932 5.932 0 004.734-2.977V26.064c.098-.634-.147-1.22-.586-1.66l-3.221-3.367v-.147h14.545zm49.492 5.027c0-1.074.196-14.643.196-17.766 0-5.906-.928-10.006-5.028-10.006-2.098.048-4.002 1.122-5.173 2.83.39 1.855.585 3.71.585 5.614 0 4.1-.146 9.322-.195 14.545-.098.585.098 1.22.586 1.61l3.27 3.027v.146h-14.692c0-.976.196-14.643.196-17.766 0-6.004-.928-10.006-4.979-10.006a5.889 5.889 0 00-4.832 2.928v20.11c0 .878 0 1.073.586 1.61l3.221 3.026v.147h-14.496V26.162c.098-.635-.147-1.22-.586-1.66l-3.221-3.465v-.147h14.545v7.029c1.367-4.637 5.662-7.76 10.396-7.566 4.832 0 8.103 2.734 9.518 7.908a11.382 11.382 0 0110.933-7.908c6.492 0 10.153 4.833 10.153 13.96 0 4.344-.147 9.322-.196 14.545-.097.634.147 1.22.684 1.61L275 53.496v.146zM77.665 49.395l4.295 4.149v.146H60.143v-.146l4.392-4.15c.488-.39.684-.975.586-1.61v-26.6c0-1.123 0-2.636.195-3.954l-14.74 36.997h-.195l-15.278-34.02c-.341-.83-.439-.927-.634-1.464v22.305c-.195 1.514.049 3.027.732 4.344l6.15 8.152v.146H25v-.146l6.15-8.2A8.292 8.292 0 0031.882 41V16.4c.098-1.22-.244-2.44-1.025-3.368l-4.344-5.71v-.147h15.619l13.08 28.797 11.52-28.797h15.277v.146l-4.295 4.833a1.707 1.707 0 00-.684 1.659v34.02c-.146.586.147 1.22.635 1.562zM94.797 36.07v.146c0 8.444 4.295 11.812 9.371 11.812a10.576 10.576 0 009.957-6.101h.147c-1.757 8.346-6.882 12.3-14.497 12.3-8.248 0-16.058-5.027-16.058-16.693 0-12.25 7.81-17.132 16.449-17.132 6.93 0 14.35 3.32 14.35 13.96v1.708zm0-1.708h9.615v-1.709c0-8.688-1.757-10.982-4.441-10.982-3.27 0-5.223 3.466-5.174 12.69z"/></svg>