<?xml version="1.0" encoding="UTF-8" standalone="no"?>
<!-- Created with Inkscape (http://www.inkscape.org/) -->
<svg id="svg21" xmlns:rdf="http://www.w3.org/1999/02/22-rdf-syntax-ns#" xmlns="http://www.w3.org/2000/svg" height="39.373" viewBox="0 0 300 47.247395" width="250" version="1.1" xmlns:cc="http://creativecommons.org/ns#" xmlns:dc="http://purl.org/dc/elements/1.1/">
 <metadata id="metadata27">
  <rdf:RDF>
   <cc:Work rdf:about="">
    <dc:format>image/svg+xml</dc:format>
    <dc:type rdf:resource="http://purl.org/dc/dcmitype/StillImage"/>
    <dc:title/>
   </cc:Work>
  </rdf:RDF>
 </metadata>
 <g id="g133" stroke-width="0.32" transform="matrix(.23309 0 0 .23309 19.544 -4.7149)">
  <path id="path147" fill="#d7a0a4" d="m46.56 205.57c-6.2815-1.3957-12.643-5.4142-16.861-10.652-4.5804-5.6871-6.6363-13.076-6.2424-22.436 0.32862-7.8095 2.1145-12.531 6.3151-16.695 4.7319-4.6908 9.6753-7.7952 14.708-9.2369 1.9473-0.55779 3.4564-0.70758 8-0.79403 8.4279-0.16036 11.999-1.2961 15.767-5.0144 5.7557-5.6801 7.0561-16.545 4.2005-35.095-0.44326-2.8794-1.2842-6.7674-1.8687-8.64-1.658-5.3115-1.9373-7.4608-1.9191-14.765 0.01379-5.5151 0.12855-7.0793 0.72042-9.8203 3.4617-16.032 14.04-27.923 29.403-33.051 5.0407-1.6827 8.5273-2.2485 13.857-2.2485 5.0349 0 8.5599 0.52906 13.043 1.9576 8.9988 2.8675 16.6 8.4715 22.303 16.442 2.393 3.3447 7.2633 8.7963 11.612 12.998 5.4455 5.261 8.7395 6.942 14.162 7.2271 5.3748 0.28259 9.5694-1.2509 14.178-5.1833 2.8262-2.4115 10.973-11.476 13.519-15.042 6.9806-9.777 17.136-16.132 28.712-17.965 3.9983-0.63326 12.38-0.44629 15.592 0.34781 6.0687 1.5004 11.955 4.0222 16.238 6.9563 3.4029 2.3315 8.2582 7.0931 10.645 10.439 3.6073 5.0582 6.2369 11.187 7.5773 17.661 0.42842 2.0693 0.56522 4.2894 0.57182 9.28 0.01 7.2974-0.27221 9.4535-1.9301 14.765-1.1399 3.6518-2.4403 11.319-3.0525 17.998-0.45737 4.9899-0.20371 12.854 0.52247 16.198 0.81019 3.7304 2.6633 7.3701 4.8522 9.5304 3.7646 3.7154 7.3755 4.8739 15.616 5.0103 5.8424 0.0967 8.1797 0.4867 11.945 1.9931 10.854 4.3424 17.033 14.248 17.009 27.268-0.017 9.0199-2.4227 16.255-7.1058 21.369-3.4388 3.7553-9.1473 7.2966-14.168 8.789-3.0781 0.91502-10.263 1.1782-13.486 0.49394-10.659-2.2629-19.233-10.687-21.939-21.557-0.54109-2.1731-0.70508-3.8032-0.71791-7.1364-0.02-5.2051 0.50247-7.7611 2.7147-13.28 2.3198-5.7873 2.6784-7.3843 2.6946-12 0.0119-3.3896-0.10388-4.3602-0.75898-6.3602-1.4242-4.3482-4.9155-8.6922-9.3326-11.612-7.7756-5.1396-20.141-7.8886-31.414-6.9836-15.893 1.2759-26.926 7.3776-30.531 16.884-1.8825 4.9648-1.2042 12.048 1.6767 17.51 6.543 12.404 4.4138 26.576-5.3925 35.891-3.9625 3.764-7.8766 6.0407-13.194 7.6742-2.7785 0.85364-3.1337 0.88507-10.08 0.89181-6.9853 0.007-7.2859-0.0196-10.08-0.88482-5.3375-1.6528-9.2376-3.9234-13.194-7.6812-9.8062-9.315-11.935-23.486-5.3925-35.891 2.7889-5.2873 3.5183-12.167 1.8148-17.118-2.2595-6.5672-8.3372-11.731-17.367-14.757-14.436-4.8365-33.529-2.9302-44.716 4.4646-4.4171 2.9197-7.9085 7.2637-9.3326 11.612-0.6551 2.0001-0.77091 2.9706-0.75898 6.3602 0.01626 4.6157 0.37486 6.2127 2.6946 12 2.2122 5.5189 2.7347 8.0749 2.7147 13.28-0.02029 5.2697-0.77328 8.6981-2.8502 12.977-3.4631 7.1348-9.3808 12.395-16.735 14.875-2.8826 0.97221-3.4802 1.0592-7.9179 1.1524-3.4875 0.0732-5.4125-0.0353-7.04-0.3969zm136.16-61.72c5.574-1.5299 8.5437-3.3055 12.663-7.5712 3.077-3.1866 4.265-4.8742 5.9259-8.4186 2.2136-4.7238 3.1381-10.328 2.5478-15.446-0.98829-8.5669-5.6721-16.405-12.687-21.232-2.3268-1.6009-6.5338-3.4341-9.6084-4.187-3.9574-0.96904-9.7238-0.96904-13.681 0-4.9937 1.2228-9.5067 3.6556-13.118 7.0714-5.23 4.9471-8.2856 11.073-9.1543 18.354-0.82125 6.883 1.1397 14.447 5.232 20.182 2.1081 2.9542 7.0597 7.5137 9.6647 8.8992 2.1993 1.1698 6.5045 2.581 9.5761 3.1389 2.9276 0.53179 9.2639 0.13489 12.64-0.79176zm539.68 25.745c-2.992-0.15183-8.536-0.49135-12.32-0.7545-4.8767-0.33914-8.6504-0.41065-12.96-0.2456-3.344 0.12807-6.6508 0.13321-7.3484 0.0114-1.47-0.25667-2.4116-1.2415-2.4116-2.5224 0-1.5894 0.87779-2.2433 3.6599-2.7264 1.5316-0.26598 2.7536-0.66643 3.1011-1.0163 0.33165-0.3339 0.80195-1.7242 1.1154-3.2973 0.48374-2.428 0.55594-6.4261 0.67229-37.24 0.0867-22.972 0.0179-35.439-0.20608-37.27-0.4721-3.8595-0.83485-4.1804-5.2927-4.6826-3.9336-0.44316-4.7778-0.95306-4.7778-2.8857 0-1.3559 0.61997-2.0542 2.083-2.3461 2.0394-0.40684 46.548-0.20564 50.525 0.2284 14.631 1.5969 24.664 5.8045 32.491 13.626 7.6042 7.5991 11.618 16.376 12.681 27.732 0.63709 6.8021-0.21261 13.576-2.6086 20.796-4.0188 12.11-12.11 21.622-22.972 27.005-9.4621 4.6891-20.095 6.3659-35.432 5.5876zm17.689-8.5901c5.8089-1.2416 10.611-3.2887 14.951-6.3737 6.0758-4.3185 9.4598-9.5261 11.48-17.667 1.186-4.7789 1.4665-7.1872 1.4722-12.64 0.008-7.5744-1.0813-12.864-3.8441-18.666-2.2289-4.6815-4.1609-7.4416-7.6605-10.944-6.2894-6.2945-13.392-9.8308-23.208-11.555-3.6143-0.63485-5.2724-0.73228-12.64-0.74276-6.3396-0.009-8.6617 0.09175-9.2 0.39921l-0.72 0.41126 0.00025 33.029c0.00029 33.763 0.15514 39.023 1.2128 41.189 1.458 2.9856 8.5748 4.554 19.587 4.3163 3.9799-0.0859 6.4588-0.30442 8.5687-0.7554zm-77.529 8.1465c-0.528-0.23513-2.112-1.4001-3.52-2.5889-4.6212-3.9016-35.235-34.867-50.854-51.439-8.4188-8.932-15.397-16.24-15.506-16.24-0.10964-0.000231-0.15815 1.6918-0.10778 3.76 0.81069 33.283 1.426 53.41 1.6803 54.96 0.43674 2.6626 1.2092 4.2731 2.3269 4.8511 0.51795 0.26784 2.3996 0.63414 4.1815 0.81399 2.9547 0.29823 3.3172 0.40875 4.1197 1.256 1.071 1.1306 1.1093 1.8966 0.15068 3.0111-1.0504 1.2212-2.594 1.3918-9.9617 1.1014-3.5501-0.13994-9.1607-0.14157-12.468-0.004-3.3074 0.13795-6.5416 0.13176-7.1872-0.0138-2.2026-0.4965-3.0367-2.7823-1.5558-4.2633 0.57303-0.57301 1.2551-0.78896 3.051-0.96591 3.9308-0.38733 4.5222-0.76614 5.2766-3.3795 0.2088-0.7233 0.39164-16.042 0.50998-42.728 0.20115-45.365 0.0794-42.674 1.9957-44.092 1.306-0.96626 2.7587-0.53666 4.9516 1.4644 1.0053 0.91732 7.0847 7.2118 13.51 13.988 6.4251 6.776 16.52 17.36 22.433 23.52 5.9129 6.16 14.337 15.016 18.72 19.68 11.149 11.864 12.72 13.481 12.913 13.289 0.24736-0.24737-0.89097-55.816-1.2129-59.209-0.48596-5.1214-0.83914-5.4638-6.2382-6.0465-4.271-0.46094-5.0947-0.93157-5.0947-2.911 0-1.3531 0.61667-2.0504 2.083-2.3551 1.9528-0.40588 27.273-0.18314 28.077 0.24698 1.0242 0.54814 1.4485 1.8418 0.97725 2.9796-0.4784 1.155-1.5568 1.7017-3.8699 1.9621-2.6715 0.30073-3.4192 0.6799-4.0264 2.0419-0.48944 1.0977-0.55139 4.8548-0.7137 43.282-0.0978 23.144-0.30349 42.368-0.45718 42.72-0.77219 1.7683-2.1676 2.2046-4.1822 1.3074zm-291.03-0.52204c-1.2533-0.28691-2.565-1.6103-2.565-2.5879 0-0.35573 0.4008-1.0476 0.89068-1.5375 0.73079-0.7308 1.288-0.93323 3.1043-1.1277 2.8955-0.31008 3.5593-0.59007 4.3047-1.8157 0.84567-1.3906 0.97443-2.3034 3.718-26.357 6.0326-52.888 6.8514-59.729 7.2442-60.53 0.22999-0.46895 0.80122-1.136 1.2694-1.4824 1.0232-0.757 2.6254-0.57154 3.9304 0.45495 0.58643 0.46129 6.3943 11.758 18.901 36.766 9.93 19.855 18.175 36.174 18.322 36.265 0.14679 0.0907 8.0358-15.97 17.531-35.691 18.73-38.9 18.569-38.604 20.816-38.239 1.5783 0.25612 2.2763 0.96802 2.8486 2.9056 0.26506 0.89722 2.2844 17.543 4.4875 36.991s4.229 37.132 4.5022 39.297c0.78009 6.1836 2.006 8.9614 4.4711 10.131 1.374 0.65203 5.415 1.4244 7.5361 1.4405 3.0122 0.0228 4.2828 2.5321 2.1786 4.3027-1.1212 0.94341-0.87536 0.92061-9.0954 0.84384-7.7745-0.0726-16.103-0.52929-17.753-0.9734-2.506-0.67478-3.2837-2.6216-1.7672-4.4239l0.80019-0.951-2.7202-27.905c-1.4961-15.348-2.7202-28.179-2.7202-28.514 0-0.33473-0.11091-0.60861-0.24647-0.60861-0.13558 0-6.8517 13.606-14.925 30.235-8.9796 18.496-15.092 30.719-15.745 31.481-1.8543 2.1663-4.0594 1.8958-5.8581-0.71857-2.662-3.869-16.538-30.993-27.031-52.837-2.8801-5.9959-3.7143-7.3623-3.7143-6.0836 0 0.29135-0.936 11.132-2.08 24.089-1.144 12.958-2.08 25.112-2.08 27.01 0 3.2744 0.0385 3.4752 0.75686 3.9458 0.41629 0.27276 2.0107 0.66369 3.5432 0.86873 2.4498 0.32778 2.8802 0.48431 3.5631 1.296 0.96605 1.1481 0.98016 1.8827 0.0568 2.953-1.0494 1.2164-2.3242 1.3723-8.8932 1.0875-5.281-0.22895-9.2686-0.18504-14.707 0.16194-0.968 0.0618-2.2617-0.003-2.875-0.14295zm133.29 0.0214c-1.3453-0.26222-2.4198-1.2826-2.4198-2.2981 0-0.92752 0.87555-2.4415 1.5165-2.6222 0.30996-0.0874 1.6096-0.32697 2.8882-0.53237 2.7095-0.4353 2.789-0.52829 3.5201-4.1167 0.42583-2.0899 0.51479-7.4037 0.6241-37.278 0.0781-21.346 0.007-35.834-0.1825-37.405-0.44288-3.6632-0.89001-4.0481-5.2765-4.5423-1.8605-0.20961-3.6069-0.5779-3.9021-0.82292-1.3305-1.1042-1.1478-3.3577 0.33667-4.1522 0.61245-0.32777 5.9307-0.42076 25.505-0.44595 22.241-0.02861 24.903-0.0861 26.442-0.5709 3.2306-1.018 4.3179 0.38901 3.455 4.4711-0.28695 1.3575-0.67722 4.4782-0.8673 6.9348-0.19005 2.4567-0.53891 4.9295-0.77526 5.4951-0.58867 1.4089-1.7929 2.1528-3.041 1.8787-1.3615-0.29902-1.9003-1.2879-2.2109-4.0577-0.14653-1.3065-0.46151-2.6879-0.69997-3.0698-1.0206-1.6343-5.0176-2.2852-15.571-2.5357l-8.4-0.19942v31.834l10.96-0.13107c6.9065-0.0826 11.354-0.26389 12.024-0.4902 0.58528-0.19752 1.6297-0.87007 2.3209-1.4945 1.8978-1.7145 3.8365-1.4872 4.5521 0.53385 0.10698 0.30209-0.009 1.7421-0.25676 3.2-0.51792 3.0426-1.1175 9.2589-1.1198 11.611-0.003 2.9358-1.5478 4.7239-3.6299 4.2013-1.06-0.26603-1.8053-1.6785-1.8288-3.4654-0.0266-2.0352-0.64585-3.5058-1.742-4.1377-1.3793-0.7952-5.026-1.1738-13.68-1.4201l-7.6-0.21636v15.703c0 10.118 0.12397 16.281 0.34851 17.329 0.46826 2.1833 1.5512 3.3961 3.5955 4.0267 2.2404 0.69106 11.757 0.98194 16.199 0.49512 6.27-0.6872 8.2289-2.3208 9.2917-7.7491 0.56899-2.9062 2.3983-4.2117 4.1129-2.9353 1.335 0.99382 1.5052 1.9263 1.0686 5.8533-0.90727 8.1592-1.8118 11.261-3.6797 12.619-0.872 0.63389-1.2931 0.65572-12.16 0.63021-6.1912-0.0145-16.945-0.0786-23.897-0.14226-6.952-0.0637-13.072-0.031-13.6 0.0726-0.528 0.10366-1.5271 0.0779-2.2202-0.0571zm293.91-0.014c-1.3593-0.31959-2.2477-1.3484-2.2477-2.6028 0-1.5254 1.0964-2.3081 3.8838-2.7725 1.496-0.24921 2.6396-0.62345 2.9486-0.96492 0.27767-0.3068 0.7608-1.9921 1.0737-3.7452 0.52256-2.928 0.56905-6.0907 0.57139-38.867 0.003-27.572-0.088-35.978-0.3961-36.989-0.63302-2.0789-1.2332-2.4147-5.0934-2.8496-3.0807-0.34707-3.4918-0.47061-4.1631-1.251-0.40966-0.47626-0.74483-1.2244-0.74483-1.6626 0-1.0565 1.3449-2.3614 2.4654-2.3921 0.492-0.01347 11.767-0.04947 25.055-0.08 21.731-0.04992 24.316-0.10968 25.714-0.59452 3.1113-1.0789 4.3587 0.43296 3.548 4.3005-0.2352 1.1221-0.58055 3.9028-0.76739 6.1794-0.4576 5.5747-0.60554 6.3901-1.3254 7.3052-0.74249 0.94391-2.2358 1.3337-3.1779 0.82954-0.8952-0.47909-1.5916-2.1871-1.5922-3.9053 0-1.7585-0.87081-3.4914-2.0296-4.0418-1.8517-0.87949-5.9622-1.3236-14.21-1.5351l-8.4-0.21548v31.84l10.96-0.13787c6.8037-0.0856 11.364-0.27261 12.024-0.49319 0.58528-0.19542 1.6297-0.86625 2.3209-1.4907 1.5893-1.4358 3.1962-1.5688 4.0068-0.33158 0.56864 0.86784 0.57939 0.58915-0.32762 8.4762-0.27324 2.376-0.49929 5.112-0.50233 6.08-0.0109 3.4749-1.0572 5.44-2.8966 5.44-1.5221 0-2.54-1.2299-2.57-3.1055-0.083-5.1814-1.2375-5.6332-15.415-6.0322l-7.6-0.21391 0.003 16.116c0 10.606 0.12076 16.553 0.34979 17.396 0.47584 1.75 1.7145 2.9602 3.6355 3.5518 3.3734 1.039 16.122 0.91706 20.051-0.19177 2.8859-0.81453 4.3745-2.7056 5.2589-6.6805 0.79812-3.5874 2.4303-4.7817 4.4084-3.2257 1.2368 0.97289 1.325 2.304 0.53472 8.0687-1.1522 8.4045-2.0866 10.44-5.0489 10.995-0.65466 0.12282-7.7424 0.0925-15.751-0.0673-14.553-0.29044-29.285-0.30128-32-0.0236-0.792 0.081-1.9406 0.0296-2.5523-0.11425zm74.392 0.11348c-2.0654-0.44941-3.0881-1.9651-2.4177-3.5835 0.4465-1.0779 1.2444-1.5211 3.2177-1.7873 3.5556-0.47964 3.7241-0.66997 4.5472-5.1355 0.62189-3.3742 0.60118-74.347-0.0221-76.111-0.54864-1.5524-1.5416-1.9947-5.1654-2.301-3.194-0.26998-3.7517-0.50563-4.3037-1.8186-0.5058-1.2029-0.34589-1.8981 0.65225-2.8358l0.76775-0.72126 15.669 0.0082c13.85 0.0072 15.76 0.0679 16.454 0.52296 1.0511 0.68874 1.378 2.238 0.69283 3.2838-0.67949 1.037-1.7056 1.4085-3.9524 1.4308-2.7477 0.0273-3.9444 0.55237-4.6992 2.0619-0.62781 1.2556-0.64 1.92-0.64 34.88 0 34.78 0.0858 37.402 1.3255 40.5 0.94864 2.371 3.8179 3.0976 13.394 3.3923 9.9454 0.30602 14.251-0.56804 16.349-3.3192 0.92851-1.2174 2.371-4.7843 2.371-5.863 0-0.34122 0.40947-1.0787 0.90991-1.6388 1.1182-1.2515 2.607-1.3786 3.6679-0.31307 0.63062 0.63341 0.6967 1.0058 0.64819 3.6533-0.0576 3.1423-1.0712 9.6446-1.8914 12.133-0.66012 2.0028-2.2042 3.3417-4.201 3.6431-0.84342 0.12727-8.8055 0.10101-17.694-0.0584-16.069-0.28814-30.849-0.30008-33.6-0.0271-0.792 0.0786-1.728 0.0802-2.08 0.004zm71.587-0.10137c-1.5833-0.37499-2.3069-1.1878-2.3069-2.5913 0-1.6583 0.95849-2.3423 3.9611-2.8267 1.3161-0.21232 2.5514-0.57695 2.745-0.81028 1.5928-1.9192 2.0205-13.324 1.849-49.297-0.1535-32.184-0.1112-31.548-2.1647-32.553-0.63773-0.31204-2.3464-0.64625-3.9239-0.7675-2.407-0.18502-2.9068-0.3273-3.6062-1.0267-1.0915-1.0915-0.98135-2.7611 0.24224-3.6708 0.84496-0.62816 1.3714-0.64189 25.76-0.67204 22.641-0.02797 25.036-0.08041 26.428-0.57848 3.0613-1.0953 4.5059 0.82404 3.4248 4.5503-0.1784 0.61484-0.53942 3.5454-0.80227 6.5123-0.51923 5.8607-0.86794 6.9337-2.4688 7.5968-1.9093 0.79085-3.2563-0.62732-3.5568-3.7447-0.2783-2.8872-0.64237-3.5927-2.2065-4.2762-2.2472-0.9819-5.9605-1.3414-14.434-1.3973l-8.0468-0.05307v31.346h10.4c5.72 0 11.072-0.11497 11.893-0.25549 1.0582-0.18115 1.9106-0.62343 2.9291-1.52 1.5656-1.3781 2.9807-1.6564 3.875-0.76213 0.82618 0.82619 0.90445 1.8477 0.38227 4.9899-0.27308 1.6433-0.64777 5.0758-0.83263 7.6278-0.18487 2.552-0.41658 5-0.51495 5.44-0.28125 1.2584-1.3906 2.24-2.5314 2.24-1.4959 0-2.2776-1.0481-2.5058-3.36-0.10426-1.056-0.34912-2.3764-0.54416-2.9341-0.73031-2.0886-3.4671-2.5914-14.87-2.7315l-7.68-0.0944v16.32c0 16.164 0.007 16.335 0.70752 17.852 0.57258 1.2402 0.98256 1.6541 2.1495 2.1703 2.2205 0.98225 6.3847 1.3578 12.823 1.1566 10.142-0.317 12.205-1.4212 13.562-7.2563 0.48003-2.0642 0.83379-2.8906 1.4725-3.44 1.5671-1.348 3.4979-0.60842 3.9602 1.5169 0.2611 1.1999-0.28549 6.8615-1.0616 10.997-0.69965 3.728-1.5436 5.2572-3.3402 6.0519-1.4436 0.63853-1.7572 0.64546-16.353 0.36103-14.998-0.29229-29.66-0.30414-32.321-0.0261-0.792 0.0828-1.9139 0.0382-2.4931-0.099zm91.773 0.0854c-1.9945-0.29133-3.172-1.8405-2.5809-3.3954 0.4449-1.1701 1.2673-1.6327 3.6029-2.0265 1.2121-0.20441 2.5509-0.59905 2.9751-0.87697 1.4177-0.92897 1.531-2.0556 1.6759-16.671 0.1529-15.427 0.028-16.752-1.9347-20.606-1.0308-2.0234-12.047-19.774-19.759-31.838-3.8694-6.053-7.8307-10.719-10.357-12.2-0.7211-0.4226-2.1837-0.97192-3.2501-1.2207-2.5402-0.59259-3.1994-0.97378-3.582-2.0712-0.4102-1.1767 0.2352-2.795 1.2422-3.1147 0.4011-0.12729 6.4453-0.2404 13.432-0.25135 11.445-0.01795 12.785 0.03402 13.534 0.52494 1.7878 1.1714 1.2945 3.1662-1.083 4.3791-1.4383 0.73377-1.5339 1.1661-0.6714 3.0376 0.4836 1.0492 21.278 35.891 21.652 36.278 0.063 0.065 0.4866-0.51101 0.9419-1.28 6.2471-10.551 18.275-31.081 18.718-31.949 0.8208-1.609 1.3636-3.8103 1.1496-4.6627-0.1137-0.45302-0.7142-0.98518-1.5901-1.4092-2.2618-1.0949-2.7276-3.2311-0.9574-4.391 0.6914-0.45298 2.2759-0.51665 12.79-0.5139l12.001 0.0032 0.7858 0.73821c0.99 0.93007 1.0161 2.249 0.066 3.3299-0.573 0.65174-1.2612 0.91182-3.3708 1.2738-1.5657 0.26864-3.2188 0.78764-4.0381 1.2678-1.8234 1.0686-5.5042 5.0387-8.026 8.657-4.1196 5.9106-14.553 22.534-19.206 30.602-3.8328 6.6446-3.6804 5.785-3.6678 20.687 0.011 13.009 0.2829 18.5 0.9933 20.059 0.5906 1.2962 1.7092 1.7191 5.6893 2.1508 3.3406 0.36232 3.6331 0.45074 4.3636 1.3189 0.4307 0.5118 0.783 1.1995 0.783 1.5281 0 0.94143-1.3313 2.2424-2.5821 2.5233-0.6282 0.14108-4.6602 0.14773-8.96 0.0148-6.9861-0.21601-11.221-0.18638-17.898 0.12523-1.144 0.0534-2.44 0.0445-2.88-0.0198z"/>
  <path id="path145" fill="#c97b81" d="m46.88 205.3c-6.4289-1.4985-11.126-4.2964-15.993-9.5259-5.1309-5.5137-7.5358-13.338-7.1089-23.129 0.2037-4.6719 0.96892-8.2791 2.4486-11.542 1.7222-3.7982 8.0855-9.5988 13.537-12.34 4.0475-2.0351 6.5562-2.5572 12.877-2.6801 9.1401-0.17773 13.645-1.918 17.234-6.6569 2.8259-3.7321 4.01-8.0189 4.2722-15.467 0.28372-8.0601-1.1557-20.354-3.1058-26.526-1.7127-5.4206-2.0625-8.0132-2.0491-15.188 0.01024-5.5113 0.12418-7.0812 0.71276-9.8203 1.8941-8.8146 5.8105-16.123 11.886-22.181 8.2666-8.2419 19.322-12.799 31.05-12.799 14.129 0 26.848 6.6569 35.191 18.418 2.505 3.5314 10.253 12.061 13.334 14.68 2.7366 2.3259 5.0927 3.7823 7.6571 4.733 2.5881 0.95949 8.9943 1.0337 11.658 0.13506 2.7335-0.9221 5.7519-2.8405 8.4849-5.3926 3.6375-3.3969 10.293-10.85 12.641-14.155 5.5206-7.7717 13.075-13.424 21.8-16.309 4.4357-1.4672 8.5109-2.1088 13.394-2.1088 14.649 0 28.214 7.1252 36.21 19.021 3.4234 5.0927 5.4018 9.7876 6.7249 15.959 0.58455 2.7266 0.70207 4.334 0.71795 9.8203 0.0207 7.1419-0.28937 9.4604-2.0199 15.105-0.87204 2.8444-1.7396 7.439-2.6462 14.015-0.24389 1.7689-0.41812 6.0506-0.41669 10.24 0.002 6.3977 0.0825 7.5168 0.72049 10.043 0.99432 3.9372 2.3443 6.5886 4.5615 8.9587 3.7352 3.9929 7.697 5.3248 16.308 5.4824 4.4164 0.0808 6.1411 0.24446 8.16 0.7742 5.0832 1.3338 9.5567 3.9577 12.963 7.6039 5.2056 5.5714 7.6021 12.835 7.264 22.018-0.3314 9.0014-2.445 14.759-7.2675 19.796-4.2146 4.4025-7.671 6.6069-13.12 8.3675-3.9612 1.2799-10.224 1.4946-14.536 0.49827-13.369-3.0892-22.618-15.707-21.831-29.782 0.22516-4.0267 0.9357-6.947 2.8967-11.905 2.2282-5.6337 2.5703-7.1945 2.5812-11.775 0.008-3.2628-0.1213-4.4129-0.70023-6.24-3.3528-10.582-15.485-17.694-32.49-19.047-14.834-1.1798-29.473 3.4564-36.173 11.456-3.2291 3.8554-4.5562 7.9276-4.2971 13.186 0.21073 4.2774 0.78181 6.3491 2.9592 10.735 2.4479 4.9309 3.4048 8.7801 3.418 13.749 0.013 4.912-0.792 8.4246-2.9438 12.844-3.8987 8.0077-10.977 13.818-19.683 16.157-3.8757 1.0413-12.904 1.2176-17.185 0.33569-9.4795-1.953-17.199-7.9083-21.378-16.493-2.1518-4.4196-2.9568-7.9321-2.9438-12.844 0.0132-4.9718 0.97014-8.8193 3.4195-13.749 2.4055-4.8413 2.8844-6.7812 2.886-11.691 0.001-3.3514-0.11861-4.3472-0.7384-6.141-3.3762-9.7714-14.8-16.266-30.86-17.545-14.346-1.1425-28.608 3.074-36.137 10.683-6.3132 6.381-7.6858 14.912-3.9487 24.542 3.3077 8.5234 4.0813 12.641 3.445 18.335-1.1506 10.297-6.7767 18.57-15.599 22.939-1.76 0.87156-4.064 1.8203-5.12 2.1083-2.6409 0.7202-10.532 0.89654-13.12 0.29321zm135.52-60.978c10.061-2.5508 18.249-10.868 21.02-21.351 1.121-4.2405 1.1821-10.079 0.14954-14.286-2.1462-8.7458-7.7195-15.69-15.89-19.799-8.0167-4.0315-17.903-4.0315-25.92 0-8.1699 4.1085-13.742 11.051-15.89 19.799-1.026 4.1772-0.96205 10.024 0.15641 14.286 2.7512 10.486 11.046 18.895 21.014 21.304 3.876 0.93689 4.2018 0.96881 8.64 0.84646 2.7234-0.0751 4.8681-0.33036 6.72-0.7999zm540.48 24.93c-2.904-0.13816-8.6586-0.4911-12.788-0.7843s-8.1614-0.44826-8.96-0.34458c-0.79856 0.10367-3.7281 0.20138-6.51 0.21713-4.1199 0.0233-5.2022-0.0658-5.8349-0.48036-1.1068-0.72523-1.3377-1.9592-0.56108-2.9994 0.52633-0.705 1.043-0.90679 3.1601-1.2341 2.9432-0.45507 3.4198-0.8627 3.9614-3.388 0.85891-4.0049 1.0036-10.942 0.90947-43.599-0.0892-30.921-0.14061-33.697-0.64534-34.812-0.68947-1.5229-1.8728-2.0458-5.2376-2.3141-2.9932-0.23872-3.8043-0.57227-4.2996-1.7681-0.43072-1.0399-0.0524-2.0014 1.0117-2.5709 0.47786-0.25574 7.4624-0.36638 24.233-0.38388 20.542-0.02144 24.135 0.04666 28.041 0.53132 16.87 2.0933 27.286 7.456 35.465 18.259 9.8431 13 11.173 33.067 3.2663 49.298-3.1473 6.4612-8.0879 12.523-13.588 16.671-5.393 4.0675-14.037 7.6481-21.464 8.891-3.3602 0.56233-10.787 1.1827-13.28 1.1093-0.88-0.0259-3.976-0.16016-6.88-0.29833zm13.589-7.3469c7.9558-0.91138 15.103-3.8704 20.896-8.6511 5.4364-4.4864 8.7706-10.968 10.332-20.087 0.7848-4.582 0.84832-12.733 0.13159-16.886-1.4416-8.3532-4.8899-15.315-10.459-21.116-9.3225-9.7106-20.711-13.571-38.865-13.175-3.7823 0.08248-6.707 0.28904-7.24 0.51131l-0.89421 0.37292 0.12077 35.763c0.0875 25.896 0.22448 36.2 0.4967 37.348 0.63088 2.6602 2.6521 4.1542 6.9773 5.1573 4.2747 0.99138 13.273 1.3628 18.503 0.76371zm-73.961 6.8601c-1.9717-0.97245-7.7922-6.4379-21.388-20.083-11.653-11.696-29.948-30.754-44.659-46.523-2.0114-2.156-3.8334-3.92-4.0489-3.92-0.28835 0-0.35238 0.65524-0.24233 2.48 0.0823 1.364 0.37011 12.776 0.63968 25.36 0.53017 24.751 0.8351 31.276 1.5787 33.78 0.81194 2.7341 2.0539 3.4145 7.0366 3.8552 2.0433 0.18073 2.6894 0.36992 3.28 0.96053 1.4505 1.4505 0.5273 3.2634-1.8453 3.6234-0.78061 0.11842-4.333 0.11202-7.8942-0.0142-3.5612-0.12625-9.1052-0.12408-12.32 0.005-7.9408 0.3184-9.205 0.0142-9.205-2.2148 0-1.3798 1.1454-2.1243 3.6419-2.367 2.348-0.22826 3.9582-0.75923 4.5813-1.5107 1.131-1.3639 1.1689-2.6225 1.3544-44.917 0.1807-41.215 0.18848-41.61 0.83929-42.718 0.36132-0.61503 1.0543-1.258 1.5401-1.4288 1.7873-0.62856 3.1521 0.55578 14.717 12.77 6.0076 6.3452 15.67 16.49 21.471 22.544 15.307 15.973 18.563 19.399 27.478 28.912 4.4119 4.708 8.1376 8.56 8.2794 8.56 0.14179 0 0.26086-1.476 0.26461-3.28 0.017-8.1751-1.0007-53.845-1.2617-56.621-0.49011-5.2114-1.1575-5.9066-6.1322-6.3875-4.3207-0.41772-4.9042-0.6988-5.0305-2.4233-0.0836-1.1422 0.023-1.41 0.75222-1.8877 0.77549-0.50812 2.0545-0.55492 14.642-0.53571l13.793 0.02106 0.74682 0.86822c1.5114 1.7571 0.0198 3.4794-3.2802 3.7876-2.5453 0.23768-3.5377 0.79808-4.255 2.4029-0.47555 1.0639-0.54119 5.158-0.69325 43.255-0.17488 43.804-0.15123 43.071-1.4159 43.915-0.5744 0.38354-1.8819 0.26493-2.9643-0.26891zm-273.07-0.45997c-2.552-0.11943-7.7561-0.14271-11.565-0.0517l-6.9246 0.16541-0.83542-0.8354c-1.7973-1.7973-0.57127-3.5192 2.7477-3.8593 3.6881-0.37785 4.4657-0.87 5.3222-3.3682 0.20423-0.59565 1.6015-11.828 3.1051-24.96s3.6631-31.982 4.799-41.888c1.3628-11.885 2.2306-18.33 2.5512-18.951 0.26726-0.51683 0.78758-1.1011 1.1563-1.2985 0.96611-0.51704 2.6337-0.10189 3.6456 0.90758 0.50656 0.50535 8.4678 16.058 18.928 36.975 10.932 21.861 18.203 36.053 18.432 35.977 0.20822-0.0694 8.303-16.522 17.988-36.562 18.501-38.28 18.132-37.59 20.114-37.596 0.8855-0.0026 2.3634 1.6612 2.7251 3.0678 0.17687 0.68781 2.286 18.531 4.6869 39.651s4.5705 39.303 4.8213 40.407c0.59033 2.598 1.4315 4.2142 2.8345 5.446 1.3979 1.2273 2.6648 1.6099 6.7476 2.0376 1.76 0.18435 3.52 0.45952 3.9112 0.61149 1.5277 0.59354 1.2108 3.2052-0.46723 3.8512-1.7593 0.67733-23.056 0.12051-26.031-0.6806-1.9232-0.51785-2.9058-2.5388-1.715-3.5271 0.2736-0.22708 0.63619-0.67207 0.80573-0.98888 0.21117-0.39453-0.55146-9.4769-2.4205-28.826-1.5008-15.538-2.8074-28.595-2.9035-29.017-0.1048-0.45968-0.29107-0.64991-0.46557-0.47543-0.15996 0.15998-6.8586 13.814-14.886 30.343-8.0273 16.529-15.011 30.657-15.52 31.397-1.0205 1.4832-1.4645 1.7418-2.9909 1.7418-1.9773 0-2.9116-1.4736-12.339-19.463-3.6855-7.0326-16.748-33.557-19.85-40.307-1.0337-2.2492-1.6796-2.7686-1.8476-1.4855-0.0443 0.33821-1.0162 11.278-2.16 24.31-2.1702 24.729-2.4593 30.44-1.5851 31.314 0.59644 0.59644 2.2072 1.053 4.772 1.3524 2.0802 0.2429 3.3736 1.1473 3.3736 2.3589 0 0.9922-1.4034 2.24-2.5193 2.24-0.5216 0-1.1401 0.0457-1.3745 0.10168-0.2344 0.0559-2.5142 0.004-5.0662-0.11546zm115.66-0.0256c-1.2889-0.21124-2.3763-1.2263-2.3763-2.2182 0-1.2666 1.3173-2.1315 3.84-2.521 1.32-0.20383 2.5977-0.56685 2.8393-0.8067 0.70384-0.69874 1.3092-3.5533 1.6657-7.8547 0.21018-2.5358 0.29559-16.416 0.23331-37.92-0.0904-31.221-0.14188-34.016-0.64672-35.132-0.70124-1.5489-1.9384-2.0776-5.5029-2.3516-3.1893-0.24515-4.0286-0.77058-4.0286-2.5219 0-0.82987 0.2031-1.2332 0.82672-1.6418 0.76009-0.49804 2.726-0.53651 24.4-0.47747 17.058 0.04646 24.104-0.04022 25.493-0.3136 1.056-0.20779 2.5649-0.39225 3.353-0.40991 1.2784-0.02864 1.4812 0.06775 1.8793 0.89353 0.38627 0.80106 0.37731 1.2398-0.0665 3.2597-0.28208 1.2837-0.67046 4.3952-0.86304 6.9144-0.39395 5.153-0.87401 6.6081-2.3359 7.0806-0.72298 0.23367-1.0896 0.16397-1.76-0.33462-0.71882-0.53457-0.90272-1.0186-1.2164-3.2019-0.54864-3.8185-0.87229-4.221-4.0957-5.093-2.2057-0.59672-10.86-1.1255-16.495-1.0077l-4.64 0.09693v32.012h11.04c12.222 0 12.99-0.1077 14.885-2.0857 0.65056-0.67903 1.2169-0.95432 1.9632-0.95432 1.8681 0 1.9872 0.82738 1.1052 7.68-0.19254 1.496-0.47901 4.5658-0.63658 6.8218-0.25216 3.6099-0.37417 4.1951-1.0176 4.88-0.42045 0.44755-1.0943 0.77824-1.5857 0.77824-1.3409 0-1.9541-0.97169-2.2365-3.5442-0.27059-2.465-0.91721-3.6922-2.3042-4.3732-1.4117-0.69315-5.303-1.0164-13.373-1.1108l-7.84-0.0918v16.8c0 16.735 0.003 16.805 0.70931 18.126 1.4432 2.6986 5.1875 3.5048 14.971 3.2232 10.433-0.30026 12.783-1.5551 14.114-7.5358 0.76576-3.442 2.1258-4.6347 3.8821-3.4045 1.0451 0.73199 1.1766 2.2933 0.58781 6.9797-1.0182 8.1052-1.663 10.046-3.6988 11.135-1.0067 0.53827-1.9394 0.59655-9.6 0.59984-4.6668 0.002-12.949-0.15695-18.405-0.35321-6.2426-0.22456-12.131-0.25557-15.883-0.0836-3.2799 0.15026-6.511 0.18347-7.1802 0.0738zm294.26 0.0956c-1.3928-0.12915-2.56-1.176-2.56-2.2962 0-1.3514 1.1442-2.1026 3.84-2.5212 1.6371-0.25417 2.5634-0.56716 2.9142-0.98464 0.68278-0.81266 1.1838-3.4911 1.5612-8.3462 0.40125-5.1616 0.41661-66.185 0.0176-69.656-0.48019-4.176-1.1356-4.7288-6.0543-5.1069-2.2536-0.17322-2.861-0.33853-3.4656-0.94314-0.9327-0.93271-0.92867-1.7791 0.0138-2.8747l0.74682-0.86822 23.813 0.05788c15.466 0.03759 24.43-0.05932 25.573-0.27646 3.5403-0.67255 4.4636-0.73267 4.9574-0.32281 0.60733 0.50402 0.61001 1.8739 0.0118 5.9221-0.26013 1.76-0.60599 4.712-0.76858 6.56-0.34121 3.8785-0.72621 4.9287-2.0002 5.4564-1.7258 0.71486-3.1604-0.8969-3.1604-3.5508 0-1.7784-0.87863-3.7671-1.8969-4.2937-1.9274-0.99671-6.2064-1.4809-14.823-1.6774l-8.56-0.19515v32.487l11.28-0.12491c12.262-0.13578 12.291-0.13986 14.377-2.0245 1.385-1.2512 2.7347-1.4482 3.5734-0.52142 0.64829 0.71635 0.65555 1.3229 0.064 5.3584-0.2561 1.747-0.60599 5.2525-0.77757 7.79-0.38691 5.722-1.0154 6.8927-3.3816 6.2988-0.87027-0.21842-1.3601-1.3511-1.5374-3.5554-0.37357-4.6418-1.9605-5.1856-15.598-5.3452l-7.84-0.0918v16.96c0 16.423 0.0205 16.995 0.64538 18.08 1.3404 2.3262 4.7394 3.1847 12.635 3.191 6.4549 0.005 9.984-0.43574 12.146-1.5174 2.4221-1.2118 3.3738-2.5476 4.247-5.9613 0.56928-2.2256 0.91254-2.9819 1.5793-3.4796 1.2295-0.91797 2.4118-0.54002 3.0441 0.97308 0.44806 1.0724 0.4439 1.5874-0.0445 5.5086-1.0658 8.5565-1.8286 10.775-4.0043 11.645-1.6225 0.64919-12.256 0.71441-27.688 0.16984-6.4925-0.22911-12.348-0.26037-16-0.0854-3.168 0.15178-6.264 0.22922-6.88 0.17211zm73.739-0.0956c-1.3071-0.2138-2.3787-1.2277-2.3787-2.2506 0-1.1524 1.3396-2.0837 3.3604-2.3362 2.549-0.31847 3.248-0.62976 3.7966-1.6907 1.243-2.4037 1.323-4.9907 1.323-42.803 0-34.647-0.0291-36.534-0.58125-37.545-0.75027-1.3749-2.0628-1.9029-5.3835-2.1654-3.1427-0.24846-4.1152-0.85764-4.1152-2.5778 0-0.78166 0.21399-1.197 0.82183-1.5953 0.74256-0.48655 2.3168-0.53678 16.327-0.52097 16.3 0.0184 16.039-0.0041 16.816 1.4474 0.49968 0.93364-0.22352 2.3656-1.4022 2.7765-0.53764 0.18742-1.64 0.34157-2.4498 0.34255-2.0296 0.0026-3.6297 0.49874-4.461 1.3837-1.2982 1.3818-1.3884 4.1802-1.2425 38.533 0.14106 33.202 0.23402 35.645 1.4517 38.153 1.1548 2.3785 4.2214 3.1566 13.499 3.4251 13.752 0.39807 17.124-1.117 19.042-8.5554 0.66691-2.5856 1.1831-3.1808 2.7589-3.1808 1.0548 0 1.2962 0.14245 1.7622 1.04 0.48586 0.93571 0.50067 1.409 0.14787 4.72-0.51888 4.8697-1.5076 9.7028-2.3046 11.265-0.45177 0.88554-1.0452 1.445-1.9856 1.872-1.2159 0.55205-2.193 0.6099-10.461 0.61935-5.016 0.006-14.304-0.14701-20.64-0.33943-6.9411-0.2108-13.699-0.24395-17.001-0.0834-3.0146 0.14655-6.0297 0.17672-6.7002 0.067zm71.756 0.0125c-1.5616-0.25579-2.1346-0.8174-2.1346-2.0923 0-1.5018 0.8446-2.2225 2.9125-2.4853 4.0269-0.51183 4.2316-0.76108 5.0143-6.1051 0.44989-3.0718 0.51942-7.9782 0.53514-37.77 0.01-18.832-0.10167-35.079-0.248-36.104-0.18919-1.3256-0.51725-2.1453-1.1358-2.8375-0.7911-0.88538-1.1287-1.0009-3.734-1.278-1.5753-0.1675-3.2198-0.40453-3.6543-0.52673-1.7162-0.48262-2.0956-3.12-0.56656-3.9383 0.541-0.28953 6.498-0.36453 24.396-0.30718 20.475 0.06561 24.005 0.008 26.08-0.42591 1.32-0.27599 2.7017-0.50191 3.0704-0.50205 1.5212-0.00064 2.1366 1.963 1.4048 4.4818-0.17862 0.61484-0.54794 3.5659-0.82067 6.5579-0.51763 5.6784-0.80096 6.6142-2.1952 7.2494-0.55597 0.25332-0.97798 0.22916-1.6516-0.09457-0.98647-0.4741-1.2589-1.2011-1.5809-4.2189-0.26554-2.4882-1.2268-3.5494-3.8268-4.2243-2.5617-0.66494-10.362-1.1594-16.48-1.0446l-4.96 0.09302v32h10.56c5.808 0 11.246-0.11709 12.084-0.26018 1.0826-0.18485 1.9453-0.62495 2.9795-1.52 1.776-1.5371 3.0484-1.6772 3.8683-0.42587 0.51344 0.78359 0.51427 1.0299 0.0134 4.08-0.29309 1.7853-0.68496 5.334-0.87078 7.8861-0.18583 2.552-0.40826 4.9676-0.49428 5.3681-0.21763 1.0134-1.2781 1.9919-2.1589 1.9919-1.3882 0-1.9066-0.71946-2.1851-3.0325-0.63632-5.2855-1.2416-5.5468-13.924-6.0109-4.9544-0.18126-9.2478-0.23758-9.5409-0.12514-0.48957 0.18786-0.52352 1.5358-0.41837 16.606 0.11882 17.027 0.17197 17.712 1.4926 19.236 1.6768 1.9353 5.8857 2.6117 14.595 2.3453 10.222-0.31268 12.413-1.4672 13.873-7.3098 0.77526-3.1024 1.1205-3.6932 2.3109-3.9547 0.78262-0.17189 1.1581-0.0605 1.8006 0.53399 0.79643 0.73688 0.80833 0.81512 0.62537 4.1112-0.2383 4.2952-1.2511 10.185-2.016 11.724-1.1772 2.369-1.6143 2.5013-8.696 2.6321-3.4637 0.064-12.274-0.0512-19.578-0.25589-7.8227-0.21924-15.401-0.26703-18.442-0.1163-2.8392 0.14074-5.6756 0.17178-6.3032 0.069zm91.562 0.0262c-1.6561-0.29823-2.1768-0.83386-2.1768-2.2393 0-1.5815 0.4893-1.9305 3.422-2.4404 2.8092-0.48852 3.7388-1.1605 4.3416-3.1387 0.2909-0.95453 0.3964-5.2622 0.3964-16.181 0-14.713-0.01-14.902-0.7292-16.797-0.8884-2.3354-1.6898-3.7013-9.6701-16.483-14.456-23.154-16.299-25.827-19.834-28.769-1.8633-1.5507-4.7679-2.9111-6.2156-2.9111-0.4096 0-1.1242-0.29845-1.5879-0.66322-1.0393-0.81752-1.1532-2.477-0.2275-3.3147 0.5625-0.5091 1.7147-0.55902 13.36-0.57884 7.0093-0.01194 13.077 0.08479 13.483 0.21494 0.4061 0.13014 0.8706 0.5843 1.0321 1.0092 0.4664 1.2268-0.1425 2.2896-1.7626 3.0768-1.7653 0.85762-1.8379 1.4355-0.5062 4.025 1.6832 3.2729 21.288 35.694 21.659 35.818 0.198 0.066 1.3407-1.5781 2.5395-3.6535s5.4136-9.2454 9.3663-15.933c7.693-13.017 8.9778-15.44 9.2458-17.438 0.1981-1.4773-0.1781-2.0772-1.7019-2.714-2.0362-0.85074-2.642-3.1778-1.0493-4.0302 0.9467-0.50668 23.927-0.50882 24.874-0.0022 0.8722 0.46683 1.1997 1.7833 0.6835 2.7479-0.471 0.88-1.4567 1.3087-3.6781 1.5997-3.3494 0.43879-5.6601 1.9577-8.9018 5.8515-5.3965 6.4821-24.228 36.785-25.541 41.099-0.6309 2.0727-0.65 2.72-0.5073 17.12 0.1549 15.615 0.2879 17.184 1.5727 18.552 0.7242 0.77096 2.5514 1.225 6.3197 1.5704 1.8788 0.17219 2.5379 0.37423 3.12 0.95632 1.395 1.395 0.5483 3.2212-1.6736 3.6098-0.6976 0.122-4.5804 0.12229-8.6284 0.00064-6.4758-0.19464-16.095-0.11539-18.88 0.15554-0.528 0.0514-1.4924-0.003-2.1432-0.11967z"/>
  <path id="path143" fill="#c36d73" d="m48.211 205.45c-11.415-2.0747-20.585-10.408-23.225-21.107-1.0833-4.3902-1.4607-9.3524-1.0297-13.539 0.73071-7.0998 2.3068-10.895 6.0902-14.664 4.4074-4.3908 9.2155-7.5082 13.865-8.9899 1.5591-0.4968 3.438-0.69849 8.4077-0.9025 4.1072-0.1686 7.0878-0.44809 8.32-0.78015 11.896-3.206 15.792-14.287 12.793-36.393-0.77529-5.7155-1.3982-8.8455-2.3785-11.951-1.4625-4.6332-1.9345-8.228-1.9345-14.734 0-6.2816 0.37168-9.2391 1.7682-14.07 3.0648-10.601 11.041-20.322 20.965-25.549 3.6349-1.9145 8.1033-3.5346 12.161-4.4091 4.8531-1.046 12.544-1.0485 17.24-0.0055 11.053 2.4547 20.026 8.4087 26.475 17.568 3.5654 5.0638 13.22 15.052 16.763 17.342 3.7991 2.4554 8.1684 3.4629 12.588 2.9025 4.3752-0.55472 7.5591-2.1114 11.644-5.6929 2.648-2.3218 10.75-11.403 13.055-14.632 2.3253-3.2581 4.1294-5.2807 6.8082-7.6332 12.065-10.595 28.791-13.576 43.752-7.7984 6.287 2.4281 10.31 4.9705 14.886 9.4089 5.1399 4.9848 8.8278 10.834 10.975 17.406 1.6381 5.0147 2.1208 8.466 2.1193 15.153-0.002 6.5324-0.46923 10.148-1.8973 14.664-1.4745 4.6633-2.6002 11.742-3.2259 20.286-0.40296 5.5018-0.0481 11.034 0.96069 14.979 1.3714 5.362 4.553 9.643 8.6438 11.631 3.4198 1.6616 5.3476 2.0222 12.32 2.3051 7.3764 0.29922 9.4729 0.75988 13.926 3.0599 6.9119 3.5698 11.152 9.0863 13.34 17.354 0.70714 2.6727 0.82429 3.7976 0.84013 8.0659 0.0208 5.6258-0.49853 8.9586-2.0754 13.316-2.7971 7.7301-9.7683 13.926-18.738 16.655-2.4963 0.75935-3.3516 0.85729-7.6123 0.87162-3.6897 0.0124-5.281-0.11773-6.8792-0.56261-9.4763-2.6378-16.846-9.6279-19.779-18.76-1.1692-3.6404-1.4225-5.7747-1.2595-10.613 0.17124-5.0815 0.50917-6.6334 2.5277-11.609 3.3061-8.1485 3.7998-13.361 1.8305-19.323-1.3049-3.9507-5.0488-8.5197-9.266-11.308-13.261-8.768-35.795-9.7591-50.765-2.2327-6.1923 3.1134-10.389 7.6254-12.161 13.074-0.66013 2.0302-0.80855 3.112-0.80272 5.8508 0.009 4.2948 0.78969 7.3072 3.1088 11.998 2.6388 5.3373 3.1867 7.6432 3.1937 13.442 0.006 5.2261-0.3601 7.2166-2.109 11.458-2.7493 6.6672-9.0968 13.003-15.946 15.918-4.3913 1.8687-7.2314 2.3641-13.613 2.3745-6.3368 0.0104-8.883-0.39427-13.171-2.0932-7.2692-2.8801-13.845-9.2556-16.709-16.199-1.7502-4.2442-2.1155-6.231-2.1071-11.458 0.009-5.751 0.62841-8.4094 3.0794-13.224 4.3504-8.5449 4.4387-16.214 0.26037-22.627-4.6102-7.0761-14.331-11.845-27.033-13.263-10.053-1.1218-21.853 0.73425-29.668 4.6666-8.5851 4.3202-13.234 10.163-14.332 18.011-0.55931 3.9988 0.25527 8.5053 2.584 14.295 2.2886 5.6905 2.5988 7.06 2.7736 12.248 0.16304 4.8382-0.09024 6.9724-1.2595 10.613-2.9168 9.0815-10.343 16.162-19.619 18.706-2.2377 0.61372-9.1788 0.91647-11.469 0.50025zm134.64-61.12c5.0734-1.3822 8.0986-3.1331 12.14-7.0259 4.259-4.1024 7.0798-8.7901 8.5821-14.262 0.99587-3.6274 1.0022-11.325 0.0123-14.944-2.8308-10.347-10.415-18.111-20.778-21.27-2.5413-0.77476-3.3001-0.85723-7.9302-0.86193-4.2958-0.0044-5.5321 0.10808-7.68 0.69844-10.433 2.8675-18.479 10.946-21.349 21.434-0.98991 3.6182-0.98359 11.316 0.0123 14.944 1.5022 5.4717 4.323 10.159 8.5821 14.262 4.0849 3.9346 7.225 5.7383 12.144 6.9751 3.8329 0.9638 3.7964 0.96034 8.9305 0.84709 3.6666-0.0809 5.3984-0.26892 7.3342-0.79634zm480.21 24.601c-0.42829-0.17112-1.7963-1.1205-3.04-2.1097-3.686-2.9318-34.535-34.02-49-49.379-16.867-17.91-18.615-19.714-18.864-19.464-0.29328 0.29328 1.0652 53.869 1.4669 57.853 0.36886 3.6582 1.2083 6.0962 2.3584 6.8498 0.85213 0.55833 3.892 1.1608 5.8572 1.1608 1.4035 0 2.5937 0.42661 3.0353 1.0879 0.50234 0.75234 0.23587 2.0728-0.54176 2.6844-0.75286 0.5922-1.407 0.61725-15.228 0.58323l-14.442-0.0356-0.63139-0.77977c-1.2402-1.5316 0.0692-3.5402 2.3077-3.5402 1.9091 0 4.4671-0.64685 5.1133-1.293 1.4142-1.4142 1.3967-0.91888 1.5762-44.787 0.12599-30.797 0.2688-41.978 0.54403-42.59 0.84272-1.875 2.3787-2.3983 4.2027-1.4318 1.0525 0.55774 6.0696 5.651 17.831 18.102 4.9045 5.192 10.51 11.096 12.456 13.12 12.097 12.579 19.507 20.351 26.39 27.68 11.313 12.046 12.901 13.653 13.197 13.357 0.36506-0.36504-0.91686-59.247-1.3462-61.837-0.1897-1.144-0.56304-2.416-0.82967-2.8267-0.73037-1.1249-2.4686-1.6922-5.7926-1.8906-2.2812-0.1361-3.1854-0.32602-3.7804-0.79402-0.88951-0.69968-1.0345-2.021-0.32787-2.9875 0.43641-0.59691 0.99676-0.62324 14.352-0.67447 14.466-0.05549 15.294 0.01299 15.539 1.2867 0.35066 1.8207-1.0724 3.0725-3.5296 3.1047-2.1393 0.0281-3.5004 0.63863-4.2401 1.9019-0.64544 1.1023-0.65939 1.6418-0.8824 34.08-0.12461 18.128-0.26861 37.401-0.32 42.829l-0.0934 9.8687-0.75546 0.61134c-0.83017 0.67181-1.4066 0.72974-2.5833 0.25962zm55.819 0.007c-2.464-0.13762-6.712-0.42259-9.44-0.63328-3.2522-0.25117-7.4391-0.30535-12.16-0.15735-4.8343 0.15155-7.491 0.11424-8.0857-0.11355-1.2175-0.46636-1.6548-1.7108-1.0274-2.9241 0.50218-0.97112 0.82758-1.1015 3.5131-1.4078 3.0447-0.34729 3.6574-1.3937 4.389-7.4963 0.58163-4.8518 0.59232-70.062 0.0118-72.816-0.64922-3.0807-1.4551-3.6263-5.9217-4.0086-2-0.17121-2.9835-0.40517-3.44-0.81827-0.74649-0.67557-0.83196-2.0134-0.18512-2.8981 0.44093-0.60315 1.1068-0.62382 22.96-0.71301 24.092-0.09832 28.536 0.07451 35.626 1.3854 5.6389 1.0427 9.823 2.3903 14.4 4.638 6.6493 3.2654 12.262 8.1807 16.248 14.228 2.4702 3.7484 3.449 5.7161 4.8652 9.7811 4.3844 12.584 2.8042 28.485-4.0209 40.463-7.8145 13.713-20.589 21.588-38.119 23.498-3.4671 0.37767-12.789 0.37454-19.613-0.007zm21.6-7.4898c7.3185-1.629 13.559-4.8327 18.357-9.4231 4.7226-4.519 7.4144-10.163 9.0547-18.987 0.77107-4.1475 0.76928-13.421-0.004-17.315-1.6882-8.508-5.3239-15.551-10.927-21.167-7.0906-7.1074-14.76-10.686-26.089-12.171-4.3753-0.57375-14.714-0.78148-17.698-0.3556-1.1821 0.16868-2.1069 0.50691-2.5226 0.92262-0.65591 0.65589-0.65619 0.67808-0.4728 34.934 0.11344 21.183 0.3119 35.181 0.51952 36.642 0.1848 1.3008 0.59741 2.8127 0.91693 3.3598 1.0786 1.8469 4.2655 3.158 9.5053 3.9105 4.074 0.58514 16.138 0.36682 19.36-0.35036zm-208.96 6.8193c-4.136-0.16193-11.812-0.21601-17.057-0.12018-10.769 0.19676-11.423 0.0953-11.423-1.7735 0-1.4954 0.51629-2.1616 1.8439-2.3794 4.0866-0.67015 4.56-0.83068 4.9994-1.6949 0.71069-1.398 1.1918-4.976 1.4922-11.096 0.37398-7.6203 0.36368-59.295-0.0128-64.755-0.41843-6.0667-0.89223-6.629-5.9446-7.0553-2.6816-0.22625-3.2192-0.36838-3.7165-0.98255-0.59965-0.74053-0.74883-1.8218-0.33654-2.4392 0.68515-1.0261 1.5673-1.0586 23.627-0.87095 22.003 0.1872 26.421 0.0482 29.12-0.91622 1.4245-0.50902 2.6314-0.11888 2.8962 0.93621 0.11971 0.47696 0.0384 1.8788-0.18071 3.1151-0.2191 1.2364-0.5879 4.4616-0.81955 7.1671-0.46841 5.4707-0.8759 6.5202-2.5993 6.6949-1.5884 0.161-2.1326-0.53722-2.4049-3.0857-0.58582-5.4829-1.9506-6.0311-15.963-6.4124-4.84-0.1317-8.9813-0.17777-9.2029-0.10237-0.31824 0.10828-0.3855 3.5422-0.32 16.342l0.0829 16.205 7.36 0.0937c7.8676 0.10012 15.407-0.32468 16.569-0.93352 0.39091-0.20488 1.2512-0.85573 1.9117-1.4463 1.3409-1.199 2.4366-1.3648 3.2295-0.48862 0.65005 0.71829 0.65978 1.5146 0.0622 5.0947-0.25706 1.5401-0.62403 5.0186-0.81549 7.7301-0.36025 5.1016-0.54953 5.8693-1.5834 6.4227-1.6573 0.88698-2.7142-0.10714-2.9977-2.8198-0.31565-3.0198-0.90403-4.1285-2.5859-4.8725-1.8129-0.80194-7.1918-1.2433-15.273-1.2531l-5.9624-0.007-0.2368 12.945c-0.31911 17.445-0.0586 21.183 1.6145 23.172 1.4521 1.7256 3.0403 2.0494 10.821 2.206 10.483 0.21098 14.075-0.55231 16.163-3.4345 0.84832-1.1711 1.0721-1.7811 1.9639-5.354 0.41379-1.6578 1.0549-2.3344 2.2122-2.3344 1.4731 0 2.1149 1.0346 2.0555 3.3137-0.0925 3.549-1.3647 11.148-2.1212 12.67-1.3547 2.7253-1.3775 2.7312-10.73 2.776-4.5195 0.0217-11.601-0.0931-15.737-0.25501zm301.34 0.16625c-0.11514-0.11514-8.0108-0.23673-17.546-0.2702l-17.337-0.0609-0.60695-0.74956c-0.70867-0.87516-0.54557-2.1136 0.38211-2.902 0.33136-0.28155 1.5132-0.606 2.6264-0.72101 3.4999-0.36158 3.9834-1.1235 4.7298-7.454 0.50131-4.2514 0.81075-53.928 0.40572-65.133-0.40412-11.18-0.42457-11.219-6.1407-11.746-3.33-0.30727-4.1709-0.80016-4.1709-2.4447 0-2.0052-1.2724-1.9096 25.41-1.9096 23.06 0 24.475-0.03282 26.7-0.61958 1.6532-0.4359 2.5006-0.52443 2.8586-0.29862 1.1041 0.69643 1.1756 1.2588 0.61251 4.8161-0.30141 1.9041-0.69165 5.1455-0.86717 7.203-0.43971 5.1536-0.83597 6.0191-2.7559 6.0191-1.3946 0-1.9102-0.8375-2.1844-3.5481-0.25347-2.5059-1.0719-4.0052-2.5157-4.6084-2.0652-0.86287-7.6421-1.4093-15.2-1.4892-6.2198-0.0658-7.5113-0.0019-7.7551 0.3834-0.16614 0.26262-0.29462 7.1841-0.29741 16.023-0.004 13.558 0.0579 15.613 0.48304 15.966 0.38147 0.3166 2.7377 0.36541 10.8 0.22374 11.663-0.20493 12.865-0.3868 14.938-2.2596 1.4648-1.3233 2.2859-1.4589 3.214-0.53076 0.76013 0.76012 0.78356 1.3148 0.18932 4.48-0.24784 1.32-0.62634 4.776-0.84116 7.68-0.41593 5.6227-0.77888 6.905-2.0442 7.2226-1.6139 0.40507-2.7422-0.96057-2.7458-3.3234 0-0.64854-0.15213-1.7205-0.33587-2.3822-0.71712-2.5823-2.8678-3.0791-14.444-3.3366l-8.8618-0.19712-0.2 0.79687c-0.37933 1.5113 0.0189 32.328 0.43398 33.594 0.48384 1.4746 2.1901 2.9948 3.9653 3.5329 0.9617 0.29148 3.7717 0.41347 9.5242 0.41347 8.9717 0 10.457-0.20552 12.961-1.7931 1.6686-1.0582 2.7996-3.0949 3.3603-6.0516 0.45808-2.4154 1.041-3.1953 2.3883-3.1953 2.2516 0 2.544 1.8593 1.4559 9.2555-1.0669 7.252-1.6719 8.5489-4.3251 9.2721-1.375 0.37477-15.903 0.50262-16.263 0.14311zm68.583-0.17771c-3.608-0.15882-11.5-0.21548-17.538-0.12592-11.672 0.17313-12.393 0.0995-12.744-1.3019-0.47964-1.9111 0.45399-2.754 3.4416-3.107 2.0196-0.23863 3.054-0.76496 3.4581-1.7597 0.61939-1.5246 0.99456-4.2935 1.306-9.6385 0.3961-6.799 0.40071-61.738 0.005-66.515-0.4431-5.3566-1.0412-6.0015-5.951-6.4157-2.6816-0.22625-3.2192-0.36838-3.7165-0.98255-0.81299-1.004-0.72592-2.087 0.22813-2.8375 0.78272-0.61569 1.321-0.63684 16.24-0.6381 17.195-0.0016 16.87-0.04042 16.87 2.0284 0 1.4866-0.83814 1.9794-3.84 2.2575-3.089 0.28621-4.2979 0.79624-5.0188 2.1173-0.54886 1.0059-0.58675 2.8651-0.68006 33.385-0.0963 31.475 0.0567 38.402 0.91648 41.516 1.034 3.745 4.4873 4.7286 16.566 4.7184 7.2984-0.006 10.087-0.39544 12.356-1.7251 2.054-1.2037 3.5896-3.7158 4.3525-7.12 0.42041-1.876 1.3836-2.9893 2.5863-2.9893 2.0963 0 2.4039 2.9615 1.1027 10.615-1.1258 6.6211-1.8249 7.905-4.6604 8.5581-1.7145 0.39492-15.913 0.37261-25.28-0.0397zm70.08 0.0132c-3.96-0.16077-11.679-0.2132-17.153-0.11651-9.7339 0.17192-9.972 0.16112-10.8-0.49016-1.1148-0.87691-1.1377-2.2641-0.0515-3.1185 0.49818-0.39186 1.572-0.70861 2.8754-0.8482 2.663-0.28518 3.3038-0.818 3.8728-3.2201 0.97511-4.1162 1.1363-11.001 1.0335-44.153-0.11276-36.373-0.0269-34.887-2.0874-36.088-0.66524-0.3875-1.9131-0.65759-3.52-0.76185-3.1213-0.20251-4.0957-0.56702-4.5688-1.709-0.42452-1.0249-0.0692-2.0111 0.91414-2.5374 0.36822-0.19707 8.8099-0.24554 23.113-0.1327 20.206 0.15941 22.863 0.12194 25.733-0.36292 1.76-0.29737 3.6553-0.61523 4.2118-0.70635 0.84179-0.13783 1.1071-0.02026 1.5787 0.6995 0.53677 0.81921 0.53869 1.0036 0.0364 3.4717-0.29174 1.4336-0.68083 4.4786-0.8646 6.7666-0.18378 2.288-0.41066 4.5365-0.50416 4.9968-0.24618 1.2115-1.3 2.2032-2.3411 2.2032-1.4113 0-1.9893-0.93769-2.3032-3.736-0.44553-3.9729-1.1794-4.5363-7.014-5.3843-2.3748-0.34515-15.811-0.72676-18.163-0.51587-0.31933 0.02864-0.38573 3.4056-0.32 16.276l0.0829 16.24 7.36 0.0937c7.4473 0.0948 15.078-0.29967 16.538-0.85491 0.43862-0.16676 1.3451-0.8197 2.0145-1.451 1.6372-1.544 2.8194-1.5267 3.6516 0.0537 0.2983 0.56639 0.27939 1.2543-0.0879 3.2-0.25731 1.3632-0.63091 4.5665-0.83023 7.1185-0.55732 7.1362-0.58116 7.2626-1.5074 7.9912-0.45366 0.35686-1.083 0.64884-1.3985 0.64884-0.93338 0-1.8998-1.5261-1.9019-3.0032-0.003-2.0267-0.5639-3.5974-1.5953-4.4653-1.4618-1.2301-4.4977-1.5832-13.923-1.6195l-8.32-0.0321v33.6l0.72432 1.3557c1.4928 2.794 4.3494 3.4157 14.723 3.2043 8.4245-0.17171 9.8561-0.47091 12.086-2.526 1.4254-1.3139 2.0225-2.6143 2.7194-5.9222 0.42471-2.0161 1.1547-2.7528 2.5906-2.6143 1.5631 0.15078 1.9539 1.1097 1.7373 4.2625-0.27988 4.0732-1.424 10.437-2.1444 11.929-1.15 2.3805-1.5177 2.4657-10.836 2.5105-4.488 0.0216-11.4-0.0923-15.36-0.25306zm-601.16-0.67625c-1.2992-1.022-0.85267-3.0936 0.76371-3.5432 0.30698-0.0854 1.5421-0.25156 2.7448-0.36929 2.8576-0.27972 3.8544-1.1268 4.5156-3.8374 0.25763-1.056 1.5604-11.496 2.8951-23.2s3.4287-30.064 4.6533-40.8c1.23-10.736 2.31-19.88 2.41-20.32 0.49424-2.1368 2.9828-2.9547 4.7531-1.5621 0.60682 0.47732 6.2572 11.468 19.095 37.143 10.953 21.905 18.383 36.415 18.609 36.339 0.31347-0.1045 7.0077-13.795 24.449-50 7.7776-16.145 11.096-22.79 11.702-23.435 1.2738-1.3559 3.4976-0.81327 4.2731 1.0428 0.26071 0.62396 2.338 17.586 4.9444 40.372 2.4721 21.613 4.7163 40.161 4.9871 41.218 0.65449 2.5554 1.814 4.4801 3.2854 5.4539 1.4407 0.95341 4.873 1.7348 7.6539 1.7425 1.708 0.005 2.134 0.12506 2.8 0.79101 0.98508 0.9851 0.98704 1.5055 0.01 2.6367l-0.77556 0.89784-9.3844-0.0762c-9.9623-0.0809-15.949-0.44808-17.294-1.0607-0.95255-0.43401-1.6011-1.6475-1.3144-2.4593 0.10947-0.31009 0.49731-0.8948 0.86179-1.2994l0.66272-0.73556-2.6621-27.584c-3.1923-33.078-2.921-30.624-3.3864-30.624-0.20816 0-7.0641 13.779-15.235 30.62-10.942 22.551-15.16 30.942-16.007 31.84-1.5291 1.6215-2.8312 1.6699-4.2518 0.15795-2.3119-2.4607-14.221-25.557-28.366-55.011-1.6675-3.4722-3.2118-6.3162-3.4318-6.32-0.22-0.004-0.4 0.15887-0.4 0.36148 0 0.2026-1.008 11.783-2.24 25.734s-2.24 26.392-2.24 27.646c0 1.9631 0.104 2.3843 0.74771 3.028 0.75046 0.75045 3.2099 1.4632 5.0491 1.4632 1.0173 0 2.2035 0.49667 2.5983 1.0879 0.45574 0.68253 0.23709 2.02-0.42871 2.6225-0.63827 0.5776-1.3458 0.61029-13.482 0.62276-12.023 0.0123-12.855-0.0234-13.566-0.58323zm664.91 0.28331c-0.7673-0.41816-1.0172-0.8638-1.0229-1.8236-0.01-1.2366 1.0301-1.962 3.2374-2.2639 4.3812-0.59915 4.7122-1.2303 5.1415-9.8018 0.3735-7.4569 0.1312-22.588-0.3981-24.864-0.2047-0.88-0.7845-2.4746-1.2884-3.5436-0.8348-1.771-12.194-20.122-20.464-33.062-5.1319-8.0291-9.5794-12.382-13.273-12.991-0.704-0.11609-1.6815-0.36393-2.1722-0.55076-1.5476-0.58918-2-2.3197-0.8952-3.4245 0.5831-0.58312 1.2326-0.6126 13.52-0.61342 14.17-0.00096 14.347 0.02166 14.347 1.8238 0 0.98198-0.5503 1.5965-2.16 2.4118-1.2112 0.61354-1.3854 1.7827-0.5194 3.4863 1.296 2.5493 21.944 36.704 22.189 36.704 0.1516 0 0.8169-0.972 1.4785-2.16s4.9333-8.4869 9.4925-16.22c10.161-17.234 9.9321-16.794 9.9698-19.188l0.03-1.888-1.4263-0.76045c-1.6503-0.87983-1.9221-1.2203-1.9288-2.4161-0.01-1.7366 0.3199-1.7812 13.232-1.7919l11.797-0.0098 0.7825 0.78248c0.5682 0.56828 0.724 0.97811 0.5691 1.4972-0.3978 1.3329-1.2391 1.8564-3.4971 2.1762-2.947 0.41734-4.6312 1.2235-6.7705 3.2406-2.6636 2.5115-5.3546 6.1018-10.299 13.74-8.7501 13.518-16.811 27.015-17.844 29.878-1.2021 3.3301-0.896 31.527 0.3769 34.708 0.6871 1.7174 1.7182 2.223 5.3605 2.6283 3.9434 0.4389 4.2443 0.5067 4.8245 1.0869 0.7115 0.71144 0.6252 2.1664-0.1713 2.8871-0.6427 0.58162-1.3849 0.60987-16.172 0.61549-8.9975 0.003-15.728-0.11933-16.046-0.29265z"/>
  <path id="path141" fill="#b75158" d="m48.8 205.43c-4.0856-0.63583-8.8227-2.5154-12.32-4.8884-2.1247-1.4416-5.9493-5.2187-7.5595-7.4656-1.6549-2.3093-2.9813-5.3818-4.0135-9.2972-0.65734-2.4933-0.74263-3.5488-0.74468-9.2158-0.002-5.7017 0.07857-6.6961 0.73901-9.1138 1.0853-3.9729 2.6981-6.8218 5.3145-9.3876 4.5608-4.4727 9.8421-7.7736 14.424-9.0153 1.2392-0.33581 4.1894-0.61387 8.32-0.78417 5.5062-0.22702 6.7461-0.37602 8.8781-1.0669 9.171-2.98 13.232-11.3 12.617-25.84-0.32-7.58-1.67-16.98-3.109-21.653-1.596-5.185-1.94-7.351-2.125-13.387-0.345-11.267 1.858-19.493 7.486-27.951 2.353-3.538 7.515-8.705 11.007-11.02 7.7324-5.1257 15.824-7.5892 24.928-7.5892 9.1501 0 16.831 2.3578 24.306 7.4612 3.2065 2.1891 8.3441 7.3629 10.905 10.982 2.7818 3.9309 10.831 12.65 14.073 15.244 4.7558 3.8051 8.9201 5.2592 14.075 4.9148 5.2255-0.34912 8.9027-2.1344 13.557-6.5822 3.5158-3.3596 9.758-10.43 12.754-14.446 4.4704-5.9922 9.2906-10.103 15.492-13.212 6.1732-3.0952 11.688-4.3612 18.996-4.3612 7.4505 0 13.444 1.4214 20.061 4.7577 4.3564 2.1965 7.4249 4.4357 10.987 8.0175 5.8268 5.8594 9.6618 12.985 11.566 21.491 0.65817 2.94 0.74636 4.1659 0.74636 10.374 0 7.5455-0.26908 9.5933-1.9667 14.967-1.4792 4.6825-2.8815 14.3-3.2067 21.993-0.4467 10.568 1.5557 17.75 6.1453 22.043 3.7958 3.5508 7.8148 4.8342 15.159 4.8408 7.3987 0.007 12.307 1.3103 17.213 4.5722 7.6578 5.0909 11.602 13.319 11.611 24.224 0.01 10.897-3.1291 18.371-10.055 23.943-3.119 2.5091-5.7228 3.9473-9.3002 5.1371-15.521 5.162-31.165-3.1548-35.867-19.067-0.63646-2.154-0.86935-3.786-0.99497-6.9723-0.20623-5.2312 0.41942-8.5257 2.7364-14.409 2.364-6.0026 2.7369-7.6562 2.74-12.151 0.002-3.4614-0.0928-4.1096-0.96522-6.5741-3.1264-8.8318-11.768-14.994-24.968-17.802-3.8247-0.8139-4.6736-0.87794-11.801-0.89019-8.7156-0.015-12.006 0.45304-18.153 2.5819-9.2963 3.2197-15.15 8.3585-17.592 15.445-0.59788 1.7345-0.72973 2.7895-0.72494 5.8001 0.007 4.5395 0.71687 7.2659 3.2063 12.318 2.4637 5.0004 3.0984 7.6265 3.1327 12.962 0.0222 3.4582-0.11313 4.8818-0.67846 7.1364-2.8102 11.207-11.795 19.715-23.435 22.191-3.7179 0.79079-11.565 0.78694-15.35-0.008-10.653-2.2362-19.285-9.7124-22.681-19.643-1.1648-3.406-1.7407-7.5565-1.5232-10.977 0.26657-4.1917 1.1771-7.5034 3.206-11.66 3.1436-6.441 3.9867-10.875 3.0464-16.021-0.45227-2.4754-2.4273-6.5828-4.1812-8.6954-4.1281-4.9726-11.689-8.8603-20.839-10.715-3.1616-0.64087-4.5148-0.72671-11.273-0.71509-7.1276 0.0122-7.9764 0.0763-11.801 0.89018-4.1039 0.87332-8.8341 2.4554-11.879 3.973-9.4368 4.7037-14.702 12.793-14.114 21.684 0.23194 3.5052 0.92895 6.2109 2.8441 11.04 2.4053 6.0652 2.6157 7.1276 2.5977 13.12-0.01437 4.7881-0.09572 5.5418-0.87343 8.0902-3.0939 10.138-10.352 17.308-20.025 19.783-2.8557 0.73072-8.0317 1.0164-10.75 0.59342zm133.69-60.96c4.5764-1.1472 7.8224-2.8322 11.306-5.8691 3.4889-3.0412 5.7516-5.9425 7.64-9.7964 2.3901-4.8779 2.8803-7.1378 2.8803-13.28 0-4.5412-0.1024-5.6382-0.73182-7.84-3.123-10.924-11.853-19.108-22.889-21.456-2.8118-0.59829-9.1454-0.59698-11.995 0.0026-10.915 2.296-19.746 10.586-22.852 21.453-0.63821 2.2325-0.72939 3.2558-0.7128 8 0.0174 4.9923 0.0913 5.6757 0.8972 8.3042 1.7658 5.759 4.8757 10.491 9.6041 14.612 4.2723 3.724 8.6227 5.6371 15.196 6.6824 2.8817 0.45828 8.0124 0.10031 11.657-0.81334zm538.31 24.468c-2.64-0.13808-6.888-0.41754-9.44-0.62102s-7.376-0.32458-10.72-0.26911c-11.127 0.18456-11.222 0.18066-11.966-0.4935-0.82096-0.74306-0.87453-2.1493-0.10829-2.8427 0.31085-0.28133 1.527-0.66516 2.7026-0.85295 2.7832-0.44461 3.0743-0.57239 3.5852-1.5735 1.5252-2.9892 1.7704-9.0891 1.77-44.041 0-30.223-0.14147-35.101-1.0676-36.891-0.63453-1.2271-2.3741-1.8813-5.7455-2.1607-1.8449-0.15291-2.6718-0.36969-3.12-0.81793-0.7969-0.79689-0.77568-1.9606 0.0493-2.7073 0.62698-0.56742 1.695-0.60116 21.84-0.69017 21.353-0.09434 28.19 0.11746 34.301 1.0626 12.042 1.8624 21.088 6.1607 28.069 13.337 7.3818 7.5889 11.517 17.537 12.001 28.868 0.60483 14.176-4.4632 27.495-14.129 37.13-5.2556 5.2391-10.568 8.4619-17.913 10.868-8.2199 2.6926-16.315 3.4175-30.109 2.6961zm19.053-7.3232c7.0851-1.3688 13.028-4.2068 18.324-8.7504 6.4072-5.4969 9.9494-14.707 10.361-26.94 0.21712-6.4518-0.3104-10.611-2-15.769-4.024-12.285-13.549-21.79-25.864-25.81-5.8639-1.9142-14.664-2.9276-23.074-2.6572-4.9262 0.15841-6.7523 0.48398-7.2686 1.2959-0.36355 0.57173-0.29715 63.668 0.0724 68.793 0.43133 5.9817 0.98634 7.1074 4.2067 8.5319 4.8142 2.1296 17.565 2.7894 25.242 1.3063zm-78.617 5.9599c-6.2634-4.6404-34.877-33.676-64.775-65.731-2.011-2.156-3.8372-3.92-4.0582-3.92-0.5368 0-0.5272 1.26 0.23904 31.36 0.35168 13.816 0.79075 26.272 0.97568 27.68 0.43395 3.3042 1.378 5.2613 2.8961 6.0038 0.65184 0.3188 2.5288 0.69395 4.3196 0.86338 2.6472 0.25045 3.2588 0.41319 3.7273 0.99169 1.1367 1.4038 0.28819 2.9631-1.8284 3.3602-0.6295 0.1181-4.0575 0.0836-7.6178-0.0768-3.8066-0.17139-8.8974-0.17533-12.358-0.01-7.7733 0.37242-8.9957 0.10254-8.9957-1.986 0-1.4032 0.89296-1.9306 3.8371-2.2664 3.0372-0.34641 4.0005-0.8545 4.7496-2.5052 0.48598-1.0709 0.54883-4.8779 0.7088-42.935 0.18576-44.204 0.1623-43.576 1.6681-44.631 2.0366-1.4265 2.9248-0.70567 15.526 12.601 6.2659 6.6165 17.53 18.438 25.031 26.27 11.779 12.298 24.989 26.253 30.217 31.92 0.85239 0.924 1.7461 1.68 1.986 1.68 0.56064 0 0.56329 0.4507-0.1976-33.76-0.6625-29.788-0.69498-30.232-2.3205-31.76-0.84647-0.7952-2.5706-1.216-6.2512-1.5255-2.1821-0.18355-2.7286-0.34118-3.12-0.89993-0.66461-0.94889-0.59072-1.9306 0.19916-2.6454 0.64061-0.5797 1.353-0.6096 14.526-0.6096s13.886 0.02989 14.526 0.6096c0.8407 0.76082 0.85315 1.4758 0.0437 2.5049-0.52326 0.66522-1.0072 0.83799-2.8582 1.0204-2.7484 0.27082-4.1829 1.136-4.7534 2.8668-0.30867 0.93648-0.45773 10.963-0.64448 43.348-0.19097 33.125-0.32985 42.284-0.64969 42.85-0.70173 1.242-2.5139 0.98665-4.7491-0.66929zm-125.56 0.7175c-6.5721-0.23627-16.798-0.29232-28.848-0.15809-2.7734 0.0309-3.7922-0.51987-3.7922-2.0501 0-1.263 0.86116-1.8408 3.3316-2.2355 3.6256-0.57918 3.7502-0.72053 4.5588-5.1708 0.48391-2.6632 0.55763-6.7152 0.66781-36.696 0.12928-35.185 0.0115-39.455-1.1302-40.999-0.74182-1.0035-2.3354-1.5116-5.6022-1.7861-1.9469-0.16359-2.6316-0.35699-3.12-0.88129-0.78829-0.84612-0.79223-1.5546-0.0141-2.5156l0.61174-0.75545h24.748c22.665 0 24.905-0.04721 26.607-0.56095 3.1732-0.95739 3.8159-0.02742 2.9855 4.3204-0.27735 1.4523-0.65933 4.5681-0.8488 6.924-0.34522 4.2921-0.79076 5.8618-1.7703 6.2377-1.7756 0.68137-2.6951-0.30946-3.0181-3.2524-0.44688-4.0711-1.2762-4.8192-6.2476-5.6364-3.9926-0.65629-18.561-1.0427-19.204-0.50932-0.40975 0.34009-0.47625 2.575-0.47625 16.01 0 8.5881 0.0874 15.842 0.19424 16.121 0.17088 0.44528 1.298 0.50617 9.3684 0.50617 5.0458 0 10.394-0.15121 11.886-0.33603 2.71-0.33584 3.3766-0.63308 5.8224-2.5962 0.73622-0.59094 0.99443-0.64258 1.6712-0.33423 1.1055 0.5037 1.26 1.4705 0.70572 4.4157-0.26195 1.3919-0.64012 4.8347-0.84038 7.6507-0.20022 2.816-0.428 5.4339-0.50614 5.8176-0.2098 1.0301-1.0256 1.7024-2.0658 1.7024-1.18 0-1.9153-1.0266-1.9153-2.6741 0-3.2109-1.3421-5.0017-4.2307-5.6452-2.3672-0.52732-19.161-0.99873-19.708-0.5532-0.3368 0.27465-0.39907 3.5543-0.32 16.847 0.0976 16.416 0.10211 16.514 0.82282 17.946 0.89561 1.7797 1.7626 2.4241 4.0696 3.025 4.0937 1.0663 16.618 0.89786 20.005-0.26899 3.1385-1.0813 4.5028-2.7475 5.4825-6.6957 0.73484-2.9612 1.2659-3.7403 2.5495-3.7403 1.9407 0 2.2504 1.7856 1.3996 8.069-0.97975 7.2357-1.6185 9.1075-3.4342 10.064-1.2862 0.67762-8.5996 0.8193-20.397 0.39516zm297.92 0.14427c-2.2-0.0588-7.7677-0.24161-12.373-0.40626-5.2461-0.18758-10.78-0.18589-14.819 0.005-7.3033 0.34434-8.8308 0.15054-9.1603-1.1622-0.51341-2.0457 0.35302-2.7415 3.9863-3.2012 1.9833-0.25093 2.7545-0.87726 3.2141-2.6104 0.967-3.6465 1.0736-6.989 1.2183-38.189 0.15126-32.63-0.0163-39.634-0.99443-41.525-0.63165-1.2215-2.3769-1.8766-5.7429-2.1556-1.8449-0.15291-2.6718-0.36969-3.12-0.81793-0.8016-0.80159-0.7744-1.9618 0.0637-2.7203 0.65021-0.58837 1.5332-0.6096 25.36-0.6096 23.113 0 24.797-0.03745 26.418-0.58777 3.052-1.0359 3.9709 0.13918 3.0978 3.9613-0.25965 1.1366-0.63824 4.1545-0.84134 6.7065-0.3986 5.0092-0.88125 6.6107-2.0832 6.9124-1.7926 0.44993-2.5041-0.50538-2.845-3.8199-0.10563-1.0272-0.399-2.2677-0.65193-2.7568-1.0882-2.1043-5.1744-2.8311-16.648-2.9612l-8.32-0.09436v32.64h10.24c12.213 0 13.535-0.13785 15.149-1.5804 1.6982-1.5181 2.4817-1.8716 3.2442-1.4635 1.1494 0.61514 1.3011 1.3546 0.83033 4.0471-0.37837 2.1642-0.87481 7.149-1.2628 12.68-0.12618 1.7986-0.89242 2.7968-2.147 2.7968-1.3228 0-1.7747-0.68181-1.9917-3.0052-0.32032-3.4301-1.234-4.6239-4.0616-5.3068-2.0938-0.50569-19.248-0.9943-19.776-0.56327-0.3335 0.27252-0.39676 3.6346-0.32 17.007 0.0948 16.514 0.10228 16.68 0.80576 17.996 1.3191 2.4666 3.3772 3.1605 10.381 3.5001 5.3071 0.25734 11.758-0.26579 14.105-1.1438 2.8312-1.0593 4.3485-3.0578 5.0574-6.6612 0.62118-3.1574 2.0244-4.3476 3.6857-3.1262 0.54067 0.39747 0.61491 0.82246 0.57306 3.28-0.0624 3.6624-1.235 10.773-2.0572 12.474-1.0532 2.1788-2.0174 2.4608-8.6148 2.5194-3.08 0.0274-7.4 0.002-9.6-0.0572zm72-0.15021c-6.0298-0.20992-20.985-0.28632-30.768-0.15719-2.6974 0.0356-3.7922-0.5127-3.7922-1.8992 0-1.3543 0.95667-2.0383 3.3047-2.3627 3.5833-0.49511 3.8606-0.8504 4.763-6.1031 0.31978-1.8613 0.41232-10.481 0.41232-38.4 0-39.201 0.0663-37.738-1.7719-39.101-0.56563-0.41955-1.7788-0.70202-4-0.93139-2.7647-0.28549-3.2837-0.43507-3.9081-1.1262-0.87933-0.9734-0.89981-1.4284-0.10829-2.4059l0.61175-0.75545 15.42-0.0135c10.09-0.0088 15.647 0.10178 16.077 0.32 0.94311 0.47911 1.3237 1.2342 1.0905 2.1635-0.25261 1.0064-1.2977 1.4232-4.1452 1.6531-4.584 0.37008-5.0365 1.0464-5.4204 8.1016-0.39005 7.168-0.0834 62.556 0.36345 65.64 0.7417 5.1202 1.5 6.2767 4.731 7.2146 4.6553 1.3514 19.351 1.3785 23.183 0.0428 3.0576-1.066 5.017-3.6129 6.1561-8.0022 0.73939-2.849 2.298-3.8232 3.7668-2.3544 0.63661 0.63661 0.67168 0.90511 0.4914 3.76-0.23188 3.6715-1.283 9.6702-2.0592 11.752-0.30675 0.82269-0.93097 1.7739-1.3872 2.1139-1.6161 1.2042-7.0685 1.4058-23.011 0.85085zm73.76 0.13153c-2.112-0.0487-7.6045-0.22308-12.206-0.3875-5.3065-0.18962-10.789-0.18536-14.992 0.0117-7.045 0.3302-8.4983 0.16837-9.1327-1.017-0.36947-0.69036-0.12067-2.034 0.46694-2.5216 0.21667-0.17982 1.511-0.49307 2.8762-0.69613 2.8909-0.42996 3.5166-0.92254 3.9928-3.143 0.92724-4.3235 1.0319-9.1664 0.93402-43.22-0.10854-37.776-0.009-35.806-1.8722-37.183-0.5568-0.41176-1.8156-0.71126-4-0.95172-3.611-0.39748-4.3075-0.78721-4.3075-2.41 0-1.9665-0.57431-1.9255 24.739-1.765 23.404 0.14846 23.914 0.12965 29.05-1.0714 1.6751-0.39167 2.3905 1.7231 1.5767 4.6614-0.17059 0.616-0.51482 3.4776-0.76496 6.3591-0.496 5.7143-0.89648 6.824-2.5335 7.0202-1.3578 0.16278-2.0258-0.82104-2.275-3.3505-0.24781-2.5149-0.99616-4.006-2.366-4.7144-1.8728-0.96844-6.4231-1.4362-14.947-1.5366l-8.32-0.09794v32.635l10.88-0.0151c12.196-0.017 12.764-0.0954 15.052-2.0752 1.6434-1.4223 1.9273-1.4927 2.9972-0.74337 0.82019 0.5745 0.82355 1.0244 0.0475 6.3537-0.1794 1.232-0.46845 4.3111-0.64234 6.8424-0.36413 5.3004-0.68237 6.1176-2.3824 6.1176-0.5904 0-1.2361-0.19595-1.4348-0.43544-0.19878-0.2395-0.50134-1.5392-0.67238-2.8883-0.17107-1.3491-0.46234-2.7356-0.6473-3.0812-0.38841-0.72575-1.9038-1.5752-3.5173-1.9717-1.285-0.31578-18.783-0.92028-19.432-0.67131-0.35296 0.13545-0.41306 3.1821-0.33853 17.166 0.0879 16.489 0.11046 17.035 0.74794 18.121 1.6204 2.7585 3.9316 3.339 13.263 3.3317 7.9812-0.006 10.885-0.46863 13.122-2.0889 1.4981-1.0852 2.6788-3.3045 3.1889-5.9938 0.41648-2.1961 0.81383-2.8768 1.8278-3.1313 1.019-0.25575 1.7219 0.1384 2.2819 1.2796 0.33709 0.68682 0.34947 1.476 0.0624 3.9705-0.89651 7.7892-1.6736 10.947-3.0009 12.194-1.3449 1.2635-3.6478 1.4088-17.322 1.0934zm-608.35-0.54153c-0.99971-0.44447-1.4079-1.0501-1.4079-2.0888 0-1.0371 1.0577-1.5756 3.7606-1.9145 3.1227-0.39155 4.0024-0.89214 4.7239-2.6879 0.6824-1.6986 0.87632-3.2534 6.0459-48.472 3.2404-28.344 4.4164-37.723 4.8042-38.315 0.93418-1.4257 3.0099-1.4469 4.3597-0.04441 0.40003 0.41562 8.8765 17.013 18.837 36.883 10.728 21.401 18.305 36.163 18.589 36.214 0.34647 0.0623 4.5265-8.3063 15.025-30.08 20.335-42.175 20.772-43.06 21.546-43.602 1.5857-1.1107 3.4557-0.14178 4.0732 2.1105 0.16364 0.59686 2.1044 16.925 4.3128 36.285s4.2286 37 4.4892 39.2c0.66329 5.5984 1.5059 8.1009 3.3482 9.9441 1.6876 1.6884 3.0219 2.1353 7.5645 2.5334 3.6477 0.31974 4.2812 0.62845 4.2812 2.0863 0 0.84623-0.20167 1.2328-0.8706 1.6687-0.78374 0.51078-1.6535 0.5585-8.72 0.47835-10.481-0.11887-16.769-0.55853-18.233-1.2749-1.4044-0.6871-1.7219-2.152-0.67216-3.102 0.51331-0.46456 0.65449-0.98161 0.65078-2.3836-0.006-2.3317-5.3381-57-5.5833-57.245-0.10294-0.10294-0.38649 0.0203-0.63014 0.27378-0.24362 0.25353-7.0917 14.16-15.218 30.904-8.1262 16.744-15.159 30.892-15.629 31.442-1.8952 2.217-3.8276 1.4323-6.1016-2.4775-3.1707-5.4515-19.553-37.211-19.553-37.907 0-0.0689-2.16-4.5459-4.8-9.9489s-4.8-9.9428-4.8-10.089c0-0.37449-0.93977-1.1102-1.1498-0.9001-0.29776 0.29776-4.6087 50.144-4.6094 53.298 0 1.6396 0.14023 3.2444 0.31251 3.5664 0.4074 0.7612 1.8446 1.2502 4.7804 1.6264 1.3876 0.17781 2.6172 0.5246 2.96 0.83481 1.2881 1.1658 0.31827 3.0926-1.7521 3.481-0.60179 0.11289-3.811 0.0662-7.1316-0.10383-3.3205-0.17001-6.1842-0.26556-6.3637-0.21234-0.17946 0.0532-2.5583 0.17849-5.2863 0.27838-3.8378 0.14051-5.1845 0.0818-5.9521-0.25951zm664.84 0.18009c-0.4373-0.13142-1.0133-0.62896-1.28-1.1057-0.4317-0.77187-0.4322-0.9608 0-1.7266 0.4935-0.88239 1.1828-1.1514 3.9174-1.5291 1.9396-0.26789 3.2455-1.356 3.7511-3.1255 0.2644-0.92541 0.4431-5.5938 0.5546-14.485 0.1884-15.029 0-17.048-1.9036-20.836-1.4762-2.9315-17.162-28.076-22.436-35.964-4.0493-6.0571-8.2463-9.5512-12.131-10.099-1.0876-0.15342-1.7082-0.44686-2.16-1.0212-0.7902-1.0046-0.794-1.411-0.022-2.3642l0.6118-0.75545 12.748-0.02746c7.0116-0.0151 13.068 0.08781 13.459 0.22868 0.8376 0.30171 1.2401 1.5636 0.7756 2.4316-0.1803 0.33684-0.9157 0.87752-1.6341 1.2015-1.4679 0.66191-1.8277 1.466-1.2969 2.8982 0.1931 0.52113 5.2771 9.1896 11.298 19.263 7.1758 12.007 11.106 18.289 11.41 18.239 0.2549-0.0423 1.246-1.4445 2.2025-3.1158 0.9566-1.6713 5.3241-9.1138 9.7058-16.539 8.3544-14.157 9.0294-15.424 9.3825-17.608 0.1882-1.164 0.1132-1.4484-0.5483-2.08-0.4215-0.40239-1.2278-0.97836-1.7917-1.2799-1.1786-0.63023-1.4837-1.2127-1.209-2.3075 0.1312-0.52261 0.5326-0.87145 1.2346-1.0728 0.572-0.16412 6.166-0.28331 12.431-0.26486 12.394 0.03649 12.449 0.04451 12.449 1.8203 0 1.3192-1.0352 2.109-3.1027 2.3673-5.4535 0.68136-8.2053 3.2211-15.609 14.406-6.7369 10.178-16.363 25.852-18.534 30.179-1.6814 3.3514-1.7959 4.4282-1.7857 16.797 0.01 12.308 0.3475 18.767 1.0702 20.497 0.8119 1.943 1.4999 2.1852 8.4466 2.9735 2.6033 0.29543 3.1269 2.8732 0.7825 3.8528-1.0057 0.42021-2.1244 0.46067-7.2686 0.26287-7.1348-0.27433-12.753-0.28812-18.542-0.0455-2.2979 0.0963-4.5358 0.0676-4.9732-0.0638z"/>
  <path id="path139" fill="#a51c26" d="m48.052 205.1c-6.2845-1.1194-11.764-4.2347-16.726-9.5085-4.948-5.2598-7.1278-11.809-7.1066-21.353 0.0114-5.1433 0.42282-7.7333 1.8167-11.436 1.089-2.8932 1.9909-4.2035 4.748-6.8981 4.6506-4.5452 9.436-7.4239 14.466-8.7022 1.9564-0.49718 3.5762-0.64324 7.1335-0.64324 5.6541 0 8.6624-0.55457 12.095-2.2298 5.3845-2.6275 8.4731-7.3418 9.804-14.964 1.2154-6.961-0.37084-24.582-2.9386-32.645-1.4106-4.4292-1.9026-8.1362-1.9041-14.344-0.0022-9.5356 1.8539-16.763 6.0755-23.656 6.4326-10.504 16.347-17.381 28.903-20.049 4.6004-0.97734 11.846-0.97604 16.455 0.0029 10.978 2.3318 20.169 8.4024 26.718 17.647 2.6012 3.6717 10.401 12.186 13.698 14.954 5.1184 4.2963 10.406 6.0236 16.041 5.2399 3.2089-0.44632 5.5507-1.3519 8.3673-3.2358 3.6499-2.4412 12.557-11.827 16.391-17.272 3.9587-5.6225 10.377-11.109 16.227-13.872 6.3553-3.0015 11.436-4.1426 18.483-4.1514 7.2964-0.0091 13.136 1.388 19.938 4.7697 10.255 5.0987 17.862 14.172 21.435 25.567 1.5283 4.874 1.923 8.4658 1.7347 15.784-0.17605 6.8406-0.39395 8.287-1.9849 13.176-2.3764 7.3029-3.9367 25.393-2.7675 32.086 1.3273 7.5983 4.4254 12.325 9.8042 14.96 3.4096 1.6699 6.4412 2.2344 12 2.2344 7.0333 0 11.447 1.2015 16.413 4.468 9.0851 5.9759 13.315 17.773 11.075 30.892-1.2593 7.3775-4.2397 12.62-9.6244 16.928-16.884 13.509-40.878 5.0812-45.196-15.875-0.65738-3.1903-0.65925-9.1419-0.004-12.347 0.27738-1.3566 1.272-4.4105 2.2103-6.7865 2.1523-5.4502 2.8594-8.5626 2.8354-12.48-0.0677-11.02-7.9537-19.349-22.223-23.472-8.4328-2.4363-19.634-2.7729-28.474-0.85563-20.682 4.4855-29.264 18.644-21.113 34.829 2.8451 5.649 3.7553 9.705 3.4462 15.358-0.773 14.139-11.489 25.457-26.13 27.598-3.7574 0.54942-10.903 0.2241-14.417-0.65631-1.496-0.37487-4.304-1.461-6.24-2.4137-7.6302-3.7546-12.892-9.991-15.395-18.247-0.76868-2.5352-0.8704-3.4058-0.89504-7.6603-0.0342-5.8998 0.35708-7.5755 3.1754-13.6 3.0114-6.4373 3.8047-10.681 2.9185-15.614-2.3497-13.08-18.043-21.521-38.604-20.765-18.532 0.68109-32.241 8.5784-35.378 20.38-0.74094 2.787-0.74802 7.4566-0.01626 10.72 0.31571 1.408 1.3417 4.504 2.28 6.88 2.1238 5.378 2.7147 8.1988 2.7147 12.96 0 7.8016-2.4661 14.359-7.4854 19.905-3.1318 3.4602-8.5569 6.6901-13.315 7.9269-2.4553 0.63828-9.0128 0.90676-11.468 0.46952zm132.76-59.98c6.288-1.3227 10.14-3.3646 14.664-7.7726 4.2539-4.1448 6.9144-8.6363 8.4615-14.285 0.5999-2.1903 0.70281-3.3559 0.67994-7.701-0.0242-4.6092-0.11364-5.4053-0.89584-7.9795-3.377-11.114-11.887-19.094-22.752-21.336-15.619-3.2237-30.522 5.8153-35.257 21.384-0.76654 2.5207-0.858 3.3431-0.88215 7.9323-0.0215 4.0838 0.0956 5.5734 0.5787 7.36 1.5456 5.7162 4.2369 10.35 8.3939 14.453 4.3735 4.3167 7.3549 6.0267 13.056 7.4887 2.953 0.75721 4.221 0.91119 7.6031 0.92332 2.4433 0.009 4.9703-0.17712 6.348-0.46694zm482.27 23.343c-0.5966-0.25752-2.3246-1.5019-3.84-2.7652-4.6614-3.8862-30.707-30.228-47.714-48.256-20.344-21.566-19.145-20.344-19.561-19.928-0.40125 0.40124 0.81711 54.188 1.3285 58.648 0.40675 3.5478 0.80108 4.8921 1.7743 6.0487 1.0066 1.1962 2.1545 1.5726 5.8307 1.9119 3.225 0.29759 3.9065 0.63942 3.9065 1.9594 0 1.7719 0.13174 1.7561-15.009 1.806-14.127 0.0465-15.672-0.0638-15.749-1.1248-0.124-1.7044 0.80502-2.5977 2.7134-2.609 3.3649-0.0199 5.3122-1.0425 6.0336-3.1684 0.29276-0.8627 0.43027-11.406 0.55952-42.904 0.16803-40.942 0.18393-41.785 0.81139-43.04 0.76294-1.5259 1.9498-1.8269 3.6326-0.92136 0.58989 0.31747 7.2859 7.1328 14.88 15.145 7.5941 8.0123 17.203 18.098 21.354 22.412 8.9688 9.3225 18.303 19.155 26.821 28.254 3.414 3.6467 6.3935 6.6304 6.6211 6.6304 0.22765 0 0.49748-0.13525 0.59962-0.30054 0.28739-0.46498-1.0806-60.441-1.4217-62.332-0.66807-3.7034-1.7218-4.4418-6.9172-4.8473-3.6689-0.28634-4.2891-0.60078-4.2891-2.1745 0-1.6169 0.38551-1.6597 14.88-1.6496 14.489 0.01008 14.88 0.05374 14.88 1.6612 0 1.2293-1.0342 1.8493-3.5442 2.1249-1.4448 0.1586-2.607 0.48234-3.1358 0.87345-1.9003 1.4058-1.7782-1.216-2.0445 43.924-0.13446 22.792-0.31865 42.016-0.40934 42.72-0.0907 0.704-0.26867 1.4406-0.39555 1.6369-0.41018 0.63459-1.4845 0.74412-2.5954 0.26461zm58.845 0.30353c-0.968-0.0632-5.288-0.35188-9.6-0.64143-5.7048-0.38306-9.8009-0.47018-15.04-0.31985-8.1153 0.23284-8.7279 0.12053-8.8988-1.6313-0.12739-1.3062 0.72163-1.8652 3.2525-2.1414 1.0305-0.11248 2.145-0.34974 2.4767-0.52724 2.4358-1.3036 2.8176-7.5068 2.8159-45.744 0-28.317-0.18627-34.74-1.0488-36.408-0.69379-1.3416-2.0971-2.0304-4.4893-2.2035-4.1169-0.29791-4.9881-0.68296-4.9881-2.2044 0-1.7503-0.67347-1.7089 26.24-1.6144 26.149 0.09181 26.258 0.09711 34.08 1.6601 14.783 2.9539 25.809 11.225 31.84 23.886 3.1449 6.602 4.3458 12.921 4.0601 21.363-0.20217 5.9732-0.85136 9.594-2.6431 14.742-4.1508 11.925-11.948 21.051-22.536 26.379-3.4409 1.7313-10.078 3.8261-14.721 4.6462-3.2241 0.56952-5.4586 0.72273-11.52 0.78987-4.136 0.0458-8.312 0.0316-9.28-0.0317zm19.231-7.1047c6.1338-1.4517 11.415-3.9942 16.079-7.7403 5.714-4.59 8.9577-10.573 10.842-20 0.93828-4.6934 1.0125-14.19 0.14468-18.509-1.6497-8.2099-5.1408-15.015-10.591-20.642-9.1221-9.4202-19.464-13.168-36.666-13.286-7.148-0.04919-9.6997 0.21676-10.586 1.1034-0.59545 0.59544-0.61315 1.4103-0.59529 27.414 0.0189 27.503 0.34448 44.414 0.89718 46.596 0.65178 2.5722 3.3324 4.2726 8.0998 5.1382 4.1036 0.74505 4.4192 0.76221 12.265 0.66695 6.0658-0.0736 7.8438-0.20385 10.111-0.74051zm-209.15 6.2856c-4.048-0.16399-11.753-0.22404-17.122-0.13342-10.862 0.18332-11.285 0.12278-11.457-1.6401-0.12954-1.3281 0.73328-1.8802 3.4004-2.176 2.7585-0.30595 3.4564-0.96469 4.0644-3.8364 0.26083-1.232 0.61558-5.048 0.78835-8.48 0.38989-7.7448 0.40893-60.185 0.0237-65.482-0.43097-5.9272-1.1219-6.7294-6.1548-7.1463-3.0546-0.25303-4.1034-0.79032-4.1034-2.1022 0-1.6349-0.72355-1.5896 25.41-1.5896 22.922 0 24.486-0.03575 26.658-0.60942 1.8883-0.49868 2.3971-0.53517 2.8-0.20082 0.56666 0.47029 0.64298 2.2143 0.16858 3.8523-0.17808 0.61484-0.46458 2.8459-0.6367 4.9579-0.52068 6.3884-0.6361 7.0756-1.3099 7.7989-0.83491 0.89614-2.0721 0.87796-2.6442-0.03886-0.2471-0.396-0.5366-1.6236-0.64329-2.728-0.21847-2.2613-0.83376-3.6821-1.896-4.378-1.6409-1.0752-5.3362-1.5259-14.466-1.7645-4.928-0.12876-9.1413-0.16767-9.3628-0.08646-0.31821 0.11662-0.38547 3.6211-0.32 16.672l0.0829 16.525 10.56-0.0244c12.227-0.0283 13.37-0.17906 15.653-2.0653 1.6913-1.3976 2.1361-1.5159 2.8846-0.76739 0.61891 0.6189 0.62215 1.0201 0.0368 4.537-0.25632 1.5401-0.63008 5.0313-0.83053 7.7582-0.20045 2.727-0.49801 5.2076-0.66125 5.5127-0.52784 0.98628-1.5142 1.3143-2.335 0.77643-0.59488-0.38977-0.76649-0.86927-0.92723-2.5905-0.50681-5.4274-1.5959-5.866-15.287-6.1567l-9.1474-0.19424-0.21264 9.6993c-0.40374 18.417-0.20553 23.828 0.95703 26.129 0.46873 0.92744 1.0844 1.4605 2.5251 2.1864l1.9052 0.96 7.4085 0.10953c8.4096 0.12434 11.287-0.18328 13.871-1.4828 2.1472-1.0797 3.5579-3.1984 4.1423-6.2211 0.50099-2.5914 1.0529-3.4457 2.2259-3.4457 1.8735 0 2.0818 1.469 1.1593 8.1747-0.92656 6.735-1.507 8.4484-3.1706 9.3594-0.85622 0.46887-2.1031 0.55183-8.8369 0.58795-4.312 0.0231-11.152-0.0921-15.2-0.25613zm293.92 0.00064c-4.136-0.16328-11.956-0.21993-17.379-0.1259l-9.8586 0.17096-0.78135-0.78134c-0.9319-0.93191-0.95593-1.1639-0.21517-2.0787 0.41693-0.5149 1.2232-0.81329 3.059-1.1321 1.3711-0.23809 2.7018-0.60625 2.9571-0.81813 0.65207-0.54117 1.3285-3.1387 1.7451-6.7015 0.47843-4.0913 0.77888-55.384 0.38518-65.76-0.33712-8.8851-0.56883-9.9783-2.3053-10.876-0.55894-0.28905-2.3647-0.63362-4.078-0.77818-3.2796-0.27671-3.9293-0.63195-3.9293-2.1486 0-1.722-0.54355-1.6882 24.12-1.4992 23.755 0.18209 23.001 0.20951 29.711-1.0803 0.71331-0.13713 0.94099-0.01366 1.2581 0.68231 0.31209 0.68496 0.28444 1.3898-0.1425 3.635-0.29133 1.5319-0.68218 4.7293-0.86854 7.1053-0.36327 4.6316-0.79888 5.8159-2.2164 6.0257-1.2116 0.17931-1.8319-0.72318-2.0418-2.9703-0.51917-5.5597-2.0111-6.1521-16.54-6.5681-8.1491-0.2333-9.1626-0.20701-9.52 0.24693-0.30781 0.39095-0.4 4.1722-0.4 16.408 0 13.818 0.0635 15.952 0.48515 16.302 0.61113 0.50719 20.98 0.22935 23.159-0.31591 0.82278-0.2059 2.0005-0.87644 2.8451-1.6198 1.6207-1.4266 2.2704-1.5573 3.113-0.6263 0.55402 0.61218 0.5568 0.78051 0.0596 3.6-0.28684 1.6268-0.68937 5.2618-0.89449 8.0778-0.20509 2.816-0.49472 5.4458-0.64359 5.8439-0.14886 0.39817-0.63968 0.89206-1.0906 1.0976-1.3098 0.59679-2.0819-0.42825-2.382-3.1626-0.55869-5.0897-1.6065-5.4895-15.113-5.7663l-9.1819-0.18817-0.19715 0.78551c-0.10845 0.43203-0.15258 8.0495-0.0981 16.928l0.0991 16.142 0.8 1.6c0.67555 1.3511 1.0986 1.7493 2.72 2.56l1.92 0.96h8.8c9.9892 0 11.311-0.21817 13.697-2.2603 1.6518-1.4139 2.1567-2.3436 2.806-5.167 0.64794-2.8174 1.1703-3.6127 2.3731-3.6127 1.7373 0 1.9572 1.5284 1.1149 7.749-0.95584 7.059-1.6166 9.0325-3.3114 9.8898-1.0634 0.53793-13.258 0.65355-24.04 0.22792zm76 0.00008c-3.696-0.16463-11.699-0.23032-17.785-0.14598-12.234 0.16954-12.543 0.12999-12.714-1.6284-0.128-1.3125 0.73712-1.8764 3.2436-2.1143 2.1372-0.20283 3.2966-0.83851 3.7842-2.0748 0.18726-0.4748 0.57395-2.2313 0.85932-3.9033 0.4568-2.6765 0.51962-7.2877 0.52525-38.56 0.007-37.337 0.003-37.436-1.3834-38.997-0.79126-0.89048-1.8347-1.2006-4.931-1.4657-2-0.17121-2.9835-0.40517-3.44-0.81827-0.804-0.72762-0.81497-1.5836-0.0304-2.3682 0.58151-0.58149 1.2982-0.60902 15.92-0.61151 16.523-0.0029 16.751 0.01974 16.751 1.6582 0 1.2253-0.91175 1.7095-3.68 1.9545-3.1972 0.28298-4.4229 0.84014-5.1753 2.3524-0.55558 1.1167-0.58473 2.9215-0.58473 36.215 0 36.448 0.0382 37.591 1.3466 40.267 1.3849 2.8329 5.5788 3.6862 17.194 3.4985 9.0075-0.14558 10.316-0.39458 12.672-2.4107 1.4689-1.2574 2.906-3.8965 3.5051-6.4368 0.43936-1.8631 1.2417-2.918 2.2193-2.918 1.1518 0 1.6233 0.8697 1.617 2.9829-0.0112 3.8211-1.4001 11.735-2.3979 13.664-1.015 1.9627-1.5972 2.0682-11.676 2.1158-5.016 0.0237-12.144-0.0916-15.84-0.25627zm69.76-0.002c-4.224-0.1649-11.969-0.22515-17.21-0.13389-5.5326 0.0963-9.8577 0.0414-10.311-0.13099-0.42953-0.1633-0.86921-0.64859-0.97709-1.0784-0.30134-1.2007 0.3425-2.0668 1.7022-2.2897 4.5381-0.74421 4.5791-0.7614 5.2018-2.1805 1.3754-3.1345 1.4343-4.898 1.4343-42.931 0-35.527-0.0112-36.182-0.64-37.419-1.0137-1.9947-1.8362-2.405-5.4284-2.7081-2.7149-0.22907-3.2521-0.37021-3.7502-0.9854-0.70042-0.86495-0.72583-1.2876-0.12666-2.106 0.44413-0.60657 0.99856-0.61884 23.6-0.52233 23.623 0.10088 23.923 0.08998 29.597-1.0754 0.85312-0.17522 1.0957-0.07939 1.5486 0.61174 0.49363 0.75341 0.49756 0.99474 0.0485 2.9921-0.26864 1.195-0.65296 4.2606-0.85405 6.8126-0.43085 5.468-0.90301 6.8281-2.4218 6.9763-1.3544 0.13217-1.71-0.42626-2.027-3.1834-0.1488-1.2941-0.45363-2.7468-0.67734-3.2282-1.0129-2.1793-5.7474-3.0502-17.108-3.1469-4.224-0.03596-7.8613-0.04568-8.0829-0.0216-0.31926 0.03469-0.38569 3.4804-0.32 16.604l0.0829 16.56 7.84 0.0956c8.201 0.1 15.539-0.31186 16.736-0.9393 0.38694-0.20275 1.2536-0.86056 1.9259-1.4618 2.3691-2.1187 3.6556-0.82478 2.9285 2.9455-0.23757 1.232-0.59581 4.472-0.79613 7.2-0.47574 6.4787-0.55693 6.9622-1.2926 7.6978-0.73629 0.7363-1.2434 0.78038-2.0652 0.17951-0.44864-0.32806-0.65757-1.0124-0.80707-2.6436-0.27165-2.9635-0.79968-3.9597-2.5632-4.8355-1.8942-0.94078-7.8485-1.4222-15.987-1.2925l-5.92 0.0943-0.0845 16c-0.0925 17.506-0.003 18.693 1.5661 20.478 1.7691 2.0149 3.1006 2.2424 13.078 2.2348 8.4622-0.006 8.8716-0.0353 10.666-0.7528 3.3518-1.3401 4.7755-3.2271 5.6436-7.4803 0.42128-2.0641 0.97482-2.8002 2.1057-2.8002 1.3599 0 1.8642 1.2534 1.6142 4.0121-0.37213 4.1065-1.4594 10.112-2.088 11.533-1.0932 2.4714-1.3218 2.5288-10.247 2.5767-4.3202 0.0232-11.311-0.0928-15.535-0.2577zm-600.93-0.43c-0.83187-0.41204-1.0701-2.1175-0.37632-2.6933 0.26662-0.22128 1.5897-0.53949 2.9401-0.70714 3.9212-0.48682 4.8602-1.2725 5.5693-4.66 0.2762-1.3193 3.6119-30.036 8.3561-71.936 1.4706-12.988 1.6525-13.701 3.5375-13.858 0.92583-0.07708 1.3792 0.09257 2.1378 0.8 0.6616 0.61694 6.6477 12.236 19.134 37.138 14.183 28.286 18.3 36.24 18.757 36.24 0.42096 0 0.93107-0.74242 1.8139-2.64 0.67555-1.452 2.5202-5.304 4.0992-8.56s5.7547-11.896 9.2794-19.2 7.8021-16.16 9.5055-19.68 4.845-10.046 6.9814-14.502c2.1364-4.4561 4.2088-8.4521 4.6054-8.88 1.3431-1.4492 3.1204-0.88414 3.9318 1.25 0.18964 0.49877 2.3614 18.571 4.8262 40.159 2.4648 21.589 4.7089 40.04 4.9869 41.003 1.4443 5.0017 3.8647 6.8342 9.5666 7.2427 3.5657 0.25546 4.2874 0.42803 4.6538 1.1128 0.52115 0.97373 0.0498 1.8997-1.2447 2.4454-1.0004 0.4217-2.3934 0.46159-9.6492 0.2763-9.7802-0.24976-15.421-0.66937-16.608-1.2354-1.1286-0.53829-1.2854-1.9586-0.32867-2.9771 0.90189-0.96 1.0196 0.75388-2.2498-32.742-1.4155-14.502-2.5736-26.562-2.5736-26.8 0-0.23791-0.29165-0.43256-0.64807-0.43256-0.49225 0-0.90681 0.55788-1.724 2.32-0.59177 1.276-2.8373 5.92-4.99 10.32-3.6968 7.5559-5.6497 11.57-11.52 23.68-11.979 24.713-12.465 25.678-13.46 26.744-1.6111 1.7247-3.2605 1.0304-5.2101-2.1933-2.0293-3.3554-11.092-20.609-14.997-28.55-4.8436-9.8509-10.584-21.646-13.121-26.96-1.8008-3.7719-2.5851-4.7411-2.978-3.68-0.28553 0.77128-4.6318 51.294-4.6318 53.842 0 3.8211 0.5462 4.322 5.3746 4.9282 2.6525 0.33306 3.2654 0.69893 3.2654 1.9494 0 1.7637 0.0314 1.7597-13.701 1.7638-8.0737 0.003-12.884-0.11587-13.311-0.32729zm664.64-0.002c-0.8077-0.40017-1.0138-1.6929-0.4031-2.528 0.3153-0.43124 1.0352-0.6823 2.4269-0.84639 4.7077-0.55509 5.1309-1.2982 5.5468-9.7399 0.435-8.8321 0.1432-23.489-0.5145-25.845-0.8771-3.1428-2.4201-5.7699-16.301-27.755-8.18-12.956-9.3064-14.567-12.199-17.457-2.7788-2.7752-4.4828-3.7881-7.2312-4.2988-2.6046-0.48398-3.7735-2.2943-2.1488-3.3278 1.0767-0.68489 25.97-0.66143 26.656 0.02512 1.0141 1.0142 0.3491 2.2963-1.6172 3.1179-1.3254 0.55375-1.5752 1.3138-0.9832 2.9914 0.8065 2.2862 22.295 37.829 22.868 37.825 0.3077-0.002 1.0818-1.0028 1.918-2.48 0.7711-1.3621 5.0108-8.5966 9.4216-16.077 9.8286-16.668 9.9013-16.806 10.072-19.168 0.1487-2.0567 0.062-2.2013-2.0158-3.3435-1.0263-0.56431-1.2999-0.90844-1.3803-1.7361-0.081-0.83506 0.041-1.0846 0.64-1.3059 1.0249-0.37884 23.629-0.38398 24.336-0.0055 0.7529 0.40297 0.7283 1.9522-0.042 2.6494-0.3401 0.30784-1.5545 0.68325-2.7646 0.85461-4.2907 0.60764-7.3038 3.0124-11.998 9.5756-4.8101 6.726-20.124 31.418-22.087 35.614-0.5119 1.0939-1.0777 2.764-1.2574 3.7112-0.6997 3.6894-0.2178 29.514 0.608 32.581 0.6466 2.4013 2.1155 3.1623 6.7454 3.4946 3.1787 0.22817 4.16 0.70185 4.16 2.0079 0 1.8245 0.3012 1.7916-16.425 1.7935-9.8883 0.00096-15.603-0.11562-16.031-0.32742z"/>
  <path id="path137" fill="#9c1b20" d="m46.88 204.65c-5.2874-1.1536-10.003-3.8064-14.287-8.0363-3.1435-3.1044-4.6029-5.267-5.9212-8.7739-1.7478-4.6495-2.1962-7.471-2.1614-13.6 0.02697-4.759 0.13319-5.8241 0.8485-8.5085 1.1624-4.362 2.164-6.1303 5.1639-9.1164 3.4489-3.4331 6.8373-5.9232 10.133-7.4469 3.8757-1.7917 6.3028-2.2561 12.623-2.4154 8.3272-0.20991 11.975-1.4298 15.855-5.3021 3.5784-3.5716 5.1215-7.7519 5.8042-15.723l0.37717-4.4038 0.88384 0.45705c0.56028 0.28973 0.95597 0.34033 1.0809 0.13822 0.30719-0.49704 65.516-0.43385 66.014 0.064 0.29707 0.29707 0.48545 0.24332 0.84114-0.24 0.37718-0.51251 0.48536-0.5378 0.61091-0.1428 0.0839 0.264 0.5381 1.7633 1.0093 3.3318 1.7105 5.6933 5.3474 10.869 10.745 15.291 2.9628 2.4274 7.8534 4.4562 12.918 5.3588 3.4754 0.61935 8.9409 0.42484 12.536-0.44614 6.2163-1.506 9.4724-3.2498 13.567-7.2658 4.3286-4.2451 6.832-8.2879 8.3708-13.519 0.532-1.8083 0.86268-2.4297 1.3646-2.5645 0.36434-0.0978 15.873-0.17986 34.463-0.18227 26.765-0.003 33.87 0.0794 34.135 0.39809 0.18371 0.22136 0.49322 2.1294 0.68781 4.24 0.91771 9.9542 3.8422 15.24 10.168 18.379 3.0993 1.5377 5.403 1.9544 12.409 2.2445 6.8434 0.28335 8.7729 0.63617 12.199 2.2308 9.5159 4.4285 14.79 12.676 15.381 24.05 0.50409 9.712-2.0565 17.713-7.42 23.184-3.8161 3.8926-7.1854 5.9967-12.32 7.6937-2.5249 0.83445-3.0988 0.90025-8 0.91731-5.9473 0.0207-7.7517-0.32132-11.812-2.2389-12.483-5.896-18.735-20.403-14.745-34.215 0.30617-1.06 1.1378-3.3171 1.848-5.0158 4.3568-10.42 3.4326-19.549-2.6436-26.112-5.3883-5.8199-12.751-9.3741-23.181-11.19-3.856-0.67123-15.276-0.75853-19.067-0.14575-9.6288 1.5565-16.729 4.7519-21.775 9.7993-4.4444 4.4458-5.9047 7.9754-5.9047 14.272 0 4.3963 0.75595 7.4016 3.0144 11.984 2.586 5.2468 3.1135 7.2156 3.3027 12.326 0.11953 3.2286 0.0313 4.9495-0.34783 6.7827-2.2644 10.95-10.495 19.65-21.489 22.715-2.2758 0.63442-3.3237 0.7149-9.44 0.72509-6.2379 0.0104-7.1158-0.0568-9.4064-0.7203-7.2111-2.0886-13.2-6.3692-17.129-12.243-3.2964-4.9282-4.8248-9.9938-4.8248-15.991 0-5.3355 0.68672-8.092 3.3869-13.595 2.2353-4.5555 3.0547-7.6994 3.0859-11.84 0.0433-5.7564-1.5799-9.93-5.4288-13.959-2.5231-2.6409-5.2449-4.5969-8.724-6.2694-2.1226-1.0204-7.9637-3.0535-9.12-3.1744-0.352-0.0368-1.936-0.32314-3.52-0.63631-3.6219-0.71608-15.262-0.82113-19.2-0.17328-12.237 2.0132-21.431 6.8624-25.914 13.669-2.3435 3.5579-3.403 7.2518-3.3912 11.824 0.0113 4.3956 0.58076 6.8769 2.883 12.562 2.1855 5.3966 2.6604 7.6208 2.6815 12.558 0.0127 2.977-0.14991 5.0515-0.52311 6.6731-2.4272 10.546-9.9866 18.501-19.993 21.039-3.4928 0.88601-9.3758 1.0239-12.704 0.29783zm96.48-88.17c0-0.176 0.144-0.32 0.32-0.32s0.32 0.144 0.32 0.32-0.144 0.32-0.32 0.32-0.32-0.144-0.32-0.32zm130.56-1.6267c0-0.78967 0.1361-1.2613 0.344-1.192 0.1892 0.0631 0.3332 0.21906 0.32 0.34666s-0.024 0.664-0.024 1.192-0.144 0.96-0.32 0.96-0.32-0.588-0.32-1.3067z"/>
  <path id="path135" fill="#961a1d" d="m48.211 204.8c-5.8504-1.0573-10.677-3.5507-14.973-7.7353-4.2245-4.1147-5.9762-7.0444-7.4509-12.461-1.3312-4.8896-1.8138-12.094-0.90649-13.531 0.12378-0.19618 0.22823-1.0767 0.23211-1.9567 0.0044-0.99931 0.2173-1.897 0.56706-2.3912 0.55244-0.78051 0.56-0.75635 0.56 1.7902 0 2.295-0.08903 2.6846-0.80234 3.5112-0.6705 0.777-0.7175 0.94785-0.28601 1.0398 0.28398 0.0605 0.67384-0.0475 0.86634-0.24 0.24764-0.24765 8.0058-0.35001 26.526-0.35001 18.21 0 26.176-0.10314 26.176-0.33889 0-0.18639 0.144-0.24989 0.32-0.14111 0.45592 0.28177 0.3968-0.5824-0.07771-1.136-0.21874-0.2552-0.11074-0.20697 0.24 0.10719 0.58725 0.52598 0.63772 0.9818 0.63772 5.76 0 5.6317-0.26278 7.1014-2.0822 11.645-1.3785 3.4427-2.8996 5.6075-6.3773 9.0764-2.4792 2.4729-3.61 3.3353-5.9529 4.5401-4.2079 2.1638-6.8698 2.8434-11.668 2.9788-2.2 0.0621-4.697-0.0131-5.5489-0.16704zm244.27 0.1133c-2.5281-0.48706-5.8258-1.5656-7.7698-2.5412-5.3768-2.6984-10.423-7.9965-12.779-13.417-1.7708-4.0738-2.2397-6.1744-2.4105-10.8-0.10481-2.8373-0.0485-4.4 0.15849-4.4 0.17656 0 0.42174-0.468 0.54485-1.04 0.17941-0.83357 0.28815-0.94473 0.54783-0.56 0.28435 0.42129 3.5104 0.46932 26.376 0.39271 17.598-0.059 26.052 0.0189 26.052 0.24 0 0.18001 0.36 0.32729 0.8 0.32729 0.74557 0 0.8 0.10776 0.8 1.5836 0 2.8704-0.96157 9.0918-1.8078 11.696-1.3135 4.0429-2.8968 6.7757-5.5196 9.5269-3.9466 4.1399-7.8212 6.5453-13.058 8.1064-2.2728 0.67757-3.6161 0.85841-6.9749 0.93899-2.288 0.0549-4.52 0.0304-4.96-0.0543zm-123.68-0.41399c-6.8445-1.1031-12.551-4.0811-17.301-9.0291-3.9771-4.1427-6.404-8.7077-7.53-14.164-0.77193-3.7403-0.82704-8.359-0.10304-8.6369 0.27839-0.10683 13.958-0.19423 30.4-0.19423h29.894v-1.2408c0-0.72131 0.20421-1.4103 0.48774-1.6456 0.60338-0.50076 0.65789-0.43759 0.88309 1.0232 0.14933 0.96873 0.0583 1.2604-0.51471 1.6493l-0.69612 0.4725 0.88 0.34275c0.85572 0.3333 0.87989 0.4114 0.8758 2.8307-0.009 5.1271-1.9689 11.356-4.9674 15.785-1.8255 2.6963-5.839 6.5769-8.7496 8.4597-2.3998 1.5524-6.0956 3.124-9.1216 3.8787-2.2467 0.56036-11.919 0.87422-14.437 0.46845zm-25.095-32.851c0.0154-0.37278 0.0912-0.44861 0.19333-0.19333 0.0924 0.231 0.0811 0.507-0.0252 0.61333-0.10633 0.10633-0.18196-0.0827-0.16807-0.42zm127.33 0.0267c0-0.264-0.216-0.48-0.48-0.48-0.50466 0-0.6009-0.63628-0.27831-1.84 0.23076-0.8611 0.75831-0.95931 0.75831-0.14116 0 0.31836 0.21142 0.85836 0.46982 1.2 0.61294 0.81038 0.61838 1.7412 0.0102 1.7412-0.264 0-0.48-0.216-0.48-0.48zm51.094-0.0526c-0.44147-0.44149-0.2224-2.6842 0.28109-2.8774 0.29936-0.11487 0.47004-0.5221 0.43174-1.03-0.15466-2.0504 0.45827-2.8092 0.80771-0.99996 0.10199 0.528 0.27616 1.4252 0.38707 1.9937 0.18784 0.96312 0.16272 1.0014-0.36793 0.56106-0.52944-0.43941-0.55879-0.39954-0.41696 0.56677 0.15094 1.0283-0.63309 2.2754-1.1227 1.7858zm-245.88-3.47c0.04982-1.1447 0.17966-1.44 0.63308-1.44 0.31372 0 0.57041-0.20252 0.57041-0.45004 0-0.2925-0.22404-0.39146-0.64-0.28268-0.43771 0.11446-0.64 0.01-0.64-0.33108 0-1.424 1.3522-0.63236 1.8117 1.0606 0.11895 0.43825 0.40798 0.98854 0.64229 1.2229 0.23431 0.23431 0.41466 0.66773 0.40076 0.96316-0.01565 0.33288-0.08664 0.38503-0.18667 0.13715-0.22705-0.56269-1.0681-0.4997-1.0681 0.08 0 0.29755-0.30145 0.48-0.79308 0.48-0.73589 0-0.78856-0.10383-0.73041-1.44zm1.3635 0.16c0.10877-0.176 0.04527-0.32-0.14111-0.32-0.18639 0-0.33889 0.144-0.33889 0.32s0.0635 0.32 0.14111 0.32 0.23011-0.144 0.33889-0.32zm67.44 0.4137c-0.52489-1.1302-0.50478-1.585 0.08-1.8094 0.264-0.10131 0.48-0.0159 0.48 0.18976 0 0.27044 0.0968 0.27717 0.34964 0.0243 0.25286-0.25286 0.25286-0.53049 0-1.003-0.46161-0.86255-0.44199-1.0154 0.13036-1.0154 0.58778 0 0.65894 1.613 0.096 2.176-0.29867 0.29866-0.29867 0.46933 0 0.768 0.2112 0.2112 0.384 0.6432 0.384 0.96 0 0.88934-1.0668 0.6856-1.52-0.2903zm59.12-0.87482c0-0.45038 0.144-0.81888 0.32-0.81888s0.32 0.2795 0.32 0.62111-0.144 0.71011-0.32 0.81889c-0.18149 0.11216-0.32-0.15668-0.32-0.62112zm66.983 0.26882c-0.10812-0.28176-0.0483-0.60576 0.13303-0.72 0.18128-0.11424 0.40156-0.4957 0.48951-0.8477 0.0879-0.352 0.1766-0.028 0.19702 0.72 0.0367 1.3454-0.43954 1.838-0.81956 0.8477zm-69.543-1.7084c0-0.70836 0.13033-0.7508 1.1197-0.36468 0.43754 0.17075 0.7649 0.0878 1.0358-0.26249 0.34214-0.4424 0.38166-0.4032 0.29019 0.28785-0.0881 0.66552-0.30254 0.81669-1.2758 0.89932-1.0001 0.0849-1.1699 0.004-1.1699-0.56zm0.32-1.2905c0-0.43378 0.56867-0.70314 0.77605-0.3676 0.0991 0.16043-0.0349 0.37426-0.29788 0.47518-0.26299 0.10092-0.47817 0.0525-0.47817-0.10758z"/>
 </g>
</svg>
