<?xml version="1.0" encoding="UTF-8" standalone="no"?>
<svg id="svg14" xmlns:rdf="http://www.w3.org/1999/02/22-rdf-syntax-ns#" xmlns="http://www.w3.org/2000/svg" height="53.373" width="250" version="1.1" preserveAspectRatio="xMidYMid" xmlns:cc="http://creativecommons.org/ns#" xmlns:dc="http://purl.org/dc/elements/1.1/" viewBox="0 0 300 64.047194">
 <metadata id="metadata20">
  <rdf:RDF>
   <cc:Work rdf:about="">
    <dc:format>image/svg+xml</dc:format>
    <dc:type rdf:resource="http://purl.org/dc/dcmitype/StillImage"/>
    <dc:title/>
   </cc:Work>
  </rdf:RDF>
 </metadata>
 <g id="g12" transform="matrix(.48840 0 0 .48840 25 5.3373)">
  <path id="path2" fill="#706d6e" d="m511.87 49.436v-9.002h-11.17v-13.995l-0.37628 0.11574-10.5 3.2124-0.20673 0.06313v10.604h-16.58v-5.906c0-2.7506 0.61525-4.8557 1.8272-6.2595 1.2039-1.3871 2.9258-2.0921 5.1212-2.0921 1.579 0 3.2136 0.37199 4.8582 1.1055l0.41223 0.18383v-9.4805l-0.19374-0.07118c-1.5344-0.55149-3.6221-0.8294-6.2087-0.8294-3.2607 0-6.2236 0.70932-8.8071 2.1156-2.5854 1.4081-4.6193 3.4185-6.0435 5.9748-1.4199 2.5532-2.1404 5.5019-2.1404 8.765v6.4947h-7.784v9.0021h7.784v37.924h11.175v-37.926h16.573v24.1c0 9.9256 4.6818 14.956 13.915 14.956 1.5177 0 3.114-0.17826 4.7449-0.52673 1.6594-0.35714 2.7897-0.71428 3.455-1.0956l0.14731-0.08665v-9.0856l-0.45431 0.30081c-0.60658 0.4048-1.3617 0.7347-2.2474 0.97981-0.88946 0.25006-1.6322 0.37571-2.2072 0.37571-2.1633 0-3.7632-0.58306-4.7567-1.7331-1.0039-1.1605-1.5133-3.1907-1.5133-6.0299v-22.154zm-82.748 29.919c-4.056 0-7.2535-1.345-9.5072-3.9941-2.2672-2.6627-3.416-6.4588-3.416-11.282 0-4.9758 1.1488-8.8703 3.4172-11.58 2.2549-2.6918 5.422-4.0579 9.4149-4.0579 3.8747 0 6.9589 1.3048 9.168 3.8802 2.2208 2.5885 3.3473 6.452 3.3473 11.486 0 5.0959-1.0596 9.0101-3.1492 11.628-2.0747 2.599-5.1949 3.9192-9.275 3.9192zm0.49764-40.051c-7.7382 0-13.884 2.2672-18.266 6.7392-4.3791 4.4726-6.5999 10.662-6.5999 18.397 0 7.347 2.1676 13.257 6.4427 17.562 4.2751 4.3073 10.093 6.4891 17.291 6.4891 7.5011 0 13.525-2.2988 17.905-6.8326 4.3797-4.5295 6.5987-10.66 6.5987-18.215 0-7.4621-2.0822-13.416-6.1908-17.693-4.1105-4.2788-9.8922-6.4477-17.181-6.4477zm-42.883-0.000248c-5.2636 0-9.6173 1.3462-12.944 4.0009-3.3461 2.6702-5.0432 6.1728-5.0432 10.411 0 2.2029 0.36643 4.16 1.0875 5.8194 0.72542 1.6656 1.8482 3.1313 3.3393 4.3618 1.4805 1.2206 3.7645 2.4993 6.7924 3.7998 2.5445 1.0473 4.4429 1.9336 5.6486 2.6318 1.1785 0.68395 2.0153 1.3722 2.4876 2.0419 0.45865 0.65547 0.69199 1.5523 0.69199 2.6603 0 3.1523-2.3607 4.6861-7.2189 4.6861-1.8018 0-3.8573-0.37571-6.1091-1.1178-2.253-0.74089-4.3581-1.8061-6.2558-3.1721l-0.4636-0.33238v10.758l0.17022 0.07923c1.5814 0.72975 3.5745 1.345 5.924 1.8296 2.3452 0.48464 4.4757 0.73161 6.327 0.73161 5.7117 0 10.311-1.353 13.667-4.0232 3.3776-2.6887 5.0897-6.2737 5.0897-10.659 0-3.1629-0.92162-5.8757-2.7383-8.0631-1.8036-2.1701-4.9343-4.1619-9.3017-5.9228-3.4792-1.3964-5.708-2.5557-6.6272-3.4451-0.88634-0.85973-1.3363-2.0754-1.3363-3.6147 0-1.3648 0.5552-2.4579 1.6959-3.3436 1.1494-0.89006 2.7488-1.3425 4.7554-1.3425 1.8618 0 3.767 0.294 5.661 0.87025 1.8934 0.57625 3.5559 1.3481 4.9442 2.2926l0.45618 0.31195v-10.205l-0.17517-0.07551c-1.2806-0.54901-2.9691-1.0188-5.0197-1.4001-2.0426-0.37756-3.8951-0.56882-5.5056-0.56882zm-47.119 40.052c-4.0548 0-7.2535-1.345-9.5065-3.9941-2.2679-2.6627-3.4148-6.4576-3.4148-11.282 0-4.9758 1.1482-8.8703 3.4172-11.58 2.253-2.6918 5.4196-4.0579 9.4143-4.0579 3.8734 0 6.9577 1.3048 9.1674 3.8802 2.2208 2.5885 3.3473 6.452 3.3473 11.486 0 5.0959-1.0603 9.0101-3.1499 11.628-2.0747 2.599-5.1936 3.9192-9.275 3.9192zm0.49888-40.051c-7.74 0-13.886 2.2672-18.266 6.7392-4.3791 4.4726-6.6012 10.662-6.6012 18.397 0 7.3501 2.1688 13.257 6.4439 17.562 4.2751 4.3073 10.093 6.4891 17.291 6.4891 7.4993 0 13.525-2.2988 17.905-6.8326 4.3785-4.5295 6.5987-10.66 6.5987-18.215 0-7.4621-2.0828-13.416-6.192-17.693-4.1117-4.2788-9.8922-6.4477-17.18-6.4477zm-41.83 9.2569v-8.1263h-11.038v46.925h11.038v-24.005c0-4.082 0.92534-7.4349 2.7513-9.9677 1.803-2.5024 4.2058-3.7707 7.139-3.7707 0.99404 0 2.11 0.16402 3.3188 0.48836 1.1964 0.32248 2.063 0.67219 2.5742 1.0405l0.4636 0.33609v-11.128l-0.17888-0.07675c-1.0281-0.43698-2.482-0.65733-4.3222-0.65733-2.7735 0-5.2562 0.8913-7.3823 2.646-1.8662 1.5424-3.2155 3.6574-4.2467 6.2948zm-30.806-9.2571c-5.0637 0-9.5808 1.0863-13.423 3.2266-3.8499 2.1453-6.8271 5.2085-8.8529 9.1036-2.0166 3.8858-3.0403 8.4246-3.0403 13.486 0 4.4336 0.99281 8.5026 2.9549 12.088 1.9633 3.5918 4.7424 6.4019 8.26 8.3509 3.5126 1.9466 7.5723 2.9338 12.067 2.9338 5.2456 0 9.7244-1.0491 13.316-3.1171l0.14484-0.08356v-10.114l-0.4636 0.33857c-1.6266 1.1847-3.4445 2.1304-5.4004 2.8119-1.9509 0.68085-3.7298 1.025-5.289 1.025-4.3314 0-7.8081-1.3555-10.332-4.0269-2.5297-2.6757-3.8121-6.4322-3.8121-11.16 0-4.7573 1.3376-8.6103 3.9737-11.454 2.6275-2.8348 6.111-4.2726 10.353-4.2726 3.6283 0 7.1638 1.2286 10.509 3.6549l0.46236 0.33609v-10.655l-0.14917-0.08418c-1.259-0.70437-2.9753-1.2862-5.107-1.7275-2.1218-0.44008-4.1971-0.66228-6.1698-0.66228zm-32.919 1.131h-11.038v46.925h11.038zm-5.4066-19.99c-1.8166 0-3.4012 0.61834-4.7028 1.8439-1.3072 1.2292-1.9708 2.7766-1.9708 4.6026 0 1.7974 0.65548 3.3164 1.9497 4.5128 1.2862 1.1927 2.8757 1.7974 4.7239 1.7974 1.8476 0 3.4432-0.60472 4.7449-1.7956 1.3103-1.1983 1.9745-2.7172 1.9745-4.5147 0-1.7622-0.64619-3.2941-1.9206-4.553-1.2726-1.2565-2.8874-1.8934-4.7988-1.8934zm-27.541 16.528v50.387h11.265v-65.48h-15.59l-19.81 48.635-19.24-48.635h-16.226v65.478h10.586v-50.392h0.36395l20.308 50.392h7.9888l19.991-50.387z"/>
  <path id="path4" fill="#f1511b" d="m51.927 51.927h-51.927v-51.927h51.927z"/>
  <path id="path6" fill="#80cc28" d="m109.26 51.927h-51.926v-51.927h51.926z"/>
  <path id="path8" fill="#00adef" d="m51.925 109.28h-51.925v-51.926h51.925z"/>
  <path id="path10" fill="#fbbc09" d="m109.26 109.28h-51.926v-51.926h51.926z"/>
 </g>
</svg>
