<?xml version="1.0" encoding="UTF-8" standalone="no"?>
<!-- Created with Inkscape (http://www.inkscape.org/) -->
<svg id="svg259" xmlns:rdf="http://www.w3.org/1999/02/22-rdf-syntax-ns#" xmlns="http://www.w3.org/2000/svg" height="67.386" viewBox="0 0 300 80.863202" width="250" version="1.1" xmlns:cc="http://creativecommons.org/ns#" xmlns:dc="http://purl.org/dc/elements/1.1/">
 <metadata id="metadata265">
  <rdf:RDF>
   <cc:Work rdf:about="">
    <dc:format>image/svg+xml</dc:format>
    <dc:type rdf:resource="http://purl.org/dc/dcmitype/StillImage"/>
    <dc:title/>
   </cc:Work>
  </rdf:RDF>
 </metadata>
 <g id="g269" transform="matrix(.28068 0 0 .28068 9.5625 -30.847)">
  <path id="path283" fill="#e1efd0" d="m353.5 372.13c-43.525-11.427-70.678-51.864-65.558-97.631 4.3323-38.73 31.945-69.555 69.027-77.057 10.179-2.0592 30.026-1.5069 39.532 1.1002 31.032 8.5108 53.048 31.572 61.198 64.103 2.4865 9.9245 2.4295 35.298-0.10052 44.769-8.1438 30.487-28.49 52.79-57.375 62.892-8.0359 2.8105-9.9421 3.0746-24.222 3.3557-12.557 0.24726-16.829-0.0437-22.5-1.5326zm33.827-44.071c15.19-5.2263 25.109-17.825 27.834-35.356 5.608-36.072-27.612-63.005-59.632-48.346-14.323 6.5574-23.505 22.433-23.505 40.642 0 20.24 10.88 36.793 28.305 43.066 7.1153 2.5616 19.542 2.5585 26.998-0.007zm-332.33-41.56v-84.5h5.4154c5.4085 0 5.4227 0.008 11.074 6.4452l5.6586 6.4452 4.8087-3.4547c5.8912-4.2324 15.69-8.7102 23.043-10.53 8.7351-2.1619 23.165-1.7188 32 0.98264 9.0515 2.7676 12.825 4.9655 19.871 11.574l5.3711 5.0376 1.5469-2.3194c2.381-3.57 13.52-11.089 19.587-13.221 33.639-11.823 71.337 6.4058 82.597 39.94 3.5037 10.434 4.0116 19.955 4.0196 75.351l0.01 52.74h-44l-0.022-55.25c-0.0212-53.388-0.0905-55.401-2.055-59.732-1.1182-2.4651-2.7958-5.3414-3.728-6.3917-2.4011-2.7052-11.122-6.6049-14.796-6.6165-7.9376-0.025-15.525 4.917-18.997 12.373l-2.3826 5.117-0.01 55.25-0.01 55.25h-44v-56.04c0-53.499-0.088-56.212-1.9411-59.845-7.7521-15.195-28.476-15.788-36.501-1.0441l-2.56 4.7v112.23h-44zm424.24 0.25 0.25568-84.25 5.5-0.28255 5.5-0.28256 6.8529 8.0862c6.6222 7.8139 6.9252 8.0331 9 6.5087 12.116-8.9019 21.853-13.489 33.855-15.95 24.95-5.1151 49.509 2.2808 67.806 20.42 12.179 12.074 19.594 26.757 21.906 43.383 0.65345 4.6981 1.0795 27.27 1.0795 57.189v49.42h-43.93l-0.29-51.75-0.28-51.75-2.6198-5.5865c-3.3302-7.1013-8.693-12.464-15.794-15.793-7.4723-3.5036-18.092-3.5846-25.8-0.19674-6.1813 2.7168-13.511 10.158-16.607 16.859-2.1367 4.625-2.1851 5.7288-2.4792 56.467l-0.3 51.75h-43.91zm171.76-33.77v-118.02l21.75 0.2695 21.75 0.2695 0.5 73 0.5 73 30.942-39.25 30.942-39.25h50.784l-2.9942 3.75c-1.6468 2.0625-14.228 17.852-27.958 35.089l-24.963 31.339 25.464 44.661c14.005 24.564 26.567 46.574 27.916 48.911l2.452 4.25h-50.596l-15.436-27.75c-8.49-15.262-16.074-28.759-16.854-29.992-1.3701-2.1666-1.9017-1.5999-15.808 16.853l-14.38 19.1v21.79h-44zm176 33.52v-84.5h44v169h-44zm73-0.0195v-84.52l21.75 0.2695 21.75 0.2695 0.25568 84.25 0.25568 84.25h-44.01zm-62-107.83c-15.897-8.1144-17.081-30.615-2.1633-41.099 3.6134-2.5396 5.429-3.0722 11.522-3.3799 11.283-0.56977 18.826 3.7378 23.275 13.292 5.69 12.219 0.0152 27.01-12.351 32.192-5.1668 2.1652-15.029 1.6765-20.282-1.0049zm73.23 0.2382c-13.803-6.8323-17.564-25.125-7.5668-36.804 4.7518-5.5514 10.523-8.0824 18.402-8.071 24.244 0.0354 32.687 31.916 11.648 43.982-6.6758 3.8286-15.82 4.1921-22.484 0.89361z"/>
  <path id="path281" fill="#daecc3" d="m355.9 372.5c-32.458-6.4682-59.497-34.169-66.525-68.154-2.2679-10.966-1.4522-34.912 1.5385-45.164 7.9153-27.133 28.786-49.436 54.589-58.335 11.25-3.8795 21.104-5.2054 33.51-4.5088 38.648 2.17 68.769 27.352 78.183 65.363 3.051 12.319 3.0309 35.136-0.0414 46.801-2.6554 10.083-10.706 26.121-17.169 34.204-11.641 14.56-30.196 25.901-48.84 29.853-8.1886 1.7356-26.388 1.7041-35.246-0.061zm25.216-42.502c21.612-4.0334 36.09-23.888 34.61-47.464-0.64633-10.298-2.7333-16.82-7.8208-24.438-16.453-24.639-54.565-23.711-69.599 1.6931-8.4913 14.349-8.4931 35.978-0.004 50.463 5.4341 9.2726 17.202 17.581 27.876 19.681 6.0976 1.2 8.7918 1.2116 14.937 0.0647zm-326.12-43v-84h5.6542c5.6395 0 5.6684 0.0156 11.073 5.9878l5.4186 5.9878 6.1669-4.1879c3.3918-2.3033 9.5465-5.5234 13.677-7.1558 6.4675-2.5558 9.1764-3.0282 19.51-3.4025 18.346-0.66451 29.535 2.9613 40.167 13.017l5.3327 5.0434 5.3327-5.0434c9.95-9.42 20.79-13.25 37.48-13.25 12.603 0 19.93 1.7421 30.57 7.2683 13.612 7.0697 24.253 19.456 30.492 35.49l2.62 6.74 0.28667 60.75 0.28666 60.75h-43.07l-0.006-54.75c-0.004-35.119-0.38168-56.104-1.0546-58.527-2.2534-8.1144-11.17-14.679-19.94-14.679-8.7694 0-17.686 6.5643-19.94 14.679-0.67287 2.423-1.051 23.408-1.0546 58.527v54.75h-42.92l-0.28955-55.778-0.28956-55.778-2.5548-4.9626c-3.7767-7.3362-10.101-10.982-19.041-10.977-5.8765 0.003-7.2929 0.39018-11.019 3.0092-2.5863 1.8177-5.2854 4.9663-6.8306 7.9679l-2.56 4.96-0.282 55.78-0.282 55.78h-42.936zm425 0v-84l5.25-0.0311 5.25-0.0311 7.0638 7.6666 7.0638 7.6666 4.9362-3.7868c6.2676-4.8082 19.036-10.937 27.436-13.17 8.9261-2.3722 28.146-2.3379 37 0.0661 26.167 7.1048 47.437 28.458 54.032 54.243 1.8383 7.1877 1.9685 11.257 1.9685 61.537v53.84h-42.932l-0.28397-52.25c-0.27826-51.201-0.32753-52.344-2.454-56.946-1.1935-2.583-4.2552-6.7815-6.8036-9.33-15.41-15.4-40.64-11.43-50.53 7.97l-3.5 6.8598-0.28425 51.853-0.29 51.85h-42.93zm171-33.5v-117.5h43v73c0 40.15 0.3375 72.99 0.75 72.978 0.4125-0.0122 14.7-17.778 31.75-39.48l31-39.458 24.75-0.02c13.612-0.011 24.75 0.22772 24.75 0.53052 0 0.30279-12.379 16.079-27.508 35.059l-27.508 34.508 2.4177 4.1915c1.3297 2.3053 13.899 24.329 27.932 48.941l25.52 44.75-25.18-0.03-25.17-0.04-16.5-29.93c-9.075-16.46-16.814-29.832-17.198-29.716-0.38377 0.11686-7.2463 8.9512-15.25 19.632l-14.55 19.42v20.66h-43zm176 33.5v-84h44v168h-44zm73 0v-84h43v168h-43zm-60.5-107.89c-18.001-8.2918-18.796-33.807-1.3242-42.514 22.767-11.345 44.886 15.587 29.436 35.842-5.8097 7.617-19.175 10.789-28.112 6.6719zm71.364-0.90031c-16.937-8.7987-16.899-32.871 0.0651-41.463 16.135-8.1724 34.321 2.8227 34.321 20.75 0 17.95-18.386 29.025-34.386 20.713z"/>
  <path id="path279" fill="#cae4aa" d="m358.07 372.97c-17.64-3.7-31.87-11.48-44.57-24.38-9.5991-9.7464-13.658-15.782-19.013-28.272-8.1813-19.082-8.8499-45.661-1.6688-66.341 10.116-29.131 35.828-51.263 65.563-56.433 43.008-7.4786 83.026 16.068 96.424 56.737 16.528 50.169-9.5778 102.75-57.984 116.8-8.2858 2.4039-31.03 3.5156-38.756 1.8943zm22.975-42.98c11.908-2.2583 23.749-10.678 29.262-20.806 7.5944-13.953 7.5597-33.332-0.0852-47.611-13.388-25.005-48.793-29.043-67.844-7.7375-1.3095 1.4644-4.0666 6.0143-6.1269 10.111l-3.7459 7.4481v13.552c0 13.173 0.0895 13.741 3.2014 20.31 5.7098 12.054 16.808 21.439 28.799 24.355 6.3745 1.5502 9.9322 1.6316 16.54 0.37835zm-326.04-42.99v-84h5.9167c3.2542 0 6.0667 0.40517 6.25 0.90037 0.18333 0.49521 2.5243 3.2331 5.2022 6.0842l4.8688 5.1838 4.1312-2.9541c11.646-8.32 23.681-12.21 37.811-12.21 15.69 0 27.44 4.148 37.316 13.174l5.5002 5.0269 5.5517-5.0739c10.885-9.9487 22.667-13.686 40.571-12.869 17.683 0.80662 29.674 6.0517 42.148 18.436 7.3644 7.3116 11.874 14.409 15.55 24.472l2.68 7.34 0.28694 60.25 0.28693 60.25h-43.07l-0.022-55.75c-0.0205-52.131-0.14219-56.01-1.8739-59.75-6.126-13.232-22.928-16.592-33.48-6.697-1.5818 1.4833-3.7095 4.497-4.728 6.697-1.7317 3.7403-1.8534 7.6191-1.8739 59.75l-0.02 55.75h-42.92l-0.29-56.25-0.29-56.25-2.8053-4.7724c-1.5429-2.6248-4.66-5.9998-6.927-7.5-3.5347-2.3392-5.1523-2.7276-11.359-2.7276-6.4482 0-7.7094 0.33177-11.573 3.0444-2.3849 1.6744-5.4611 5.0494-6.8361 7.5l-2.5 4.45-0.289 56.25-0.289 56.25h-42.922zm425 0v-84h10.82l6.8034 7.8547 6.8034 7.8548 4.9904-3.9447c12.575-9.9402 28.148-15.117 45.583-15.154 13.93-0.0292 20.819 1.5963 34 8.0234 8.2049 4.0006 10.799 5.9431 19.026 14.249 7.6678 7.7407 10.353 11.275 13.764 18.117 8.13 16.31 8.21 17.06 8.21 77.66v53.34h-42.93l-0.29-52.25-0.28-52.25-2.81-5.71c-11.71-23.86-45.75-23.44-57.71 0.71l-2.4761 5-0.29187 52.25-0.29186 52.25h-42.92zm171-33.5v-117.5h42.988l0.25645 73.614 0.25645 73.614 31.5-40.062 31.5-40.062 24.75-0.0519c13.612-0.0286 24.75 0.14825 24.75 0.39293s-12.396 16.009-27.547 35.033l-27.547 34.588 27.547 48.38c15.15 26.59 27.55 48.64 27.55 48.97 0 0.33278-11.125 0.4847-24.722 0.33759l-24.72-0.27-16.53-29.73c-9.0906-16.35-16.79-29.737-17.109-29.75-0.31957-0.0129-7.1821 8.7342-15.25 19.438l-14.67 19.46v21.08h-43zm176 33.5v-84h44v168h-44zm73 0v-84h43v168h-43zm-60-107.59c-8.5638-3.7036-14.34-12.528-14.34-21.908 0-13.209 10.359-23.533 23.558-23.478 14.833 0.0617 26.259 14.487 22.822 28.812-1.4863 6.1955-7.6477 13.629-13.501 16.287-4.9285 2.2387-13.711 2.3744-18.539 0.28653zm71.278-0.95694c-10.701-5.3325-15.678-17.398-11.758-28.507 2.2457-6.365 5.7858-10.419 11.649-13.341 16.005-7.9756 33.974 3.1208 33.974 20.98 0 17.54-18.128 28.71-33.865 20.868z"/>
  <path id="path277" fill="#b8db8b" d="m357.5 372.55c-24.6-4.48-48.5-22.62-60.02-45.55-7.3492-14.626-10.023-28.243-9.186-46.782 0.68298-15.129 2.8902-23.884 9.2571-36.718 10.888-21.947 31.09-38.351 54.954-44.622 11.337-2.979 30.703-3.0312 42.5-0.11459 32.162 7.9518 55.704 32.721 62.48 65.737 2.0838 10.153 2.182 30.512 0.19304 40.017-9.7896 46.778-53.572 76.511-100.17 68.029zm25.458-42.622c19.559-4.5074 33.062-22.602 33.03-44.263-0.0142-9.7566-1.6182-16.311-6.0068-24.545-4.1047-7.7012-10.239-13.395-18.802-17.452-6.242-2.9572-7.4016-3.1645-17.701-3.1645-10.445 0-11.371 0.17224-17.718 3.2969-13.009 6.4041-21.54 18.695-23.848 34.355-3.375 22.906 10.525 45.703 31.271 51.286 6.3539 1.7099 13.681 1.89 19.773 0.48595zm-327.96-42.93v-84h5.9167c3.2542 0 6.0667 0.40517 6.25 0.90037 0.18333 0.49521 2.5243 3.2331 5.2022 6.0842l4.8688 5.1838 4.3428-3.1188c10.71-7.6911 24.271-12.058 37.38-12.035 15.659 0.0271 28.22 4.5252 37.641 13.479l5.2666 5.0059 5.3598-5c9.7964-9.1388 21.866-13.51 37.233-13.485 25.585 0.0418 46.987 13.275 58.164 35.963 6.2003 12.586 6.3388 14.28 6.3581 77.773l0.01 57.26h-43l-0.022-55.75c-0.0205-52.131-0.14219-56.01-1.8739-59.75-3.551-7.6697-11.089-12.5-19.507-12.5-5.8032 0-9.3182 1.3861-13.469 5.3113-7.3154 6.9175-7.0814 4.713-7.1059 66.939l-0.02 55.75h-42.94l-0.28-56.25-0.28-56.25-2.5-4.46c-9.27-16.52-34.34-13.65-38.896 4.46-0.738 2.93-1.104 22.32-1.104 58.44v54.06h-43zm425 0v-84h10.885l6.6969 7.879 6.6969 7.879 5.1105-3.926c6.7784-5.2073 19.45-11.233 28.11-13.367 9.8663-2.4315 26.615-2.2352 36.787 0.43113 23.71 6.2153 43.455 24.75 52.102 48.91l3.12 8.7 0.29684 55.75 0.29684 55.75h-43.02l-0.29-52.75-0.28-52.75-2.94-5.3c-5.85-10.58-14.8-16.29-26.56-16.96-5.9711-0.34408-8.6512 0.002-13.147 1.699-7.4728 2.8202-14.078 8.7871-17.547 15.85l-2.81 5.71-0.28 52.25-0.29 52.25h-42.93zm171-33.5v-117.5h42.988l0.25645 73.7 0.25645 73.7 31.364-39.775c17.25-21.876 31.884-39.975 32.52-40.219 0.63595-0.24403 11.874-0.32281 24.973-0.17505l23.817 0.26864-27.634 34.727c-25.675 32.264-27.549 34.888-26.431 37 0.66185 1.2503 13.058 23.098 27.548 48.551 14.49 25.45 26.34 46.5 26.34 46.76 0 0.26951-11.089 0.36967-24.642 0.22256l-24.64-0.26-16.61-29.75c-9.13-16.36-16.89-29.75-17.23-29.75-0.34661 0-7.2107 8.7695-15.254 19.488l-14.63 19.49v21.02h-43zm176 33.5v-84h44v168h-44zm73 0v-84h43v168h-43zm-58.86-107.37c-4.982-1.8029-11.123-7.3882-13.234-12.037-2.4486-5.3914-2.4565-14.779-0.017-20.15 6.2418-13.742 25.128-17.751 36.257-7.6959 5.8006 5.2405 7.8568 9.8863 7.8568 17.752 0 7.8654-2.0562 12.511-7.8568 17.752-6.0629 5.4774-15.177 7.2123-23.006 4.3792zm72.715-0.0218c-17.489-6.2478-20.824-30.064-5.7645-41.174 11.469-8.4619 29.157-3.9126 35.026 9.0089 2.1976 4.8382 2.4658 14.237 0.53767 18.838-4.7517 11.339-18.346 17.419-29.799 13.327z"/>
  <path id="path275" fill="#a5d26f" d="m361.5 373.29c-11.55-1.6-27.34-8.15-37.99-15.75-17.41-12.42-30.94-34.62-34.45-56.54-7.51-46.82 19.57-90.4 63.44-102.11 11.198-2.9879 31.572-2.992 43-0.009 35.975 9.3913 60.546 39.451 63.442 77.615 1.4581 19.214-1.6993 35.321-10.178 51.921-4.4371 8.6875-6.537 11.46-15.206 20.079-14.168 14.086-28.222 21.461-46.558 24.432-6.2965 1.0202-19.37 1.2015-25.5 0.35371zm27.5-45.17c7.5968-2.89 15.839-9.7169 19.86-16.451 5.8105-9.7292 6.5987-12.914 6.5993-26.665 0.0006-14.305-1.5577-19.7-8.2263-28.476-8.8813-11.688-20.814-17.092-36.054-16.326-17.925 0.90087-31.423 11.23-37.31 28.55-3.0813 9.0652-3.1021 24-0.0452 32.5 4.7549 13.221 14.461 23.091 27.054 27.508 8.1899 2.8732 19.566 2.614 28.122-0.64071zm-334-41.12v-84h5.4161c5.3497 0 5.4827 0.0736 10.846 6 2.9863 3.3 5.723 6 6.0816 6 0.35854 0 2.8398-1.5718 5.5138-3.4929 22.423-16.109 56.709-15.036 74.064 2.3191l4.9399 4.9399 5.031-4.8493c12.321-11.875 33.79-16.909 52.901-12.403 17.59 4.1471 34.183 17.351 42.081 33.487 6.999 14.298 7.0879 15.289 7.1075 79.25l0.02 56.75h-42.952l-0.27378-57.336-0.27378-57.336-2.7338-3.9137c-4.3736-6.2613-8.975-8.8072-16.657-9.2159-8.1942-0.43594-13.77 2.1772-18.461 8.652l-3.15 4.34-0.27 57.4-0.28 57.4h-42.95v-54.634c0-38.044-0.34661-55.791-1.1414-58.444-4.805-16.038-26.061-20.199-36.782-7.2013-1.7145 2.0785-3.5555 5.354-4.0911 7.279-0.57702 2.0738-0.97614 25.811-0.97944 58.25l-0.007 54.75h-43zm425 0v-84h10.67l6.7655 7.9241 6.7655 7.9241 6.0152-4.4281c13.238-9.7452 27.909-14.526 44.784-14.593 13.357-0.0534 21.84 1.9163 34 7.8949 7.9956 3.9311 10.933 6.1046 18.547 13.725 7.2692 7.2748 9.9685 10.849 13.738 18.189 8.547 16.645 8.7005 18.03 8.7085 78.615v52.75h-43l-0.00079-51.75-0.00079-51.75-2.8806-6c-3.26-6.79-8.52-12.24-15.12-15.66-3.79-1.97-6-2.34-14-2.34-8.6613 0-9.9728 0.26188-14.855 2.9663-6.8278 3.7818-12.522 10.253-15.111 17.174-1.94 5.2-2.03 7.6-2.03 56.4v50.96h-43zm171-33.5v-117.5h42.988l0.25645 73.75 0.25645 73.75 29.908-38c16.45-20.9 30.868-39.021 32.041-40.268 2.1172-2.252 2.3064-2.2663 26.354-2l24.222 0.26825-27.105 34c-14.908 18.7-27.301 34.469-27.54 35.043-0.23957 0.57362 11.952 22.791 27.092 49.372 15.14 26.58 27.53 48.5 27.53 48.72 0 0.21726-11.065 0.27466-24.588 0.12755l-24.59-0.27-16.61-29.75c-9.137-16.362-16.949-29.75-17.36-29.75-0.41089 0-7.2956 8.6906-15.299 19.312l-14.55 19.31v21.38h-43zm176 33.5v-84h44v168h-44zm73 0v-84h43v168h-43zm-58.44-107.49c-9.254-3.2966-14.768-10.445-15.372-19.93-0.48849-7.6715 0.96192-12.538 5.1627-17.323 8.5682-9.7586 22.968-10.813 32.795-2.401 5.328 4.5606 7.8067 10.074 7.8346 17.427 0.0384 10.118-4.3097 17-13.478 21.335-5.6404 2.6665-11.146 2.9561-16.942 0.89117zm72.579 0.18364c-9.2453-3.5125-15.475-12.443-15.48-22.192-0.009-17.624 18.33-28.669 34.178-20.584 16.19 8.2593 16.124 32.943-0.10921 41.224-4.9619 2.5314-14.02 3.2874-18.589 1.5516z"/>
  <path id="path273" fill="#90c74c" d="m361.5 372.96c-44.967-6.9981-75.948-46.529-73.188-93.385 0.77011-13.075 3.5831-23.87 9.186-35.252 10.381-21.089 27.074-35.759 49.502-43.501 9.2754-3.2018 9.902-3.2796 26.5-3.2913 19.66-0.0137 24.676 1.0092 39 7.9539 21.155 10.257 37.314 30.283 43.586 54.017 2.6941 10.194 3.666 30.54 1.9632 41.096-5.5888 34.645-31.373 63.084-64.293 70.912-8.0247 1.9083-24.543 2.6515-32.256 1.4512zm28.93-45.284c14.653-6.7447 23.151-18.621 25.58-35.748 2.0312-14.321-2.5227-29.303-11.931-39.251-16.166-17.094-43.254-17.617-59.728-1.155-18.16 18.146-17.523 50.828 1.33 68.294 8.9051 8.25 17.206 11.278 29.819 10.875 7.2907-0.23243 10.126-0.80535 14.93-3.0166zm-334.43-40.68v-84h4.9011c4.746 0 5.0655 0.18986 10.099 6 2.8588 3.3 5.5366 6 5.9507 6 0.41403 0 3.7458-1.9658 7.4038-4.3684 17.674-11.608 41.735-13.689 60.255-5.2101 2.9991 1.373 8.1164 5.037 11.372 8.142l5.9188 5.6456 5.1942-5.1129c6.2083-6.1111 14.859-10.572 24.406-12.585 33.165-6.994 65.195 12.377 75.218 45.489 1.4529 4.8002 1.7106 13.038 2.0248 64.75l0.36 59.26h-42.1v-53.841c0-57.385-0.14655-59.343-4.9457-66.083-7.7389-10.868-25.517-11.202-33.581-0.6306-5.36 7.03-5.47 8.37-5.47 66.71v53.84h-42v-55.532c0-60.596 0.0875-59.603-5.803-65.809-10.855-11.437-28.789-8.4711-35.326 5.8416-1.6988 3.7192-1.8286 7.9132-1.849 59.75l-0.022 55.75h-42zm424 0v-84h10.599l5.7921 6.9534c8.2168 9.8642 7.4471 9.5904 13.676 4.8653 13.73-10.416 30.162-15.334 48.772-14.598 19.802 0.78298 35.139 7.5672 49.161 21.746 7.9377 8.0266 12.645 15.102 16.66 25.044 4.98 12.34 5.34 17.2 5.34 72.58v51.41h-42v-48.79c0-40.84-0.25254-49.759-1.5498-54.74-3.89-14.92-15.86-24.67-30.45-24.79-13.298-0.10738-24.514 6.8852-30.149 18.797l-2.85 6.02v51.75 51.75h-43zm171-33.5v-117.5h42.988l0.2564 73.959 0.25 73.96 31.89-40.46 31.89-40.46h24.514c23.255 0 24.437 0.0899 23.005 1.75-4.9774 5.7728-53.04 66.708-53.441 67.755-0.26839 0.69942 11.392 22.134 25.913 47.634 14.52 25.499 26.94 47.374 27.599 48.612l1.1988 2.25h-48.87l-16.85-30.46c-9.27-16.76-17.07-30.47-17.35-30.48-0.275-0.006-7.1375 8.8116-15.25 19.594l-14.75 19.61v21.74h-43zm177 33.5v-84h42v168h-42zm72 0v-84h43v168h-43zm-56.88-106.95c-12.297-3.0763-20.113-17.817-15.985-30.146 5.5344-16.53 28.203-20.957 39.388-7.6931 3.97 4.7 5.48 8.92 5.48 15.29 0 12.436-8.2805 21.636-20.605 22.891-2.6923 0.27434-6.4146 0.11867-8.2718-0.34594zm73.38 0.01c-10.81-2.63-17.5-11.25-17.5-22.56 0-13.684 9.3789-22.96 23.168-22.913 5.626 0.0193 7.4184 0.48703 11.474 2.9941 17.231 10.653 14.035 36.197-5.255 42.003-5.0752 1.5274-7.2286 1.6145-11.886 0.48063z"/>
  <path id="path271" fill="#8ac440" d="m361.54 372.95c-29.529-4.6344-54.883-24.61-66.425-52.335-5.2811-12.686-6.5316-19.532-6.5058-35.619 0.0258-16.066 1.8841-25.514 7.4208-37.724 11.165-24.625 34.189-43.352 59.963-48.774 9.0782-1.9096 26.835-1.9314 35.808-0.0438 35.34 7.4339 60.935 35.121 66.283 71.7 1.6014 10.952 0.64 30.253-1.9595 39.342-8.8374 30.899-32.023 54.066-61.563 61.513-9.3592 2.3596-24.635 3.2578-33.022 1.9415zm25.66-44.022c15.729-5.2987 26.347-18.529 28.799-35.885 2.9807-21.1-6.648-41.31-23.421-49.159-22.05-10.319-46.662-1.8894-56.621 19.392-12.308 26.301-0.40024 57.711 24.953 65.823 7.7674 2.4851 18.615 2.4148 26.29-0.17053zm-331.2-41.93v-84l4.75 0.00056c4.5809 0.00053 4.956 0.23091 10.537 6.4718l5.7869 6.4712 4.7983-3.4472c14.948-10.739 33.359-14.712 50.43-10.882 10.106 2.2674 16.836 5.6937 23.741 12.086l5.9562 5.5144 5.9562-5.5144c10.683-9.8907 24.144-14.331 40.544-13.375 15.868 0.92501 29.459 6.9614 40.919 18.174 7.4395 7.2788 12.498 15.372 16.257 26.01l2.83 8 0.30118 59.25 0.30117 59.25h-42.024l-0.28924-56.25c-0.28487-55.398-0.32187-56.311-2.4419-60.25-8.5997-15.979-30.118-16.065-38.626-0.15327-2.2084 4.1298-2.2226 4.4712-2.5102 60.403l-0.29 56.25h-41.87l-0.28-56.83-0.27-56.83-3.01-4.86c-8.65-14-29.32-13.18-36.74 1.45l-2.75 5.43v111.64h-42zm424 0v-84l5.25 0.0636 5.25 0.0636 6.5 7.87c3.575 4.3301 6.8743 7.9014 7.3317 7.9364 0.45744 0.035 2.7074-1.457 5-3.3155 5.9795-4.8474 13.974-9.0814 23.168-12.271 7.2861-2.5272 9.294-2.7782 22.5-2.8126 12.594-0.0327 15.42 0.26935 21.5 2.2983 21.026 7.0166 36.775 20.627 45.944 39.705 7.0387 14.644 6.885 13.091 7.2949 73.709l0.38 54.75h-42.01l-0.3-51.75-0.3-51.75-2.6011-5.5456c-3.6966-7.8811-8.0982-12.435-15.58-16.118-12.788-6.2956-27.72-3.674-37.728 6.6238-2.6846 2.7622-5.2915 6.7971-6.5297 10.106-1.98 5.31-2.06 7.46-2.06 56.98v51.46h-43zm171-33.5v-117.5h42.988l0.2564 74.125 0.25641 74.125 32-40.622 32-40.622 24.229-0.002 24.229-0.002-27.882 35.012-27.882 35.012 25.469 44.738c14.008 24.606 26.583 46.651 27.945 48.988l2.4762 4.25-24.292-0.002-24.292-0.002-17-30.493c-9.35-16.771-17.261-30.495-17.581-30.498-0.31957-0.003-7.1821 8.7526-15.25 19.456l-14.66 19.45v22.08h-43zm177 33.5v-84h42v168h-42zm72 0v-84h43v168h-43zm-56.9-107.16c-17.556-5.0455-22.748-26.372-9.543-39.196 10.842-10.529 28.976-7.2587 35.812 6.4594 6.554 13.152-0.0151 28.277-14.126 32.524-5.1837 1.5601-7.3251 1.5976-12.143 0.21289zm72.126-0.27268c-9.85-3.16-16.23-11.83-16.23-22.05 0-10.745 6.3664-19.089 16.921-22.177 8.3797-2.4521 14.753-0.68088 21.606 6.0046 9.4133 9.1829 10.104 21.518 1.7241 30.794-6.5415 7.2406-15.749 10.086-24.03 7.4255z"/>
 </g>
</svg>
