<?xml version="1.0" encoding="UTF-8" standalone="no"?>
<svg id="svg6" xmlns:rdf="http://www.w3.org/1999/02/22-rdf-syntax-ns#" xmlns="http://www.w3.org/2000/svg" height="80.175" width="250" version="1.1" preserveAspectRatio="xMidYMid" xmlns:cc="http://creativecommons.org/ns#" xmlns:dc="http://purl.org/dc/elements/1.1/" viewBox="0 0 300 96.209491">
 <metadata id="metadata12">
  <rdf:RDF>
   <cc:Work rdf:about="">
    <dc:format>image/svg+xml</dc:format>
    <dc:type rdf:resource="http://purl.org/dc/dcmitype/StillImage"/>
    <dc:title/>
   </cc:Work>
  </rdf:RDF>
 </metadata>
 <g id="g4" transform="matrix(.48828 0 0 .48828 25 8.0175)">
  <path id="path2" d="m0 0h512v164.2h-512zm144.94 123.83-0.009-14.682h-9v-30.919c0-16.053-11.106-23.407-23.257-23.407-10.655 0-18.301 5.5576-22.053 14.558-3.3009-9.9028-12.319-14.558-22.053-14.558-9.4426 0-16.496 4.3541-20.549 11.549v-10.195h-29.088v14.699h9.7347v38.275h-9.0002v14.699h41.257v-14.7h-12.868v-23.573c0-9.4515 3.7523-16.053 13.053-16.053 7.655 0 11.549 4.5045 11.549 16.204v38.122h28.324v-14.7h-8.961v-23.573c0-9.4515 3.7523-16.053 13.053-16.053 7.6462 0 11.549 4.5045 11.549 16.204v38.102zm43.054 1.4956v0.009c21.602 0 37.204-13.655 37.186-35.266 0-18.903-11.876-35.257-36.16-35.257s-36.284 16.354-36.284 36.16c0 21.602 14.407 34.355 35.257 34.355zm0.74337-55.656c9.1595 0 16.505 6.1505 16.531 19.806 0 12.903-6.6019 21-16.655 21-10.531 0-15.929-9.0002-15.929-20.699 0-12.761 6.1506-20.107 16.053-20.107zm106.98 54.16 4.1594-23.691-15.301-1.4956-3.1505 10.505h-21.868l37.523-42.78-1.4956-10.204h-59.47l-2.3983 23.708 13.956 1.4956 3-10.505h21.151l-37.169 42.762 1.9469 10.204zm36.602-43.364v-24.288h-20.257v24.292zm0 43.364v-24.297h-20.25v24.297zm10.62 0h19.08l29.26-103.18h-19.053zm39.31 0h19.08l29.24-103.18h-19.053zm100.82 1.4956 0.0266 0.009c4.2608-0.054 8.444-1.1476 12.186-3.1859l-0.15045-10.204c-0.92361 0.285-1.8831 0.43697-2.8496 0.45133-3.1594 0-4.655-1.354-4.655-5.2567v-29.404c0-15.452-12.301-22.956-26.859-22.956-11.106 0-17.106 1.3894-28.956 6.1948l-3 17.549 15.452 1.6549 2.5045-9.6019c3.1505-1.646 6.301-1.9469 10.354-1.9469 10.956 0 11.106 8.2479 11.106 15.151v2.2478c-3.6859-0.43274-7.3953-0.63373-11.106-0.60178-15.452 0-31.505 3.8939-31.505 20.549 0 14.098 11.115 19.354 20.85 19.354 10.947 0 17.85-6.6019 21.753-13.505 0.90267 8.2479 5.8497 13.505 14.85 13.505zm-37.479-21.602c0-7.3453 6.0001-9.2922 12.929-9.2834 3.2613 0.07276 6.5138 0.36844 9.7347 0.88497-0.44248 11.248-7.7966 16.204-14.699 16.204-5.8674 0-7.9647-3.4514-7.9647-7.8054z"/>
 </g>
</svg>
