<?xml version="1.0" encoding="UTF-8" standalone="no"?>
<svg id="svg4" xmlns:rdf="http://www.w3.org/1999/02/22-rdf-syntax-ns#" xmlns="http://www.w3.org/2000/svg" height="67.564" width="250" version="1.1" xmlns:cc="http://creativecommons.org/ns#" xmlns:dc="http://purl.org/dc/elements/1.1/" viewBox="0 0 300 81.076749">
 <metadata id="metadata10">
  <rdf:RDF>
   <cc:Work rdf:about="">
    <dc:format>image/svg+xml</dc:format>
    <dc:type rdf:resource="http://purl.org/dc/dcmitype/StillImage"/>
    <dc:title/>
   </cc:Work>
  </rdf:RDF>
 </metadata>
 <path id="path2" stroke-width=".24414" fill="#d81f26" d="m59.376 69.965c-3.7607 0.6604-7.5876 0.8584-11.546 1.3857l-12.075-35.365v36.883c-3.761 0.396-7.192 0.924-10.755 1.451v-67.564h10.029l13.724 38.336v-38.336h10.623zm20.784-38.466c4.0911 0 10.359-0.19799 14.12-0.19799v10.557c-4.6848 0-10.161 0-14.12 0.19799v15.704c6.2024-0.39575 12.405-0.92408 18.672-1.1221v10.16l-29.229 2.3098v-62.352h29.229v10.557h-18.672zm57.931-14.186h-10.95v48.562c-3.563 0-7.126 0-10.556 0.13159v-48.693h-10.95v-10.558h32.462zm17.155 13.46h14.45v10.557h-14.45v23.951h-10.35v-58.525h29.494v10.557h-19.135zm36.289 25.27c6.0044 0.13159 12.074 0.59424 17.947 0.92359v10.425c-9.4351-0.59423-18.87-1.1872-28.503-1.3857v-59.25h10.557zm26.854 12.074c3.365 0.19825 6.928 0.39624 10.359 0.79151v-62.153h-10.35zm56.62-61.361-13.39 32.133 13.39 35.431c-3.9592-0.52783-7.918-1.2537-11.877-1.9136l-7.5874-19.53-7.719 17.947c-3.8276-0.6604-7.5225-0.8584-11.349-1.3862l13.592-30.945-12.273-31.736h11.348l6.928 17.749 7.3901-17.749z"/>
</svg>
