<?xml version="1.0" encoding="UTF-8" standalone="no"?>
<svg
   xmlns:dc="http://purl.org/dc/elements/1.1/"
   xmlns:cc="http://creativecommons.org/ns#"
   xmlns:rdf="http://www.w3.org/1999/02/22-rdf-syntax-ns#"
   xmlns:svg="http://www.w3.org/2000/svg"
   xmlns="http://www.w3.org/2000/svg"
   xmlns:sodipodi="http://sodipodi.sourceforge.net/DTD/sodipodi-0.dtd"
   xmlns:inkscape="http://www.inkscape.org/namespaces/inkscape"
   version="1.1"
   id="Ebene_1"
   x="0"
   y="0"
   viewBox="0 0 300 208.20496"
   overflow="scroll"
   xml:space="preserve"
   sodipodi:docname="nivona-seeklogo.com.svg"
   width="250"
   height="173.50414"
   style="overflow:scroll"
   inkscape:version="0.92.4 (5da689c313, 2019-01-14)"><metadata
     id="metadata21"><rdf:RDF><cc:Work
         rdf:about=""><dc:format>image/svg+xml</dc:format><dc:type
           rdf:resource="http://purl.org/dc/dcmitype/StillImage" /><dc:title></dc:title></cc:Work></rdf:RDF></metadata><defs
     id="defs19" /><sodipodi:namedview
     pagecolor="#ffffff"
     bordercolor="#666666"
     borderopacity="1"
     objecttolerance="10"
     gridtolerance="10"
     guidetolerance="10"
     inkscape:pageopacity="0"
     inkscape:pageshadow="2"
     inkscape:window-width="1920"
     inkscape:window-height="1017"
     id="namedview17"
     showgrid="false"
     scale-x="1.2"
     inkscape:zoom="0.64384492"
     inkscape:cx="29.350003"
     inkscape:cy="20.254267"
     inkscape:window-x="-8"
     inkscape:window-y="-8"
     inkscape:window-maximized="1"
     inkscape:current-layer="Ebene_1" /><path
     d="m 123.93472,17.350413 h 52.13056 c 56.77697,0 98.93472,37.398005 98.93472,86.752037 0,49.35403 -42.15775,86.75203 -98.93472,86.75203 h -52.13056 c -56.776971,0.0567 -98.934721,-37.398 -98.934721,-86.75203 0,-49.354032 42.15775,-86.752037 98.934721,-86.752037 z"
     id="path2"
     inkscape:connector-curvature="0"
     style="fill:#b51f1f;stroke-width:0.56663644" /><polygon
     points="147,120.1 133.9,120.1 133.9,188.6 147,188.6 "
     id="polygon4"
     transform="matrix(0.56663645,0,0,0.56663645,24.999999,17.350413)"
     style="fill:#ffffff" /><polygon
     points="209.7,120.1 196.9,120.1 185,169 172.8,120.1 159.9,120.1 177.4,188.6 192.3,188.6 "
     id="polygon6"
     transform="matrix(0.56663645,0,0,0.56663645,24.999999,17.350413)"
     style="fill:#ffffff" /><polygon
     points="278.2,188.6 290.2,188.6 290.2,144.4 310.4,188.6 322.9,188.6 322.9,120.1 311,120.1 311,160.7 292.6,120.1 278.2,120.1 "
     id="polygon8"
     transform="matrix(0.56663645,0,0,0.56663645,24.999999,17.350413)"
     style="fill:#ffffff" /><polygon
     points="62.7,188.6 75,188.6 75,139.8 103.2,188.6 115.8,188.6 115.8,107.5 103.5,113.5 103.5,166.8 76.4,120.1 62.7,120.1 "
     id="polygon10"
     transform="matrix(0.56663645,0,0,0.56663645,24.999999,17.350413)"
     style="fill:#ffffff" /><path
     d="m 156.96963,96.906168 c 0,-4.30644 1.8699,-5.49637 4.81641,-5.49637 2.94651,0 4.81641,1.18993 4.81641,5.49637 v 15.809162 c 0,4.30644 -1.8699,5.49637 -4.81641,5.49637 -2.94651,0 -4.81641,-1.18993 -4.81641,-5.49637 z m -7.42294,14.845882 c 0,9.57615 5.04307,12.97596 12.23935,12.97596 7.19628,0 12.23935,-3.45648 12.23935,-12.97596 V 97.869448 c 0,-9.57615 -5.04307,-12.97597 -12.23935,-12.97597 -7.19628,0 -12.23935,3.45648 -12.23935,12.97597 z"
     id="path12"
     inkscape:connector-curvature="0"
     style="fill:#ffffff;fill-rule:evenodd;stroke-width:0.56663644" /><path
     d="m 227.79918,93.789668 3.68314,15.695832 h -7.36627 z m -7.08295,30.428382 2.09655,-8.15957 h 10.25612 l 1.8699,8.15957 h 7.08296 l -9.3495,-38.757932 h -9.51949 l -9.63282,38.757932 z"
     id="path14"
     inkscape:connector-curvature="0"
     style="fill:#ffffff;fill-rule:evenodd;stroke-width:0.56663644" /></svg>