<?xml version="1.0" encoding="UTF-8" standalone="no"?>
<!-- Created with Inkscape (http://www.inkscape.org/) -->
<svg id="svg3737" xmlns:rdf="http://www.w3.org/1999/02/22-rdf-syntax-ns#" xmlns="http://www.w3.org/2000/svg" height="24.112mm" width="66.146mm" version="1.1" xmlns:cc="http://creativecommons.org/ns#" xmlns:dc="http://purl.org/dc/elements/1.1/" viewBox="0 0 79.375005 28.934099">
 <defs id="defs3731">
  <linearGradient id="linear0" y2="323.4" gradientUnits="userSpaceOnUse" y1="77.372" x2="403.22" x1="403.22">
   <stop id="stop3739" stop-color="#4abfff" offset="0"/>
   <stop id="stop3741" stop-color="#0000ca" offset="1"/>
  </linearGradient>
  <linearGradient id="linear1" y2="328.51" gradientUnits="userSpaceOnUse" y1="80.056" x2="396.63" x1="396.63">
   <stop id="stop3744" stop-color="#4abfff" offset="0"/>
   <stop id="stop3746" stop-color="#0000ca" offset="1"/>
  </linearGradient>
 </defs>
 <metadata id="metadata3734">
  <rdf:RDF>
   <cc:Work rdf:about="">
    <dc:format>image/svg+xml</dc:format>
    <dc:type rdf:resource="http://purl.org/dc/dcmitype/StillImage"/>
    <dc:title/>
   </cc:Work>
  </rdf:RDF>
 </metadata>
 <g id="layer1" transform="translate(61.043 -22.629)">
  <g id="surface1" transform="matrix(.16035 0 0 .16035 -54.87 24.819)">
   <path id="path3751" stroke-linejoin="round" d="m637.34 36.058c-3.8774 0-6.9979 3.1268-6.9979 7.0017v0.52954c0 3.8833 3.1204 7.0017 6.9979 7.0017h256.59c3.8774 0 7.0063-3.1184 7.0063-7.0017v-0.52954c0-3.8749-3.1288-7.0017-7.0063-7.0017zm-576.28 0.253c-3.8774 0-6.9979 3.1268-6.9979 7.0017v0.03362c0 3.8749 3.1204 7.0017 6.9979 7.0017h328.78c3.8774 0 6.9979-3.1268 6.9979-7.0017v-0.03362c0-3.8749-3.1204-7.0017-6.9979-7.0017zm-4.499 255.44c-3.8774 0-6.9979 2.6477-6.9979 5.9342s3.1204 5.9426 6.9979 5.9426h837.44c3.8774 0 6.9979-2.6561 6.9979-5.9426s-3.1204-5.9342-6.9979-5.9342z" transform="matrix(.46443 0 0 .46473 -4.9294 -6.0153)" stroke="#000" stroke-width="5" fill="url(#linear0)"/>
   <path id="path3753" d="m262.16 37.748c-9.3445 0.47911-18.588 9.7166-8.4109 24.972l-38.059 37.059 14.097 17.063 37.807-38.808c24.888 14.171 34.501-24.872 7.4352-24.191 1.7326-11.524-5.6101-16.466-12.869-16.096zm-214.56 2.471c-6.712 0.361-12.886 5.388-11.288 16.096-27.066-0.681-17.478 38.354 7.41 24.183l37.816 38.812 14.088-17.06-38.059-37.059c10.749-16.104-0.16-25.51-9.967-24.972zm32.937 194.68-37.782 38.79c-24.888-14.171-34.501 24.897-7.4436 24.216-3.9363 26.351 39.388 18.206 21.288-8.9013l38.026-37.068zm149.25 1.9669-14.097 17.063 38.059 37.068c-18.1 27.107 25.224 35.219 21.28 8.8761 27.066 0.67243 17.453-38.396-7.4352-24.224z" fill-rule="evenodd" transform="matrix(.46443 0 0 .46473 -4.9294 -6.0153)" stroke="#000" stroke-width="5" fill="#fff"/>
   <path id="path3755" d="m482.01 24.055h10.488c0.0421 1.555 0.0421 3.4378 0 4.9087 0.27756 22.316-11.994 35.874-40.532 35.277v-10.136c18.092-0.38665 29.985-5.6316 30.044-25.141 0.042-1.5466 0.0841-3.1772 0-4.9087z" fill-rule="evenodd" transform="matrix(.46443 0 0 .46473 -4.9294 -6.0153)" stroke="#000" stroke-width="2.5" fill="#000c7f"/>
   <path id="path3757" d="m495.12 18.81v36.53c0.0336 4.9256 4.7017 9.2123 9.252 9.2543h30.187v-9.6914h-25.964c-1.7242 0.01681-2.2289-1.0591-2.128-3.7824v-13.962h28.967v-11.221h-3.9952c-0.65604 1.2608-1.9597 2.1266-3.4737 2.1266s-2.8092-0.86576-3.4653-2.1266h-18.033v-7.1278z" fill-rule="evenodd" transform="matrix(.46443 0 0 .46473 -4.9294 -6.0153)" stroke="#000" stroke-width="2.5" fill="#000c7f"/>
   <path id="path3759" d="m535.91 32.57v11.868h41.365v-11.868z" transform="matrix(.46443 0 0 .46473 -4.9294 -6.0153)" stroke="#000" stroke-width="2.5" fill="#000c7f"/>
   <path id="path3761" d="m527.97 17.155c-3.8101 0-6.9053 3.1436-6.9053 7.0017s3.0952 6.9681 6.9053 6.9681 6.9053-3.11 6.9053-6.9681-3.0952-7.0017-6.9053-7.0017zm0 3.0007c2.1784 0 3.9363 1.7988 3.9363 4.001s-1.7579 4.001-3.9363 4.001c-2.17 0-3.9363-1.7988-3.9363-4.001s1.7663-4.001 3.9363-4.001z" transform="matrix(.46443 0 0 .46473 -4.9294 -6.0153)" stroke="#000" stroke-width="2.5" fill="#000c7f"/>
   <path id="path3763" d="m407.41 18.466v20.618h10.48v-9.7839h18.697c0.0841 23.72-15.215 25.157-27.26 25.157v10.482c7.923 0 38.093 0.75648 37.916-35.639-0.0168-3.6563 0-7.1698 0-10.835z" fill-rule="evenodd" transform="matrix(.46443 0 0 .46473 -4.9294 -6.0153)" stroke="#000" stroke-width="2.5" fill="#000c7f"/>
   <path id="path3765" d="m449.86 18.466v10.137h24.459v-10.137z" fill-rule="evenodd" transform="matrix(.46443 0 0 .46473 -4.9294 -6.0153)" stroke="#000" stroke-width="2.5" fill="#000c7f"/>
   <path id="path3767" d="m580.74 21.71h31.751v9.8847c0.11775 5.0348-1.27 8.8341-2.9606 12.474 2.8429 5.3038 6.2577 8.8257 9.7566 10.507v10.624c-5.23-2.093-10.5-4.262-14.71-13.096-7.44 9.793-16.85 13.197-26.93 12.474v-10.129c1.7495-0.05884 1.6065 0.02522 3.9279 0 5.4755 0 20.876-11.507 19.917-22.854h-20.758z" fill-rule="evenodd" transform="matrix(.46443 0 0 .46473 -4.9294 -6.0153)" stroke="#000" stroke-width="2.5" fill="#000c7f"/>
   <path id="path3769" d="m298.05 290.66c4.9036-3.732 63.09-34.042 102.73 0 27.192 23.359 48.564 13.634 48.564 13.634l30.052-0.70605c-19.673 12.44-43.081 30.007-90.501-4.8919-17.368-12.776-40.549-17.324-64.293-8.0356h-26.553z" fill-rule="evenodd" transform="matrix(.46443 0 0 .46473 -4.9294 -6.0153)" stroke="#000" stroke-width="5" fill="#bf4c00"/>
   <path id="path3771" d="m319.02 281.57v0z" transform="matrix(.46443 0 0 .46473 -4.9294 -6.0153)" stroke="#000" stroke-width="5" fill="none"/>
   <path id="path3773" d="m319.36 281.23c-0.44577 0.33621 0.25233-1.2692-0.34484 1.7483" transform="matrix(.46443 0 0 .46473 -4.9294 -6.0153)" stroke="#000" stroke-width="5" fill="none"/>
   <path id="path3775" d="m319.02 290.66 0.6981-8.7332" transform="matrix(.46443 0 0 .46473 -4.9294 -6.0153)" stroke="#000" stroke-width="5" fill="none"/>
   <path id="path3777" d="m331.25 276.68 1.043 12.583" transform="matrix(.46443 0 0 .46473 -4.9294 -6.0153)" stroke="#000" stroke-width="5" fill="none"/>
   <path id="path3779" d="m344.87 286.82 0.7-11.54" transform="matrix(.46443 0 0 .46473 -4.9294 -6.0153)" stroke="#000" stroke-width="5" fill="none"/>
   <path id="path3781" d="m357.1 274.94-1.0514 11.179" transform="matrix(.46443 0 0 .46473 -4.9294 -6.0153)" stroke="#000" stroke-width="5" fill="none"/>
   <path id="path3783" d="m366.18 288.56v0z" transform="matrix(.46443 0 0 .46473 -4.9294 -6.0153)" stroke="#000" stroke-width="5" fill="none"/>
   <path id="path3785" d="m373.87 276.33-7.3427 11.179" transform="matrix(.46443 0 0 .46473 -4.9294 -6.0153)" stroke="#000" stroke-width="5" fill="none"/>
   <path id="path3787" d="m376.66 290.66 9.7819-8.0356" transform="matrix(.46443 0 0 .46473 -4.9294 -6.0153)" stroke="#000" stroke-width="5" fill="none"/>
   <path id="path3789" d="m397.63 288.91-10.488 6.9933" transform="matrix(.46443 0 0 .46473 -4.9294 -6.0153)" stroke="#000" stroke-width="5" fill="none"/>
   <path id="path3791" d="m401.12 306.38 11.186-8.7332" transform="matrix(.46443 0 0 .46473 -4.9294 -6.0153)" stroke="#000" stroke-width="5" fill="none"/>
   <path id="path3793" d="m433.27 305.33c-0.11776 0-0.23551 0 0 0z" transform="matrix(.46443 0 0 .46473 -4.9294 -6.0153)" stroke="#000" stroke-width="5" fill="none"/>
   <path id="path3795" d="m423.83 315.47 8.3857-9.4392" transform="matrix(.46443 0 0 .46473 -4.9294 -6.0153)" stroke="#000" stroke-width="5" fill="none"/>
   <path id="path3797" d="m441.66 305.33v14.331" transform="matrix(.46443 0 0 .46473 -4.9294 -6.0153)" stroke="#000" stroke-width="5" fill="none"/>
   <path id="path3799" d="m455.98 315.12c-0.4626 0-0.4626 0 0 0z" transform="matrix(.46443 0 0 .46473 -4.9294 -6.0153)" stroke="#000" stroke-width="5" fill="none"/>
   <path id="path3801" d="m455.28 303.59-0.6981 11.188" transform="matrix(.46443 0 0 .46473 -4.9294 -6.0153)" stroke="#000" stroke-width="5" fill="none"/>
   <path id="path3803" stroke-linejoin="round" d="m866.93 64.015 6.3082 7.3463c-105.46 24.594-112.48 174.23-0.71 204.06l-4.8783 8.7248 27.596-7.6573-19.219-18.534-1.0598 9.4392c-49.254-21.324-59.751-74.497-59.751-90.845h25.527v13.625c0 5.5392 8.7221 5.7493 8.7221 0v-12.936h8.0324c2.5401 14.02 20.085 19.98 28.748 9.9184 2.9018-3.379 4.811-8.5651 4.811-15.853 0-7.9263-2.1868-13.499-5.4334-17.021-8.8146-9.5317-25.46-3.9674-27.756 11.078h-8.4025v-12.221c0-6.5142-8.7221-5.8333-8.7221 0 0.008 4.0346 0 11.877 0 11.877h-25.527c4.8867-41.287 29.135-66.478 61.87-84.558v9.779l17.1-18.87zm-712.09 3.16c-61.341 0-111.12 49.785-111.12 111.12 0 61.334 49.784 111.09 111.12 111.09 61.332 0 111.12-49.76 111.12-111.09 0-61.334-49.792-111.12-111.12-111.12zm112.41 5.682c3.255 3.5891 7.0651 6.6655 7.41 14.819 2.4644 59.325 4.954 117.7-4.441 179.87-0.76539 5.0853-5.3662 9.6578-9.4034 10.381h42.996c-3.4232-18.282-2.1364-36.563 1.0009-54.845 3.9279 18.282 8.9155 36.563 16.78 54.845h27.689c-7.6623-84.079-2.2541-196.52 2.969-205.07h-37.067c3.1793 24.821-0.34484 33.193-1.9934 45.944-3.7849-12.65-6.9979-21.425-7.41-45.944zm87.465 0c9.8155 7.6153 9.8744 45.969 9.8744 98.814 0 51.248 2.8765 100.13-14.837 106.25h88.962v-37.16c-14.82 20.165-51.651 11.549-51.651-13.247 0-25.628 0.25233-50.903 0.25233-50.903 19.412-4.8583 30.321 9.599 34.089 16.811l-0.49624-43.969c-8.0408 15.525-26.166 19.055-34.098 18.744 0 0 0.31961-40.531 0.50465-48.903 0.6981-32.352 48.152-32.605 51.904-5.9342v-40.503zm110.19 0c2.1868 0.96662 4.0625 7.2959 4.8194 14.356 1.9766 18.584 2.0859 50.147 2.0859 87.92 0 36.294-2.355 70.168-4.8278 88.963-1.085 8.2457-4.298 11.028-7.0147 13.827h45.966c-11.245-3.1436-9.9921-50.113-9.6305-57.064 16.948 0 46.731-7.3967 46.731-29.688 0-26.729 0.43737-47.717 0.43737-77.809 0-22.93-11.548-40.506-34.283-40.506h-44.283zm152.57 0c9.8071 7.6153 9.8744 45.969 9.8744 98.814 0 51.248 2.9018 100.13-14.812 106.25h88.937v-37.16c-14.828 20.165-51.66 11.549-51.66-13.247v-50.9c18.125 0 30.607 11.078 34.375 18.29v-45.448c-8.0408 15.525-18.268 18.744-34.375 18.744v-48.903c0-32.361 48.405-32.605 52.156-5.9342v-40.506h-84.496zm130.18 0.50432c-20.396 0.29419-40.751 13.381-40.751 41.682v113.91c0 73.774 81.779 55.459 81.779 8.0272v-43.313h-35.309c4.5839 8.4054 4.9036 26.174 4.9036 33.538 0 15.197-22.373 18.921-22.373-3.1604v-99.217c-0.34485-23.216 22.028-19.089 22.028-10.498 0 8.3886 3.2971 29.057-3.8354 34.966h34.586v-40.91c-0.18-22.858-20.64-35.331-41.04-35.029zm-251.36 21.064c5.1559 0 22.979 2.5973 22.979 16.433v65.688c0 23.325-17.755 21.661-22.979 21.661zm376.94 68.151c3.6503 0 6.5941 3.7656 6.5941 8.3802 0 4.6062-2.9438 8.3382-6.5941 8.3382-3.6419 0-6.6194-3.732-6.6194-8.3382 0-4.6146 2.9774-8.3802 6.6194-8.3802zm0 0" fill-rule="evenodd" transform="matrix(.46443 0 0 .46473 -4.9294 -6.0153)" stroke="#000" stroke-linecap="round" stroke-width="5" fill="url(#linear1)"/>
   <path id="path3805" stroke-linejoin="round" d="m584.22 70.873c-7.267 0-13.491 4.6818-16.124 11.314l-18.596 4.976 17.377 4.2447c0.74857 6.6319 4.8783 12.171 10.53 14.684v4.7238c-17.453 3.3033-30.624 18.475-30.624 36.656 0 11.457 5.2316 21.711 13.466 28.562l-7.5025 10.028 6.4427 0.63041-6.1904 9.8679h11.91l-7.7548 27.25 11.161-0.0588 2.4392 41.094c-20.371-0.4707-35.729 29.436 13.558 3.1856 19.782 19.912 37.874 11.053 12.372-2.4712l2.599-41.934 9.7482-0.0588-5.5596-27.007h10.463l-6.182-9.9016 6.182-0.59678-6.5941-8.8088c9.1342-6.8168 15.03-17.626 15.03-29.78 0-18.172-13.188-33.311-30.624-36.631v-5.1189c5.1559-2.6057 8.9155-7.7582 9.7566-13.911l18.655-5.371-19.724-4.0346c-2.5821-6.7495-8.8735-11.532-16.216-11.532zm13.188 65.033c4.8026 3.7992 7.9062 9.6578 7.9062 16.248 0 6.5982-3.1036 12.448-7.9062 16.256zm-26.654 0.81532v30.873c-4.2475-3.7992-6.939-9.2964-6.939-15.441 0-6.1359 2.6915-11.633 6.939-15.432z" transform="matrix(.46443 0 0 .46473 -4.9294 -6.0153)" stroke="#000" stroke-width="5" fill="#e30a0a"/>
   <path id="path3807" d="m181.35 259.21 11.531 17.466c-28.311 37.597-56.252 31.134-81.762-1.0423l11.531-19.921z" fill-rule="evenodd" transform="matrix(.46443 0 0 .46473 -4.9294 -6.0153)" stroke="#000" stroke-width="5" fill="#fff"/>
   <path id="path3809" d="m188.34 270.64c-24.888 14.222-53.376 10.448-73.377-3.2781" fill-rule="evenodd" transform="matrix(.46443 0 0 .46473 -4.9294 -6.0153)" stroke="#000" stroke-width="5" fill="#fff"/>
   <path id="path3811" d="m146.05 264.46-3.4905 14.323" fill-rule="evenodd" transform="matrix(.46443 0 0 .46473 -4.9294 -6.0153)" stroke="#000" stroke-width="5" fill="#fff"/>
   <path id="path3813" d="m163.36 278.86-2.969-13.449" fill-rule="evenodd" transform="matrix(.46443 0 0 .46473 -4.9294 -6.0153)" stroke="#000" stroke-width="5" fill="#fff"/>
   <path id="path3815" d="m138.72 264.11c-19.522 14.071-39.363 29.217-62.552 55.207l1.4046 16.424-4.197-6.2872-2.4476 3.1436-2.0943-8.7416-5.9381 1.4037v-7.3379l-9.437-0.69764 1.3962-3.4966h-5.9381l18.168-3.1436c16.409-19.69 34.615-36.36 53.815-51.38z" fill-rule="evenodd" transform="matrix(.46443 0 0 .46473 -4.9294 -6.0153)" stroke="#000" stroke-width="5" fill="#bf4c00"/>
   <path id="path3817" d="m94.689 282.62 3.4989 12.928" fill-rule="evenodd" transform="matrix(.46443 0 0 .46473 -4.9294 -6.0153)" stroke="#000" stroke-width="5" fill="#7f3300"/>
   <path id="path3819" d="m110.16 269.09 3.6587 14.146" fill-rule="evenodd" transform="matrix(.46443 0 0 .46473 -4.9294 -6.0153)" stroke="#000" stroke-width="5.1782" fill="#7f3300"/>
   <path id="path3821" d="m129.28 270.05-3.4989-9.4393" fill-rule="evenodd" transform="matrix(.46443 0 0 .46473 -4.9294 -6.0153)" stroke="#000" stroke-width="5" fill="#7f3300"/>
   <path id="path3823" d="m85.261 308.48-4.896-11.53" fill-rule="evenodd" transform="matrix(.46443 0 0 .46473 -4.9294 -6.0153)" stroke="#000" stroke-width="5" fill="#7f3300"/>
   <path id="path3825" d="m76.522 319.66c-1.7495-1.7483-9.0838-9.4393-9.0838-9.4393" fill-rule="evenodd" transform="matrix(.46443 0 0 .46473 -4.9294 -6.0153)" stroke="#000" stroke-width="5" fill="#7f3300"/>
   <path id="path3827" d="m166.32 262.71c69.886 76.523 100.22 62.402 132.08 42.977l-25.51-1.0507c-38.177 13.978-71.232-29.192-89.803-45.423z" fill-rule="evenodd" transform="matrix(.46443 0 0 .46473 -4.9294 -6.0153)" stroke="#000" stroke-width="5" fill="#bf4c00"/>
   <path id="path3829" d="m175.41 272.14c14.324-6.2872 15.022-6.2872 15.022-6.2872" fill-rule="evenodd" transform="matrix(.46443 0 0 .46473 -4.9294 -6.0153)" stroke="#000" stroke-width="5" fill="#9c3d00"/>
   <path id="path3831" d="m203.36 278.78-15.375 5.9426" fill-rule="evenodd" transform="matrix(.46443 0 0 .46473 -4.9294 -6.0153)" stroke="#000" stroke-width="5" fill="#9c3d00"/>
   <path id="path3833" d="m215.59 289.26-12.928 8.3886" fill-rule="evenodd" transform="matrix(.46443 0 0 .46473 -4.9294 -6.0153)" stroke="#000" stroke-width="5" fill="#9c3d00"/>
   <path id="path3835" d="m229.21 300.1-10.833 7.3379" fill-rule="evenodd" transform="matrix(.46443 0 0 .46473 -4.9294 -6.0153)" stroke="#000" stroke-width="5" fill="#9c3d00"/>
   <path id="path3837" d="m244.59 306.03-9.7819 10.137" fill-rule="evenodd" transform="matrix(.46443 0 0 .46473 -4.9294 -6.0153)" stroke="#000" stroke-width="5" fill="#9c3d00"/>
   <path id="path3839" d="m259.21 307.83-6.1904 12.835" fill-rule="evenodd" transform="matrix(.46443 0 0 .46473 -4.9294 -6.0153)" stroke="#000" stroke-width="5" fill="#9c3d00"/>
   <path id="path3841" d="m273.59 316.51-1.05-10.82" fill-rule="evenodd" transform="matrix(.46443 0 0 .46473 -4.9294 -6.0153)" stroke="#000" stroke-width="5" fill="#9c3d00"/>
   <path id="path3843" d="m479.74 290.66c4.6933-4.3792 40.919-36.421 77.22 5.5896 10.909 12.625 28.925 12.053 39.489 7.6909h27.596c-25.653 15.231-48.178 29.318-86.304-4.8919-21.423-19.232-31.381-7.4808-31.381-7.4808z" fill-rule="evenodd" transform="matrix(.46443 0 0 .46473 -4.9294 -6.0153)" stroke="#000" stroke-width="5" fill="#bf4c00"/>
   <path id="path3845" d="m621.61 290.86s5.6689-0.84895 32.727 0c6.2325-3.7992 14.341-5.5224 34.005 8.5399 16.351 11.683 42.029 38.018 76.102 37.555 22.314-0.29419 52.038-13.709 74.268-35.992 9.6052-9.6242 31.146-46.482 33.543-70.32l-10.598-13.356c-3.1709 43.674-53.392 113.75-105.88 104.12-23.895-4.3792-64.688-38.564-78.97-43.321l-25.502-0.35302c-10.564 0.33621-21.641 8.5483-29.699 13.129z" fill-rule="evenodd" transform="matrix(.46443 0 0 .46473 -4.9294 -6.0153)" stroke="#000" stroke-width="5" fill="#bf4c00"/>
   <path id="path3847" d="m502.8 292.06v0z" transform="matrix(.46443 0 0 .46473 -4.9294 -6.0153)" stroke="#000" stroke-width="5" fill="none"/>
   <path id="path3849" d="m502.1 278.43 0.69811 12.23" fill-rule="evenodd" transform="matrix(.46443 0 0 .46473 -4.9294 -6.0153)" stroke="#000" stroke-width="5" fill="#9c3d00"/>
   <path id="path3851" d="m513.98 288.21 2.1027-14.323" fill-rule="evenodd" transform="matrix(.46443 0 0 .46473 -4.9294 -6.0153)" stroke="#000" stroke-width="5" fill="#9c3d00"/>
   <path id="path3853" d="m536 279.48v0z" transform="matrix(.46443 0 0 .46473 -4.9294 -6.0153)" stroke="#000" stroke-width="5" fill="none"/>
   <path id="path3855" d="m525.51 291.01 9.7903-11.179" fill-rule="evenodd" transform="matrix(.46443 0 0 .46473 -4.9294 -6.0153)" stroke="#000" stroke-width="5" fill="#9c3d00"/>
   <path id="path3857" d="m538.09 299.4 13.281-9.4393" fill-rule="evenodd" transform="matrix(.46443 0 0 .46473 -4.9294 -6.0153)" stroke="#000" stroke-width="5" fill="#9c3d00"/>
   <path id="path3859" d="m564.65 300.79-10.833 8.7332" fill-rule="evenodd" transform="matrix(.46443 0 0 .46473 -4.9294 -6.0153)" stroke="#000" stroke-width="5" fill="#9c3d00"/>
   <path id="path3861" d="m571.99 318.96 8.0324-12.927" fill-rule="evenodd" transform="matrix(.46443 0 0 .46473 -4.9294 -6.0153)" stroke="#000" stroke-width="5" fill="#9c3d00"/>
   <path id="path3863" d="m591.91 305.33 0.34484 14.676" fill-rule="evenodd" transform="matrix(.46443 0 0 .46473 -4.9294 -6.0153)" stroke="#000" stroke-width="5" fill="#9c3d00"/>
   <path id="path3865" d="m606.23 313.37c-0.22709-0.21854-0.70651-0.70606 0 0z" fill-rule="evenodd" transform="matrix(.46443 0 0 .46473 -4.9294 -6.0153)" stroke="#000" stroke-width="5" fill="#9c3d00"/>
   <path id="path3867" d="m605.18 303.59 0.6981 9.0862" fill-rule="evenodd" transform="matrix(.46443 0 0 .46473 -4.9294 -6.0153)" stroke="#000" stroke-width="5" fill="#9c3d00"/>
   <path id="path3869" stroke-linejoin="round" d="m646.76 279.13c0.41213-0.10086 0.34484 4.976 0.34484 6.2956v5.5896" transform="matrix(.46443 0 0 .46473 -4.9294 -6.0153)" stroke="#000" stroke-width="5" fill="none"/>
   <path id="path3871" stroke-linejoin="round" d="m660.48 277.03-3.4905 11.532" transform="matrix(.46443 0 0 .46473 -4.9294 -6.0153)" stroke="#000" stroke-width="5" fill="none"/>
   <path id="path3873" stroke-linejoin="round" d="m676.98 279.31-7.8137 9.5065" transform="matrix(.46443 0 0 .46473 -4.9294 -6.0153)" stroke="#000" stroke-width="5.3664" fill="none"/>
   <path id="path3875" stroke-linejoin="round" d="m692.18 286.82-10.48 7.3379" transform="matrix(.46443 0 0 .46473 -4.9294 -6.0153)" stroke="#000" stroke-width="5" fill="none"/>
   <path id="path3877" stroke-linejoin="round" d="m704.41 294.15-10.127 9.0862" transform="matrix(.46443 0 0 .46473 -4.9294 -6.0153)" stroke="#000" stroke-width="5" fill="none"/>
   <path id="path3879" stroke-linejoin="round" d="m718.04 303.94-11.876 8.0356" transform="matrix(.46443 0 0 .46473 -4.9294 -6.0153)" stroke="#000" stroke-width="5" fill="none"/>
   <path id="path3881" stroke-linejoin="round" d="m720.98 322.31 10.665-9.8007" transform="matrix(.46443 0 0 .46473 -4.9294 -6.0153)" stroke="#000" stroke-width="4.5913" fill="none"/>
   <path id="path3883" stroke-linejoin="round" d="m746.69 317.92-9.437 13.272" transform="matrix(.46443 0 0 .46473 -4.9294 -6.0153)" stroke="#000" stroke-width="5" fill="none"/>
   <path id="path3885" stroke-linejoin="round" d="m761.71 322.81c-0.10934 0.0252-0.2271 0 0 0z" transform="matrix(.46443 0 0 .46473 -4.9294 -6.0153)" stroke="#000" stroke-width="5" fill="none"/>
   <path id="path3887" stroke-linejoin="round" d="m754.03 335.04 8.7389-12.583" transform="matrix(.46443 0 0 .46473 -4.9294 -6.0153)" stroke="#000" stroke-width="5" fill="none"/>
   <path id="path3889" stroke-linejoin="round" d="m778.49 320.71z" transform="matrix(.46443 0 0 .46473 -4.9294 -6.0153)" stroke="#000" stroke-width="5" fill="none"/>
   <path id="path3891" stroke-linejoin="round" d="m773.94 335.38c-0.10934 0.0336 0-0.22695 0 0z" transform="matrix(.46443 0 0 .46473 -4.9294 -6.0153)" stroke="#000" stroke-width="5" fill="none"/>
   <path id="path3893" stroke-linejoin="round" d="m779.18 319.66-4.5419 15.718" transform="matrix(.46443 0 0 .46473 -4.9294 -6.0153)" stroke="#000" stroke-width="5" fill="none"/>
   <path id="path3895" stroke-linejoin="round" d="m798.06 313.72-1.0514 15.02" transform="matrix(.46443 0 0 .46473 -4.9294 -6.0153)" stroke="#000" stroke-width="5" fill="none"/>
   <path id="path3897" stroke-linejoin="round" d="m818.67 315.12z" transform="matrix(.46443 0 0 .46473 -4.9294 -6.0153)" stroke="#000" stroke-width="5" fill="none"/>
   <path id="path3899" stroke-linejoin="round" d="m814.13 302.54 4.7437 13.886" transform="matrix(.46443 0 0 .46473 -4.9294 -6.0153)" stroke="#000" stroke-width="5" fill="none"/>
   <path id="path3901" stroke-linejoin="round" d="m829.09 289.9 6.838 12.205" transform="matrix(.46443 0 0 .46473 -4.9294 -6.0153)" stroke="#000" stroke-width="5.583" fill="none"/>
   <path id="path3903" stroke-linejoin="round" d="m848.72 285.77-8.0324-12.574" transform="matrix(.46443 0 0 .46473 -4.9294 -6.0153)" stroke="#000" stroke-width="5" fill="none"/>
   <path id="path3905" stroke-linejoin="round" d="m858.51 266.55-8.3857-9.7839" transform="matrix(.46443 0 0 .46473 -4.9294 -6.0153)" stroke="#000" stroke-width="5" fill="none"/>
   <path id="path3907" stroke-linejoin="round" d="m858.15 241.04 9.3193 6.5814" transform="matrix(.46443 0 0 .46473 -4.9294 -6.0153)" stroke="#000" stroke-width="5" fill="none"/>
   <path id="path3909" stroke-linejoin="round" d="m871.59 185.74c8.3941 12.524 12.633 18.324 30.641 34.84-3.2382-0.63881-5.9549-1.6306-8.352-2.8242-2.4055-1.202-4.4914-4.3372-6.4764-5.8249 2.7419 4.8583 4.6764 9.7166 5.4334 14.575-3.7849-3.5387-6.9306-6.4385-11.363-10.624 3.1541 7.4892 2.1532 9.7671 2.969 14.331-9.7062-9.1703-18.445-18.668-24.215-29.15z" fill-rule="evenodd" transform="matrix(.46443 0 0 .46473 -4.9294 -6.0153)" stroke="#000" stroke-width="5" fill="#bf4c00"/>
   <path id="path3911" d="m884.14 200.85-19.925 1.4037" fill-rule="evenodd" fill-opacity=".99608" transform="matrix(.46443 0 0 .46473 -4.9294 -6.0153)" stroke="#000" stroke-width="5" fill="#9c3d00"/>
   <path id="path3913" d="m892.57 211.04-18.992 6.2284" fill-rule="evenodd" fill-opacity=".99608" transform="matrix(.46443 0 0 .46473 -4.9294 -6.0153)" stroke="#000" stroke-width="5" fill="#9c3d00"/>
   <path id="path3915" d="m869.44 162.54c5.2232-2.572 12.473 7.6489 7.1661 13.835-5.9213 6.9092-14.139 28.788-1.2364 49.659 4.2307 6.842-5.5007 13.348-14.08 2.4712-13.415-17.004-6.3334-58.838 8.1502-65.966z" fill-rule="evenodd" transform="matrix(.46443 0 0 .46473 -4.9294 -6.0153)" stroke="#000" stroke-width="5" fill="#bf4c00"/>
   <path id="path3917" d="m862.77 168.72 10.623 11.364" fill-rule="evenodd" fill-opacity=".99608" transform="matrix(.46443 0 0 .46473 -4.9294 -6.0153)" stroke="#000" stroke-width="5" fill="#9c3d00"/>
   <path id="path3919" d="m868.46 194.42-11.119-6.6739" fill-rule="evenodd" fill-opacity=".99608" transform="matrix(.46443 0 0 .46473 -4.9294 -6.0153)" stroke="#000" stroke-width="5" fill="#9c3d00"/>
   <path id="path3921" d="m869.15 211.91c-1.0598-0.23535-13.491-3.11-13.491-3.11" fill-rule="evenodd" fill-opacity=".99608" transform="matrix(.46443 0 0 .46473 -4.9294 -6.0153)" stroke="#000" stroke-width="5.096" fill="#9c3d00"/>
   <path id="path3923" d="m873.15 223.32-14.576-0.73967" fill-rule="evenodd" fill-opacity=".99608" transform="matrix(.46443 0 0 .46473 -4.9294 -6.0153)" stroke="#000" stroke-width="5" fill="#9c3d00"/>
   <path id="path3925" stroke-linejoin="round" d="m153.75 101.65c-37.033 0-67.758 26.342-73.435 60.779h146.88c-5.6774-34.437-36.402-60.779-73.435-60.779z" transform="matrix(.46443 0 0 .46473 -4.9294 -6.0153)" stroke="#000" stroke-width="5" fill="#ffde1e"/>
   <path id="path3927" d="m85.605 145.3c45.251-7.6489 93.689-7.6069 136.68 1.8492 2.4728 3.7908 3.2382 8.4306 4.483 12.827l-145.34-0.7c0.45419-4.6566 1.0009-9.3216 4.1886-13.978z" fill-rule="evenodd" transform="matrix(.46443 0 0 .46473 -4.9294 -6.0153)" stroke="#000" stroke-width="5" fill="#eb0000"/>
   <path id="path3929" d="m34.064 172.91c102.48 21.3 191.76 16.93 236.74-2.1-69.3-31.33-190.41-26.17-236.74 2.1z" fill-rule="evenodd" transform="matrix(.46443 0 0 .46473 -4.9294 -6.0153)" stroke="#000" stroke-width="5" fill="#ffde1e"/>
   <path id="path3931" d="m128.59 246.29-8.7389 12.574c21.776 6.7663 44.603 7.6069 66.387 0.35303l-7.6876-14.323z" fill-rule="evenodd" transform="matrix(.46443 0 0 .46473 -4.9294 -6.0153)" stroke="#000" stroke-width="4" fill="#fff"/>
   <path id="path3933" d="m147.45 264.46 0.6981-15.726" fill-rule="evenodd" transform="matrix(.46443 0 0 .46473 -4.9294 -6.0153)" stroke="#000" stroke-width="4" fill="#fff"/>
   <path id="path3935" d="m159.34 264.46 0.34484-15.029" fill-rule="evenodd" transform="matrix(.46443 0 0 .46473 -4.9294 -6.0153)" stroke="#000" stroke-width="4" fill="#fff"/>
   <path id="path3937" d="m171.56 250.13 3.1373 12.927" fill-rule="evenodd" transform="matrix(.46443 0 0 .46473 -4.9294 -6.0153)" stroke="#000" stroke-width="4" fill="#fff"/>
   <path id="path3939" d="m132.08 262.36 4.5419-15.02" fill-rule="evenodd" transform="matrix(.46443 0 0 .46473 -4.9294 -6.0153)" stroke="#000" stroke-width="4" fill="#fff"/>
   <path id="path3941" d="m79.667 176.05c3.5746-11.112 19.766-14.785 74.075-15.289 54.301-0.49592 72.687 2.5636 74.773 13.541 2.9775 15.676-10.917 78.624-74.773 78.624-64.209 0-78.583-62.839-74.075-76.876z" fill-rule="evenodd" transform="matrix(.46443 0 0 .46473 -4.9294 -6.0153)" stroke="#000" stroke-width="5" fill="#fff"/>
   <path id="path3943" d="m61.93 87.492c0 6.0117-4.8672 10.883-10.875 10.883-6.0039 0-10.871-4.8711-10.871-10.883 0-6.0078 4.8672-10.879 10.871-10.879 6.0078 0 10.875 4.8711 10.875 10.879z" fill-opacity=".99216"/>
   <path id="path3945" d="m92.762 87.492c0 6.0117-4.8672 10.883-10.875 10.883-6.0039 0-10.871-4.8711-10.871-10.883 0-6.0078 4.8672-10.879 10.871-10.879 6.0078 0 10.875 4.8711 10.875 10.879z" fill-opacity=".99216"/>
   <path id="path3947" d="m70.855 101.13c0 2.4219-1.9648 4.3867-4.3828 4.3867-2.4219 0-4.3828-1.9648-4.3828-4.3867s1.9609-4.3828 4.3828-4.3828c2.418 0 4.3828 1.9609 4.3828 4.3828z" fill-opacity=".99216"/>
  </g>
 </g>
</svg>
