<?xml version="1.0" encoding="UTF-8" standalone="no"?>
<svg id="svg14" xmlns:rdf="http://www.w3.org/1999/02/22-rdf-syntax-ns#" xmlns="http://www.w3.org/2000/svg" height="61.047" viewBox="0 0 300 73.25593" width="250" version="1.1" xmlns:cc="http://creativecommons.org/ns#" xmlns:dc="http://purl.org/dc/elements/1.1/">
 <metadata id="metadata20">
  <rdf:RDF>
   <cc:Work rdf:about="">
    <dc:format>image/svg+xml</dc:format>
    <dc:type rdf:resource="http://purl.org/dc/dcmitype/StillImage"/>
    <dc:title/>
   </cc:Work>
  </rdf:RDF>
 </metadata>
 <path id="path2" stroke-width="2.0229" fill="#253b80" d="m118.48 19.757h-13.835a1.9217 1.9217 0 0 0 -1.8995 1.6224l-5.5953 35.475a1.153 1.153 0 0 0 1.1409 1.3311h6.6047a1.9217 1.9217 0 0 0 1.8995 -1.6244l1.5091-9.5682a1.9217 1.9217 0 0 1 1.8975 -1.6244h4.3795c9.1131 0 14.373-4.4099 15.746-13.149 0.619-3.8233 0.0263-6.8272-1.764-8.931-1.9662-2.3101-5.4537-3.532-10.084-3.532zm1.5961 12.957c-0.75656 4.9642-4.5495 4.9642-8.217 4.9642h-2.0876l1.4646-9.2709a1.153 1.153 0 0 1 1.1389 -0.97301h0.95682c2.4983 0 4.8549 0 6.0727 1.4241 0.72621 0.84961 0.94873 2.1119 0.6716 3.8556zm39.758-0.15981h-6.625a1.153 1.153 0 0 0 -1.1389 0.97301l-0.29332 1.853-0.46324-0.6716c-1.4342-2.0815-4.6324-2.7774-7.8245-2.7774-7.3208 0-13.574 5.5447-14.791 13.323-0.63316 3.8799 0.26702 7.5899 2.4679 10.177 2.0188 2.3789 4.9075 3.3701 8.3444 3.3701 5.8987 0 9.1697-3.7929 9.1697-3.7929l-0.29534 1.8408a1.153 1.153 0 0 0 1.1369 1.3351h5.9675a1.9217 1.9217 0 0 0 1.8995 -1.6244l3.57-22.675a1.149 1.149 0 0 0 -1.1348 -1.3311zm-9.2345 12.894c-0.63923 3.7848-3.6432 6.3256-7.4746 6.3256-1.9238 0-3.4612-0.61698-4.4483-1.7862-0.97908-1.1611-1.3513-2.8138-1.0398-4.6547 0.59675-3.7524 3.6513-6.3761 7.424-6.3761 1.8813 0 3.4106 0.62507 4.418 1.8044 1.0094 1.1915 1.41 2.8543 1.1207 4.687zm44.51-12.894h-6.66a1.9298 1.9298 0 0 0 -1.592 0.84354l-9.1819 13.525-3.892-12.997a1.9278 1.9278 0 0 0 -1.8449 -1.3715h-6.542a1.153 1.153 0 0 0 -1.0944 1.5253l7.333 21.519-6.894 9.7321a1.153 1.153 0 0 0 0.94064 1.8206h6.6492a1.9197 1.9197 0 0 0 1.5799 -0.82534l22.142-31.962a1.153 1.153 0 0 0 -0.94671 -1.8105z"/>
 <path id="path4" stroke-width="2.0229" fill="#179bd7" d="m217.16 19.757h-13.837a1.9217 1.9217 0 0 0 -1.8975 1.6224l-5.5953 35.475a1.151 1.151 0 0 0 1.1369 1.3311h7.1003a1.3452 1.3452 0 0 0 1.327 -1.1369l1.588-10.056a1.9217 1.9217 0 0 1 1.8975 -1.6244h4.3775c9.1151 0 14.373-4.4099 15.748-13.149 0.62103-3.8233 0.0243-6.8272-1.766-8.931-1.9642-2.3101-5.4496-3.532-10.08-3.532zm1.5961 12.957c-0.75454 4.9642-4.5474 4.9642-8.217 4.9642h-2.0856l1.4666-9.2709a1.149 1.149 0 0 1 1.1369 -0.97301h0.95682c2.4962 0 4.8549 0 6.0727 1.4241 0.72622 0.84961 0.94671 2.1119 0.66958 3.8556zm39.756-0.15981h-6.6209a1.147 1.147 0 0 0 -1.1369 0.97301l-0.29332 1.853-0.46526-0.6716c-1.4342-2.0815-4.6304-2.7774-7.8225-2.7774-7.3208 0-13.572 5.5447-14.789 13.323-0.63114 3.8799 0.265 7.5899 2.4659 10.177 2.0229 2.3789 4.9075 3.3701 8.3444 3.3701 5.8987 0 9.1697-3.7929 9.1697-3.7929l-0.29534 1.8408a1.153 1.153 0 0 0 1.1409 1.3351h5.9655a1.9217 1.9217 0 0 0 1.8975 -1.6244l3.5825-22.675a1.1551 1.1551 0 0 0 -1.1429 -1.3311zm-9.24 12.894c-0.63519 3.7848-3.6432 6.3256-7.4746 6.3256-1.9197 0-3.4612-0.61698-4.4483-1.7862-0.97908-1.1611-1.3472-2.8138-1.0398-4.6547 0.6008-3.7524 3.6513-6.3761 7.424-6.3761 1.8813 0 3.4106 0.62507 4.418 1.8044 1.0135 1.1915 1.414 2.8543 1.1207 4.687zm17.045-24.718-5.6782 36.125a1.151 1.151 0 0 0 1.1369 1.3311h5.7086c0.94873 0 1.7538-0.68778 1.8995-1.6244l5.5994-35.473a1.153 1.153 0 0 0 -1.14 -1.334h-6.3923a1.1551 1.1551 0 0 0 -1.1369 0.97503z"/>
 <path id="path6" stroke-width="2.0229" fill="#253b80" d="m39.698 65.08 1.058-6.72-2.3567-0.05462h-11.253l7.821-49.587a0.63923 0.63923 0 0 1 0.63519 -0.54213h18.974c6.2993 0 10.646 1.3108 12.916 3.8981 1.064 1.2137 1.7417 2.4821 2.0694 3.8779 0.34389 1.4646 0.34996 3.2144 0.01416 5.3485l-0.02427 0.15576v1.3675l1.064 0.60282a7.4644 7.4644 0 0 1 2.1544 1.6426c0.9103 1.0377 1.499 2.3567 1.7478 3.9204 0.25691 1.6082 0.17194 3.5218-0.24882 5.6884-0.48549 2.4922-1.2704 4.6627-2.3304 6.4388a13.244 13.244 0 0 1 -3.6918 4.0458c-1.4079 0.9993-3.0809 1.7579-4.9722 2.2434-1.8327 0.4774-3.9224 0.71812-6.2143 0.71812h-1.476c-1.0559 0-2.0815 0.3803-2.8867 1.062a4.4706 4.4706 0 0 0 -1.505 2.6864l-0.11126 0.60484-1.8691 11.844-0.08496 0.43492c-0.02225 0.13756-0.06069 0.20633-0.11733 0.25286a0.31355 0.31355 0 0 1 -0.1942 0.0708z"/>
 <path id="path8" stroke-width="2.0229" fill="#179bd7" d="m71.623 21.614c-0.05664 0.3621-0.12137 0.73228-0.1942 1.1126-2.5023 12.847-11.063 17.286-21.997 17.286h-5.567c-1.3371 0-2.4639 0.97098-2.6722 2.2899l-2.8502 18.076-0.80713 5.124a1.4241 1.4241 0 0 0 1.4059 1.6466h9.8737c1.1692 0 2.1625-0.84961 2.3465-2.0027l0.0971-0.50168 1.859-11.797 0.11935-0.64732c0.18206-1.1571 1.1773-2.0067 2.3465-2.0067h1.4767c9.5662 0 17.055-3.8839 19.244-15.123 0.91434-4.6951 0.44099-8.6155-1.9784-11.373a9.4408 9.4408 0 0 0 -2.7026 -2.0836z"/>
 <path id="path10" stroke-width="2.0229" fill="#222d65" d="m69.006 20.57a19.737 19.737 0 0 0 -2.4335 -0.54011 30.918 30.918 0 0 0 -4.9075 -0.35805h-14.873a2.3708 2.3708 0 0 0 -2.3445 2.0067l-3.1638 20.039-0.09103 0.58461a2.7026 2.7026 0 0 1 2.6722 -2.2899h5.567c10.934 0 19.495-4.4402 21.997-17.286 0.07485-0.3803 0.13756-0.75049 0.1942-1.1126a13.339 13.339 0 0 0 -2.0573 -0.86782 18.297 18.297 0 0 0 -0.56034 -0.17599z"/>
 <path id="path12" stroke-width="2.0229" fill="#253b80" d="m44.448 21.679a2.3648 2.3648 0 0 1 2.3445 -2.0047h14.872c1.7619 0 3.4065 0.1153 4.9075 0.35805a19.737 19.737 0 0 1 2.9959 0.71408c0.73835 0.24477 1.4241 0.53404 2.0573 0.86782 0.74442-4.7477-0.0061-7.9803-2.5731-10.907-2.83-3.2227-7.938-4.6023-14.474-4.6023h-18.974c-1.3351 0-2.474 0.97098-2.6803 2.2919l-7.9034 50.097a1.6304 1.6304 0 0 0 1.6082 1.8853h11.715l2.9413-18.661z"/>
</svg>
