<?xml version="1.0" encoding="UTF-8" standalone="no"?>
<svg id="svg52" xmlns:rdf="http://www.w3.org/1999/02/22-rdf-syntax-ns#" xmlns="http://www.w3.org/2000/svg" height="56.613" width="250" version="1.1" preserveAspectRatio="xMidYMid" xmlns:cc="http://creativecommons.org/ns#" xmlns:dc="http://purl.org/dc/elements/1.1/" viewBox="0 0 300 67.935828">
 <metadata id="metadata58">
  <rdf:RDF>
   <cc:Work rdf:about="">
    <dc:format>image/svg+xml</dc:format>
    <dc:type rdf:resource="http://purl.org/dc/dcmitype/StillImage"/>
    <dc:title/>
   </cc:Work>
  </rdf:RDF>
 </metadata>
 <g id="g50" transform="matrix(.48910 0 0 .48910 24.784 5.5214)">
  <path id="path2" fill="#525254" d="m80.214 0.28608h16.322v17.193h-16.322z"/>
  <path id="path4" fill="#525254" d="m366 0.28608h16.322v17.193h-16.322z"/>
  <path id="path6" fill="#231f1f" d="m44.138 23.649c-10.288 0-16.238 4.6166-19.108 7.806-0.3411-2.7477-2.1535-6.3127-9.227-6.3127h-15.361v16.078h6.2956c1.0657 0 1.4084 0.33953 1.4084 1.4037v73.416h18.309v-27.558c0-0.7435-0.01415-1.4383-0.03301-2.0607 2.8593 2.6266 8.3216 6.2435 16.854 6.2435 17.896 0 30.408-14.186 30.408-34.505 0-20.64-11.88-34.511-29.547-34.511m-3.7191 53.067c-9.8573 0-14.336-9.4376-14.336-18.182 0-13.773 7.5325-18.682 14.579-18.682 8.6438 0 14.457 7.4523 14.457 18.553 0 12.658-7.3895 18.311-14.7 18.311"/>
  <path id="path8" fill="#231f1f" d="m97.788 73.817v-38.899c0-6.5768-3.1689-9.7756-9.6608-9.7756h-16.359v16.077h6.3017c1.061 0 1.4021 0.33953 1.4021 1.4021v38.771c0 6.6695 3.0715 9.774 9.6451 9.774h16.383v-15.937h-6.3033c-1.0139 0-1.4053-0.40398-1.4053-1.4116"/>
  <path id="path10" fill="#231f1f" d="m145.61 23.649c-10.291 0-16.233 4.6166-19.116 7.806-0.3411-2.7477-2.1441-6.3127-9.216-6.3127h-15.37v16.077h6.3017c1.061 0 1.4053 0.33953 1.4053 1.4037v73.417h18.32v-27.558c0-0.7435-0.0189-1.4383-0.0425-2.0607 2.8483 2.6266 8.3279 6.2435 16.857 6.2435 17.898 0 30.403-14.186 30.403-34.505 0-20.64-11.872-34.511-29.541-34.511m-3.7348 53.067c-9.8306 0-14.325-9.4376-14.325-18.182 0-13.773 7.5309-18.682 14.584-18.682 8.6422 0 14.454 7.4523 14.454 18.553 0 12.658-7.3816 18.311-14.713 18.311"/>
  <path id="path12" fill="#231f1f" d="m208.9 23.649c-19.724 0-33.516 14.194-33.516 34.511 0 19.988 14.883 34.505 35.388 34.505 16.132 0 25.988-9.5492 26.405-9.9532l0.73564-0.72621-7.9726-13.237-1.1868 1.1223c-0.0754 0.05659-7.3124 6.7261-16.871 6.7261-9.1751 0-15.892-5.5991-17.475-14.384h43.414l0.10375-1.1994c0.0283-0.16505 0.3914-4.0618 0.3914-5.9653 0-18.778-11.822-31.398-29.416-31.398m-13.812 24.98c1.9869-6.4793 6.9525-10.151 13.812-10.151 5.511 0 9.7583 4.1922 10.503 10.151h-24.316"/>
  <path id="path14" fill="#231f1f" d="m304.91 73.817v-63.757c0-6.5721-3.2129-9.774-9.7882-9.774h-16.36v16.077h6.3001c1.0594 0 1.41 0.34267 1.41 1.4068v11.525c-2.7021-2.4411-7.9805-5.6462-17.064-5.6462-17.767 0-30.165 14.194-30.165 34.511 0 20.64 11.88 34.505 29.547 34.505 10.103 0 15.923-4.6905 18.767-7.9553 0.37096 2.8498 2.2148 6.4573 9.0666 6.4573h15.862v-15.936h-6.1681c-1.0154 0-1.4037-0.40555-1.4037-1.4131m-32.65 2.8986c-8.7067 0-14.34-7.2857-14.34-18.556 0-10.954 5.8616-18.308 14.59-18.308 9.895 0 14.331 9.1248 14.331 18.188 0 13.776-7.5388 18.676-14.581 18.676"/>
  <path id="path16" fill="#231f1f" d="m353.32 24.268c-7.6189 0-14.636 4.3981-18.794 11.406v-1.509c0-5.9826-3.3041-9.0242-9.785-9.0242h-15.739v16.079h6.2938c1.061 0 1.4116 0.33796 1.4116 1.4037v48.545h18.306v-26.426c0-3.4802 0.44327-6.8314 1.3094-9.9265 2.754-9.1122 10.079-12.357 16.002-12.357 2.1 0 3.6311 0.22321 3.6531 0.2295l1.531 0.23107v-18.199l-1.1145-0.18863c-0.0566-0.011-1.6065-0.26408-3.0746-0.26408"/>
  <path id="path18" fill="#231f1f" d="m383.56 73.817v-38.899c0-6.5768-3.1516-9.7756-9.6483-9.7756h-14.8v16.077h4.7314c1.0673 0 1.4068 0.33953 1.4068 1.4021v38.771c0 6.6695 3.073 9.774 9.6577 9.774h16.365v-15.937h-6.3033c-1.0154 0-1.4084-0.40398-1.4084-1.4116"/>
  <path id="path20" fill="#231f1f" d="m452.36 41.22v-16.078h-9.7693c-5.706 0-8.768 1.9774-10.576 6.8393l-11.935 33.335c-0.41183 1.2371-0.80009 2.6219-1.1286 3.9517-0.34896-1.3361-0.75923-2.7382-1.2119-3.9769l-11.94-33.32c-1.8312-4.9122-4.788-6.8283-10.574-6.8283h-10.384v16.077h2.6958c1.4273 0 1.8863 0.48414 2.2274 1.3785l18.474 48.568h20.585l18.478-48.568c0.33796-0.8944 0.80952-1.3785 2.2415-1.3785h2.8121"/>
  <path id="path22" fill="#231f1f" d="m511.2 61.013c0.0157-0.16505 0.38668-4.0618 0.38668-5.9653 0-18.778-11.827-31.398-29.426-31.398-19.724 0-33.506 14.194-33.506 34.511 0 19.988 14.865 34.505 35.377 34.505 16.134 0 25.996-9.5492 26.406-9.9532l0.74508-0.72621-7.9585-13.237-1.2104 1.1223c-0.0629 0.05659-7.3376 6.7261-16.862 6.7261-9.1814 0-15.9-5.5991-17.487-14.384h43.428zm-42.85-12.383c2.0026-6.4793 6.9525-10.151 13.811-10.151 5.5252 0 9.7567 4.1922 10.507 10.151z"/>
  <path id="path24" fill="#3b3b3c" d="m353.32 24.268c-5.9182 0-11.429 2.6769-15.566 7.1317 3.4943-0.03144 7.0122-0.05973 10.529-0.05973 3.0903 0 6.154 0.02829 9.227 0.04716v-6.666l-1.1145-0.18863c-0.0566-0.011-1.6065-0.26408-3.0746-0.26408"/>
  <path id="path26" fill="#3b3b3c" d="m432.01 31.982-0.75293 2.1189c7.0798 0.48729 14.103 1.0249 21.098 1.6253v-10.584h-9.7677c-5.706 0-8.7696 1.9774-10.577 6.8393"/>
  <path id="path28" fill="#3b3b3c" d="m44.138 23.649c-10.288 0-16.239 4.6166-19.108 7.8044-0.34267-2.7461-2.1535-6.3111-9.227-6.3111h-15.361v16.078h6.2956c1.0657 0 1.4084 0.33953 1.4084 1.4021v40.91c8.414-2.927 17.035-5.749 25.821-8.462-5.38-3.079-7.884-9.998-7.884-16.538 0-13.771 7.5325-18.68 14.579-18.68 8.6438 0 14.457 7.4523 14.457 18.553 0 4.6622-1.0123 8.3593-2.6455 11.186 6.8393-1.9366 13.773-3.815 20.813-5.6226 0.22792-1.8753 0.39769-3.8055 0.39769-5.8081 0-20.64-11.88-34.511-29.547-34.511"/>
  <path id="path30" fill="#3b3b3c" d="m88.127 25.142h-16.359v16.077h6.3017c1.0595 0 1.4006 0.33953 1.4006 1.4037v19.803c6.0361-1.5027 12.132-2.9614 18.317-4.3667v-23.141c0-6.5752-3.1689-9.7756-9.6608-9.7756"/>
  <path id="path32" fill="#3b3b3c" d="m80.214 0.28608h16.322v17.193h-16.322z"/>
  <path id="path34" fill="#3b3b3c" d="m145.62 23.649c-10.291 0-16.233 4.6166-19.116 7.8044-0.34267-2.7461-2.1441-6.3111-9.2176-6.3111h-15.368v16.077h6.3001c1.061 0 1.4068 0.33953 1.4068 1.4021v12.825c6.1901-1.3125 12.467-2.5858 18.781-3.8103 2.0969-8.4976 8.0418-11.784 13.737-11.784 5.1558 0 9.2631 2.6879 11.769 7.1804 6.319-1.0532 12.68-2.0686 19.097-3.029-4.1702-12.572-14.158-20.354-27.389-20.354"/>
  <path id="path36" fill="#3b3b3c" d="m208.9 23.649c-14.411 0-25.622 7.5875-30.63 19.594 7.7824-1.1208 15.645-2.1676 23.577-3.1391 2.0293-1.0579 4.3919-1.6238 7.0531-1.6238 1.0092 0 1.946 0.18863 2.8546 0.44799 7.1961-0.81424 14.458-1.564 21.777-2.2509-5.0316-8.166-13.718-13.028-24.632-13.028"/>
  <path id="path38" fill="#3b3b3c" d="m295.12 0.28608h-16.36v16.077h6.3001c1.0579 0 1.41 0.34267 1.41 1.4068v11.525c-2.7021-2.4411-7.9805-5.6462-17.064-5.6462-9.9438 0-18.202 4.4469-23.552 11.935 19.348-1.6285 39.047-2.7964 59.057-3.499v-22.025c0-6.5721-3.2129-9.774-9.7882-9.774"/>
  <path id="path40" fill="#3b3b3c" d="m324.74 25.142h-15.742v6.8283c8.353-0.26565 16.744-0.45585 25.207-0.55173-0.92741-4.1514-4.079-6.2766-9.4644-6.2766"/>
  <path id="path42" fill="#3b3b3c" d="m366 0.28608h16.322v17.193h-16.322z"/>
  <path id="path44" fill="#3b3b3c" d="m373.92 25.142h-14.801v6.2561c8.0842 0.07231 16.131 0.22006 24.133 0.43856-0.91012-4.472-3.9612-6.6947-9.3323-6.6947"/>
  <path id="path46" fill="#3b3b3c" d="m395.23 25.142h-10.384v6.7434c7.1081 0.21063 14.174 0.47 21.198 0.79066l-0.2405-0.70578c-1.8312-4.9122-4.788-6.8283-10.574-6.8283"/>
  <path id="path48" fill="#3b3b3c" d="m482.16 23.649c-11.247 0-20.543 4.6261-26.48 12.358 8.5982 0.75451 17.145 1.6018 25.595 2.5339 1.3015 0.14304 2.5795 0.27508 3.8606 0.42441 8.155 0.9227 16.222 1.9366 24.22 3.0275-4.1891-11.333-14.09-18.344-27.195-18.344"/>
 </g>
</svg>
