<?xml version="1.0" encoding="UTF-8" standalone="no"?>
<svg id="svg18" xmlns:rdf="http://www.w3.org/1999/02/22-rdf-syntax-ns#" xmlns="http://www.w3.org/2000/svg" fill-rule="evenodd" height="66.036" width="250" version="1.1" clip-rule="evenodd" xmlns:cc="http://creativecommons.org/ns#" xmlns:dc="http://purl.org/dc/elements/1.1/" viewBox="0 0 300 79.243066">
 <metadata id="metadata24">
  <rdf:RDF>
   <cc:Work rdf:about="">
    <dc:format>image/svg+xml</dc:format>
    <dc:type rdf:resource="http://purl.org/dc/dcmitype/StillImage"/>
    <dc:title/>
   </cc:Work>
  </rdf:RDF>
 </metadata>
 <path id="path2" stroke-width=".66036" fill="#ef4056" d="m55.336 36.669-9.2094 8.6613c-0.45895 0.48074-1.0968 0.75149-1.7612 0.74753-0.70659 0.0178-1.3907-0.2516-1.8946-0.74753l-9.0727-8.6613c-1.011-1.0533-1.011-2.7392 0-3.7931 1.0137-0.94893 2.7062-1.0823 3.7238 0l7.2435 6.976 7.3802-6.976c0.94893-1.0823 2.6414-0.94893 3.6089 0 0.94233 1.0823 0.94233 2.7114 0 3.7931m4.6516-14.356h-31.282l-0.0799-0.00066c-1.9778 0-3.6135 1.61-3.6445 3.5884v11.581c0 10.494 8.6613 19.232 19.366 19.232 10.541-0.0317 19.209-8.6903 19.249-19.232v-11.599c0-1.958-1.6113-3.5692-3.5692-3.5692z"/>
 <g id="g16" fill="#808285" transform="matrix(.66036 0 0 .66036 -34.9 -92.45)">
  <path id="path4" d="m466.42 215.94c-0.988 0.072-1.926 0.467-2.667 1.125-1.437 1.23-3.18 2.46-5.639 2.46-4.203 0-6.559-2.563-6.559-8.406v-31.604l13.024 0.202c1.847 0 3.076-1.125 3.076-2.869 0-1.847-1.229-2.973-3.076-2.973l-13.024 0.099v-10.537c0-2.049-1.437-3.487-3.18-3.487h-0.007c-1.853 0-3.378 1.525-3.378 3.378l0.002 0.109v10.558l-5.536-0.098-0.181-0.006c-1.535 0-2.798 1.263-2.798 2.798l0.006 0.181v0.048c0 1.55 1.275 2.825 2.825 2.825l0.148-0.004 5.531-0.224v31.807c0 9.946 6.049 14.564 13.023 14.564 3.692 0.099 7.262-1.353 9.837-4 0.721-0.82 1.437-1.744 1.437-2.973l0.008-0.205c0-1.52-1.251-2.77-2.771-2.77l-0.106 0.002"/>
  <path id="path6" d="m434.43 196.86c0-11.477-10.05-23.587-23.5-23.587-14.564 0-25.428 12.023-25.428 26.456s11.072 26.15 25.532 26.15c7.176 0 14.149-2.667 18.762-7.181 1.027-1.022 1.847-2.153 1.847-3.279l0.006-0.181c0-1.535-1.263-2.798-2.798-2.798l-0.181 0.006c-1.062 0.018-2.083 0.418-2.875 1.126-4.306 3.792-8.711 5.946-14.755 5.946-9.417 0-17.816-7.165-18.691-17.844h36.616c3.514 0 5.465-1.841 5.465-4.814zm-41.889-0.82c1.508-10.766 9.46-16.395 18.406-16.395 9.536 0 16.198 8.001 16.608 16.395z"/>
  <path id="path8" d="m361.4 197.14 19.089-17.193c1.744-1.541 1.951-3.793 0.618-5.23-1.438-1.541-3.591-1.126-5.126 0.306l-25.943 24.341v-45.463c0-2.361-1.027-3.897-3.181-3.897-2.36 0-3.486 1.536-3.486 3.897v68.187c0 2.257 1.333 3.798 3.486 3.798 1.946 0 3.181-1.541 3.181-3.798v-14.701l6.646-6.012 20.942 23.276c1.333 1.437 3.59 1.951 5.022 0.617 1.639-1.535 1.131-3.59-0.098-5.022z"/>
  <path id="path10" d="m331.27 209.68c-0.923 0-1.945 0.716-2.563 1.536-2.869 3.798-9.023 8.307-15.892 8.307-10.258 0-19.073-8.1-19.073-19.789 0-12.51 8.815-19.997 19.073-19.997 7.481 0 11.586 3.591 15.072 7.793 0.637 0.844 1.612 1.37 2.667 1.438 1.536 0 3.077-1.126 3.077-2.667 0-1.126-0.721-2.257-1.333-3.181-4.208-6.05-11.28-9.536-19.483-9.536-14.281 0.077-25.979 11.869-25.943 26.15 0 14.253 11.69 26.15 25.943 26.15 8.815 0 16.395-5.132 20.401-10.46 0.656-0.742 1.054-1.679 1.131-2.667l0.002-0.117c0-1.625-1.337-2.962-2.962-2.962z"/>
  <path id="path12" d="m254.78 219.52c-10.564 0-19.379-8.919-19.379-19.789 0-10.974 8.815-20.101 19.379-20.101 10.766 0 19.379 9.127 19.379 20.101 0 10.87-8.613 19.789-19.379 19.789m0.202-46.245h-0.049c-14.43 0-26.304 11.873-26.304 26.303l0.001 0.153c0 14.46 11.477 26.15 26.352 26.15 13.947 0 26.047-11.69 26.047-26.15 0-14.461-12.204-26.456-26.047-26.456"/>
  <path id="path14" d="m196.63 219.52c-10.559 0-19.379-8.919-19.379-19.789 0-10.974 8.82-20.101 19.379-20.101 10.766 0 19.379 9.127 19.379 20.101 0 10.87-8.613 19.789-19.379 19.789m0.098-46.245c-8.001 0-15.073 4.514-20.1 10.563l-0.203-7.181c-0.103-2.563-1.333-3.792-3.18-3.792-1.946 0-3.279 1.541-3.279 3.694v69.952l-0.005 0.176c0 1.817 1.495 3.312 3.312 3.312l0.076-0.001c2.049 0 3.279-1.541 3.279-3.59v-30.577c5.027 5.946 12.099 10.05 20.1 10.05h0.077c14.25 0 25.975-11.726 25.975-25.975v-0.175c0-14.461-11.477-26.456-26.047-26.456"/>
 </g>
</svg>
