<?xml version="1.0" encoding="UTF-8" standalone="no"?>
<svg id="svg10" xmlns:rdf="http://www.w3.org/1999/02/22-rdf-syntax-ns#" xmlns="http://www.w3.org/2000/svg" height="86.634" width="250" version="1.1" xmlns:cc="http://creativecommons.org/ns#" xmlns:dc="http://purl.org/dc/elements/1.1/" viewBox="0 0 174.9975 60.642695">
 <metadata id="metadata16">
  <rdf:RDF>
   <cc:Work rdf:about="">
    <dc:format>image/svg+xml</dc:format>
    <dc:type rdf:resource="http://purl.org/dc/dcmitype/StillImage"/>
    <dc:title/>
   </cc:Work>
  </rdf:RDF>
 </metadata>
 <path id="path2" d="m12.498 4.3309h150v51.981h-150z" stroke-width=".74258" fill="#fff"/>
 <path id="path4" stroke-width=".74258" fill="#f7971d" d="m151.87 11.868h-53.558c-1.6664 0.18713-2.5827 1.206-2.7446 3.0654v30.776c0.15965 1.8572 1.0745 2.8723 2.7297 3.0661h53.583c1.656-0.19382 2.5701-1.2097 2.7305-3.0661v-30.776c-0.16114-1.8594-1.0782-2.8783-2.7431-3.0654"/>
 <path id="path6" d="m149.19 26.201c-0.90892-1.004-2.1297-1.6485-3.4597-1.9448-0.38095-0.10099-0.8161-0.17302-1.3003-0.19456-1.7584-0.15966-4.0174 0.54357-5.0674 1.425l0.25471-7.206h-4.2766v22.31h3.9728v-1.229c0.91561 0.73739 2.3859 1.5936 4.6256 1.5936 0.0876 0 0.1708-0.000742 0.25174-0.0022 0.0579 0.0015 0.11659 0.0022 0.17451 0.0022 1.8772 0 3.4731-0.74556 4.786-2.2367 1.3136-1.4926 1.9708-3.6164 1.9708-6.3758 0-2.6688-0.64457-4.7154-1.9322-6.1419m-3.4471 10.167c-0.66387 0.80645-1.4681 1.2089-2.4119 1.2089-1.2282 0-2.2122-0.56808-2.9525-1.7042-0.52724-0.80125-0.7916-2.0384-0.7916-3.7129 0-1.6233 0.34011-2.833 1.0196-3.629 0.68021-0.79605 1.532-1.1948 2.5567-1.1948 1.0456 0 1.9025 0.40842 2.5723 1.2245 0.66907 0.81684 1.0047 2.149 1.0047 3.9944 0 1.7362-0.33267 3.006-0.99729 3.8132m-17.294-5.1216c0 2.3132-0.10619 3.7664-0.31931 4.3605-0.21312 0.59333-0.60892 1.0909-1.1874 1.4904-0.57773 0.40174-1.2327 0.60149-1.9626 0.60149-0.63937 0-1.1674-0.14926-1.5832-0.44852-0.41585-0.29926-0.70323-0.70546-0.85992-1.2178-0.15743-0.51238-0.2354-1.904-0.2354-4.1778v-7.4258h-4.2758v10.227c0 1.5216 0.19233 2.7134 0.57773 3.5763 0.3854 0.86214 1.0092 1.532 1.8713 2.0087 0.86289 0.47674 1.8364 0.71511 2.9221 0.71511 0.16262 0 0.32376-0.0059 0.48342-0.01708 0.007 0 0.008 0 0.0126-0.0015 2.7216-0.07871 4.1392-1.3129 4.861-2.1268v1.78h3.9714v-16.162h-4.2758zm-13.953-5.2345c-0.40099-0.56733-0.99655-1.0344-1.7874-1.3998-0.71585-0.33045-1.5097-0.50941-2.383-0.54134-0.0148-0.000743-0.0282-0.0022-0.0431-0.003-1.8023-0.09579-4.1072 0.42996-5.1832 1.4651v-7.2521h-4.2758v22.309h4.2758v-8.0949c0-1.3597 0.12996-2.3874 0.38838-3.0817 0.25916-0.6958 0.66684-1.2156 1.2253-1.5609 0.55768-0.34382 1.1911-0.51684 1.9025-0.51684 0.61783 0 1.1339 0.13441 1.5438 0.40322 0.41065 0.26882 0.69803 0.63194 0.85991 1.0879 0.16188 0.45743 0.24357 1.532 0.24357 3.2258v8.5375h4.2758v-9.4806c0-1.4503-0.0743-2.5211-0.22129-3.2102-0.14629-0.69135-0.42104-1.3196-0.8213-1.8877" stroke-width=".74258" fill="#fff"/>
 <path id="path8" d="m90.382 26.99c-0.1656-0.70397-0.45892-1.3344-0.87922-1.8891-0.42253-0.55471-1.0441-1.0114-1.8661-1.3686-0.82204-0.35718-1.7287-0.5354-2.7216-0.5354-1.7993-0.10248-4.7199 0.58441-5.6021 1.982v-1.5988h-4.1778v16.999h4.4978v-7.6984c0-1.8995 0.1151-3.202 0.34456-3.906 0.22872-0.70471 0.65348-1.2698 1.2728-1.6968 0.61857-0.42699 1.3173-0.64085 2.0963-0.64085 0.60818 0 1.1287 0.15074 1.5609 0.44852 0.43218 0.29852 0.74481 0.71808 0.9364 1.2565 0.19233 0.53986 0.28812 1.7265 0.28812 3.5614v8.6756h4.4978v-10.565c0-1.3129-0.0824-2.3213-0.24802-3.0253m-21.431-3.728c-1.3307 0.17005-2.6028 1.2438-3.1597 1.9278v-1.6084h-4.1778v16.999h4.4978v-5.2501c0-2.8924 0.1255-4.7912 0.37649-5.6986 0.25025-0.90744 0.59481-1.5334 1.0322-1.881 0.43738-0.34679 0.9713-0.52055 1.601-0.52055 0.6505 0 1.3545 0.24505 2.1127 0.7359l1.3931-3.9216c-0.94977-0.56511-1.9374-0.84729-2.9614-0.84729-0.24728 0-0.48491 0.02228-0.71437 0.0646m-18.344-0.066c-1.6649 0-3.1723 0.36758-4.5216 1.105-1.3508 0.73516-2.3934 1.8023-3.13 3.2005-0.7359 1.3983-1.1042 2.8441-1.1042 4.3382 0 1.953 0.36832 3.6097 1.1042 4.9694 0.73664 1.3619 1.8112 2.3941 3.2258 3.0973 1.4139 0.70397 2.8998 1.0574 4.4577 1.0574 2.5181 0 4.607-0.8458 6.2667-2.5374s2.4891-3.8228 2.4891-6.3959c0-2.5493-0.8213-4.6597-2.4646-6.3298-1.6441-1.6693-3.7515-2.5047-6.3231-2.5047m2.9696 12.758c-0.79531 0.8963-1.78 1.3448-2.954 1.3448s-2.1609-0.44852-2.9607-1.3448c-0.80051-0.89704-1.2008-2.1884-1.2008-3.8741s0.40025-2.9778 1.2008-3.8741c0.79976-0.89556 1.7867-1.3441 2.9607-1.3441s2.1587 0.44852 2.954 1.3441c0.79457 0.8963 1.1926 2.178 1.1926 3.8421 0 1.7079-0.39802 3.009-1.1926 3.906m-17.428-18.488c-0.87476-0.2354-2.7528-0.35273-5.634-0.35273h-7.6033v23.466h4.7377v-8.8516h3.0892c2.1453 0 3.7835-0.11213 4.9144-0.33639 0.83318-0.18119 1.6515-0.55248 2.4572-1.1124 0.8057-0.55991 1.4696-1.3307 1.9931-2.3132 0.52278-0.98096 0.78417-2.1929 0.78417-3.6335 0-1.8676-0.45372-3.3906-1.3604-4.5706-0.90744-1.1785-2.0332-1.9448-3.378-2.2961m-0.68021 8.7558c-0.35718 0.52352-0.85026 0.90744-1.48 1.1525-0.62971 0.24505-1.8795 0.36758-3.7463 0.36758h-2.595v-6.658h2.2894c1.7072 0 2.8441 0.05347 3.4092 0.1604 0.76858 0.13886 1.4035 0.48565 1.9055 1.0404 0.5005 0.55471 0.75224 1.2587 0.75224 2.1127 0 0.69358-0.17971 1.3025-0.53689 1.8253" stroke-width=".74258"/>
</svg>
