<?xml version="1.0" encoding="UTF-8" standalone="no"?>
<!-- Created with Inkscape (http://www.inkscape.org/) -->
<svg id="svg2" xmlns:rdf="http://www.w3.org/1999/02/22-rdf-syntax-ns#" xmlns="http://www.w3.org/2000/svg" xml:space="preserve" height="89.565" viewBox="0 0 300 107.47841" width="250" version="1.1" xmlns:cc="http://creativecommons.org/ns#" xmlns:dc="http://purl.org/dc/elements/1.1/"><metadata id="metadata89"><rdf:RDF><cc:Work rdf:about=""><dc:format>image/svg+xml</dc:format><dc:type rdf:resource="http://purl.org/dc/dcmitype/StillImage"/><dc:title/></cc:Work></rdf:RDF></metadata><defs id="defs6"><clipPath id="clipPath20"><path id="path22" d="m0 792h612v-792h-612z"/></clipPath></defs><g id="g12" transform="matrix(2.2544 0 0 -2.2544 -530.78 946.13)"><g id="g16"><g id="g18" clip-path="url(#clipPath20)"><g id="g24" transform="translate(265.35 392.73)"><path id="path26" d="m0 0c2.437 0 4.412-2.383 4.412-5.324 0-2.942-1.975-5.324-4.412-5.324s-4.41 2.382-4.41 5.324c0 2.941 1.973 5.324 4.41 5.324" fill="#fff"/></g><g id="g28" transform="translate(265.35 392.73)"><path id="path30" d="m0 0c2.437 0 4.412-2.383 4.412-5.324 0-2.942-1.975-5.324-4.412-5.324s-4.41 2.382-4.41 5.324c0 2.941 1.973 5.324 4.41 5.324z" stroke="#000" stroke-width="1.1" fill="none"/></g><g id="g32" transform="translate(258.41 376.54)"><path id="path34" d="m0 0c0.063 0.197 0.108 0.401 0.108 0.615 0 1.361-1.361 2.464-3.04 2.464s-3.039-1.103-3.039-2.464c0-0.214 0.044-0.418 0.108-0.615z" fill="#fff"/></g><g id="g36" transform="translate(258.41 376.54)"><path id="path38" stroke-linejoin="round" d="m0 0c0.063 0.197 0.108 0.401 0.108 0.615 0 1.361-1.361 2.464-3.04 2.464s-3.039-1.103-3.039-2.464c0-0.214 0.044-0.418 0.108-0.615z" stroke="#000" stroke-linecap="round" stroke-width="1.1" fill="none"/></g><g id="g40" transform="translate(269.05 376.54)"><path id="path42" d="m0 0c0.063 0.197 0.107 0.401 0.107 0.615 0 1.361-1.361 2.464-3.04 2.464s-3.039-1.103-3.039-2.464c0-0.214 0.044-0.418 0.107-0.615z" fill="#fff"/></g><g id="g44" transform="translate(269.05 376.54)"><path id="path46" stroke-linejoin="round" d="m0 0c0.063 0.197 0.107 0.401 0.107 0.615 0 1.361-1.361 2.464-3.04 2.464s-3.039-1.103-3.039-2.464c0-0.214 0.044-0.418 0.107-0.615z" stroke="#000" stroke-linecap="round" stroke-width="1.1" fill="none"/></g><g id="g48" transform="translate(252.49 403.99)"><path id="path50" d="m0 0c0-1.493-1.21-2.702-2.703-2.702-1.492 0-2.701 1.209-2.701 2.702s1.209 2.703 2.701 2.703c1.493 0 2.703-1.21 2.703-2.703" fill="#fff"/></g><g id="g52" transform="translate(252.49 403.99)"><path id="path54" d="m0 0c0-1.493-1.21-2.702-2.703-2.702-1.492 0-2.701 1.209-2.701 2.702s1.209 2.703 2.701 2.703c1.493 0 2.703-1.21 2.703-2.703z" stroke="#000" stroke-width="1.1" fill="none"/></g><g id="g56" transform="translate(274.59 403.99)"><path id="path58" d="m0 0c0-1.493-1.21-2.702-2.703-2.702-1.492 0-2.701 1.209-2.701 2.702s1.209 2.703 2.701 2.703c1.493 0 2.703-1.21 2.703-2.703" fill="#fff"/></g><g id="g60" transform="translate(274.59 403.99)"><path id="path62" d="m0 0c0-1.493-1.21-2.702-2.703-2.702-1.492 0-2.701 1.209-2.701 2.702s1.209 2.703 2.701 2.703c1.493 0 2.703-1.21 2.703-2.703z" stroke="#000" stroke-width="1.1" fill="none"/></g><g id="g64" transform="translate(268.33 413.47)"><path id="path66" stroke-linejoin="round" d="m0 0-5.404 1.272-1.986-6.278" stroke="#000" stroke-linecap="round" stroke-width="1.1" fill="none"/></g><g id="g68" transform="translate(256.25 392.73)"><path id="path70" d="m0 0c2.437 0 4.411-2.383 4.411-5.324 0-2.942-1.974-5.324-4.411-5.324-2.436 0-4.41 2.382-4.41 5.324 0 2.941 1.974 5.324 4.41 5.324" fill="#fff"/></g><g id="g72" transform="translate(256.25 392.73)"><path id="path74" d="m0 0c2.437 0 4.411-2.383 4.411-5.324 0-2.942-1.974-5.324-4.411-5.324-2.436 0-4.41 2.382-4.41 5.324 0 2.941 1.974 5.324 4.41 5.324z" stroke="#000" stroke-width="1.1" fill="none"/></g><g id="g76" transform="translate(272.66 413.03)"><path id="path78" d="m0 0c0-1.176-0.954-2.13-2.129-2.13-1.178 0-2.131 0.954-2.131 2.13 0 1.177 0.953 2.13 2.131 2.13 1.175 0 2.129-0.953 2.129-2.13" fill="#fff"/></g><g id="g80" transform="translate(272.66 413.03)"><path id="path82" d="m0 0c0-1.176-0.954-2.13-2.129-2.13-1.178 0-2.131 0.954-2.131 2.13 0 1.177 0.953 2.13 2.131 2.13 1.175 0 2.129-0.953 2.129-2.13z" stroke="#000" stroke-width="1.1" fill="none"/></g><g id="g84" transform="translate(259.28 376.53)"><path id="path86" d="m0 0h2.99c2.656 1.382 4.624 6.34 4.624 12.261 0 6.99-2.74 12.656-6.119 12.656-3.38 0-6.119-5.666-6.119-12.656 0-5.921 1.968-10.879 4.624-12.261" fill="#fff"/></g><g id="g88" transform="translate(259.28 376.53)"><path id="path90" d="m0 0h2.99c2.656 1.382 4.624 6.34 4.624 12.261 0 6.99-2.74 12.656-6.119 12.656-3.38 0-6.119-5.666-6.119-12.656 0-5.921 1.968-10.879 4.624-12.261z" stroke="#000" stroke-width="1.1" fill="none"/></g><g id="g92" transform="translate(273.02 400.27)"><path id="path94" d="m0 0c0-4.411-5.479-7.986-12.239-7.986-6.759 0-12.238 3.575-12.238 7.986s5.479 7.987 12.238 7.987c6.76 0 12.239-3.576 12.239-7.987" fill="#fff"/></g><g id="g96" transform="translate(273.02 400.27)"><path id="path98" d="m0 0c0-4.411-5.479-7.986-12.239-7.986-6.759 0-12.238 3.575-12.238 7.986s5.479 7.987 12.238 7.987c6.76 0 12.239-3.576 12.239-7.987z" stroke="#000" stroke-width="1.1" fill="none"/></g><g id="g100" transform="translate(257.56 376.54)"><path id="path102" stroke-linejoin="round" d="m0 0h6.596" stroke="#000" stroke-linecap="round" stroke-width="1.1" fill="none"/></g><g id="g104" transform="translate(280.69 392.42)"><path id="path106" d="m0 0c0 0.444 0.133 0.797 0.401 1.059 0.268 0.259 0.592 0.391 0.974 0.391 0.389 0 0.721-0.128 0.993-0.383 0.274-0.258 0.411-0.612 0.411-1.067v-1.441h0.063c0.421 0.736 0.973 1.401 1.66 1.996 0.687 0.593 1.407 0.907 2.159 0.938 0.422 0 0.794-0.14 1.12-0.416 0.325-0.277 0.49-0.62 0.49-1.032 0-0.482-0.167-0.835-0.501-1.062s-0.82-0.422-1.457-0.587c-0.636-0.166-1.049-0.298-1.238-0.403-1.531-0.83-2.296-2.251-2.296-4.262v-8.276c0-0.459-0.129-0.815-0.387-1.067-0.258-0.253-0.577-0.379-0.956-0.379-0.401 0-0.741 0.132-1.019 0.397-0.279 0.267-0.417 0.64-0.417 1.115z"/></g><g id="g108" transform="translate(280.69 392.42)"><path id="path110" d="m0 0c0 0.444 0.133 0.797 0.401 1.059 0.268 0.259 0.592 0.391 0.974 0.391 0.389 0 0.721-0.128 0.993-0.383 0.274-0.258 0.411-0.612 0.411-1.067v-1.441h0.063c0.421 0.736 0.973 1.401 1.66 1.996 0.687 0.593 1.407 0.907 2.159 0.938 0.422 0 0.794-0.14 1.12-0.416 0.325-0.277 0.49-0.62 0.49-1.032 0-0.482-0.167-0.835-0.501-1.062s-0.82-0.422-1.457-0.587c-0.636-0.166-1.049-0.298-1.238-0.403-1.531-0.83-2.296-2.251-2.296-4.262v-8.276c0-0.459-0.129-0.815-0.387-1.067-0.258-0.253-0.577-0.379-0.956-0.379-0.401 0-0.741 0.132-1.019 0.397-0.279 0.267-0.417 0.64-0.417 1.115z" stroke="#000" stroke-width="0.598" fill="none"/></g><g id="g112" transform="translate(292.51 386.21)"><path id="path114" d="m0 0h9.404c-0.03 1.569-0.448 2.826-1.253 3.781-0.805 0.953-1.907 1.447-3.308 1.478-1.426 0-2.573-0.463-3.444-1.383-0.87-0.922-1.336-2.215-1.399-3.876m-2.845-0.894c0.063 1.46 0.399 2.843 1.005 4.155 0.607 1.308 1.472 2.368 2.596 3.183 1.123 0.814 2.444 1.23 3.962 1.251 1.473 0 2.782-0.397 3.927-1.192 1.143-0.795 2.026-1.847 2.648-3.157 0.623-1.312 0.934-2.68 0.934-4.11 0-0.916-0.523-1.375-1.569-1.375h-10.658c0.021-1.136 0.263-2.097 0.729-2.879 0.465-0.782 1.087-1.366 1.869-1.754 0.781-0.387 1.646-0.58 2.598-0.58 1.667 0 3.199 0.589 4.593 1.769 0.48 0.347 0.833 0.519 1.058 0.519 0.314 0 0.557-0.117 0.733-0.35 0.175-0.233 0.262-0.516 0.262-0.846 0-0.357-0.138-0.7-0.414-1.029-0.629-0.667-1.52-1.25-2.673-1.75s-2.394-0.75-3.722-0.75c-1.392 0-2.602 0.261-3.629 0.787-1.028 0.523-1.855 1.222-2.483 2.088-0.629 0.867-1.086 1.805-1.374 2.812-0.287 1.004-0.439 2.022-0.454 3.051 0.027 0.052 0.043 0.091 0.051 0.113 0.007 0.025 0.011 0.038 0.011 0.044"/></g><g id="g116" transform="translate(292.51 386.21)"><path id="path118" d="m0 0h9.404c-0.03 1.569-0.448 2.826-1.253 3.781-0.805 0.953-1.907 1.447-3.308 1.478-1.426 0-2.573-0.463-3.444-1.383-0.87-0.922-1.336-2.215-1.399-3.876zm-2.845-0.894c0.063 1.46 0.399 2.843 1.005 4.155 0.607 1.308 1.472 2.368 2.596 3.183 1.123 0.814 2.444 1.23 3.962 1.251 1.473 0 2.782-0.397 3.927-1.192 1.143-0.795 2.026-1.847 2.648-3.157 0.623-1.312 0.934-2.68 0.934-4.11 0-0.916-0.523-1.375-1.569-1.375h-10.658c0.021-1.136 0.263-2.097 0.729-2.879 0.465-0.782 1.087-1.366 1.869-1.754 0.781-0.387 1.646-0.58 2.598-0.58 1.667 0 3.199 0.589 4.593 1.769 0.48 0.347 0.833 0.519 1.058 0.519 0.314 0 0.557-0.117 0.733-0.35 0.175-0.233 0.262-0.516 0.262-0.846 0-0.357-0.138-0.7-0.414-1.029-0.629-0.667-1.52-1.25-2.673-1.75s-2.394-0.75-3.722-0.75c-1.392 0-2.602 0.261-3.629 0.787-1.028 0.523-1.855 1.222-2.483 2.088-0.629 0.867-1.086 1.805-1.374 2.812-0.287 1.004-0.439 2.022-0.454 3.051 0.027 0.052 0.043 0.091 0.051 0.113 0.007 0.025 0.011 0.038 0.011 0.044z" stroke="#000" stroke-width="0.598" fill="none"/></g><g id="g120" transform="translate(309.49 385.22)"><path id="path122" d="m0 0c0-1.734 0.374-3.213 1.124-4.436 0.747-1.222 1.865-1.863 3.348-1.918 1.182 0 2.139 0.305 2.876 0.92 0.73 0.613 1.255 1.393 1.567 2.338 0.316 0.946 0.484 1.956 0.513 3.033 0 1.239-0.2 2.34-0.603 3.304-0.4 0.963-0.959 1.708-1.672 2.231-0.715 0.522-1.522 0.784-2.424 0.784-1.064 0-1.946-0.315-2.651-0.936-0.704-0.625-1.221-1.411-1.549-2.357-0.326-0.945-0.502-1.934-0.529-2.963m9.107 6.389v8.415c0 0.44 0.137 0.784 0.41 1.035 0.274 0.252 0.598 0.377 0.968 0.377 0.413 0 0.755-0.125 1.031-0.376 0.274-0.251 0.412-0.616 0.412-1.096v-22.088c0-0.455-0.142-0.808-0.424-1.065-0.281-0.256-0.622-0.383-1.019-0.383-0.353 0-0.673 0.127-0.956 0.382-0.281 0.255-0.422 0.589-0.422 0.999v0.922h-0.065c-0.303-0.615-0.798-1.142-1.488-1.586-0.689-0.443-1.62-0.681-2.793-0.717-1.505 0-2.828 0.367-3.963 1.104-1.137 0.735-2.017 1.76-2.645 3.077-0.624 1.314-0.948 2.806-0.974 4.478 0 1.196 0.174 2.333 0.524 3.413 0.351 1.082 0.846 2.025 1.484 2.833 0.638 0.805 1.404 1.437 2.295 1.893 0.892 0.457 1.87 0.686 2.933 0.686 1.917 0 3.462-0.768 4.627-2.303z"/></g><g id="g124" transform="translate(309.49 385.22)"><path id="path126" d="m0 0c0-1.734 0.374-3.213 1.124-4.436 0.747-1.222 1.865-1.863 3.348-1.918 1.182 0 2.139 0.305 2.876 0.92 0.73 0.613 1.255 1.393 1.567 2.338 0.316 0.946 0.484 1.956 0.513 3.033 0 1.239-0.2 2.34-0.603 3.304-0.4 0.963-0.959 1.708-1.672 2.231-0.715 0.522-1.522 0.784-2.424 0.784-1.064 0-1.946-0.315-2.651-0.936-0.704-0.625-1.221-1.411-1.549-2.357-0.326-0.945-0.502-1.934-0.529-2.963zm9.107 6.389v8.415c0 0.44 0.137 0.784 0.41 1.035 0.274 0.252 0.598 0.377 0.968 0.377 0.413 0 0.755-0.125 1.031-0.376 0.274-0.251 0.412-0.616 0.412-1.096v-22.088c0-0.455-0.142-0.808-0.424-1.065-0.281-0.256-0.622-0.383-1.019-0.383-0.353 0-0.673 0.127-0.956 0.382-0.281 0.255-0.422 0.589-0.422 0.999v0.922h-0.065c-0.303-0.615-0.798-1.142-1.488-1.586-0.689-0.443-1.62-0.681-2.793-0.717-1.505 0-2.828 0.367-3.963 1.104-1.137 0.735-2.017 1.76-2.645 3.077-0.624 1.314-0.948 2.806-0.974 4.478 0 1.196 0.174 2.333 0.524 3.413 0.351 1.082 0.846 2.025 1.484 2.833 0.638 0.805 1.404 1.437 2.295 1.893 0.892 0.457 1.87 0.686 2.933 0.686 1.917 0 3.462-0.768 4.627-2.303z" stroke="#000" stroke-width="0.598" fill="none"/></g><g id="g128" transform="translate(327.35 385.22)"><path id="path130" d="m0 0c0-1.734 0.373-3.213 1.123-4.436 0.749-1.222 1.865-1.863 3.349-1.918 1.182 0 2.141 0.305 2.872 0.92 0.735 0.613 1.258 1.393 1.571 2.338 0.314 0.946 0.485 1.956 0.512 3.033 0 1.239-0.2 2.34-0.601 3.304-0.4 0.963-0.959 1.708-1.673 2.231-0.715 0.522-1.523 0.784-2.424 0.784-1.064 0-1.948-0.315-2.652-0.936-0.705-0.625-1.219-1.411-1.547-2.357-0.328-0.945-0.504-1.934-0.53-2.963m9.104 6.389v8.415c0 0.44 0.138 0.784 0.414 1.035 0.274 0.252 0.595 0.377 0.966 0.377 0.412 0 0.758-0.125 1.031-0.376 0.275-0.251 0.411-0.616 0.411-1.096v-22.088c0-0.455-0.141-0.808-0.422-1.065-0.282-0.256-0.624-0.383-1.02-0.383-0.354 0-0.673 0.127-0.955 0.382s-0.425 0.589-0.425 0.999v0.922h-0.062c-0.304-0.615-0.799-1.142-1.488-1.586-0.688-0.443-1.619-0.681-2.793-0.717-1.506 0-2.827 0.367-3.964 1.104-1.138 0.735-2.018 1.76-2.643 3.077-0.624 1.314-0.95 2.806-0.975 4.478 0 1.196 0.175 2.333 0.525 3.413 0.351 1.082 0.844 2.025 1.482 2.833 0.639 0.805 1.404 1.437 2.295 1.893 0.892 0.457 1.87 0.686 2.932 0.686 1.918 0 3.462-0.768 4.629-2.303z"/></g><g id="g132" transform="translate(327.35 385.22)"><path id="path134" d="m0 0c0-1.734 0.373-3.213 1.123-4.436 0.749-1.222 1.865-1.863 3.349-1.918 1.182 0 2.141 0.305 2.872 0.92 0.735 0.613 1.258 1.393 1.571 2.338 0.314 0.946 0.485 1.956 0.512 3.033 0 1.239-0.2 2.34-0.601 3.304-0.4 0.963-0.959 1.708-1.673 2.231-0.715 0.522-1.523 0.784-2.424 0.784-1.064 0-1.948-0.315-2.652-0.936-0.705-0.625-1.219-1.411-1.547-2.357-0.328-0.945-0.504-1.934-0.53-2.963zm9.104 6.389v8.415c0 0.44 0.138 0.784 0.414 1.035 0.274 0.252 0.595 0.377 0.966 0.377 0.412 0 0.758-0.125 1.031-0.376 0.275-0.251 0.411-0.616 0.411-1.096v-22.088c0-0.455-0.141-0.808-0.422-1.065-0.282-0.256-0.624-0.383-1.02-0.383-0.354 0-0.673 0.127-0.955 0.382s-0.425 0.589-0.425 0.999v0.922h-0.062c-0.304-0.615-0.799-1.142-1.488-1.586-0.688-0.443-1.619-0.681-2.793-0.717-1.506 0-2.827 0.367-3.964 1.104-1.138 0.735-2.018 1.76-2.643 3.077-0.624 1.314-0.95 2.806-0.975 4.478 0 1.196 0.175 2.333 0.525 3.413 0.351 1.082 0.844 2.025 1.482 2.833 0.639 0.805 1.404 1.437 2.295 1.893 0.892 0.457 1.87 0.686 2.932 0.686 1.918 0 3.462-0.768 4.629-2.303z" stroke="#000" stroke-width="0.598" fill="none"/></g><g id="g136" transform="translate(351.75 391.3)"><path id="path138" d="m0 0h-1.245c-0.4 0-0.721 0.114-0.963 0.341-0.24 0.227-0.379 0.509-0.421 0.843 0.083 0.836 0.545 1.254 1.384 1.254h1.245v3.814c0 0.416 0.134 0.74 0.4 0.97 0.267 0.228 0.591 0.343 0.978 0.343 0.41 0 0.755-0.116 1.031-0.348 0.275-0.233 0.415-0.577 0.415-1.035v-3.744h1.243c0.429 0 0.755-0.116 0.979-0.345 0.225-0.23 0.338-0.531 0.338-0.909 0-0.32-0.113-0.596-0.329-0.83-0.221-0.235-0.504-0.354-0.854-0.354h-1.377v-13.488c0-0.429-0.149-0.768-0.443-1.017-0.293-0.248-0.651-0.371-1.065-0.371-0.37 0-0.685 0.123-0.935 0.371-0.252 0.249-0.381 0.609-0.381 1.078z"/></g><g id="g140" transform="translate(351.75 391.3)"><path id="path142" d="m0 0h-1.245c-0.4 0-0.721 0.114-0.963 0.341-0.24 0.227-0.379 0.509-0.421 0.843 0.083 0.836 0.545 1.254 1.384 1.254h1.245v3.814c0 0.416 0.134 0.74 0.4 0.97 0.267 0.228 0.591 0.343 0.978 0.343 0.41 0 0.755-0.116 1.031-0.348 0.275-0.233 0.415-0.577 0.415-1.035v-3.744h1.243c0.429 0 0.755-0.116 0.979-0.345 0.225-0.23 0.338-0.531 0.338-0.909 0-0.32-0.113-0.596-0.329-0.83-0.221-0.235-0.504-0.354-0.854-0.354h-1.377v-13.488c0-0.429-0.149-0.768-0.443-1.017-0.293-0.248-0.651-0.371-1.065-0.371-0.37 0-0.685 0.123-0.935 0.371-0.252 0.249-0.381 0.609-0.381 1.078z" stroke="#000" stroke-width="0.598" fill="none"/></g><g id="g144" transform="translate(346.86 398.51)"><path id="path146" d="m0 0c0-1.275-1.034-2.309-2.309-2.309s-2.308 1.034-2.308 2.309 1.033 2.309 2.308 2.309 2.309-1.034 2.309-2.309" fill="#fff"/></g><g id="g148" transform="translate(346.86 398.51)"><path id="path150" d="m0 0c0-1.275-1.034-2.309-2.309-2.309s-2.308 1.034-2.308 2.309 1.033 2.309 2.308 2.309 2.309-1.034 2.309-2.309z" stroke="#000" stroke-width="1.6" fill="none"/></g><g id="g152" transform="translate(344.56 392.57)"><path id="path154" d="m0 0v-14.792" stroke="#000" stroke-linecap="round" stroke-width="3.36" fill="none"/></g><g id="g156" transform="translate(257.96 401.83)"><path id="path158" d="m0 0c0-0.79-0.641-1.43-1.43-1.43-0.791 0-1.431 0.64-1.431 1.43 0 0.791 0.64 1.431 1.431 1.431 0.789 0 1.43-0.64 1.43-1.431" fill="#ff4500"/></g><g id="g160" transform="translate(257.96 401.83)"><path id="path162" d="m0 0c0-0.79-0.641-1.43-1.43-1.43-0.791 0-1.431 0.64-1.431 1.43 0 0.791 0.64 1.431 1.431 1.431 0.789 0 1.43-0.64 1.43-1.431z" stroke="#ff4500" stroke-width="1.1" fill="none"/></g><g id="g164" transform="translate(266.58 401.83)"><path id="path166" d="m0 0c0-0.79-0.64-1.43-1.43-1.43-0.789 0-1.43 0.64-1.43 1.43 0 0.791 0.641 1.431 1.43 1.431 0.79 0 1.43-0.64 1.43-1.431" fill="#ff4500"/></g><g id="g168" transform="translate(266.58 401.83)"><path id="path170" d="m0 0c0-0.79-0.64-1.43-1.43-1.43-0.789 0-1.43 0.64-1.43 1.43 0 0.791 0.641 1.431 1.43 1.431 0.79 0 1.43-0.64 1.43-1.431z" stroke="#ff4500" stroke-width="1.1" fill="none"/></g><g id="g172" transform="translate(256.61 396.59)"><path id="path174" d="m0 0c1.066-1.066 2.786-1.271 4.212-1.271" stroke="#000" stroke-linecap="round" stroke-width="1.1" fill="none"/></g><g id="g176" transform="translate(265.07 396.59)"><path id="path178" d="m0 0c-1.067-1.066-2.785-1.271-4.212-1.271" stroke="#000" stroke-linecap="round" stroke-width="1.1" fill="none"/></g></g></g></g></svg>
