<?xml version="1.0" encoding="UTF-8" standalone="no"?>
<svg id="svg10" xmlns:rdf="http://www.w3.org/1999/02/22-rdf-syntax-ns#" xmlns="http://www.w3.org/2000/svg" height="71.423" width="250" version="1.1" xmlns:cc="http://creativecommons.org/ns#" xmlns:dc="http://purl.org/dc/elements/1.1/" viewBox="0 0 300 85.707239">
 <metadata id="metadata16">
  <rdf:RDF>
   <cc:Work rdf:about="">
    <dc:format>image/svg+xml</dc:format>
    <dc:type rdf:resource="http://purl.org/dc/dcmitype/StillImage"/>
    <dc:title/>
   </cc:Work>
  </rdf:RDF>
 </metadata>
 <path id="path2" stroke-width=".41118" fill="#95bf47" d="m78.701 20.752c-0.0411-0.37007-0.37007-0.53454-0.61678-0.57566s-5.6332-0.41118-5.6332-0.41118-3.7418-3.7007-4.1118-4.1118c-0.41119-0.41118-1.1924-0.28783-1.5214-0.20559-0.0411 0-0.82236 0.24671-2.097 0.6579-1.1924-3.5773-3.4128-6.8668-7.278-6.8668h-0.32894c-1.1102-1.4391-2.4671-2.097-3.6184-2.097-9.0049 0.04112-13.281 11.266-14.638 16.982-3.4951 1.0691-5.9622 1.8503-6.2911 1.9326-1.9326 0.61678-2.0148 0.6579-2.2615 2.5082-0.207 1.439-5.306 40.913-5.306 40.913l39.762 7.4424 21.546-4.6464c0-0.0411-7.5658-51.151-7.6069-51.521zm-16.16-3.947c-0.98684 0.32895-2.1382 0.6579-3.3717 1.028v-0.74013c0-2.2204-0.32895-4.0296-0.82237-5.4276 2.0148 0.28783 3.3717 2.5493 4.1941 5.1398zm-6.6201-4.6875c0.53454 1.398 0.90461 3.3717 0.90461 6.0444v0.37007c-2.1793 0.6579-4.5642 1.398-6.949 2.1382 1.3569-5.0987 3.8651-7.6069 6.0444-8.5526zm-2.673-2.5086c0.37006 0 0.78125 0.12336 1.1513 0.37006-2.8783 1.3569-5.9622 4.7697-7.278 11.595-1.8914 0.57566-3.7829 1.1513-5.5099 1.6859 1.5625-5.1809 5.1809-13.651 11.637-13.651z"/>
 <path id="path4" stroke-width=".41118" fill="#5e8e3e" d="m78.084 20.177c-0.24671-0.04112-5.6332-0.41118-5.6332-0.41118s-3.7418-3.7007-4.1118-4.1118c-0.16448-0.16447-0.37007-0.24671-0.57566-0.24671l-3.0016 61.513 21.546-4.6464s-7.5658-51.151-7.6069-51.48c-0.0411-0.37007-0.37007-0.57566-0.61678-0.61678z"/>
 <path id="path6" stroke-width=".41118" fill="#fff" d="m57.442 32.101-2.6727 7.8947s-2.3438-1.2336-5.1809-1.2336c-4.1941 0-4.3997 2.6316-4.3997 3.2895 0 3.6184 9.4161 4.9753 9.4161 13.446 0 6.6612-4.2352 10.937-9.9095 10.937-6.8256 0-10.321-4.2352-10.321-4.2352l1.8092-6.0444s3.5773 3.0839 6.6201 3.0839c1.9737 0 2.796-1.5625 2.796-2.7138 0-4.7286-7.7303-4.9342-7.7303-12.664 0-6.4967 4.6875-12.829 14.104-12.829 3.7007 0.04112 5.4688 1.0691 5.4688 1.0691z"/>
 <path id="path8" stroke-width=".41118" d="m111.43 46.904c-2.1382-1.1513-3.2484-2.1382-3.2484-3.4951 0-1.727 1.5214-2.8372 3.9474-2.8372 2.7961 0 5.2632 1.1513 5.2632 1.1513l1.9737-6.0033s-1.8092-1.398-7.1135-1.398c-7.4013 0-12.541 4.2352-12.541 10.197 0 3.3717 2.3849 5.9622 5.5921 7.8125 2.5905 1.4803 3.4951 2.5082 3.4951 4.0707 0 1.6036-1.2747 2.8783-3.7007 2.8783-3.5773 0-6.949-1.8503-6.949-1.8503l-2.097 6.0033s3.125 2.097 8.347 2.097c7.6069 0 13.076-3.7418 13.076-10.485 0.0411-3.6595-2.7138-6.2089-6.0444-8.1414zm30.345-12.623c-3.7418 0-6.7023 1.7681-8.9638 4.4819l-0.12336-0.04112 3.2484-17.023h-8.4704l-8.2237 43.298h8.4704l2.8372-14.803c1.1102-5.5921 3.9885-9.0461 6.7023-9.0461 1.8914 0 2.6316 1.2747 2.6316 3.125 0 1.1513-0.12336 2.5905-0.37007 3.7418l-3.2072 16.941h8.4704l3.3306-17.516c0.37007-1.8503 0.61678-4.0707 0.61678-5.5099-0.0411-4.7697-2.5493-7.648-6.949-7.648zm26.069 0c-10.197 0-16.941 9.2105-16.941 19.449 0 6.5789 4.0707 11.842 11.678 11.842 9.9918 0 16.776-8.9638 16.776-19.449 0-6.0855-3.5773-11.842-11.513-11.842zm-4.153 24.794c-2.8783 0-4.1118-2.4671-4.1118-5.5099 0-4.852 2.5082-12.788 7.1135-12.788 3.0016 0 3.9885 2.5905 3.9885 5.0987 0 5.222-2.5082 13.199-6.9901 13.199zm37.336-24.794c-5.7155 0-8.9638 5.0164-8.9638 5.0164h-0.12335l0.49342-4.523h-7.4836c-0.37007 3.0839-1.028 7.7303-1.727 11.225l-5.8799 31.003h8.4293l2.3438-12.541h0.16447s1.727 1.1102 4.9753 1.1102c9.9507 0 16.447-10.197 16.447-20.518 0.0411-5.6743-2.5082-10.773-8.676-10.773zm-8.1003 24.918c-2.2204 0-3.4951-1.2336-3.4951-1.2336l1.398-7.9359c0.98684-5.2632 3.7418-8.7993 6.7023-8.7993 2.5905 0 3.3717 2.3849 3.3717 4.6464 0 5.5099-3.2484 13.322-7.977 13.322zm28.906-37.089c-2.7138 0-4.852 2.1382-4.852 4.8931 0 2.5082 1.6036 4.2352 3.9885 4.2352h0.12336c2.6316 0 4.8931-1.7681 4.9753-4.8931 0-2.4671-1.6447-4.2352-4.2352-4.2352zm-11.842 42.845h8.4704l5.7566-30.016h-8.5115m30.058-0.04112h-5.8799l0.28783-1.398c0.49342-2.8783 2.2204-5.4688 5.0164-5.4688 1.5214 0 2.7138 0.41118 2.7138 0.41118l1.6447-6.6201s-1.4803-0.74013-4.6053-0.74013c-3.0016 0-6.0033 0.86349-8.3059 2.8372-2.8783 2.4671-4.2352 6.0033-4.8931 9.5806l-0.24671 1.398h-3.9474l-1.2336 6.3734h3.9474l-4.4819 23.684h8.5115l4.4819-23.684h5.8388zm20.395 0.04112s-5.3043 13.363-7.6892 20.641h-0.12335c-0.19-2.344-2.12-20.642-2.12-20.642h-8.9227l5.0987 27.549c0.12335 0.61677 0.0411 0.98684-0.16448 1.398-0.98684 1.8914-2.6316 3.7418-4.6053 5.0987-1.6036 1.1513-3.3717 1.8914-4.7697 2.3849l2.3438 7.1957c1.727-0.37007 5.2632-1.7681 8.3059-4.6053 3.8651-3.6184 7.4424-9.2105 11.102-16.817l10.36-22.205z"/>
</svg>
