<svg xmlns="http://www.w3.org/2000/svg" version="1.1" id="Layer_1" x="0" y="0" viewBox="0 0 300 96.658" xml:space="preserve" width="250" height="80.548"><style type="text/css" id="style2">.st0{fill:#171a21}</style><g id="XMLID_1_" transform="translate(-21.233 -122.904) scale(.68493)"><path id="XMLID_2_" class="st0" d="M125.6 191.2c-30.6 0-55.7 23.8-58.1 54.1l31.2 13c2.6-1.8 5.8-2.9 9.3-2.9h.9l13.9-20.3v-.3c0-12.2 9.9-22.2 22-22.2s22 9.9 22 22.2c0 12.2-9.9 22.2-22 22.2h-.5l-19.8 14.3v.8c0 9.2-7.4 16.6-16.5 16.6-8 0-14.7-5.8-16.2-13.4L69.5 266c6.9 24.7 29.4 42.8 56.1 42.8 32.2 0 58.3-26.3 58.3-58.8-.1-32.5-26.2-58.8-58.3-58.8zM104 280.4l-7.2-3c1.3 2.7 3.5 4.9 6.4 6.1 6.3 2.6 13.6-.4 16.2-6.7 1.3-3.1 1.3-6.5 0-9.6-1.3-3.1-3.6-5.5-6.7-6.8-3-1.3-6.3-1.2-9.1-.1l7.4 3.1c4.6 2 6.8 7.3 4.9 12-1.9 4.8-7.2 7-11.9 5zm55.4-45.6c0-8.1-6.6-14.8-14.6-14.8-8.1 0-14.6 6.6-14.6 14.8 0 8.1 6.6 14.8 14.6 14.8 8.1 0 14.6-6.6 14.6-14.8zm-25.6 0c0-6.1 4.9-11.1 11-11.1s11 5 11 11.1-4.9 11.1-11 11.1-11-5-11-11.1z"/><path id="XMLID_7_" class="st0" d="M386.6 270.2V226H399l10.8 30 10.9-30h11.8v44.2h-9.9v-25.7l-9.8 25.7h-6l-9.7-25.7v25.7z"/><path id="XMLID_8_" class="st0" d="M360.5 226.6h-7.6l-16.1 45.3h9.4l2.7-7.4h14.7l2.7 7.4h10.3zm-9 30.5l5.4-16.1 5.4 16.1z"/><path id="XMLID_11_" class="st0" d="M325.3 244.1v7.6h-17.4v10.9H328v7.6h-29.5V226H328v7.6h-20.1v10.5z"/><path id="XMLID_12_" class="st0" d="M286.3 226v7.6h-10.8v36.6h-9.3v-36.6h-12.1V226z"/><path id="XMLID_13_" class="st0" d="M245.7 257.2c0 9.1-8 13.3-16.1 13.4-8 0-13.4-1.9-16.1-5.9l5.4-5.5c2.7 2.4 5.4 3.8 10.7 3.8 5.3 0 8-1.9 8-5.5 0-3.4-2.7-4.8-5.4-5.4l-5.4-.7c-8-1.1-12.1-5.2-12.1-12.5 0-4 1.3-7.2 4-9.8 2.7-2.4 6.7-3.6 10.7-3.6 6.7 0 10.7 1.7 14.7 5.1l-5.4 5.5c-2.7-2-5.4-3.1-9.4-3.1-4 .3-6.7 1.7-6.7 5.6 0 3.1 2.7 4.6 5.4 4.8l5.4.8c6.9.9 12.3 5.5 12.3 13z"/></g></svg>