<?xml version="1.0" encoding="UTF-8" standalone="no"?>
<svg id="svg6" xmlns:rdf="http://www.w3.org/1999/02/22-rdf-syntax-ns#" xmlns="http://www.w3.org/2000/svg" height="104.03" width="250" version="1.1" preserveAspectRatio="xMidYMid" xmlns:cc="http://creativecommons.org/ns#" xmlns:dc="http://purl.org/dc/elements/1.1/" viewBox="0 0 300 124.83333">
 <metadata id="metadata12">
  <rdf:RDF>
   <cc:Work rdf:about="">
    <dc:format>image/svg+xml</dc:format>
    <dc:type rdf:resource="http://purl.org/dc/dcmitype/StillImage"/>
    <dc:title/>
   </cc:Work>
  </rdf:RDF>
 </metadata>
 <g id="g4" transform="matrix(.48828 0 0 .48828 25 10.403)">
  <path id="path2" fill="#6772e5" d="m35.982 83.484c0-5.5467 4.5511-7.68 12.089-7.68 10.809 0 24.462 3.2711 35.271 9.1022v-33.422c-11.804-4.693-23.466-6.542-35.271-6.542-28.871 0-48.071 15.076-48.071 40.249 0 39.253 54.044 32.996 54.044 49.92 0 6.5422-5.6889 8.6756-13.653 8.6756-11.804 0-26.88-4.8356-38.827-11.378v33.849c13.227 5.6889 26.596 8.1067 38.827 8.1067 29.582 0 49.92-14.649 49.92-40.107-0.142-42.384-54.329-34.847-54.329-50.776zm96.138-66.986-34.698 7.395-0.142 113.92c0 21.049 15.787 36.551 36.836 36.551 11.662 0 20.196-2.1333 24.889-4.6933v-28.87c-4.5511 1.8489-27.022 8.3911-27.022-12.658v-50.487h27.022v-30.293h-27.02zm71.12 41.386-2.28-10.524h-30.72v124.44h35.556v-84.333c8.3911-10.951 22.613-8.96 27.022-7.3956v-32.711c-4.5511-1.7067-21.191-4.8356-29.582 10.524zm38.25-10.524h35.698v124.44h-35.698zm0-10.809 35.698-7.68v-28.871l-35.698 7.5378zm109.94 8.3911c-13.938 0-22.898 6.5422-27.876 11.093l-1.8489-8.8178h-31.28v165.83l35.556-7.5378 0.14223-40.249c5.12 3.6978 12.658 8.96 25.173 8.96 25.458 0 48.64-20.48 48.64-65.564-0.14-41.247-23.61-63.718-48.5-63.718zm-8.5333 97.991c-8.3911 0-13.369-2.9867-16.782-6.6844l-0.14223-52.764c3.6978-4.1244 8.8178-6.9689 16.924-6.9689 12.942 0 21.902 14.507 21.902 33.138 0 19.058-8.8178 33.28-21.902 33.28zm169.1-32.85c0-36.409-17.636-65.138-51.342-65.138-33.849 0-54.329 28.729-54.329 64.853 0 42.809 24.178 64.427 58.88 64.427 16.924 0 29.724-3.84 39.396-9.2444v-28.444c-9.6711 4.8356-20.764 7.8222-34.844 7.8222-13.796 0-26.027-4.8356-27.591-21.618h69.547c-0.01-1.85 0.27-9.25 0.27-12.66zm-70.26-13.511c0-16.071 9.8133-22.756 18.773-22.756 8.6756 0 17.92 6.6844 17.92 22.756z"/>
 </g>
</svg>
