<?xml version="1.0" encoding="UTF-8" standalone="no"?>
<!-- Generator: Adobe Illustrator 16.0.4, SVG Export Plug-In . SVG Version: 6.00 Build 0)  -->

<svg
   xmlns:dc="http://purl.org/dc/elements/1.1/"
   xmlns:cc="http://creativecommons.org/ns#"
   xmlns:rdf="http://www.w3.org/1999/02/22-rdf-syntax-ns#"
   xmlns:svg="http://www.w3.org/2000/svg"
   xmlns="http://www.w3.org/2000/svg"
   xmlns:sodipodi="http://sodipodi.sourceforge.net/DTD/sodipodi-0.dtd"
   xmlns:inkscape="http://www.inkscape.org/namespaces/inkscape"
   id="Layer_1"
   enable-background="new 0 0 514.748 145.601"
   xml:space="preserve"
   height="43.088501"
   viewBox="0 0 325 56.015051"
   width="250"
   version="1.1"
   y="0px"
   x="0px"
   sodipodi:docname="tailorstore.svg"
   inkscape:version="0.92.4 (5da689c313, 2019-01-14)"><defs
   id="defs19" /><sodipodi:namedview
   pagecolor="#ffffff"
   bordercolor="#666666"
   borderopacity="1"
   objecttolerance="10"
   gridtolerance="10"
   guidetolerance="10"
   inkscape:pageopacity="0"
   inkscape:pageshadow="2"
   inkscape:window-width="1920"
   inkscape:window-height="1017"
   id="namedview17"
   showgrid="false"
   scale-x="1.3"
   inkscape:zoom="3.121023"
   inkscape:cx="78.900122"
   inkscape:cy="47.074406"
   inkscape:window-x="-8"
   inkscape:window-y="-8"
   inkscape:window-maximized="1"
   inkscape:current-layer="Layer_1" /><metadata
   id="metadata67"><rdf:RDF><cc:Work
       rdf:about=""><dc:format>image/svg+xml</dc:format><dc:type
         rdf:resource="http://purl.org/dc/dcmitype/StillImage" /><dc:title></dc:title></cc:Work></rdf:RDF></metadata>
<polygon
   id="polygon2"
   points="18.657,69.875 11.971,69.875 11.971,38.274 0,38.274 0,32.127 30.629,32.127 30.629,38.274 18.657,38.274 "
   transform="matrix(0.58280848,0,0,0.58280848,12.50054,-0.60198503)" />
<path
   id="path4"
   d="m 41.91197,17.965361 h 3.58311 l 9.67986,22.156047 H 51.08887 L 48.85788,34.810274 H 38.45592 l -2.26305,5.311134 h -3.96018 z m 5.53144,13.419165 -3.80283,-8.799825 -3.77135,8.799825 z"
   inkscape:connector-curvature="0"
   style="stroke-width:0.58280849" />
<rect
   id="rect6"
   y="18.122135"
   x="61.366123"
   height="21.999273"
   width="3.8657687"
   style="stroke-width:0.58280849" />
<polygon
   id="polygon8"
   points="132.16,69.874 105.68,69.874 105.68,32.127 112.32,32.127 112.32,63.834 132.16,63.834 "
   transform="matrix(0.58280848,0,0,0.58280848,12.50054,-0.60198503)" />
<path
   id="path10"
   d="m 91.63136,29.184424 v -0.06294 c 0,-6.191175 4.77728,-11.377005 11.53378,-11.377005 6.75708,0 11.47142,5.122887 11.47142,11.314061 v 0.06294 c 0,6.191757 -4.7767,11.377004 -11.53436,11.377004 -6.7565,0 -11.47084,-5.122887 -11.47084,-11.314061 m 18.95177,0 v -0.06294 c 0,-4.274318 -3.11162,-7.82537 -7.48035,-7.82537 -4.36815,0 -7.41682,3.488109 -7.41682,7.762426 v 0.06294 c 0,4.274317 3.11162,7.825369 7.47977,7.825369 4.36873,5.83e-4 7.4174,-3.488109 7.4174,-7.762426"
   inkscape:connector-curvature="0"
   style="stroke-width:0.58280849" />
<path
   id="path12"
   d="m 120.88835,18.122136 h 9.80517 c 2.76542,0 4.93464,0.817098 6.34853,2.199519 1.1627,1.194758 1.82303,2.828953 1.82303,4.74581 v 0.06294 c 0,3.614578 -2.16863,5.782626 -5.24819,6.662667 l 5.9394,8.328333 h -4.55698 l -5.40555,-7.668011 h -4.84023 v 7.668011 h -3.86518 z m 9.52251,10.905513 c 2.76542,0 4.5255,-1.445948 4.5255,-3.677522 v -0.06236 c 0,-2.356878 -1.69713,-3.645468 -4.55698,-3.645468 h -5.62585 v 7.38535 z"
   inkscape:connector-curvature="0"
   style="stroke-width:0.58280849" />
<path
   id="path14"
   d="m 190.21925,36.915961 2.32598,-2.766009 c 2.10453,1.823025 4.21138,2.859841 6.94533,2.859841 2.38893,0 3.89724,-1.099176 3.89724,-2.765426 v -0.06236 c 0,-1.571835 -0.88004,-2.420404 -4.96611,-3.363388 -4.68228,-1.131231 -7.32182,-2.513653 -7.32182,-6.568252 v -0.06294 c 0,-3.771354 3.14192,-6.380004 7.51065,-6.380004 3.20545,0 5.75174,0.974455 7.98273,2.766009 l -2.07422,2.922784 c -1.9798,-1.477419 -3.96018,-2.263045 -5.97145,-2.263045 -2.26246,0 -3.58253,1.163286 -3.58253,2.608651 v 0.06294 c 0,1.697138 1.00593,2.451292 5.21731,3.45722 4.65081,1.131231 7.07121,2.796898 7.07121,6.442365 v 0.06294 c 0,4.116959 -3.2375,6.568252 -7.85684,6.568252 -3.36339,0 -6.53736,-1.162703 -9.17748,-3.519581"
   inkscape:connector-curvature="0"
   style="stroke-width:0.58280849" />
<polygon
   id="polygon16"
   points="359.83,69.875 353.14,69.875 353.14,38.274 341.17,38.274 341.17,32.127 371.8,32.127 371.8,38.274 359.83,38.274 "
   transform="matrix(0.58280848,0,0,0.58280848,12.50054,-0.60198503)" />
<path
   id="path18"
   d="m 232.61273,29.184424 v -0.06294 c 0,-6.191175 4.77729,-11.377005 11.53378,-11.377005 6.75767,0 11.47201,5.122887 11.47201,11.314061 v 0.06294 c 0,6.191757 -4.7767,11.377004 -11.53378,11.377004 -6.75709,0 -11.47201,-5.122887 -11.47201,-11.314061 m 18.95119,0 v -0.06294 c 0,-4.274318 -3.11162,-7.82537 -7.47977,-7.82537 -4.36873,0 -7.41798,3.488109 -7.41798,7.762426 v 0.06294 c 0,4.274317 3.11219,7.825369 7.47976,7.825369 4.3699,5.83e-4 7.41799,-3.488109 7.41799,-7.762426"
   inkscape:connector-curvature="0"
   style="stroke-width:0.58280849" />
<path
   id="path20"
   d="m 261.86972,18.122136 h 9.80459 c 2.76542,0 4.93464,0.817098 6.34911,2.199519 1.16271,1.194758 1.82303,2.828953 1.82303,4.74581 v 0.06294 c 0,3.614578 -2.16863,5.782626 -5.24878,6.662667 l 5.93941,8.328333 h -4.5564 l -5.40555,-7.668011 h -4.83906 v 7.668011 H 261.8703 V 18.122136 Z m 9.52251,10.905513 c 2.76542,0 4.52551,-1.445948 4.52551,-3.677522 v -0.06236 c 0,-2.356878 -1.69714,-3.645468 -4.5564,-3.645468 h -5.62527 v 7.38535 z"
   inkscape:connector-curvature="0"
   style="stroke-width:0.58280849" />
<polygon
   id="polygon22"
   points="499.44,69.874 471.18,69.874 471.18,32.127 499.16,32.127 499.16,38.059 477.81,38.059 477.81,47.873 496.74,47.873 496.74,53.805 477.81,53.805 477.81,63.942 499.44,63.942 "
   transform="matrix(0.58280848,0,0,0.58280848,12.50054,-0.60198503)" />
<path
   id="path24"
   d="m 191.37903,3.908021 c -1.38125,-1.853331 -4.55231,-2.55853 -7.46636,-0.512872 -2.05148,1.433709 -3.81739,3.205447 -5.4376,5.490056 C 176.23709,8.273256 173.76015,7.28831 171.09089,5.942022 159.76692,0.22467097 152.24286,4.059551 150.20886,5.37087 c -3.37446,2.173875 -5.22779,5.50754 -5.07626,9.155921 0.20981,5.23362 4.32444,8.147662 8.05441,8.637221 4.34775,0.576981 8.03693,-1.859159 9.39487,-6.195254 0.18068,-0.582808 -0.1457,-1.206413 -0.72851,-1.387084 -0.57698,-0.18067 -1.20058,0.139874 -1.38708,0.728511 -1.23555,3.957269 -4.42352,5.000496 -6.9937,4.662468 -2.83828,-0.372998 -5.97379,-2.581842 -6.13115,-6.539112 -0.11656,-2.838277 1.36377,-5.466743 4.06218,-7.203512 5.61827,-3.613413 13.33466,-2.016517 18.69067,0.681886 2.66343,1.346287 5.01798,2.290437 7.10443,2.914042 -0.55367,0.915009 -1.09568,1.899956 -1.62603,2.960667 -0.0291,0.05828 -0.0589,0.116562 -0.0874,0.174843 -3.0306,-0.454591 -6.06062,0.722682 -8.11269,2.692575 -2.6984,2.593497 -4.06742,6.987873 -1.02574,10.968455 0.37299,0.489559 0.7693,0.938322 1.17727,1.357944 -1.39291,2.576014 -2.68092,4.965528 -3.66586,6.836343 -2.76252,5.233621 -6.27685,9.330764 -10.07094,11.871809 -0.98494,-1.00243 -1.72511,-2.126668 -2.11559,-3.281212 -1.06654,-3.135509 -0.69354,-6.078692 1.06071,-8.287536 1.54444,-1.94658 3.94561,-3.007292 6.24771,-2.779997 0.60612,0.05828 1.14813,-0.384653 1.21224,-0.990774 0.0583,-0.611949 -0.38465,-1.153961 -0.99077,-1.212242 -3.05392,-0.30306 -6.19526,1.078196 -8.20595,3.607585 -2.23215,2.814965 -2.7392,6.498314 -1.42205,10.373991 0.44293,1.31773 1.22973,2.587669 2.27295,3.729974 -1.79505,0.938322 -3.63089,1.526958 -5.46091,1.725113 -4.39438,0.466247 -8.45073,-1.340459 -11.73194,-5.233037 -0.39048,-0.46683 -1.08985,-0.524528 -1.5561,-0.134046 -0.46624,0.39631 -0.53035,1.09568 -0.13404,1.561927 3.37446,4.003894 7.50657,6.090348 12.03499,6.090348 0.53619,0 1.0782,-0.02914 1.62604,-0.08684 2.33706,-0.251191 4.67412,-1.055466 6.92959,-2.343473 0.90335,0.705198 1.91161,1.328803 3.00146,1.841675 2.27296,1.060711 4.72658,1.590484 7.23849,1.590484 2.26712,0 4.58029,-0.430695 6.84217,-1.304908 4.58612,-1.771738 7.79156,-5.403218 8.5667,-9.709589 0.67606,-3.782427 -0.69879,-7.512402 -3.77077,-10.228289 -0.86198,-0.757651 -1.78922,-1.451193 -2.68092,-2.127251 -0.86256,-0.64109 -1.7018,-1.270523 -2.48335,-1.946581 2.21526,-4.114627 4.61002,-8.573112 6.37593,-12.000026 h 0.006 c 0.64167,0.268092 1.2711,0.646917 1.88247,1.153961 1.67849,1.392912 1.81195,3.298696 1.37484,4.610015 -0.42487,1.27635 -1.61438,2.680919 -3.67752,2.791652 -0.61195,0.03497 -1.07819,0.553668 -1.04905,1.165617 0.035,0.611949 0.56532,1.078196 1.16561,1.043228 2.65761,-0.139875 4.82507,-1.789223 5.65907,-4.301127 0.8509,-2.564357 0.0583,-5.251104 -2.05731,-7.011186 -0.73434,-0.611949 -1.50365,-1.078196 -2.29568,-1.416225 0.5828,-1.159789 1.17727,-2.208844 1.78864,-3.170478 5.37349,1.136477 8.62556,-0.0408 10.54941,-1.561926 2.52531,-1.999616 2.5189,-4.424099 1.38883,-5.939401 m -19.95536,28.353632 c 0.89753,0.676058 1.74843,1.311319 2.54688,2.016517 2.51773,2.2205 3.60175,5.128715 3.05391,8.176803 -0.63584,3.543476 -3.32201,6.544356 -7.18603,8.036929 -4.19039,1.614379 -8.57311,1.532786 -12.34388,-0.227878 -0.69354,-0.326373 -1.34629,-0.698788 -1.94658,-1.118992 3.89316,-2.768341 7.46636,-6.993702 10.26326,-12.297259 0.92083,-1.742598 2.10335,-3.945614 3.38611,-6.323472 0.73434,0.612531 1.48558,1.177856 2.22633,1.737352 m -2.79748,-5.338526 c -0.18125,-0.203983 -0.35551,-0.419622 -0.52453,-0.641089 -2.36037,-3.094713 -1.04322,-6.259363 0.80428,-8.036929 1.39349,-1.328803 3.39777,-2.261297 5.50171,-2.185532 -1.6441,3.16465 -3.77077,7.127748 -5.78146,10.86355 M 188.61672,8.110067 c -1.80088,1.427881 -4.45265,1.847503 -7.78049,1.299663 1.32297,-1.713456 2.73862,-3.083056 4.34775,-4.207877 1.99321,-1.392912 3.78826,-0.82176 4.42352,0.02914 0.61719,0.827588 0.24478,1.899955 -0.99078,2.879073"
   inkscape:connector-curvature="0"
   style="fill:#ae0f0a;stroke-width:0.58280849" />
<path
   id="path26"
   d="m 305.7552,18.963129 c 0,-0.565907 0.14978,-1.097428 0.44876,-1.592816 0.2984,-0.494804 0.70986,-0.885869 1.23264,-1.172027 0.52336,-0.286159 1.08694,-0.428948 1.69073,-0.428948 0.59738,0 1.15804,0.141623 1.6814,0.424868 0.52336,0.282662 0.93599,0.672561 1.23789,1.167948 0.30189,0.495387 0.45284,1.02924 0.45284,1.600975 0,0.557748 -0.14512,1.081692 -0.43478,1.571252 -0.29024,0.490142 -0.69704,0.881789 -1.21982,1.17669 -0.52336,0.294318 -1.09568,0.441186 -1.71753,0.441186 -0.61894,0 -1.1901,-0.146285 -1.71288,-0.439438 -0.52278,-0.293152 -0.93016,-0.684217 -1.22156,-1.174359 -0.29199,-0.489559 -0.43769,-1.014669 -0.43769,-1.575331 m 0.55133,0 c 0,0.4814 0.12647,0.927831 0.37883,1.339877 0.25236,0.412045 0.59621,0.73667 1.03274,0.974455 0.43652,0.237786 0.90626,0.357262 1.40865,0.357262 0.5082,0 0.98028,-0.121224 1.41622,-0.36309 0.43652,-0.242448 0.78096,-0.567655 1.03041,-0.97737 0.25002,-0.408548 0.37474,-0.853231 0.37474,-1.331134 0,-0.475572 -0.12705,-0.920837 -0.37882,-1.335797 -0.25178,-0.41496 -0.59738,-0.74075 -1.03566,-0.978536 -0.43768,-0.237785 -0.90685,-0.357261 -1.40573,-0.357261 -0.50238,0 -0.96979,0.117727 -1.40107,0.352599 -0.43244,0.234872 -0.77747,0.559496 -1.03332,0.972707 -0.25818,0.413794 -0.38699,0.861974 -0.38699,1.346288 m 4.18807,-0.755903 c 0,0.483731 -0.22846,0.813601 -0.68539,0.989026 l 1.06246,1.686648 h -0.94648 l -0.86139,-1.469843 h -0.40272 V 20.8829 h -0.84799 v -3.835463 h 1.17495 c 0.52044,0 0.90102,0.09675 1.14347,0.289073 0.24303,0.192327 0.36309,0.482566 0.36309,0.870716 m -1.83352,0.590385 h 0.30889 c 0.22147,0 0.38932,-0.04954 0.50238,-0.148616 0.11307,-0.09908 0.17018,-0.241283 0.17018,-0.424867 0,-0.2034 -0.0548,-0.346188 -0.16377,-0.426616 -0.10898,-0.08101 -0.2815,-0.121224 -0.51812,-0.121224 h -0.30014 v 1.121323 z"
   inkscape:connector-curvature="0"
   style="stroke-width:0.58280849" />
</svg>