<svg xmlns="http://www.w3.org/2000/svg" viewBox="0 0 300 68.238" width="250" height="56.865"><g transform="matrix(.68512 0 0 .68512 -21.246 -137.16)"><linearGradient id="a" gradientUnits="userSpaceOnUse" x1="1.371" y1="-1.407" x2="1.452" y2="-1.407" gradientTransform="rotate(-90 584.187 71.14) scale(287.16)"><stop offset="0" stop-color="#096fd2"/><stop offset="1" stop-color="#0b7fdd"/></linearGradient><path fill="url(#a)" d="M97.8 254.2l3 7.4-23-11.6 23-11.6-3 7.4h22.6l-3.1-7.4 22.9 11.6-22.9 11.6 3.1-7.4z"/><linearGradient id="b" gradientUnits="userSpaceOnUse" x1=".715" y1="-.394" x2=".796" y2="-.394" gradientTransform="rotate(-90 768.09 255.641) scale(1024.08)"><stop offset="0" stop-color="#0564c8"/><stop offset="1" stop-color="#0e8ee9"/></linearGradient><path d="M145.6 291.5H72.4c-2.7 0-4.9-2.2-4.9-4.9v-73.2c0-2.7 2.2-4.9 4.9-4.9h73.2c2.7 0 4.9 2.2 4.9 4.9v73.2c-.1 2.7-2.2 4.9-4.9 4.9zm-36.9-75.7C90 216 74.9 231.3 74.8 250c-.1 19 15.1 34.2 34.2 34.2 18.7 0 33.9-15.5 34.2-34.2.3-19.3-15.3-34.3-34.5-34.2z" fill="url(#b)"/><linearGradient id="c" gradientUnits="userSpaceOnUse" x1="2.666" y1="1.774" x2="2.747" y2="1.774" gradientTransform="rotate(-90 449.9 1041.303) scale(435.81)"><stop offset="0" stop-color="#096fd2"/><stop offset="1" stop-color="#0e8ee9"/></linearGradient><path fill="url(#c)" d="M186 267.6h-8.3v-28.7h-10.3v-6.6h28.8v6.6H186z"/><linearGradient id="d" gradientUnits="userSpaceOnUse" x1="1.433" y1="-4.48" x2="1.514" y2="-4.48" gradientTransform="rotate(-90 1208.768 -468.815) scale(329.05)"><stop offset="0" stop-color="#096fd2"/><stop offset="1" stop-color="#0e8ee9"/></linearGradient><path d="M203.4 268.5c-2.2 0-6.2-.4-8.8-3.1-2.1-2.2-3.2-5.5-3.2-9.7 0-5.4 1.7-9.4 5.2-11.7 2-1.4 4.5-2.1 7-2.1 2.7 0 7.5.8 10.1 6.1 1.7 3.5 1.6 7.4 1.5 9v.4h-16.1c.1 2.5.7 5.5 4.4 5.5 2 0 3.2-.9 3.7-3l.1-.4h7.3v.5c-.1 1-.3 3.3-2.4 5.5-1.8 1.9-5 3-8.8 3zm3.7-16.5c-.1-2.1-.8-4.4-3.7-4.4-3.1 0-3.8 2.8-4 4.4z" fill="url(#d)"/><linearGradient id="e" gradientUnits="userSpaceOnUse" x1="1.446" y1="-5.482" x2="1.526" y2="-5.482" gradientTransform="rotate(-90 1370.455 -634.282) scale(323.78)"><stop offset="0" stop-color="#096fd2"/><stop offset="1" stop-color="#0e8ee9"/></linearGradient><path d="M227 268.1c-3.7 0-5.4-1.2-6.3-2-1.4-1.4-2.2-3.5-2.2-5.6 0-2 .7-5.7 5.4-7.9 2.8-1.3 6.8-1.4 9.2-1.4 0-1.2-.1-1.9-.3-2.6-.6-1.6-2.3-1.7-2.7-1.7-.9 0-1.8.4-2.3 1.1-.4.7-.4 1.3-.4 1.9v.5h-7.8v-.5c0-1.2.1-4 2.9-6 1.9-1.4 4.4-2 7.5-2 2.3 0 6.5.4 8.9 3.3 1.8 2.1 1.8 5.2 1.8 6.2v9.6c0 2.3.2 4.2.6 6l.1.6H234l-.1-.4c-.1-.7-.2-1.3-.2-2-2.6 2.9-5.6 2.9-6.7 2.9zm5.1-11.9c-2.8 0-5.9.9-5.9 3.5 0 1.4.9 3 3 3 1 0 2-.4 2.6-1.2 1.1-1.3 1.2-2.9 1.2-5.2-.3-.1-.6-.1-.9-.1z" fill="url(#e)"/><linearGradient id="f" gradientUnits="userSpaceOnUse" x1="3.697" y1="-.543" x2="3.777" y2="-.543" gradientTransform="rotate(-90 963.422 527.849) scale(314.35)"><stop offset="0" stop-color="#096fd2"/><stop offset="1" stop-color="#0e8ee9"/></linearGradient><path d="M276.6 267.6V253c0-3-.6-4.9-3.6-4.9-3.6 0-3.9 3.1-3.9 7v12.5h-8v-14.7c0-2.3-.3-4.8-3.5-4.8-4 0-4 3.3-4 4.9v14.6h-8v-20c0-1.3-.1-2.8-.2-4.5v-.5h7.7l.2 2.3c1.1-1.2 3.2-2.9 7-2.9 2.5 0 5.8.7 7.6 4 1.7-2.6 4.2-3.9 7.7-3.9 4.9 0 7.1 2.9 7.7 4.1 1.3 2.1 1.3 4.9 1.2 6.9v14.4z" fill="url(#f)"/><linearGradient id="g" gradientUnits="userSpaceOnUse" x1="2.67" y1="-1.353" x2="2.751" y2="-1.353" gradientTransform="rotate(-90 1190.857 300.375) scale(435.22)"><stop offset="0" stop-color="#096fd2"/><stop offset="1" stop-color="#0e8ee9"/></linearGradient><path fill="url(#g)" d="M299.8 267.6l-12.9-35.3h4.4l10.8 30.4 10.6-30.4h4L304 267.6z"/><linearGradient id="h" gradientUnits="userSpaceOnUse" x1="1.061" y1="-6.471" x2="1.142" y2="-6.471" gradientTransform="matrix(0 -435.22 435.22 0 3137.903 729.152)"><stop offset="0" stop-color="#096fd2"/><stop offset="1" stop-color="#0e8ee9"/></linearGradient><path d="M319.7 267.6v-24.8h3.8v24.8zm-.2-30.8v-4.5h4.3v4.5z" fill="url(#h)"/><linearGradient id="i" gradientUnits="userSpaceOnUse" x1="1.45" y1="-9.333" x2="1.531" y2="-9.333" gradientTransform="matrix(0 -323.73 323.73 0 3361.08 737.555)"><stop offset="0" stop-color="#096fd2"/><stop offset="1" stop-color="#0e8ee9"/></linearGradient><path d="M339.4 268.3c-7.5 0-10.9-6.6-10.9-13.1 0-6.3 3.5-13.1 11.1-13.1 7.3 0 11.3 4.9 11.3 13.8v.5h-18.4c.1 2.9 1.3 8.4 7.8 8.4 3.1 0 5.7-2.2 6.4-5.3l.1-.4h4l-.2.6c-1.5 5.7-5.2 8.6-11.2 8.6zm7.4-15.5c-.5-4.5-3.1-7.1-7.2-7.1-4.5 0-6.5 3.7-7 7.1z" fill="url(#i)"/><linearGradient id="j" gradientUnits="userSpaceOnUse" x1="3.796" y1="-4.517" x2="3.877" y2="-4.517" gradientTransform="rotate(-90 1622.957 -131.774) scale(306.12)"><stop offset="0" stop-color="#096fd2"/><stop offset="1" stop-color="#0e8ee9"/></linearGradient><path fill="url(#j)" d="M370 242.8h4.1l6.7 19.1 6.6-19.1h4.2l-9.3 24.8H379l-7.1-19.8-7.2 19.8h-3.5l-9.1-24.8h4.1l6.9 19.3z"/><linearGradient id="k" gradientUnits="userSpaceOnUse" x1="1.45" y1="-11.58" x2="1.531" y2="-11.58" gradientTransform="matrix(0 -323.73 323.73 0 4152.71 737.555)"><stop offset="0" stop-color="#096fd2"/><stop offset="1" stop-color="#0e8ee9"/></linearGradient><path d="M403.5 268.3c-7.5 0-10.9-6.6-10.9-13.1 0-6.3 3.5-13.1 11.1-13.1 7.3 0 11.3 4.9 11.3 13.8v.5h-18.4c.1 2.9 1.3 8.4 7.8 8.4 3.1 0 5.7-2.2 6.4-5.3l.1-.4h4l-.2.6c-1.5 5.7-5.2 8.6-11.2 8.6zm7.4-15.5c-.5-4.5-3.1-7.1-7.2-7.1-4.5 0-6.5 3.7-7 7.1z" fill="url(#k)"/><linearGradient id="l" gradientUnits="userSpaceOnUse" x1="3.687" y1="-6.351" x2="3.768" y2="-6.351" gradientTransform="rotate(-90 1959.403 -468.142) scale(315.13)"><stop offset="0" stop-color="#096fd2"/><stop offset="1" stop-color="#0e8ee9"/></linearGradient><path d="M420.4 267.6v-18.9c0-1.4-.1-2.8-.2-4.1 0-.4-.1-.8-.1-1.2v-.5h3.9l.1 2.3c1.2-1.8 3-2.9 5-3h.9c.7 0 1.4 0 2 .1h.4V246h-.5c-.2 0-.5-.1-.7-.1-.3-.1-.7-.1-1-.1-3.8 0-6 2.6-6.1 7.1v14.8h-3.7z" fill="url(#l)"/></g></svg>