<?xml version="1.0" encoding="UTF-8" standalone="no"?>
<svg id="svg26" xmlns:sketch="http://www.bohemiancoding.com/sketch/ns" xmlns:rdf="http://www.w3.org/1999/02/22-rdf-syntax-ns#" xmlns="http://www.w3.org/2000/svg" height="70.919" width="250" version="1.1" xmlns:cc="http://creativecommons.org/ns#" xmlns:xlink="http://www.w3.org/1999/xlink" viewBox="0 0 300 85.103384" xmlns:dc="http://purl.org/dc/elements/1.1/">
 <metadata id="metadata30">
  <rdf:RDF>
   <cc:Work rdf:about="">
    <dc:format>image/svg+xml</dc:format>
    <dc:type rdf:resource="http://purl.org/dc/dcmitype/StillImage"/>
    <dc:title>trello-logo-blue</dc:title>
   </cc:Work>
  </rdf:RDF>
 </metadata>
<!-- Generator: Sketch 3.4.3 (16044) - http://www.bohemiancoding.com/sketch -->
 <title id="title2">trello-logo-blue</title>
 <desc id="desc4">Created with Sketch.</desc>
 <defs id="defs11">
  <linearGradient id="linearGradient-1" x2=".5" x1=".5" y2="1">
   <stop id="stop6" stop-color="#0091E6" offset="0"/>
   <stop id="stop8" stop-color="#0079BF" offset="1"/>
  </linearGradient>
  <linearGradient id="linearGradient32" y2="377.17" xlink:href="#linearGradient-1" gradientUnits="userSpaceOnUse" x2="336.23" gradientTransform="scale(1.5917 .62827)" x1="336.23"/>
  <linearGradient id="linearGradient34" y2="200" xlink:href="#linearGradient-1" gradientUnits="userSpaceOnUse" x2="100" x1="100"/>
 </defs>
 <g id="Page-1" transform="matrix(.29928 0 0 .29928 10.036 6.7927)" fill="none" sketch:type="MSPage">
  <g id="Original-Assets" transform="translate(-279,-262)" sketch:type="MSArtboardGroup">
   <g id="Group" transform="translate(229,198)" sketch:type="MSLayerGroup">
    <g id="Trello-Logo" sketch:type="MSShapeGroup">
     <g id="Trello-Logo---Blue">
      <g id="Logo" transform="translate(50,64)">
       <g id="g18" transform="translate(50,1)">
        <path id="Type" fill="url(#linearGradient32)" d="m673.29 177.59c-12.771 5.2036-22.848 23.181-38.175 33.399-0.9504 0.6336-1.9008 0.9504-2.5344 0.9504-1.2672 0-2.8512-1.2672-2.8512-6.9696 0-19.642 6.336-29.146 11.722-43.085 18.691-48.47 50.688-89.971 79.2-135.27 2.2176-3.4848 3.4848-7.2864 3.4848-11.405 0-3.4848-1.2672-6.336-2.8512-9.8208-1.27-2.8556-6.97-5.39-13.31-5.39-3.4848 0-6.6528 0.3168-10.771 0.3168-14.89 0-18.058 21.859-21.542 27.562-23.76 40.234-51.005 89.971-64.944 125.14-3.0567 7.8831-6.3585 15.766-8.8682 23.857-13.775 3.9888-24.094 23.357-40.236 34.118-0.9504 0.6336-1.9008 0.9504-2.5344 0.9504-1.2672 0-2.8512-1.2672-2.8512-6.9696 0-19.642 6.336-29.146 11.722-43.085 18.691-48.47 50.688-89.971 79.2-135.27 2.2176-3.4848 3.4848-7.2864 3.4848-11.405 0-3.4848-1.2672-6.336-2.8512-9.8208-1.26-2.8698-6.96-5.4042-13.3-5.4042-3.48 0-6.65 0.3168-10.77 0.3168-14.89 0-18.058 21.859-21.542 27.562-23.76 40.234-51.005 89.971-64.944 125.14-1.1082 2.8579-2.2485 5.7158-3.3717 8.5836-0.34684 0.18526-0.70102 0.38615-1.0635 0.60364-16.157 9.504-29.779 26.294-49.421 37.699-3.8016 2.2176-15.523 10.454-25.027 10.454-2.2176 0-4.1184-0.6336-6.0192-1.584-2.8512-1.2672-5.7024-7.2864-5.7024-9.1872 0-1.584 0.3168-1.9008 3.4848-3.8016 27.878-16.79 50.688-40.867 70.33-64.944 7.2864-8.8704 16.79-26.294 16.79-38.966 0-8.2368-2.8512-17.741-12.672-21.226-6.9696-2.5344-14.89-3.8016-21.226-3.8016-16.79 0-29.146 7.6032-36.115 14.89-7.0954 7.5749-13.959 15.353-20.335 23.404-6.65-5.753-16.05-8.199-24.96-8.199-10.454 0-30.096 12.989-40.234 20.592-1.584 1.2672-2.5344 1.9008-3.168 1.9008-0.3168 0-0.6336-0.3168-0.6336-0.9504 0-0.3168 0.6336-3.168 0.6336-8.2368 0-4.4352-0.9504-10.138-5.0688-17.107-0.9504-1.584-6.6528-5.0688-13.622-5.0688-8.5536 0-16.474 4.1184-16.474 8.5536 0 3.168 2.8512 4.4352 2.8512 7.2864 0 1.584-1.2672 8.8704-3.168 15.84-5.3856 20.275-12.038 40.234-19.008 60.192-3.8016 11.088-16.474 20.909-16.474 32.947 0 3.8016 2.5344 8.8704 6.0192 12.672 5.7024 6.336 9.1872 8.5536 14.256 8.5536 2.2176 0 4.752-0.6336 6.9696-2.5344 4.752-4.1184 7.2864-8.2368 8.5536-13.939 8.2368-37.382 31.997-62.726 58.291-79.517 8.8704-5.7024 20.909-11.722 22.493-11.722 1.6242 0 4.1645 0.74948 6.7242 1.4799-7.3503 11.989-13.306 24.632-17.179 38.12-1.2672 4.4352-1.9008 8.5536-1.9008 12.989 0 7.2864 1.584 14.89 4.1184 22.176 3.4848 10.138 9.1872 19.008 17.107 23.126 14.573 7.6032 25.027 11.722 34.531 11.722 5.3856 0 9.504-0.9504 13.939-3.4848 20.822-11.781 33.588-20.719 42.807-28.657 0.25276 8.0491 1.8394 12.508 7.5644 18.52 5.7024 6.0192 14.573 11.405 26.294 13.939 1.9008 0.3168 3.8016 0.6336 5.7024 0.6336 13.411 0 26.318-10.9 36.27-21.706 1.1523 2.358 2.8267 4.6089 5.2311 7.1336 5.7024 6.0192 14.573 11.405 26.294 13.939 1.9008 0.3168 3.8016 0.6336 5.7024 0.6336 15.71 0 30.727-14.957 41.114-27.199 3.4619 7.1605 13.136 14.24 24.78 19.913 3.168 1.584 6.9696 2.5344 10.454 2.5344 13.622 0 23.443-11.088 31.046-19.325 19.642-21.542 30.413-48.154 38.65-81.734 0.6336-2.5344 1.584-3.4848 2.8512-3.4848 3.168 0 7.2864 0 11.722-0.6336 8.5536-1.2672 15.206-4.1184 23.126-5.3856 4.752-0.9504 4.1184-2.5344 8.5536-4.1184 3.168-1.2672 5.7024-2.5344 5.7024-5.7024 0-5.3856-9.8208-11.088-24.71-11.088-11.722 0-18.691 0.9504-23.443 0.9504-7.2864 0-9.1872-2.2176-13.939-14.573 0 0 4.752 12.355 0 0-0.9504-2.5344-1.9008-3.8016-4.752-6.336-6.6528-5.7024-14.89-7.6032-21.542-7.6032-15.84 0-29.462 16.157-38.966 29.779-2.2176 3.168-5.3856 5.7024-7.6032 9.1872-13.05 19.575-25.545 41.649-27.086 65.442zm-405.03-107.89c7.92 0 12.355-0.6336 13.306-0.6336 0.9504 0 1.584 0.3168 1.584 1.2672 0 0.6336-0.3168 1.584-2.5344 6.336-19.325 41.501-32.63 83.635-44.352 130.2-0.3168 1.2672-1.2672 6.0192-1.2672 10.771 0 4.4352 1.2672 9.1872 5.7024 11.722 8.5536 5.0688 15.523 7.2864 20.275 7.2864 6.9696 0 10.454-4.4352 10.454-11.722 0-6.336 0.3168-12.989 1.2672-18.058 8.8704-46.57 22.176-83.002 42.768-121.02 9.8208-18.058 11.088-19.008 11.088-20.592 0-0.6336-0.3168-1.584-0.9504-2.5344 12.672-2.8512 27.878-4.752 41.818-4.752 1.584 0 7.92 2.2176 8.8704 3.168 2.2176 2.2176 4.4352 4.4352 8.2368 4.4352 3.168 0 8.5536-2.2176 10.454-3.4848 4.4352-3.168 6.6528-6.6528 6.6528-12.355 0-5.3856-19.958-18.691-33.898-18.691-17.107 0-32.63 2.2176-47.203 5.0688-6.336 1.2672-29.146 4.752-45.619 4.752-15.84 0-14.89-2.2176-21.542-2.2176-3.8016 0-5.7024 1.9008-7.2864 3.4848s-2.5344 7.92-2.5344 13.622c0 2.8512 0 5.0688 1.584 6.9696 4.752 5.7024 13.939 6.9696 23.126 6.9696 0 0-9.1872 0 0 0zm234.75 25.661c0 2.8512-0.9504 4.752-4.752 10.771-3.8016 6.0192-2.2176 6.0192-6.9696 12.355-9.1872 12.355-20.592 24.71-35.482 38.333-4.1184 3.8016-4.752 3.8016-5.3856 3.8016-0.3168 0-0.9504-0.3168-0.9504-0.9504 0-0.9504 0.3168-2.2176 3.4848-8.8704 9.8208-20.592 21.859-34.214 35.165-47.52 7.2864-7.2864 11.722-9.8208 13.306-9.8208 0.9504 0 1.584 0.3168 1.584 1.9008v0zm243.62 8.2368c0.3168 0 0.6336 0.3168 0.9504 0.9504 0.3168 0.9504 0.9504 1.9008 2.5344 3.168 1.2672 0.9504 1.2672 5.3856 1.2672 8.8704 0 30.73-17.424 56.074-34.531 81.734-3.8016 5.7024-6.0192 6.6528-7.92 6.6528-1.584 0-4.1184-4.1184-5.0688-6.6528-1.2672-3.4848-1.584-7.6032-1.584-9.1872 0-24.71 23.443-61.459 38.966-81.734 2.5344-3.4848 4.4352-3.8016 5.3856-3.8016 0 0-0.9504 0 0 0z"/>
        <g id="Mark" transform="translate(0,35)">
         <rect id="Board" rx="25" height="200" width="200" y="0" x="0" fill="url(#linearGradient34)"/>
         <rect id="Right-List" rx="12" height="87.5" width="61" y="26" x="113" fill="#fff"/>
         <rect id="Left-List" rx="12" height="137.5" width="61" y="26" x="26" fill="#fff"/>
        </g>
       </g>
      </g>
     </g>
    </g>
   </g>
  </g>
 </g>
</svg>
