<?xml version="1.0" encoding="UTF-8" standalone="no"?>
<!-- Generator: Adobe Illustrator 19.2.1, SVG Export Plug-In . SVG Version: 6.00 Build 0)  -->
<svg id="layer" xmlns:rdf="http://www.w3.org/1999/02/22-rdf-syntax-ns#" xmlns="http://www.w3.org/2000/svg" xml:space="preserve" viewBox="0 0 300 123.27946" height="102.73" width="250" version="1.1" y="0px" x="0px" xmlns:cc="http://creativecommons.org/ns#" xmlns:dc="http://purl.org/dc/elements/1.1/"><metadata id="metadata51"><rdf:RDF><cc:Work rdf:about=""><dc:format>image/svg+xml</dc:format><dc:type rdf:resource="http://purl.org/dc/dcmitype/StillImage"/><dc:title/></cc:Work></rdf:RDF></metadata>
<style id="style2" type="text/css">
	.st0{opacity:0;fill:none;stroke:#FFFFFF;stroke-width:0.3141;stroke-linecap:round;stroke-linejoin:round;stroke-miterlimit:10;}
</style>
<polygon id="polygon4" points="246.2 303.5 295.2 303.5 295.2 315.4 277.9 315.4 277.9 367 263.5 367 263.5 315.4 246.2 315.4" transform="matrix(.41660 0 0 .41660 16.418 -72.588)"/>
<polygon id="polygon6" opacity="0" transform="matrix(.41660 0 0 .41660 16.418 -72.588)" points="295.2 303.5 295.2 315.4 277.9 315.4 277.9 367 263.5 367 263.5 315.4 246.2 315.4 246.2 303.5" stroke-width=".3141" class="st0"/>
<g id="g22" transform="matrix(.41660 0 0 .41660 16.418 -72.588)">
	<path id="path8" d="m300.6 304.1c4.7-0.6 11.6-1.3 19.2-1.3 9.4 0 16 1.6 20.7 5 3.8 3.1 5.7 7.5 5.7 13.2 0 8.2-5.7 13.8-11 15.7v0.3c4.4 1.9 6.9 6 8.5 11.9 1.9 7.2 3.8 15.4 5 17.9h-14.8c-0.9-1.6-2.5-6.9-4.4-14.8-1.6-7.9-4.4-10.1-10.4-10.1h-4.1v25.1h-14.5v-62.9zm14.4 27.7h5.7c7.2 0 11.3-3.8 11.3-9.4 0-5.7-4.1-8.8-10.7-8.8-3.5 0-5.3 0.3-6.3 0.6z"/>
	<path id="path10" d="m369 303.5v36.4c0 11 4.1 16.6 11.6 16.6s11.6-5.3 11.6-16.6v-36.4h14.5v35.5c0 19.8-10.1 29.2-26.7 29.2-16 0-25.4-9.1-25.4-29.2v-35.5z"/>
	<path id="path12" d="m416.8 352.2c4.1 1.9 10.1 4.1 16 4.1 6.6 0 10.1-2.8 10.1-6.9s-2.8-6.3-10.7-9.1c-10.4-3.8-17.3-9.4-17.3-18.8 0-10.7 9.1-19.2 23.9-19.2 7.2 0 12.6 1.6 16.3 3.5l-3.1 11.6c-2.5-1.3-7.2-3.1-13.5-3.1-6 0-9.1 2.8-9.1 6 0 4.1 3.5 6 11.9 9.1 11 4.1 16.3 10.1 16.3 18.8 0 10.7-8.2 19.8-25.8 19.8-7.2 0-14.4-1.9-17.9-3.8z"/>
	<polygon id="polygon14" points="509.5 303.5 509.5 315.4 492.2 315.4 492.2 367 477.7 367 477.7 315.4 460.5 315.4 460.5 303.5"/>
	<polygon id="polygon16" opacity="0" points="509.5 303.5 509.5 315.4 492.2 315.4 492.2 367 477.7 367 477.7 315.4 460.5 315.4 460.5 303.5" stroke-width=".3141" class="st0"/>
	<polygon id="polygon18" points="552.8 328.3 552.8 340.3 529.3 340.3 529.3 355.3 555.6 355.3 555.6 367 514.8 367 514.8 303.5 554.4 303.5 554.4 315.1 529.3 315.1 529.3 328.3"/>
	<polygon id="polygon20" opacity="0" points="552.8 328.3 552.8 340.3 529.3 340.3 529.3 355.3 555.6 355.3 555.6 367 514.8 367 514.8 303.5 554.4 303.5 554.4 315.1 529.3 315.1 529.3 328.3" stroke-width=".3141" class="st0"/>
</g>
<g id="g28" transform="matrix(.41660 0 0 .41660 16.418 -72.588)">
	<path id="path24" d="m564.4 304.1c5.3-0.6 12.3-1.3 19.5-1.3 12.3 0 20.1 2.2 26.1 6.9 6.6 4.7 10.7 12.6 10.7 23.9 0 12.3-4.4 20.7-10.4 25.8-6.9 5.7-17 8.2-29.5 8.2-7.5 0-12.6-0.3-16.3-0.9v-62.6zm14.5 52.2c1.3 0.3 3.1 0.3 5 0.3 13.2 0 21.7-7.2 21.7-22.3 0-13.2-7.9-20.4-20.1-20.4-3.1 0-5.3 0.3-6.6 0.6z"/>
	<path id="path26" d="m124 198.9c-57.2 0-103.4 46.2-103.4 103.3 0 57.2 46.2 103.3 103.4 103.3s103.4-46.2 103.4-103.3-46.2-103.3-103.4-103.3m-0.9 168.1c-35.8 0-65-28.9-65-65s29.2-65.3 65-65.3c36.1 0 65.3 29.2 65.3 65.3s-29.2 65-65.3 65"/>
</g>
<g id="g44" transform="matrix(.41660 0 0 .41660 16.418 -72.588)">
	<path id="path30" d="m151.7 322.4c-9.7 14.1-22.9 26.7-40.5 26.7-18.8 0-29.5-11.6-29.5-30.5 0-30.8 22.6-60.9 54.3-60.9 10.7 0 25.1 4.4 25.1 17.3 0 23.2-36.4 31.1-54.3 35.8-0.6 3.8-1.3 7.9-1.3 11.6 0 8.2 4.4 15.4 13.2 15.4 11.6 0 21-11 27.6-19.2zm-10.1-50c0-4.7-2.5-8.5-7.5-8.5-14.8 0-22.6 28.9-25.4 40.2 13.7-4.1 32.9-15.7 32.9-31.7"/>
	<path id="path32" d="m248.4 437.9c3.5 2.2 7.9 3.8 12.9 3.8 8.8 0 14.1-4.7 14.1-11.9 0-6.6-3.5-10.4-11.9-13.8-9.4-3.1-15.1-8.2-15.1-16 0-8.8 7.2-15.1 17-15.1 5.7 0 9.7 1.6 11.6 2.8l-1.6 3.5c-1.6-0.9-5.3-2.8-10.4-2.8-9.4 0-12.6 6.3-12.6 10.7 0 6.6 3.8 10.1 12.3 13.2 9.4 4.1 14.8 8.2 14.8 17 0 8.5-6.3 16-18.5 16-5 0-11-1.6-14.1-3.8z"/>
	<polygon id="polygon34" points="292.4 385.8 296.5 385.8 296.5 411.6 328.8 411.6 328.8 385.8 332.9 385.8 332.9 444.5 328.8 444.5 328.8 415.3 296.5 415.3 296.5 444.5 292.4 444.5"/>
	<polygon id="polygon36" opacity="0" points="292.4 385.8 296.5 385.8 296.5 411.6 328.8 411.6 328.8 385.8 332.9 385.8 332.9 444.5 328.8 444.5 328.8 415.3 296.5 415.3 296.5 444.5 292.4 444.5" stroke-width=".3141" class="st0"/>
	<path id="path38" d="m396.7 414.7c0 20.4-12.6 30.8-26.1 30.8-14.5 0-25.8-11.6-25.8-29.8 0-19.2 11.6-30.8 26.4-30.8s25.5 11.6 25.5 29.8m-47.4 0.9c0 13.2 7.5 26.4 21.4 26.4 14.1 0 21.7-12.6 21.7-27.3 0-12.3-6.6-26.4-21.4-26.4s-21.7 13.8-21.7 27.3"/>
	<path id="path40" d="m408.6 386.7c3.5-0.9 7.5-1.3 12.6-1.3 6.9 0 12.3 1.9 15.4 5 2.8 2.5 4.7 6.6 4.7 11.3 0 5-1.6 8.8-4.1 11.6-3.8 4.4-10.1 6.6-17.3 6.6-2.5 0-5 0-7.2-0.6v25.1h-4.1zm4.1 28.9c2.2 0.6 4.7 0.9 7.5 0.9 10.4 0 16.6-5 16.6-14.4 0-9.1-6.6-13.2-15.7-13.2-4.1 0-6.9 0.3-8.5 0.6v26.1z"/>
	<path id="path42" d="m452 437.9c3.5 2.2 8.2 3.8 12.9 3.8 8.8 0 14.1-4.7 14.1-11.9 0-6.6-3.5-10.4-11.6-13.8-9.7-3.1-15.4-8.2-15.4-16 0-8.8 7.2-15.1 17.3-15.1 5.3 0 9.4 1.6 11.6 2.8l-1.6 3.5c-1.6-0.9-5.3-2.8-10.4-2.8-9.4 0-12.9 6.3-12.9 10.7 0 6.6 3.8 10.1 12.3 13.2 9.7 4.1 14.8 8.2 14.8 17 0 8.5-6 16-18.5 16-5 0-11-1.6-13.8-3.8z"/>
</g>
</svg>
