<?xml version="1.0" encoding="UTF-8" standalone="no"?>
<svg id="Layer_1" xmlns:rdf="http://www.w3.org/1999/02/22-rdf-syntax-ns#" xmlns="http://www.w3.org/2000/svg" data-name="Layer 1" viewBox="0 0 300 184.77508" height="153.98" width="250" version="1.1" xmlns:cc="http://creativecommons.org/ns#" xmlns:dc="http://purl.org/dc/elements/1.1/">
 <metadata id="metadata13">
  <rdf:RDF>
   <cc:Work rdf:about="">
    <dc:format>image/svg+xml</dc:format>
    <dc:type rdf:resource="http://purl.org/dc/dcmitype/StillImage"/>
    <dc:title>Combo</dc:title>
   </cc:Work>
  </rdf:RDF>
 </metadata>
 <defs id="defs4">
  <style id="style2">.cls-1{fill:#6441a4;fill-rule:evenodd;}</style>
 </defs>
 <title id="title6">Combo</title>
 <path id="path8" d="m180.71 15.398-3.4602 11.246 0.0779 51.903h12.898v6.9204h6.9204l6.9204-6.9204h12.111l22.491-22.491v-40.658zm51.903 37.197-9.5156 9.5156h-15.571l-8.6505 8.6505v-8.651h-12.97v-40.658h46.713zm-15.57-19.896h6.0554v17.301h-6.0554zm-15.571 0h6.0554v17.301h-6.0554zm73.53 80.451v40.657l-22.491 15.571h-13.841v-6.9204l-10.381 6.9204h-12.111v-6.9204l-7.7855 6.9204h-22.491l-6.9204-6.9204-1.7301 6.9204-19.853-0.0519-7.8287-6.8685-0.86505 6.9204-22.491-0.0519-0.86505-6.8685-6.0554 6.8685-34.602 0.0519-6.9204-3.4602v3.4602h-19.033l-20.761-12.98-12.976-12.97v-57.098h26.817l12.975 12.976h58.828v-12.976h48.443v12.976h12.111v6.9204l6.9204-6.9204h14.706l12.976-12.976h27.682v12.976h14.706zm-216.26-7.79h-12.111v-12.972h-15.571v48.443l9.5156 10.381h18.166v-16.43h-12.111v-13.841h12.111zm64.879 0h-15.571v29.412h-6.0554v-29.41h-14.706v29.412h-6.056v-29.41h-16.436v45.848h48.443l10.381-10.381zm20.761 0h-14.706v45.848h14.706zm0-12.976h-14.706v6.9204h14.706zm33.737 12.976h-12.12v-12.972h-15.571v48.443l9.5156 10.381h18.166v-16.436h-12.111v-13.841h12.111zm39.792 0h-24.221l-9.5156 9.5156v25.952l10.381 10.381h23.356v-16.436h-17.301v-13.841h17.301zm51.038 9.5156-10.381-9.5156h-18.17v-12.972h-16.436v58.824h16.436v-30.277h12.111v30.277h16.436z" fill-rule="evenodd" class="cls-1" stroke-width=".86505" fill="#6441a4"/>
</svg>
