<?xml version="1.0" encoding="UTF-8" standalone="no"?>
<!-- Created with Inkscape (http://www.inkscape.org/) -->
<svg id="svg3004" xmlns:rdf="http://www.w3.org/1999/02/22-rdf-syntax-ns#" xmlns="http://www.w3.org/2000/svg" xml:space="preserve" height="46.39" viewBox="0 0 300 55.667468" width="250" version="1.1" xmlns:cc="http://creativecommons.org/ns#" xmlns:dc="http://purl.org/dc/elements/1.1/"><metadata id="metadata3010"><rdf:RDF><cc:Work rdf:about=""><dc:format>image/svg+xml</dc:format><dc:type rdf:resource="http://purl.org/dc/dcmitype/StillImage"/><dc:title/></cc:Work></rdf:RDF></metadata><defs id="defs3008"><clipPath id="clipPath3020"><path id="path3022" d="m0 726.18v-726.18h3913.5v726.18z"/></clipPath></defs><g id="g3012" transform="matrix(.13681 0 0 -.13681 25 51.029)"><g id="g3014" transform="matrix(.46694 0 0 .46694 0 -.00067920)"><g id="g3016"><g id="g3018" fill="#68cef5" clip-path="url(#clipPath3020)"><path id="path3024" d="m2445.6 280.03c-0.57-0.097-1.17-0.058-1.74-0.16l3.01 0.492c-0.47-0.07-0.81-0.265-1.27-0.332"/><path id="path3026" d="m428.44 138.38c0-19.637-7.043-36.484-21.129-50.488-14.09-14.033-30.97-21.036-50.69-21.036h-141.98c-59.153 0-109.7 20.898-151.68 62.746-41.987 41.84-62.96 92.21-62.96 151.17v286.75c0 20.207 6.9922 37.179 20.973 50.949 13.98 13.75 31.058 20.644 51.215 20.644 19.57 0 36.386-7.023 50.348-21.054 14.004-14.016 21.016-30.832 21.016-50.489v-103.83h202.14c18.352 0 34.075-6.504 47.192-19.523 13.101-12.996 19.637-28.594 19.637-46.809 0-18.18-6.536-33.805-19.59-46.812-13.059-12.989-28.75-19.504-47.024-19.504h-202.37v-50.26c0-19.707 6.879-36.445 20.707-50.254 13.812-13.77 30.582-20.664 50.312-20.664h142.02c19.707 0 36.629-7.031 50.715-21.055 14.086-14.031 21.129-30.859 21.129-50.488"/><path id="path3028" d="m2091.3 138.38c0-19.637-7.04-36.484-21.12-50.488-14.09-14.031-30.97-21.035-50.69-21.035h-64.49c-59.15 0-109.7 20.898-151.68 62.746-41.98 41.843-62.95 92.207-62.95 151.17v286.74c0 20.207 6.98 37.179 20.97 50.949 13.98 13.75 31.05 20.644 51.22 20.644 19.56 0 36.39-7.023 50.34-21.054 14.01-14.016 21.02-30.832 21.02-50.489v-103.83h124.65c18.34 0 34.07-6.515 47.17-19.523 13.12-12.996 19.64-28.594 19.64-46.809 0-18.18-6.52-33.797-19.58-46.805-13.06-12.988-28.75-19.5-47.01-19.5h-124.9v-50.26c0-19.707 6.88-36.445 20.71-50.254 13.81-13.77 30.58-20.664 50.3-20.664h64.53c19.7 0 36.63-7.031 50.72-21.055 14.08-14.031 21.12-30.859 21.12-50.488"/><path id="path3030" d="m1715.9 138.38c0-19.637-7.04-36.484-21.12-50.488-14.08-14.031-30.97-21.035-50.68-21.035h-64.5c-59.15 0-109.69 20.898-151.67 62.746-41.98 41.843-62.95 92.207-62.95 151.17v286.74c0 20.207 6.98 37.179 20.97 50.949 13.98 13.75 31.05 20.644 51.21 20.644 19.56 0 36.39-7.023 50.34-21.054 14.01-14.016 21.02-30.832 21.02-50.489v-103.83h124.65c18.35 0 34.07-6.515 47.18-19.523 13.11-12.996 19.64-28.594 19.64-46.809 0-18.18-6.53-33.797-19.58-46.805-13.06-12.988-28.75-19.5-47.02-19.5h-124.9v-50.26c0-19.707 6.89-36.445 20.71-50.254 13.81-13.77 30.58-20.664 50.31-20.664h64.53c19.69 0 36.63-7.031 50.71-21.055 14.08-14.031 21.12-30.859 21.12-50.488"/><path id="path3032" d="m1120.7 266.99c0-55.156-19.61-102.31-58.87-141.44-39.26-39.129-86.541-58.692-141.85-58.692-50.601 0-95.117 17.051-133.59 51.192-37.92-34.144-82.19-51.194-132.78-51.194-55.3 0-102.61 19.562-141.87 58.694-39.25 39.133-58.867 86.289-58.867 141.44v139.78c0 18.918 6.567 34.785 19.762 47.657 13.129 12.882 28.949 19.316 47.355 19.316 18.453 0 34.242-6.434 47.383-19.316 13.164-12.879 19.746-28.778 19.746-47.696v-139.83c0-18.438 6.469-34.051 19.352-46.942 12.926-12.883 28.613-19.289 47.047-19.289 17.922 0 33.332 6.406 46.234 19.289 12.91 12.891 19.352 28.504 19.352 46.942v139.06c0 18.391 6.621 34.27 19.785 47.688 13.218 13.386 29.328 20.105 48.32 20.105 18.445 0 34.281-6.57 47.484-19.727 13.207-13.125 19.801-28.906 19.801-47.285v-139.84c0-18.438 6.453-34.051 19.363-46.942 12.887-12.883 28.333-19.289 46.235-19.289 18.445 0 34.133 6.406 47.019 19.289 12.926 12.891 19.368 28.504 19.368 46.942v139.84c0 18.379 6.589 34.16 19.753 47.285 13.15 13.157 28.96 19.727 47.36 19.727 18.45 0 34.25-6.57 47.39-19.695 13.17-13.125 19.74-28.887 19.74-47.278v-139.79"/><path id="path3034" d="m1314.6 583.18c0-19.618-7.01-36.465-21.1-50.481-14.08-14.019-30.96-21.051-50.65-21.051-19.73 0-36.6 7.032-50.69 21.051-14.04 14.016-21.09 30.863-21.09 50.481 0 19.648 7.05 36.476 21.09 50.488 14.09 14.043 30.96 21.047 50.69 21.047 19.69 0 36.57-7.004 50.65-21.047 14.09-14.012 21.1-30.84 21.1-50.488"/><path id="path3036" d="m1314.6 138.46c0-19.668-7.01-36.523-21.1-50.555-14.08-14.043-30.96-21.047-50.65-21.047-19.73 0-36.6 7.0039-50.69 21.047-14.04 14.032-21.09 30.887-21.09 50.555v263.68c0 19.668 7.05 36.519 21.09 50.547 14.09 14.042 30.96 21.062 50.69 21.062 19.69 0 36.57-7.02 50.65-21.062 14.09-14.028 21.1-30.879 21.1-50.547v-263.68"/><path id="path3038" d="m2944.8 397.4c0-18.196-6.54-33.809-19.62-46.829-13.07-12.988-28.75-19.5-47.04-19.5h-98c-18.31 0-33.86-6.378-46.66-19.16-12.84-12.754-19.21-28.254-19.21-46.515v-132.11c0-18.223-6.52-33.879-19.57-46.895-13.06-13.059-28.71-19.543-46.99-19.543-18.26 0-33.93 6.4843-46.98 19.523-13.05 13.016-19.58 28.633-19.58 46.875v132.03c0 54.688 19.45 101.43 58.38 140.24 38.93 38.789 85.83 58.215 140.69 58.215h97.94c18.29 0 33.96-6.515 47.02-19.531 13.08-13.008 19.62-28.606 19.62-46.816"/><path id="path3040" d="m2255.2 323.28h142.88c0 46.946-71.07 46.946-71.07 46.946s-71.81 0-71.81-46.946zm60.71-256.43c-56.49 0-109.71 21.457-151.71 64.374-41.96 42.942-58.09 89.708-58.09 150.22 0 0-4.09 192.4 213.5 192.4 170.25 0 222.08-119.59 222.08-178.63 0-46.934-21.48-63.594-70.33-63.594h-217.6s-7.88-49.793 91.25-49.793h124.18c31.75 0 57.48-25.734 57.48-57.492 0-31.746-25.73-57.48-57.48-57.48h-153.28"/><path id="path3042" d="m3913.5 391.24c-37.06-6.332-90.81 0.25-119.29 12.098 59.18 4.902 99.25 31.801 114.69 68.316-21.33-13.129-87.58-27.433-124.12-13.804-1.82 8.593-3.8 16.765-5.82 24.171-27.82 102.41-123.26 184.93-223.19 174.96 8.06 3.27 16.23 6.309 24.49 9.075 10.94 3.941 75.53 14.48 65.37 37.246-8.6 20.086-87.5-15.102-102.34-19.727 19.61 7.352 52.05 20.031 55.5 42.606-30.03-4.118-59.52-18.34-82.3-39.012 8.25 8.855 14.48 19.644 15.8 31.285-80.14-51.266-126.96-154.52-164.82-254.76-29.73 28.875-56.15 51.598-79.77 64.254-66.33 35.559-145.68 72.727-270.17 119-3.83-41.23 20.36-96.098 90.02-132.53-15.08 2.035-42.68-2.531-64.72-7.774 8.98-47.285 38.34-86.203 117.9-105-36.35-2.394-55.16-10.722-72.18-28.523 16.56-32.875 57.01-71.531 129.64-63.582-80.84-34.887-32.97-99.473 32.82-89.828-112.15-116.02-289.03-107.41-390.59-10.461 265.14-361.68 841.56-213.87 927.42 134.49 64.42-0.523 102.2 22.297 125.66 47.492"/></g></g></g></g></svg>
