<svg xmlns="http://www.w3.org/2000/svg" viewBox="0 0 300 176.651" width="250" height="147.209"><path d="M43.791 33.945c13.77-14.014 31.056-20.41 52.102-19.043 20.264 1.367 40.919 11.377 55.714 26.075 12.598 12.549 17.335 24.805 17.188 43.116 1.416-2.978 4.15-5.37 8.497-5.37 6.592 0 9.521 5.37 9.521 10.01v1.855h-14.648c0 3.222 1.904 5.713 5.127 5.713 2.295 0 4.394-1.319 5.42-3.467l3.662 1.416c-2.1 4.053-4.492 5.81-9.082 5.81-4.98 0-7.813-3.076-8.985-6.64-1.807 17.237-8.643 32.374-20.46 44.923-14.307 15.186-30.567 23.292-49.269 23.585h-.635c-18.946.146-35.597-7.422-50.001-22.12-14.307-14.502-22.023-31.935-22.853-52.443-.927-21.485 5.372-39.796 18.702-53.42zm52.053-18.164c-20.802-1.368-37.892 4.931-51.467 18.75C31.242 47.96 25.041 66.075 25.968 87.365c.83 20.264 8.448 37.501 22.608 51.955 14.405 14.698 31.056 22.168 50.002 21.875h.586c18.214-.439 34.083-8.447 48.049-23.291 12.402-13.184 19.19-29.152 20.508-47.463 0-.293-.049-.635-.049-.928 0-.732.05-1.513.196-2.295.732-19.824-3.76-32.52-16.847-45.558-14.649-14.6-35.108-24.512-55.177-25.88zm26.417 63.332l6.64 15.137 7.032-15.137h4.98l-13.525 29.053h-4.98l3.905-8.447-8.984-20.606zm32.471-.293c6.055 0 9.23 3.955 9.23 10.645 0 6.543-3.224 10.644-9.327 10.644-2.442 0-4.493-1.171-5.518-2.636v10.645h-4.248V79.113h4.248v2.392c.781-1.367 3.125-2.685 5.615-2.685zm60.06 0c3.077 0 5.519 1.025 7.374 3.076 1.856 2.05 2.784 4.59 2.784 7.569 0 2.978-.928 5.517-2.784 7.568-1.855 2.051-4.297 3.076-7.373 3.076-3.076 0-5.567-1.025-7.422-3.076-1.856-2.05-2.735-4.59-2.735-7.568 0-2.979.88-5.518 2.735-7.569 1.855-2.05 4.346-3.076 7.422-3.076zm-98.147-7.715v4.248h-9.082v24.464h-4.493V75.353h-9.082v-4.248zm122.758 7.715c.928 0 1.807.146 2.637.488l-.733 3.906c-.634-.39-1.464-.634-2.441-.634-1.514 0-2.832.83-3.955 2.49-1.123 1.66-1.66 4.004-1.66 7.08v7.667h-4.249V79.113h4.249v3.467c1.416-2.442 3.857-3.76 6.152-3.76zm29.689 0c3.71 0 5.908 2.441 5.908 6.201v14.796h-4.248V85.949c0-2.197-1.172-3.37-3.028-3.37-2.685 0-4.834 3.468-4.834 8.936v8.302h-4.248V85.949c0-2.197-1.172-3.37-3.027-3.37-2.735 0-4.835 3.468-4.835 9.376v7.813h-4.248V79.113h4.248v3.515c1.66-2.588 3.712-3.857 6.25-3.857 2.784 0 5.079 1.66 5.714 4.248 1.318-2.686 3.662-4.2 6.348-4.2zm-69.143-8.057c1.367 0 2.441.244 3.418.732l-.88 3.614a5.152 5.152 0 00-2.44-.586c-1.856 0-2.784 1.074-2.784 3.222v1.368h4.541v3.76h-4.54v16.895h-4.25V82.873h-2.685v-3.76h2.686v-1.075c0-4.834 2.588-7.275 6.934-7.275zM154.146 82.58c-1.562 0-2.832.634-3.808 1.904-.977 1.22-1.465 2.93-1.465 5.03s.488 3.76 1.465 5.029c.976 1.22 2.246 1.855 3.808 1.855 1.563 0 2.833-.634 3.81-1.855.976-1.27 1.464-2.979 1.464-5.03 0-2.05-.488-3.76-1.465-5.029-.976-1.27-2.246-1.904-3.809-1.904zm60.647 0c-1.758 0-3.174.683-4.2 2.05-.976 1.368-1.464 2.98-1.464 4.835s.488 3.515 1.465 4.883c1.025 1.367 2.441 2.002 4.199 2.002s3.174-.635 4.15-2.002c1.026-1.368 1.514-2.979 1.514-4.883 0-1.905-.488-3.467-1.514-4.835-.976-1.367-2.343-2.05-4.15-2.05zm-37.452 0c-2.735 0-4.542 1.855-5.03 4.492h10.059c-.39-2.54-2.149-4.492-5.03-4.492z" fill="#262627"/></svg>