<?xml version="1.0" encoding="UTF-8" standalone="no"?>
<svg id="svg12" xmlns:rdf="http://www.w3.org/1999/02/22-rdf-syntax-ns#" xmlns="http://www.w3.org/2000/svg" height="133.29" width="250" version="1.1" preserveAspectRatio="xMidYMid" xmlns:cc="http://creativecommons.org/ns#" xmlns:dc="http://purl.org/dc/elements/1.1/" viewBox="0 0 300 159.94539">
 <metadata id="metadata18">
  <rdf:RDF>
   <cc:Work rdf:about="">
    <dc:format>image/svg+xml</dc:format>
    <dc:type rdf:resource="http://purl.org/dc/dcmitype/StillImage"/>
    <dc:title/>
   </cc:Work>
  </rdf:RDF>
 </metadata>
 <g id="g10" transform="matrix(.97964 0 0 .97964 25 12.493)">
  <path id="path2" fill="#005a9c" d="m67.654 1.6103 24.219 82.354 24.227-82.354h17.53l-40.091 135.3h-1.668l-25.058-83.845-25.056 83.845h-1.67l-40.087-135.3h17.541l24.216 82.354 16.372-55.453-8.017-26.899h17.543z"/>
  <path id="path4" fill="#005a9c" d="m183.43 93.479c0 12.256-3.2607 22.556-9.7621 30.909-6.5215 8.3486-14.958 12.523-25.313 12.523-7.7944 0-14.583-2.4857-20.376-7.433-5.7926-4.9594-10.079-11.67-12.862-20.123l13.693-5.6802c2.0098 5.124 4.6522 9.1598 7.937 12.103 3.2848 2.9495 7.1479 4.4313 11.607 4.4313 4.6763 0 8.6337-2.6222 11.864-7.8527 3.2306-5.2324 4.8409-11.521 4.8409-18.876 0-8.1298-1.7288-14.414-5.1842-18.872-4.0056-5.2284-10.298-7.8547-18.868-7.8547h-6.6801v-8.0133l23.383-40.424h-28.234l-7.8527 13.362h-5.0056v-30.073h65.136v8.1823l-24.717 42.6c8.6819 2.7809 15.252 7.8527 19.707 15.201 4.4574 7.3467 6.6841 15.968 6.6841 25.885z"/>
  <path id="path6" fill="#221b0a" d="m251.4 0.85333 2.8391 17.267-10.055 19.241s-3.8631-8.1599-10.274-12.678c-5.4071-3.8129-8.9289-4.6361-14.428-3.5057-7.0817 1.4657-15.091 9.9147-18.589 20.339-4.1843 12.469-4.2245 18.508-4.3731 24.05-0.2309 8.8907 1.1646 14.141 1.1646 14.141s-6.1038-11.296-6.0456-27.841c0.0361-11.81 1.9014-22.524 7.3608-33.087 4.8108-9.2903 11.947-14.866 18.289-15.517 6.5536-0.68869 11.742 2.4676 15.744 5.899 4.1944 3.59 8.459 11.441 8.459 11.441z"/>
  <path id="path8" fill="#221b0a" d="m252.63 98.583s-4.4333 7.945-7.2062 11.003c-2.7688 3.06-7.7282 8.451-13.846 11.154-6.1219 2.6965-9.3284 3.2085-15.382 2.6222-6.0436-0.58227-11.66-4.0799-13.625-5.5497-1.9657-1.4497-6.9993-5.7505-9.8324-9.7461-2.8511-4.0157-7.2965-12.037-7.2965-12.037s2.4757 8.0334 4.0297 11.443c0.88747 1.9617 3.6342 7.9611 7.5274 13.196 3.6242 4.869 10.672 13.26 21.388 15.149 10.714 1.8974 18.075-2.9094 19.892-4.0779 1.8211-1.1605 5.6601-4.3731 8.0956-6.9772 2.5379-2.7126 4.9373-6.1822 6.2564-8.2482 0.97782-1.522 2.562-4.5899 2.562-4.5899z"/>
 </g>
</svg>
