<?xml version="1.0" encoding="UTF-8" standalone="no"?>
<!-- Created with Inkscape (http://www.inkscape.org/) -->

<svg
   xmlns:dc="http://purl.org/dc/elements/1.1/"
   xmlns:cc="http://creativecommons.org/ns#"
   xmlns:rdf="http://www.w3.org/1999/02/22-rdf-syntax-ns#"
   xmlns:svg="http://www.w3.org/2000/svg"
   xmlns="http://www.w3.org/2000/svg"
   xmlns:sodipodi="http://sodipodi.sourceforge.net/DTD/sodipodi-0.dtd"
   xmlns:inkscape="http://www.inkscape.org/namespaces/inkscape"
   id="svg16351"
   height="142.15608"
   viewBox="0 0 210 199.01852"
   width="150"
   version="1.0"
   sodipodi:docname="web.svg"
   inkscape:version="0.92.4 (5da689c313, 2019-01-14)">
  <sodipodi:namedview
     pagecolor="#ffffff"
     bordercolor="#666666"
     borderopacity="1"
     objecttolerance="10"
     gridtolerance="10"
     guidetolerance="10"
     inkscape:pageopacity="0"
     inkscape:pageshadow="2"
     inkscape:window-width="1920"
     inkscape:window-height="1017"
     id="namedview29"
     showgrid="false"
     inkscape:zoom="0.99607482"
     inkscape:cx="-96.167991"
     inkscape:cy="71.093723"
     inkscape:window-x="-8"
     inkscape:window-y="-8"
     inkscape:window-maximized="1"
     inkscape:current-layer="svg16351" />
  <metadata
     id="metadata30">
    <rdf:RDF>
      <cc:Work
         rdf:about="">
        <dc:format>image/svg+xml</dc:format>
        <dc:type
           rdf:resource="http://purl.org/dc/dcmitype/StillImage" />
        <dc:title></dc:title>
      </cc:Work>
    </rdf:RDF>
  </metadata>
  <defs
     id="defs16353">
    <clipPath
       id="clp14">
      <path
         id="path1510"
         d="m 157.57,291.4 h 31.79 v 24.24 h -31.79 z"
         inkscape:connector-curvature="0" />
    </clipPath>
  </defs>
  <g
     id="layer1"
     transform="matrix(0.27516755,0,0,0.27516755,-1.5861492,77.517312)">
    <g
       id="g16383">
      <g
         id="q37"
         transform="matrix(28.506,0,0,-28.506,-4601.2,8740.9)"
         style="fill:#ffffff">
        <clipPath
           id="clipPath16362">
          <path
             id="path16364"
             d="m 157.57,291.4 h 31.79 v 24.24 h -31.79 z"
             inkscape:connector-curvature="0" />
        </clipPath>
        <g
           id="g1512"
           clip-path="url(#clp14)"
           style="fill-rule:evenodd">
          <path
             id="path1514"
             d="m 167.76,292.12 h -1.04 l -0.41,1.91 c -0.11,0.46 -0.18,0.92 -0.23,1.36 -0.03,-0.22 -0.1,-0.67 -0.22,-1.34 l -0.39,-1.93 h -1.08 l -1.12,4.73 h 1 l 0.4,-1.85 c 0.13,-0.58 0.22,-1.1 0.26,-1.54 0.05,0.53 0.14,1.03 0.24,1.49 l 0.42,1.9 h 1.03 l 0.43,-2.1 c 0.06,-0.27 0.12,-0.69 0.21,-1.24 0.04,0.42 0.12,0.94 0.25,1.56 l 0.39,1.78 h 0.99 z m 4.45,0.85 v -0.81 h -2.74 v 4.69 h 2.67 l -0.12,-0.77 h -1.6 v -1.09 h 1.34 v -0.77 h -1.33 v -1.25 z m 3.62,1.92 c -0.11,-0.11 -0.26,-0.19 -0.43,-0.24 0.62,-0.19 0.93,-0.58 0.93,-1.18 0,-0.35 -0.1,-0.64 -0.3,-0.88 -0.23,-0.26 -0.54,-0.4 -0.93,-0.42 -0.18,-0.01 -0.39,-0.01 -0.6,-0.01 h -1.48 v 4.69 h 1.59 c 0.51,0 0.9,-0.12 1.15,-0.34 0.26,-0.23 0.39,-0.51 0.39,-0.84 0,-0.32 -0.11,-0.58 -0.32,-0.78 m -0.94,1.1 c -0.1,0.04 -0.23,0.06 -0.39,0.06 h -0.55 v -1.07 h 0.56 c 0.2,0 0.34,0.01 0.41,0.05 0.07,0.04 0.12,0.1 0.17,0.2 0.05,0.09 0.07,0.19 0.07,0.29 0,0.24 -0.09,0.4 -0.27,0.47 m 0.28,-2.04 c -0.07,0.1 -0.15,0.18 -0.24,0.21 -0.1,0.03 -0.23,0.04 -0.37,0.04 h -0.59 v -1.28 h 0.61 c 0.2,0 0.35,0.04 0.44,0.12 0.16,0.12 0.24,0.31 0.24,0.54 0,0.14 -0.03,0.26 -0.09,0.37 m 2.68,-1.72 c -0.13,-0.12 -0.26,-0.18 -0.42,-0.18 -0.17,0 -0.31,0.06 -0.43,0.18 -0.11,0.12 -0.17,0.26 -0.17,0.42 0,0.16 0.06,0.3 0.17,0.42 0.12,0.11 0.26,0.16 0.42,0.16 0.17,0 0.3,-0.05 0.43,-0.16 0.11,-0.12 0.17,-0.26 0.17,-0.42 0,-0.16 -0.06,-0.3 -0.17,-0.42 m 3.94,0.64 c -0.31,-0.42 -0.69,-0.65 -1.15,-0.69 -0.23,-0.01 -0.46,-0.02 -0.68,-0.02 h -1.13 v 4.69 h 0.94 c 0.32,0 0.59,-0.01 0.82,-0.03 0.4,-0.04 0.74,-0.19 1.02,-0.47 0.43,-0.42 0.65,-1.04 0.65,-1.87 0,-0.66 -0.16,-1.2 -0.47,-1.61 m -0.83,2.85 c -0.16,0.26 -0.41,0.39 -0.75,0.39 h -0.43 v -3.19 h 0.51 c 0.6,0 0.9,0.5 0.9,1.48 0,0.62 -0.07,1.06 -0.23,1.32 m 4.83,-2.75 v -0.81 h -2.74 v 4.69 h 2.67 l -0.12,-0.77 H 184 v -1.09 h 1.34 v -0.77 h -1.33 v -1.25 z"
             inkscape:connector-curvature="0"
             style="fill:#000000" />
          <path
             id="path1516"
             d="m 175.4,314.8 c 6.64,0 12.03,-3.79 12.03,-8.46 0,-4.67 -5.39,-8.46 -12.03,-8.46 -6.64,0 -12.03,3.79 -12.03,8.46 0,4.67 5.39,8.46 12.03,8.46"
             inkscape:connector-curvature="0"
             style="fill:#f7f5f4" />
          <path
             id="path1518"
             d="m 175.24,314.96 c 6.64,0 12.03,-3.78 12.03,-8.46 0,-4.67 -5.39,-8.46 -12.03,-8.46 -6.65,0 -12.03,3.79 -12.03,8.46 0,4.68 5.38,8.46 12.03,8.46"
             inkscape:connector-curvature="0"
             style="fill:#efeded" />
          <path
             id="path1520"
             d="m 175.08,315.12 c 6.64,0 12.02,-3.78 12.02,-8.45 0,-4.68 -5.38,-8.47 -12.02,-8.47 -6.65,0 -12.03,3.79 -12.03,8.47 0,4.67 5.38,8.45 12.03,8.45"
             inkscape:connector-curvature="0"
             style="fill:#dddada" />
          <path
             id="path1522"
             d="m 174.92,315.28 c 6.64,0 12.03,-3.78 12.03,-8.45 0,-4.67 -5.39,-8.46 -12.03,-8.46 -6.65,0 -12.04,3.79 -12.04,8.46 0,4.67 5.39,8.45 12.04,8.45"
             inkscape:connector-curvature="0"
             style="fill:#ada9a8" />
          <path
             id="path1524"
             d="m 174.75,315.45 c 6.65,0 12.04,-3.79 12.04,-8.47 0,-4.67 -5.39,-8.45 -12.04,-8.45 -6.64,0 -12.03,3.78 -12.03,8.45 0,4.68 5.39,8.47 12.03,8.47"
             inkscape:connector-curvature="0"
             style="fill:#858482" />
          <path
             id="path1526"
             d="m 163.15,301.79 c 0.52,0.49 0.82,0.44 1.28,0.6 0.1,0.08 0.19,0.13 0.29,0.2 0.68,-0.02 0.53,0.13 1,0.28 0.88,-0.04 1.13,0.25 1.84,0.27 0.41,0.05 1.19,0.19 1.54,0.25 0,0 0.5,0.06 0.95,0.06 0.28,0.01 0.88,0.07 1.07,0.07 0.32,-0.01 0.73,-0.01 1.06,-0.02 0.45,0.05 0.75,0.05 1.17,0.05 0.48,-0.02 0.92,-0.03 1.4,-0.04 0.53,-0.05 0.85,-0.05 1.39,-0.1 0.54,0.02 0.9,-0.15 1.23,-0.13 0.26,0.01 0.62,-0.11 0.8,-0.13 0.17,0 0.54,-0.14 0.86,-0.19 0.53,0 0.78,-0.07 1.32,-0.16 0.15,-0.02 0.69,-0.18 0.84,-0.2 0.2,0 0.63,-0.2 0.97,-0.25 0.32,0.07 0.85,-0.19 1.19,-0.23 1.3,-0.18 1.24,-0.35 1.79,-0.42 0.19,-0.01 0.64,-0.03 0.62,-0.65 -0.06,-0.24 -0.72,-0.17 -1.07,-0.17 -0.15,-0.01 -0.06,0.14 -0.24,0.13 -0.25,0 -0.21,0.04 -0.46,0.26 -0.51,0.17 -0.99,0.16 -1.59,0.36 -0.27,0.09 -0.57,0.16 -1.04,0.26 -0.83,0.15 -1.3,0.25 -2.13,0.39 -0.47,0.11 -0.91,0.18 -1.16,0.22 -0.8,0.12 -1.22,0.14 -1.95,0.23 -0.6,0.04 -1.13,0.12 -1.67,0.13 -0.18,0.02 -0.59,0 -0.78,0.02 -0.92,0.04 -1.34,-0.04 -1.98,-0.04 -0.77,0 -1.49,0.02 -2.33,-0.13 -0.23,-0.01 -0.45,-0.08 -0.68,-0.1 -0.24,-0.08 -0.61,-0.13 -0.93,-0.13 -0.24,-0.01 -0.49,-0.06 -0.88,-0.16 -0.84,-0.07 -0.56,-0.36 -0.97,-0.5 -0.7,-0.04 -1.09,-0.41 -1.39,-0.4 -0.33,0.01 -1.02,-0.34 -1.24,-0.12 0,0.2 -0.13,0.37 -0.12,0.49"
             inkscape:connector-curvature="0"
             style="fill:#ada9a8" />
          <path
             id="path1528"
             d="m 163.03,301.89 c 0.51,0.48 0.8,0.44 1.27,0.59 0.1,0.09 0.19,0.13 0.3,0.21 0.67,-0.02 0.52,0.13 0.99,0.28 0.89,-0.04 1.13,0.25 1.84,0.27 0.41,0.04 1.19,0.18 1.54,0.25 0,0 0.5,0.06 0.95,0.06 0.28,0 0.88,0.07 1.08,0.07 0.31,-0.02 0.72,-0.01 1.05,-0.03 0.45,0.06 0.75,0.06 1.17,0.06 0.48,-0.02 0.92,-0.03 1.4,-0.05 0.54,-0.04 0.85,-0.05 1.39,-0.09 0.54,0.02 0.9,-0.15 1.24,-0.13 0.25,0.01 0.61,-0.11 0.79,-0.13 0.17,0 0.54,-0.14 0.86,-0.2 0.53,0 0.78,-0.07 1.32,-0.16 0.15,-0.01 0.69,-0.18 0.84,-0.19 0.21,0 0.63,-0.21 0.98,-0.26 0.31,0.08 0.84,-0.18 1.18,-0.22 1.31,-0.18 1.24,-0.35 1.79,-0.43 0.19,0 0.64,-0.03 0.62,-0.64 -0.06,-0.24 -0.71,-0.18 -1.07,-0.18 -0.15,-0.01 -0.06,0.15 -0.24,0.14 -0.25,0 -0.21,0.03 -0.46,0.25 -0.51,0.17 -0.99,0.17 -1.59,0.37 -0.26,0.09 -0.57,0.15 -1.04,0.26 -0.83,0.15 -1.3,0.24 -2.13,0.39 -0.46,0.1 -0.91,0.18 -1.15,0.21 -0.81,0.12 -1.23,0.14 -1.96,0.24 -0.6,0.04 -1.13,0.11 -1.67,0.13 -0.18,0.01 -0.6,0 -0.78,0.01 -0.92,0.04 -1.33,-0.04 -1.99,-0.04 -0.76,0 -1.48,0.03 -2.32,-0.12 -0.23,-0.01 -0.44,-0.09 -0.68,-0.1 -0.23,-0.08 -0.61,-0.14 -0.92,-0.13 -0.24,-0.01 -0.5,-0.06 -0.89,-0.16 -0.84,-0.08 -0.55,-0.36 -0.96,-0.51 -0.71,-0.03 -1.1,-0.4 -1.4,-0.39 -0.32,0.01 -1.01,-0.34 -1.23,-0.12 0,0.2 -0.14,0.37 -0.12,0.49"
             inkscape:connector-curvature="0"
             style="fill:#858482" />
          <path
             id="path1530"
             d="m 174.59,315.61 c 6.65,0 12.03,-3.79 12.03,-8.46 0,-4.68 -5.38,-8.46 -12.03,-8.46 -6.64,0 -12.02,3.78 -12.02,8.46 0,4.67 5.38,8.46 12.02,8.46"
             inkscape:connector-curvature="0"
             style="fill:#f9b900" />
          <path
             id="path1532"
             d="m 162.93,301.99 c 0.51,0.48 0.81,0.43 1.27,0.59 0.11,0.08 0.19,0.13 0.3,0.21 0.67,-0.03 0.52,0.12 0.99,0.27 0.89,-0.04 1.13,0.25 1.85,0.28 0.41,0.04 1.18,0.18 1.53,0.24 0,0 0.51,0.06 0.96,0.06 0.28,0.01 0.87,0.07 1.07,0.07 0.32,-0.01 0.73,-0.01 1.05,-0.02 0.45,0.06 0.76,0.06 1.17,0.06 0.48,-0.02 0.92,-0.04 1.4,-0.05 0.54,-0.04 0.86,-0.05 1.39,-0.09 0.55,0.02 0.9,-0.15 1.24,-0.14 0.26,0.01 0.61,-0.1 0.8,-0.13 0.17,0 0.54,-0.14 0.86,-0.19 0.53,0 0.78,-0.07 1.31,-0.16 0.16,-0.02 0.69,-0.18 0.85,-0.19 0.2,0 0.62,-0.21 0.97,-0.26 0.32,0.08 0.85,-0.19 1.18,-0.23 1.31,-0.17 1.24,-0.35 1.79,-0.42 0.19,-0.01 0.65,-0.03 0.62,-0.65 -0.06,-0.23 -0.71,-0.17 -1.06,-0.17 -0.16,-0.01 -0.07,0.14 -0.25,0.13 -0.25,0 -0.2,0.04 -0.45,0.26 -0.52,0.17 -1,0.16 -1.6,0.36 -0.26,0.09 -0.57,0.16 -1.03,0.27 -0.83,0.14 -1.31,0.24 -2.13,0.38 -0.47,0.11 -0.92,0.18 -1.16,0.22 -0.81,0.12 -1.22,0.14 -1.95,0.24 -0.61,0.04 -1.14,0.11 -1.68,0.12 -0.18,0.02 -0.59,0 -0.77,0.02 -0.93,0.04 -1.34,-0.04 -1.99,-0.04 -0.77,0 -1.48,0.03 -2.32,-0.12 -0.23,-0.02 -0.45,-0.09 -0.69,-0.1 -0.23,-0.09 -0.61,-0.14 -0.92,-0.13 -0.24,-0.02 -0.5,-0.06 -0.89,-0.16 -0.84,-0.08 -0.55,-0.36 -0.96,-0.51 -0.7,-0.03 -1.1,-0.4 -1.39,-0.39 -0.33,0 -1.02,-0.34 -1.24,-0.13 0,0.21 -0.14,0.38 -0.12,0.5"
             inkscape:connector-curvature="0"
             style="fill:#000000" />
          <path
             id="path1534"
             d="m 169.52,308.55 c -0.06,-0.01 -0.1,-0.07 -0.17,-0.07 -0.29,-0.14 -0.16,-0.95 -0.23,-1.24 -0.02,-0.27 -0.08,-0.53 -0.09,-0.79 -0.14,-1.08 -0.2,-1.5 -0.2,-2.45 0.02,-0.18 -0.02,-0.31 0.05,-0.41 0.39,0.04 0.7,0.04 1.24,0.09 -0.03,0.06 -0.03,0.11 -0.05,0.31 -0.01,0.29 0.07,0.72 0.12,1.31 0.04,0.24 0.08,0.39 0.13,0.68 0.07,0.44 0.02,0.83 0.1,1.15 0.04,0.16 0.03,0.4 0,0.58 -0.07,0.37 -0.38,0.36 -0.45,0.44 -0.11,0.22 -0.31,0.4 -0.48,0.4 z"
             inkscape:connector-curvature="0"
             style="fill:#000000" />
          <path
             id="path1536"
             d="m 172.25,308.55 c -0.27,-0.27 -0.13,-0.93 -0.13,-1.28 0,-0.51 -0.14,-1.57 -0.05,-2.51 0.11,-0.16 0.09,-0.3 0.14,-0.48 0.07,-0.33 0.64,-0.23 0.61,-0.52 -0.01,-0.08 0.25,-0.02 0.58,-0.02 0.01,0.29 0.02,0.35 -0.03,0.44 -0.07,0.1 -0.1,0.16 -0.14,0.26 -0.04,0.45 -0.02,1.73 -0.01,1.67 -0.03,0.39 -0.03,0.71 -0.03,1.16 0.03,0.04 0.09,0.1 0.09,0.19 0,0.13 -0.01,0.23 -0.01,0.36 0.08,0.08 0.13,0.44 0.13,0.58 -0.04,0.06 -0.06,0.12 -0.09,0.19 -0.19,0.2 -0.48,0.19 -0.66,-0.02 -0.09,0 -0.33,0.05 -0.4,-0.02 v 0"
             inkscape:connector-curvature="0"
             style="fill:#000000" />
          <path
             id="path1538"
             d="m 175.87,309.06 c -0.4,-0.11 -0.17,-0.74 -0.2,-1.21 -0.05,-0.57 -0.01,-0.75 0.06,-0.79 -0.01,-0.38 -0.04,-0.77 -0.02,-1.38 0.02,-0.14 0.06,-0.32 0.02,-0.54 0.19,-0.45 0.13,-0.57 0.1,-0.92 0.07,-0.14 0.27,-0.38 0.37,-0.36 0.16,0 0.35,0.12 0.48,0.22 0.47,0.22 0.28,0.58 0.24,0.9 0,0.21 -0.02,0.47 -0.02,0.47 0,0 0.02,1.29 -0.08,1.93 0,0.38 0.09,0.56 0.02,1.05 -0.02,0.06 -0.21,0.14 -0.38,0.29 -0.16,0.14 -0.17,0.29 -0.34,0.37 -0.13,0.08 -0.21,-0.01 -0.25,-0.03"
             inkscape:connector-curvature="0"
             style="fill:#000000" />
          <path
             id="path1540"
             d="m 178.83,308.32 c 0.39,-0.53 0.25,-0.77 0.25,-1.18 0.02,-0.69 0,-0.96 -0.02,-1.44 0.02,-0.26 0.05,-1.21 0.05,-1.24 0.01,-0.12 0.15,-0.23 0.15,-0.4 0,-0.32 -0.07,-0.57 0.06,-0.8 0.05,-0.19 0.17,-0.13 0.23,-0.17 0.15,0 0.36,0.07 0.46,0.17 0.15,0.57 0.17,0.99 0.15,1.64 -0.02,0.47 0.05,1.87 -0.01,2.04 -0.06,0.12 -0.06,0.25 -0.02,0.38 -0.04,0.21 -0.06,0.43 -0.1,0.58 0.02,0.21 0,0.47 -0.06,0.61 -0.09,0.09 -0.19,0.2 -0.26,0.26 -0.07,0.13 -0.03,0.21 -0.13,0.29 -0.34,0.08 -0.42,0.05 -0.54,0 -0.1,-0.13 -0.16,-0.25 -0.19,-0.3 -0.03,-0.2 -0.09,-0.28 -0.02,-0.44"
             inkscape:connector-curvature="0"
             style="fill:#000000" />
          <path
             id="path1542"
             d="m 175,314.46 c -0.25,0.05 -0.29,-1.18 -0.38,-1.19 -0.05,0.02 -0.18,0.32 -0.21,0.51 0,0.04 0.08,0.08 0.1,0.12 -0.43,-0.09 -0.8,-0.93 -0.56,-1.12 0.27,-0.08 0.32,-0.2 0.51,-0.22 0.18,-0.03 0.23,0.07 0.51,0.18 l 0.06,-0.09 c 0.05,0 0.07,-0.02 0.14,0.12 0.32,-0.06 0.63,0.19 0.74,0.3 -0.02,0.1 -0.2,0.09 -0.25,0.22 0.02,0.07 0.06,0.11 0.06,0.22 -0.1,0.14 -0.07,0.37 -0.18,0.37 -0.1,-0.4 -0.3,-0.26 -0.25,-0.27 -0.03,-0.03 -0.03,0.15 -0.05,0.18 0,0.29 0.02,0.14 -0.02,0.36 -0.02,0.19 -0.1,0.24 -0.22,0.31"
             inkscape:connector-curvature="0"
             style="fill:#000000" />
          <path
             id="path1544"
             d="m 179.08,312.33 c 0.43,0 1.02,-0.19 1.34,-0.2 0.3,-0.01 0.25,-0.31 0.25,-0.34 0.05,-0.35 -0.03,-0.36 -0.19,-0.43 0.02,-0.08 -0.04,-0.08 0.02,-0.1 0.58,-0.14 0.51,0.01 0.79,-0.13 0.31,-0.04 0.28,-0.24 0.3,-0.25 0.01,-0.18 0.16,-0.46 -0.3,-0.5 -0.02,-0.14 -0.05,-0.37 -0.12,-0.45 -0.06,-0.2 -0.63,-0.06 -1.01,0.03 -0.24,-0.02 -0.49,-0.03 -0.73,-0.05 -0.19,0.19 -0.52,0.1 -0.78,0.09 -0.15,-0.01 -0.87,-0.09 -1.4,0 -0.55,-0.05 -0.63,-0.04 -1.18,-0.09 -0.16,0.01 -0.79,0 -0.94,0 -0.16,-0.01 -0.42,-0.03 -0.57,-0.04 -0.36,-0.08 -0.81,-0.21 -1.27,-0.14 -0.3,-0.07 -0.52,-0.17 -0.83,-0.17 -0.41,-0.13 -0.36,-0.02 -0.77,-0.16 -0.15,-0.05 -0.88,-0.2 -1.05,-0.21 -0.32,0.05 -0.33,-0.09 -0.76,-0.21 -0.08,-0.02 -0.43,-0.14 -0.67,-0.27 -0.28,-0.16 -0.69,-0.07 -0.66,0.51 0.3,0.31 0.32,0.17 0.46,0.27 0.33,0 0.58,0.22 0.71,0.22 0.18,0 0.34,0.07 0.34,0.09 -0.13,0.13 -0.12,0.08 -0.26,0.08 -0.15,0 -0.33,-0.16 -0.53,-0.19 -0.19,-0.04 -0.46,-0.11 -0.61,-0.11 -0.17,-0.09 -0.36,-0.13 -0.56,-0.04 -0.06,0.09 -0.1,0.25 -0.15,0.34 0,0.32 0.66,0.45 0.66,0.45 0.08,0.03 0.71,0.23 0.71,0.23 0.16,0.02 0.83,0.19 0.99,0.22 0.24,-0.01 0.41,-0.13 0.8,0 0.47,0.09 0.83,0.15 1.3,0.18 0.52,0.09 0.92,0.12 1.45,0.15 0.71,0.05 1.54,0.13 2.37,0.15 0.39,0.01 1.57,0.01 2.06,0.02 0.2,0.08 1.43,0.02 1.71,0.05 0.01,0.03 -0.01,0.02 -0.05,0.14 -0.22,0.07 -1.4,0.06 -1.4,0.17 -0.29,0.03 -0.54,0.05 -0.71,0.03 -0.3,0.06 -0.63,0.14 -1.25,0 -0.17,0.14 -0.56,0.04 -0.69,0.09 -0.43,0 -0.59,-0.08 -0.89,-0.06 -0.15,0.01 -0.35,0.03 -0.5,-0.05 -0.73,0.12 -0.86,0 -0.99,-0.03 -1.08,-0.02 -1.7,-0.19 -2.39,-0.26 -0.42,-0.14 -0.74,-0.28 -1.25,-0.32 -0.24,-0.02 -0.54,-0.34 -1.06,-0.19 -0.15,0 -0.22,0.39 -0.16,0.51 0,0.21 0.37,0.22 0.52,0.28 0.58,0.21 1.37,0.3 1.97,0.41 0.35,0.02 1.15,0.13 1.64,0.24 0.35,0.03 0.59,0 0.89,0.08 0.49,0.06 1.11,-0.04 1.41,0.09 0.41,-0.02 1.03,-0.04 1.35,0.01 0.59,-0.01 1.28,-0.01 1.76,-0.08 z"
             inkscape:connector-curvature="0"
             style="fill:#000000" />
        </g>
      </g>
    </g>
  </g>
</svg>
