<svg width="250" height="73.955" viewBox="0 0 57.25 16.936" xmlns="http://www.w3.org/2000/svg"><linearGradient id="a" gradientUnits="userSpaceOnUse" x1="-16132.404" y1="481239.09" x2="-16132.404" y2="484641.09" gradientTransform="translate(-418.003 -816.133) scale(.0013)"><stop offset="0" stop-color="#6ebf61"/><stop offset=".231" stop-color="#50a557"/><stop offset=".522" stop-color="#2a904f"/><stop offset=".812" stop-color="#50a557"/><stop offset="1" stop-color="#6ebf63"/></linearGradient><path fill="#272525" d="M52.455 9.898a1.067 1.067 0 01-.145.368.785.785 0 01-.269.259.81.81 0 01-.411.099.77.77 0 01-.407-.1.828.828 0 01-.273-.258 1.144 1.144 0 01-.15-.368 1.942 1.942 0 01-.045-.43c0-.148.014-.297.042-.435.029-.142.078-.266.146-.372a.803.803 0 01.269-.266.777.777 0 01.41-.102c.16 0 .295.035.405.102a.86.86 0 01.273.27c.07.11.12.237.152.375.032.142.046.284.046.429 0 .145-.014.287-.043.429zm.943-1.145a1.89 1.89 0 00-.301-.623 1.55 1.55 0 00-.514-.43 1.598 1.598 0 00-.74-.162c-.227 0-.433.046-.62.135a1.098 1.098 0 00-.465.428h-.014v-.464h-.95v4.915h1v-1.726h.014a1.194 1.194 0 00.468.404c.191.092.396.138.623.138.266 0 .5-.053.702-.156a1.492 1.492 0 00.5-.414c.134-.174.233-.373.297-.6a2.712 2.712 0 000-1.45zM48.47 9.898a1.067 1.067 0 01-.145.368.785.785 0 01-.27.259.81.81 0 01-.41.099.78.78 0 01-.408-.1.83.83 0 01-.273-.258 1.148 1.148 0 01-.148-.368 1.93 1.93 0 01-.046-.43c0-.148.014-.297.042-.435a1.09 1.09 0 01.145-.372.804.804 0 01.27-.266.776.776 0 01.41-.102.76.76 0 01.405.102.859.859 0 01.272.27c.071.11.12.237.153.375.032.142.046.284.046.429 0 .145-.014.287-.043.429zm.642-1.768a1.513 1.513 0 00-.514-.43 1.597 1.597 0 00-.74-.162c-.228 0-.433.046-.62.135a1.098 1.098 0 00-.465.428h-.014v-.464h-.95v4.915h1v-1.726h.014a1.194 1.194 0 00.467.404c.192.092.397.138.624.138.27 0 .5-.053.702-.156a1.493 1.493 0 00.5-.414c.134-.174.233-.373.3-.6a2.59 2.59 0 00.1-.704 2.72 2.72 0 00-.1-.744 1.828 1.828 0 00-.304-.624zm-6.577 1.204l.656-1.846h.014l.634 1.846zm.106-3.086l-1.902 5.028h1.112l.394-1.12h1.881l.38 1.12h1.147l-1.881-5.028h-1.134zm-1.984 3.433a.934.934 0 00-.262-.29 1.44 1.44 0 00-.369-.188 5.325 5.325 0 00-.425-.12c-.141-.032-.28-.064-.414-.092a3.087 3.087 0 01-.362-.096.723.723 0 01-.255-.138.269.269 0 01-.099-.22.27.27 0 01.057-.18.393.393 0 01.138-.103.562.562 0 01.18-.046 1.749 1.749 0 01.185-.011c.177 0 .333.035.464.103.131.067.206.198.216.39h.95a1.188 1.188 0 00-.174-.56 1.112 1.112 0 00-.361-.355 1.573 1.573 0 00-.496-.191 3.11 3.11 0 00-1.151-.004 1.54 1.54 0 00-.507.185.991.991 0 00-.362.354c-.092.149-.138.344-.138.577 0 .16.032.294.1.404.063.11.151.202.258.277.11.07.23.13.368.177.139.046.28.085.426.117.357.074.634.149.836.223.198.074.297.188.297.337a.377.377 0 01-.063.223.47.47 0 01-.16.141.796.796 0 01-.212.078.996.996 0 01-.224.025c-.099 0-.195-.01-.283-.035a.771.771 0 01-.245-.11.6.6 0 01-.173-.191.532.532 0 01-.068-.277h-.95c.011.245.065.447.167.61.1.163.23.29.387.39.156.099.336.17.538.212.202.042.408.064.62.064.206 0 .411-.022.61-.06a1.53 1.53 0 00.531-.21c.156-.099.28-.23.376-.39.095-.162.145-.36.145-.602a.82.82 0 00-.1-.425zm-4.135-3.135h-.999v1.091h-.606v.67h.606v2.147c0 .184.032.33.092.443.06.113.145.198.252.262.106.06.227.103.365.124a2.921 2.921 0 00.44.032c.098 0 .197-.004.304-.007a2.093 2.093 0 00.28-.028v-.776a.937.937 0 01-.149.02 2.367 2.367 0 01-.163.008c-.17 0-.28-.028-.337-.085-.056-.057-.085-.17-.085-.337V8.307h.734v-.67h-.734V6.546zm-2.866 3.323c0 .057-.007.131-.018.227a.695.695 0 01-.096.276.673.673 0 01-.24.238c-.107.067-.263.1-.458.1-.078 0-.156-.008-.234-.022a.583.583 0 01-.198-.075.382.382 0 01-.135-.145.478.478 0 01-.05-.227c0-.095.018-.17.05-.233a.487.487 0 01.131-.153.689.689 0 01.192-.095 1.59 1.59 0 01.223-.057 4.976 4.976 0 01.24-.036 3.99 3.99 0 00.231-.035c.075-.014.142-.032.206-.053a.433.433 0 00.16-.089v.372zm.999.599V8.572c0-.22-.05-.396-.149-.531a1.015 1.015 0 00-.38-.312 1.806 1.806 0 00-.513-.152 4.237 4.237 0 00-.556-.04c-.202 0-.404.022-.603.061-.198.04-.379.106-.538.202a1.235 1.235 0 00-.393.372c-.103.156-.163.35-.178.585h1c.017-.198.085-.337.198-.422.113-.085.266-.127.464-.127.089 0 .174.007.252.017a.543.543 0 01.205.071c.06.036.107.085.142.15a.53.53 0 01.053.258c.004.102-.025.18-.092.237a.705.705 0 01-.27.124c-.112.028-.24.05-.385.064a6.601 6.601 0 00-.443.057 5.008 5.008 0 00-.447.095c-.149.04-.28.1-.393.181a.948.948 0 00-.284.319c-.074.135-.11.305-.11.51 0 .188.032.35.096.486a.92.92 0 00.262.336 1.144 1.144 0 00.394.199c.149.042.312.063.485.063.227 0 .447-.031.663-.099a1.326 1.326 0 00.563-.343 1.552 1.552 0 00.07.354h1.014a.845.845 0 01-.099-.337 3.99 3.99 0 01-.028-.471v-.011zm-4.117-2.516a.98.98 0 00-.404-.3c-.17-.075-.39-.11-.66-.11-.187 0-.379.049-.577.145a1.163 1.163 0 00-.485.46h-.022V6.252h-.999v5.027h1V9.37c0-.371.06-.637.184-.8.12-.163.319-.241.591-.241.238 0 .408.074.5.223.092.149.142.372.142.673v2.055h.999V9.04a2.98 2.98 0 00-.06-.616 1.149 1.149 0 00-.21-.472zm-5.283 1.765h-.015l-.857-3.465h-1.035l-.871 3.422h-.015l-.797-3.422h-1.105l1.332 5.028h1.12l.836-3.423h.014l.85 3.423h1.099l.602-2.233.751-2.795H26.08z"/><path fill="#fefefe" d="M11.187 14.305a6.02 6.02 0 01-3.317-.995l-2.317.74.75-2.24a5.982 5.982 0 01-1.147-3.532 6.034 6.034 0 016.027-6.027 6.034 6.034 0 016.027 6.027 6.034 6.034 0 01-6.027 6.027h.004zm0-13.195a7.17 7.17 0 00-6.141 10.871l-1.293 3.845 3.968-1.272a7.15 7.15 0 003.466.892 7.17 7.17 0 000-14.336z"/><path fill="url(#a)" d="M74.34 11.41c-33.236 0-60.271 27.035-60.271 60.271 0 13.181 4.252 25.405 11.48 35.327l-7.512 22.393 23.173-7.404c9.531 6.307 20.905 9.956 33.165 9.956 33.236 0 60.271-27.036 60.271-60.271 0-33.236-27.035-60.271-60.271-60.271h-.035z" transform="matrix(.1 0 0 .1 3.753 1.11)"/><path fill="#fefefe" d="M9.504 5.313c-.117-.28-.206-.29-.383-.298a3.405 3.405 0 00-.202-.007c-.23 0-.471.067-.617.216-.177.18-.616.602-.616 1.467 0 .865.63 1.7.716 1.818.088.117 1.23 1.917 3 2.65 1.386.574 1.797.52 2.113.454.46-.1 1.038-.44 1.183-.85.145-.412.145-.763.103-.837-.043-.074-.16-.117-.337-.206-.177-.088-1.038-.513-1.201-.57-.16-.06-.312-.039-.432.131-.17.238-.337.479-.472.624-.106.113-.28.127-.425.067-.195-.081-.74-.273-1.414-.872a5.363 5.363 0 01-.977-1.215c-.103-.177-.011-.28.07-.375.089-.11.174-.188.263-.291.088-.103.138-.156.194-.276.06-.117.018-.238-.024-.326-.043-.09-.397-.954-.542-1.304z"/></svg>