<svg version="1.0" width="250" height="98.92" viewBox="0 0 37.71 14.921" xmlns="http://www.w3.org/2000/svg"><path d="M28.952 2.454c-.081 0-.15.029-.183.084-.036.058-.03.131.007.206l.908 1.572c.002.003.002.005 0 .008l-1.427 2.518c-.037.075-.035.15 0 .206a.198.198 0 00.176.092h1.343c.2 0 .298-.135.366-.26l1.45-2.564-.923-1.61c-.067-.119-.168-.252-.374-.252zm-5.915 2.938c-2.084 0-3.228 1.217-3.228 3.42v2.32c0 2.103 1.001 3.174 2.984 3.174a7.372 7.372 0 002.992-.671V9.468a.213.213 0 00-.222-.222h-2.656a.213.213 0 00-.22.222v1.068c0 .13.09.221.22.221h1.237c.005 0 .007.003.007.008v1.801c0 .004-.004.007-.007.008a4.025 4.025 0 01-1.298.221c-.944 0-1.404-.586-1.404-1.786V8.811c0-.623.123-1.082.374-1.396.275-.344.69-.512 1.282-.512h.26c.858 0 1.521.192 1.946.329.066.02.126.01.168-.023a.2.2 0 00.068-.16V6.025c0-.116-.056-.18-.229-.267-.22-.11-.844-.367-1.923-.367zm-21.2.115c-.062 0-.11.024-.138.069a.182.182 0 000 .175l2.183 3.976a.026.026 0 010 .015l-2.305 4.175a.18.18 0 000 .176c.027.044.076.068.137.068h1.488c.17 0 .231-.095.298-.229l1.526-2.808c.002-.003.005-.008.008-.008.004 0 .006.005.008.008l1.534 2.808c.066.133.12.23.29.23H8.36c.062 0 .11-.025.138-.07a.16.16 0 00.023-.083.208.208 0 00-.023-.092L6.186 9.742v-.007-.008l2.19-3.976A.208.208 0 008.4 5.66c0-.03-.008-.06-.023-.083-.028-.045-.076-.07-.138-.07H6.743c-.17 0-.23.097-.297.23l-1.404 2.61c-.002.003-.004.007-.008.007-.003 0-.006-.004-.008-.007l-1.404-2.61c-.055-.112-.114-.23-.298-.23zm7.768 0a.213.213 0 00-.221.221v8.212c0 .129.092.221.221.221h1.183c.13 0 .222-.092.222-.221V5.728a.213.213 0 00-.222-.221zm3.16 0c-.13 0-.23.092-.23.221v8.212c0 .129.1.221.23.221h1.183c.129 0 .221-.092.221-.221V8.987c0-.004.004-.007.008-.008.004 0 .006.004.007.008l2.565 4.945c.052.106.135.23.297.23h1.237c.129 0 .22-.093.22-.222V5.728a.213.213 0 00-.22-.221H17.1a.213.213 0 00-.222.221v4.946c0 .004-.003.006-.007.007s-.013.004-.016 0l-2.564-4.945c-.056-.112-.114-.23-.297-.23z" fill="#005a5f"/><path d="M34.594.615c-.2 0-.287.126-.36.256l-2.988 5.3 1.909 3.501c.066.12.169.256.375.256h1.341c.081 0 .144-.03.179-.086.035-.057.034-.133-.003-.207l-1.894-3.46a.008.008 0 010-.009L36.127.908c.037-.074.038-.15.003-.207-.034-.056-.098-.086-.179-.086z" fill="#d4d600"/></svg>