<?xml version="1.0" encoding="UTF-8" standalone="no"?>
<!-- Created with Inkscape (http://www.inkscape.org/) -->
<svg id="svg2" xmlns:rdf="http://www.w3.org/1999/02/22-rdf-syntax-ns#" xmlns="http://www.w3.org/2000/svg" xml:space="preserve" height="98.566" viewBox="0 0 300 118.27871" width="250" version="1.1" xmlns:cc="http://creativecommons.org/ns#" xmlns:dc="http://purl.org/dc/elements/1.1/"><metadata id="metadata8"><rdf:RDF><cc:Work rdf:about=""><dc:format>image/svg+xml</dc:format><dc:type rdf:resource="http://purl.org/dc/dcmitype/StillImage"/><dc:title/></cc:Work></rdf:RDF></metadata><g id="g10" transform="matrix(2.4038 0 0 -2.4038 -347.04 861.28)"><path id="path38" d="m200.54 338.65c-2.3799 0-4.8611-1.7383-4.8611-1.7383v1.1176c0 0.2448-0.098 0.34304-0.34258 0.34304h-3.0376c-0.24483 0-0.39188-0.14737-0.39188-0.34304v-23.827c0-0.24563 0.0982-0.393 0.3432-0.393h3.0865c0.19531 0 0.34258 0.14737 0.34258 0.393v20.395s1.4325 0.90839 3.1722 0.90839c1.6565 0 2.9644-0.82263 2.9644-2.5104v-18.793c0-0.24563 0.14686-0.393 0.39188-0.393h3.0366c0.24502 0 0.34277 0.19629 0.34277 0.393v19.861c0.00021 2.9912-1.8377 4.5863-5.0469 4.5863z" fill="#010202"/><path id="path40" d="m224.17 350.61h-3.0376c-0.24503 0-0.39209-0.14717-0.39209-0.34325v-12.02c-1.1658 0.44794-2.2277 0.68441-3.0857 0.68441-4.9331 0-8.32-4.7195-8.32-13.795 0-7.7748 3.2947-11.944 7.594-11.944 1.8123 0 3.308 1.0391 4.4034 2.0141l0.66311-1.1249c0.11168-0.19463 0.20341-0.26124 0.42806-0.26124l1.7466-0.002c0.19573 0 0.34299 0.14737 0.34299 0.393v36.055c0.00028 0.24541-0.098 0.34324-0.34278 0.34324zm-10.818-24.671c0 5.0005 1.4625 9.9523 4.4489 9.9523 1.0115 0 1.9833-0.33305 2.9398-1.0934v-17.617c-0.74796-0.40715-1.6894-0.78309-2.7065-0.78309-3.2473 0.00022-4.6823 3.8548-4.6823 9.5416z" fill="#010202"/><path id="path42" d="m235.8 338.88c-5.0583 0-7.5554-6.6223-7.5554-13.829 0-7.5431 3.561-11.771 8.1394-11.771 2.0128 0 4.0158 0.79287 5.3293 1.5231 0.20135 0.11199 0.23775 0.27019 0.18928 0.46481l-0.38418 1.5936c-0.0479 0.19483-0.14559 0.29204-0.38916 0.29204-0.10713 0-1.7663-0.48583-3.381-0.48583-3.7469 0-5.4652 3.3332-5.4652 7.7602v1.076s1.8624-0.2579 2.9813-0.2579h7.0686v2.0445c0 7.5481-2.641 11.59-6.533 11.59zm-0.24338-10.567c-1.1188 0-3.1551-0.27664-3.1551-0.27664s0.0272 0.81222 0.1248 1.5916c0.43784 4.139 1.4244 6.2324 3.1273 6.2324 1.4808 0 2.4947-2.1421 2.7387-5.8918 0.0481-0.77934 0.0481-1.6557 0.0481-1.6557h-2.8837v0.00021z" fill="#010202"/><path id="path44" d="m186.14 335.78c-1.1232 2.2146-3.1239 3.1827-5.4157 3.1827-1.4724 0-3.77-0.56347-5.3046-1.2535-0.30014-0.13508-0.49005-0.25395-0.49005-0.49041 0-0.1405 0.0698-0.30203 0.14705-0.4415l1.0338-2.2152c0.1069-0.2502 0.27726-0.30724 0.41827-0.30724 0.15289 0 0.27728 0.0725 0.41456 0.16049 1.4968 0.95731 2.5933 1.4835 3.4613 1.4835 1.1484 0 1.9281-0.76247 2.409-1.9088 0.44782-1.0683 0.62149-2.5443 0.62149-4.2497 0-0.21752 0.00083-0.50123 0.00083-0.50123-0.94327 0.59074-2.5773 0.91629-3.3929 0.91629-4.3888 0-6.7556-4.1729-6.7556-8.6353 0-4.808 2.7662-8.3347 6.0902-8.3347 1.8514 0 3.5272 1.0874 4.6496 2.4585 0 0 0.59758-1.4257 0.67558-1.5968 0.0786-0.1707 0.16162-0.23377 0.38626-0.23377l1.7763-0.002c0.19551 0 0.34278 0.14738 0.34278 0.393v13.821c-0.00055 3.3961-0.17201 5.987-1.0683 7.754zm-2.7042-18.108c-0.87006-0.84095-1.9126-1.2818-2.8504-1.2818-0.93765 0-1.6623 0.43358-2.2435 1.2362-0.70741 0.97688-1.0373 2.4812-1.0373 4.1479 0 2.6361 0.9724 5.3408 3.0339 5.3408 1.02 0 2.1407-0.33222 3.0975-1.0934v-8.3497z" fill="#010202"/><path id="path46" d="m258.38 338.38h-2.7073c-0.30243 0-0.45655-0.15861-0.53455-0.36406-0.1716-0.45045-1.3158-3.4664-1.785-4.7158-0.33446-0.89257-1.2353-3.4485-1.2353-3.4485l-0.10483 0.00083c-0.003 0.009-0.6631 1.8592-1.0202 2.7858-0.28913 0.75102-1.7973 4.727-1.9883 5.2174-0.10172 0.26331-0.21569 0.52433-0.6034 0.52433h-2.9642c-0.32573 0-0.51022-0.3576-0.40497-0.5795 0.10545-0.22252 4.8283-10.988 4.8283-10.988s-5.0718-12.054-5.2202-12.325c-0.14832-0.27082 0.0383-0.67151 0.39914-0.67151h2.5977c0.442 0 0.6163 0.23188 0.749 0.60531 0.37336 1.0466 0.92935 2.5022 1.7166 4.7518 0.52145 1.4908 1.3462 4.1073 1.3462 4.1073h0.0907s0.90355-2.6667 1.2395-3.5386c0.84864-2.2048 1.9344-5.0848 2.0496-5.3889 0.11981-0.31805 0.28766-0.53704 0.59154-0.53704h2.9457c0.29141 0 0.4264 0.33306 0.28933 0.62281-0.32801 0.69108-3.1254 7.4938-5.0677 11.966 0 0 5.0413 11.134 5.1396 11.409 0.0984 0.27539 0.0687 0.56638-0.34694 0.56638z" fill="#010202"/><path id="path48" d="m176.35 354.19h-3.4147c-0.30244 0-0.49129-0.14862-0.53497-0.36406-0.0433-0.21628-5.1209-15.71-5.4899-17.001-0.26166-0.91504-1.1149-4.1406-1.3196-4.9152l-1.7659 4.825c-0.4291 1.328-4.5419 12.827-4.6625 13.286-0.0665 0.2525-0.1824 0.56639-0.62461 0.56639h-3.3338c-0.32593 0-0.51044-0.35782-0.40518-0.57971 0.0838-0.17776 6.1058-16.21 8.5386-22.335v-13.466c0-0.24563 0.0982-0.393 0.34298-0.393h3.1574c0.19574 0 0.34257 0.14737 0.34257 0.393v13.361c2.028 5.6681 9.4357 25.831 9.5162 26.057 0.0984 0.2758 0.0695 0.56639-0.34652 0.56639z" fill="#e52620"/></g></svg>
