<?xml version="1.0" encoding="UTF-8" standalone="no"?>
<svg id="svg8" xmlns:rdf="http://www.w3.org/1999/02/22-rdf-syntax-ns#" xmlns="http://www.w3.org/2000/svg" height="105.4" width="250" version="1.1" xmlns:cc="http://creativecommons.org/ns#" xmlns:dc="http://purl.org/dc/elements/1.1/" viewBox="0 0 300 126.48214">
 <metadata id="metadata14">
  <rdf:RDF>
   <cc:Work rdf:about="">
    <dc:format>image/svg+xml</dc:format>
    <dc:type rdf:resource="http://purl.org/dc/dcmitype/StillImage"/>
    <dc:title/>
   </cc:Work>
  </rdf:RDF>
 </metadata>
 <path id="path2" stroke-width="4.4643" fill="#111" d="m118.3 95.808h-9.4643v-5.5357c-3.5714 4.1964-6.6964 6.25-9.9554 6.25-2.9464 0-4.9107-1.3393-5.9821-3.8839-0.53572-1.5625-0.98214-3.9286-0.98214-7.4554v-40.268h9.4643v41.339c0.22321 1.3393 0.80357 1.875 2.0089 1.875 1.7857 0 3.4822-1.6518 5.4911-4.4643v-38.75h9.4643v50.893m-33.519-34.286c0-5.4464-1.0268-9.5089-2.9464-12.054-2.5-3.5714-6.4732-4.9107-10.491-4.9107-4.5536 0-8.0357 1.3393-10.491 4.9107-1.9643 2.5446-2.9911 6.6964-2.9911 12.054v18.17c0 5.3571 0.89286 9.1071 2.8571 11.607 2.5 3.5714 6.6071 5.3571 10.58 5.3571 4.0179 0 8.125-1.7857 10.714-5.3571 1.7857-2.5 2.6786-6.25 2.6786-11.607v-18.259zm-9.375 19.196c0.44643 5.0446-1.1161 7.5893-4.0179 7.5893-2.9464 0-4.4643-2.5446-4.0179-7.5893v-20.178c-0.44643-5.0446 1.0714-7.4107 4.0179-7.4107 2.9018 0 4.4643 2.3661 4.0179 7.4107zm-27.991-12.589v27.679h-9.955v-27.679s-10.402-34.107-12.5-40.446h10.491l7.0089 26.607 6.9643-26.562h10.446l-12.5 40.357"/>
 <path id="path4" stroke-width="4.4643" fill="#e62117" d="m215.8 52.951c-1.4732 0-3.125 0.89286-4.6875 2.3214v30.625c1.4732 1.5179 3.125 2.2321 4.6429 2.2321 2.6786 0 3.7946-1.875 3.7946-6.9196v-21.697c0-5.0446-1.2054-6.5179-3.8393-6.5179m37.321 6.0714c0-4.6875-1.2054-6.0714-4.1964-6.0714-2.9911 0-4.2857 1.3393-4.2857 6.0268v5.5804h8.4821v-5.4911"/>
 <path id="path6" stroke-width="4.4643" fill="#e62117" d="m273.53 33.219s-1.4732-10.268-5.9375-14.866c-5.6696-6.0268-12.054-6.0268-14.911-6.3393-20.848-1.4732-52.143-1.4732-52.143-1.4732h-0.0893s-31.25 0-52.098 1.4732c-2.9018 0.35714-9.2857 0.35714-14.955 6.3393-4.4643 4.5536-5.8928 14.866-5.8928 14.866s-1.5179 12.143-1.5179 24.286v11.383c0 12.143 1.5179 24.241 1.5179 24.241s1.4286 10.357 5.8929 14.911c5.6696 5.9821 13.125 5.8036 16.429 6.3839 11.92 1.1607 50.67 1.5179 50.67 1.5179s31.384 0 52.232-1.5179c2.9018-0.35714 9.2411-0.35714 14.911-6.3393 4.4643-4.5536 5.9375-14.911 5.9375-14.911s1.4286-12.098 1.4286-24.286v-11.384c0-12.143-1.4732-24.286-1.4732-24.286zm-114.82 62.589h-9.96v-58.036h-10.491v-9.4643h31.429v9.4643h-10.94v58.036zm35.938 0h-9.4643v-5.5357c-3.5714 4.1964-6.6964 6.25-9.9554 6.25-2.9464 0-4.9107-1.3393-5.9821-3.8839-0.53571-1.5625-0.98214-3.9286-0.98214-7.4554v-39.821h9.4643v40.938c0.22322 1.3393 0.80358 1.875 2.0089 1.875 1.7857 0 3.4822-1.6518 5.4911-4.4643v-38.349h9.4196zm34.375-15.089c0 4.6429-0.3125 7.9464-0.89286 10.089-1.25 3.75-3.8839 5.6696-7.4554 5.6696-3.2143 0-6.5178-1.9643-9.5536-5.7143v5.0893h-9.0179v-67.545h8.9286v21.964c2.9464-3.5714 6.25-5.6696 9.5982-5.6696 3.5714 0 5.9821 2.0982 7.1429 5.8036 0.66964 2.0982 1.25 5.3571 1.25 10.134zm19.911 7.4554c2.2321 0 3.5714-1.25 4.0179-3.7054 0.0893-0.44643 0.0893-2.6786 0.0893-6.3393h9.46v1.4286c0 2.9464-0.22321 5.0446-0.3125 5.9375-0.3125 2.0536-1.0268 3.8839-2.0982 5.4911-2.5 3.6607-6.25 5.4464-10.938 5.4464-4.6875 0-8.2589-1.6964-10.893-5.1786-1.9196-2.5446-3.125-6.25-3.125-11.607v-17.678c0-5.3571 1.1161-9.5536 3.0357-12.143 2.5893-3.4375 6.25-5.2679 10.804-5.2679 4.5536 0 8.125 1.7857 10.714 5.2679 1.7857 2.5893 2.9018 6.5179 2.9018 11.92v10.402h-17.946v9.0179c0 4.6875 1.3393 7.0089 4.375 7.0089z"/>
</svg>
