<?xml version="1.0" encoding="UTF-8" standalone="no"?>
<!-- Created with Inkscape (http://www.inkscape.org/) -->
<svg id="svg18" xmlns:rdf="http://www.w3.org/1999/02/22-rdf-syntax-ns#" xmlns="http://www.w3.org/2000/svg" height="49.45" viewBox="0 0 300 59.339978" width="250" version="1.1" xmlns:cc="http://creativecommons.org/ns#" xmlns:dc="http://purl.org/dc/elements/1.1/">
 <title id="title192">Zalando</title>
 <metadata id="metadata24">
  <rdf:RDF>
   <cc:Work rdf:about="">
    <dc:format>image/svg+xml</dc:format>
    <dc:type rdf:resource="http://purl.org/dc/dcmitype/StillImage"/>
    <dc:title>Zalando</dc:title>
   </cc:Work>
  </rdf:RDF>
 </metadata>
 <g id="g160" stroke-width="1.3333" transform="matrix(.18742 0 0 .18742 24.989 4.9412)">
  <path id="path190" fill="#efefef" d="m39.5 262.14c-14.206-5.33-24.688-25.37-32.718-62.55-8.9628-41.496-8.9628-93.691 0-135.19 8.384-38.808 19.501-58.981 34.809-63.156 19.369-5.2815 66.219 6.9748 107.91 28.229 30.781 15.693 59.194 36.547 82.137 60.283 33.417 34.574 33.417 49.913 0 84.487-15.959 16.512-29.096 27.398-49.526 41.041-40.675 27.163-90.45 46.466-124.11 48.131-9.7614 0.48275-14.718 0.14033-18.5-1.2782zm485.17-39.42c-24.984-2.421-38.65-9.9358-47.06-25.878-3.4044-6.4539-3.6068-7.8476-3.6068-24.838 0-16.122 0.33244-18.736 3.1858-25.05 3.9614-8.7666 12.663-16.62 22.488-20.296 11.342-4.2435 36.141-8.0135 58.659-8.9174l20.333-0.81624-0.008-8.7933c-0.012-14.353-1.76-18.545-9.0875-21.792-11.985-5.3111-39.821-4.5782-66.184 1.7425-15.652 3.7528-18.803 3.5199-20.559-1.5193-0.78773-2.2597-1.8096-6.9536-2.2709-10.431-1.1189-8.4348 0.55296-9.8934 15.312-13.358 19.746-4.6357 32.35-5.7706 56.595-5.0957 26.099 0.72641 35.133 2.9698 44.604 11.076 10.134 8.6741 10.265 9.6112 10.265 73.251 0 30.8-0.45867 57.639-1.0193 59.642-1.9174 6.8515-8.6063 12.802-17.468 15.539-15.956 4.9282-44.783 7.4142-64.179 5.5346zm47.333-26.954 6-1.8769 0.36171-26.332 0.36171-26.332-15.695 0.79115c-32.455 1.636-48.653 5.0946-54.645 11.668-8.8169 9.6731-6.7981 30.764 3.6933 38.583 7.4174 5.5281 12.861 6.4767 33.923 5.9118 11.948-0.32044 22.416-1.292 26-2.4132zm186 26.954c-26.579-2.5755-41.786-12.011-48.606-30.157-2.5884-6.8875-2.9001-9.8429-2.4494-23.225 0.41842-12.426 1.1084-16.67 3.6382-22.384 3.8799-8.762 12.536-16.596 22.424-20.296 11.342-4.2435 36.141-8.0135 58.659-8.9174l20.333-0.81624v-9.8362c0-20.576-4.9309-23.814-36-23.646-15.984 0.08681-21.988 0.72197-34.658 3.6667-8.4284 1.9589-17.255 3.5617-19.615 3.5617-3.833 0-4.433-0.53364-5.6216-5-2.874-10.799-3.1308-15.784-0.92663-17.988 2.4291-2.4291 20.899-7.0281 36.843-9.1738 6.2608-0.84258 20.65-1.1968 33.776-0.83142 26.099 0.72641 35.133 2.9698 44.604 11.076 10.134 8.6741 10.265 9.6112 10.265 73.251 0 30.8-0.45867 57.639-1.0193 59.642-1.9174 6.8515-8.6063 12.802-17.468 15.539-15.956 4.9282-44.783 7.4142-64.179 5.5346zm47.333-26.954 6-1.8769 0.3618-26.358 0.36179-26.358-16.362 0.84473c-32.783 1.6926-48.86 5.2937-54.256 12.154-8.4745 10.774-6.435 30.34 3.9708 38.095 7.4174 5.5281 12.861 6.4767 33.923 5.9118 11.948-0.32044 22.416-1.292 26-2.4132zm281.33 26.924c-30.788-3.1515-47.094-15.922-54.047-42.33-3.2799-12.457-4.7443-38.438-3.2226-57.177 3.1666-38.996 15.722-57.111 44.244-63.836 10.543-2.4858 43.544-2.586 56.026-0.17015l9 1.742v-25.826c0-29.576-1.4562-26.502 14.426-30.454 10.224-2.544 13.001-1.8412 14.082 3.5639 1.4211 7.1055 0.9421 184.15-0.519 191.85-0.7395 3.8991-2.3895 8.2681-3.6667 9.7089-7.8343 8.8376-48.667 15.749-76.322 12.918zm44.3-26.73l7.6667-1.657v-108.66l-9-1.8176c-5-1.001-17.1-1.817-27.1-1.817-16.728 0-18.518 0.24742-24.654 3.4062-12.854 6.6173-17.697 18.747-18.923 47.4-1.6365 38.233 6.0814 59.463 23.4 64.367 6.2376 1.7661 38.486 0.95732 48.549-1.2176zm119 26.714c-31.005-3.4192-47.189-16.626-54.739-44.67-2.8881-10.727-4.1062-48.241-2.0639-63.562 3.8616-28.969 15.331-45.009 38.136-53.333 10.907-3.9814 43.469-5.0718 57.012-1.9092 24.118 5.6323 37.586 19.702 43.326 45.261 3.1007 13.807 3.032 57.977-0.1101 70.877-6.3615 26.116-20.732 40.666-45.315 45.877-8.8832 1.8834-26.111 2.5769-36.246 1.4592zm35.686-28.354c5.1596-2.3622 8.4784-4.9873 10.784-8.5305 5.9749-9.1804 6.8466-15.01 6.8466-45.785s-0.8717-36.605-6.8466-45.785c-6.9981-10.753-29.465-15.863-48.395-11.008-14.686 3.7666-21.011 10.829-23.954 26.747-1.9023 10.291-1.8745 51.932 0.041 60.981 4.4902 21.215 15.111 28.1 41.954 27.2 9.5807-0.32136 13.676-1.1205 19.57-3.8186zm-626.86 26.35c-7.09-2.21-13.01-7.53-16.31-14.67-2.3299-5.0324-2.4709-10.722-2.4985-100.84-0.0229-74.831 0.33149-95.792 1.6374-96.838 0.91667-0.73406 6.2827-2.4092 11.924-3.7226 8.4387-1.9645 10.626-2.0824 12.333-0.66535 1.8416 1.5284 2.0778 12.115 2.0952 93.893 0.0152 71.469 0.39719 92.919 1.7006 95.503 1.3771 2.7309 2.9251 3.4591 8.5652 4.0293 3.7864 0.38277 7.2934 1.1051 7.7935 1.6052 1.8097 1.8096 4.1806 15.156 3.1752 17.874-1.9617 5.3029-18.868 7.4302-30.418 3.8277zm-332.5-2.1098c-1.9591-1.1411-2.3277-3.3264-2.2984-13.626l0.0349-12.267 45.928-53.333 45.93-53.33-44.88-0.351c-52.103-0.40794-49.715 0.19361-49.715-12.522 0-6.0156 0.60831-8.4017 2.6667-10.46 2.59-2.588 4.44-2.667 62.37-2.667 51.878 0 60.092 0.27204 62.667 2.0756 2.6607 1.8636 2.9634 3.2148 2.9634 13.231 0 10.212-0.31015 11.528-3.6667 15.564-2.0167 2.4249-22.77 26.621-46.119 53.769l-42.45 49.36 44.895 0.66667c51.366 0.76276 48.677 0.0491 48.677 12.922 0 5.3007-0.66973 7.7482-2.6667 9.7452-2.5885 2.5885-4.4162 2.6655-62.333 2.6261-38.04-0.0259-60.512-0.53313-62-1.3996zm544.33-1.2265c-2.6-2.59-2.67-4.39-2.59-68.33 0.0541-47.231 0.52204-66.964 1.6667-70.287 4.3759-12.705 33.934-20.573 77.62-20.661l25.35-0.052 9.3043 4.6667c10.798 5.4161 16.809 12.948 19.189 24.044 0.9233 4.305 1.4485 28.942 1.4485 67.946v61.192l-2.9634 2.0756c-1.9744 1.3829-5.9791 2.0756-12 2.0756-15.448 0-14.37 4.8549-14.37-64.709 0-65.778-0.0868-66.525-8.2283-70.75-2.4411-1.267-8.6384-2.5686-13.772-2.8925-9.5051-0.5998-34.606 2.3398-46.667 5.4652l-6.6667 1.7276-0.34654 63.156c-0.30966 56.434-0.57999 63.414-2.54 65.58-3.3177 3.666-20.711 3.4932-24.447-0.24295z"/>
  <path id="path188" fill="#fee7d8" d="m39.5 262.04c-7.65-2.73-13.751-9.41-19.514-21.37-26.486-54.99-26.467-162.24 0.039-217.46 10.749-22.389 22.509-26.836 54.556-20.624 53.819 10.434 117.36 45.728 157.04 87.233 20.866 21.826 27.629 35.3 24.424 48.66-4.5459 18.95-36.698 51.995-76.045 78.159-47.564 31.627-116.58 53.93-140.5 45.403zm485.17-39.33c-25.311-2.4367-40.152-10.983-47.539-27.376-4.0652-9.021-5.0868-31.537-1.9245-42.415 6.7398-23.184 30.055-33.051 83.13-35.182l20.333-0.81624v-9.8362c0-19.465-4.2608-22.955-29.333-24.024-15.545-0.66258-26.059 0.54885-50.386 5.8054-13.879 2.999-15.012 2.3935-17.483-9.3389-1.7046-8.0949-1.6686-9.092 0.41092-11.39 7.5912-8.3882 70.064-14.215 93.861-8.7544 18.259 4.1899 28.274 12.978 30.92 27.133 1.6743 8.955 1.7309 105.54 0.0661 112.71-1.7582 7.5805-5.2229 11.63-13.45 15.718-12.515 6.2194-45.666 9.9694-68.607 7.7608zm43.962-26.248 10.038-2.2056v-53.082l-16.333 0.84307c-48.684 2.5129-59.63 7.9164-59.659 29.452-0.0164 12.069 6.7465 21.902 17.303 25.156 8.6888 2.6789 36.137 2.587 48.652-0.16287zm189.37 26.248c-25.311-2.4367-40.152-10.983-47.539-27.376-4.0652-9.021-5.0868-31.537-1.9245-42.415 6.7397-23.184 30.055-33.051 83.13-35.182l20.333-0.81624v-9.8362c0-19.465-4.2608-22.955-29.333-24.024-15.545-0.66258-26.059 0.54885-50.386 5.8054-13.879 2.999-15.012 2.3935-17.483-9.3389-1.7046-8.0949-1.6686-9.092 0.41092-11.39 7.5912-8.3882 70.064-14.215 93.861-8.7544 18.259 4.1899 28.274 12.978 30.92 27.133 1.6742 8.955 1.7309 105.54 0.0661 112.71-1.7581 7.5805-5.2229 11.63-13.45 15.718-12.515 6.2194-45.666 9.9694-68.607 7.7608zm43.962-26.248 10.038-2.2056v-53.082l-16.333 0.84307c-49.036 2.5311-59.71 7.8985-59.63 29.984 0.0425 11.667 6.927 21.382 17.488 24.676 8.4404 2.633 36.034 2.5105 48.438-0.21508zm284.19 26.117c-18.932-2.0709-30.958-7.3675-40.682-17.917-12.072-13.096-16.368-29.903-16.358-63.994 0.011-34.463 4.4175-52.165 16.196-65.052 12.754-13.954 25.992-18.258 56.025-18.212 10.633 0.01611 23.383 0.81321 28.333 1.7713l9 1.742v-25.751c0-29.511-1.3346-26.694 14.447-30.493 9.1243-2.1965 9.9298-2.2055 12-0.13481 2.0297 2.0301 2.2193 10.559 2.2193 99.838 0 95.707-0.053 97.709-2.7075 102.23-1.5803 2.69-5.1883 5.862-8.6666 7.6194-12.785 6.4595-48.277 10.705-69.807 8.3497zm40.8-26.05l11.667-2.1412v-108.76l-9-1.8176c-4.9594-1.0016-17.081-1.8165-27-1.815-21.289 0.0031-27.848 2.1297-34.379 11.146-7.1121 9.8179-8.8961 19.181-8.9267 46.852-0.024 22.043 0.2977 25.701 3.0287 34.392 3.8238 12.168 10.022 19.495 18.772 22.189 8.434 2.5969 31.555 2.5719 45.839-0.0496zm127 26.611c-19.169-1.6926-31.982-6.5668-42.072-16.004-14.29-13.366-18.517-26.453-19.532-60.47-1.1535-38.653 4.2286-59.305 19.128-73.396 12.517-11.838 25.842-15.937 51.809-15.937 25.692 0 39.155 4.0711 51.428 15.551 8.1173 7.5927 13.986 18.562 16.922 31.627 3.0896 13.752 3.0137 57.952-0.1215 70.823-6.1635 25.304-19.677 39.536-42.895 45.175-8.5719 2.0821-25.954 3.4023-34.667 2.633zm31.912-28.432c14.642-7.0881 17.422-15.816 17.422-54.709 0-23.777-0.407-29.983-2.3859-36.386-3.0633-9.9112-9.9909-17.081-19.04-19.707-8.2065-2.381-31.436-2.4268-38.275-0.07552-10.697 3.6778-16.792 11.857-19.646 26.363-2.1092 10.721-1.13 60.523 1.3201 67.139 5.9233 15.993 17.198 21.721 40.97 20.813 10.513-0.40158 14.981-1.1835 19.636-3.4369zm-626.27 26.188c-7.0992-2.2082-14.161-8.2987-17.083-14.734-2.3644-5.2066-2.4979-10.553-2.5256-101.12-0.0275-89.732 0.1144-95.695 2.304-96.834 1.2833-0.66776 6.6287-2.3077 11.879-3.6443 7.9609-2.0268 9.8974-2.1379 11.667-0.66955 1.9019 1.5784 2.1235 11.299 2.1411 93.931 0.0152 71.469 0.39719 92.919 1.7006 95.503 1.3771 2.7309 2.9251 3.4591 8.5652 4.0293 3.7864 0.38277 7.2934 1.1051 7.7935 1.6052 0.50008 0.50007 1.673 4.1947 2.6064 8.2102 1.428 6.1431 1.3963 7.7305-0.20006 10.01-3.5723 5.1001-18.292 6.9931-28.847 3.7098zm-333.54-2.9928c-1.5737-1.5737-2.0952-4.896-2.0952-13.348v-11.26l46.11-53.65 46.1-53.65-45.54-0.667c-52.103-0.76268-49.326-0.03532-49.326-12.922 0-5.3007 0.66973-7.7482 2.6667-9.7452 2.59-2.587 4.44-2.666 62.37-2.666 51.878 0 60.092 0.27204 62.667 2.0756 2.6624 1.8648 2.9634 3.2133 2.9634 13.277v11.202l-46 53.388c-25.3 29.363-46 53.688-46 54.056 0 0.36754 19.8 0.66826 44 0.66826 42.222 0 44.108 0.10773 46.667 2.6667 2.0202 2.0202 2.6667 4.4444 2.6667 10s-0.64646 7.9798-2.6667 10c-2.5875 2.5875-4.4444 2.6667-62.571 2.6667-52.681 0-60.157-0.25265-62-2.0952zm544.53-0.61779c-2.6675-2.6675-2.7067-3.8482-2.3333-70.333 0.37869-67.442 0.38749-67.631 3.342-71.773 6.6613-9.3386 34.742-16.293 70.371-17.428 17.829-0.56791 24.303-0.28985 30.334 1.303 10.454 2.7612 18.452 7.7155 22.964 14.226 7.0309 10.146 7.3694 13.863 7.3694 80.934v61.634l-2.9634 2.0756c-1.9744 1.3829-5.9791 2.0756-12 2.0756-15.452 0-14.37 4.8965-14.372-65-0.003-66.106-0.0748-66.7-8.6646-70.998-6.1675-3.0861-33.759-2.4184-51.251 1.2402-7.6547 1.6011-14.405 3.2121-15 3.58-0.59533 0.36794-1.0824 29.1-1.0824 63.848v63.179l-2.9634 2.0756c-1.9744 1.3829-5.9791 2.0756-12 2.0756-7.3104 0-9.5549-0.51828-11.75-2.713z"/>
  <path id="path186" fill="#d6d6d6" d="m41.333 262.52c-14.271-4.33-23.992-20.94-32.678-55.85-6.4929-26.1-7.9561-39.83-7.9561-74.67 0.00002-42.126 3.9215-67.479 15.3-98.916 11.98-33.097 26.614-38.947 69.655-27.842 58.796 15.168 122.42 54.288 155.82 95.808 20.253 25.176 20.253 36.722 0 61.897-26.993 33.555-79.05 69.155-127.15 86.955-29.537 10.931-60.765 16.33-72.988 12.62zm483.34-39.81c-25.311-2.4367-40.152-10.983-47.539-27.376-4.0652-9.021-5.0868-31.537-1.9245-42.415 6.7398-23.184 30.055-33.051 83.13-35.182l20.333-0.81624v-9.8362c0-19.465-4.2608-22.955-29.333-24.024-15.545-0.66258-26.059 0.54885-50.386 5.8054-13.879 2.999-15.012 2.3935-17.483-9.3389-1.7046-8.0949-1.6686-9.092 0.41092-11.39 7.5912-8.3882 70.064-14.215 93.861-8.7544 18.259 4.1899 28.274 12.978 30.92 27.133 1.6743 8.955 1.7309 105.54 0.0661 112.71-1.7582 7.5805-5.2229 11.63-13.45 15.718-12.515 6.2194-45.666 9.9694-68.607 7.7608zm43.962-26.248 10.038-2.2056v-53.082l-16.333 0.84307c-48.684 2.5129-59.63 7.9164-59.659 29.452-0.0164 12.069 6.7465 21.902 17.303 25.156 8.6888 2.6789 36.137 2.587 48.652-0.16287zm189.37 26.248c-25.311-2.4367-40.152-10.983-47.539-27.376-4.0652-9.021-5.0868-31.537-1.9245-42.415 6.7397-23.184 30.055-33.051 83.13-35.182l20.333-0.81624v-9.8362c0-19.465-4.2608-22.955-29.333-24.024-15.545-0.66258-26.059 0.54885-50.386 5.8054-13.879 2.999-15.012 2.3935-17.483-9.3389-1.7046-8.0949-1.6686-9.092 0.41092-11.39 7.5912-8.3882 70.064-14.215 93.861-8.7544 18.259 4.1899 28.274 12.978 30.92 27.133 1.6742 8.955 1.7309 105.54 0.0661 112.71-1.7581 7.5805-5.2229 11.63-13.45 15.718-12.515 6.2194-45.666 9.9694-68.607 7.7608zm43.962-26.248 10.038-2.2056v-53.082l-16.333 0.84307c-49.036 2.5311-59.71 7.8985-59.63 29.984 0.0425 11.667 6.927 21.382 17.488 24.676 8.4404 2.633 36.034 2.5105 48.438-0.21508zm284.19 26.117c-18.932-2.0709-30.958-7.3675-40.682-17.917-12.072-13.096-16.368-29.903-16.358-63.994 0.011-34.463 4.4175-52.165 16.196-65.052 12.754-13.954 25.992-18.258 56.025-18.212 10.633 0.01611 23.383 0.81321 28.333 1.7713l9 1.742v-25.751c0-29.511-1.3346-26.694 14.447-30.493 9.1243-2.1965 9.9298-2.2055 12-0.13481 2.0297 2.0301 2.2193 10.559 2.2193 99.838 0 95.707-0.053 97.709-2.7075 102.23-1.5803 2.69-5.1883 5.862-8.6666 7.6194-12.785 6.4595-48.277 10.705-69.807 8.3497zm40.8-26.05l11.667-2.1412v-108.76l-9-1.8176c-4.9594-1.0016-17.081-1.8165-27-1.815-21.289 0.0031-27.848 2.1297-34.379 11.146-7.1121 9.8179-8.8961 19.181-8.9267 46.852-0.024 22.043 0.2977 25.701 3.0287 34.392 3.8238 12.168 10.022 19.495 18.772 22.189 8.434 2.5969 31.555 2.5719 45.839-0.0496zm127 26.611c-19.169-1.6926-31.982-6.5668-42.072-16.004-14.29-13.366-18.517-26.453-19.532-60.47-1.1535-38.653 4.2286-59.305 19.128-73.396 12.517-11.838 25.842-15.937 51.809-15.937 25.692 0 39.155 4.0711 51.428 15.551 8.1173 7.5927 13.986 18.562 16.922 31.627 3.0896 13.752 3.0137 57.952-0.1215 70.823-6.1635 25.304-19.677 39.536-42.895 45.175-8.5719 2.0821-25.954 3.4023-34.667 2.633zm31.912-28.432c14.642-7.0881 17.422-15.816 17.422-54.709 0-23.777-0.407-29.983-2.3859-36.386-3.0633-9.9112-9.9909-17.081-19.04-19.707-8.2065-2.381-31.436-2.4268-38.275-0.07552-10.697 3.6778-16.792 11.857-19.646 26.363-2.1092 10.721-1.13 60.523 1.3201 67.139 5.9233 15.993 17.198 21.721 40.97 20.813 10.513-0.40158 14.981-1.1835 19.636-3.4369zm-626.27 26.188c-7.0992-2.2082-14.161-8.2987-17.083-14.734-2.3644-5.2066-2.4979-10.553-2.5256-101.12-0.0275-89.732 0.1144-95.695 2.304-96.834 1.2833-0.66776 6.6287-2.3077 11.879-3.6443 7.9609-2.0268 9.8974-2.1379 11.667-0.66955 1.9019 1.5784 2.1235 11.299 2.1411 93.931 0.0152 71.469 0.39719 92.919 1.7006 95.503 1.3771 2.7309 2.9251 3.4591 8.5652 4.0293 3.7864 0.38277 7.2934 1.1051 7.7935 1.6052 0.50008 0.50007 1.673 4.1947 2.6064 8.2102 1.428 6.1431 1.3963 7.7305-0.20006 10.01-3.5723 5.1001-18.292 6.9931-28.847 3.7098zm-333.54-2.9928c-1.5737-1.5737-2.0952-4.896-2.0952-13.348v-11.26l46.11-53.65 46.1-53.65-45.54-0.667c-52.103-0.76268-49.326-0.03532-49.326-12.922 0-5.3007 0.66973-7.7482 2.6667-9.7452 2.59-2.587 4.44-2.666 62.37-2.666 51.878 0 60.092 0.27204 62.667 2.0756 2.6624 1.8648 2.9634 3.2133 2.9634 13.277v11.202l-46 53.388c-25.3 29.363-46 53.688-46 54.056 0 0.36754 19.8 0.66826 44 0.66826 42.222 0 44.108 0.10773 46.667 2.6667 2.0202 2.0202 2.6667 4.4444 2.6667 10s-0.64646 7.9798-2.6667 10c-2.5875 2.5875-4.4444 2.6667-62.571 2.6667-52.681 0-60.157-0.25265-62-2.0952zm544.53-0.61779c-2.6675-2.6675-2.7067-3.8482-2.3333-70.333 0.37869-67.442 0.38749-67.631 3.342-71.773 6.6613-9.3386 34.742-16.293 70.371-17.428 17.829-0.56791 24.303-0.28985 30.334 1.303 10.454 2.7612 18.452 7.7155 22.964 14.226 7.0309 10.146 7.3694 13.863 7.3694 80.934v61.634l-2.9634 2.0756c-1.9744 1.3829-5.9791 2.0756-12 2.0756-15.452 0-14.37 4.8965-14.372-65-0.003-66.106-0.0748-66.7-8.6646-70.998-6.1675-3.0861-33.759-2.4184-51.251 1.2402-7.6547 1.6011-14.405 3.2121-15 3.58-0.59533 0.36794-1.0824 29.1-1.0824 63.848v63.179l-2.9634 2.0756c-1.9744 1.3829-5.9791 2.0756-12 2.0756-7.3104 0-9.5549-0.51828-11.75-2.713z"/>
  <path id="path184" fill="#fed0b0" d="m41.333 262.52c-14.271-4.33-23.992-20.94-32.678-55.85-6.4929-26.1-7.9561-39.83-7.9561-74.67 0.00002-42.126 3.9215-67.479 15.3-98.916 11.98-33.097 26.614-38.947 69.655-27.842 58.796 15.168 122.42 54.288 155.82 95.808 20.253 25.176 20.253 36.722 0 61.897-26.993 33.555-79.05 69.155-127.15 86.955-29.537 10.931-60.765 16.33-72.988 12.62zm482.92-39.9c-27.145-2.7419-43.487-13.735-49.095-33.027-2.9916-10.291-1.9794-33.245 1.8415-41.762 3.3178-7.3947 10.416-14.794 17.812-18.567 12.302-6.2758 46.261-11.927 71.674-11.927h12.501l-0.56165-12.842c-0.52123-11.917-0.81722-13.062-4.1122-15.896-1.9528-1.6797-7.0216-3.7797-11.264-4.6666-11.54-2.4126-39.098-0.79277-57.023 3.3518-22.176 5.1275-22.109 5.15-24.737-8.2711-2.0261-10.345-1.3021-11.408 10.19-14.957 15.863-4.8997 36.467-7.071 60.479-6.3736 24.084 0.69945 31.114 2.1899 41.548 8.8081 4.633 2.9388 7.1244 5.8571 10 11.713l3.83 7.792 0.41747 52.383c0.44994 56.46-0.18572 64.093-5.9034 70.888-1.8218 2.165-6.5827 5.143-10.663 6.6696-15.127 5.6599-46.252 8.7636-66.933 6.6746zm48.748-26.655 5.6667-1.6181v-53.008l-3 0.0348c-14.359 0.16654-45.194 2.9526-51.948 4.6936-11.854 3.0559-16.441 6.2491-19.144 13.328-2.8397 7.4357-2.0434 21.039 1.5932 27.216 2.7789 4.7204 9.27 9.2292 15.643 10.866 6.0088 1.5432 44.469 0.40771 51.189-1.5112zm184.58 26.655c-26.813-2.7084-43.367-13.673-48.931-32.409-2.6162-8.8098-2.5532-27.816 0.12226-36.825 4.0451-13.621 11.522-21.378 25.855-26.824 10.799-4.1032 36.029-7.9585 57.852-8.8401l19.817-0.80052-0.55255-12.634c-0.51156-11.696-0.81593-12.86-4.1031-15.688-1.9528-1.6797-7.0216-3.7797-11.264-4.6666-11.54-2.4126-39.098-0.79277-57.023 3.3518-22.176 5.1275-22.109 5.15-24.737-8.2711-2.0261-10.345-1.3021-11.408 10.19-14.957 15.863-4.8997 36.467-7.071 60.479-6.3736 24.084 0.69945 31.114 2.1899 41.548 8.8081 4.633 2.9388 7.1244 5.8571 10 11.713l3.84 7.804 0.40504 52.443c0.43617 56.476-0.1945 64.058-5.891 70.828-1.8218 2.165-6.5827 5.143-10.663 6.6696-15.127 5.6599-46.252 8.7636-66.933 6.6746zm48.748-26.655 5.6667-1.6181v-53.138l-17 0.8265c-48.166 2.3418-58.985 7.7165-58.985 29.303 0 12.992 5.8904 21.723 17.073 25.304 7.5008 2.4023 44.091 1.937 53.246-0.6771zm281.67 26.68c-30.638-3.01-46.794-14.986-54.543-40.432-5.7296-18.814-6.078-60.409-0.6815-81.339 6.1492-23.85 20.92-37.724 45.029-42.296 13.052-2.4753 47.815-1.2057 58.325 2.1302 2.4341 0.77253 2.5377-0.23164 2.5377-24.587 0-29.36-0.9895-27.291 15.069-31.507 14.925-3.9178 13.598-13.66 13.598 99.768v97.63l-3.0211 4.858c-3.6515 5.872-8.3926 8.261-23.528 11.856-10.031 2.3824-34.935 5.4691-40.785 5.055-1.1-0.0779-6.5-0.58368-12-1.124zm43.667-26.593 7-1.6063v-108.92l-7.7-1.748c-4.4703-1.0194-16.005-1.7537-27.667-1.7612-17.947-0.0116-20.548 0.28173-25.333 2.8573-2.9333 1.5786-6.654 4.2861-8.2682 6.0166-7.2585 7.7816-11.065 24.678-11.065 49.113 0 35.589 7.4524 53.088 24.478 57.475 5.8773 1.5144 40.094 0.5108 48.522-1.4233zm118.09 26.498c-30.427-3.5829-47.652-18.126-54.728-46.205-3.3376-13.244-3.3086-60.093 0.045-72.345 5.3673-19.61 13.521-31.059 27.38-38.446 11.196-5.9673 22.258-8.1812 40.879-8.1812 40.225 0 59.949 13.683 68.17 47.294 3.1555 12.901 3.2602 55.789 0.1696 69.543-7.1326 31.743-25.983 46.508-62.339 48.83-5.5 0.35127-14.309 0.1312-19.576-0.48892zm34.891-27.082c15.218-6.4766 19.345-18.186 19.315-54.801-0.026-32.11-2.7689-44.059-11.871-51.718-6.359-5.3507-12.766-6.893-28.759-6.9222-16.946-0.03096-24.368 2.1205-31.031 8.9947-7.4645 7.7014-8.6699 13.302-9.3224 43.312-1.0023 46.105 3.0197 56.764 23.621 62.6 8.3601 2.3682 31.098 1.4927 38.048-1.4649zm-622.65 26.031c-10.202-2.6846-17.286-9.1519-20.483-18.698-1.0775-3.2182-1.5175-31.93-1.5175-99.029v-94.494l3-1.2687c1.65-0.69777 6.7559-2.2029 11.346-3.3446 15.076-3.7499 13.654-13.519 13.654 93.754 0 105-0.60695 98.916 9.869 98.916 7.3974 0 9.7973 2.6919 10.921 12.249 0.82743 7.0401 0.67639 7.6024-2.6228 9.7641-3.9255 2.5721-17.856 3.8126-24.167 2.152zm-335.09-3.58c-2.6613-1.864-2.9633-3.2143-2.9633-13.247v-11.171l46-53.449c25.3-29.397 46-53.736 46-54.087 0-0.35074-20.1-0.6377-44.667-0.6377-42.889 0-44.773-0.10613-47.333-2.6667-1.9969-1.9969-2.6667-4.4444-2.6667-9.7452 0-13.151-4.8142-12.202 64.065-12.628 52.674-0.32611 60.68-0.11188 63.442 1.6974 2.9037 1.9026 3.1602 2.967 3.1602 13.116v11.054l-46.42 53.928-46.42 53.92 45.023 0.66667c32.777 0.48533 45.463 1.1072 46.641 2.2864 0.88993 0.89085 1.8899 4.8974 2.2221 8.9035 0.53665 6.4714 0.22152 7.6662-2.8258 10.714l-3.43 3.43h-58.431c-50.726 0-58.821-0.27368-61.394-2.0756zm546.37 1.1503c-5.2649-1.8816-5.3333-2.7672-5.3333-69.005 0-37.878 0.53454-65.951 1.3071-68.645 2.148-7.4898 7.4734-11.801 19.123-15.481 19.205-6.0669 32.938-7.9111 58.903-7.91 28.95 0.0013 35.32 1.7774 45.004 12.549 9.6799 10.766 9.4854 9.203 9.9943 80.357 0.4548 63.593 0.4543 63.607-2.4106 66.472-2.532 2.532-4.0287 2.8068-12.858 2.361-7.9345-0.40066-10.377-1.031-11.861-3.0602-1.5362-2.1009-1.8687-13.075-1.8687-61.677 0-64.421-0.14502-65.786-7.5028-70.599-5.6038-3.6658-32.093-3.2714-52.831 0.78647l-15.667 3.0656v127.56l-2.9634 2.0756c-2.9017 2.0324-16.49 2.7754-21.037 1.1503z"/>
  <path id="path182" fill="#febc8f" d="m43.333 262.84c-15.886-4.21-24.826-18.43-33.895-53.89-6.7029-26.21-8.6725-43.69-8.6725-76.95 0.00002-33.26 1.9696-50.737 8.6722-76.948 7.5853-29.665 15.871-45.486 26.885-51.336 12.501-6.6393 47.4-1.6326 81.007 11.622 45.605 17.985 92.082 49.318 119.71 80.701 25.422 28.88 25.422 43.041 0 71.92-27.627 31.384-74.104 62.716-119.71 80.701-25.937 10.229-62.484 17.231-74 14.178zm480.92-40.22c-27.145-2.7419-43.487-13.735-49.095-33.027-2.9916-10.291-1.9794-33.245 1.8415-41.762 3.3178-7.3947 10.416-14.794 17.812-18.567 12.302-6.2758 46.261-11.927 71.674-11.927h12.501l-0.56165-12.842c-0.52123-11.917-0.81722-13.062-4.1122-15.896-1.9528-1.6797-7.0216-3.7797-11.264-4.6666-11.54-2.4126-39.098-0.79277-57.023 3.3518-22.176 5.1275-22.109 5.15-24.737-8.2711-2.0261-10.345-1.3021-11.408 10.19-14.957 15.863-4.8997 36.467-7.071 60.479-6.3736 24.084 0.69945 31.114 2.1899 41.548 8.8081 4.633 2.9388 7.1244 5.8571 10 11.713l3.83 7.792 0.41747 52.383c0.44994 56.46-0.18572 64.093-5.9034 70.888-1.8218 2.165-6.5827 5.143-10.663 6.6696-15.127 5.6599-46.252 8.7636-66.933 6.6746zm48.748-26.655 5.6667-1.6181v-53.008l-3 0.0348c-14.359 0.16654-45.194 2.9526-51.948 4.6936-11.854 3.0559-16.441 6.2491-19.144 13.328-2.8397 7.4357-2.0434 21.039 1.5932 27.216 2.7789 4.7204 9.27 9.2292 15.643 10.866 6.0088 1.5432 44.469 0.40771 51.189-1.5112zm184.58 26.655c-26.813-2.7084-43.367-13.673-48.931-32.409-2.6162-8.8098-2.5532-27.816 0.12226-36.825 4.0451-13.621 11.522-21.378 25.855-26.824 10.799-4.1032 36.029-7.9585 57.852-8.8401l19.817-0.80052-0.55255-12.634c-0.51156-11.696-0.81593-12.86-4.1031-15.688-1.9528-1.6797-7.0216-3.7797-11.264-4.6666-11.54-2.4126-39.098-0.79277-57.023 3.3518-22.176 5.1275-22.109 5.15-24.737-8.2711-2.0261-10.345-1.3021-11.408 10.19-14.957 15.863-4.8997 36.467-7.071 60.479-6.3736 24.084 0.69945 31.114 2.1899 41.548 8.8081 4.633 2.9388 7.1244 5.8571 10 11.713l3.84 7.804 0.40504 52.443c0.43617 56.476-0.1945 64.058-5.891 70.828-1.8218 2.165-6.5827 5.143-10.663 6.6696-15.127 5.6599-46.252 8.7636-66.933 6.6746zm48.748-26.655 5.6667-1.6181v-53.138l-17 0.8265c-48.166 2.3418-58.985 7.7165-58.985 29.303 0 12.992 5.8904 21.723 17.073 25.304 7.5008 2.4023 44.091 1.937 53.246-0.6771zm281.67 26.68c-30.638-3.01-46.794-14.986-54.543-40.432-5.7296-18.814-6.078-60.409-0.6815-81.339 6.1492-23.85 20.92-37.724 45.029-42.296 13.052-2.4753 47.815-1.2057 58.325 2.1302 2.4341 0.77253 2.5377-0.23164 2.5377-24.587 0-29.36-0.9895-27.291 15.069-31.507 14.925-3.9178 13.598-13.66 13.598 99.768v97.63l-3.0211 4.858c-3.6515 5.872-8.3926 8.261-23.528 11.856-10.031 2.3824-34.935 5.4691-40.785 5.055-1.1-0.0779-6.5-0.58368-12-1.124zm43.667-26.593 7-1.6063v-108.92l-7.7-1.748c-4.4703-1.0194-16.005-1.7537-27.667-1.7612-17.947-0.0116-20.548 0.28173-25.333 2.8573-2.9333 1.5786-6.654 4.2861-8.2682 6.0166-7.2585 7.7816-11.065 24.678-11.065 49.113 0 35.589 7.4524 53.088 24.478 57.475 5.8773 1.5144 40.094 0.5108 48.522-1.4233zm118.09 26.498c-30.427-3.5829-47.652-18.126-54.728-46.205-3.3376-13.244-3.3086-60.093 0.045-72.345 5.3673-19.61 13.521-31.059 27.38-38.446 11.196-5.9673 22.258-8.1812 40.879-8.1812 40.225 0 59.949 13.683 68.17 47.294 3.1555 12.901 3.2602 55.789 0.1696 69.543-7.1326 31.743-25.983 46.508-62.339 48.83-5.5 0.35127-14.309 0.1312-19.576-0.48892zm34.891-27.082c15.218-6.4766 19.345-18.186 19.315-54.801-0.026-32.11-2.7689-44.059-11.871-51.718-6.359-5.3507-12.766-6.893-28.759-6.9222-16.946-0.03096-24.368 2.1205-31.031 8.9947-7.4645 7.7014-8.6699 13.302-9.3224 43.312-1.0023 46.105 3.0197 56.764 23.621 62.6 8.3601 2.3682 31.098 1.4927 38.048-1.4649zm-622.65 26.031c-10.202-2.6846-17.286-9.1519-20.483-18.698-1.0775-3.2182-1.5175-31.93-1.5175-99.029v-94.494l3-1.2687c1.65-0.69777 6.7559-2.2029 11.346-3.3446 15.076-3.7499 13.654-13.519 13.654 93.754 0 105-0.60695 98.916 9.869 98.916 7.3974 0 9.7973 2.6919 10.921 12.249 0.82743 7.0401 0.67639 7.6024-2.6228 9.7641-3.9255 2.5721-17.856 3.8126-24.167 2.152zm-335.09-3.58c-2.6613-1.864-2.9633-3.2143-2.9633-13.247v-11.171l46-53.449c25.3-29.397 46-53.736 46-54.087 0-0.35074-20.1-0.6377-44.667-0.6377-42.889 0-44.773-0.10613-47.333-2.6667-1.9969-1.9969-2.6667-4.4444-2.6667-9.7452 0-13.151-4.8142-12.202 64.065-12.628 52.674-0.32611 60.68-0.11188 63.442 1.6974 2.9037 1.9026 3.1602 2.967 3.1602 13.116v11.054l-46.42 53.928-46.42 53.92 45.023 0.66667c32.777 0.48533 45.463 1.1072 46.641 2.2864 0.88993 0.89085 1.8899 4.8974 2.2221 8.9035 0.53665 6.4714 0.22152 7.6662-2.8258 10.714l-3.43 3.43h-58.431c-50.726 0-58.821-0.27368-61.394-2.0756zm546.37 1.1503c-5.2649-1.8816-5.3333-2.7672-5.3333-69.005 0-37.878 0.53454-65.951 1.3071-68.645 2.148-7.4898 7.4734-11.801 19.123-15.481 19.205-6.0669 32.938-7.9111 58.903-7.91 28.95 0.0013 35.32 1.7774 45.004 12.549 9.6799 10.766 9.4854 9.203 9.9943 80.357 0.4548 63.593 0.4543 63.607-2.4106 66.472-2.532 2.532-4.0287 2.8068-12.858 2.361-7.9345-0.40066-10.377-1.031-11.861-3.0602-1.5362-2.1009-1.8687-13.075-1.8687-61.677 0-64.421-0.14502-65.786-7.5028-70.599-5.6038-3.6658-32.093-3.2714-52.831 0.78647l-15.667 3.0656v127.56l-2.9634 2.0756c-2.9017 2.0324-16.49 2.7754-21.037 1.1503z"/>
  <path id="path180" fill="#bdbdbd" d="m41.006 261.95c-12.308-3.95-19.821-15.15-28.16-41.98-16.903-54.38-16.903-121.56 0-175.94 12.963-41.707 24.04-48.769 63.821-40.693 40.083 8.137 92.673 33.943 129.29 63.439 21.64 17.432 42.754 41.024 48.043 53.682 2.5638 6.136 2.5638 16.948 0 23.084-5.2888 12.658-26.403 36.25-48.043 53.682-5.8426 4.7065-17.823 13.329-26.623 19.16-46.966 31.124-114.27 53.297-138.33 45.571zm483.24-39.33c-27.145-2.7419-43.487-13.735-49.095-33.027-2.9916-10.291-1.9794-33.245 1.8415-41.762 3.3178-7.3947 10.416-14.794 17.812-18.567 12.302-6.2758 46.261-11.927 71.674-11.927h12.501l-0.56165-12.842c-0.52123-11.917-0.81722-13.062-4.1122-15.896-1.9528-1.6797-7.0216-3.7797-11.264-4.6666-11.54-2.4126-39.098-0.79277-57.023 3.3518-22.176 5.1275-22.109 5.15-24.737-8.2711-2.0261-10.345-1.3021-11.408 10.19-14.957 15.863-4.8997 36.467-7.071 60.479-6.3736 24.084 0.69945 31.114 2.1899 41.548 8.8081 4.633 2.9388 7.1244 5.8571 10 11.713l3.83 7.792 0.41747 52.383c0.44994 56.46-0.18572 64.093-5.9034 70.888-1.8218 2.165-6.5827 5.143-10.663 6.6696-15.127 5.6599-46.252 8.7636-66.933 6.6746zm48.748-26.655 5.6667-1.6181v-53.008l-3 0.0348c-14.359 0.16654-45.194 2.9526-51.948 4.6936-11.854 3.0559-16.441 6.2491-19.144 13.328-2.8397 7.4357-2.0434 21.039 1.5932 27.216 2.7789 4.7204 9.27 9.2292 15.643 10.866 6.0088 1.5432 44.469 0.40771 51.189-1.5112zm184.58 26.655c-26.813-2.7084-43.367-13.673-48.931-32.409-2.6162-8.8098-2.5532-27.816 0.12226-36.825 4.0451-13.621 11.522-21.378 25.855-26.824 10.799-4.1032 36.029-7.9585 57.852-8.8401l19.817-0.80052-0.55255-12.634c-0.51156-11.696-0.81593-12.86-4.1031-15.688-1.9528-1.6797-7.0216-3.7797-11.264-4.6666-11.54-2.4126-39.098-0.79277-57.023 3.3518-22.176 5.1275-22.109 5.15-24.737-8.2711-2.0261-10.345-1.3021-11.408 10.19-14.957 15.863-4.8997 36.467-7.071 60.479-6.3736 24.084 0.69945 31.114 2.1899 41.548 8.8081 4.633 2.9388 7.1244 5.8571 10 11.713l3.84 7.804 0.40504 52.443c0.43617 56.476-0.1945 64.058-5.891 70.828-1.8218 2.165-6.5827 5.143-10.663 6.6696-15.127 5.6599-46.252 8.7636-66.933 6.6746zm48.748-26.655 5.6667-1.6181v-53.138l-17 0.8265c-48.166 2.3418-58.985 7.7165-58.985 29.303 0 12.992 5.8904 21.723 17.073 25.304 7.5008 2.4023 44.091 1.937 53.246-0.6771zm281.67 26.68c-30.638-3.01-46.794-14.986-54.543-40.432-5.7296-18.814-6.078-60.409-0.6815-81.339 6.1492-23.85 20.92-37.724 45.029-42.296 13.052-2.4753 47.815-1.2057 58.325 2.1302 2.4341 0.77253 2.5377-0.23164 2.5377-24.587 0-29.36-0.9895-27.291 15.069-31.507 14.925-3.9178 13.598-13.66 13.598 99.768v97.63l-3.0211 4.858c-3.6515 5.872-8.3926 8.261-23.528 11.856-10.031 2.3824-34.935 5.4691-40.785 5.055-1.1-0.0779-6.5-0.58368-12-1.124zm43.667-26.593 7-1.6063v-108.92l-7.7-1.748c-4.4703-1.0194-16.005-1.7537-27.667-1.7612-17.947-0.0116-20.548 0.28173-25.333 2.8573-2.9333 1.5786-6.654 4.2861-8.2682 6.0166-7.2585 7.7816-11.065 24.678-11.065 49.113 0 35.589 7.4524 53.088 24.478 57.475 5.8773 1.5144 40.094 0.5108 48.522-1.4233zm118.09 26.498c-30.427-3.5829-47.652-18.126-54.728-46.205-3.3376-13.244-3.3086-60.093 0.045-72.345 5.3673-19.61 13.521-31.059 27.38-38.446 11.196-5.9673 22.258-8.1812 40.879-8.1812 40.225 0 59.949 13.683 68.17 47.294 3.1555 12.901 3.2602 55.789 0.1696 69.543-7.1326 31.743-25.983 46.508-62.339 48.83-5.5 0.35127-14.309 0.1312-19.576-0.48892zm34.891-27.082c15.218-6.4766 19.345-18.186 19.315-54.801-0.026-32.11-2.7689-44.059-11.871-51.718-6.359-5.3507-12.766-6.893-28.759-6.9222-16.946-0.03096-24.368 2.1205-31.031 8.9947-7.4645 7.7014-8.6699 13.302-9.3224 43.312-1.0023 46.105 3.0197 56.764 23.621 62.6 8.3601 2.3682 31.098 1.4927 38.048-1.4649zm-622.65 26.031c-10.202-2.6846-17.286-9.1519-20.483-18.698-1.0775-3.2182-1.5175-31.93-1.5175-99.029v-94.494l3-1.2687c1.65-0.69777 6.7559-2.2029 11.346-3.3446 15.076-3.7499 13.654-13.519 13.654 93.754 0 105-0.60695 98.916 9.869 98.916 7.3974 0 9.7973 2.6919 10.921 12.249 0.82743 7.0401 0.67639 7.6024-2.6228 9.7641-3.9255 2.5721-17.856 3.8126-24.167 2.152zm-335.09-3.58c-2.6613-1.864-2.9633-3.2143-2.9633-13.247v-11.171l46-53.449c25.3-29.397 46-53.736 46-54.087 0-0.35074-20.1-0.6377-44.667-0.6377-42.889 0-44.773-0.10613-47.333-2.6667-1.9969-1.9969-2.6667-4.4444-2.6667-9.7452 0-13.151-4.8142-12.202 64.065-12.628 52.674-0.32611 60.68-0.11188 63.442 1.6974 2.9037 1.9026 3.1602 2.967 3.1602 13.116v11.054l-46.42 53.928-46.42 53.92 45.023 0.66667c32.777 0.48533 45.463 1.1072 46.641 2.2864 0.88993 0.89085 1.8899 4.8974 2.2221 8.9035 0.53665 6.4714 0.22152 7.6662-2.8258 10.714l-3.43 3.43h-58.431c-50.726 0-58.821-0.27368-61.394-2.0756zm546.37 1.1503c-5.2649-1.8816-5.3333-2.7672-5.3333-69.005 0-37.878 0.53454-65.951 1.3071-68.645 2.148-7.4898 7.4734-11.801 19.123-15.481 19.205-6.0669 32.938-7.9111 58.903-7.91 28.95 0.0013 35.32 1.7774 45.004 12.549 9.6799 10.766 9.4854 9.203 9.9943 80.357 0.4548 63.593 0.4543 63.607-2.4106 66.472-2.532 2.532-4.0287 2.8068-12.858 2.361-7.9345-0.40066-10.377-1.031-11.861-3.0602-1.5362-2.1009-1.8687-13.075-1.8687-61.677 0-64.421-0.14502-65.786-7.5028-70.599-5.6038-3.6658-32.093-3.2714-52.831 0.78647l-15.667 3.0656v127.56l-2.9634 2.0756c-2.9017 2.0324-16.49 2.7754-21.037 1.1503z"/>
  <path id="path178" fill="#feaf79" d="m41.006 261.95c-12.308-3.95-19.821-15.15-28.16-41.98-16.903-54.38-16.903-121.56 0-175.94 12.963-41.707 24.04-48.769 63.821-40.693 40.083 8.137 92.673 33.943 129.29 63.439 21.64 17.432 42.754 41.024 48.043 53.682 2.5638 6.136 2.5638 16.948 0 23.084-5.2888 12.658-26.403 36.25-48.043 53.682-5.8426 4.7065-17.823 13.329-26.623 19.16-46.966 31.124-114.27 53.297-138.33 45.571zm471.2-41.25c-19.197-4.3595-31.465-14.331-36.102-29.342-3.4159-11.059-3.6907-27.787-0.62607-38.106 7.0595-23.772 28.495-32.768 84.443-35.439l18.987-0.90639-0.45486-12.318c-0.54241-14.69-1.9877-16.941-12.918-20.118-11.299-3.2846-40.093-1.9239-61.366 2.8998-11.791 2.6737-17.105 3.3563-18.632 2.3932-2.8622-1.8055-5.9758-17.128-4.1671-20.508 1.4931-2.7898 9.5048-5.4729 26.558-8.894 8.4999-1.7052 18.192-2.2874 38.07-2.2867 23.73 0.000814 27.596 0.31522 35.109 2.8547 12.295 4.1562 18.228 8.782 22.539 17.571l3.68 7.498 0.44846 48.667c0.48501 52.635-0.48154 66.839-4.9781 73.154-6.6279 9.3081-23.356 13.453-57.461 14.237-18.401 0.42321-26.815 0.0793-33.126-1.3537zm57.398-24.19 9.0606-2.0608v-53.494l-19 0.92344c-23.409 1.1377-33.996 2.7207-43.588 6.5171-6.2812 2.4861-7.8701 3.8416-10.412 8.883-2.1292 4.2224-3 8.3007-3 14.051 0 15.895 7.9628 24.63 24.878 27.29 9.9594 1.5661 30.409 0.54033 42.061-2.1098zm91.48 24.37c-8.0463-2.2612-14.733-7.4163-17.906-13.805-2.3914-4.8143-2.5395-10.006-2.8803-100.98-0.19761-52.749 0.12867-96.395 0.72498-96.992 0.93298-0.93299 19.315-6.3143 21.872-6.403 0.49762-0.01726 1.8476 0.91148 3 2.0639 1.8647 1.8647 2.0952 12.33 2.0952 95.127 0 105.7-1.0472 96.753 11.54 98.554 6.0697 0.86824 6.5633 1.2421 8.1886 6.2031 2.5268 7.7128 1.6459 12.999-2.4954 14.973-5.4132 2.5808-17.245 3.1992-24.139 1.2617zm84.881-0.0877c-28.364-6.4767-40.465-22.844-39.023-52.782 1.7204-35.727 21.254-47.087 86.304-50.192l18.987-0.90639-0.45486-12.318c-0.54241-14.69-1.9877-16.941-12.918-20.118-11.299-3.2846-40.093-1.9239-61.366 2.8998-11.791 2.6737-17.105 3.3563-18.632 2.3932-2.8622-1.8055-5.9758-17.128-4.1671-20.508 1.4931-2.7898 9.5048-5.4729 26.558-8.894 8.4999-1.7052 18.192-2.2874 38.07-2.2867 23.73 0.000815 27.596 0.31522 35.109 2.8547 12.291 4.1549 18.228 8.7822 22.544 17.571l3.69 7.488 0.45448 50.225c0.48109 53.165-0.3577 65.085-5.0428 71.665-3.4577 4.8558-11.69 8.9001-23.566 11.576-12.954 2.9194-55.819 3.7737-66.538 1.3261zm56.57-24.189 9.4556-2.1506v-53.48l-19.667 0.95352c-22.11 1.072-36.112 3.3362-45.032 7.282-7.6748 3.3949-11.229 10.387-11.272 22.174-0.0575 15.816 7.9322 24.576 24.849 27.242 10.247 1.6153 29.856 0.66318 41.666-2.023zm272.47 24.125c-22.396-5.0821-35.794-18.201-42.378-41.496-3.2855-11.624-4.2538-53.454-1.5872-68.565 6.6216-37.522 23.162-51.435 62.99-52.985 15.473-0.6021 36.975 1.0018 42.656 3.1817 1.6936 0.64993 1.9688-2.7828 1.9688-24.557 0-20.568 0.365-25.616 1.9471-26.929 1.0709-0.88876 6.273-2.7287 11.56-4.0887 16.096-4.1404 14.493-15.01 14.493 98.224 0 109.32 0.4311 104.17-9.1801 109.57-2.7959 1.5714-10.124 4.1287-16.285 5.6828-14.675 3.702-53.445 4.8492-66.185 1.9583zm57.316-24.736 6.3333-1.5414v-108.78l-5.6-1.568c-8.9916-2.4875-40.723-3.409-49.001-1.423-19.252 4.6184-26.322 22.731-24.982 64 1.096 33.751 6.4135 45.185 23.641 50.833 4.6124 1.5123 41.919 0.37979 49.675-1.508zm106.68 24.656c-23.416-5.0873-37.485-19.61-43.899-45.314-3.3036-13.239-3.2865-57.228 0.027-70.667 5.9239-24.023 17.618-37.223 39.108-44.145 8.8772-2.8592 37.366-3.9432 49.564-1.8858 18.247 3.0777 34.29 13.866 41.428 27.858 6.9046 13.534 10.228 42.147 8.1126 69.855-3.0575 40.058-17.521 58.947-49.828 65.074-9.4075 1.7841-34.766 1.3428-44.513-0.77471zm42.011-24.014c12.043-3.5764 18.397-11.18 21.474-25.699 1.917-9.0442 1.9463-50.684 0.043-60.981-3.9835-21.548-15.819-29.469-42.439-28.399-21.579 0.86672-31.064 7.4138-35.745 24.672-2.6593 9.8044-3.0297 54.567-0.5456 65.94 3.0779 14.093 10.555 22.124 23.518 25.259 7.3042 1.7668 26.606 1.3129 33.695-0.79236zm-955.4 20.44c-0.98316-0.98316-1.6-5.797-1.6-12.486v-10.886l46-53.483c25.3-29.415 46-53.797 46-54.18 0-0.38378-19.985-0.69778-44.412-0.69778-34.885 0-44.933-0.381-46.841-1.7762-3.4992-2.5586-4.4731-14.409-1.5508-18.869l2.1983-3.355h61.922c71.287 0 64.683-1.468 64.683 14.379 0 8.0949-0.47281 9.856-3.8718 14.421-2.1295 2.86-23.037 27.4-46.461 54.533l-42.59 49.34 44.258 0.66667c34.791 0.52405 44.729 1.0581 46.461 2.4966 2.6688 2.2171 3.128 17.378 0.60281 19.903-2.3032 2.3032-122.5 2.3032-124.8 0zm545.27-0.15915c-1.2023-1.4486-2.0308-71.728-1.5703-133.19 0.0848-11.313 11.64-17.683 42.037-23.175 18.525-3.3467 54.312-3.4742 64.783-0.23087 9.6793 2.9981 18.557 10.811 22.698 19.976l3.1858 7.0502 0.4051 62.954c0.2805 43.583-0.042 63.788-1.0469 65.667-1.2835 2.3984-2.7526 2.7131-12.663 2.7131-10.073 0-11.421-0.30064-13.286-2.9634-1.8024-2.5733-2.0782-10.778-2.0953-62.333-0.0212-63.824 0.0339-63.292-7.0749-68.575-6.9019-5.1292-30.242-4.5672-58.572 1.4103l-10.333 2.1803v62.561c0 40.575-0.48507 63.468-1.3802 65.14-1.1953 2.2334-2.8709 2.579-12.503 2.579-7.5838 0-11.588-0.55976-12.583-1.7592z"/>
  <path id="path176" fill="#fea05f" d="m44.114 262.55c-12.576-2.47-20.839-12.25-28.44-33.66-16.904-47.63-19.779-116.62-7.0665-169.56 6.7015-27.901 15.754-47.456 24.756-53.476 6.962-4.6553 17.152-6.1771 29.936-4.4709 54.83 7.318 122.48 42.632 165.84 86.571 35.521 35.999 35.521 52.052 0 88.109-42.486 43.127-107.4 77.475-162.47 85.967-14.003 2.1593-14.186 2.1636-22.553 0.52165zm468.1-41.85c-19.197-4.3595-31.465-14.331-36.102-29.342-3.4159-11.059-3.6907-27.787-0.62607-38.106 7.0595-23.772 28.495-32.768 84.443-35.439l18.987-0.90639-0.45486-12.318c-0.54241-14.69-1.9877-16.941-12.918-20.118-11.299-3.2846-40.093-1.9239-61.366 2.8998-11.791 2.6737-17.105 3.3563-18.632 2.3932-2.8622-1.8055-5.9758-17.128-4.1671-20.508 1.4931-2.7898 9.5048-5.4729 26.558-8.894 8.4999-1.7052 18.192-2.2874 38.07-2.2867 23.73 0.000814 27.596 0.31522 35.109 2.8547 12.295 4.1562 18.228 8.782 22.539 17.571l3.68 7.498 0.44846 48.667c0.48501 52.635-0.48154 66.839-4.9781 73.154-6.6279 9.3081-23.356 13.453-57.461 14.237-18.401 0.42321-26.815 0.0793-33.126-1.3537zm57.398-24.19 9.0606-2.0608v-53.494l-19 0.92344c-23.409 1.1377-33.996 2.7207-43.588 6.5171-6.2812 2.4861-7.8701 3.8416-10.412 8.883-2.1292 4.2224-3 8.3007-3 14.051 0 15.895 7.9628 24.63 24.878 27.29 9.9594 1.5661 30.409 0.54033 42.061-2.1098zm91.48 24.37c-8.0463-2.2612-14.733-7.4163-17.906-13.805-2.3914-4.8143-2.5395-10.006-2.8803-100.98-0.19761-52.749 0.12867-96.395 0.72498-96.992 0.93298-0.93299 19.315-6.3143 21.872-6.403 0.49762-0.01726 1.8476 0.91148 3 2.0639 1.8647 1.8647 2.0952 12.33 2.0952 95.127 0 105.7-1.0472 96.753 11.54 98.554 6.0697 0.86824 6.5633 1.2421 8.1886 6.2031 2.5268 7.7128 1.6459 12.999-2.4954 14.973-5.4132 2.5808-17.245 3.1992-24.139 1.2617zm84.881-0.0877c-28.364-6.4767-40.465-22.844-39.023-52.782 1.7204-35.727 21.254-47.087 86.304-50.192l18.987-0.90639-0.45486-12.318c-0.54241-14.69-1.9877-16.941-12.918-20.118-11.299-3.2846-40.093-1.9239-61.366 2.8998-11.791 2.6737-17.105 3.3563-18.632 2.3932-2.8622-1.8055-5.9758-17.128-4.1671-20.508 1.4931-2.7898 9.5048-5.4729 26.558-8.894 8.4999-1.7052 18.192-2.2874 38.07-2.2867 23.73 0.000815 27.596 0.31522 35.109 2.8547 12.291 4.1549 18.228 8.7822 22.544 17.571l3.69 7.488 0.45448 50.225c0.48109 53.165-0.3577 65.085-5.0428 71.665-3.4577 4.8558-11.69 8.9001-23.566 11.576-12.954 2.9194-55.819 3.7737-66.538 1.3261zm56.57-24.189 9.4556-2.1506v-53.48l-19.667 0.95352c-22.11 1.072-36.112 3.3362-45.032 7.282-7.6748 3.3949-11.229 10.387-11.272 22.174-0.0575 15.816 7.9322 24.576 24.849 27.242 10.247 1.6153 29.856 0.66318 41.666-2.023zm272.47 24.125c-22.396-5.0821-35.794-18.201-42.378-41.496-3.2855-11.624-4.2538-53.454-1.5872-68.565 6.6216-37.522 23.162-51.435 62.99-52.985 15.473-0.6021 36.975 1.0018 42.656 3.1817 1.6936 0.64993 1.9688-2.7828 1.9688-24.557 0-20.568 0.365-25.616 1.9471-26.929 1.0709-0.88876 6.273-2.7287 11.56-4.0887 16.096-4.1404 14.493-15.01 14.493 98.224 0 109.32 0.4311 104.17-9.1801 109.57-2.7959 1.5714-10.124 4.1287-16.285 5.6828-14.675 3.702-53.445 4.8492-66.185 1.9583zm57.316-24.736 6.3333-1.5414v-108.78l-5.6-1.568c-8.9916-2.4875-40.723-3.409-49.001-1.423-19.252 4.6184-26.322 22.731-24.982 64 1.096 33.751 6.4135 45.185 23.641 50.833 4.6124 1.5123 41.919 0.37979 49.675-1.508zm106.68 24.656c-23.416-5.0873-37.485-19.61-43.899-45.314-3.3036-13.239-3.2865-57.228 0.027-70.667 5.9239-24.023 17.618-37.223 39.108-44.145 8.8772-2.8592 37.366-3.9432 49.564-1.8858 18.247 3.0777 34.29 13.866 41.428 27.858 6.9046 13.534 10.228 42.147 8.1126 69.855-3.0575 40.058-17.521 58.947-49.828 65.074-9.4075 1.7841-34.766 1.3428-44.513-0.77471zm42.011-24.014c12.043-3.5764 18.397-11.18 21.474-25.699 1.917-9.0442 1.9463-50.684 0.043-60.981-3.9835-21.548-15.819-29.469-42.439-28.399-21.579 0.86672-31.064 7.4138-35.745 24.672-2.6593 9.8044-3.0297 54.567-0.5456 65.94 3.0779 14.093 10.555 22.124 23.518 25.259 7.3042 1.7668 26.606 1.3129 33.695-0.79236zm-955.4 20.44c-0.98316-0.98316-1.6-5.797-1.6-12.486v-10.886l46-53.483c25.3-29.415 46-53.797 46-54.18 0-0.38378-19.985-0.69778-44.412-0.69778-34.885 0-44.933-0.381-46.841-1.7762-3.4992-2.5586-4.4731-14.409-1.5508-18.869l2.1983-3.355h61.922c71.287 0 64.683-1.468 64.683 14.379 0 8.0949-0.47281 9.856-3.8718 14.421-2.1295 2.86-23.037 27.4-46.461 54.533l-42.59 49.34 44.258 0.66667c34.791 0.52405 44.729 1.0581 46.461 2.4966 2.6688 2.2171 3.128 17.378 0.60281 19.903-2.3032 2.3032-122.5 2.3032-124.8 0zm545.27-0.15915c-1.2023-1.4486-2.0308-71.728-1.5703-133.19 0.0848-11.313 11.64-17.683 42.037-23.175 18.525-3.3467 54.312-3.4742 64.783-0.23087 9.6793 2.9981 18.557 10.811 22.698 19.976l3.1858 7.0502 0.4051 62.954c0.2805 43.583-0.042 63.788-1.0469 65.667-1.2835 2.3984-2.7526 2.7131-12.663 2.7131-10.073 0-11.421-0.30064-13.286-2.9634-1.8024-2.5733-2.0782-10.778-2.0953-62.333-0.0212-63.824 0.0339-63.292-7.0749-68.575-6.9019-5.1292-30.242-4.5672-58.572 1.4103l-10.333 2.1803v62.561c0 40.575-0.48507 63.468-1.3802 65.14-1.1953 2.2334-2.8709 2.579-12.503 2.579-7.5838 0-11.588-0.55976-12.583-1.7592z"/>
  <path id="path174" fill="#999" d="m43.386 262.07c-6.895-1.47-8.773-2.6-14.177-8.47-18.668-20.31-31.919-87.73-27.96-142.26 4.2512-58.568 19.825-102.62 38.461-108.81 21.867-7.248 80.79 10.035 126.29 37.05 24.71 14.67 42.323 28.354 62.078 48.231 14.834 14.925 18.961 19.956 23 28.035 6.5952 13.193 6.5952 19.115 0 32.308-4.0386 8.0788-8.1664 13.11-23 28.035-34.272 34.484-76.555 60.663-123.12 76.233-26.433 8.8375-48.918 12.362-61.57 9.6512zm468.82-41.369c-19.197-4.3595-31.465-14.331-36.102-29.342-3.4159-11.059-3.6907-27.787-0.62607-38.106 7.0595-23.772 28.495-32.768 84.443-35.439l18.987-0.90639-0.45486-12.318c-0.54241-14.69-1.9877-16.941-12.918-20.118-11.299-3.2846-40.093-1.9239-61.366 2.8998-11.791 2.6737-17.105 3.3563-18.632 2.3932-2.8622-1.8055-5.9758-17.128-4.1671-20.508 1.4931-2.7898 9.5048-5.4729 26.558-8.894 8.4999-1.7052 18.192-2.2874 38.07-2.2867 23.73 0.000814 27.596 0.31522 35.109 2.8547 12.295 4.1562 18.228 8.782 22.539 17.571l3.68 7.498 0.44846 48.667c0.48501 52.635-0.48154 66.839-4.9781 73.154-6.6279 9.3081-23.356 13.453-57.461 14.237-18.401 0.42321-26.815 0.0793-33.126-1.3537zm57.398-24.19 9.0606-2.0608v-53.494l-19 0.92344c-23.409 1.1377-33.996 2.7207-43.588 6.5171-6.2812 2.4861-7.8701 3.8416-10.412 8.883-2.1292 4.2224-3 8.3007-3 14.051 0 15.895 7.9628 24.63 24.878 27.29 9.9594 1.5661 30.409 0.54033 42.061-2.1098zm91.48 24.37c-8.0463-2.2612-14.733-7.4163-17.906-13.805-2.3914-4.8143-2.5395-10.006-2.8803-100.98-0.19761-52.749 0.12867-96.395 0.72498-96.992 0.93298-0.93299 19.315-6.3143 21.872-6.403 0.49762-0.01726 1.8476 0.91148 3 2.0639 1.8647 1.8647 2.0952 12.33 2.0952 95.127 0 105.7-1.0472 96.753 11.54 98.554 6.0697 0.86824 6.5633 1.2421 8.1886 6.2031 2.5268 7.7128 1.6459 12.999-2.4954 14.973-5.4132 2.5808-17.245 3.1992-24.139 1.2617zm84.881-0.0877c-28.364-6.4767-40.465-22.844-39.023-52.782 1.7204-35.727 21.254-47.087 86.304-50.192l18.987-0.90639-0.45486-12.318c-0.54241-14.69-1.9877-16.941-12.918-20.118-11.299-3.2846-40.093-1.9239-61.366 2.8998-11.791 2.6737-17.105 3.3563-18.632 2.3932-2.8622-1.8055-5.9758-17.128-4.1671-20.508 1.4931-2.7898 9.5048-5.4729 26.558-8.894 8.4999-1.7052 18.192-2.2874 38.07-2.2867 23.73 0.000815 27.596 0.31522 35.109 2.8547 12.291 4.1549 18.228 8.7822 22.544 17.571l3.69 7.488 0.45448 50.225c0.48109 53.165-0.3577 65.085-5.0428 71.665-3.4577 4.8558-11.69 8.9001-23.566 11.576-12.954 2.9194-55.819 3.7737-66.538 1.3261zm56.57-24.189 9.4556-2.1506v-53.48l-19.667 0.95352c-22.11 1.072-36.112 3.3362-45.032 7.282-7.6748 3.3949-11.229 10.387-11.272 22.174-0.0575 15.816 7.9322 24.576 24.849 27.242 10.247 1.6153 29.856 0.66318 41.666-2.023zm272.47 24.125c-22.396-5.0821-35.794-18.201-42.378-41.496-3.2855-11.624-4.2538-53.454-1.5872-68.565 6.6216-37.522 23.162-51.435 62.99-52.985 15.473-0.6021 36.975 1.0018 42.656 3.1817 1.6936 0.64993 1.9688-2.7828 1.9688-24.557 0-20.568 0.365-25.616 1.9471-26.929 1.0709-0.88876 6.273-2.7287 11.56-4.0887 16.096-4.1404 14.493-15.01 14.493 98.224 0 109.32 0.4311 104.17-9.1801 109.57-2.7959 1.5714-10.124 4.1287-16.285 5.6828-14.675 3.702-53.445 4.8492-66.185 1.9583zm57.316-24.736 6.3333-1.5414v-108.78l-5.6-1.568c-8.9916-2.4875-40.723-3.409-49.001-1.423-19.252 4.6184-26.322 22.731-24.982 64 1.096 33.751 6.4135 45.185 23.641 50.833 4.6124 1.5123 41.919 0.37979 49.675-1.508zm106.68 24.656c-23.416-5.0873-37.485-19.61-43.899-45.314-3.3036-13.239-3.2865-57.228 0.027-70.667 5.9239-24.023 17.618-37.223 39.108-44.145 8.8772-2.8592 37.366-3.9432 49.564-1.8858 18.247 3.0777 34.29 13.866 41.428 27.858 6.9046 13.534 10.228 42.147 8.1126 69.855-3.0575 40.058-17.521 58.947-49.828 65.074-9.4075 1.7841-34.766 1.3428-44.513-0.77471zm42.011-24.014c12.043-3.5764 18.397-11.18 21.474-25.699 1.917-9.0442 1.9463-50.684 0.043-60.981-3.9835-21.548-15.819-29.469-42.439-28.399-21.579 0.86672-31.064 7.4138-35.745 24.672-2.6593 9.8044-3.0297 54.567-0.5456 65.94 3.0779 14.093 10.555 22.124 23.518 25.259 7.3042 1.7668 26.606 1.3129 33.695-0.79236zm-955.4 20.44c-0.98316-0.98316-1.6-5.797-1.6-12.486v-10.886l46-53.483c25.3-29.415 46-53.797 46-54.18 0-0.38378-19.985-0.69778-44.412-0.69778-34.885 0-44.933-0.381-46.841-1.7762-3.4992-2.5586-4.4731-14.409-1.5508-18.869l2.1983-3.355h61.922c71.287 0 64.683-1.468 64.683 14.379 0 8.0949-0.47281 9.856-3.8718 14.421-2.1295 2.86-23.037 27.4-46.461 54.533l-42.59 49.34 44.258 0.66667c34.791 0.52405 44.729 1.0581 46.461 2.4966 2.6688 2.2171 3.128 17.378 0.60281 19.903-2.3032 2.3032-122.5 2.3032-124.8 0zm545.27-0.15915c-1.2023-1.4486-2.0308-71.728-1.5703-133.19 0.0848-11.313 11.64-17.683 42.037-23.175 18.525-3.3467 54.312-3.4742 64.783-0.23087 9.6793 2.9981 18.557 10.811 22.698 19.976l3.1858 7.0502 0.4051 62.954c0.2805 43.583-0.042 63.788-1.0469 65.667-1.2835 2.3984-2.7526 2.7131-12.663 2.7131-10.073 0-11.421-0.30064-13.286-2.9634-1.8024-2.5733-2.0782-10.778-2.0953-62.333-0.0212-63.824 0.0339-63.292-7.0749-68.575-6.9019-5.1292-30.242-4.5672-58.572 1.4103l-10.333 2.1803v62.561c0 40.575-0.48507 63.468-1.3802 65.14-1.1953 2.2334-2.8709 2.579-12.503 2.579-7.5838 0-11.588-0.55976-12.583-1.7592z"/>
  <path id="path172" fill="#fe8a3a" d="m43.386 262.07c-6.895-1.47-8.773-2.6-14.177-8.47-18.668-20.31-31.919-87.73-27.96-142.26 4.2512-58.568 19.825-102.62 38.461-108.81 21.867-7.248 80.79 10.035 126.29 37.05 24.71 14.67 42.323 28.354 62.078 48.231 14.834 14.925 18.961 19.956 23 28.035 6.5952 13.193 6.5952 19.115 0 32.308-4.0386 8.0788-8.1664 13.11-23 28.035-34.272 34.484-76.555 60.663-123.12 76.233-26.433 8.8375-48.918 12.362-61.57 9.6512zm468.96-41.346c-10.294-2.3346-23.346-9.1562-27.965-14.616-1.9129-2.2611-5.032-7.411-6.9315-11.444-3.1239-6.6334-3.4508-8.8605-3.4244-23.333 0.0356-19.562 2.6121-26.733 12.941-36.02 11.1-9.9803 35.002-15.674 73.557-17.523l18.139-0.86993v-11.896c0-11.293-0.19208-12.088-3.7893-15.685-5.7725-5.7725-12.837-7.0572-34.877-6.3423-14.571 0.47264-23.338 1.5368-35.591 4.3201-8.942 2.0311-17.161 3.3467-18.263 2.9235-1.8589-0.71332-3.38-4.914-5.4073-14.933-1.2164-6.0116 1.49-8.4803 12.452-11.358 18.96-4.9778 38.052-6.9864 59.476-6.2572 24.369 0.82932 34.459 3.5215 43.706 11.662 10.788 9.4962 10.96 10.658 10.96 73.98v54.68l-3.3333 6.6243c-3.9406 7.8312-9.8295 11.251-25.333 14.711-13.929 3.1089-54.949 3.9696-66.316 1.3916zm46.086-22.078c5.3734-0.6977 12.123-1.9023 15-2.6769l5.2301-1.4083v-53.23l-8.3333 0.0211c-13.638 0.0345-39.453 2.5066-47.141 4.5143-15.436 4.031-20.525 10.187-20.525 24.828 0 20.265 11.111 28.625 38.667 29.096 4.0333 0.0688 11.73-0.44568 17.103-1.1434zm104.48 22.631c-8.3334-1.696-14.425-5.9762-18.591-13.063l-3.66-6.21-0.38-94c-0.2095-51.7-0.0668-95.275 0.31703-96.834 0.54869-2.2279 2.6259-3.3094 9.7142-5.058 4.959-1.2233 10.003-2.5185 11.209-2.8781 1.206-0.35966 3.156 0.3093 4.3333 1.4866 1.9242 1.9242 2.1405 11.537 2.1405 95.124 0 72.283 0.37105 93.491 1.6667 95.262 1.0281 1.4055 4.3702 2.5986 8.7227 3.1139 8.2766 0.9799 9.5629 2.6184 9.986 12.721 0.26153 6.2447-0.0492 7.1174-3.042 8.5428-4.793 2.283-15.734 3.1615-22.421 1.8004zm82.771-0.55317c-10.294-2.3346-23.346-9.1562-27.965-14.616-1.9129-2.2611-5.032-7.411-6.9315-11.444-3.1212-6.6276-3.4518-8.8731-3.4352-23.333 0.0224-19.545 2.5994-26.712 12.952-36.02 11.106-9.985 34.477-15.553 73.363-17.478l18.333-0.90761v-11.9c0-11.297-0.19189-12.092-3.7893-15.689-5.8606-5.8606-12.788-7.0816-35.544-6.265-14.825 0.53192-23.789 1.6072-34.642 4.1552-16.478 3.8686-18.799 4.0866-20.155 1.8927-1.9476-3.1512-4.3024-17.734-3.1972-19.799 1.3462-2.5153 10.951-5.6423 27.328-8.8969 8.9546-1.7796 18.429-2.39 37.333-2.4056 22.731-0.01865 26.333 0.2933 35.065 3.0372 7.6198 2.3945 11.137 4.4196 16.209 9.3333 10.028 9.7149 10.06 9.9418 10.06 72.942v54.68l-3.3333 6.6243c-3.9406 7.8312-9.8295 11.251-25.333 14.711-13.929 3.1089-54.949 3.9696-66.316 1.3916zm46.086-22.078c5.3734-0.6977 12.123-1.9023 15-2.6769l5.2301-1.4083v-53.23l-8.3333 0.0211c-13.638 0.0345-39.453 2.5066-47.141 4.5143-15.436 4.031-20.525 10.187-20.525 24.828 0 20.265 11.111 28.625 38.667 29.096 4.0333 0.0688 11.73-0.44568 17.103-1.1434zm284.22 22.02c-33.873-7.6579-46.667-29.588-46.667-79.994 0-41.723 8.4901-63.771 28.852-74.926 4.5022-2.4665 12.302-5.3567 17.333-6.4227 11.705-2.48 37.991-2.4618 51.814 0.03589 5.8666 1.06 10.817 1.9391 11 1.9535 0.1833 0.01443 0.3333-11.3 0.3333-25.144 0-20.443 0.3657-25.474 1.9471-26.786 1.0709-0.88876 6.273-2.7287 11.56-4.0887 16.18-4.162 14.598-15.322 14.184 100.02l-0.3581 99.853-3.8233 3.9902c-4.5472 4.7457-7.2603 5.9226-22.177 9.6195-15.079 3.7373-51.123 4.8026-64 1.8915zm50.088-23.401c4.3513-0.77423 8.9615-1.7146 10.245-2.0898 2.173-0.63531 2.3333-4.4256 2.3333-55.169 0-50.744-0.1603-54.534-2.3333-55.169-13.319-3.894-43.644-4.7465-54.47-1.5313-16.97 5.0395-23.196 20.347-23.196 57.026 0 35.244 6.148 51.092 22 56.713 5.2598 1.8648 35.36 2.0113 45.422 0.22104zm111.5 22.708c-23.947-6.2735-36.155-19.112-42.439-44.633-3.1839-12.93-3.2896-55.777-0.1715-69.543 7.9105-34.924 30.383-49.716 73.023-48.066 44.047 1.7049 61.825 19.64 65.359 65.938 1.4416 18.888-0.1644 44.826-3.4846 56.28-6.616 22.825-20.57 35.764-43.897 40.705-13.264 2.8096-36.301 2.4851-48.389-0.68159zm48.691-25.02c7.6136-3.9956 11.938-8.9695 14.72-16.932 3.4701-9.9309 3.4492-66.158-0.028-76.116-4.6669-13.364-14.463-19.376-33.045-20.279-23.027-1.1187-34.283 3.3655-40.538 16.15-7.5921 15.518-7.7874 67.711-0.3144 84.035 5.9551 13.008 15.245 17.002 38.261 16.453 12.774-0.30501 16.27-0.8576 20.945-3.3113zm-960.68 22.12c-0.98-0.98-1.6-5.768-1.6-12.356v-10.756l46.71-54.311 46.71-54.311h-89.54l-3.2727-3.2727c-3.8908-3.8908-4.5072-13.038-1.1971-17.764l2.0756-2.9633h61.877c71.257 0 64.638-1.4807 64.638 14.459 0 11.196 4.9218 4.5201-51.76 70.207l-41.42 48 44.387 0.66667c34.9 0.52417 44.858 1.0578 46.59 2.4966 2.6688 2.2171 3.128 17.378 0.60281 19.903-2.3032 2.3032-122.5 2.3032-124.8 0zm545.25-0.17888c-2.2813-2.7488-2.182-134.47 0.10493-139.23 2.2055-4.5857 9.0621-9.1641 17.459-11.658 30.598-9.0866 72.314-11.276 89.427-4.6944 10.485 4.0326 17.329 10.457 21.092 19.797 2.9989 7.4435 3.0537 8.5478 3.4628 69.849 0.2925 43.824-0.023 63.105-1.0642 65.051-1.3496 2.5217-2.4971 2.7313-13.037 2.381-10.81-0.35935-11.666-0.59952-13.24-3.7175-1.2772-2.5304-1.6872-17.416-1.7021-61.798-0.0223-66.128 0.0475-65.618-9.4827-69.431-9.1709-3.6695-39.163-2.0133-60.405 3.3356l-6.1318 1.544v62.596c0 40.599-0.48503 63.502-1.3802 65.175-1.1953 2.2334-2.8709 2.579-12.503 2.579-7.6462 0-11.585-0.55607-12.6-1.7789z"/>
  <path id="path170" fill="#7c7c7c" d="m37.945 260.16c-10.21-4.64-17.598-16.91-25.111-41.71-8.7897-29.02-10.788-45.03-10.788-86.45 0-32.539 0.34946-38.618 3.1047-54 5.4603-30.485 14.636-56.537 23.713-67.324 8.55-10.162 23.917-11.936 50.92-5.8801 54.136 12.141 114.03 46.353 152.46 87.092 31.202 33.076 31.198 47.09-0.0228 80.231-38.331 40.688-98.288 74.943-152.43 87.086-18.795 4.2155-33.904 4.5608-41.839 0.95632zm474.4-39.43c-10.294-2.3346-23.346-9.1562-27.965-14.616-1.9129-2.2611-5.032-7.411-6.9315-11.444-3.1239-6.6334-3.4508-8.8605-3.4244-23.333 0.0356-19.562 2.6121-26.733 12.941-36.02 11.1-9.9803 35.002-15.674 73.557-17.523l18.139-0.86993v-11.896c0-11.293-0.19208-12.088-3.7893-15.685-5.7725-5.7725-12.837-7.0572-34.877-6.3423-14.571 0.47264-23.338 1.5368-35.591 4.3201-8.942 2.0311-17.161 3.3467-18.263 2.9235-1.8589-0.71332-3.38-4.914-5.4073-14.933-1.2164-6.0116 1.49-8.4803 12.452-11.358 18.96-4.9778 38.052-6.9864 59.476-6.2572 24.369 0.82932 34.459 3.5215 43.706 11.662 10.788 9.4962 10.96 10.658 10.96 73.98v54.67l-3.3333 6.6243c-3.9406 7.8312-9.8295 11.251-25.333 14.711-13.929 3.1089-54.949 3.9696-66.316 1.3916zm46.086-22.078c5.3734-0.6977 12.123-1.9023 15-2.6769l5.2301-1.4083v-53.23l-8.3333 0.0211c-13.638 0.0345-39.453 2.5066-47.141 4.5143-15.436 4.031-20.525 10.187-20.525 24.828 0 20.265 11.111 28.625 38.667 29.096 4.0333 0.0688 11.73-0.44568 17.103-1.1434zm104.48 22.631c-8.3334-1.696-14.425-5.9762-18.591-13.063l-3.66-6.22-0.38-94c-0.2095-51.7-0.0668-95.275 0.31703-96.834 0.54869-2.2279 2.6259-3.3094 9.7142-5.058 4.959-1.2233 10.003-2.5185 11.209-2.8781 1.206-0.35966 3.156 0.3093 4.3333 1.4866 1.9242 1.9242 2.1405 11.537 2.1405 95.124 0 72.283 0.37105 93.491 1.6667 95.262 1.0281 1.4055 4.3702 2.5986 8.7227 3.1139 8.2766 0.9799 9.5629 2.6184 9.986 12.721 0.26153 6.2447-0.0492 7.1174-3.042 8.5428-4.793 2.283-15.734 3.1615-22.421 1.8004zm82.771-0.55317c-10.294-2.3346-23.346-9.1562-27.965-14.616-1.9129-2.2611-5.032-7.411-6.9315-11.444-3.1212-6.6276-3.4518-8.8731-3.4352-23.333 0.0224-19.545 2.5994-26.712 12.952-36.02 11.106-9.985 34.477-15.553 73.363-17.478l18.333-0.90761v-11.9c0-11.297-0.19189-12.092-3.7893-15.689-5.8606-5.8606-12.788-7.0816-35.544-6.265-14.825 0.53192-23.789 1.6072-34.642 4.1552-16.478 3.8686-18.799 4.0866-20.155 1.8927-1.9476-3.1512-4.3024-17.734-3.1972-19.799 1.3462-2.5153 10.951-5.6423 27.328-8.8969 8.9546-1.7796 18.429-2.39 37.333-2.4056 22.731-0.01865 26.333 0.2933 35.065 3.0372 7.6198 2.3945 11.137 4.4196 16.209 9.3333 10.028 9.7149 10.06 9.9418 10.06 72.942v54.67l-3.3333 6.6243c-3.9406 7.8312-9.8295 11.251-25.333 14.711-13.929 3.1089-54.949 3.9696-66.316 1.3916zm46.086-22.078c5.3734-0.6977 12.123-1.9023 15-2.6769l5.2301-1.4083v-53.23l-8.3333 0.0211c-13.638 0.0345-39.453 2.5066-47.141 4.5143-15.436 4.031-20.525 10.187-20.525 24.828 0 20.265 11.111 28.625 38.667 29.096 4.0333 0.0688 11.73-0.44568 17.103-1.1434zm284.22 22.01c-33.873-7.6579-46.667-29.588-46.667-79.994 0-41.723 8.4901-63.771 28.852-74.926 4.5022-2.4665 12.302-5.3567 17.333-6.4227 11.705-2.48 37.991-2.4618 51.814 0.03589 5.8666 1.06 10.817 1.9391 11 1.9535 0.1833 0.01443 0.3333-11.3 0.3333-25.144 0-20.443 0.3657-25.474 1.9471-26.786 1.0709-0.88876 6.273-2.7287 11.56-4.0887 16.18-4.162 14.598-15.322 14.184 100.02l-0.3581 99.853-3.8233 3.9902c-4.5472 4.7457-7.2603 5.9226-22.177 9.6195-15.079 3.7373-51.123 4.8026-64 1.8915zm50.088-23.401c4.3513-0.77423 8.9615-1.7146 10.245-2.0898 2.173-0.63531 2.3333-4.4256 2.3333-55.169 0-50.744-0.1603-54.534-2.3333-55.169-13.319-3.894-43.644-4.7465-54.47-1.5313-16.97 5.0395-23.196 20.347-23.196 57.026 0 35.244 6.148 51.092 22 56.713 5.2598 1.8648 35.36 2.0113 45.422 0.22104zm111.5 22.708c-23.947-6.2735-36.155-19.112-42.439-44.633-3.1839-12.93-3.2896-55.777-0.1715-69.543 7.9105-34.924 30.383-49.716 73.023-48.066 44.047 1.7049 61.825 19.64 65.359 65.938 1.4416 18.888-0.1644 44.826-3.4846 56.28-6.616 22.825-20.57 35.764-43.897 40.705-13.264 2.8096-36.301 2.4851-48.389-0.68159zm48.691-25.02c7.6136-3.9956 11.938-8.9695 14.72-16.932 3.4701-9.9309 3.4492-66.158-0.028-76.116-4.6669-13.364-14.463-19.376-33.045-20.279-23.027-1.1187-34.283 3.3655-40.538 16.15-7.5921 15.518-7.7874 67.711-0.3144 84.035 5.9551 13.008 15.245 17.002 38.261 16.453 12.774-0.30501 16.27-0.8576 20.945-3.3113zm-960.68 22.12c-0.98-0.98-1.6-5.768-1.6-12.356v-10.756l46.71-54.311 46.71-54.311h-89.54l-3.2727-3.2727c-3.8908-3.8908-4.5072-13.038-1.1971-17.764l2.0756-2.9633h61.877c71.257 0 64.638-1.4807 64.638 14.459 0 11.196 4.9218 4.5201-51.76 70.207l-41.42 48 44.387 0.66667c34.9 0.52417 44.858 1.0578 46.59 2.4966 2.6688 2.2171 3.128 17.378 0.60281 19.903-2.3032 2.3032-122.5 2.3032-124.8 0zm545.25-0.17888c-2.2813-2.7488-2.182-134.47 0.10493-139.23 2.2055-4.5857 9.0621-9.1641 17.459-11.658 30.598-9.0866 72.314-11.276 89.427-4.6944 10.485 4.0326 17.329 10.457 21.092 19.797 2.9989 7.4435 3.0537 8.5478 3.4628 69.849 0.2925 43.824-0.023 63.105-1.0642 65.051-1.3496 2.5217-2.4971 2.7313-13.037 2.381-10.81-0.35935-11.666-0.59952-13.24-3.7175-1.2772-2.5304-1.6872-17.416-1.7021-61.798-0.0223-66.128 0.0475-65.618-9.4827-69.431-9.1709-3.6695-39.163-2.0133-60.405 3.3356l-6.1318 1.544v62.596c0 40.599-0.48503 63.502-1.3802 65.175-1.1953 2.2334-2.8709 2.579-12.503 2.579-7.6462 0-11.585-0.55607-12.6-1.7789z"/>
  <path id="path168" fill="#fe6800" d="m37.945 260.16c-10.21-4.64-17.598-16.91-25.111-41.71-8.7897-29.02-10.788-45.03-10.788-86.45 0-32.539 0.34946-38.618 3.1047-54 5.4603-30.485 14.636-56.537 23.713-67.324 8.55-10.162 23.917-11.936 50.92-5.8801 54.136 12.141 114.03 46.353 152.46 87.092 31.202 33.076 31.198 47.09-0.0228 80.231-38.331 40.688-98.288 74.943-152.43 87.086-18.795 4.2155-33.904 4.5608-41.839 0.95632zm478.52-38.86c-26.968-4.8516-40.776-18.941-42.67-43.54-1.4222-18.472 2.8545-32.936 12.423-42.013 9.4156-8.9323 30.888-14.59 64.518-17.001 10.597-0.75964 21.217-1.3871 23.601-1.3944l4.3333-0.0132v-11.898c0-10.753-0.32137-12.28-3.3416-15.869-7.1257-8.4684-34.737-9.9573-65.325-3.5226-25.727 5.412-24.21 5.3002-26.02 1.9187-0.87474-1.6345-1.6781-6.9086-1.7852-11.72l-0.19479-8.7484 7.7657-2.3899c16.072-4.9462 31.597-6.9033 55.568-7.0051 15.787-0.06705 25.705 0.49896 30.667 1.7501 16.296 4.1093 26.36 12.228 29.216 23.569 0.92929 3.6906 1.4511 25.536 1.4511 60.751 0 52.885-0.1056 55.207-2.7603 60.691-3.3602 6.9412-11.631 11.462-26.606 14.543-11.849 2.4377-51.032 3.6565-60.838 1.8923zm42.871-22.51c4.4-0.63892 10.55-1.85 13.667-2.6912l5.6667-1.5296v-53.648l-21 0.89349c-31.087 1.3227-45.557 5.0503-51.581 13.288-2.3119 3.1616-2.7527 5.7404-2.7527 16.104 0 11.544 0.24777 12.664 3.8424 17.377 5.9255 7.7687 15.829 11.03 34.158 11.249 5.5 0.0656 13.6-0.40348 18-1.0424zm191.02 22.593c-22.297-4.0658-36.394-14.74-41.333-31.299-2.5392-8.5132-2.127-30.811 0.72052-38.973 5.3511-15.337 17.777-23.757 41.986-28.45 11.475-2.2244 43.585-5.2722 55.942-5.3098l4.3333-0.0132v-11.898c0-10.753-0.32137-12.28-3.3416-15.869-7.1257-8.4684-34.737-9.9573-65.325-3.5226-25.605 5.3864-24.223 5.2754-25.932 2.0826-0.82653-1.5444-1.8577-6.6084-2.2914-11.253l-0.78864-8.4454 5.2832-2.1139c20.463-8.1875 71.44-11.458 91.729-5.8851 14.703 4.0386 23.993 11.613 27.145 22.134 1.0351 3.4548 1.5219 22.915 1.5219 60.837 0 53.663-0.10373 55.972-2.7603 61.46-3.3602 6.9412-11.631 11.462-26.606 14.543-11.572 2.3808-50.977 3.6717-60.283 1.9749zm43.142-22.621c4.1211-0.67508 9.9711-1.8947 13-2.7103l5.5071-1.4829v-53.648l-21 0.89349c-31.089 1.3228-45.349 5.0193-51.585 13.372-2.0758 2.7803-2.8503 6.1727-3.2081 14.052-0.82856 18.245 6.2818 26.691 25.127 29.846 6.4319 1.0767 24.741 0.89349 32.16-0.32175zm284.08 21.992c-33.492-6.3811-46.313-26.065-47.82-73.416-2.0222-63.559 14.792-87.257 63.578-89.611 13.493-0.651 32.577 0.77582 42.333 3.1651l3 0.73468v-25.317c0-18.628 0.4402-25.678 1.6667-26.692 2-1.7441 16.9-5.616 21.4-5.616 2.4699 0 3.6575 0.85152 4.1838 3 0.4042 1.65 0.5656 46.606 0.3587 99.903-0.3708 95.508-0.4158 96.957-3.1289 100.67-3.7032 5.0634-9.881 7.9335-24.048 11.172-15.662 3.5805-47.863 4.6296-61.624 2.0077zm39.793-22.144c6.2141-0.76714 13.555-1.9921 16.313-2.722l5.0148-1.3272-0.3481-54.89-0.3481-54.89-4.6666-1.0013c-13.226-2.8378-33.142-4.0093-42.768-2.5157-24.496 3.8007-32.119 17.554-32.191 58.075-0.058 32.776 5.2978 49.574 17.896 56.129 7.8559 4.0874 23.659 5.296 41.097 3.1432zm125.7 22.593c-15.154-2.5288-29.355-10.405-36.628-20.315-10.097-13.758-13.448-28.923-13.452-60.884-0.01-34.494 4.9816-52.708 17.993-65.719 14.442-14.442 44.622-20.55 73.877-14.953 27.238 5.2115 41.663 20.476 46.682 49.399 2.9432 16.96 1.8729 58.871-1.8243 71.436-6.785 23.058-21.191 35.98-45.245 40.582-10.891 2.0837-30.353 2.2965-41.402 0.45267zm36.9-24.05c12.638-2.8528 19.762-10.824 22.48-25.153 3.7842-19.95 2.8246-57.626-1.7999-70.667-1.1702-3.3-4.3492-8.276-7.0643-11.058-6.9852-7.1568-15.424-9.3578-33.504-8.739-29.736 1.0178-36.902 10.441-38.375 50.463-1.4719 39.978 3.5828 57.206 18.591 63.368 10.32 4.237 25.736 4.9306 39.672 1.7848zm-622.54 22.458c-2.4978-0.79738-6.5232-3.4315-8.9453-5.8536-8.5507-8.5506-8.5132-8.0651-8.5132-110.5 0-72.208 0.36225-92.552 1.6667-93.597 2.21-1.7751 15.9-5.66 19.94-5.66 1.7571 0 3.9148 0.72 4.7948 1.6 1.2138 1.2138 1.6 24.003 1.6 94.412 0 73.994 0.35102 93.292 1.7313 95.18 1.1052 1.5115 4.3599 2.6886 9 3.2548l7.2687 0.88708 1.68 6.67c2.1024 8.3118 1.3358 11.773-3.0504 13.771-4.2031 1.9151-20.987 1.8162-27.177-0.1601zm-331.86-2.5446c-2.5975-2.5975-2.0536-21.038 0.74212-25.163 1.2785-1.8863 22.125-26.403 46.325-54.481s44.2-51.585 44.444-52.237c0.25405-0.6778-19.195-1.1858-45.4-1.1858-33.879 0-46.262-0.4176-47.444-1.6-2.0885-2.0885-2.0885-17.378 0-19.467 1.1978-1.1978 16.927-1.6 62.571-1.6 53.651 0 61.223 0.25157 63.067 2.0952 1.5266 1.5266 2.0952 4.7684 2.0952 11.945v9.8498l-7.6667 9.1411c-4.2167 5.0276-25.067 29.367-46.333 54.088-21.267 24.721-38.867 45.532-39.111 46.247-0.28313 0.82862 15.954 1.3008 44.733 1.3008 33.36 0 45.596 0.41852 46.778 1.6 0.89472 0.89472 1.6 5.1852 1.6 9.7333 0 4.5482-0.70528 8.8386-1.6 9.7333-2.3032 2.3032-122.5 2.3032-124.8 0zm545.19-0.24579c-1.1207-1.3504-1.4329-20.346-1.1633-70.777l0.36861-68.931 4.2654-3.8104c9.3372-8.3412 42.404-15.183 73.735-15.257 14.788-0.03484 21.115 0.50572 26.911 2.2993 15.655 4.8439 24.291 15.447 26.491 32.525 0.6471 5.0216 1.1962 34.047 1.2202 64.5 0.038 48.004-0.2325 55.764-2.032 58.333-1.844 2.6327-3.2391 2.9634-12.503 2.9634-6.9071 0-10.911-0.58278-11.86-1.7261-0.96148-1.1585-1.5632-21.655-1.8299-62.333-0.44267-67.51-0.3377-66.727-9.5402-71.094-8.3728-3.9732-34.398-2.791-58.487 2.6568l-8.9629 2.0269-0.37047 63.951c-0.31932 55.12-0.64667 64.125-2.3705 65.214-3.2358 2.0444-22.081 1.6171-23.872-0.54131z"/>
  <path id="path166" fill="#585858" d="m516.46 221.3c-26.968-4.8516-40.776-18.941-42.67-43.54-1.4222-18.472 2.8545-32.936 12.423-42.013 9.4156-8.9323 30.888-14.59 64.518-17.001 10.597-0.75964 21.217-1.3871 23.601-1.3944l4.3333-0.0132v-11.898c0-10.753-0.32137-12.28-3.3416-15.869-7.1257-8.4684-34.737-9.9573-65.325-3.5226-25.727 5.412-24.21 5.3002-26.02 1.9187-0.87474-1.6345-1.6781-6.9086-1.7852-11.72l-0.19479-8.7484 7.7657-2.3899c16.072-4.9462 31.597-6.9033 55.568-7.0051 15.787-0.06705 25.705 0.49896 30.667 1.7501 16.296 4.1093 26.36 12.228 29.216 23.569 0.92929 3.6906 1.4511 25.536 1.4511 60.751 0 52.885-0.1056 55.207-2.7603 60.691-3.3602 6.9412-11.631 11.462-26.606 14.543-11.849 2.4377-51.032 3.6565-60.838 1.8923zm42.871-22.51c4.4-0.63892 10.55-1.85 13.667-2.6912l5.6667-1.5296v-53.648l-21 0.89349c-31.087 1.3227-45.557 5.0503-51.581 13.288-2.3119 3.1616-2.7527 5.7404-2.7527 16.104 0 11.544 0.24777 12.664 3.8424 17.377 5.9255 7.7687 15.829 11.03 34.158 11.249 5.5 0.0656 13.6-0.40348 18-1.0424zm191.02 22.593c-22.297-4.0658-36.394-14.74-41.333-31.299-2.5392-8.5132-2.127-30.811 0.72052-38.973 5.3511-15.337 17.777-23.757 41.986-28.45 11.475-2.2244 43.585-5.2722 55.942-5.3098l4.3333-0.0132v-11.898c0-10.753-0.32137-12.28-3.3416-15.869-7.1257-8.4684-34.737-9.9573-65.325-3.5226-25.605 5.3864-24.223 5.2754-25.932 2.0826-0.82653-1.5444-1.8577-6.6084-2.2914-11.253l-0.78864-8.4454 5.2832-2.1139c20.463-8.1875 71.44-11.458 91.729-5.8851 14.703 4.0386 23.993 11.613 27.145 22.134 1.0351 3.4548 1.5219 22.915 1.5219 60.837 0 53.663-0.10373 55.972-2.7603 61.46-3.3602 6.9412-11.631 11.462-26.606 14.543-11.572 2.3808-50.977 3.6717-60.283 1.9749zm43.142-22.621c4.1211-0.67508 9.9711-1.8947 13-2.7103l5.5071-1.4829v-53.648l-21 0.89349c-31.089 1.3228-45.349 5.0193-51.585 13.372-2.0758 2.7803-2.8503 6.1727-3.2081 14.052-0.82856 18.245 6.2818 26.691 25.127 29.846 6.4319 1.0767 24.741 0.89349 32.16-0.32175zm284.08 21.992c-33.492-6.3811-46.313-26.065-47.82-73.416-2.0222-63.559 14.792-87.257 63.578-89.611 13.493-0.651 32.577 0.77582 42.333 3.1651l3 0.73468v-25.317c0-18.628 0.4402-25.678 1.6667-26.692 2-1.7441 16.9-5.616 21.4-5.616 2.4699 0 3.6575 0.85152 4.1838 3 0.4042 1.65 0.5656 46.606 0.3587 99.903-0.3708 95.508-0.4158 96.957-3.1289 100.67-3.7032 5.0634-9.881 7.9335-24.048 11.172-15.662 3.5805-47.863 4.6296-61.624 2.0077zm39.793-22.144c6.2141-0.76714 13.555-1.9921 16.313-2.722l5.0148-1.3272-0.3481-54.89-0.3481-54.89-4.6666-1.0013c-13.226-2.8378-33.142-4.0093-42.768-2.5157-24.496 3.8007-32.119 17.554-32.191 58.075-0.058 32.776 5.2978 49.574 17.896 56.129 7.8559 4.0874 23.659 5.296 41.097 3.1432zm125.7 22.593c-15.154-2.5288-29.355-10.405-36.628-20.315-10.097-13.758-13.448-28.923-13.452-60.884-0.01-34.494 4.9816-52.708 17.993-65.719 14.442-14.442 44.622-20.55 73.877-14.953 27.238 5.2115 41.663 20.476 46.682 49.399 2.9432 16.96 1.8729 58.871-1.8243 71.436-6.785 23.058-21.191 35.98-45.245 40.582-10.891 2.0837-30.353 2.2965-41.402 0.45267zm36.9-24.05c12.638-2.8528 19.762-10.824 22.48-25.153 3.7842-19.95 2.8246-57.626-1.7999-70.667-1.1702-3.3-4.3492-8.276-7.0643-11.058-6.9852-7.1568-15.424-9.3578-33.504-8.739-29.736 1.0178-36.902 10.441-38.375 50.463-1.4719 39.978 3.5828 57.206 18.591 63.368 10.32 4.237 25.736 4.9306 39.672 1.7848zm-622.54 22.458c-2.4978-0.79738-6.5232-3.4315-8.9453-5.8536-8.5507-8.5506-8.5132-8.0651-8.5132-110.5 0-72.208 0.36225-92.552 1.6667-93.597 2.21-1.7751 15.9-5.66 19.94-5.66 1.7571 0 3.9148 0.72 4.7948 1.6 1.2138 1.2138 1.6 24.003 1.6 94.412 0 73.994 0.35102 93.292 1.7313 95.18 1.1052 1.5115 4.3599 2.6886 9 3.2548l7.2687 0.88708 1.68 6.67c2.1024 8.3118 1.3358 11.773-3.0504 13.771-4.2031 1.9151-20.987 1.8162-27.177-0.1601zm-331.86-2.5446c-2.5975-2.5975-2.0536-21.038 0.74212-25.163 1.2785-1.8863 22.125-26.403 46.325-54.481s44.2-51.585 44.444-52.237c0.25405-0.6778-19.195-1.1858-45.4-1.1858-33.879 0-46.262-0.4176-47.444-1.6-2.0885-2.0885-2.0885-17.378 0-19.467 1.1978-1.1978 16.927-1.6 62.571-1.6 53.651 0 61.223 0.25157 63.067 2.0952 1.5266 1.5266 2.0952 4.7684 2.0952 11.945v9.8498l-7.6667 9.1411c-4.2167 5.0276-25.067 29.367-46.333 54.088-21.267 24.721-38.867 45.532-39.111 46.247-0.28313 0.82862 15.954 1.3008 44.733 1.3008 33.36 0 45.596 0.41852 46.778 1.6 0.89472 0.89472 1.6 5.1852 1.6 9.7333 0 4.5482-0.70528 8.8386-1.6 9.7333-2.3032 2.3032-122.5 2.3032-124.8 0zm545.19-0.24579c-1.1207-1.3504-1.4329-20.346-1.1633-70.777l0.36861-68.931 4.2654-3.8104c9.3372-8.3412 42.404-15.183 73.735-15.257 14.788-0.03484 21.115 0.50572 26.911 2.2993 15.655 4.8439 24.291 15.447 26.491 32.525 0.6471 5.0216 1.1962 34.047 1.2202 64.5 0.038 48.004-0.2325 55.764-2.032 58.333-1.844 2.6327-3.2391 2.9634-12.503 2.9634-6.9071 0-10.911-0.58278-11.86-1.7261-0.96148-1.1585-1.5632-21.655-1.8299-62.333-0.44267-67.51-0.3377-66.727-9.5402-71.094-8.3728-3.9732-34.398-2.791-58.487 2.6568l-8.9629 2.0269-0.37047 63.951c-0.31932 55.12-0.64667 64.125-2.3705 65.214-3.2358 2.0444-22.081 1.6171-23.872-0.54131z"/>
  <path id="path164" fill="#3b3b3b" d="m515.1 220.78c-19.333-3.6982-32.387-13.097-38.035-27.386-3.8754-9.8034-4.226-31.937-0.66864-42.212 7.4988-21.659 29.427-30.199 85.269-33.207l17-0.91573-0.0296-12.199c-0.0423-17.364-2.5103-19.922-21.521-22.305-13.627-1.7087-34.813 0.17883-54.323 4.84-7.6305 1.823-14.936 2.9772-16.235 2.5649-2.4288-0.77086-5.2243-10.342-5.2243-17.886 0-4.5751 4.3452-6.6558 20.667-9.8964 34.733-6.8962 67.451-6.2302 85.469 1.7398 7.9168 3.502 11.893 7.0764 15.661 14.078 2.7834 5.1719 2.8827 6.9878 3.2827 60 0.22682 30.067 0.0363 57.242-0.42348 60.39-2.29 15.679-19.666 22.525-59.989 23.637-14.798 0.40795-24.264 0.0276-30.898-1.2416zm55.565-23.763 7.3333-1.7494 0.3616-27.177 0.3616-27.178-20.369 0.79548c-21.712 0.84791-39.161 3.6972-45.683 7.4594-7.2233 4.1669-10.005 9.9876-10.005 20.938 0 5.3438 0.63997 11.405 1.4222 13.47 2.88 7.6013 10.024 12.91 20.346 15.118 7.4259 1.5886 37.049 0.51506 46.231-1.6754zm177.77 23.763c-19.333-3.6982-32.387-13.097-38.035-27.386-3.8754-9.8034-4.226-31.937-0.66864-42.212 7.4988-21.659 29.427-30.199 85.269-33.207l17-0.91573v-11.953c0-6.5744-0.61779-13.108-1.3728-14.519-5.38-10.053-39.641-11.521-74.501-3.1924-7.6305 1.823-14.936 2.9772-16.235 2.5649-1.546-0.49068-2.8562-3.0547-3.793-7.4231-2.9624-13.813-1.8666-15.355 13.601-19.14 32.689-7.9976 72.359-7.7712 91.103 0.51997 7.9168 3.502 11.893 7.0764 15.661 14.078 2.7834 5.1719 2.8827 6.9878 3.2827 60 0.22683 30.067 0.0363 57.242-0.42348 60.39-2.29 15.679-19.666 22.525-59.989 23.637-14.798 0.40795-24.264 0.0276-30.898-1.2416zm55.565-23.763 7.3333-1.7494 0.3616-27.177 0.3616-27.178-20.369 0.79548c-21.712 0.84791-39.161 3.6972-45.683 7.4594-7.2233 4.1669-10.005 9.9876-10.005 20.938 0 5.3438 0.63997 11.405 1.4222 13.47 2.88 7.6013 10.024 12.91 20.346 15.118 7.4259 1.5886 37.049 0.51506 46.231-1.6754zm276.67 24.297c-26.626-4.8609-40.795-17.386-47.527-42.011-2.5545-9.3444-2.9126-14.057-2.9361-38.642-0.024-24.474 0.3289-29.285 2.7977-38.205 5.5034-19.885 13.462-30.904 27.164-37.608 16.476-8.0607 44.938-9.6816 73.502-4.1856l5 0.96206v-24.552c0-17.658 0.4684-25.141 1.6667-26.626 1.7-2.2359 15.6-6.444 21.2-6.444 1.9037 0 3.7976 0.94073 4.2459 2.109 0.4451 1.16 0.8093 45.279 0.8093 98.043 0 104.74 0.1954 102.01-7.6997 107.63-7.4703 5.3193-29.393 9.6658-51.634 10.237-11 0.28249-23-0.034-26.667-0.70347zm49.3-24.43l8-1.6697v-110.53l-8.6666-1.7474c-4.7667-0.96106-16.467-1.8447-26-1.9637-16.144-0.20144-17.853 0.02407-24.903 3.2854-8.2098 3.7979-12.734 9.2103-16.391 19.607-3.2959 9.3716-4.9093 33.937-3.3769 51.418 2.5035 28.558 9.9399 40.15 27.875 43.455 7.7251 1.4234 32.92 0.35195 43.463-1.8483zm110.71 23.654c-25.844-5.7898-39.665-20.147-45.574-47.34-2.9503-13.577-2.9395-52.686 0.018-66.416 5.5282-25.661 17.456-38.949 41.574-46.316 12.448-3.8023 41.997-3.4745 55.276 0.61333 20.782 6.3973 31.901 17.99 38.017 39.635 3.297 11.67 4.2709 53.467 1.5987 68.609-5.004 28.356-16.58 42.477-40.949 49.952-10.602 3.2524-37.99 3.9446-49.961 1.2628zm36.788-22.554c9.6385-1.2085 18.034-7.3077 22.008-15.988 7.3943-16.151 7.2518-68.959-0.2274-84.246-6.356-12.991-16.154-17.015-39.405-16.184-17.751 0.63442-24.116 3.107-30.427 11.818-6.2697 8.655-7.445 16.143-7.4205 47.273 0.018 22.783 0.4548 29.412 2.3448 35.578 5.9614 19.449 21.321 25.737 53.127 21.75zm-620.84 20.852c-7.7497-3.5206-13.472-10.673-15.279-19.096-1.0771-5.0211-1.4016-33.675-1.1144-98.399l0.40524-91.315 3.3333-1.579c1.8333-0.86848 7.1444-2.3592 11.802-3.3126 7.911-1.6194 8.5918-1.5656 10.333 0.81604 1.5543 2.1257 1.8643 17.874 1.8643 94.707 0 76.623 0.31276 92.585 1.8555 94.695 1.2708 1.7379 4.1069 2.7636 9 3.2548l7.1445 0.7173 1.69 6.68c2.2216 8.783 1.3053 12.06-3.8772 13.867-6.6033 2.302-21.035 1.7598-27.154-1.0201zm-331.27-2.759c-0.75914-1.4184-1.3802-6.7937-1.3802-11.945v-9.366l7.6667-9.1464c4.2167-5.0305 25.067-29.375 46.333-54.098 21.26-24.71 38.86-45.52 39.1-46.229 0.28-0.816-16.43-1.291-45.4-1.291-33.879 0-46.262-0.4176-47.444-1.6-2.0885-2.0885-2.0885-17.378 0-19.467 1.1978-1.1978 16.931-1.6 62.591-1.6h60.991l2.0756 2.9633c2.343 3.3452 2.8362 16.345 0.80745 21.283-0.69748 1.6977-21.697 26.757-46.667 55.688-24.969 28.931-45.399 53.081-45.399 53.667 0 0.58606 20.28 1.0656 45.067 1.0656 33.274 0 45.485 0.41867 46.667 1.6 0.89472 0.89472 1.6 5.1852 1.6 9.7333 0 4.5482-0.70528 8.8386-1.6 9.7333-1.1978 1.1978-16.938 1.6-62.62 1.6-58.964 0-61.066-0.0869-62.4-2.579zm545.55 0.97902c-1.2024-1.2024-1.5988-18.35-1.595-69 0.005-65.303 0.0889-67.538 2.7022-71.824 3.4022-5.5803 10.561-8.7971 28.698-12.895 18.542-4.1897 42.452-6.5567 56.531-5.5965 28.43 1.9389 40.972 12.146 44.05 35.846 1.9979 15.385 1.6833 116.99-0.3748 121.07-1.5568 3.085-2.4837 3.3619-12.442 3.7173-7.7246 0.27566-11.176-0.1172-12.234-1.3927-1.0161-1.2244-1.5981-20.618-1.8719-62.384-0.4443-67.758-0.40391-67.463-9.7765-71.379-8.6365-3.6085-42.794-1.6678-62.288 3.539l-5 1.3355v62.319c0 54.245-0.2689 62.702-2.0756 65.282-1.841 2.6284-3.2426 2.9634-12.4 2.9634-6.2523 0-10.955-0.63107-11.924-1.6z"/>
  <path id="path162" d="m519.4 221.18c-27.137-3.9544-41.007-16.203-44.876-39.63-3.0339-18.371 2.6057-38.123 13.435-47.056 10.538-8.6921 35.31-14.234 69.045-15.448l21.667-0.77913v-12.557c0-6.9064-0.65132-13.774-1.4474-15.261-5.5383-10.348-40.116-11.718-76.067-3.0127-16.124 3.9043-16.473 3.747-18.742-8.4517-1.8732-10.073-1.1209-11.217 9.279-14.112 16.135-4.4916 33.005-6.5996 53.644-6.7029 37.647-0.1884 53.848 6.7093 59.446 25.311 2.4143 8.0222 2.7549 108.67 0.39643 117.17-1.9754 7.1153-8.3847 12.859-17.586 15.759-16.639 5.245-49.281 7.5303-68.193 4.7744zm44.025-22.588c4.3514-0.77186 9.8616-2.0184 12.245-2.7701l4.3333-1.3667v-53.12l-15 0.0107c-28.894 0.0195-48.211 3.7038-56.201 10.719-5.5206 4.8472-8.225 14.227-6.8144 23.634 2.6037 17.363 13.686 24.181 39.437 24.26 7.7486 0.024 17.649-0.58798 22-1.3598zm189.31 22.588c-14.611-2.1291-26.728-7.444-33.586-14.733-17.444-18.538-15.716-58.064 3.1693-72.484 11.176-8.5336 34.831-13.709 69.02-15.1l21.34-0.86-0.32-12.4c-0.17597-6.8178-0.97728-13.624-1.7807-15.125-5.5519-10.374-40.088-11.753-76.08-3.0377-16.124 3.9043-16.473 3.747-18.742-8.4517-1.8732-10.073-1.1209-11.217 9.279-14.112 16.135-4.4916 33.005-6.5996 53.644-6.7029 37.647-0.1884 53.848 6.7093 59.446 25.311 2.4143 8.0222 2.7549 108.67 0.39643 117.17-1.9754 7.1153-8.3847 12.859-17.586 15.759-16.639 5.245-49.281 7.5303-68.193 4.7744zm44.025-22.588c4.3514-0.77186 9.8616-2.0184 12.245-2.7701l4.3333-1.3667v-53.12l-15 0.0107c-28.954 0.0196-48.21 3.7029-56.247 10.759-3.5305 3.0998-4.9437 5.7256-6.113 11.358-3.4972 16.846 2.7401 28.869 17.647 34.018 8.1691 2.8218 30.295 3.395 43.134 1.1174zm287.24 22.84c-30.458-4.4712-45.1-17.824-51.632-47.085-3.2112-14.384-3.1099-54.07 0.1744-68.346 3.312-14.396 7.4378-23.258 14.289-30.69 15.339-16.641 44.798-21.55 86.836-14.47l5 0.84212v-24.746c0-20.084 0.3722-25.118 1.9758-26.722 1.0867-1.0867 6.4527-3.0313 11.924-4.3212 8.1824-1.929 10.317-2.0396 12.024-0.62282 1.843 1.5296 2.0756 12.368 2.0756 96.726 0 52.252-0.3793 96.9-0.8429 99.218-1.8567 9.2836-8.6242 13.136-31.851 18.132-11.138 2.3957-39.731 3.5886-49.973 2.0849zm46.667-24.438 7.3333-1.721 0.3478-55.445 0.3478-55.445-10.348-1.8578c-13.136-2.3584-39.098-2.3795-47.014-0.03827-8.2131 2.4291-16.546 11.251-19.335 20.47-3.7874 12.518-5.3879 35.234-3.6669 52.044 0.8447 8.25 2.4914 18.158 3.6594 22.019 3.4275 11.328 11.952 19.299 23.343 21.827 6.516 1.4464 36.495 0.22064 45.333-1.8535zm115.3 24.28c-27.7-4.34-43.4-18.52-50.1-45.27-1.4-5.17-1.9-16-1.9-36.67 0-26.972 0.2502-30.138 3.1078-39.333 3.9557-12.728 7.858-19.426 15.332-26.315 12.424-11.452 25.825-15.528 50.893-15.481 25.223 0.04752 38.547 4.1004 50.893 15.481 7.8293 7.2168 11.803 14.237 15.338 27.097 2.5382 9.2339 2.9084 14.049 2.9645 38.552 0.051 22.177-0.4101 29.874-2.216 37.012-6.0041 23.732-18.698 37.019-41.154 43.077-9.1324 2.4637-32.78 3.4774-43.159 1.85zm39.936-25.738c8.8821-4.0664 14.572-11.429 16.975-21.965 1.1062-4.8498 1.7218-17.15 1.7135-34.236-0.014-29.218-1.6-38.361-8.1539-47.012-6.3986-8.4468-22.774-13.355-39.137-11.73-18.323 1.8196-27.068 7.3851-32.12 20.441-2.557 6.6082-3.0369 10.951-3.5704 32.308-1.2085 48.373 4.5326 60.822 30.357 65.827 1.8334 0.35533 8.5961 0.42627 15.028 0.15764 8.8699-0.37043 13.437-1.2861 18.908-3.7904zm-627.73 23.934c-6.8056-2.5327-11.296-6.8445-14.721-14.135-2.7732-5.9029-2.825-7.5056-3.1954-99.007-0.23672-58.472 0.10506-93.907 0.92046-95.43 0.87879-1.642 4.8151-3.227 12.208-4.9154 10.674-2.438 10.95-2.4376 12.746 0.018572 1.5171 2.0748 1.8357 18.635 1.8357 95.426 0 104.48-0.92568 95.883 10.47 97.197 4.9235 0.56771 6.4732 1.3836 7.6824 4.0445 2.9763 6.5496 3.2126 11.665 0.68301 14.789-2.035 2.5132-3.9896 3.0324-12.95 3.4403-6.9688 0.31721-12.294-0.16759-15.679-1.4275zm-332.11-2.8971c-1.5269-1.5269-2.0952-4.7691-2.0952-11.953v-9.8573l32.972-38.381c18.18-21.1 39.49-45.87 47.41-55.04l14.397-16.667-46.253-0.35086c-31.427-0.23839-46.825-0.82498-48.036-1.8299-2.6053-2.1622-2.3719-16.372 0.31308-19.057 1.843-1.843 9.3553-2.0952 62.4-2.0952 45.126 0 60.707 0.40272 61.905 1.6 0.98552 0.98552 1.6 5.819 1.6 12.586v10.989l-46.78 54.415-46.79 54.41 46.17 0.67c39.089 0.56441 46.364 0.97343 47.433 2.6667 2.1028 3.3295 1.5627 15.551-0.79125 17.905-1.8425 1.8425-9.3102 2.0952-61.905 2.0952s-60.062-0.25276-61.905-2.0952zm545.33 0c-1.8484-1.8484-2.0952-9.8764-2.0952-68.132 0-72.969 0.00004-72.969 8.3969-77.312 20.412-10.555 75.873-16.824 95.603-10.806 12.23 3.7305 19.136 8.9839 23.504 17.878l3.91 7.81 0.3822 64.471c0.2811 47.416-0.027 64.964-1.1632 66.333-1.8001 2.169-19.315 2.6026-22.552 0.55828-1.7148-1.083-2.0951-10.074-2.6667-63.041-0.73909-68.49-0.43932-66.282-9.6792-71.261-7.7995-4.2027-41.762-2.2359-63.987 3.7056l-5 1.3366v63.682c0 47.753-0.40022 64.082-1.6 65.282-2.4826 2.4826-20.379 2.0968-22.971-0.49524z"/>
 </g>
</svg>
