<svg xmlns="http://www.w3.org/2000/svg" viewBox="0 0 300 67.422" width="250" height="56.185"><path d="M228.541 22.468c.959 1.65 1.267 3.527 1.37 5.637l.137 2.808v19.658l.137 2.815c.274 4.596 3.664 7.993 8.294 8.28l2.802.137v-30.89l.137-2.808c.116-2.082.424-3.993 1.397-5.658 3.117-5.363 9.986-7.185 15.35-4.075a11.276 11.276 0 014.095 4.11c.952 1.65 1.254 3.561 1.37 5.623l.137 2.801v19.665l.137 2.815c.288 4.616 3.65 8.013 8.301 8.28l2.795.137V28.105c0-12.411-10.055-22.473-22.466-22.473a22.422 22.422 0 00-16.856 7.61 22.453 22.453 0 00-16.856-7.617 22.256 22.256 0 00-12.582 3.863c-2.192-2.445-7.082-3.863-9.898-3.863v56.178l2.809-.137c4.698-.308 8.102-3.616 8.28-8.28l.151-2.815V30.913l.137-2.808c.117-2.123.411-3.987 1.37-5.644a11.247 11.247 0 0119.452.007zM36.226 61.666l2.808.137h42.13l-.137-2.8c-.383-4.617-3.65-7.994-8.28-8.295l-2.809-.137h-25.28l33.698-33.713-.137-2.801C78 9.392 74.596 6.023 69.94 5.762l-2.809-.13L25 5.618l.137 2.809c.37 4.575 3.685 8.02 8.28 8.28l2.816.144h25.274L27.808 50.564l.137 2.808c.274 4.644 3.617 8 8.281 8.294zm149.082-47.815c10.966 10.966 10.973 28.754 0 39.72-10.98 10.965-28.76 10.965-39.74 0-10.965-10.966-10.965-28.76 0-39.726a28.105 28.105 0 0139.74.007zm-7.945 7.952c6.575 6.583 6.575 17.254 0 23.836-6.582 6.575-17.253 6.575-23.836 0-6.575-6.582-6.575-17.253 0-23.836 6.583-6.575 17.254-6.575 23.836 0zm-70.89-16.178a28.085 28.085 0 0119.849 8.226c10.973 10.966 10.973 28.76 0 39.72-10.98 10.965-28.76 10.965-39.74 0-10.966-10.966-10.966-28.76 0-39.726a28.068 28.068 0 0119.85-8.227h.04zm11.897 16.172c6.582 6.582 6.582 17.253 0 23.842-6.582 6.575-17.254 6.575-23.836 0-6.575-6.582-6.575-17.253 0-23.836 6.59-6.582 17.254-6.582 23.836-.006z" fill-rule="evenodd" clip-rule="evenodd" fill="#2d8cff"/></svg>