<svg xmlns="http://www.w3.org/2000/svg" enable-background="new 0 0 1050 200" viewBox="0 0 1050 200"><style>.st1{fill:#fff}</style><g id="button"><path id="dark" fill="#121212" d="M1018 200H32c-17.7 0-32-14.3-32-32V32C0 14.3 14.3 0 32 0h986c17.7 0 32 14.3 32 32v136c0 17.7-14.3 32-32 32z"/></g><g id="donate"><path d="M73.3 110.6c0-13.1 6.8-21.4 17.2-21.4 5.9 0 10.6 3.1 12.8 7.7h.2V79.3c0-3.3 2-5.1 4.8-5.1s4.9 1.8 4.9 5.1v47.9c0 3.1-2 4.9-4.8 4.9s-4.9-1.7-4.9-4.9V124h-.2c-2 4.8-6.4 8-12.9 8-10.4 0-17.1-8.2-17.1-21.4zm30.2 0c0-8.1-4-13.4-10.2-13.4-6.3 0-10.2 5.2-10.2 13.4S87 124 93.3 124c6.2 0 10.2-5.2 10.2-13.4zM205.5 131.7c-3.3 0-5.2-2-5.2-5.7v-19.7c0-5.4-2.7-8.5-7.5-8.5-5.4 0-8.7 3.9-8.7 10.4V126c0 3.6-1.9 5.7-5.2 5.7s-5.2-2-5.2-5.7V95c0-3.4 2-5.5 5.1-5.5 3.1 0 4.9 1.8 5 5.2v2.5h.5c1.6-4.9 6.3-8 12.3-8 8.8 0 13.8 5.2 13.8 14.3V126c.2 3.7-1.6 5.7-4.9 5.7zM232 131.9c-8.1 0-13.6-5.1-13.6-12.6 0-7.7 5.7-12.4 15.1-12.4h9.8v-3.4c0-4.2-2.6-6.4-7.3-6.4-3.1 0-5.4 1.2-7.7 3.2-1.2.9-2.3 1.4-3.9 1.4-2.3 0-3.7-1.5-3.7-3.6 0-2.4 1.7-4.9 5.3-6.7 2.6-1.4 6.1-2.1 10.6-2.1 10.9 0 17 5.2 17 14.3v22.7c0 3.5-1.8 5.5-5 5.5-2.7 0-4.5-1.5-4.8-4.2v-1.4h-.5c-2.2 3.6-6.3 5.7-11.3 5.7zm3.4-7.4c4.5 0 7.9-3 7.9-7v-4.3h-8c-4.2 0-6.7 2-6.7 5.4 0 3.5 2.8 5.9 6.8 5.9zM266.3 98.3h-2.1c-2.8 0-4.4-1.5-4.4-4s1.6-4 4.4-4h2.3v-5.4c0-3.6 1.8-5.5 5-5.5s5 2 5 5.5v5.4h4.1c2.8 0 4.4 1.5 4.4 4s-1.6 4-4.4 4h-4v20.9c0 3.8 1 5 4.1 5 1.1 0 1.8-.2 2.7-.2 1.8 0 3 1.2 3 3.1 0 1.5-.7 2.8-2.1 3.7-1.4.9-3.6 1.4-6.4 1.4-8.2 0-11.7-3.4-11.7-11.9v-22zM291.3 108c0-11.3 7.5-19 18.6-19 10.5 0 18 7.5 18 17.7 0 4.6-1.3 6.2-5.2 6.2h-21v1.8c0 5.8 3.7 9.5 9.8 9.5 3.2 0 5.5-.8 7.3-2.3 2-1.5 2.7-2.1 4.3-2.1 2.1 0 3.6 1.5 3.6 3.8 0 1.8-1.1 3.6-3.1 5-2.7 2.3-7.5 3.7-12.8 3.7-12.1 0-19.6-7.1-19.6-18.9V108zm26.8-1.6c0-5.7-3.1-9.4-8-9.4-5.1 0-8.3 3.8-8.3 9.3v.1h16.3zM359.5 97.1c-.3-1.2-.4-1.9-.4-2.5 0-2.9 2.1-5 5.2-5 2.7 0 4.5 1.8 5 5.1l5.2 25.9h.5l6.2-24.5c1.2-4.8 2.9-6.6 6.3-6.6s5.2 1.8 6.4 6.6l6.3 24.5h.5l5.4-25.9c.6-3.2 2.4-5.1 5-5.1 3.1 0 5 2 5 4.7 0 .6-.2 1.5-.5 2.7l-7.2 26.5c-1.7 6.2-3.7 8.2-7.3 8.2-3.9 0-5.9-2-7.5-8.2l-6-21.8h-.4l-5.8 21.8c-1.6 6.3-3.4 8.2-7.3 8.2-3.8 0-5.9-2.1-7.5-8.2l-7.1-26.4zM426.9 74c3.4 0 5.9 2.3 5.9 5.4s-2.5 5.4-5.9 5.4c-3.3 0-5.8-2.3-5.8-5.4s2.5-5.4 5.8-5.4zm0 57.7c-3.2 0-5.1-2-5.1-5.7V95.2c0-3.8 2-5.7 5.2-5.7s5.1 2 5.1 5.7v30.9c0 3.7-2 5.6-5.2 5.6zM444 98.3h-2.1c-2.8 0-4.4-1.5-4.4-4s1.6-4 4.4-4h2.3v-5.4c0-3.6 1.8-5.5 5-5.5s5 2 5 5.5v5.4h4.1c2.8 0 4.4 1.5 4.4 4s-1.6 4-4.4 4h-4v20.9c0 3.8 1 5 4.1 5 1.1 0 1.8-.2 2.7-.2 1.8 0 3 1.2 3 3.1 0 1.5-.7 2.8-2.1 3.7-1.4.9-3.6 1.4-6.4 1.4-8.2 0-11.7-3.4-11.7-11.9v-22zM501.1 131.7c-3.3 0-5.2-2-5.2-5.7v-19.6c0-5.4-2.8-8.5-7.6-8.5-5.3 0-8.8 4-8.8 10.4v17.8c0 3.6-1.9 5.7-5.2 5.7s-5.1-2-5.1-5.7V80.6c0-3.6 1.8-5.7 5.2-5.7 3.3 0 5.1 2.1 5.1 5.7v16.6h.5c1.4-4.7 6.5-8 12.4-8 8.6 0 13.8 5.4 13.8 14.4V126c.1 3.7-1.8 5.7-5.1 5.7z" class="st1"/><path id="heart_2_" d="M154.3 89.2c-4.3 0-8.5 2.1-10.8 6.7-2.3-4.6-6.5-6.7-10.8-6.7-6.7 0-12.7 4.7-12.7 13.1 0 14.2 19.4 21.4 23.5 29.9 4.1-8.5 23.5-15.7 23.5-29.9 0-9-6.7-13.1-12.7-13.1zm-4.1 10c3 0 5.7 2 5.7 6 0 6.3-8.3 10.6-12.8 15.2-4.4-4.6-12.8-8.9-12.8-15.2 0-3.9 2.6-6 5.7-6 4.1 0 6.2 4.6 7 6.8 1-2.2 3.2-6.8 7.2-6.8z" class="st1"/></g><g id="PayPal"><path d="M888.7 89.7c-1.2 8-7.3 8-13.2 8h-3.4l2.4-14.9c.1-.9.9-1.6 1.8-1.6h1.5c4 0 7.8 0 9.7 2.3 1.3 1.4 1.6 3.4 1.2 6.2m-2.6-20.8h-22.2c-1.5 0-2.8 1.1-3 2.6l-9 56.9c-.2 1 .5 2 1.5 2.1H865.1c1.1 0 2-.8 2.1-1.8l2.5-16.1c.2-1.5 1.5-2.6 3.1-2.6h7c14.6 0 23.1-7.1 25.3-21.1 1-6.1 0-11-2.8-14.3-3.1-3.7-8.7-5.7-16.2-5.7M730.2 89.7c-1.2 8-7.3 8-13.2 8h-3.4l2.4-14.9c.1-.9.9-1.6 1.8-1.6h1.5c4 0 7.8 0 9.7 2.3 1.3 1.4 1.7 3.4 1.2 6.2m-2.5-20.8h-22.2c-1.5 0-2.8 1.1-3.1 2.6l-9 56.9c-.2 1 .5 2 1.5 2.1h10.9c1.5 0 2.8-1.1 3-2.6l2.4-15.4c.2-1.5 1.5-2.6 3-2.6h7c14.6 0 23.1-7.1 25.3-21.1 1-6.1 0-11-2.8-14.3-3-3.6-8.6-5.6-16-5.6m51.6 41.3c-1 6.1-5.9 10.2-12 10.2-3.1 0-5.6-1-7.1-2.9-1.6-1.9-2.2-4.5-1.7-7.5 1-6 5.9-10.2 11.9-10.2 3 0 5.5 1 7.1 2.9 1.6 1.8 2.2 4.5 1.8 7.5m14.8-20.7h-10.6c-.9 0-1.7.7-1.8 1.6l-.5 3-.7-1.1c-2.3-3.3-7.4-4.5-12.6-4.5-11.8 0-21.8 8.9-23.7 21.4-1 6.2.4 12.2 4 16.3 3.2 3.8 7.9 5.4 13.4 5.4 9.5 0 14.7-6.1 14.7-6.1l-.5 3c-.2 1 .5 2 1.5 2.1h9.9c1.5 0 2.8-1.1 3-2.6l5.8-36.4c.2-1-.5-2-1.5-2.1h-.4m143.6 20.7c-1 6.1-5.9 10.2-12 10.2-3.1 0-5.6-1-7.1-2.9-1.6-1.9-2.2-4.5-1.7-7.5 1-6 5.9-10.2 11.9-10.2 3 0 5.5 1 7.1 2.9 1.6 1.8 2.3 4.5 1.8 7.5m14.8-20.7h-10.6c-.9 0-1.7.7-1.8 1.6l-.5 3-.7-1.1c-2.3-3.3-7.4-4.5-12.6-4.5-11.8 0-21.8 8.9-23.7 21.4-1 6.2.4 12.2 4 16.3 3.2 3.8 7.9 5.4 13.4 5.4 9.5 0 14.7-6.1 14.7-6.1l-.5 3c-.2 1 .5 2 1.5 2.1h9.9c1.5 0 2.8-1.1 3-2.6l5.8-36.4c.2-1-.5-2-1.5-2.1h-.4m-101.8 0H840c-1 0-2 .5-2.6 1.4l-14.7 21.7-6.3-20.9c-.4-1.3-1.6-2.2-3-2.2H803c-1 0-1.9.8-1.9 1.9 0 .2 0 .4.1.6l11.8 34.5-11 15.6c-.9 1.2 0 2.9 1.5 2.9h10.7c1 0 2-.5 2.5-1.3l35.6-51.3c.8-1.3-.1-2.9-1.6-2.9m114.4-19l-9.1 58c-.2 1 .5 2 1.5 2.1h9.5c1.5 0 2.8-1.1 3-2.6l9-56.9c.2-1-.5-2-1.5-2.1H966.9c-.9-.1-1.7.6-1.8 1.5" class="st1"/><defs><filter id="Adobe_OpacityMaskFilter" width="83.1" height="98" x="575" y="47" filterUnits="userSpaceOnUse"><feColorMatrix values="1 0 0 0 0 0 1 0 0 0 0 0 1 0 0 0 0 0 1 0"/></filter></defs><mask id="e_1_" width="83.1" height="98" x="575" y="47" maskUnits="userSpaceOnUse"><g filter="url(#Adobe_OpacityMaskFilter)"><path id="d_1_" d="M575 47h83.1v98H575V47z" class="st1"/></g></mask><path fill="#fff" d="M649.9 71.9c1.2-7.6 0-12.8-4.1-17.5-4.5-5.2-12.7-7.4-23.2-7.4H592c-2.1 0-4 1.6-4.3 3.7L575 131.1c-.2 1.4.7 2.8 2.2 3h19.2l-1.3 8.2c-.2 1.2.7 2.4 1.9 2.6h16.3c1.9 0 3.5-1.4 3.8-3.2l.2-.8 3-18.9.2-1c.3-1.9 1.9-3.2 3.8-3.2h2.4c15.4 0 27.4-6.2 30.9-24.3 1.5-7.5.7-13.8-3.2-18.3-1.4-1.3-2.8-2.4-4.5-3.3" enable-background="new" mask="url(#e_1_)" opacity=".678"/><defs><filter id="Adobe_OpacityMaskFilter_1_" width="75.3" height="87.1" x="575" y="47" filterUnits="userSpaceOnUse"><feColorMatrix values="1 0 0 0 0 0 1 0 0 0 0 0 1 0 0 0 0 0 1 0"/></filter></defs><mask id="g_1_" width="75.3" height="87.1" x="575" y="47" maskUnits="userSpaceOnUse"><g filter="url(#Adobe_OpacityMaskFilter_1_)"><path id="f_1_" d="M575 47h75.3v87.1H575V47z" class="st1"/></g></mask><path fill="#fff" d="M649.9 71.9c1.2-7.6 0-12.8-4.1-17.5-4.5-5.2-12.7-7.4-23.2-7.4H592c-2.1 0-4 1.6-4.3 3.7L575 131.1c-.2 1.4.7 2.8 2.2 3h19.2l4.7-30-.1.9c.3-2.1 2.1-3.7 4.3-3.7h8.9c17.6 0 31.3-7.1 35.3-27.8.2-.4.3-1 .4-1.6" enable-background="new" mask="url(#g_1_)" opacity=".696"/><defs><filter id="Adobe_OpacityMaskFilter_2_" width="75.3" height="87.1" x="575" y="47" filterUnits="userSpaceOnUse"><feColorMatrix values="1 0 0 0 0 0 1 0 0 0 0 0 1 0 0 0 0 0 1 0"/></filter></defs><mask id="i_1_" width="75.3" height="87.1" x="575" y="47" maskUnits="userSpaceOnUse"><g filter="url(#Adobe_OpacityMaskFilter_2_)"><path id="h_1_" d="M575 47h75.3v87.1H575V47z" class="st1"/></g></mask><path fill="#fff" d="M606.2 72c.3-1.9 1.9-3.2 3.8-3.2h23.9c2.8 0 5.5.2 7.9.6.7.1 1.4.2 2 .4.9.2 1.9.5 2.8.8 1.1.4 2.2.8 3.3 1.4 1.2-7.6 0-12.8-4.1-17.5-4.5-5.2-12.7-7.4-23.2-7.4H592c-2.1 0-4 1.6-4.3 3.7L575 131.1c-.2 1.4.7 2.8 2.2 3h19.2l4.7-30 5.1-32.1z" mask="url(#i_1_)"/></g></svg>